<?xml version="1.0" encoding="UTF-8"?>
<svg id="Camada_1" data-name="Camada 1" xmlns="http://www.w3.org/2000/svg" viewBox="0 0 1681.72 466.47">
  <defs>
    <style>
      .cls-1 {
        opacity: .8;
      }
    </style>
  </defs>
  <g>
    <path d="M894.98,43.22l3.72,28.26h-5.24c-9.31-25.21-24.36-36.04-39.25-36.04-21.49,0-34.52,21.49-34.52,53.46s15.74,54.14,42.3,54.14c15.06.17,27.41-7.95,33.5-21.66l5.08,2.03c-4.74,12.35-17.43,29.95-47.37,29.95-35.87,0-67.68-21.32-67.68-60.74s28.42-62.6,65.48-62.6c20.64,0,35.87,6.43,43.99,13.2Z"/>
    <path d="M905.98,147.95c7.78-.68,14.72-1.69,14.72-12.69V48.3c0-10.66-6.94-12.18-14.72-12.86v-2.88h48.05v45.85c5.92-10.15,17.6-14.55,29.1-14.55,18.27,0,36.88,9.14,36.88,31.3v40.1c0,11,5.75,12.18,14.55,12.69v3.05h-60.57v-3.05c8.63-.85,12.69-1.86,12.69-12.69v-38.58c0-16.58-7.11-22.33-14.89-22.33-9.98,0-17.76,9.47-17.76,28.42v32.48c0,11,5.24,12.01,12.69,12.69v3.05h-60.74v-3.05Z"/>
    <path d="M1046.92,122.24v-40.27c0-11-5.58-12.18-14.38-12.52v-3.21l47.54.17v53.97c0,17.6,6.43,23.01,13.54,23.01,8.63,0,15.73-10.15,15.73-29.1v-32.32c0-11-4.91-12.01-12.35-12.52v-3.21l45.68.17v68.86c0,10.49,6.77,12.18,14.72,12.69v2.88h-48.05v-12.86c-4.91,9.81-15.06,15.57-27.07,15.57-17.93,0-35.36-11-35.36-31.3Z"/>
    <path d="M1275.83,69.45c-8.46.51-15.9,1.86-21.83,11.84l-37.39,72.25-40.61-72.92c-5.58-9.14-13.54-10.49-21.99-11.17v-3.05h67.51v3.05c-8.29.68-11.84,1.86-6.43,11.17l17.09,30.96,15.9-31.3c4.74-8.97,1.01-10.15-7.28-10.83v-3.05h35.02v3.05Z"/>
    <path d="M1271.26,128.66c0-17.93,17.76-39.42,62.26-43.65-1.52-10.83-6.43-15.4-16.41-15.4-13.03,0-29.1,8.8-38.41,31.64h-4.57l5.24-29.27c11.17-4.74,27.24-7.95,40.78-7.95,24.19,0,47.54,7.44,47.54,32.82v35.87c0,8.63,1.18,12.86,4.06,12.86,2.54,0,4.91-3.22,7.44-9.14l4.57,2.88c-4.4,10.49-9.3,14.21-24.53,14.21-10.83,0-19.96-3.72-23.35-11.34-5.24,7.28-16.24,11.34-29.78,11.34-16.58,0-34.85-6.6-34.85-24.87ZM1334.54,120.21v-19.29c0-3.72-.17-7.95-.51-11.17-19.46,3.05-27.41,20.47-27.41,38.41,0,13.2,5.41,17.76,11,17.76,7.11.17,16.92-7.61,16.92-25.72Z"/>
    <path d="M1391.9,140.51l-4.57-31.47h4.74c10.32,27.41,29.44,38.91,45.34,38.91,11.34,0,18.61-4.4,18.61-11.17,0-8.8-12.69-12.69-28.26-18.1-17.43-5.41-35.7-11.17-35.7-28.09-.17-18.44,21.15-26.56,44.5-26.56,11.67,0,28.76,2.71,38.58,7.78l5.08,28.42h-4.74c-8.63-19.96-23.01-30.79-37.9-30.79-9.14,0-16.24,4.23-16.24,10.66,0,9.47,13.37,12.52,27.92,16.92,17.26,4.57,36.04,11,36.04,28.93,0,19.46-22.67,27.58-47.04,27.58-16.24,0-37.05-4.06-46.36-13.03Z"/>
  </g>
  <g>
    <path d="M1291.69,206.83c0-11.28,7.34-20.29,18.17-20.29,5.53,0,10.52,2.42,14.08,6.74v-13.7c0-4.77-3.1-5.6-6.59-6.13v-.91h21.43v54.13h-.38l-13.48-8.48c-3.26,5.45-9.01,8.48-15.14,8.48-10.75,0-18.09-8.63-18.09-19.84ZM1323.94,206.83c0-9.99-4.62-15.67-8.56-15.67-4.77,0-8.33,5.68-8.33,15.52s3.71,15.07,8.48,15.07c3.86,0,8.4-5.22,8.4-14.91Z"/>
    <path d="M1385.12,213.34l2.04,1.21c-1.89,5.22-6.51,12.11-19.38,12.11-14.16,0-22.71-8.48-23.02-19.68,0-11.58,8.86-20.44,21.8-20.44s20.59,7.5,20.59,16.43h-27.1c0,1.06,0,2.12.08,3.26.53,10.68,5.75,16.28,12.57,16.28,5,0,10.07-3.56,12.42-9.16ZM1360.21,200.55h12.79c-.23-8.93-2.95-11.81-6.06-11.81-3.41,0-6.13,4.62-6.74,11.81Z"/>
  </g>
  <g>
    <path d="M1159.8,231.08c-4.94-10.57-13.47-11.42-20.46-11.94v-3.07h66.67v3.07c-7.5.68-13.3,2.05-8.7,11.77l23.36,53.54,20.29-54.05c4.09-9.89-1.53-10.57-9.04-11.25v-3.07h35.98v3.07c-6.99.68-16.71,1.36-20.97,11.59l-39.56,107.25h-1.53l-46.04-106.91Z"/>
    <path d="M1344.8,307.98l4.6,2.73c-4.26,11.76-14.66,27.28-43.65,27.28-31.88,0-51.15-19.1-51.83-44.33,0-26.09,19.95-46.04,49.11-46.04s46.38,16.88,46.38,37h-61.04c0,2.39,0,4.77.17,7.33,1.19,24.04,12.96,36.66,28.3,36.66,11.25,0,22.68-8.01,27.96-20.63ZM1288.7,279.17h28.82c-.51-20.12-6.65-26.6-13.64-26.6-7.67,0-13.81,10.4-15.18,26.6Z"/>
    <path d="M1452.9,288.71h-5.46c-9.21-22.68-15.69-33.93-25.92-33.93-12.62,0-19.61,17.39-19.61,43.99v20.8c0,11.08,5.29,12.11,12.79,12.79v3.07h-61.21v-3.07c7.84-.68,14.83-1.7,14.83-12.79v-53.54c0-10.74-6.99-12.28-14.83-12.79v-3.07h48.42v10.57c5.97-8.53,14.32-13.13,22.51-13.13,9.38,0,18.07,4.43,24.21,10.4l4.26,30.69Z"/>
    <path d="M1460.06,312.93c0-18.07,17.9-39.73,62.75-43.99-1.53-10.91-6.48-15.52-16.54-15.52-13.13,0-29.33,8.87-38.7,31.88h-4.6l5.29-29.5c11.25-4.77,27.45-8.01,41.09-8.01,24.38,0,47.91,7.5,47.91,33.08v36.15c0,8.7,1.19,12.96,4.09,12.96,2.56,0,4.94-3.24,7.5-9.21l4.6,2.9c-4.43,10.57-9.38,14.32-24.72,14.32-10.91,0-20.12-3.75-23.53-11.42-5.29,7.33-16.37,11.42-30.01,11.42-16.71,0-35.12-6.65-35.12-25.06ZM1484.44,234.83h-2.73c0-22,5.12-27.28,14.49-27.28,12.28,0,25.24,16.88,34.95,16.88,4.6,0,8.18-1.53,8.18-12.62h2.73c0,23.02-4.94,27.28-13.64,27.28-12.62,0-24.55-16.88-35.81-16.88-4.6,0-8.18,1.53-8.18,12.62ZM1523.83,304.4v-19.44c0-3.75-.17-8.01-.51-11.25-19.61,3.07-27.62,20.63-27.62,38.71,0,13.3,5.46,17.9,11.08,17.9,7.16.17,17.05-7.67,17.05-25.92Z"/>
    <path d="M1576.17,293.49c0-28.48,22.17-45.87,52.86-45.87s52.69,17.39,52.69,45.87-21.82,44.5-52.69,44.5-52.86-16.03-52.86-44.5ZM1647.1,293.49c0-30.69-7.33-40.75-18.07-40.75s-18.24,10.23-18.24,40.75,7.33,39.39,18.24,39.39,18.07-8.87,18.07-39.39Z"/>
  </g>
  <g>
    <path d="M628.07,227.14h2.01c.17,1.67,1.62,2.87,4.1,2.87,2.17,0,3.4-1.17,3.4-2.62,0-3.76-9.14-1.56-9.14-7.27,0-2.26,2.15-4.12,5.35-4.12s5.41,1.73,5.57,4.65h-1.95c-.11-1.7-1.37-2.98-3.68-2.98-2.03,0-3.32,1.09-3.32,2.42,0,4.12,9,1.92,9.08,7.3,0,2.45-2.15,4.26-5.29,4.26-3.46,0-5.88-1.73-6.13-4.51Z"/>
    <path d="M643.73,217.86h-2.12v-1.64h2.12v-3.82h1.98v3.82h4.18v1.64h-4.18v9.45c0,1.87.64,2.45,2.4,2.45h1.78v1.67h-2.09c-2.65,0-4.07-1.09-4.07-4.12v-9.45Z"/>
    <path d="M659.47,215.99c3.06,0,5.15,1.64,6.02,3.57v-3.34h1.95v15.21h-1.95v-3.37c-.89,1.95-3.01,3.59-6.05,3.59-4.15,0-7.24-3.09-7.24-7.86s3.09-7.8,7.27-7.8ZM659.83,217.69c-3.2,0-5.66,2.23-5.66,6.1s2.45,6.16,5.66,6.16,5.66-2.34,5.66-6.13-2.54-6.13-5.66-6.13Z"/>
    <path d="M671.9,216.22h1.95v2.7c.84-1.87,2.59-2.98,5.21-2.98v2.03h-.53c-2.54,0-4.68,1.14-4.68,4.96v8.5h-1.95v-15.21Z"/>
    <path d="M681.98,216.22h1.95v2.7c.84-1.87,2.59-2.98,5.21-2.98v2.03h-.53c-2.54,0-4.68,1.14-4.68,4.96v8.5h-1.95v-15.21Z"/>
    <path d="M691.62,211.9c0-.84.64-1.42,1.42-1.42s1.42.59,1.42,1.42-.64,1.45-1.42,1.45-1.42-.61-1.42-1.45ZM692.06,216.22h1.95v15.21h-1.95v-15.21Z"/>
    <path d="M698.44,216.22h1.95v2.59c.98-1.89,2.93-2.87,5.18-2.87,3.46,0,6.19,2.12,6.19,6.58v8.92h-1.92v-8.69c0-3.37-1.84-5.1-4.63-5.1s-4.82,1.78-4.82,5.49v8.3h-1.95v-15.21Z"/>
    <path d="M728.48,219.53v-3.31h1.95v15.6c0,4.26-2.93,7.08-7.1,7.08-3.93,0-6.66-2.01-7.27-5.18h1.92c.64,2.06,2.56,3.48,5.35,3.48s5.15-1.92,5.15-5.38v-3.76c-.89,1.95-3.01,3.59-6.02,3.59-4.18,0-7.27-3.09-7.27-7.86s3.09-7.8,7.27-7.8c3.01,0,5.15,1.62,6.02,3.54ZM722.82,217.69c-3.2,0-5.66,2.23-5.66,6.1s2.45,6.16,5.66,6.16,5.66-2.34,5.66-6.13-2.54-6.13-5.66-6.13Z"/>
    <path d="M742.21,215.99h3.9v1.92c1-1.31,2.67-2.15,4.65-2.15,3.59,0,6.16,2.34,6.16,6.6v9.06h-3.9v-8.53c0-2.48-1.37-3.82-3.43-3.82s-3.48,1.34-3.48,3.82v8.53h-3.9v-15.44Z"/>
    <path d="M764.38,224.49c0,2.48,1.37,3.82,3.43,3.82s3.45-1.34,3.45-3.82v-8.5h3.93v15.44h-3.93v-1.95c-.98,1.31-2.67,2.15-4.6,2.15-3.59,0-6.19-2.34-6.19-6.58v-9.05h3.9v8.5Z"/>
    <path d="M779.04,215.99h3.9v1.92c1-1.31,2.67-2.15,4.65-2.15,3.59,0,6.16,2.34,6.16,6.6v9.06h-3.9v-8.53c0-2.48-1.37-3.82-3.43-3.82s-3.48,1.34-3.48,3.82v8.53h-3.9v-15.44Z"/>
    <path d="M796.48,223.71c0-4.88,3.48-7.97,7.94-7.97s7.94,3.09,7.94,7.97-3.57,7.97-8.05,7.97-7.83-3.12-7.83-7.97ZM808.35,223.71c0-3.09-1.92-4.57-3.98-4.57s-3.93,1.48-3.93,4.57,1.78,4.57,3.87,4.57,4.04-1.51,4.04-4.57Z"/>
    <path d="M827.9,215.74c2.48,0,4.18,1.17,5.1,2.45v-2.2h3.93v15.44h-3.93v-2.26c-.92,1.34-2.67,2.51-5.13,2.51-3.9,0-7.02-3.2-7.02-8.02s3.12-7.91,7.05-7.91ZM828.9,219.17c-2.09,0-4.07,1.56-4.07,4.49s1.98,4.6,4.07,4.6,4.1-1.62,4.1-4.54-1.95-4.54-4.1-4.54Z"/>
    <path d="M840.74,215.99h3.9v2.39c.97-1.59,2.59-2.62,4.74-2.62v4.1h-1.03c-2.31,0-3.71.89-3.71,3.87v7.69h-3.9v-15.44Z"/>
    <path d="M858.04,215.74c2.48,0,4.18,1.17,5.1,2.45v-2.2h3.93v15.44h-3.93v-2.26c-.92,1.34-2.67,2.51-5.13,2.51-3.9,0-7.02-3.2-7.02-8.02s3.12-7.91,7.05-7.91ZM859.05,219.17c-2.09,0-4.07,1.56-4.07,4.49s1.98,4.6,4.07,4.6,4.1-1.62,4.1-4.54-1.95-4.54-4.1-4.54Z"/>
    <path d="M874.65,224.49c0,2.48,1.37,3.82,3.43,3.82s3.46-1.34,3.46-3.82v-8.5h3.93v15.44h-3.93v-1.95c-.98,1.31-2.67,2.15-4.6,2.15-3.59,0-6.19-2.34-6.19-6.58v-9.05h3.9v8.5ZM881.22,208.8v3.18l-6.41,2.93v-2.79l6.41-3.32Z"/>
    <path d="M893.2,215.99v17.97c0,3.57-1.92,4.82-4.9,4.82h-1.73v-3.32h1.11c1.2,0,1.62-.45,1.62-1.48v-18h3.9ZM888.85,211.87c0-1.28,1-2.29,2.42-2.29s2.37,1,2.37,2.29-1,2.29-2.37,2.29-2.42-1-2.42-2.29Z"/>
    <path d="M896.07,223.71c0-4.88,3.48-7.97,7.94-7.97s7.94,3.09,7.94,7.97-3.57,7.97-8.05,7.97-7.83-3.12-7.83-7.97ZM907.94,223.71c0-3.09-1.92-4.57-3.98-4.57s-3.93,1.48-3.93,4.57,1.78,4.57,3.87,4.57,4.04-1.51,4.04-4.57Z"/>
    <path d="M922.31,222.15c0-2.2,1.73-3.9,3.87-3.9s3.93,1.7,3.93,3.9-1.73,3.87-3.93,3.87-3.87-1.7-3.87-3.87Z"/>
    <path d="M941.45,210.81h3.9v20.62h-3.9v-20.62Z"/>
    <path d="M952.96,224.49c0,2.48,1.37,3.82,3.43,3.82s3.46-1.34,3.46-3.82v-8.5h3.93v15.44h-3.93v-1.95c-.97,1.31-2.67,2.15-4.6,2.15-3.59,0-6.19-2.34-6.19-6.58v-9.05h3.9v8.5Z"/>
    <path d="M974.24,215.74c3.84,0,6.44,2.01,7.27,5.46h-4.21c-.45-1.31-1.48-2.14-3.09-2.14-2.17,0-3.62,1.64-3.62,4.65s1.45,4.62,3.62,4.62c1.62,0,2.62-.72,3.09-2.12h4.21c-.84,3.29-3.43,5.46-7.27,5.46-4.46,0-7.63-3.12-7.63-7.97s3.18-7.97,7.63-7.97Z"/>
    <path d="M990.42,215.74c2.48,0,4.18,1.17,5.1,2.45v-2.2h3.93v15.44h-3.93v-2.26c-.92,1.34-2.67,2.51-5.13,2.51-3.9,0-7.02-3.2-7.02-8.02s3.12-7.91,7.05-7.91ZM991.43,219.17c-2.09,0-4.07,1.56-4.07,4.49s1.98,4.6,4.07,4.6,4.1-1.62,4.1-4.54-1.95-4.54-4.1-4.54Z"/>
    <path d="M1002.43,226.55h3.93c.14,1.17,1.23,2.06,2.79,2.06s2.37-.7,2.37-1.59c0-2.76-8.72-1-8.72-6.66,0-2.56,2.29-4.62,6.1-4.62s5.99,2.04,6.21,5.1h-3.73c-.11-1.2-1.06-2.01-2.59-2.01-1.45,0-2.2.58-2.2,1.48,0,2.81,8.55,1.06,8.67,6.71,0,2.65-2.31,4.65-6.07,4.65s-6.58-2.26-6.74-5.13Z"/>
    <path d="M1025.69,219.2h-1.84v-3.2h1.84v-3.82h3.93v3.82h3.46v3.2h-3.46v7.47c0,1.03.42,1.48,1.64,1.48h1.81v3.29h-2.45c-2.95,0-4.93-1.25-4.93-4.79v-7.44Z"/>
    <path d="M1034.91,223.71c0-4.88,3.48-7.97,7.94-7.97s7.94,3.09,7.94,7.97-3.57,7.97-8.05,7.97-7.83-3.12-7.83-7.97ZM1046.78,223.71c0-3.09-1.92-4.57-3.98-4.57s-3.93,1.48-3.93,4.57,1.78,4.57,3.87,4.57,4.04-1.51,4.04-4.57Z"/>
    <path d="M1053.66,215.99h3.9v2.39c.97-1.59,2.59-2.62,4.74-2.62v4.1h-1.03c-2.31,0-3.71.89-3.71,3.87v7.69h-3.9v-15.44Z"/>
    <path d="M1064.92,215.99h3.9v2.39c.98-1.59,2.59-2.62,4.74-2.62v4.1h-1.03c-2.31,0-3.71.89-3.71,3.87v7.69h-3.9v-15.44Z"/>
    <path d="M1082.91,231.68c-4.49,0-7.75-3.12-7.75-7.97s3.18-7.97,7.75-7.97,7.61,3.04,7.61,7.63c0,.5-.03,1-.11,1.5h-11.28c.2,2.29,1.76,3.57,3.71,3.57,1.67,0,2.59-.84,3.09-1.87h4.21c-.84,2.84-3.4,5.1-7.22,5.1ZM1079.15,222.26h7.33c-.06-2.03-1.67-3.31-3.68-3.31-1.87,0-3.34,1.2-3.65,3.31Z"/>
    <path d="M1092.52,226.55h3.93c.14,1.17,1.23,2.06,2.79,2.06s2.37-.7,2.37-1.59c0-2.76-8.72-1-8.72-6.66,0-2.56,2.29-4.62,6.1-4.62s5.99,2.04,6.21,5.1h-3.73c-.11-1.2-1.06-2.01-2.59-2.01-1.45,0-2.2.58-2.2,1.48,0,2.81,8.55,1.06,8.67,6.71,0,2.65-2.31,4.65-6.07,4.65s-6.58-2.26-6.74-5.13Z"/>
    <path d="M425.3,252.63h-1.84v-3.2h1.84v-3.82h3.93v3.82h3.45v3.2h-3.45v7.47c0,1.03.42,1.48,1.64,1.48h1.81v3.29h-2.45c-2.95,0-4.93-1.25-4.93-4.79v-7.44Z"/>
    <path d="M435.07,245.3c0-1.28,1-2.29,2.4-2.29s2.4,1,2.4,2.29-1.03,2.29-2.4,2.29-2.4-1-2.4-2.29ZM435.49,249.42h3.9v15.44h-3.9v-15.44Z"/>
    <path d="M449.28,249.17c2.48,0,4.18,1.17,5.1,2.45v-2.2h3.93v15.44h-3.93v-2.26c-.92,1.34-2.67,2.51-5.13,2.51-3.9,0-7.02-3.2-7.02-8.02s3.12-7.91,7.05-7.91ZM450.29,252.6c-2.09,0-4.07,1.56-4.07,4.49s1.98,4.6,4.07,4.6,4.1-1.62,4.1-4.54-1.95-4.54-4.1-4.54Z"/>
    <path d="M473.27,251.62v-2.2h3.93v15.55c0,4.18-2.56,7.49-7.63,7.49-4.35,0-7.38-2.17-7.77-5.71h3.87c.39,1.39,1.84,2.31,3.79,2.31,2.15,0,3.82-1.23,3.82-4.1v-2.4c-.92,1.34-2.67,2.54-5.1,2.54-3.93,0-7.05-3.2-7.05-8.02s3.12-7.91,7.05-7.91c2.42,0,4.18,1.12,5.1,2.45ZM469.17,252.6c-2.09,0-4.07,1.56-4.07,4.49s1.98,4.6,4.07,4.6,4.1-1.62,4.1-4.54-1.95-4.54-4.1-4.54Z"/>
    <path d="M480.04,257.14c0-4.88,3.48-7.97,7.94-7.97s7.94,3.09,7.94,7.97-3.57,7.97-8.05,7.97-7.83-3.12-7.83-7.97ZM491.91,257.14c0-3.09-1.92-4.57-3.98-4.57s-3.93,1.48-3.93,4.57,1.78,4.57,3.87,4.57,4.04-1.51,4.04-4.57Z"/>
    <path d="M511.49,249.17c2.03,0,3.98.95,5.04,2.4v-7.33h3.96v20.62h-3.96v-2.29c-.92,1.42-2.65,2.54-5.07,2.54-3.93,0-7.05-3.2-7.05-8.02s3.12-7.91,7.08-7.91ZM512.46,252.6c-2.09,0-4.07,1.56-4.07,4.49s1.98,4.6,4.07,4.6,4.1-1.62,4.1-4.54-1.95-4.54-4.1-4.54Z"/>
    <path d="M531.05,265.11c-4.49,0-7.75-3.12-7.75-7.97s3.18-7.97,7.75-7.97,7.61,3.04,7.61,7.63c0,.5-.03,1-.11,1.5h-11.28c.19,2.29,1.76,3.57,3.71,3.57,1.67,0,2.59-.84,3.09-1.87h4.21c-.84,2.84-3.4,5.1-7.22,5.1ZM527.28,255.69h7.33c-.06-2.03-1.67-3.31-3.68-3.31-1.87,0-3.34,1.2-3.65,3.31Z"/>
    <path d="M547.29,259.98h3.93c.14,1.17,1.23,2.06,2.79,2.06s2.37-.7,2.37-1.59c0-2.76-8.72-1-8.72-6.66,0-2.56,2.29-4.62,6.1-4.62s5.99,2.04,6.21,5.1h-3.73c-.11-1.2-1.06-2.01-2.59-2.01-1.45,0-2.2.58-2.2,1.48,0,2.81,8.55,1.06,8.67,6.71,0,2.65-2.31,4.65-6.07,4.65s-6.58-2.26-6.74-5.13Z"/>
    <path d="M562.33,257.14c0-4.88,3.48-7.97,7.94-7.97s7.94,3.09,7.94,7.97-3.57,7.97-8.05,7.97-7.83-3.12-7.83-7.97ZM574.2,257.14c0-3.09-1.92-4.57-3.98-4.57s-3.93,1.48-3.93,4.57,1.78,4.57,3.87,4.57,4.04-1.51,4.04-4.57Z"/>
    <path d="M584.84,257.92c0,2.48,1.37,3.82,3.43,3.82s3.46-1.34,3.46-3.82v-8.5h3.93v15.44h-3.93v-1.95c-.98,1.31-2.67,2.15-4.6,2.15-3.59,0-6.19-2.34-6.19-6.58v-9.05h3.9v8.5Z"/>
    <path d="M598.66,259.98h3.93c.14,1.17,1.23,2.06,2.79,2.06s2.37-.7,2.37-1.59c0-2.76-8.72-1-8.72-6.66,0-2.56,2.29-4.62,6.1-4.62s5.99,2.04,6.21,5.1h-3.73c-.11-1.2-1.06-2.01-2.59-2.01-1.45,0-2.2.58-2.2,1.48,0,2.81,8.55,1.06,8.67,6.71,0,2.65-2.31,4.65-6.07,4.65s-6.58-2.26-6.74-5.13Z"/>
    <path d="M620.72,249.17c2.48,0,4.18,1.17,5.1,2.45v-2.2h3.93v15.44h-3.93v-2.26c-.92,1.34-2.67,2.51-5.13,2.51-3.9,0-7.02-3.2-7.02-8.02s3.12-7.91,7.05-7.91ZM621.72,252.6c-2.09,0-4.07,1.56-4.07,4.49s1.98,4.6,4.07,4.6,4.1-1.62,4.1-4.54-1.95-4.54-4.1-4.54Z"/>
    <path d="M641.06,255.58c0-2.2,1.73-3.9,3.87-3.9s3.93,1.7,3.93,3.9-1.73,3.87-3.93,3.87-3.87-1.7-3.87-3.87Z"/>
    <path d="M671.34,251.62v-2.2h3.93v15.55c0,4.18-2.56,7.49-7.63,7.49-4.35,0-7.38-2.17-7.77-5.71h3.87c.39,1.39,1.84,2.31,3.79,2.31,2.15,0,3.82-1.23,3.82-4.1v-2.4c-.92,1.34-2.67,2.54-5.1,2.54-3.93,0-7.05-3.2-7.05-8.02s3.12-7.91,7.05-7.91c2.42,0,4.18,1.12,5.1,2.45ZM667.24,252.6c-2.09,0-4.07,1.56-4.07,4.49s1.98,4.6,4.07,4.6,4.1-1.62,4.1-4.54-1.95-4.54-4.1-4.54Z"/>
    <path d="M685.13,249.17c2.48,0,4.18,1.17,5.1,2.45v-2.2h3.93v15.44h-3.93v-2.26c-.92,1.34-2.67,2.51-5.13,2.51-3.9,0-7.02-3.2-7.02-8.02s3.12-7.91,7.05-7.91ZM686.13,252.6c-2.09,0-4.07,1.56-4.07,4.49s1.98,4.6,4.07,4.6,4.1-1.62,4.1-4.54-1.95-4.54-4.1-4.54Z"/>
    <path d="M706.97,249.17c3.96,0,7.05,3.09,7.05,7.91s-3.09,8.02-7.05,8.02c-2.42,0-4.15-1.11-5.1-2.45v2.2h-3.9v-20.62h3.9v7.44c.95-1.42,2.76-2.51,5.1-2.51ZM705.94,252.6c-2.09,0-4.07,1.62-4.07,4.54s1.98,4.54,4.07,4.54,4.1-1.67,4.1-4.6-1.98-4.49-4.1-4.49Z"/>
    <path d="M716.86,249.42h3.9v2.39c.98-1.59,2.59-2.62,4.74-2.62v4.1h-1.03c-2.31,0-3.71.89-3.71,3.87v7.69h-3.9v-15.44Z"/>
    <path d="M727.69,245.3c0-1.28,1-2.29,2.4-2.29s2.4,1,2.4,2.29-1.03,2.29-2.4,2.29-2.4-1-2.4-2.29ZM728.11,249.42h3.9v15.44h-3.9v-15.44Z"/>
    <path d="M742.6,265.11c-4.49,0-7.75-3.12-7.75-7.97s3.18-7.97,7.75-7.97,7.61,3.04,7.61,7.63c0,.5-.03,1-.11,1.5h-11.28c.19,2.29,1.76,3.57,3.71,3.57,1.67,0,2.59-.84,3.09-1.87h4.21c-.84,2.84-3.4,5.1-7.22,5.1ZM738.84,255.69h7.33c-.06-2.03-1.67-3.31-3.68-3.31-1.87,0-3.34,1.2-3.65,3.31Z"/>
    <path d="M753.04,244.24h3.9v20.62h-3.9v-20.62Z"/>
    <path d="M766.58,259.98h3.93c.14,1.17,1.23,2.06,2.79,2.06s2.37-.7,2.37-1.59c0-2.76-8.72-1-8.72-6.66,0-2.56,2.28-4.62,6.1-4.62s5.99,2.04,6.21,5.1h-3.73c-.11-1.2-1.06-2.01-2.59-2.01-1.45,0-2.2.58-2.2,1.48,0,2.81,8.55,1.06,8.67,6.71,0,2.65-2.31,4.65-6.07,4.65s-6.58-2.26-6.74-5.13Z"/>
    <path d="M783.22,252.63h-1.84v-3.2h1.84v-3.82h3.93v3.82h3.46v3.2h-3.46v7.47c0,1.03.42,1.48,1.64,1.48h1.81v3.29h-2.45c-2.95,0-4.93-1.25-4.93-4.79v-7.44Z"/>
    <path d="M792.44,257.14c0-4.88,3.48-7.97,7.94-7.97s7.94,3.09,7.94,7.97-3.57,7.97-8.05,7.97-7.83-3.12-7.83-7.97ZM804.31,257.14c0-3.09-1.92-4.57-3.98-4.57s-3.93,1.48-3.93,4.57,1.78,4.57,3.87,4.57,4.04-1.51,4.04-4.57Z"/>
    <path d="M811.18,249.42h3.9v2.39c.98-1.59,2.59-2.62,4.74-2.62v4.1h-1.03c-2.31,0-3.71.89-3.71,3.87v7.69h-3.9v-15.44Z"/>
    <path d="M822.44,249.42h3.9v1.87c.98-1.28,2.62-2.09,4.54-2.09,2.4,0,4.37,1.03,5.43,2.96,1-1.76,3.04-2.96,5.29-2.96,3.71,0,6.32,2.34,6.32,6.6v9.06h-3.9v-8.53c0-2.45-1.37-3.73-3.43-3.73s-3.46,1.28-3.46,3.73v8.53h-3.9v-8.53c0-2.45-1.37-3.73-3.43-3.73s-3.48,1.28-3.48,3.73v8.53h-3.9v-15.44Z"/>
    <path d="M858.26,244.24h3.9v20.62h-3.9v-20.62Z"/>
    <path d="M865.59,245.3c0-1.28,1-2.29,2.4-2.29s2.4,1,2.4,2.29-1.03,2.29-2.4,2.29-2.4-1-2.4-2.29ZM866.01,249.42h3.9v15.44h-3.9v-15.44Z"/>
    <path d="M873.75,249.42h3.9v1.87c.98-1.28,2.62-2.09,4.54-2.09,2.4,0,4.37,1.03,5.43,2.96,1-1.76,3.04-2.96,5.29-2.96,3.71,0,6.33,2.34,6.33,6.6v9.06h-3.9v-8.53c0-2.45-1.37-3.73-3.43-3.73s-3.46,1.28-3.46,3.73v8.53h-3.9v-8.53c0-2.45-1.37-3.73-3.43-3.73s-3.48,1.28-3.48,3.73v8.53h-3.9v-15.44Z"/>
    <path d="M909,249.17c2.48,0,4.18,1.17,5.1,2.45v-2.2h3.93v15.44h-3.93v-2.26c-.92,1.34-2.67,2.51-5.13,2.51-3.9,0-7.02-3.2-7.02-8.02s3.12-7.91,7.05-7.91ZM910,252.6c-2.09,0-4.07,1.56-4.07,4.49s1.98,4.6,4.07,4.6,4.1-1.62,4.1-4.54-1.95-4.54-4.1-4.54Z"/>
    <path d="M929.33,255.58c0-2.2,1.73-3.9,3.87-3.9s3.93,1.7,3.93,3.9-1.73,3.87-3.93,3.87-3.87-1.7-3.87-3.87Z"/>
    <path d="M949.08,252.63h-1.84v-3.2h1.84v-3.82h3.93v3.82h3.46v3.2h-3.46v7.47c0,1.03.42,1.48,1.64,1.48h1.81v3.29h-2.45c-2.95,0-4.93-1.25-4.93-4.79v-7.44Z"/>
    <path d="M958.86,245.3c0-1.28,1-2.29,2.4-2.29s2.4,1,2.4,2.29-1.03,2.29-2.4,2.29-2.4-1-2.4-2.29ZM959.28,249.42h3.9v15.44h-3.9v-15.44Z"/>
    <path d="M973.07,249.17c2.48,0,4.18,1.17,5.1,2.45v-2.2h3.93v15.44h-3.93v-2.26c-.92,1.34-2.67,2.51-5.13,2.51-3.9,0-7.02-3.2-7.02-8.02s3.12-7.91,7.05-7.91ZM974.07,252.6c-2.09,0-4.07,1.56-4.07,4.49s1.98,4.6,4.07,4.6,4.1-1.62,4.1-4.54-1.95-4.54-4.1-4.54Z"/>
    <path d="M997.05,251.62v-2.2h3.93v15.55c0,4.18-2.56,7.49-7.63,7.49-4.35,0-7.38-2.17-7.77-5.71h3.87c.39,1.39,1.84,2.31,3.79,2.31,2.15,0,3.82-1.23,3.82-4.1v-2.4c-.92,1.34-2.67,2.54-5.1,2.54-3.93,0-7.05-3.2-7.05-8.02s3.12-7.91,7.05-7.91c2.42,0,4.18,1.12,5.1,2.45ZM992.96,252.6c-2.09,0-4.07,1.56-4.07,4.49s1.98,4.6,4.07,4.6,4.1-1.62,4.1-4.54-1.95-4.54-4.1-4.54Z"/>
    <path d="M1003.82,257.14c0-4.88,3.48-7.97,7.94-7.97s7.94,3.09,7.94,7.97-3.57,7.97-8.05,7.97-7.83-3.12-7.83-7.97ZM1015.69,257.14c0-3.09-1.92-4.57-3.98-4.57s-3.93,1.48-3.93,4.57,1.78,4.57,3.87,4.57,4.04-1.51,4.04-4.57Z"/>
    <path d="M1029.81,252.63h-1.84v-3.2h1.84v-3.82h3.93v3.82h3.46v3.2h-3.46v7.47c0,1.03.42,1.48,1.64,1.48h1.81v3.29h-2.45c-2.95,0-4.93-1.25-4.93-4.79v-7.44Z"/>
    <path d="M1046.75,265.11c-4.49,0-7.75-3.12-7.75-7.97s3.18-7.97,7.75-7.97,7.61,3.04,7.61,7.63c0,.5-.03,1-.11,1.5h-11.28c.2,2.29,1.75,3.57,3.71,3.57,1.67,0,2.59-.84,3.09-1.87h4.21c-.84,2.84-3.4,5.1-7.22,5.1ZM1042.99,255.69h7.33c-.06-2.03-1.67-3.31-3.68-3.31-1.87,0-3.34,1.2-3.65,3.31Z"/>
    <path d="M1056.78,245.3c0-1.28,1-2.29,2.4-2.29s2.4,1,2.4,2.29-1.03,2.29-2.4,2.29-2.4-1-2.4-2.29ZM1057.2,249.42h3.9v15.44h-3.9v-15.44Z"/>
    <path d="M1070.29,260.07l-2.81,4.79h-4.18l5.04-7.75-5.1-7.69h4.4l3.15,4.76,2.84-4.76h4.18l-5.07,7.69,5.13,7.75h-4.4l-3.18-4.79Z"/>
    <path d="M1086.73,265.11c-4.49,0-7.75-3.12-7.75-7.97s3.18-7.97,7.75-7.97,7.61,3.04,7.61,7.63c0,.5-.03,1-.11,1.5h-11.28c.19,2.29,1.75,3.57,3.71,3.57,1.67,0,2.59-.84,3.09-1.87h4.21c-.84,2.84-3.4,5.1-7.22,5.1ZM1082.97,255.69h7.33c-.06-2.03-1.67-3.31-3.68-3.31-1.87,0-3.34,1.2-3.65,3.31Z"/>
    <path d="M1096.76,245.3c0-1.28,1-2.29,2.4-2.29s2.4,1,2.4,2.29-1.03,2.29-2.4,2.29-2.4-1-2.4-2.29ZM1097.17,249.42h3.9v15.44h-3.9v-15.44Z"/>
    <path d="M1104.92,249.42h3.9v2.39c.97-1.59,2.59-2.62,4.74-2.62v4.1h-1.03c-2.31,0-3.71.89-3.71,3.87v7.69h-3.9v-15.44Z"/>
    <path d="M1122.22,249.17c2.48,0,4.18,1.17,5.1,2.45v-2.2h3.93v15.44h-3.93v-2.26c-.92,1.34-2.67,2.51-5.13,2.51-3.9,0-7.02-3.2-7.02-8.02s3.12-7.91,7.05-7.91ZM1123.22,252.6c-2.09,0-4.07,1.56-4.07,4.49s1.98,4.6,4.07,4.6,4.1-1.62,4.1-4.54-1.95-4.54-4.1-4.54Z"/>
  </g>
  <g>
    <path d="M1087.49,10.36c3.91,0,6.58,2.1,7.69,4.55v-4.27h2.49v19.43h-2.49v-4.31c-1.14,2.49-3.84,4.59-7.72,4.59-5.3,0-9.25-3.95-9.25-10.04s3.95-9.96,9.29-9.96ZM1087.95,12.53c-4.09,0-7.22,2.85-7.22,7.79s3.13,7.86,7.22,7.86,7.22-2.99,7.22-7.83-3.24-7.83-7.22-7.83Z"/>
    <path d="M1113.75,12.74h-2.67v-2.1h2.67v-1.35c0-4.16,1.96-6.16,6.87-6.16v2.13c-3.31,0-4.38,1.21-4.38,4.02v1.35h10.85v19.43h-2.49V12.74h-8.36v17.33h-2.49V12.74ZM1124.07,5.12c0-1.07.82-1.81,1.81-1.81s1.81.75,1.81,1.81-.82,1.85-1.81,1.85-1.81-.78-1.81-1.85Z"/>
    <path d="M1132.61,3.74h2.49v26.33h-2.49V3.74Z"/>
    <path d="M1140.76,10.64h2.49v3.34c1.25-2.46,3.7-3.7,6.44-3.7,3.24,0,6.01,1.53,7.19,4.77,1.07-3.17,3.91-4.77,7.01-4.77,4.31,0,7.72,2.7,7.72,8.4v11.39h-2.46v-11.1c0-4.31-2.24-6.51-5.69-6.51s-6.01,2.35-6.01,7.08v10.53h-2.46v-11.1c0-4.31-2.28-6.51-5.73-6.51s-6.01,2.35-6.01,7.08v10.53h-2.49V10.64Z"/>
    <path d="M1197.07,10.36c5.34,0,9.25,3.88,9.25,9.96s-3.95,10.04-9.25,10.04c-3.88,0-6.55-2.03-7.72-4.55v4.27h-2.46V3.74h2.46v11.21c1.21-2.56,3.92-4.59,7.72-4.59ZM1196.57,12.53c-3.95,0-7.22,2.99-7.22,7.83s3.27,7.83,7.22,7.83,7.22-2.95,7.22-7.86-3.13-7.79-7.22-7.79Z"/>
    <path d="M1224.36,10.64h2.56l-11.53,28.57h-2.6l3.77-9.25-7.97-19.32h2.74l6.62,16.58,6.4-16.58Z"/>
    <path d="M1239.21,10.11h6.97v2.63c1.14-1.6,3.1-2.81,5.8-2.81,2.99,0,5.34,1.35,6.65,3.67,1.35-2.03,3.7-3.67,6.65-3.67,5.05,0,8.08,3.27,8.08,8.5v11.64h-6.97v-10.71c0-2.17-1.32-3.38-3.31-3.38s-3.31,1.21-3.31,3.38v10.71h-6.97v-10.71c0-2.17-1.28-3.38-3.27-3.38s-3.35,1.21-3.35,3.38v10.71h-6.97V10.11Z"/>
    <path d="M1284.55,9.86c2.85,0,4.84,1.25,5.87,3.02v-2.78h6.97v19.96h-6.97v-2.78c-1.03,1.78-3.06,3.02-5.87,3.02-4.73,0-8.5-3.88-8.5-10.25s3.77-10.21,8.5-10.21ZM1291.81,0v5.27l-8.9,3.49v-4.73l8.9-4.02ZM1286.79,15.94c-1.99,0-3.63,1.42-3.63,4.13s1.64,4.16,3.63,4.16,3.63-1.46,3.63-4.16-1.67-4.13-3.63-4.13Z"/>
    <path d="M1301.38,10.11h6.97v3.52c1.49-2.17,3.77-3.7,6.44-3.7v7.44h-1.96c-2.88,0-4.48.92-4.48,3.99v8.72h-6.97V10.11Z"/>
    <path d="M1316.72,4.7c0-2.03,1.6-3.63,4.09-3.63s4.06,1.6,4.06,3.63-1.6,3.56-4.06,3.56-4.09-1.57-4.09-3.56ZM1317.29,10.11h6.97v19.96h-6.97V10.11Z"/>
    <path d="M1327.11,20.07c0-6.33,4.52-10.21,10.46-10.21s10.46,3.88,10.46,10.21-4.55,10.25-10.5,10.25-10.43-3.88-10.43-10.25ZM1340.96,20.07c0-2.85-1.6-4.16-3.38-4.16s-3.34,1.32-3.34,4.16,1.49,4.2,3.31,4.2,3.42-1.32,3.42-4.2Z"/>
    <path d="M1363.45,10.11l3.81,13.38,3.74-13.38h7.44l-6.87,19.96h-8.68l-6.87-19.96h7.44Z"/>
    <path d="M1389.79,30.32c-5.91,0-10.14-3.88-10.14-10.25s4.16-10.21,10.14-10.21,10.07,3.81,10.07,10c0,.53-.04,1.1-.11,1.64h-13.2c.14,2.31,1.39,3.24,2.95,3.24,1.35,0,2.1-.75,2.49-1.57h7.44c-.92,4.09-4.66,7.15-9.64,7.15ZM1386.58,18.11h6.16c0-1.78-1.39-2.74-2.99-2.74s-2.85.93-3.17,2.74Z"/>
    <path d="M1402.71,3.74h6.97v26.33h-6.97V3.74Z"/>
    <path d="M1412.53,20.07c0-6.33,4.52-10.21,10.46-10.21s10.46,3.88,10.46,10.21-4.55,10.25-10.5,10.25-10.43-3.88-10.43-10.25ZM1426.37,20.07c0-2.85-1.6-4.16-3.38-4.16s-3.34,1.32-3.34,4.16,1.49,4.2,3.31,4.2,3.42-1.32,3.42-4.2Z"/>
    <path d="M1435.27,23.34h6.76c.18,1.32,1.28,2.03,2.74,2.03,1.17,0,1.85-.57,1.85-1.28,0-2.92-10.6-.53-10.6-7.86,0-3.49,2.88-6.37,8.29-6.37s8.29,3.02,8.75,6.97h-6.3c-.21-1.25-1.1-1.99-2.6-1.99-1.14,0-1.74.46-1.74,1.21,0,2.85,10.64.57,10.68,8.15,0,3.49-3.13,6.12-8.29,6.12-5.55,0-9.25-2.99-9.54-6.97Z"/>
    <path d="M1455.38,20.07c0-6.33,4.52-10.21,10.46-10.21s10.46,3.88,10.46,10.21-4.55,10.25-10.5,10.25-10.43-3.88-10.43-10.25ZM1469.22,20.07c0-2.85-1.6-4.16-3.38-4.16s-3.34,1.32-3.34,4.16,1.5,4.2,3.31,4.2,3.42-1.32,3.42-4.2Z"/>
  </g>
  <g class="cls-1">
    <path d="M0,398.98h1.49l2.86,9.97,3.21-9.97h1.47l3.17,9.99,2.83-9.99h1.45l-3.59,11.46h-1.47l-3.17-9.62-3.17,9.62h-1.49l-3.59-11.46Z"/>
    <path d="M18.48,398.98h1.47v2.04c.63-1.41,1.95-2.25,3.93-2.25v1.53h-.4c-1.91,0-3.53.86-3.53,3.74v6.4h-1.47v-11.46Z"/>
    <path d="M25.74,395.72c0-.63.48-1.07,1.07-1.07s1.07.44,1.07,1.07-.48,1.09-1.07,1.09-1.07-.46-1.07-1.09ZM26.08,398.98h1.47v11.46h-1.47v-11.46Z"/>
    <path d="M31.31,400.21h-1.6v-1.24h1.6v-2.88h1.49v2.88h3.15v1.24h-3.15v7.12c0,1.41.48,1.85,1.81,1.85h1.34v1.26h-1.58c-2,0-3.07-.82-3.07-3.11v-7.12Z"/>
    <path d="M38.78,400.21h-1.6v-1.24h1.6v-2.88h1.49v2.88h3.15v1.24h-3.15v7.12c0,1.41.48,1.85,1.8,1.85h1.34v1.26h-1.57c-1.99,0-3.07-.82-3.07-3.11v-7.12Z"/>
    <path d="M50.79,410.61c-3.25,0-5.63-2.27-5.63-5.9s2.33-5.9,5.63-5.9,5.42,2.39,5.42,5.31c0,.46,0,.76-.04,1.16h-9.51c.13,2.69,2,4.09,4.14,4.09,1.95,0,3.28-1.03,3.7-2.56h1.55c-.52,2.16-2.37,3.8-5.25,3.8ZM46.66,404.08h8.06c.06-2.67-1.87-4.01-3.99-4.01s-3.91,1.34-4.07,4.01Z"/>
    <path d="M58.9,398.98h1.47v1.95c.73-1.43,2.21-2.16,3.91-2.16,2.6,0,4.66,1.6,4.66,4.96v6.72h-1.45v-6.55c0-2.54-1.38-3.84-3.48-3.84s-3.63,1.34-3.63,4.14v6.26h-1.47v-11.46Z"/>
    <path d="M82.76,398.81c2.31,0,3.88,1.24,4.54,2.69v-2.52h1.47v11.46h-1.47v-2.54c-.67,1.47-2.27,2.71-4.56,2.71-3.13,0-5.46-2.33-5.46-5.92s2.33-5.88,5.48-5.88ZM83.03,400.09c-2.41,0-4.26,1.68-4.26,4.6s1.85,4.64,4.26,4.64,4.26-1.76,4.26-4.62-1.91-4.62-4.26-4.62Z"/>
    <path d="M92.12,398.98h1.47v1.95c.74-1.43,2.2-2.16,3.91-2.16,2.6,0,4.66,1.6,4.66,4.96v6.72h-1.45v-6.55c0-2.54-1.39-3.84-3.49-3.84s-3.63,1.34-3.63,4.14v6.26h-1.47v-11.46Z"/>
    <path d="M110.25,398.81c2.06,0,3.78,1.13,4.51,2.65v-6.55h1.47v15.54h-1.47v-2.56c-.67,1.51-2.27,2.73-4.54,2.73-3.15,0-5.48-2.33-5.48-5.92s2.33-5.88,5.5-5.88ZM110.5,400.09c-2.42,0-4.26,1.68-4.26,4.6s1.85,4.64,4.26,4.64,4.26-1.76,4.26-4.62-1.91-4.62-4.26-4.62Z"/>
    <path d="M130.17,398.81c2.06,0,3.78,1.13,4.51,2.65v-6.55h1.47v15.54h-1.47v-2.56c-.67,1.51-2.27,2.73-4.54,2.73-3.15,0-5.48-2.33-5.48-5.92s2.33-5.88,5.5-5.88ZM130.43,400.09c-2.41,0-4.26,1.68-4.26,4.6s1.85,4.64,4.26,4.64,4.26-1.76,4.26-4.62-1.91-4.62-4.26-4.62Z"/>
    <path d="M139.18,395.72c0-.63.48-1.07,1.07-1.07s1.07.44,1.07,1.07-.48,1.09-1.07,1.09-1.07-.46-1.07-1.09ZM139.52,398.98h1.47v11.46h-1.47v-11.46Z"/>
    <path d="M144.33,398.98h1.47v2.04c.63-1.41,1.95-2.25,3.93-2.25v1.53h-.4c-1.91,0-3.53.86-3.53,3.74v6.4h-1.47v-11.46Z"/>
    <path d="M156.88,410.61c-3.25,0-5.63-2.27-5.63-5.9s2.33-5.9,5.63-5.9,5.42,2.39,5.42,5.31c0,.46,0,.76-.04,1.16h-9.51c.13,2.69,2,4.09,4.14,4.09,1.95,0,3.28-1.03,3.7-2.56h1.55c-.52,2.16-2.37,3.8-5.25,3.8ZM152.75,404.08h8.06c.06-2.67-1.87-4.01-3.99-4.01s-3.91,1.34-4.07,4.01Z"/>
    <path d="M169.88,398.81c2.88,0,4.75,1.53,5.27,3.91h-1.58c-.38-1.64-1.76-2.65-3.7-2.65-2.25,0-4.07,1.53-4.07,4.64s1.83,4.66,4.07,4.66c1.93,0,3.3-.99,3.7-2.67h1.58c-.52,2.29-2.39,3.91-5.27,3.91-3.23,0-5.56-2.27-5.56-5.9s2.33-5.9,5.56-5.9Z"/>
    <path d="M178.28,400.21h-1.6v-1.24h1.6v-2.88h1.49v2.88h3.15v1.24h-3.15v7.12c0,1.41.48,1.85,1.8,1.85h1.34v1.26h-1.57c-1.99,0-3.07-.82-3.07-3.11v-7.12Z"/>
    <path d="M190.29,410.61c-3.25,0-5.63-2.27-5.63-5.9s2.33-5.9,5.63-5.9,5.42,2.39,5.42,5.31c0,.46,0,.76-.04,1.16h-9.51c.13,2.69,2,4.09,4.14,4.09,1.95,0,3.28-1.03,3.7-2.56h1.55c-.52,2.16-2.37,3.8-5.25,3.8ZM186.16,404.08h8.06c.06-2.67-1.87-4.01-3.99-4.01s-3.91,1.34-4.07,4.01Z"/>
    <path d="M203.23,398.81c2.06,0,3.78,1.13,4.51,2.65v-6.55h1.47v15.54h-1.47v-2.56c-.67,1.51-2.27,2.73-4.54,2.73-3.15,0-5.48-2.33-5.48-5.92s2.33-5.88,5.5-5.88ZM203.48,400.09c-2.41,0-4.26,1.68-4.26,4.6s1.85,4.64,4.26,4.64,4.26-1.76,4.26-4.62-1.91-4.62-4.26-4.62Z"/>
    <path d="M224.33,398.81c3.15,0,5.46,2.29,5.46,5.88s-2.33,5.92-5.46,5.92c-2.29,0-3.86-1.2-4.56-2.69v2.52h-1.45v-15.54h1.45v6.61c.71-1.51,2.31-2.71,4.56-2.71ZM224.04,400.09c-2.33,0-4.26,1.76-4.26,4.62s1.93,4.62,4.26,4.62,4.26-1.74,4.26-4.64-1.85-4.6-4.26-4.6Z"/>
    <path d="M240.44,398.98h1.51l-6.8,16.86h-1.53l2.23-5.46-4.7-11.4h1.62l3.91,9.78,3.78-9.78Z"/>
    <path d="M249.47,395.78h3.34l4.66,10.9,4.66-10.9h3.32v14.66h-2.94v-9.53l-3.93,9.53h-2.23l-3.95-9.53v9.53h-2.94v-14.66Z"/>
    <path d="M276.14,395.76l5.27,14.68h-3.11l-.97-2.79h-5.84l-.97,2.79h-3.09l5.27-14.68h3.42ZM276.71,390.35v2.37l-4.83,2.23v-2.1l4.83-2.5ZM276.54,405.29l-2.12-6.13-2.12,6.13h4.24Z"/>
    <path d="M288.89,395.78c3.53,0,5.29,2.04,5.29,4.49,0,1.79-.99,3.59-3.34,4.22l3.51,5.94h-3.4l-3.23-5.71h-1.38v5.71h-2.94v-14.66h5.5ZM288.78,398.22h-2.46v4.3h2.46c1.64,0,2.37-.86,2.37-2.18s-.73-2.12-2.37-2.12Z"/>
    <path d="M296.85,395.78h2.94v14.66h-2.94v-14.66Z"/>
    <path d="M301.97,403.07c0-4.39,3.38-7.5,7.52-7.5s7.5,3.11,7.5,7.5-3.34,7.52-7.5,7.52-7.52-3.11-7.52-7.52ZM313.96,403.07c0-2.98-1.83-4.85-4.47-4.85s-4.49,1.87-4.49,4.85,1.83,4.89,4.49,4.89,4.47-1.91,4.47-4.89Z"/>
    <path d="M334.21,395.78h3.13l-5.38,14.66h-3.57l-5.38-14.66h3.15l4.03,11.65,4.01-11.65Z"/>
    <path d="M347.6,398.16h-5.56v3.67h4.93v2.33h-4.93v3.88h5.56v2.39h-8.5v-14.68h8.5v2.39Z"/>
    <path d="M353.21,395.78v12.33h4.83v2.33h-7.77v-14.66h2.94Z"/>
    <path d="M359.2,403.07c0-4.39,3.38-7.5,7.52-7.5s7.5,3.11,7.5,7.5-3.34,7.52-7.5,7.52-7.52-3.11-7.52-7.52ZM371.19,403.07c0-2.98-1.83-4.85-4.47-4.85s-4.49,1.87-4.49,4.85,1.83,4.89,4.49,4.89,4.47-1.91,4.47-4.89Z"/>
    <path d="M376.02,406.22h3.15c.08,1.18.86,1.95,2.23,1.95s2.2-.73,2.2-1.79c0-3.17-7.56-1.26-7.54-6.57,0-2.65,2.14-4.24,5.17-4.24s5.06,1.53,5.25,4.18h-3.23c-.06-.96-.84-1.72-2.1-1.74-1.16-.04-2.02.53-2.02,1.72,0,2.94,7.52,1.3,7.52,6.47,0,2.31-1.85,4.39-5.19,4.39-3.04,0-5.4-1.6-5.44-4.37Z"/>
    <path d="M388.47,403.07c0-4.39,3.38-7.5,7.52-7.5s7.5,3.11,7.5,7.5-3.34,7.52-7.5,7.52-7.52-3.11-7.52-7.52ZM400.46,403.07c0-2.98-1.83-4.85-4.47-4.85s-4.49,1.87-4.49,4.85,1.83,4.89,4.49,4.89,4.47-1.91,4.47-4.89Z"/>
    <path d="M411.32,403.45c0-1.66,1.3-2.94,2.92-2.94s2.96,1.28,2.96,2.94-1.3,2.92-2.96,2.92-2.92-1.28-2.92-2.92Z"/>
    <path d="M425.98,394.9h1.47v15.54h-1.47v-15.54Z"/>
    <path d="M430.45,395.72c0-.63.48-1.07,1.07-1.07s1.07.44,1.07,1.07-.48,1.09-1.07,1.09-1.07-.46-1.07-1.09ZM430.78,398.98h1.47v11.46h-1.47v-11.46Z"/>
    <path d="M435.59,398.98h1.47v1.95c.73-1.43,2.21-2.16,3.91-2.16,2.6,0,4.66,1.6,4.66,4.96v6.72h-1.45v-6.55c0-2.54-1.38-3.84-3.48-3.84s-3.63,1.34-3.63,4.14v6.26h-1.47v-11.46Z"/>
    <path d="M453.84,410.61c-3.25,0-5.63-2.27-5.63-5.9s2.33-5.9,5.63-5.9,5.42,2.39,5.42,5.31c0,.46,0,.76-.04,1.16h-9.51c.12,2.69,1.99,4.09,4.14,4.09,1.95,0,3.28-1.03,3.7-2.56h1.55c-.53,2.16-2.37,3.8-5.25,3.8ZM449.71,404.08h8.06c.06-2.67-1.87-4.01-3.99-4.01s-3.9,1.34-4.07,4.01Z"/>
    <path d="M473.71,398.81c3.13,0,5.46,2.29,5.46,5.88s-2.33,5.92-5.46,5.92c-2.29,0-3.88-1.26-4.56-2.69v7.94h-1.45v-16.88h1.45v2.52c.67-1.45,2.27-2.69,4.56-2.69ZM473.41,400.09c-2.33,0-4.26,1.76-4.26,4.62s1.93,4.62,4.26,4.62,4.26-1.74,4.26-4.64-1.85-4.6-4.26-4.6Z"/>
    <path d="M481.88,398.98h1.47v2.04c.63-1.41,1.95-2.25,3.93-2.25v1.53h-.4c-1.91,0-3.53.86-3.53,3.74v6.4h-1.47v-11.46Z"/>
    <path d="M488.81,404.71c0-3.65,2.52-5.9,5.73-5.9s5.73,2.25,5.73,5.9-2.54,5.9-5.77,5.9-5.69-2.27-5.69-5.9ZM498.76,404.71c0-3.15-2.06-4.62-4.24-4.62s-4.22,1.47-4.22,4.62,2.02,4.62,4.2,4.62,4.26-1.47,4.26-4.62Z"/>
    <path d="M507.79,398.81c2.06,0,3.78,1.13,4.51,2.65v-6.55h1.47v15.54h-1.47v-2.56c-.67,1.51-2.27,2.73-4.54,2.73-3.15,0-5.48-2.33-5.48-5.92s2.33-5.88,5.5-5.88ZM508.04,400.09c-2.41,0-4.26,1.68-4.26,4.6s1.85,4.64,4.26,4.64,4.26-1.76,4.26-4.62-1.91-4.62-4.26-4.62Z"/>
    <path d="M518.48,405.51c0,2.54,1.39,3.84,3.49,3.84s3.63-1.34,3.63-4.14v-6.24h1.47v11.46h-1.47v-2.02c-.69,1.45-2.2,2.21-3.9,2.21-2.6,0-4.66-1.6-4.66-4.96v-6.7h1.45v6.53Z"/>
    <path d="M535.32,398.81c2.88,0,4.74,1.53,5.27,3.91h-1.57c-.38-1.64-1.76-2.65-3.7-2.65-2.25,0-4.07,1.53-4.07,4.64s1.83,4.66,4.07,4.66c1.93,0,3.3-.99,3.7-2.67h1.57c-.53,2.29-2.39,3.91-5.27,3.91-3.23,0-5.56-2.27-5.56-5.9s2.33-5.9,5.56-5.9Z"/>
    <path d="M548.26,410.61c-3.25,0-5.63-2.27-5.63-5.9s2.33-5.9,5.63-5.9,5.42,2.39,5.42,5.31c0,.46,0,.76-.04,1.16h-9.51c.13,2.69,2,4.09,4.14,4.09,1.95,0,3.28-1.03,3.7-2.56h1.55c-.52,2.16-2.37,3.8-5.25,3.8ZM544.12,404.08h8.06c.06-2.67-1.87-4.01-3.99-4.01s-3.91,1.34-4.07,4.01Z"/>
    <path d="M556.36,398.98h1.47v2.04c.63-1.41,1.95-2.25,3.93-2.25v1.53h-.4c-1.91,0-3.53.86-3.53,3.74v6.4h-1.47v-11.46Z"/>
    <path d="M575.07,395.78h2.96v10.29c0,2.9-1.85,4.51-4.56,4.51s-4.68-1.66-4.68-4.62h2.94c.02,1.24.59,2,1.7,2s1.64-.74,1.64-1.89v-10.29Z"/>
    <path d="M580.74,403.07c0-4.39,3.38-7.5,7.52-7.5s7.5,3.11,7.5,7.5-3.34,7.52-7.5,7.52-7.52-3.11-7.52-7.52ZM592.73,403.07c0-2.98-1.83-4.85-4.47-4.85s-4.49,1.87-4.49,4.85,1.83,4.89,4.49,4.89,4.47-1.91,4.47-4.89Z"/>
    <path d="M605.73,395.76l5.27,14.68h-3.11l-.96-2.79h-5.84l-.96,2.79h-3.09l5.27-14.68h3.42ZM602.85,391.9c1.18,0,1.74.92,2.58.92.46,0,.82-.27.9-.9h1.57c-.29,1.91-1.28,2.75-2.62,2.75-1.2,0-1.74-.95-2.58-.95-.46,0-.82.29-.9.92h-1.58c.29-1.91,1.28-2.75,2.62-2.75ZM606.13,405.29l-2.12-6.13-2.12,6.13h4.24Z"/>
    <path d="M612.26,403.07c0-4.39,3.38-7.5,7.52-7.5s7.5,3.11,7.5,7.5-3.34,7.52-7.5,7.52-7.52-3.11-7.52-7.52ZM624.25,403.07c0-2.98-1.83-4.85-4.47-4.85s-4.49,1.87-4.49,4.85,1.83,4.89,4.49,4.89,4.47-1.91,4.47-4.89Z"/>
    <path d="M634.08,406.22h3.15c.08,1.18.86,1.95,2.23,1.95s2.2-.73,2.2-1.79c0-3.17-7.56-1.26-7.54-6.57,0-2.65,2.14-4.24,5.17-4.24s5.06,1.53,5.25,4.18h-3.23c-.06-.96-.84-1.72-2.1-1.74-1.16-.04-2.02.53-2.02,1.72,0,2.94,7.52,1.3,7.52,6.47,0,2.31-1.85,4.39-5.19,4.39-3.04,0-5.4-1.6-5.44-4.37Z"/>
    <path d="M655.04,395.76l5.27,14.68h-3.11l-.97-2.79h-5.84l-.97,2.79h-3.09l5.27-14.68h3.42ZM655.44,405.29l-2.12-6.13-2.12,6.13h4.24Z"/>
    <path d="M674.82,395.76v14.68h-2.94l-6.66-10.06v10.06h-2.94v-14.68h2.94l6.66,10.08v-10.08h2.94Z"/>
    <path d="M676.94,395.78h10.75v2.37h-3.91v12.28h-2.94v-12.28h-3.91v-2.37Z"/>
    <path d="M697.63,395.76l5.27,14.68h-3.11l-.97-2.79h-5.84l-.97,2.79h-3.09l5.27-14.68h3.42ZM698.03,405.29l-2.12-6.13-2.12,6.13h4.24Z"/>
    <path d="M717.41,395.76v14.68h-2.94l-6.66-10.06v10.06h-2.94v-14.68h2.94l6.66,10.08v-10.08h2.94Z"/>
    <path d="M728.1,395.76l5.27,14.68h-3.11l-.97-2.79h-5.84l-.97,2.79h-3.09l5.27-14.68h3.42ZM728.5,405.29l-2.12-6.13-2.12,6.13h4.24Z"/>
    <path d="M740.99,403.45c0-1.66,1.3-2.94,2.92-2.94s2.96,1.28,2.96,2.94-1.3,2.92-2.96,2.92-2.92-1.28-2.92-2.92Z"/>
    <path d="M760.54,398.81c2.88,0,4.74,1.53,5.27,3.91h-1.57c-.38-1.64-1.76-2.65-3.7-2.65-2.25,0-4.07,1.53-4.07,4.64s1.83,4.66,4.07,4.66c1.93,0,3.3-.99,3.7-2.67h1.57c-.53,2.29-2.39,3.91-5.27,3.91-3.23,0-5.56-2.27-5.56-5.9s2.33-5.9,5.56-5.9Z"/>
    <path d="M768.19,395.72c0-.63.48-1.07,1.07-1.07s1.07.44,1.07,1.07-.48,1.09-1.07,1.09-1.07-.46-1.07-1.09ZM768.52,398.98h1.47v11.46h-1.47v-11.46Z"/>
    <path d="M773.33,398.98h1.47v1.95c.74-1.43,2.2-2.16,3.91-2.16,2.6,0,4.66,1.6,4.66,4.96v6.72h-1.45v-6.55c0-2.54-1.39-3.84-3.49-3.84s-3.63,1.34-3.63,4.14v6.26h-1.47v-11.46Z"/>
    <path d="M791.58,410.61c-3.25,0-5.63-2.27-5.63-5.9s2.33-5.9,5.63-5.9,5.42,2.39,5.42,5.31c0,.46,0,.76-.04,1.16h-9.51c.13,2.69,2,4.09,4.14,4.09,1.95,0,3.28-1.03,3.7-2.56h1.55c-.52,2.16-2.37,3.8-5.25,3.8ZM787.44,404.08h8.06c.06-2.67-1.87-4.01-3.99-4.01s-3.91,1.34-4.07,4.01Z"/>
    <path d="M799.69,398.98h1.47v1.97c.73-1.45,2.18-2.18,3.8-2.18,1.91,0,3.55.9,4.24,2.81.63-1.87,2.31-2.81,4.14-2.81,2.54,0,4.56,1.6,4.56,4.96v6.72h-1.45v-6.55c0-2.54-1.32-3.84-3.36-3.84s-3.55,1.38-3.55,4.18v6.21h-1.45v-6.55c0-2.54-1.34-3.84-3.38-3.84s-3.55,1.38-3.55,4.18v6.21h-1.47v-11.46Z"/>
    <path d="M825.96,398.81c2.31,0,3.88,1.24,4.54,2.69v-2.52h1.47v11.46h-1.47v-2.54c-.67,1.47-2.27,2.71-4.56,2.71-3.13,0-5.46-2.33-5.46-5.92s2.33-5.88,5.48-5.88ZM826.23,400.09c-2.42,0-4.26,1.68-4.26,4.6s1.85,4.64,4.26,4.64,4.26-1.76,4.26-4.62-1.91-4.62-4.26-4.62Z"/>
    <path d="M835.74,400.21h-1.6v-1.24h1.6v-2.88h1.49v2.88h3.15v1.24h-3.15v7.12c0,1.41.48,1.85,1.8,1.85h1.34v1.26h-1.57c-1.99,0-3.07-.82-3.07-3.11v-7.12Z"/>
    <path d="M842.13,404.71c0-3.65,2.52-5.9,5.73-5.9s5.73,2.25,5.73,5.9-2.54,5.9-5.77,5.9-5.69-2.27-5.69-5.9ZM852.08,404.71c0-3.15-2.06-4.62-4.24-4.62s-4.22,1.47-4.22,4.62,2.02,4.62,4.2,4.62,4.26-1.47,4.26-4.62Z"/>
    <path d="M865.62,401.47v-2.5h1.47v11.76c0,3.21-2.2,5.33-5.35,5.33-2.96,0-5.02-1.51-5.48-3.91h1.45c.48,1.55,1.93,2.62,4.03,2.62s3.88-1.45,3.88-4.05v-2.83c-.67,1.47-2.27,2.71-4.54,2.71-3.15,0-5.48-2.33-5.48-5.92s2.33-5.88,5.48-5.88c2.27,0,3.88,1.22,4.54,2.67ZM861.36,400.09c-2.42,0-4.26,1.68-4.26,4.6s1.85,4.64,4.26,4.64,4.26-1.76,4.26-4.62-1.91-4.62-4.26-4.62Z"/>
    <path d="M870.46,398.98h1.47v2.04c.63-1.41,1.95-2.25,3.93-2.25v1.53h-.4c-1.91,0-3.53.86-3.53,3.74v6.4h-1.47v-11.46Z"/>
    <path d="M882.87,398.81c2.31,0,3.88,1.24,4.54,2.69v-2.52h1.47v11.46h-1.47v-2.54c-.67,1.47-2.27,2.71-4.56,2.71-3.13,0-5.46-2.33-5.46-5.92s2.33-5.88,5.48-5.88ZM883.14,400.09c-2.41,0-4.26,1.68-4.26,4.6s1.85,4.64,4.26,4.64,4.26-1.76,4.26-4.62-1.91-4.62-4.26-4.62Z"/>
    <path d="M898.24,398.81c3.13,0,5.46,2.29,5.46,5.88s-2.33,5.92-5.46,5.92c-2.29,0-3.88-1.26-4.56-2.69v7.94h-1.45v-16.88h1.45v2.52c.67-1.45,2.27-2.69,4.56-2.69ZM897.94,400.09c-2.33,0-4.26,1.76-4.26,4.62s1.93,4.62,4.26,4.62,4.26-1.74,4.26-4.64-1.85-4.6-4.26-4.6Z"/>
    <path d="M906.41,394.9h1.47v6.03c.73-1.41,2.25-2.16,3.99-2.16,2.54,0,4.58,1.6,4.58,4.96v6.72h-1.45v-6.55c0-2.54-1.38-3.84-3.48-3.84s-3.63,1.34-3.63,4.14v6.26h-1.47v-15.54Z"/>
    <path d="M927.64,398.98h1.51l-6.8,16.86h-1.53l2.23-5.46-4.7-11.4h1.62l3.91,9.78,3.78-9.78Z"/>
    <path d="M941.25,410.44h-6.32v-14.66h6.05c3.06,0,4.77,1.6,4.77,3.78,0,1.78-1.07,2.9-2.5,3.36,1.66.29,2.83,1.83,2.83,3.55,0,2.33-1.79,3.97-4.83,3.97ZM940.55,398.16h-2.69v3.67h2.69c1.38,0,2.18-.63,2.18-1.83s-.8-1.85-2.18-1.85ZM940.76,404.1h-2.9v3.95h2.96c1.43,0,2.27-.69,2.27-1.93s-.9-2.02-2.33-2.02Z"/>
    <path d="M953.93,395.78c3.53,0,5.29,2.04,5.29,4.49,0,1.79-.99,3.59-3.34,4.22l3.51,5.94h-3.4l-3.23-5.71h-1.39v5.71h-2.94v-14.66h5.5ZM953.82,398.22h-2.46v4.3h2.46c1.64,0,2.37-.86,2.37-2.18s-.74-2.12-2.37-2.12Z"/>
    <path d="M961.85,395.78h2.94v9.07c0,2.02,1.09,3.07,2.96,3.07s2.98-1.05,2.98-3.07v-9.07h2.96v9.05c0,3.86-2.77,5.75-5.98,5.75s-5.86-1.89-5.86-5.75v-9.05Z"/>
    <path d="M989.06,395.76v14.68h-2.94l-6.66-10.06v10.06h-2.94v-14.68h2.94l6.66,10.08v-10.08h2.94Z"/>
    <path d="M991.25,403.07c0-4.39,3.38-7.5,7.52-7.5s7.5,3.11,7.5,7.5-3.34,7.52-7.5,7.52-7.52-3.11-7.52-7.52ZM1003.24,403.07c0-2.98-1.83-4.85-4.47-4.85s-4.49,1.87-4.49,4.85,1.83,4.89,4.49,4.89,4.47-1.91,4.47-4.89Z"/>
    <path d="M1018.94,395.78c3.53,0,5.29,2.04,5.29,4.49,0,1.79-.99,3.59-3.34,4.22l3.51,5.94h-3.4l-3.23-5.71h-1.38v5.71h-2.94v-14.66h5.5ZM1018.84,398.22h-2.46v4.3h2.46c1.64,0,2.37-.86,2.37-2.18s-.73-2.12-2.37-2.12Z"/>
    <path d="M1035.41,398.16h-5.56v3.67h4.93v2.33h-4.93v3.88h5.56v2.39h-8.5v-14.68h8.5v2.39Z"/>
    <path d="M1038.08,395.78h2.94v14.66h-2.94v-14.66Z"/>
    <path d="M1043.54,406.22h3.15c.08,1.18.86,1.95,2.22,1.95s2.21-.73,2.21-1.79c0-3.17-7.56-1.26-7.54-6.57,0-2.65,2.14-4.24,5.16-4.24s5.06,1.53,5.25,4.18h-3.23c-.06-.96-.84-1.72-2.1-1.74-1.15-.04-2.02.53-2.02,1.72,0,2.94,7.52,1.3,7.52,6.47,0,2.31-1.85,4.39-5.19,4.39-3.04,0-5.4-1.6-5.44-4.37Z"/>
    <path d="M1060.99,403.07c0-4.39,3.38-7.5,7.52-7.5s7.5,3.11,7.5,7.5-3.34,7.52-7.5,7.52-7.52-3.11-7.52-7.52ZM1072.98,403.07c0-2.98-1.83-4.85-4.47-4.85s-4.49,1.87-4.49,4.85,1.83,4.89,4.49,4.89,4.47-1.91,4.47-4.89Z"/>
    <path d="M1081.12,395.78v12.33h4.83v2.33h-7.77v-14.66h2.94Z"/>
    <path d="M1087.82,395.78h2.94v14.66h-2.94v-14.66Z"/>
    <path d="M1103.7,395.78h3.13l-5.38,14.66h-3.57l-5.38-14.66h3.15l4.03,11.65,4.01-11.65Z"/>
    <path d="M1117.1,398.16h-5.56v3.67h4.93v2.33h-4.93v3.88h5.56v2.39h-8.5v-14.68h8.5v2.39Z"/>
    <path d="M1119.76,395.78h2.94v14.66h-2.94v-14.66Z"/>
    <path d="M1131.1,395.78c3.53,0,5.29,2.04,5.29,4.49,0,1.79-.99,3.59-3.34,4.22l3.51,5.94h-3.4l-3.23-5.71h-1.39v5.71h-2.94v-14.66h5.5ZM1131,398.22h-2.46v4.3h2.46c1.64,0,2.37-.86,2.37-2.18s-.74-2.12-2.37-2.12Z"/>
    <path d="M1146.85,395.76l5.27,14.68h-3.11l-.97-2.79h-5.84l-.97,2.79h-3.09l5.27-14.68h3.42ZM1147.25,405.29l-2.12-6.13-2.12,6.13h4.24Z"/>
    <path d="M1159.75,403.45c0-1.66,1.3-2.94,2.92-2.94s2.96,1.28,2.96,2.94-1.3,2.92-2.96,2.92-2.92-1.28-2.92-2.92Z"/>
    <path d="M1180.05,398.81c2.88,0,4.74,1.53,5.27,3.91h-1.57c-.38-1.64-1.76-2.65-3.7-2.65-2.25,0-4.07,1.53-4.07,4.64s1.83,4.66,4.07,4.66c1.93,0,3.3-.99,3.7-2.67h1.57c-.53,2.29-2.39,3.91-5.27,3.91-3.23,0-5.56-2.27-5.56-5.9s2.33-5.9,5.56-5.9Z"/>
    <path d="M1187.36,404.71c0-3.65,2.52-5.9,5.73-5.9s5.73,2.25,5.73,5.9-2.54,5.9-5.77,5.9-5.69-2.27-5.69-5.9ZM1197.32,404.71c0-3.15-2.06-4.62-4.24-4.62s-4.22,1.47-4.22,4.62,2.02,4.62,4.2,4.62,4.26-1.47,4.26-4.62Z"/>
    <path d="M1200.85,407.21h1.51c.13,1.26,1.22,2.16,3.09,2.16,1.64,0,2.56-.88,2.56-1.97,0-2.83-6.89-1.18-6.89-5.48,0-1.7,1.62-3.11,4.03-3.11s4.07,1.3,4.2,3.51h-1.47c-.08-1.28-1.03-2.25-2.77-2.25-1.53,0-2.5.82-2.5,1.83,0,3.11,6.78,1.45,6.84,5.5,0,1.85-1.62,3.21-3.99,3.21-2.6,0-4.43-1.3-4.62-3.4Z"/>
    <path d="M1212.65,400.21h-1.6v-1.24h1.6v-2.88h1.49v2.88h3.15v1.24h-3.15v7.12c0,1.41.48,1.85,1.8,1.85h1.34v1.26h-1.57c-1.99,0-3.07-.82-3.07-3.11v-7.12Z"/>
    <path d="M1221.05,405.51c0,2.54,1.39,3.84,3.49,3.84s3.63-1.34,3.63-4.14v-6.24h1.47v11.46h-1.47v-2.02c-.69,1.45-2.2,2.21-3.9,2.21-2.6,0-4.66-1.6-4.66-4.96v-6.7h1.45v6.53Z"/>
    <path d="M1233,398.98h1.47v1.97c.74-1.45,2.18-2.18,3.8-2.18,1.91,0,3.55.9,4.24,2.81.63-1.87,2.31-2.81,4.14-2.81,2.54,0,4.56,1.6,4.56,4.96v6.72h-1.45v-6.55c0-2.54-1.32-3.84-3.36-3.84s-3.55,1.38-3.55,4.18v6.21h-1.45v-6.55c0-2.54-1.34-3.84-3.38-3.84s-3.55,1.38-3.55,4.18v6.21h-1.47v-11.46Z"/>
    <path d="M1259.41,410.61c-3.25,0-5.63-2.27-5.63-5.9s2.33-5.9,5.63-5.9,5.42,2.39,5.42,5.31c0,.46,0,.76-.04,1.16h-9.51c.12,2.69,1.99,4.09,4.14,4.09,1.95,0,3.28-1.03,3.7-2.56h1.55c-.53,2.16-2.37,3.8-5.25,3.8ZM1255.28,404.08h8.06c.06-2.67-1.87-4.01-3.99-4.01s-3.9,1.34-4.07,4.01Z"/>
    <path d="M1266.85,407.21h1.51c.13,1.26,1.22,2.16,3.09,2.16,1.64,0,2.56-.88,2.56-1.97,0-2.83-6.89-1.18-6.89-5.48,0-1.7,1.62-3.11,4.03-3.11s4.07,1.3,4.2,3.51h-1.47c-.08-1.28-1.03-2.25-2.77-2.25-1.53,0-2.5.82-2.5,1.83,0,3.11,6.78,1.45,6.84,5.5,0,1.85-1.62,3.21-3.99,3.21-2.6,0-4.43-1.3-4.62-3.4Z"/>
    <path d="M1288.79,398.81c2.31,0,3.88,1.24,4.54,2.69v-2.52h1.47v11.46h-1.47v-2.54c-.67,1.47-2.27,2.71-4.56,2.71-3.13,0-5.46-2.33-5.46-5.92s2.33-5.88,5.48-5.88ZM1289.06,400.09c-2.41,0-4.26,1.68-4.26,4.6s1.85,4.64,4.26,4.64,4.26-1.76,4.26-4.62-1.91-4.62-4.26-4.62Z"/>
    <path d="M1298.16,398.98h1.47v1.95c.74-1.43,2.2-2.16,3.91-2.16,2.6,0,4.66,1.6,4.66,4.96v6.72h-1.45v-6.55c0-2.54-1.39-3.84-3.49-3.84s-3.63,1.34-3.63,4.14v6.26h-1.47v-11.46Z"/>
    <path d="M1316.28,398.81c2.06,0,3.78,1.13,4.51,2.65v-6.55h1.47v15.54h-1.47v-2.56c-.67,1.51-2.27,2.73-4.54,2.73-3.15,0-5.48-2.33-5.48-5.92s2.33-5.88,5.5-5.88ZM1316.53,400.09c-2.42,0-4.26,1.68-4.26,4.6s1.85,4.64,4.26,4.64,4.26-1.76,4.26-4.62-1.91-4.62-4.26-4.62Z"/>
    <path d="M1330.71,407.21h1.51c.13,1.26,1.22,2.16,3.09,2.16,1.64,0,2.56-.88,2.56-1.97,0-2.83-6.89-1.18-6.89-5.48,0-1.7,1.62-3.11,4.03-3.11s4.07,1.3,4.2,3.51h-1.47c-.08-1.28-1.03-2.25-2.77-2.25-1.53,0-2.5.82-2.5,1.83,0,3.11,6.78,1.45,6.84,5.5,0,1.85-1.62,3.21-3.99,3.21-2.6,0-4.43-1.3-4.62-3.4Z"/>
    <path d="M1347.04,410.61c-3.25,0-5.63-2.27-5.63-5.9s2.33-5.9,5.63-5.9,5.42,2.39,5.42,5.31c0,.46,0,.76-.04,1.16h-9.51c.13,2.69,2,4.09,4.14,4.09,1.95,0,3.28-1.03,3.7-2.56h1.55c-.52,2.16-2.37,3.8-5.25,3.8ZM1342.91,404.08h8.06c.06-2.67-1.87-4.01-3.99-4.01s-3.91,1.34-4.07,4.01Z"/>
    <path d="M1355.57,400.21h-1.6v-1.24h1.6v-2.88h1.49v2.88h3.15v1.24h-3.15v7.12c0,1.41.48,1.85,1.8,1.85h1.34v1.26h-1.57c-1.99,0-3.07-.82-3.07-3.11v-7.12Z"/>
    <path d="M1373.21,398.81c2.06,0,3.78,1.13,4.51,2.65v-6.55h1.47v15.54h-1.47v-2.56c-.67,1.51-2.27,2.73-4.54,2.73-3.15,0-5.48-2.33-5.48-5.92s2.33-5.88,5.5-5.88ZM1373.46,400.09c-2.42,0-4.26,1.68-4.26,4.6s1.85,4.64,4.26,4.64,4.26-1.76,4.26-4.62-1.91-4.62-4.26-4.62Z"/>
    <path d="M1387.51,410.61c-3.25,0-5.63-2.27-5.63-5.9s2.33-5.9,5.63-5.9,5.42,2.39,5.42,5.31c0,.46,0,.76-.04,1.16h-9.51c.12,2.69,1.99,4.09,4.14,4.09,1.95,0,3.28-1.03,3.7-2.56h1.55c-.53,2.16-2.37,3.8-5.25,3.8ZM1383.38,404.08h8.06c.06-2.67-1.87-4.01-3.99-4.01s-3.9,1.34-4.07,4.01Z"/>
    <path d="M1394.95,407.21h1.51c.13,1.26,1.22,2.16,3.09,2.16,1.64,0,2.56-.88,2.56-1.97,0-2.83-6.89-1.18-6.89-5.48,0-1.7,1.62-3.11,4.03-3.11s4.07,1.3,4.2,3.51h-1.47c-.08-1.28-1.03-2.25-2.77-2.25-1.53,0-2.5.82-2.5,1.83,0,3.11,6.78,1.45,6.84,5.5,0,1.85-1.62,3.21-3.99,3.21-2.6,0-4.43-1.3-4.62-3.4Z"/>
    <path d="M1405.99,395.72c0-.63.48-1.07,1.07-1.07s1.07.44,1.07,1.07-.48,1.09-1.07,1.09-1.07-.46-1.07-1.09ZM1406.33,398.98h1.47v11.46h-1.47v-11.46Z"/>
    <path d="M1420.48,401.47v-2.5h1.47v11.76c0,3.21-2.21,5.33-5.35,5.33-2.96,0-5.02-1.51-5.48-3.91h1.45c.48,1.55,1.93,2.62,4.03,2.62s3.88-1.45,3.88-4.05v-2.83c-.67,1.47-2.27,2.71-4.54,2.71-3.15,0-5.48-2.33-5.48-5.92s2.33-5.88,5.48-5.88c2.27,0,3.88,1.22,4.54,2.67ZM1416.22,400.09c-2.41,0-4.26,1.68-4.26,4.6s1.85,4.64,4.26,4.64,4.26-1.76,4.26-4.62-1.91-4.62-4.26-4.62Z"/>
    <path d="M1425.31,398.98h1.47v1.95c.74-1.43,2.2-2.16,3.91-2.16,2.6,0,4.66,1.6,4.66,4.96v6.72h-1.45v-6.55c0-2.54-1.39-3.84-3.49-3.84s-3.63,1.34-3.63,4.14v6.26h-1.47v-11.46Z"/>
    <path d="M1450.85,395.6c3.25,0,5.9,1.74,6.89,4.74h-3.38c-.69-1.41-1.95-2.1-3.53-2.1-2.56,0-4.39,1.87-4.39,4.85s1.83,4.85,4.39,4.85c1.57,0,2.83-.69,3.53-2.12h3.38c-.99,3.02-3.63,4.75-6.89,4.75-4.22,0-7.43-3.09-7.43-7.47s3.21-7.5,7.43-7.5Z"/>
    <path d="M1468.04,395.76l5.27,14.68h-3.11l-.97-2.79h-5.84l-.97,2.79h-3.09l5.27-14.68h3.42ZM1468.44,405.29l-2.12-6.13-2.12,6.13h4.24Z"/>
    <path d="M1474.51,395.78h10.75v2.37h-3.91v12.28h-2.94v-12.28h-3.91v-2.37Z"/>
    <path d="M1495.2,395.76l5.27,14.68h-3.11l-.96-2.79h-5.84l-.96,2.79h-3.09l5.27-14.68h3.42ZM1495.6,405.29l-2.12-6.13-2.12,6.13h4.24Z"/>
    <path d="M1507.95,395.78c3.53,0,5.29,2.04,5.29,4.49,0,1.79-.99,3.59-3.34,4.22l3.51,5.94h-3.4l-3.23-5.71h-1.39v5.71h-2.94v-14.66h5.5ZM1507.84,398.22h-2.46v4.3h2.46c1.64,0,2.37-.86,2.37-2.18s-.74-2.12-2.37-2.12Z"/>
    <path d="M1515.9,395.78h2.94v14.66h-2.94v-14.66Z"/>
    <path d="M1534.28,395.76v14.68h-2.94l-6.66-10.06v10.06h-2.94v-14.68h2.94l6.66,10.08v-10.08h2.94Z"/>
    <path d="M1544.97,395.76l5.27,14.68h-3.11l-.96-2.79h-5.84l-.96,2.79h-3.09l5.27-14.68h3.42ZM1545.37,405.29l-2.12-6.13-2.12,6.13h4.24Z"/>
    <path d="M1563.93,395.6c3.25,0,5.9,1.74,6.89,4.74h-3.38c-.69-1.41-1.95-2.1-3.53-2.1-2.56,0-4.39,1.87-4.39,4.85s1.83,4.85,4.39,4.85c1.58,0,2.83-.69,3.53-2.12h3.38c-.99,3.02-3.63,4.75-6.89,4.75-4.22,0-7.43-3.09-7.43-7.47s3.21-7.5,7.43-7.5Z"/>
    <path d="M1581.13,395.76l5.27,14.68h-3.11l-.96-2.79h-5.84l-.96,2.79h-3.09l5.27-14.68h3.42ZM1581.53,405.29l-2.12-6.13-2.12,6.13h4.24Z"/>
    <path d="M1588.38,395.78h3.34l4.66,10.9,4.66-10.9h3.32v14.66h-2.94v-9.53l-3.93,9.53h-2.23l-3.95-9.53v9.53h-2.94v-14.66Z"/>
    <path d="M1612.65,404.81h-2.46v5.63h-2.94v-14.66h5.4c3.53,0,5.29,2,5.29,4.54,0,2.23-1.51,4.49-5.29,4.49ZM1612.52,402.44c1.66,0,2.39-.82,2.39-2.12s-.73-2.14-2.39-2.14h-2.33v4.26h2.33Z"/>
    <path d="M1619.31,403.07c0-4.39,3.38-7.5,7.52-7.5s7.5,3.11,7.5,7.5-3.34,7.52-7.5,7.52-7.52-3.11-7.52-7.52ZM1631.3,403.07c0-2.98-1.83-4.85-4.47-4.85s-4.49,1.87-4.49,4.85,1.83,4.89,4.49,4.89,4.47-1.91,4.47-4.89Z"/>
    <path d="M1636.13,406.22h3.15c.08,1.18.86,1.95,2.23,1.95s2.2-.73,2.2-1.79c0-3.17-7.56-1.26-7.54-6.57,0-2.65,2.14-4.24,5.17-4.24s5.06,1.53,5.25,4.18h-3.23c-.06-.96-.84-1.72-2.1-1.74-1.16-.04-2.02.53-2.02,1.72,0,2.94,7.52,1.3,7.52,6.47,0,2.31-1.85,4.39-5.19,4.39-3.04,0-5.4-1.6-5.44-4.37Z"/>
    <path d="M1667.14,403.13c0,4.43-3.04,7.31-7.73,7.31h-5.12v-14.66h5.12c4.68,0,7.73,2.9,7.73,7.35ZM1659.31,407.94c3.09,0,4.83-1.76,4.83-4.81s-1.74-4.87-4.83-4.87h-2.08v9.68h2.08Z"/>
    <path d="M1677.85,398.16h-5.56v3.67h4.93v2.33h-4.93v3.88h5.56v2.39h-8.5v-14.68h8.5v2.39Z"/>
    <path d="M66.66,431.42h3.15c.08,1.18.86,1.95,2.23,1.95s2.2-.74,2.2-1.78c0-3.17-7.56-1.26-7.54-6.57,0-2.65,2.14-4.24,5.17-4.24s5.06,1.53,5.25,4.18h-3.23c-.06-.97-.84-1.72-2.1-1.74-1.16-.04-2.02.52-2.02,1.72,0,2.94,7.52,1.3,7.52,6.47,0,2.31-1.85,4.39-5.19,4.39-3.04,0-5.4-1.6-5.44-4.37Z"/>
    <path d="M79.11,428.27c0-4.39,3.38-7.5,7.52-7.5s7.5,3.11,7.5,7.5-3.34,7.52-7.5,7.52-7.52-3.11-7.52-7.52ZM91.1,428.27c0-2.98-1.83-4.85-4.47-4.85s-4.49,1.87-4.49,4.85,1.83,4.89,4.49,4.89,4.47-1.91,4.47-4.89Z"/>
    <path d="M96.27,420.98h2.94v9.07c0,2.02,1.09,3.07,2.96,3.07s2.98-1.05,2.98-3.07v-9.07h2.96v9.05c0,3.86-2.77,5.75-5.98,5.75s-5.86-1.89-5.86-5.75v-9.05Z"/>
    <path d="M110.57,431.42h3.15c.08,1.18.86,1.95,2.23,1.95s2.2-.74,2.2-1.78c0-3.17-7.56-1.26-7.54-6.57,0-2.65,2.14-4.24,5.17-4.24s5.06,1.53,5.25,4.18h-3.23c-.06-.97-.84-1.72-2.1-1.74-1.16-.04-2.02.52-2.02,1.72,0,2.94,7.52,1.3,7.52,6.47,0,2.31-1.85,4.39-5.19,4.39-3.04,0-5.4-1.6-5.44-4.37Z"/>
    <path d="M131.52,420.96l5.27,14.68h-3.11l-.97-2.79h-5.84l-.97,2.79h-3.09l5.27-14.68h3.42ZM131.92,430.5l-2.12-6.13-2.12,6.13h4.24Z"/>
    <path d="M149.42,428.65c0-1.66,1.3-2.94,2.92-2.94s2.96,1.28,2.96,2.94-1.3,2.92-2.96,2.92-2.92-1.28-2.92-2.92Z"/>
    <path d="M164.07,424.18h1.47v1.97c.74-1.45,2.18-2.18,3.8-2.18,1.91,0,3.55.9,4.24,2.81.63-1.87,2.31-2.81,4.14-2.81,2.54,0,4.56,1.6,4.56,4.96v6.72h-1.45v-6.55c0-2.54-1.32-3.84-3.36-3.84s-3.55,1.39-3.55,4.18v6.21h-1.45v-6.55c0-2.54-1.34-3.84-3.38-3.84s-3.55,1.39-3.55,4.18v6.21h-1.47v-11.46Z"/>
    <path d="M190.34,424.01c2.31,0,3.88,1.24,4.54,2.69v-2.52h1.47v11.46h-1.47v-2.54c-.67,1.47-2.27,2.71-4.56,2.71-3.13,0-5.46-2.33-5.46-5.92s2.33-5.88,5.48-5.88ZM190.62,425.29c-2.41,0-4.26,1.68-4.26,4.6s1.85,4.64,4.26,4.64,4.26-1.76,4.26-4.62-1.91-4.62-4.26-4.62Z"/>
    <path d="M199.71,420.1h1.47v9.2l4.62-5.12h2.06l-5.44,5.71,5.48,5.75h-2l-4.72-5.14v5.14h-1.47v-15.54Z"/>
    <path d="M214.75,435.81c-3.25,0-5.63-2.27-5.63-5.9s2.33-5.9,5.63-5.9,5.42,2.39,5.42,5.31c0,.46,0,.76-.04,1.15h-9.51c.13,2.69,2,4.09,4.14,4.09,1.95,0,3.28-1.03,3.7-2.56h1.55c-.52,2.16-2.37,3.8-5.25,3.8ZM210.61,429.28h8.06c.06-2.67-1.87-4.01-3.99-4.01s-3.91,1.34-4.07,4.01Z"/>
    <path d="M224.2,430.71c0,2.54,1.39,3.84,3.49,3.84s3.63-1.34,3.63-4.14v-6.24h1.47v11.46h-1.47v-2.02c-.69,1.45-2.21,2.2-3.91,2.2-2.6,0-4.66-1.6-4.66-4.96v-6.7h1.45v6.53Z"/>
    <path d="M242.15,424.01c3.13,0,5.46,2.29,5.46,5.88s-2.33,5.92-5.46,5.92c-2.29,0-3.88-1.26-4.56-2.69v7.94h-1.45v-16.88h1.45v2.52c.67-1.45,2.27-2.69,4.56-2.69ZM241.86,425.29c-2.33,0-4.26,1.76-4.26,4.62s1.93,4.62,4.26,4.62,4.26-1.74,4.26-4.64-1.85-4.6-4.26-4.6Z"/>
    <path d="M260.88,424.01c2.31,0,3.88,1.24,4.54,2.69v-2.52h1.47v11.46h-1.47v-2.54c-.67,1.47-2.27,2.71-4.56,2.71-3.13,0-5.46-2.33-5.46-5.92s2.33-5.88,5.48-5.88ZM261.16,425.29c-2.42,0-4.26,1.68-4.26,4.6s1.85,4.64,4.26,4.64,4.26-1.76,4.26-4.62-1.91-4.62-4.26-4.62Z"/>
    <path d="M270.25,424.18h1.47v1.95c.73-1.43,2.21-2.16,3.91-2.16,2.6,0,4.66,1.6,4.66,4.96v6.72h-1.45v-6.55c0-2.54-1.38-3.84-3.48-3.84s-3.63,1.34-3.63,4.14v6.26h-1.47v-11.46Z"/>
    <path d="M288.37,424.01c2.06,0,3.78,1.13,4.51,2.65v-6.55h1.47v15.54h-1.47v-2.56c-.67,1.51-2.27,2.73-4.54,2.73-3.15,0-5.48-2.33-5.48-5.92s2.33-5.88,5.5-5.88ZM288.62,425.29c-2.41,0-4.26,1.68-4.26,4.6s1.85,4.64,4.26,4.64,4.26-1.76,4.26-4.62-1.91-4.62-4.26-4.62Z"/>
    <path d="M303.47,420.1h1.47v6.03c.74-1.41,2.25-2.16,3.99-2.16,2.54,0,4.58,1.6,4.58,4.96v6.72h-1.45v-6.55c0-2.54-1.39-3.84-3.49-3.84s-3.63,1.34-3.63,4.14v6.26h-1.47v-15.54Z"/>
    <path d="M321.57,424.01c2.31,0,3.88,1.24,4.54,2.69v-2.52h1.47v11.46h-1.47v-2.54c-.67,1.47-2.27,2.71-4.56,2.71-3.13,0-5.46-2.33-5.46-5.92s2.33-5.88,5.48-5.88ZM321.84,425.29c-2.42,0-4.26,1.68-4.26,4.6s1.85,4.64,4.26,4.64,4.26-1.76,4.26-4.62-1.91-4.62-4.26-4.62Z"/>
    <path d="M330.6,420.92c0-.63.48-1.07,1.07-1.07s1.07.44,1.07,1.07-.48,1.09-1.07,1.09-1.07-.46-1.07-1.09ZM330.94,424.18h1.47v11.46h-1.47v-11.46Z"/>
    <path d="M335.75,424.18h1.47v2.04c.63-1.41,1.95-2.25,3.93-2.25v1.53h-.4c-1.91,0-3.53.86-3.53,3.74v6.4h-1.47v-11.46Z"/>
    <path d="M348.87,420.98h3.34l4.66,10.9,4.66-10.9h3.32v14.66h-2.94v-9.53l-3.93,9.53h-2.23l-3.95-9.53v9.53h-2.94v-14.66Z"/>
    <path d="M375.54,420.96l5.27,14.68h-3.11l-.97-2.79h-5.84l-.97,2.79h-3.09l5.27-14.68h3.42ZM375.94,430.5l-2.12-6.13-2.12,6.13h4.24Z"/>
    <path d="M388.29,420.98c3.53,0,5.29,2.04,5.29,4.49,0,1.78-.99,3.59-3.34,4.22l3.51,5.94h-3.4l-3.23-5.71h-1.38v5.71h-2.94v-14.66h5.5ZM388.18,423.42h-2.46v4.3h2.46c1.64,0,2.37-.86,2.37-2.18s-.73-2.12-2.37-2.12Z"/>
    <path d="M406.45,425.39c-.67-1.24-1.89-1.89-3.44-1.89-2.62,0-4.45,1.87-4.45,4.79s1.85,4.83,4.58,4.83c2.27,0,3.72-1.3,4.16-3.38h-5.04v-2.25h7.94v2.56c-.59,2.98-3.25,5.71-7.16,5.71-4.26,0-7.5-3.09-7.5-7.47s3.23-7.5,7.47-7.5c3.28,0,5.88,1.66,6.82,4.6h-3.38Z"/>
    <path d="M420.17,420.96l5.27,14.68h-3.11l-.97-2.79h-5.84l-.97,2.79h-3.09l5.27-14.68h3.42ZM420.56,430.5l-2.12-6.13-2.12,6.13h4.24Z"/>
    <path d="M432.91,420.98c3.53,0,5.29,2.04,5.29,4.49,0,1.78-.99,3.59-3.34,4.22l3.51,5.94h-3.4l-3.23-5.71h-1.38v5.71h-2.94v-14.66h5.5ZM432.81,423.42h-2.46v4.3h2.46c1.64,0,2.37-.86,2.37-2.18s-.73-2.12-2.37-2.12Z"/>
    <path d="M440.87,420.98h2.94v14.66h-2.94v-14.66Z"/>
    <path d="M459.56,428.33c0,4.43-3.04,7.31-7.73,7.31h-5.12v-14.66h5.12c4.68,0,7.73,2.9,7.73,7.35ZM451.73,433.14c3.09,0,4.83-1.76,4.83-4.81s-1.74-4.87-4.83-4.87h-2.08v9.68h2.08Z"/>
    <path d="M469.56,420.96l5.27,14.68h-3.11l-.96-2.79h-5.84l-.96,2.79h-3.09l5.27-14.68h3.42ZM469.96,430.5l-2.12-6.13-2.12,6.13h4.24Z"/>
    <path d="M487.2,430.01h-2.46v5.63h-2.94v-14.66h5.4c3.53,0,5.29,1.99,5.29,4.54,0,2.23-1.51,4.49-5.29,4.49ZM487.07,427.64c1.66,0,2.39-.82,2.39-2.12s-.73-2.14-2.39-2.14h-2.33v4.26h2.33Z"/>
    <path d="M502.36,420.96l5.27,14.68h-3.11l-.97-2.79h-5.84l-.97,2.79h-3.09l5.27-14.68h3.42ZM502.76,430.5l-2.12-6.13-2.12,6.13h4.24Z"/>
    <path d="M509.61,420.98h2.94v14.66h-2.94v-14.66Z"/>
    <path d="M523.23,420.96l5.27,14.68h-3.11l-.96-2.79h-5.84l-.96,2.79h-3.09l5.27-14.68h3.42ZM523.63,430.5l-2.12-6.13-2.12,6.13h4.24Z"/>
    <path d="M530.1,431.42h3.15c.08,1.18.86,1.95,2.23,1.95s2.2-.74,2.2-1.78c0-3.17-7.56-1.26-7.54-6.57,0-2.65,2.14-4.24,5.17-4.24s5.06,1.53,5.25,4.18h-3.23c-.06-.97-.84-1.72-2.1-1.74-1.16-.04-2.02.52-2.02,1.72,0,2.94,7.52,1.3,7.52,6.47,0,2.31-1.85,4.39-5.19,4.39-3.04,0-5.4-1.6-5.44-4.37Z"/>
    <path d="M553.92,428.65c0-1.66,1.3-2.94,2.92-2.94s2.96,1.28,2.96,2.94-1.3,2.92-2.96,2.92-2.92-1.28-2.92-2.92Z"/>
    <path d="M567.9,432.41h1.51c.13,1.26,1.22,2.16,3.09,2.16,1.64,0,2.56-.88,2.56-1.97,0-2.83-6.89-1.18-6.89-5.48,0-1.7,1.62-3.11,4.03-3.11s4.07,1.3,4.2,3.51h-1.47c-.08-1.28-1.03-2.25-2.77-2.25-1.53,0-2.5.82-2.5,1.83,0,3.11,6.78,1.45,6.84,5.5,0,1.85-1.62,3.21-3.99,3.21-2.6,0-4.43-1.3-4.62-3.4Z"/>
    <path d="M578.61,429.91c0-3.65,2.52-5.9,5.73-5.9s5.73,2.25,5.73,5.9-2.54,5.9-5.77,5.9-5.69-2.27-5.69-5.9ZM588.56,429.91c0-3.15-2.06-4.62-4.24-4.62s-4.22,1.47-4.22,4.62,2.02,4.62,4.2,4.62,4.26-1.47,4.26-4.62Z"/>
    <path d="M594.11,430.71c0,2.54,1.39,3.84,3.49,3.84s3.63-1.34,3.63-4.14v-6.24h1.47v11.46h-1.47v-2.02c-.69,1.45-2.2,2.2-3.9,2.2-2.6,0-4.66-1.6-4.66-4.96v-6.7h1.45v6.53Z"/>
    <path d="M606.06,424.18h1.47v1.95c.74-1.43,2.2-2.16,3.91-2.16,2.6,0,4.66,1.6,4.66,4.96v6.72h-1.45v-6.55c0-2.54-1.39-3.84-3.49-3.84s-3.63,1.34-3.63,4.14v6.26h-1.47v-11.46Z"/>
    <path d="M624.18,424.01c2.06,0,3.78,1.13,4.51,2.65v-6.55h1.47v15.54h-1.47v-2.56c-.67,1.51-2.27,2.73-4.54,2.73-3.15,0-5.48-2.33-5.48-5.92s2.33-5.88,5.5-5.88ZM624.43,425.29c-2.42,0-4.26,1.68-4.26,4.6s1.85,4.64,4.26,4.64,4.26-1.76,4.26-4.62-1.91-4.62-4.26-4.62Z"/>
    <path d="M644.11,424.01c2.06,0,3.78,1.13,4.51,2.65v-6.55h1.47v15.54h-1.47v-2.56c-.67,1.51-2.27,2.73-4.54,2.73-3.15,0-5.48-2.33-5.48-5.92s2.33-5.88,5.5-5.88ZM644.36,425.29c-2.41,0-4.26,1.68-4.26,4.6s1.85,4.64,4.26,4.64,4.26-1.76,4.26-4.62-1.91-4.62-4.26-4.62Z"/>
    <path d="M658.41,435.81c-3.25,0-5.63-2.27-5.63-5.9s2.33-5.9,5.63-5.9,5.42,2.39,5.42,5.31c0,.46,0,.76-.04,1.15h-9.51c.13,2.69,2,4.09,4.14,4.09,1.95,0,3.28-1.03,3.7-2.56h1.55c-.52,2.16-2.37,3.8-5.25,3.8ZM654.27,429.28h8.06c.06-2.67-1.87-4.01-3.99-4.01s-3.91,1.34-4.07,4.01Z"/>
    <path d="M665.84,432.41h1.51c.13,1.26,1.22,2.16,3.09,2.16,1.64,0,2.56-.88,2.56-1.97,0-2.83-6.89-1.18-6.89-5.48,0-1.7,1.62-3.11,4.03-3.11s4.07,1.3,4.2,3.51h-1.47c-.08-1.28-1.03-2.25-2.77-2.25-1.53,0-2.5.82-2.5,1.83,0,3.11,6.78,1.45,6.84,5.5,0,1.85-1.62,3.21-3.99,3.21-2.6,0-4.43-1.3-4.62-3.4Z"/>
    <path d="M676.89,420.92c0-.63.48-1.07,1.07-1.07s1.07.44,1.07,1.07-.48,1.09-1.07,1.09-1.07-.46-1.07-1.09ZM677.23,424.18h1.47v11.46h-1.47v-11.46Z"/>
    <path d="M691.38,426.67v-2.5h1.47v11.76c0,3.21-2.2,5.33-5.35,5.33-2.96,0-5.02-1.51-5.48-3.91h1.45c.48,1.55,1.93,2.62,4.03,2.62s3.88-1.45,3.88-4.05v-2.83c-.67,1.47-2.27,2.71-4.54,2.71-3.15,0-5.48-2.33-5.48-5.92s2.33-5.88,5.48-5.88c2.27,0,3.88,1.22,4.54,2.67ZM687.12,425.29c-2.42,0-4.26,1.68-4.26,4.6s1.85,4.64,4.26,4.64,4.26-1.76,4.26-4.62-1.91-4.62-4.26-4.62Z"/>
    <path d="M696.21,424.18h1.47v1.95c.73-1.43,2.21-2.16,3.91-2.16,2.6,0,4.66,1.6,4.66,4.96v6.72h-1.45v-6.55c0-2.54-1.38-3.84-3.48-3.84s-3.63,1.34-3.63,4.14v6.26h-1.47v-11.46Z"/>
    <path d="M717.21,420.98v12.32h4.83v2.33h-7.77v-14.66h2.94Z"/>
    <path d="M723.87,420.98h2.94v9.07c0,2.02,1.09,3.07,2.96,3.07s2.98-1.05,2.98-3.07v-9.07h2.96v9.05c0,3.86-2.77,5.75-5.98,5.75s-5.86-1.89-5.86-5.75v-9.05Z"/>
    <path d="M742.3,415.55v2.37l-4.83,2.23v-2.1l4.83-2.5ZM738.54,420.98h2.94v14.66h-2.94v-14.66Z"/>
    <path d="M744.01,431.42h3.15c.08,1.18.86,1.95,2.23,1.95s2.2-.74,2.2-1.78c0-3.17-7.56-1.26-7.54-6.57,0-2.65,2.14-4.24,5.17-4.24s5.06,1.53,5.25,4.18h-3.23c-.06-.97-.84-1.72-2.1-1.74-1.16-.04-2.02.52-2.02,1.72,0,2.94,7.52,1.3,7.52,6.47,0,2.31-1.85,4.39-5.19,4.39-3.04,0-5.4-1.6-5.44-4.37Z"/>
    <path d="M761.79,431.42h3.15c.08,1.18.86,1.95,2.23,1.95s2.2-.74,2.2-1.78c0-3.17-7.56-1.26-7.54-6.57,0-2.65,2.14-4.24,5.17-4.24s5.06,1.53,5.25,4.18h-3.23c-.06-.97-.84-1.72-2.1-1.74-1.16-.04-2.02.52-2.02,1.72,0,2.94,7.52,1.3,7.52,6.47,0,2.31-1.85,4.39-5.19,4.39-3.04,0-5.4-1.6-5.44-4.37Z"/>
    <path d="M774.96,420.98h2.94v14.66h-2.94v-14.66Z"/>
    <path d="M783.74,420.98v12.32h4.83v2.33h-7.77v-14.66h2.94Z"/>
    <path d="M800.47,420.98h3.13l-5.38,14.66h-3.57l-5.38-14.66h3.15l4.03,11.65,4.01-11.65Z"/>
    <path d="M813.87,423.36h-5.56v3.67h4.93v2.33h-4.93v3.88h5.56v2.39h-8.5v-14.68h8.5v2.39Z"/>
    <path d="M816.54,420.98h2.94v14.66h-2.94v-14.66Z"/>
    <path d="M827.88,420.98c3.53,0,5.29,2.04,5.29,4.49,0,1.78-.99,3.59-3.34,4.22l3.51,5.94h-3.4l-3.23-5.71h-1.38v5.71h-2.94v-14.66h5.5ZM827.77,423.42h-2.46v4.3h2.46c1.64,0,2.37-.86,2.37-2.18s-.73-2.12-2.37-2.12Z"/>
    <path d="M843.63,420.96l5.27,14.68h-3.11l-.96-2.79h-5.84l-.96,2.79h-3.09l5.27-14.68h3.42ZM844.03,430.5l-2.12-6.13-2.12,6.13h4.24Z"/>
    <path d="M856.52,428.65c0-1.66,1.3-2.94,2.92-2.94s2.96,1.28,2.96,2.94-1.3,2.92-2.96,2.92-2.92-1.28-2.92-2.92Z"/>
    <path d="M876.14,435.81c-3.25,0-5.63-2.27-5.63-5.9s2.33-5.9,5.63-5.9,5.42,2.39,5.42,5.31c0,.46,0,.76-.04,1.15h-9.51c.12,2.69,1.99,4.09,4.14,4.09,1.95,0,3.28-1.03,3.7-2.56h1.55c-.53,2.16-2.37,3.8-5.25,3.8ZM872,429.28h8.06c.06-2.67-1.87-4.01-3.99-4.01s-3.9,1.34-4.07,4.01Z"/>
    <path d="M889.07,424.01c2.06,0,3.78,1.13,4.51,2.65v-6.55h1.47v15.54h-1.47v-2.56c-.67,1.51-2.27,2.73-4.54,2.73-3.15,0-5.48-2.33-5.48-5.92s2.33-5.88,5.5-5.88ZM889.32,425.29c-2.42,0-4.26,1.68-4.26,4.6s1.85,4.64,4.26,4.64,4.26-1.76,4.26-4.62-1.91-4.62-4.26-4.62Z"/>
    <path d="M898.08,420.92c0-.63.48-1.07,1.07-1.07s1.07.44,1.07,1.07-.48,1.09-1.07,1.09-1.07-.46-1.07-1.09ZM898.42,424.18h1.47v11.46h-1.47v-11.46Z"/>
    <path d="M903.65,425.41h-1.6v-1.24h1.6v-2.88h1.49v2.88h3.15v1.24h-3.15v7.12c0,1.41.48,1.85,1.8,1.85h1.34v1.26h-1.57c-1.99,0-3.07-.82-3.07-3.11v-7.12Z"/>
    <path d="M910.37,420.92c0-.63.48-1.07,1.07-1.07s1.07.44,1.07,1.07-.48,1.09-1.07,1.09-1.07-.46-1.07-1.09ZM910.7,424.18h1.47v11.46h-1.47v-11.46Z"/>
    <path d="M915.51,424.18h1.47v1.95c.74-1.43,2.2-2.16,3.91-2.16,2.6,0,4.66,1.6,4.66,4.96v6.72h-1.45v-6.55c0-2.54-1.39-3.84-3.49-3.84s-3.63,1.34-3.63,4.14v6.26h-1.47v-11.46Z"/>
    <path d="M938.15,426.67v-2.5h1.47v11.76c0,3.21-2.2,5.33-5.35,5.33-2.96,0-5.02-1.51-5.48-3.91h1.45c.48,1.55,1.93,2.62,4.03,2.62s3.88-1.45,3.88-4.05v-2.83c-.67,1.47-2.27,2.71-4.54,2.71-3.15,0-5.48-2.33-5.48-5.92s2.33-5.88,5.48-5.88c2.27,0,3.88,1.22,4.54,2.67ZM933.88,425.29c-2.42,0-4.26,1.68-4.26,4.6s1.85,4.64,4.26,4.64,4.26-1.76,4.26-4.62-1.91-4.62-4.26-4.62Z"/>
    <path d="M948.5,420.98h3.34l4.66,10.9,4.66-10.9h3.32v14.66h-2.94v-9.53l-3.93,9.53h-2.23l-3.95-9.53v9.53h-2.94v-14.66Z"/>
    <path d="M975.17,420.96l5.27,14.68h-3.11l-.97-2.79h-5.84l-.97,2.79h-3.09l5.27-14.68h3.42ZM975.57,430.5l-2.12-6.13-2.12,6.13h4.24Z"/>
    <path d="M987.92,420.98c3.53,0,5.29,2.04,5.29,4.49,0,1.78-.99,3.59-3.34,4.22l3.51,5.94h-3.4l-3.23-5.71h-1.38v5.71h-2.94v-14.66h5.5ZM987.81,423.42h-2.46v4.3h2.46c1.64,0,2.37-.86,2.37-2.18s-.73-2.12-2.37-2.12Z"/>
    <path d="M995.88,420.98h2.94v14.66h-2.94v-14.66Z"/>
    <path d="M1009.5,420.96l5.27,14.68h-3.11l-.96-2.79h-5.84l-.96,2.79h-3.09l5.27-14.68h3.42ZM1009.9,430.5l-2.12-6.13-2.12,6.13h4.24Z"/>
    <path d="M1027.14,430.01h-2.46v5.63h-2.94v-14.66h5.4c3.53,0,5.29,1.99,5.29,4.54,0,2.23-1.51,4.49-5.29,4.49ZM1027.02,427.64c1.66,0,2.39-.82,2.39-2.12s-.73-2.14-2.39-2.14h-2.33v4.26h2.33Z"/>
    <path d="M1042.31,420.96l5.27,14.68h-3.11l-.97-2.79h-5.84l-.97,2.79h-3.09l5.27-14.68h3.42ZM1042.71,430.5l-2.12-6.13-2.12,6.13h4.24Z"/>
    <path d="M1048.78,420.98h10.75v2.37h-3.91v12.28h-2.94v-12.28h-3.91v-2.37Z"/>
    <path d="M1067.17,420.98c3.53,0,5.29,2.04,5.29,4.49,0,1.78-.99,3.59-3.34,4.22l3.51,5.94h-3.4l-3.23-5.71h-1.38v5.71h-2.94v-14.66h5.5ZM1067.07,423.42h-2.46v4.3h2.46c1.64,0,2.37-.86,2.37-2.18s-.73-2.12-2.37-2.12Z"/>
    <path d="M1082.92,420.96l5.27,14.68h-3.11l-.96-2.79h-5.84l-.96,2.79h-3.09l5.27-14.68h3.42ZM1080.04,417.1c1.18,0,1.74.92,2.58.92.46,0,.82-.27.9-.9h1.57c-.29,1.91-1.28,2.75-2.62,2.75-1.2,0-1.74-.94-2.58-.94-.46,0-.82.29-.9.92h-1.58c.29-1.91,1.28-2.75,2.62-2.75ZM1083.32,430.5l-2.12-6.13-2.12,6.13h4.24Z"/>
    <path d="M1089.45,428.27c0-4.39,3.38-7.5,7.52-7.5s7.5,3.11,7.5,7.5-3.34,7.52-7.5,7.52-7.52-3.11-7.52-7.52ZM1101.44,428.27c0-2.98-1.83-4.85-4.47-4.85s-4.49,1.87-4.49,4.85,1.83,4.89,4.49,4.89,4.47-1.91,4.47-4.89Z"/>
    <path d="M1112.3,428.65c0-1.66,1.3-2.94,2.92-2.94s2.96,1.28,2.96,2.94-1.3,2.92-2.96,2.92-2.92-1.28-2.92-2.92Z"/>
    <path d="M1126.29,432.41h1.51c.13,1.26,1.22,2.16,3.09,2.16,1.64,0,2.56-.88,2.56-1.97,0-2.83-6.89-1.18-6.89-5.48,0-1.7,1.62-3.11,4.03-3.11s4.07,1.3,4.2,3.51h-1.47c-.08-1.28-1.03-2.25-2.77-2.25-1.53,0-2.5.82-2.5,1.83,0,3.11,6.78,1.45,6.84,5.5,0,1.85-1.62,3.21-3.99,3.21-2.6,0-4.43-1.3-4.62-3.4Z"/>
    <path d="M1137,429.91c0-3.65,2.52-5.9,5.73-5.9s5.73,2.25,5.73,5.9-2.54,5.9-5.77,5.9-5.69-2.27-5.69-5.9ZM1146.95,429.91c0-3.15-2.06-4.62-4.24-4.62s-4.22,1.47-4.22,4.62,2.02,4.62,4.2,4.62,4.26-1.47,4.26-4.62Z"/>
    <path d="M1152.49,430.71c0,2.54,1.39,3.84,3.49,3.84s3.63-1.34,3.63-4.14v-6.24h1.47v11.46h-1.47v-2.02c-.69,1.45-2.2,2.2-3.9,2.2-2.6,0-4.66-1.6-4.66-4.96v-6.7h1.45v6.53Z"/>
    <path d="M1164.44,424.18h1.47v1.95c.74-1.43,2.2-2.16,3.91-2.16,2.6,0,4.66,1.6,4.66,4.96v6.72h-1.45v-6.55c0-2.54-1.39-3.84-3.49-3.84s-3.63,1.34-3.63,4.14v6.26h-1.47v-11.46Z"/>
    <path d="M1182.57,424.01c2.06,0,3.78,1.13,4.51,2.65v-6.55h1.47v15.54h-1.47v-2.56c-.67,1.51-2.27,2.73-4.54,2.73-3.15,0-5.48-2.33-5.48-5.92s2.33-5.88,5.5-5.88ZM1182.82,425.29c-2.42,0-4.26,1.68-4.26,4.6s1.85,4.64,4.26,4.64,4.26-1.76,4.26-4.62-1.91-4.62-4.26-4.62Z"/>
    <path d="M1202.62,435.81c-3.25,0-5.63-2.27-5.63-5.9s2.33-5.9,5.63-5.9,5.42,2.39,5.42,5.31c0,.46,0,.76-.04,1.15h-9.51c.12,2.69,1.99,4.09,4.14,4.09,1.95,0,3.28-1.03,3.7-2.56h1.55c-.53,2.16-2.37,3.8-5.25,3.8ZM1198.48,429.28h8.06c.06-2.67-1.87-4.01-3.99-4.01s-3.9,1.34-4.07,4.01Z"/>
    <path d="M1215.56,424.01c2.06,0,3.78,1.13,4.51,2.65v-6.55h1.47v15.54h-1.47v-2.56c-.67,1.51-2.27,2.73-4.54,2.73-3.15,0-5.48-2.33-5.48-5.92s2.33-5.88,5.5-5.88ZM1215.81,425.29c-2.42,0-4.26,1.68-4.26,4.6s1.85,4.64,4.26,4.64,4.26-1.76,4.26-4.62-1.91-4.62-4.26-4.62Z"/>
    <path d="M1224.57,420.92c0-.63.48-1.07,1.07-1.07s1.07.44,1.07,1.07-.48,1.09-1.07,1.09-1.07-.46-1.07-1.09ZM1224.9,424.18h1.47v11.46h-1.47v-11.46Z"/>
    <path d="M1230.13,425.41h-1.6v-1.24h1.6v-2.88h1.49v2.88h3.15v1.24h-3.15v7.12c0,1.41.48,1.85,1.8,1.85h1.34v1.26h-1.57c-1.99,0-3.07-.82-3.07-3.11v-7.12Z"/>
    <path d="M1236.85,420.92c0-.63.48-1.07,1.07-1.07s1.07.44,1.07,1.07-.48,1.09-1.07,1.09-1.07-.46-1.07-1.09ZM1237.19,424.18h1.47v11.46h-1.47v-11.46Z"/>
    <path d="M1241.99,424.18h1.47v1.95c.74-1.43,2.2-2.16,3.91-2.16,2.6,0,4.66,1.6,4.66,4.96v6.72h-1.45v-6.55c0-2.54-1.39-3.84-3.49-3.84s-3.63,1.34-3.63,4.14v6.26h-1.47v-11.46Z"/>
    <path d="M1264.63,426.67v-2.5h1.47v11.76c0,3.21-2.2,5.33-5.35,5.33-2.96,0-5.02-1.51-5.48-3.91h1.45c.48,1.55,1.93,2.62,4.03,2.62s3.88-1.45,3.88-4.05v-2.83c-.67,1.47-2.27,2.71-4.54,2.71-3.15,0-5.48-2.33-5.48-5.92s2.33-5.88,5.48-5.88c2.27,0,3.88,1.22,4.54,2.67ZM1260.37,425.29c-2.42,0-4.26,1.68-4.26,4.6s1.85,4.64,4.26,4.64,4.26-1.76,4.26-4.62-1.91-4.62-4.26-4.62Z"/>
    <path d="M1280.02,424.01c2.31,0,3.88,1.24,4.54,2.69v-2.52h1.47v11.46h-1.47v-2.54c-.67,1.47-2.27,2.71-4.56,2.71-3.13,0-5.46-2.33-5.46-5.92s2.33-5.88,5.48-5.88ZM1280.3,425.29c-2.41,0-4.26,1.68-4.26,4.6s1.85,4.64,4.26,4.64,4.26-1.76,4.26-4.62-1.91-4.62-4.26-4.62Z"/>
    <path d="M1289.39,424.18h1.47v1.95c.74-1.43,2.2-2.16,3.91-2.16,2.6,0,4.66,1.6,4.66,4.96v6.72h-1.45v-6.55c0-2.54-1.39-3.84-3.49-3.84s-3.63,1.34-3.63,4.14v6.26h-1.47v-11.46Z"/>
    <path d="M1307.51,424.01c2.06,0,3.78,1.13,4.51,2.65v-6.55h1.47v15.54h-1.47v-2.56c-.67,1.51-2.27,2.73-4.54,2.73-3.15,0-5.48-2.33-5.48-5.92s2.33-5.88,5.5-5.88ZM1307.76,425.29c-2.42,0-4.26,1.68-4.26,4.6s1.85,4.64,4.26,4.64,4.26-1.76,4.26-4.62-1.91-4.62-4.26-4.62Z"/>
    <path d="M1322.61,424.18h1.47v1.97c.73-1.45,2.18-2.18,3.8-2.18,1.91,0,3.55.9,4.24,2.81.63-1.87,2.31-2.81,4.14-2.81,2.54,0,4.56,1.6,4.56,4.96v6.72h-1.45v-6.55c0-2.54-1.32-3.84-3.36-3.84s-3.55,1.39-3.55,4.18v6.21h-1.45v-6.55c0-2.54-1.34-3.84-3.38-3.84s-3.55,1.39-3.55,4.18v6.21h-1.47v-11.46Z"/>
    <path d="M1343.74,420.92c0-.63.48-1.07,1.07-1.07s1.07.44,1.07,1.07-.48,1.09-1.07,1.09-1.07-.46-1.07-1.09ZM1344.07,424.18h1.47v11.46h-1.47v-11.46Z"/>
    <path d="M1351.93,431.02l-2.86,4.62h-1.55l3.7-5.73-3.65-5.73h1.66l2.92,4.56,2.83-4.56h1.53l-3.65,5.67,3.7,5.79h-1.66l-2.96-4.62Z"/>
    <path d="M1358.21,420.92c0-.63.48-1.07,1.07-1.07s1.07.44,1.07,1.07-.48,1.09-1.07,1.09-1.07-.46-1.07-1.09ZM1358.54,424.18h1.47v11.46h-1.47v-11.46Z"/>
    <path d="M1363.35,424.18h1.47v1.95c.74-1.43,2.2-2.16,3.91-2.16,2.6,0,4.66,1.6,4.66,4.96v6.72h-1.45v-6.55c0-2.54-1.39-3.84-3.49-3.84s-3.63,1.34-3.63,4.14v6.26h-1.47v-11.46Z"/>
    <path d="M1385.99,426.67v-2.5h1.47v11.76c0,3.21-2.2,5.33-5.35,5.33-2.96,0-5.02-1.51-5.48-3.91h1.45c.48,1.55,1.93,2.62,4.03,2.62s3.88-1.45,3.88-4.05v-2.83c-.67,1.47-2.27,2.71-4.54,2.71-3.15,0-5.48-2.33-5.48-5.92s2.33-5.88,5.48-5.88c2.27,0,3.88,1.22,4.54,2.67ZM1381.73,425.29c-2.42,0-4.26,1.68-4.26,4.6s1.85,4.64,4.26,4.64,4.26-1.76,4.26-4.62-1.91-4.62-4.26-4.62Z"/>
    <path d="M1400.18,420.98h2.96v10.29c0,2.9-1.85,4.51-4.56,4.51s-4.68-1.66-4.68-4.62h2.94c.02,1.24.59,1.99,1.7,1.99s1.64-.73,1.64-1.89v-10.29Z"/>
    <path d="M1405.86,428.27c0-4.39,3.38-7.5,7.52-7.5s7.5,3.11,7.5,7.5-3.34,7.52-7.5,7.52-7.52-3.11-7.52-7.52ZM1417.84,428.27c0-2.98-1.83-4.85-4.47-4.85s-4.49,1.87-4.49,4.85,1.83,4.89,4.49,4.89,4.47-1.91,4.47-4.89Z"/>
    <path d="M1430.84,420.96l5.27,14.68h-3.11l-.97-2.79h-5.84l-.97,2.79h-3.09l5.27-14.68h3.42ZM1431.24,430.5l-2.12-6.13-2.12,6.13h4.24Z"/>
    <path d="M1450.62,420.96v14.68h-2.94l-6.66-10.06v10.06h-2.94v-14.68h2.94l6.66,10.08v-10.08h2.94Z"/>
    <path d="M1461.31,420.96l5.27,14.68h-3.11l-.97-2.79h-5.84l-.97,2.79h-3.09l5.27-14.68h3.42ZM1461.71,430.5l-2.12-6.13-2.12,6.13h4.24Z"/>
    <path d="M1486.09,420.96v14.68h-2.94l-6.66-10.06v10.06h-2.94v-14.68h2.94l6.66,10.08v-10.08h2.94Z"/>
    <path d="M1488.99,420.98h2.94v14.66h-2.94v-14.66Z"/>
    <path d="M1504.43,423.25l-6.59,9.91h6.59v2.48h-9.99v-2.27l6.55-9.91h-6.55v-2.48h9.99v2.27Z"/>
    <path d="M1514.72,420.96l5.27,14.68h-3.11l-.97-2.79h-5.84l-.97,2.79h-3.09l5.27-14.68h3.42ZM1515.12,430.5l-2.12-6.13-2.12,6.13h4.24Z"/>
    <path d="M1533.28,435.64h-6.32v-14.66h6.05c3.06,0,4.77,1.6,4.77,3.78,0,1.79-1.07,2.9-2.5,3.36,1.66.29,2.83,1.83,2.83,3.55,0,2.33-1.79,3.97-4.83,3.97ZM1532.59,423.36h-2.69v3.67h2.69c1.38,0,2.18-.63,2.18-1.83s-.8-1.85-2.18-1.85ZM1532.8,429.3h-2.9v3.95h2.96c1.43,0,2.27-.69,2.27-1.93s-.9-2.02-2.33-2.02Z"/>
    <path d="M1545.96,420.98c3.53,0,5.29,2.04,5.29,4.49,0,1.78-.99,3.59-3.34,4.22l3.51,5.94h-3.4l-3.23-5.71h-1.39v5.71h-2.94v-14.66h5.5ZM1545.86,423.42h-2.46v4.3h2.46c1.64,0,2.37-.86,2.37-2.18s-.74-2.12-2.37-2.12Z"/>
    <path d="M1561.71,420.96l5.27,14.68h-3.11l-.97-2.79h-5.84l-.97,2.79h-3.09l5.27-14.68h3.42ZM1562.11,430.5l-2.12-6.13-2.12,6.13h4.24Z"/>
    <path d="M1579.16,425.39c-.67-1.24-1.89-1.89-3.44-1.89-2.62,0-4.45,1.87-4.45,4.79s1.85,4.83,4.58,4.83c2.27,0,3.72-1.3,4.16-3.38h-5.04v-2.25h7.94v2.56c-.59,2.98-3.25,5.71-7.16,5.71-4.26,0-7.5-3.09-7.5-7.47s3.23-7.5,7.47-7.5c3.28,0,5.88,1.66,6.82,4.6h-3.38Z"/>
    <path d="M1592.88,420.96l5.27,14.68h-3.11l-.97-2.79h-5.84l-.97,2.79h-3.09l5.27-14.68h3.42ZM1593.28,430.5l-2.12-6.13-2.12,6.13h4.24Z"/>
    <path d="M1611.84,420.79c3.25,0,5.9,1.74,6.89,4.75h-3.38c-.69-1.41-1.95-2.1-3.53-2.1-2.56,0-4.39,1.87-4.39,4.85s1.83,4.85,4.39,4.85c1.57,0,2.83-.69,3.53-2.12h3.38c-.99,3.02-3.63,4.75-6.89,4.75-4.22,0-7.43-3.09-7.43-7.47s3.21-7.5,7.43-7.5Z"/>
    <path d="M1620.73,434.06c0-.96.76-1.72,1.83-1.72s1.78.76,1.78,1.72-.76,1.72-1.78,1.72-1.83-.76-1.83-1.72Z"/>
    <path d="M1634.5,420.96l5.27,14.68h-3.11l-.96-2.79h-5.84l-.96,2.79h-3.09l5.27-14.68h3.42ZM1634.9,430.5l-2.12-6.13-2.12,6.13h4.24Z"/>
    <path d="M1641.22,434.06c0-.96.76-1.72,1.83-1.72s1.78.76,1.78,1.72-.76,1.72-1.78,1.72-1.83-.76-1.83-1.72Z"/>
    <path d="M1646.83,431.42h3.15c.08,1.18.86,1.95,2.22,1.95s2.21-.74,2.21-1.78c0-3.17-7.56-1.26-7.54-6.57,0-2.65,2.14-4.24,5.16-4.24s5.06,1.53,5.25,4.18h-3.23c-.06-.97-.84-1.72-2.1-1.74-1.15-.04-2.02.52-2.02,1.72,0,2.94,7.52,1.3,7.52,6.47,0,2.31-1.85,4.39-5.19,4.39-3.04,0-5.4-1.6-5.44-4.37Z"/>
    <path d="M1659.47,434.06c0-.96.76-1.72,1.83-1.72s1.79.76,1.79,1.72-.76,1.72-1.79,1.72-1.83-.76-1.83-1.72Z"/>
    <path d="M1671.1,428.65c0-1.66,1.3-2.94,2.92-2.94s2.96,1.28,2.96,2.94-1.3,2.92-2.96,2.92-2.92-1.28-2.92-2.92Z"/>
    <path d="M358.95,449.21c2.88,0,4.75,1.53,5.27,3.91h-1.58c-.38-1.64-1.76-2.65-3.7-2.65-2.25,0-4.07,1.53-4.07,4.64s1.83,4.66,4.07,4.66c1.93,0,3.3-.99,3.7-2.67h1.58c-.52,2.29-2.39,3.91-5.27,3.91-3.23,0-5.56-2.27-5.56-5.9s2.33-5.9,5.56-5.9Z"/>
    <path d="M366.25,455.11c0-3.65,2.52-5.9,5.73-5.9s5.73,2.25,5.73,5.9-2.54,5.9-5.77,5.9-5.69-2.27-5.69-5.9ZM376.21,455.11c0-3.15-2.06-4.62-4.24-4.62s-4.22,1.47-4.22,4.62,2.02,4.62,4.2,4.62,4.26-1.47,4.26-4.62Z"/>
    <path d="M380.41,445.3h1.47v15.54h-1.47v-15.54Z"/>
    <path d="M384.55,455.11c0-3.65,2.52-5.9,5.73-5.9s5.73,2.25,5.73,5.9-2.54,5.9-5.77,5.9-5.69-2.27-5.69-5.9ZM394.5,455.11c0-3.15-2.06-4.62-4.24-4.62s-4.22,1.47-4.22,4.62,2.02,4.62,4.2,4.62,4.26-1.47,4.26-4.62Z"/>
    <path d="M398.7,449.38h1.47v2.04c.63-1.41,1.95-2.25,3.93-2.25v1.53h-.4c-1.91,0-3.53.86-3.53,3.74v6.4h-1.47v-11.46Z"/>
    <path d="M421.4,451.87v-2.5h1.47v11.76c0,3.21-2.21,5.33-5.35,5.33-2.96,0-5.02-1.51-5.48-3.91h1.45c.48,1.55,1.93,2.62,4.03,2.62s3.88-1.45,3.88-4.05v-2.83c-.67,1.47-2.27,2.71-4.54,2.71-3.15,0-5.48-2.33-5.48-5.92s2.33-5.88,5.48-5.88c2.27,0,3.88,1.22,4.54,2.67ZM417.14,450.49c-2.41,0-4.26,1.68-4.26,4.6s1.85,4.64,4.26,4.64,4.26-1.76,4.26-4.62-1.91-4.62-4.26-4.62Z"/>
    <path d="M426.23,449.38h1.47v2.04c.63-1.41,1.95-2.25,3.93-2.25v1.53h-.4c-1.91,0-3.53.86-3.53,3.74v6.4h-1.47v-11.46Z"/>
    <path d="M438.64,449.21c2.31,0,3.88,1.24,4.54,2.69v-2.52h1.47v11.46h-1.47v-2.54c-.67,1.47-2.27,2.71-4.56,2.71-3.13,0-5.46-2.33-5.46-5.92s2.33-5.88,5.48-5.88ZM438.91,450.49c-2.42,0-4.26,1.68-4.26,4.6s1.85,4.64,4.26,4.64,4.26-1.76,4.26-4.62-1.91-4.62-4.26-4.62Z"/>
    <path d="M452.84,449.21c2.06,0,3.78,1.13,4.51,2.65v-6.55h1.47v15.54h-1.47v-2.56c-.67,1.51-2.27,2.73-4.54,2.73-3.15,0-5.48-2.33-5.48-5.92s2.33-5.88,5.5-5.88ZM453.09,450.49c-2.41,0-4.26,1.68-4.26,4.6s1.85,4.64,4.26,4.64,4.26-1.76,4.26-4.62-1.91-4.62-4.26-4.62Z"/>
    <path d="M461.85,446.12c0-.63.48-1.07,1.07-1.07s1.07.44,1.07,1.07-.48,1.09-1.07,1.09-1.07-.46-1.07-1.09ZM462.18,449.38h1.47v11.46h-1.47v-11.46Z"/>
    <path d="M466.99,449.38h1.47v1.95c.74-1.43,2.2-2.16,3.91-2.16,2.6,0,4.66,1.6,4.66,4.96v6.72h-1.45v-6.55c0-2.54-1.39-3.84-3.49-3.84s-3.63,1.34-3.63,4.14v6.26h-1.47v-11.46Z"/>
    <path d="M489.63,451.87v-2.5h1.47v11.76c0,3.21-2.2,5.33-5.35,5.33-2.96,0-5.02-1.51-5.48-3.91h1.45c.48,1.55,1.93,2.62,4.03,2.62s3.88-1.45,3.88-4.05v-2.83c-.67,1.47-2.27,2.71-4.54,2.71-3.15,0-5.48-2.33-5.48-5.92s2.33-5.88,5.48-5.88c2.27,0,3.88,1.22,4.54,2.67ZM485.36,450.49c-2.42,0-4.26,1.68-4.26,4.6s1.85,4.64,4.26,4.64,4.26-1.76,4.26-4.62-1.91-4.62-4.26-4.62Z"/>
    <path d="M503.63,455.21h-2.46v5.63h-2.94v-14.66h5.4c3.53,0,5.29,1.99,5.29,4.54,0,2.23-1.51,4.49-5.29,4.49ZM503.51,452.84c1.66,0,2.39-.82,2.39-2.12s-.74-2.14-2.39-2.14h-2.33v4.26h2.33Z"/>
    <path d="M518.79,446.16l5.27,14.68h-3.11l-.96-2.79h-5.84l-.96,2.79h-3.09l5.27-14.68h3.42ZM519.19,455.7l-2.12-6.13-2.12,6.13h4.24Z"/>
    <path d="M526,446.18h2.94v9.07c0,2.02,1.09,3.07,2.96,3.07s2.98-1.05,2.98-3.07v-9.07h2.96v9.05c0,3.86-2.77,5.75-5.98,5.75s-5.86-1.89-5.86-5.75v-9.05Z"/>
    <path d="M543.62,446.18v12.32h4.83v2.33h-7.77v-14.66h2.94Z"/>
    <path d="M549.6,453.47c0-4.39,3.38-7.5,7.52-7.5s7.5,3.11,7.5,7.5-3.34,7.52-7.5,7.52-7.52-3.11-7.52-7.52ZM561.59,453.47c0-2.98-1.83-4.85-4.47-4.85s-4.49,1.87-4.49,4.85,1.83,4.89,4.49,4.89,4.47-1.91,4.47-4.89Z"/>
    <path d="M579.59,446.16l5.27,14.68h-3.11l-.97-2.79h-5.84l-.97,2.79h-3.09l5.27-14.68h3.42ZM579.99,455.7l-2.12-6.13-2.12,6.13h4.24Z"/>
    <path d="M586.84,446.18h3.34l4.66,10.9,4.66-10.9h3.32v14.66h-2.94v-9.53l-3.93,9.53h-2.22l-3.95-9.53v9.53h-2.94v-14.66Z"/>
    <path d="M614.22,448.56h-5.56v3.67h4.93v2.33h-4.93v3.88h5.56v2.39h-8.5v-14.68h8.5v2.39ZM612.16,440.75v2.37l-4.83,2.23v-2.1l4.83-2.5Z"/>
    <path d="M622.39,446.18c3.53,0,5.29,2.04,5.29,4.49,0,1.78-.99,3.59-3.34,4.22l3.51,5.94h-3.4l-3.23-5.71h-1.38v5.71h-2.94v-14.66h5.5ZM622.28,448.62h-2.46v4.3h2.46c1.64,0,2.37-.86,2.37-2.18s-.73-2.12-2.37-2.12Z"/>
    <path d="M630.35,446.18h2.94v14.66h-2.94v-14.66Z"/>
    <path d="M642.9,445.99c3.25,0,5.9,1.74,6.89,4.75h-3.38c-.69-1.41-1.95-2.1-3.53-2.1-2.56,0-4.39,1.87-4.39,4.85s1.83,4.85,4.39,4.85c1.57,0,2.83-.69,3.53-2.12h3.38c-.99,3.02-3.63,4.75-6.89,4.75-4.22,0-7.43-3.09-7.43-7.47s3.21-7.5,7.43-7.5Z"/>
    <path d="M651.6,453.47c0-4.39,3.38-7.5,7.52-7.5s7.5,3.11,7.5,7.5-3.34,7.52-7.5,7.52-7.52-3.11-7.52-7.52ZM663.59,453.47c0-2.98-1.83-4.85-4.47-4.85s-4.49,1.87-4.49,4.85,1.83,4.89,4.49,4.89,4.47-1.91,4.47-4.89Z"/>
    <path d="M674.45,453.85c0-1.66,1.3-2.94,2.92-2.94s2.96,1.28,2.96,2.94-1.3,2.92-2.96,2.92-2.92-1.28-2.92-2.92Z"/>
    <path d="M689.31,449.38l3.86,10.04,3.86-10.04h1.55l-4.6,11.46h-1.66l-4.6-11.46h1.57Z"/>
    <path d="M700.26,446.12c0-.63.48-1.07,1.07-1.07s1.07.44,1.07,1.07-.48,1.09-1.07,1.09-1.07-.46-1.07-1.09ZM700.59,449.38h1.47v11.46h-1.47v-11.46Z"/>
    <path d="M704.73,457.61h1.51c.13,1.26,1.22,2.16,3.09,2.16,1.64,0,2.56-.88,2.56-1.97,0-2.83-6.89-1.18-6.89-5.48,0-1.7,1.62-3.11,4.03-3.11s4.07,1.3,4.2,3.51h-1.47c-.08-1.28-1.03-2.25-2.77-2.25-1.53,0-2.5.82-2.5,1.83,0,3.11,6.78,1.45,6.84,5.5,0,1.85-1.62,3.21-3.99,3.21-2.6,0-4.43-1.3-4.62-3.4Z"/>
    <path d="M717.45,455.9c0,2.54,1.39,3.84,3.49,3.84s3.63-1.34,3.63-4.14v-6.24h1.47v11.46h-1.47v-2.02c-.69,1.45-2.21,2.2-3.91,2.2-2.6,0-4.66-1.6-4.66-4.96v-6.7h1.45v6.53Z"/>
    <path d="M734.21,449.21c2.31,0,3.88,1.24,4.54,2.69v-2.52h1.47v11.46h-1.47v-2.54c-.67,1.47-2.27,2.71-4.56,2.71-3.13,0-5.46-2.33-5.46-5.92s2.33-5.88,5.48-5.88ZM734.48,450.49c-2.41,0-4.26,1.68-4.26,4.6s1.85,4.64,4.26,4.64,4.26-1.76,4.26-4.62-1.91-4.62-4.26-4.62Z"/>
    <path d="M743.58,445.3h1.47v15.54h-1.47v-15.54Z"/>
    <path d="M759.1,461.01c-3.25,0-5.63-2.27-5.63-5.9s2.33-5.9,5.63-5.9,5.42,2.39,5.42,5.31c0,.46,0,.76-.04,1.15h-9.51c.13,2.69,2,4.09,4.14,4.09,1.95,0,3.28-1.03,3.7-2.56h1.55c-.52,2.16-2.37,3.8-5.25,3.8ZM754.96,454.48h8.06c.06-2.67-1.87-4.01-3.99-4.01s-3.91,1.34-4.07,4.01Z"/>
    <path d="M767.58,450.61h-1.6v-1.24h1.6v-.8c0-2.46,1.15-3.63,4.05-3.63v1.26c-1.95,0-2.58.71-2.58,2.37v.8h2.67v1.24h-2.67v10.23h-1.47v-10.23Z"/>
    <path d="M774.41,450.61h-1.6v-1.24h1.6v-.8c0-2.46,1.16-3.63,4.05-3.63v1.26c-1.95,0-2.58.71-2.58,2.37v.8h2.67v1.24h-2.67v10.23h-1.47v-10.23Z"/>
    <path d="M785.81,461.01c-3.25,0-5.63-2.27-5.63-5.9s2.33-5.9,5.63-5.9,5.42,2.39,5.42,5.31c0,.46,0,.76-.04,1.15h-9.51c.12,2.69,1.99,4.09,4.14,4.09,1.95,0,3.28-1.03,3.7-2.56h1.55c-.53,2.16-2.37,3.8-5.25,3.8ZM781.67,454.48h8.06c.06-2.67-1.87-4.01-3.99-4.01s-3.9,1.34-4.07,4.01Z"/>
    <path d="M798.81,449.21c2.88,0,4.74,1.53,5.27,3.91h-1.57c-.38-1.64-1.76-2.65-3.7-2.65-2.25,0-4.07,1.53-4.07,4.64s1.83,4.66,4.07,4.66c1.93,0,3.3-.99,3.7-2.67h1.57c-.53,2.29-2.39,3.91-5.27,3.91-3.23,0-5.56-2.27-5.56-5.9s2.33-5.9,5.56-5.9Z"/>
    <path d="M807.21,450.61h-1.6v-1.24h1.6v-2.88h1.49v2.88h3.15v1.24h-3.15v7.12c0,1.41.48,1.85,1.81,1.85h1.34v1.26h-1.58c-2,0-3.07-.82-3.07-3.11v-7.12Z"/>
    <path d="M813.59,457.61h1.51c.13,1.26,1.22,2.16,3.09,2.16,1.64,0,2.56-.88,2.56-1.97,0-2.83-6.89-1.18-6.89-5.48,0-1.7,1.62-3.11,4.03-3.11s4.07,1.3,4.2,3.51h-1.47c-.08-1.28-1.03-2.25-2.77-2.25-1.53,0-2.5.82-2.5,1.83,0,3.11,6.78,1.45,6.84,5.5,0,1.85-1.62,3.21-3.99,3.21-2.6,0-4.43-1.3-4.62-3.4Z"/>
    <path d="M834.25,446.18c3.53,0,5.29,2.04,5.29,4.49,0,1.78-.99,3.59-3.34,4.22l3.51,5.94h-3.4l-3.23-5.71h-1.39v5.71h-2.94v-14.66h5.5ZM834.15,448.62h-2.46v4.3h2.46c1.64,0,2.37-.86,2.37-2.18s-.74-2.12-2.37-2.12Z"/>
    <path d="M842.21,446.18h2.94v14.66h-2.94v-14.66Z"/>
    <path d="M854.77,445.99c3.25,0,5.9,1.74,6.89,4.75h-3.38c-.69-1.41-1.95-2.1-3.53-2.1-2.56,0-4.39,1.87-4.39,4.85s1.83,4.85,4.39,4.85c1.58,0,2.83-.69,3.53-2.12h3.38c-.99,3.02-3.63,4.75-6.89,4.75-4.22,0-7.43-3.09-7.43-7.47s3.21-7.5,7.43-7.5Z"/>
    <path d="M871.97,446.16l5.27,14.68h-3.11l-.96-2.79h-5.84l-.96,2.79h-3.09l5.27-14.68h3.42ZM872.37,455.7l-2.12-6.13-2.12,6.13h4.24Z"/>
    <path d="M884.72,446.18c3.53,0,5.29,2.04,5.29,4.49,0,1.78-.99,3.59-3.34,4.22l3.51,5.94h-3.4l-3.23-5.71h-1.39v5.71h-2.94v-14.66h5.5ZM884.61,448.62h-2.46v4.3h2.46c1.64,0,2.37-.86,2.37-2.18s-.74-2.12-2.37-2.12Z"/>
    <path d="M905.53,453.53c0,4.43-3.04,7.31-7.73,7.31h-5.12v-14.66h5.12c4.68,0,7.73,2.9,7.73,7.35ZM897.69,458.34c3.09,0,4.83-1.76,4.83-4.81s-1.74-4.87-4.83-4.87h-2.08v9.68h2.08Z"/>
    <path d="M907.02,453.47c0-4.39,3.38-7.5,7.52-7.5s7.5,3.11,7.5,7.5-3.34,7.52-7.5,7.52-7.52-3.11-7.52-7.52ZM919.01,453.47c0-2.98-1.83-4.85-4.47-4.85s-4.49,1.87-4.49,4.85,1.83,4.89,4.49,4.89,4.47-1.91,4.47-4.89Z"/>
    <path d="M929.21,446.18h9.05v2.37h-6.11v3.76h4.68v2.33h-4.68v6.19h-2.94v-14.66Z"/>
    <path d="M948.85,448.56h-5.56v3.67h4.93v2.33h-4.93v3.88h5.56v2.39h-8.5v-14.68h8.5v2.39Z"/>
    <path d="M957.02,446.18c3.53,0,5.29,2.04,5.29,4.49,0,1.78-.99,3.59-3.34,4.22l3.51,5.94h-3.4l-3.23-5.71h-1.38v5.71h-2.94v-14.66h5.5ZM956.91,448.62h-2.46v4.3h2.46c1.64,0,2.37-.86,2.37-2.18s-.73-2.12-2.37-2.12Z"/>
    <path d="M970.48,446.18c3.53,0,5.29,2.04,5.29,4.49,0,1.78-.99,3.59-3.34,4.22l3.51,5.94h-3.4l-3.23-5.71h-1.38v5.71h-2.94v-14.66h5.5ZM970.37,448.62h-2.46v4.3h2.46c1.64,0,2.37-.86,2.37-2.18s-.73-2.12-2.37-2.12Z"/>
    <path d="M986.94,448.56h-5.56v3.67h4.93v2.33h-4.93v3.88h5.56v2.39h-8.5v-14.68h8.5v2.39Z"/>
    <path d="M989.61,446.18h2.94v14.66h-2.94v-14.66Z"/>
    <path d="M1000.95,446.18c3.53,0,5.29,2.04,5.29,4.49,0,1.78-.99,3.59-3.34,4.22l3.51,5.94h-3.4l-3.23-5.71h-1.38v5.71h-2.94v-14.66h5.5ZM1000.84,448.62h-2.46v4.3h2.46c1.64,0,2.37-.86,2.37-2.18s-.73-2.12-2.37-2.12Z"/>
    <path d="M1016.7,446.16l5.27,14.68h-3.11l-.96-2.79h-5.84l-.96,2.79h-3.09l5.27-14.68h3.42ZM1017.1,455.7l-2.12-6.13-2.12,6.13h4.24Z"/>
    <path d="M1033.98,449.21c2.31,0,3.88,1.24,4.54,2.69v-2.52h1.47v11.46h-1.47v-2.54c-.67,1.47-2.27,2.71-4.56,2.71-3.13,0-5.46-2.33-5.46-5.92s2.33-5.88,5.48-5.88ZM1034.26,450.49c-2.41,0-4.26,1.68-4.26,4.6s1.85,4.64,4.26,4.64,4.26-1.76,4.26-4.62-1.91-4.62-4.26-4.62Z"/>
    <path d="M1043.35,449.38h1.47v1.95c.74-1.43,2.2-2.16,3.91-2.16,2.6,0,4.66,1.6,4.66,4.96v6.72h-1.45v-6.55c0-2.54-1.39-3.84-3.49-3.84s-3.63,1.34-3.63,4.14v6.26h-1.47v-11.46Z"/>
    <path d="M1061.47,449.21c2.06,0,3.78,1.13,4.51,2.65v-6.55h1.47v15.54h-1.47v-2.56c-.67,1.51-2.27,2.73-4.54,2.73-3.15,0-5.48-2.33-5.48-5.92s2.33-5.88,5.5-5.88ZM1061.72,450.49c-2.42,0-4.26,1.68-4.26,4.6s1.85,4.64,4.26,4.64,4.26-1.76,4.26-4.62-1.91-4.62-4.26-4.62Z"/>
    <path d="M1081.93,446.18h2.96v10.29c0,2.9-1.85,4.51-4.56,4.51s-4.68-1.66-4.68-4.62h2.94c.02,1.24.59,1.99,1.7,1.99s1.64-.73,1.64-1.89v-10.29Z"/>
    <path d="M1087.6,453.47c0-4.39,3.38-7.5,7.52-7.5s7.5,3.11,7.5,7.5-3.34,7.52-7.5,7.52-7.52-3.11-7.52-7.52ZM1099.58,453.47c0-2.98-1.83-4.85-4.47-4.85s-4.49,1.87-4.49,4.85,1.83,4.89,4.49,4.89,4.47-1.91,4.47-4.89Z"/>
    <path d="M1104.42,456.62h3.15c.08,1.18.86,1.95,2.22,1.95s2.21-.74,2.21-1.78c0-3.17-7.56-1.26-7.54-6.57,0-2.65,2.14-4.24,5.16-4.24s5.06,1.53,5.25,4.18h-3.23c-.06-.97-.84-1.72-2.1-1.74-1.15-.04-2.02.52-2.02,1.72,0,2.94,7.52,1.3,7.52,6.47,0,2.31-1.85,4.39-5.19,4.39-3.04,0-5.4-1.6-5.44-4.37Z"/>
    <path d="M1126.09,448.56h-5.56v3.67h4.93v2.33h-4.93v3.88h5.56v2.39h-8.5v-14.68h8.5v2.39ZM1124.03,440.75v2.37l-4.83,2.23v-2.1l4.83-2.5Z"/>
    <path d="M1136.69,446.18v12.32h4.83v2.33h-7.77v-14.66h2.94Z"/>
    <path d="M1143.35,446.18h2.94v9.07c0,2.02,1.09,3.07,2.96,3.07s2.98-1.05,2.98-3.07v-9.07h2.96v9.05c0,3.86-2.77,5.75-5.98,5.75s-5.86-1.89-5.86-5.75v-9.05Z"/>
    <path d="M1161.79,440.75v2.37l-4.83,2.23v-2.1l4.83-2.5ZM1158.03,446.18h2.94v14.66h-2.94v-14.66Z"/>
    <path d="M1163.49,456.62h3.15c.08,1.18.86,1.95,2.22,1.95s2.21-.74,2.21-1.78c0-3.17-7.56-1.26-7.54-6.57,0-2.65,2.14-4.24,5.16-4.24s5.06,1.53,5.25,4.18h-3.23c-.06-.97-.84-1.72-2.1-1.74-1.15-.04-2.02.52-2.02,1.72,0,2.94,7.52,1.3,7.52,6.47,0,2.31-1.85,4.39-5.19,4.39-3.04,0-5.4-1.6-5.44-4.37Z"/>
    <path d="M1181.65,446.18h3.34l4.66,10.9,4.66-10.9h3.32v14.66h-2.94v-9.53l-3.93,9.53h-2.22l-3.95-9.53v9.53h-2.94v-14.66Z"/>
    <path d="M1208.32,446.16l5.27,14.68h-3.11l-.96-2.79h-5.84l-.96,2.79h-3.09l5.27-14.68h3.42ZM1208.72,455.7l-2.12-6.13-2.12,6.13h4.24Z"/>
    <path d="M1214.79,446.18h10.75v2.37h-3.91v12.28h-2.94v-12.28h-3.91v-2.37Z"/>
    <path d="M1226.97,453.47c0-4.39,3.38-7.5,7.52-7.5s7.5,3.11,7.5,7.5-3.34,7.52-7.5,7.52-7.52-3.11-7.52-7.52ZM1238.96,453.47c0-2.98-1.83-4.85-4.47-4.85s-4.49,1.87-4.49,4.85,1.83,4.89,4.49,4.89,4.47-1.91,4.47-4.89Z"/>
    <path d="M1243.79,456.62h3.15c.08,1.18.86,1.95,2.23,1.95s2.2-.74,2.2-1.78c0-3.17-7.56-1.26-7.54-6.57,0-2.65,2.14-4.24,5.17-4.24s5.06,1.53,5.25,4.18h-3.23c-.06-.97-.84-1.72-2.1-1.74-1.16-.04-2.02.52-2.02,1.72,0,2.94,7.52,1.3,7.52,6.47,0,2.31-1.85,4.39-5.19,4.39-3.04,0-5.4-1.6-5.44-4.37Z"/>
    <path d="M1262.61,453.85c0-1.66,1.3-2.94,2.92-2.94s2.96,1.28,2.96,2.94-1.3,2.92-2.96,2.92-2.92-1.28-2.92-2.92Z"/>
    <path d="M1286.61,451.87v-2.5h1.47v11.76c0,3.21-2.21,5.33-5.35,5.33-2.96,0-5.02-1.51-5.48-3.91h1.45c.48,1.55,1.93,2.62,4.03,2.62s3.88-1.45,3.88-4.05v-2.83c-.67,1.47-2.27,2.71-4.54,2.71-3.15,0-5.48-2.33-5.48-5.92s2.33-5.88,5.48-5.88c2.27,0,3.88,1.22,4.54,2.67ZM1282.35,450.49c-2.41,0-4.26,1.68-4.26,4.6s1.85,4.64,4.26,4.64,4.26-1.76,4.26-4.62-1.91-4.62-4.26-4.62Z"/>
    <path d="M1291.44,449.38h1.47v2.04c.63-1.41,1.95-2.25,3.93-2.25v1.53h-.4c-1.91,0-3.53.86-3.53,3.74v6.4h-1.47v-11.46Z"/>
    <path d="M1303.85,449.21c2.31,0,3.88,1.24,4.54,2.69v-2.52h1.47v11.46h-1.47v-2.54c-.67,1.47-2.27,2.71-4.56,2.71-3.13,0-5.46-2.33-5.46-5.92s2.33-5.88,5.48-5.88ZM1304.12,450.49c-2.42,0-4.26,1.68-4.26,4.6s1.85,4.64,4.26,4.64,4.26-1.76,4.26-4.62-1.91-4.62-4.26-4.62Z"/>
    <path d="M1319.22,449.21c3.13,0,5.46,2.29,5.46,5.88s-2.33,5.92-5.46,5.92c-2.29,0-3.88-1.26-4.56-2.69v7.94h-1.45v-16.88h1.45v2.52c.67-1.45,2.27-2.69,4.56-2.69ZM1318.93,450.49c-2.33,0-4.26,1.76-4.26,4.62s1.93,4.62,4.26,4.62,4.26-1.74,4.26-4.64-1.85-4.6-4.26-4.6Z"/>
    <path d="M1327.39,445.3h1.47v6.03c.74-1.41,2.25-2.16,3.99-2.16,2.54,0,4.58,1.6,4.58,4.96v6.72h-1.45v-6.55c0-2.54-1.39-3.84-3.49-3.84s-3.63,1.34-3.63,4.14v6.26h-1.47v-15.54Z"/>
    <path d="M1340.35,446.12c0-.63.48-1.07,1.07-1.07s1.07.44,1.07,1.07-.48,1.09-1.07,1.09-1.07-.46-1.07-1.09ZM1340.69,449.38h1.47v11.46h-1.47v-11.46Z"/>
    <path d="M1350.39,449.21c2.88,0,4.74,1.53,5.27,3.91h-1.57c-.38-1.64-1.76-2.65-3.7-2.65-2.25,0-4.07,1.53-4.07,4.64s1.83,4.66,4.07,4.66c1.93,0,3.3-.99,3.7-2.67h1.57c-.53,2.29-2.39,3.91-5.27,3.91-3.23,0-5.56-2.27-5.56-5.9s2.33-5.9,5.56-5.9Z"/>
    <path d="M1368.95,449.21c2.06,0,3.78,1.13,4.51,2.65v-6.55h1.47v15.54h-1.47v-2.56c-.67,1.51-2.27,2.73-4.54,2.73-3.15,0-5.48-2.33-5.48-5.92s2.33-5.88,5.5-5.88ZM1369.2,450.49c-2.42,0-4.26,1.68-4.26,4.6s1.85,4.64,4.26,4.64,4.26-1.76,4.26-4.62-1.91-4.62-4.26-4.62Z"/>
    <path d="M1383.25,461.01c-3.25,0-5.63-2.27-5.63-5.9s2.33-5.9,5.63-5.9,5.42,2.39,5.42,5.31c0,.46,0,.76-.04,1.15h-9.51c.12,2.69,1.99,4.09,4.14,4.09,1.95,0,3.28-1.03,3.7-2.56h1.55c-.53,2.16-2.37,3.8-5.25,3.8ZM1379.12,454.48h8.06c.06-2.67-1.87-4.01-3.99-4.01s-3.9,1.34-4.07,4.01Z"/>
    <path d="M1390.69,457.61h1.51c.13,1.26,1.22,2.16,3.09,2.16,1.64,0,2.56-.88,2.56-1.97,0-2.83-6.89-1.18-6.89-5.48,0-1.7,1.62-3.11,4.03-3.11s4.07,1.3,4.2,3.51h-1.47c-.08-1.28-1.03-2.25-2.77-2.25-1.53,0-2.5.82-2.5,1.83,0,3.11,6.78,1.45,6.84,5.5,0,1.85-1.62,3.21-3.99,3.21-2.6,0-4.43-1.3-4.62-3.4Z"/>
    <path d="M1401.73,446.12c0-.63.48-1.07,1.07-1.07s1.07.44,1.07,1.07-.48,1.09-1.07,1.09-1.07-.46-1.07-1.09ZM1402.07,449.38h1.47v11.46h-1.47v-11.46Z"/>
    <path d="M1416.22,451.87v-2.5h1.47v11.76c0,3.21-2.21,5.33-5.35,5.33-2.96,0-5.02-1.51-5.48-3.91h1.45c.48,1.55,1.93,2.62,4.03,2.62s3.88-1.45,3.88-4.05v-2.83c-.67,1.47-2.27,2.71-4.54,2.71-3.15,0-5.48-2.33-5.48-5.92s2.33-5.88,5.48-5.88c2.27,0,3.88,1.22,4.54,2.67ZM1411.96,450.49c-2.41,0-4.26,1.68-4.26,4.6s1.85,4.64,4.26,4.64,4.26-1.76,4.26-4.62-1.91-4.62-4.26-4.62Z"/>
    <path d="M1421.05,449.38h1.47v1.95c.74-1.43,2.2-2.16,3.91-2.16,2.6,0,4.66,1.6,4.66,4.96v6.72h-1.45v-6.55c0-2.54-1.39-3.84-3.49-3.84s-3.63,1.34-3.63,4.14v6.26h-1.47v-11.46Z"/>
    <path d="M1443.62,446.18c3.53,0,5.29,2.04,5.29,4.49,0,1.78-.99,3.59-3.34,4.22l3.51,5.94h-3.4l-3.23-5.71h-1.39v5.71h-2.94v-14.66h5.5ZM1443.52,448.62h-2.46v4.3h2.46c1.64,0,2.37-.86,2.37-2.18s-.74-2.12-2.37-2.12Z"/>
    <path d="M1451.58,446.18h2.94v14.66h-2.94v-14.66Z"/>
    <path d="M1456.65,446.18h10.75v2.37h-3.91v12.28h-2.94v-12.28h-3.91v-2.37Z"/>
    <path d="M1477.33,446.16l5.27,14.68h-3.11l-.97-2.79h-5.84l-.97,2.79h-3.09l5.27-14.68h3.42ZM1477.73,455.7l-2.12-6.13-2.12,6.13h4.24Z"/>
    <path d="M1502.42,453.53c0,4.43-3.04,7.31-7.73,7.31h-5.12v-14.66h5.12c4.68,0,7.73,2.9,7.73,7.35ZM1494.59,458.34c3.09,0,4.83-1.76,4.83-4.81s-1.74-4.87-4.83-4.87h-2.08v9.68h2.08Z"/>
    <path d="M1512.42,446.16l5.27,14.68h-3.11l-.96-2.79h-5.84l-.96,2.79h-3.09l5.27-14.68h3.42ZM1512.82,455.7l-2.12-6.13-2.12,6.13h4.24Z"/>
    <path d="M1531.38,445.99c3.25,0,5.9,1.74,6.89,4.75h-3.38c-.69-1.41-1.95-2.1-3.53-2.1-2.56,0-4.39,1.87-4.39,4.85s1.83,4.85,4.39,4.85c1.58,0,2.83-.69,3.53-2.12h3.38c-.99,3.02-3.63,4.75-6.89,4.75-4.22,0-7.43-3.09-7.43-7.47s3.21-7.5,7.43-7.5Z"/>
    <path d="M1546.29,446.18c3.53,0,5.29,2.04,5.29,4.49,0,1.78-.99,3.59-3.34,4.22l3.51,5.94h-3.4l-3.23-5.71h-1.38v5.71h-2.94v-14.66h5.5ZM1546.19,448.62h-2.46v4.3h2.46c1.64,0,2.37-.86,2.37-2.18s-.73-2.12-2.37-2.12Z"/>
    <path d="M1554.21,446.18h2.94v9.07c0,2.02,1.09,3.07,2.96,3.07s2.98-1.05,2.98-3.07v-9.07h2.96v9.05c0,3.86-2.77,5.75-5.98,5.75s-5.86-1.89-5.86-5.75v-9.05Z"/>
    <path d="M1578.49,448.45l-6.59,9.91h6.59v2.48h-9.99v-2.27l6.55-9.91h-6.55v-2.48h9.99v2.27Z"/>
    <path d="M1585.21,446.18h10.75v2.37h-3.91v12.28h-2.94v-12.28h-3.91v-2.37Z"/>
    <path d="M1605.89,446.16l5.27,14.68h-3.11l-.96-2.79h-5.84l-.96,2.79h-3.09l5.27-14.68h3.42ZM1606.29,455.7l-2.12-6.13-2.12,6.13h4.24Z"/>
    <path d="M1623.17,446.18h3.13l-5.38,14.66h-3.57l-5.38-14.66h3.15l4.03,11.65,4.01-11.65Z"/>
    <path d="M1635.86,446.16l5.27,14.68h-3.11l-.96-2.79h-5.84l-.96,2.79h-3.09l5.27-14.68h3.42ZM1636.26,455.7l-2.12-6.13-2.12,6.13h4.24Z"/>
    <path d="M1648.61,446.18c3.53,0,5.29,2.04,5.29,4.49,0,1.78-.99,3.59-3.34,4.22l3.51,5.94h-3.4l-3.23-5.71h-1.39v5.71h-2.94v-14.66h5.5ZM1648.5,448.62h-2.46v4.3h2.46c1.64,0,2.37-.86,2.37-2.18s-.74-2.12-2.37-2.12Z"/>
    <path d="M1665.07,448.56h-5.56v3.67h4.93v2.33h-4.93v3.88h5.56v2.39h-8.5v-14.68h8.5v2.39Z"/>
    <path d="M1667.36,456.62h3.15c.08,1.18.86,1.95,2.23,1.95s2.2-.74,2.2-1.78c0-3.17-7.56-1.26-7.54-6.57,0-2.65,2.14-4.24,5.17-4.24s5.06,1.53,5.25,4.18h-3.23c-.06-.97-.84-1.72-2.1-1.74-1.16-.04-2.02.52-2.02,1.72,0,2.94,7.52,1.3,7.52,6.47,0,2.31-1.85,4.39-5.19,4.39-3.04,0-5.4-1.6-5.44-4.37Z"/>
  </g>
</svg>