<?xml version="1.0" encoding="UTF-8"?>
<svg id="Camada_1" data-name="Camada 1" xmlns="http://www.w3.org/2000/svg" viewBox="0 0 1920 1080">
  <g>
    <path d="M389.14,379.91c0-55.4,42.97-93.23,98.64-93.23s98.64,37.83,98.64,93.23-42.97,93.23-98.64,93.23-98.64-37.83-98.64-93.23M531.02,379.91c0-25.13-17.02-45.13-43.24-45.13s-43.23,20-43.23,45.13,17.02,45.13,43.23,45.13,43.24-20,43.24-45.13"/>
    <path d="M705.03,469.9l-24.86-56.75h-19.73v56.75h-54.59v-180.25h96.21c42.15,0,64.86,28.11,64.86,61.88,0,31.08-18.11,47.56-32.43,54.59l32.7,63.78h-62.15ZM711.51,351.26c0-9.73-8.64-14.05-17.84-14.05h-33.24v28.37h33.24c9.19,0,17.84-4.32,17.84-14.32"/>
    <path d="M909.31,469.9l-6.49-21.08h-64.86l-6.49,21.08h-61.88l66.48-180.24h68.64l66.48,180.24h-61.88ZM870.39,343.16l-17.84,58.1h35.67l-17.84-58.1Z"/>
    <path d="M238.9,682.95v-180.24h80.54c56.75,0,98.9,32.43,98.9,89.99s-42.15,90.26-98.64,90.26h-80.8ZM362.94,592.69c0-24.32-14.06-42.43-43.24-42.43h-26.21v85.12h25.95c27.29,0,43.51-20,43.51-42.7"/>
    <path d="M549.93,682.95l-6.49-21.08h-64.86l-6.49,21.08h-61.88l66.47-180.24h68.64l66.48,180.24h-61.88ZM511.01,556.21l-17.83,58.1h35.67l-17.84-58.1Z"/>
    <path d="M690.42,682.95v-180.24h109.44c37.29,0,53.51,24.86,53.51,45.94,0,22.43-13.24,37.56-30.8,41.34,19.45,2.97,34.32,20.81,34.32,44.05,0,25.13-17.03,48.91-53.24,48.91h-113.23ZM797.98,558.37c0-6.22-5.14-10.27-10.81-10.27h-42.16v21.08h42.16c5.67,0,10.81-4.32,10.81-10.81M801.49,626.2c0-6.49-4.86-11.62-12.7-11.62h-43.78v22.97h43.78c7.84,0,12.7-4.6,12.7-11.35"/>
    <path d="M869.04,592.96c0-55.4,42.97-93.23,98.64-93.23s98.63,37.83,98.63,93.23-42.97,93.23-98.63,93.23-98.64-37.83-98.64-93.23M1010.91,592.96c0-25.13-17.03-45.13-43.24-45.13s-43.24,20-43.24,45.13,17.02,45.13,43.24,45.13,43.24-20,43.24-45.13"/>
    <path d="M1085.74,608.91v-106.2h55.4v104.31c0,17.3,11.35,31.08,33.78,31.08s33.51-13.78,33.51-31.08v-104.31h55.4v105.93c0,44.86-28.11,77.56-88.91,77.56s-89.18-32.7-89.18-77.29"/>
    <path d="M1348.66,726.73l8.38-17.3c7.03,4.86,14.87,8.11,22.43,8.11,5.67,0,11.35-1.89,11.35-6.49,0-2.97-2.16-4.59-5.67-4.59-2.97,0-5.4,1.35-7.02,3.24l-15.95-9.19,5.67-15.4c-49.18-5.67-84.58-41.61-84.58-92.15,0-55.67,42.7-93.23,99.18-93.23,47.29,0,71.07,27.56,81.88,52.42l-47.02,21.89c-4.59-14.05-18.65-26.21-34.86-26.21-26.21,0-43.78,20-43.78,45.13s17.56,45.13,43.78,45.13c16.21,0,30.27-12.16,34.86-26.21l47.02,21.62c-10,22.97-32.43,50-75.67,52.43l-3.52,8.65c2.7-1.62,5.67-2.43,9.19-2.43,9.73,0,18.38,8.11,18.38,19.73,0,15.4-14.59,24.05-31.89,24.05-14.32,0-26.21-4.32-32.16-9.19"/>
    <path d="M1598.89,682.95l-6.49-21.08h-64.86l-6.49,21.08h-61.88l66.48-180.24h68.64l66.48,180.24h-61.88ZM1559.98,556.21l-17.84,58.1h35.67l-17.84-58.1Z"/>
    <polygon points="238.9 469.9 238.9 289.65 375.64 289.65 375.64 337.21 293.49 337.21 293.49 355.05 373.75 355.05 373.75 402.61 293.49 402.61 293.49 469.9 238.9 469.9"/>
  </g>
  <g>
    <g>
      <path d="M257.68,198.86v-2.74c-1.99,2.19-4.73,3.34-7.97,3.34-4.09,0-8.42-2.74-8.42-7.97s4.34-7.92,8.42-7.92c3.29,0,6.03,1.05,7.97,3.29v-4.34c0-3.24-2.59-5.08-6.08-5.08-2.89,0-5.23,1.05-7.38,3.34l-1.74-2.59c2.59-2.69,5.68-3.99,9.62-3.99,5.08,0,9.32,2.29,9.32,8.12v16.54h-3.74ZM257.68,193.78v-4.53c-1.44-1.99-3.99-2.99-6.63-2.99-3.49,0-5.93,2.19-5.93,5.28s2.44,5.23,5.93,5.23c2.64,0,5.18-1,6.63-2.99Z"/>
      <path d="M282.8,198.86v-20.78h-3.99v-3.29h3.99v-1.84c0-4.98,2.79-7.82,6.98-7.82,1.39,0,2.69.25,3.64.85l-.95,2.84c-.55-.35-1.2-.6-2.14-.6-2.44,0-3.79,1.7-3.79,4.73v1.84h4.88v3.29h-4.88v20.78h-3.74ZM295.21,168.86c0-1.4,1.15-2.54,2.49-2.54s2.54,1.15,2.54,2.54-1.15,2.49-2.54,2.49-2.49-1.1-2.49-2.49ZM295.86,198.86v-24.07h3.74v24.07h-3.74Z"/>
      <path d="M307.12,198.86v-33.24h3.74v33.24h-3.74Z"/>
      <path d="M347.39,198.86v-16.35c0-3.04-1.35-4.98-4.44-4.98-2.49,0-5.13,1.79-6.38,3.69v17.64h-3.74v-16.35c0-3.04-1.3-4.98-4.44-4.98-2.44,0-5.03,1.79-6.33,3.74v17.59h-3.74v-24.07h3.74v3.49c1-1.54,4.23-4.09,7.77-4.09s5.78,1.99,6.48,4.48c1.35-2.19,4.58-4.48,8.07-4.48,4.38,0,6.73,2.44,6.73,7.27v17.39h-3.74Z"/>
      <path d="M371.46,198.86v-33.24h3.74v12.81c1.94-2.64,4.83-4.24,8.12-4.24,6.28,0,10.71,4.98,10.71,12.66s-4.43,12.61-10.71,12.61c-3.39,0-6.33-1.74-8.12-4.19v3.59h-3.74ZM382.38,196.12c4.88,0,7.77-3.94,7.77-9.27s-2.89-9.32-7.77-9.32c-2.94,0-5.88,1.79-7.18,3.89v10.91c1.3,2.09,4.23,3.79,7.18,3.79Z"/>
      <path d="M399.37,204.89c.55.25,1.44.4,2.04.4,1.64,0,2.74-.55,3.59-2.54l1.6-3.64-10.07-24.32h4.04l8.02,19.73,7.97-19.73h4.09l-12.06,28.95c-1.45,3.49-3.89,4.83-7.08,4.88-.8,0-2.04-.15-2.74-.35l.6-3.39Z"/>
    </g>
    <g>
      <path d="M271.09,252.63v-23.97l-9.37,23.97h-3.09l-9.37-23.97v23.97h-7.08v-33.24h9.92l8.07,20.78,8.07-20.78h9.97v33.24h-7.13Z"/>
      <path d="M307.77,252.63l-2.09-5.63h-14.25l-2.09,5.63h-8.02l12.81-33.24h8.87l12.81,33.24h-8.02ZM298.55,226.47l-5.18,14.3h10.37l-5.18-14.3ZM298.95,216.36h-4.44l6.68-7.18h5.83l-8.07,7.18Z"/>
      <path d="M337.67,252.63l-6.53-11.81h-5.18v11.81h-7.08v-33.24h15.55c6.93,0,11.21,4.54,11.21,10.71,0,5.83-3.74,9.02-7.32,9.87l7.52,12.66h-8.17ZM338.37,230.06c0-2.74-2.14-4.44-4.93-4.44h-7.47v8.97h7.47c2.79,0,4.93-1.69,4.93-4.53Z"/>
      <path d="M350.93,252.63v-33.24h7.07v33.24h-7.07Z"/>
      <path d="M362.99,236.04c0-10.02,7.33-17.19,17.39-17.19s17.34,7.18,17.34,17.19-7.33,17.19-17.34,17.19-17.39-7.18-17.39-17.19ZM390.45,236.04c0-6.23-3.94-10.91-10.07-10.91s-10.12,4.68-10.12,10.91,3.94,10.91,10.12,10.91,10.07-4.73,10.07-10.91Z"/>
      <path d="M424.84,252.63l-12.81-33.24h8.02l9.22,25.51,9.22-25.51h8.02l-12.81,33.24h-8.87Z"/>
      <path d="M449.61,252.63v-33.24h23.52v6.23h-16.44v6.98h16.1v6.23h-16.1v7.57h16.44v6.23h-23.52Z"/>
      <path d="M478.36,252.63v-33.24h7.13v27.01h14.05v6.23h-21.18Z"/>
      <path d="M501.39,236.04c0-10.02,7.32-17.19,17.39-17.19s17.34,7.18,17.34,17.19-7.32,17.19-17.34,17.19-17.39-7.18-17.39-17.19ZM528.84,236.04c0-6.23-3.94-10.91-10.07-10.91s-10.12,4.68-10.12,10.91,3.94,10.91,10.12,10.91,10.07-4.73,10.07-10.91Z"/>
      <path d="M538.82,247.95l3.89-5.53c2.34,2.44,5.98,4.53,10.56,4.53,3.94,0,5.78-1.74,5.78-3.69,0-5.78-19.14-1.74-19.14-14.25,0-5.53,4.78-10.12,12.61-10.12,5.28,0,9.67,1.59,12.96,4.63l-3.94,5.28c-2.69-2.49-6.28-3.64-9.67-3.64-2.99,0-4.68,1.3-4.68,3.29,0,5.23,19.08,1.69,19.08,14.1,0,6.08-4.38,10.66-13.31,10.66-6.43,0-11.01-2.14-14.15-5.28Z"/>
      <path d="M569.41,236.04c0-10.02,7.33-17.19,17.39-17.19s17.34,7.18,17.34,17.19-7.33,17.19-17.34,17.19-17.39-7.18-17.39-17.19ZM596.87,236.04c0-6.23-3.94-10.91-10.07-10.91s-10.12,4.68-10.12,10.91,3.94,10.91,10.12,10.91,10.07-4.73,10.07-10.91Z"/>
    </g>
  </g>
  <g>
    <path d="M253.67,801.14l-3.77-11.62-3.77,11.62h-2.25l-4.62-14.47h2.34l3.54,11.54,3.8-11.54h1.92l3.81,11.54,3.53-11.54h2.34l-4.61,14.47h-2.25Z"/>
    <path d="M262.75,783.11c0-.84.69-1.53,1.5-1.53s1.53.69,1.53,1.53-.69,1.5-1.53,1.5-1.5-.66-1.5-1.5ZM263.14,801.14v-14.47h2.25v14.47h-2.25Z"/>
    <path d="M270.33,798.12v-9.47h-2.4v-1.98h2.4v-3.95h2.25v3.95h2.94v1.98h-2.94v8.99c0,1.08.48,1.86,1.47,1.86.63,0,1.23-.27,1.53-.6l.66,1.68c-.57.54-1.38.93-2.7.93-2.13,0-3.21-1.23-3.21-3.39Z"/>
    <path d="M288.48,801.14v-9.53c0-2.55-1.32-3.29-3.27-3.29-1.74,0-3.42,1.08-4.28,2.25v10.58h-2.25v-19.98h2.25v7.61c1.02-1.2,3-2.46,5.18-2.46,3.03,0,4.61,1.47,4.61,4.62v10.22h-2.25Z"/>
    <path d="M301.73,791.17c0-6.17,4.64-10.33,10.67-10.33,4.38,0,6.92,2.36,8.33,4.88l-3.66,1.8c-.84-1.62-2.64-2.91-4.67-2.91-3.66,0-6.29,2.79-6.29,6.56s2.64,6.56,6.29,6.56c2.04,0,3.83-1.29,4.67-2.91l3.66,1.77c-1.41,2.49-3.95,4.92-8.33,4.92-6.02,0-10.67-4.2-10.67-10.34Z"/>
    <path d="M337.08,801.14l-1.26-3.38h-8.57l-1.26,3.38h-4.82l7.7-19.98h5.33l7.7,19.98h-4.82ZM331.54,785.42l-3.12,8.6h6.23l-3.12-8.6Z"/>
    <path d="M348.38,801.14v-16.24h-5.84v-3.75h15.94v3.75h-5.81v16.24h-4.28Z"/>
    <path d="M375.01,801.14l-1.26-3.38h-8.57l-1.26,3.38h-4.82l7.7-19.98h5.33l7.7,19.98h-4.82ZM369.47,785.42l-3.12,8.6h6.23l-3.12-8.6Z"/>
    <path d="M392.99,801.14l-3.92-7.1h-3.12v7.1h-4.25v-19.98h9.35c4.16,0,6.74,2.73,6.74,6.44,0,3.51-2.25,5.42-4.4,5.93l4.52,7.61h-4.91ZM393.41,787.57c0-1.65-1.29-2.67-2.96-2.67h-4.49v5.39h4.49c1.68,0,2.96-1.02,2.96-2.73Z"/>
    <path d="M400.96,801.14v-19.98h4.25v19.98h-4.25Z"/>
    <path d="M422.95,801.14l-9.53-13.03v13.03h-4.25v-19.98h4.37l9.26,12.55v-12.55h4.25v19.98h-4.1Z"/>
    <path d="M444.82,801.14l-1.26-3.38h-8.57l-1.26,3.38h-4.82l7.7-19.98h5.33l7.7,19.98h-4.82ZM439.27,785.42l-3.12,8.6h6.23l-3.12-8.6Z"/>
    <path d="M476.57,801.14v-14.41l-5.63,14.41h-1.86l-5.63-14.41v14.41h-4.25v-19.98h5.96l4.85,12.49,4.86-12.49h5.99v19.98h-4.29Z"/>
    <path d="M483.86,791.17c0-6.02,4.4-10.33,10.46-10.33s10.43,4.31,10.43,10.33-4.4,10.34-10.43,10.34-10.46-4.31-10.46-10.34ZM500.36,791.17c0-3.75-2.37-6.56-6.05-6.56s-6.08,2.82-6.08,6.56,2.37,6.56,6.08,6.56,6.05-2.85,6.05-6.56Z"/>
    <path d="M521.52,801.14l-9.53-13.03v13.03h-4.25v-19.98h4.37l9.26,12.55v-12.55h4.25v19.98h-4.1Z"/>
    <path d="M534.19,801.14v-16.24h-5.84v-3.75h15.94v3.75h-5.81v16.24h-4.28Z"/>
    <path d="M547.01,801.14v-19.98h14.14v3.75h-9.89v4.19h9.68v3.75h-9.68v4.55h9.89v3.75h-14.14Z"/>
    <path d="M564.48,801.14v-19.98h4.25v19.98h-4.25Z"/>
    <path d="M583.98,801.14l-3.92-7.1h-3.12v7.1h-4.25v-19.98h9.35c4.16,0,6.74,2.73,6.74,6.44,0,3.51-2.25,5.42-4.4,5.93l4.52,7.61h-4.91ZM584.4,787.57c0-1.65-1.29-2.67-2.96-2.67h-4.49v5.39h4.49c1.68,0,2.96-1.02,2.96-2.73Z"/>
    <path d="M590.99,791.17c0-6.02,4.4-10.33,10.46-10.33s10.43,4.31,10.43,10.33-4.4,10.34-10.43,10.34-10.46-4.31-10.46-10.34ZM607.5,791.17c0-3.75-2.37-6.56-6.05-6.56s-6.08,2.82-6.08,6.56,2.37,6.56,6.08,6.56,6.05-2.85,6.05-6.56Z"/>
    <path d="M631.89,801.14v-1.65c-1.2,1.32-2.85,2.01-4.79,2.01-2.46,0-5.06-1.65-5.06-4.79s2.61-4.76,5.06-4.76c1.98,0,3.62.63,4.79,1.98v-2.61c0-1.95-1.56-3.06-3.65-3.06-1.74,0-3.15.63-4.44,2.01l-1.05-1.56c1.56-1.62,3.42-2.4,5.78-2.4,3.06,0,5.6,1.38,5.6,4.88v9.95h-2.25ZM631.89,798.09v-2.73c-.87-1.2-2.4-1.8-3.98-1.8-2.1,0-3.57,1.32-3.57,3.18s1.47,3.15,3.57,3.15c1.59,0,3.12-.6,3.98-1.8Z"/>
    <path d="M648.4,801.14v-9.47c0-2.55-1.29-3.36-3.24-3.36-1.77,0-3.44,1.08-4.28,2.25v10.58h-2.25v-14.47h2.25v2.1c1.02-1.2,3-2.46,5.15-2.46,3.03,0,4.61,1.53,4.61,4.67v10.16h-2.25Z"/>
    <path d="M665.62,801.14v-2.16c-1.08,1.47-2.85,2.52-4.88,2.52-3.77,0-6.44-2.88-6.44-7.58s2.64-7.61,6.44-7.61c1.95,0,3.72.96,4.88,2.55v-7.7h2.25v19.98h-2.25ZM665.62,797.22v-6.56c-.81-1.26-2.55-2.34-4.34-2.34-2.91,0-4.64,2.4-4.64,5.6s1.74,5.57,4.64,5.57c1.8,0,3.53-1.02,4.34-2.28Z"/>
    <path d="M678.93,791.17c0-6.17,4.64-10.33,10.67-10.33,4.38,0,6.92,2.36,8.33,4.88l-3.66,1.8c-.84-1.62-2.64-2.91-4.67-2.91-3.66,0-6.29,2.79-6.29,6.56s2.64,6.56,6.29,6.56c2.04,0,3.83-1.29,4.67-2.91l3.66,1.77c-1.41,2.49-3.95,4.92-8.33,4.92-6.02,0-10.67-4.2-10.67-10.34Z"/>
    <path d="M714.28,801.14l-1.26-3.38h-8.57l-1.26,3.38h-4.82l7.7-19.98h5.33l7.7,19.98h-4.82ZM708.74,785.42l-3.12,8.6h6.23l-3.12-8.6Z"/>
    <path d="M725.58,801.14v-16.24h-5.84v-3.75h15.94v3.75h-5.81v16.24h-4.28Z"/>
    <path d="M752.21,801.14l-1.26-3.38h-8.57l-1.26,3.38h-4.82l7.7-19.98h5.33l7.7,19.98h-4.82ZM746.67,785.42l-3.12,8.6h6.23l-3.12-8.6Z"/>
    <path d="M770.19,801.14l-3.92-7.1h-3.12v7.1h-4.25v-19.98h9.35c4.16,0,6.74,2.73,6.74,6.44,0,3.51-2.25,5.42-4.4,5.93l4.52,7.61h-4.91ZM770.6,787.57c0-1.65-1.29-2.67-2.96-2.67h-4.49v5.39h4.49c1.68,0,2.96-1.02,2.96-2.73Z"/>
    <path d="M778.16,801.14v-19.98h4.25v19.98h-4.25Z"/>
    <path d="M800.14,801.14l-9.53-13.03v13.03h-4.25v-19.98h4.37l9.26,12.55v-12.55h4.25v19.98h-4.1Z"/>
    <path d="M822.01,801.14l-1.26-3.38h-8.57l-1.26,3.38h-4.82l7.7-19.98h5.33l7.7,19.98h-4.82ZM816.47,785.42l-3.12,8.6h6.23l-3.12-8.6Z"/>
    <path d="M835.44,791.17c0-6.17,4.64-10.33,10.67-10.33,4.38,0,6.92,2.36,8.33,4.88l-3.66,1.8c-.84-1.62-2.64-2.91-4.67-2.91-3.66,0-6.29,2.79-6.29,6.56s2.64,6.56,6.29,6.56c2.04,0,3.83-1.29,4.67-2.91l3.66,1.77c-1.41,2.49-3.95,4.92-8.33,4.92-6.02,0-10.67-4.2-10.67-10.34Z"/>
    <path d="M856.98,793.14v-11.98h4.31v11.86c0,2.79,1.62,4.7,4.7,4.7s4.67-1.92,4.67-4.7v-11.86h4.34v11.98c0,4.94-2.94,8.36-9.02,8.36s-9.02-3.42-9.02-8.36Z"/>
    <path d="M892.75,801.14l-9.53-13.03v13.03h-4.25v-19.98h4.37l9.26,12.55v-12.55h4.25v19.98h-4.1Z"/>
    <path d="M914.5,801.14v-8.42h-9.44v8.42h-4.25v-19.98h4.25v7.85h9.44v-7.85h4.28v19.98h-4.28Z"/>
    <path d="M936.52,801.14l-1.26-3.38h-8.57l-1.26,3.38h-4.82l7.7-19.98h5.33l7.7,19.98h-4.82ZM930.98,785.42l-3.12,8.6h6.23l-3.12-8.6Z"/>
    <path d="M950.9,801.14v-19.98h14.14v3.75h-9.89v4.19h9.68v3.75h-9.68v8.3h-4.25Z"/>
    <path d="M968.01,801.14v-19.98h14.14v3.75h-9.89v4.19h9.68v3.75h-9.68v4.55h9.89v3.75h-14.14Z"/>
    <path d="M996.77,801.14l-3.92-7.1h-3.12v7.1h-4.25v-19.98h9.35c4.16,0,6.74,2.73,6.74,6.44,0,3.51-2.25,5.42-4.4,5.93l4.52,7.61h-4.91ZM997.19,787.57c0-1.65-1.29-2.67-2.96-2.67h-4.49v5.39h4.49c1.68,0,2.96-1.02,2.96-2.73Z"/>
    <path d="M1016.04,801.14l-3.92-7.1h-3.12v7.1h-4.25v-19.98h9.35c4.16,0,6.74,2.73,6.74,6.44,0,3.51-2.25,5.42-4.4,5.93l4.52,7.61h-4.91ZM1016.46,787.57c0-1.65-1.29-2.67-2.96-2.67h-4.49v5.39h4.49c1.68,0,2.96-1.02,2.96-2.73Z"/>
    <path d="M1024.01,801.14v-19.98h14.14v3.75h-9.89v4.19h9.68v3.75h-9.68v4.55h9.89v3.75h-14.14Z"/>
    <path d="M1041.48,801.14v-19.98h4.25v19.98h-4.25Z"/>
    <path d="M1060.98,801.14l-3.92-7.1h-3.12v7.1h-4.25v-19.98h9.35c4.16,0,6.74,2.73,6.74,6.44,0,3.51-2.25,5.42-4.4,5.93l4.52,7.61h-4.91ZM1061.4,787.57c0-1.65-1.29-2.67-2.96-2.67h-4.49v5.39h4.49c1.68,0,2.96-1.02,2.96-2.73Z"/>
    <path d="M1082.76,801.14l-1.26-3.38h-8.57l-1.26,3.38h-4.82l7.7-19.98h5.33l7.7,19.98h-4.82ZM1077.22,785.42l-3.12,8.6h6.23l-3.12-8.6Z"/>
    <path d="M1100.56,794.46c-1.98,0-3.57-1.59-3.57-3.53s1.59-3.57,3.57-3.57,3.56,1.59,3.56,3.57-1.59,3.53-3.56,3.53Z"/>
    <path d="M1126.32,801.14v-2.16c-1.08,1.47-2.85,2.52-4.88,2.52-3.77,0-6.44-2.88-6.44-7.58s2.64-7.61,6.44-7.61c1.95,0,3.72.96,4.88,2.55v-7.7h2.25v19.98h-2.25ZM1126.32,797.22v-6.56c-.81-1.26-2.55-2.34-4.34-2.34-2.91,0-4.64,2.4-4.64,5.6s1.74,5.57,4.64,5.57c1.8,0,3.53-1.02,4.34-2.28Z"/>
    <path d="M1132.67,783.11c0-.84.69-1.53,1.5-1.53s1.53.69,1.53,1.53-.69,1.5-1.53,1.5-1.5-.66-1.5-1.5ZM1133.06,801.14v-14.47h2.25v14.47h-2.25Z"/>
    <path d="M1139.8,801.14v-14.47h2.25v2.34c1.17-1.53,2.85-2.64,4.82-2.64v2.31c-.27-.06-.54-.09-.9-.09-1.38,0-3.27,1.14-3.92,2.31v10.25h-2.25Z"/>
    <path d="M1148.85,793.89c0-4.19,3-7.58,7.13-7.58,4.38,0,6.95,3.42,6.95,7.76v.57h-11.72c.18,2.73,2.1,5,5.21,5,1.65,0,3.33-.66,4.46-1.83l1.08,1.47c-1.44,1.44-3.38,2.22-5.75,2.22-4.28,0-7.37-3.09-7.37-7.61ZM1155.95,788.17c-3.09,0-4.61,2.61-4.73,4.82h9.5c-.03-2.16-1.47-4.82-4.76-4.82Z"/>
    <path d="M1165.72,793.89c0-4.28,2.91-7.58,7.22-7.58,2.64,0,4.19,1.08,5.3,2.52l-1.5,1.38c-.96-1.32-2.19-1.89-3.68-1.89-3.09,0-5,2.37-5,5.57s1.92,5.6,5,5.6c1.5,0,2.73-.6,3.68-1.89l1.5,1.38c-1.11,1.44-2.67,2.52-5.3,2.52-4.31,0-7.22-3.3-7.22-7.61Z"/>
    <path d="M1181.84,798.12v-9.47h-2.4v-1.98h2.4v-3.95h2.25v3.95h2.94v1.98h-2.94v8.99c0,1.08.48,1.86,1.47,1.86.63,0,1.23-.27,1.53-.6l.66,1.68c-.57.54-1.38.93-2.7.93-2.13,0-3.21-1.23-3.21-3.39Z"/>
    <path d="M1189.81,783.11c0-.84.69-1.53,1.5-1.53s1.53.69,1.53,1.53-.69,1.5-1.53,1.5-1.5-.66-1.5-1.5ZM1190.2,801.14v-14.47h2.25v14.47h-2.25Z"/>
    <path d="M1206.71,801.14v-9.47c0-2.55-1.29-3.36-3.24-3.36-1.77,0-3.44,1.08-4.28,2.25v10.58h-2.25v-14.47h2.25v2.1c1.02-1.2,3-2.46,5.15-2.46,3.03,0,4.61,1.53,4.61,4.67v10.16h-2.25Z"/>
    <path d="M1213.42,804.86l1.14-1.68c1.2,1.44,2.64,1.98,4.7,1.98,2.4,0,4.64-1.17,4.64-4.34v-2.07c-1.05,1.47-2.81,2.58-4.85,2.58-3.77,0-6.44-2.81-6.44-7.49s2.64-7.52,6.44-7.52c1.95,0,3.68.96,4.85,2.55v-2.19h2.25v14.05c0,4.79-3.36,6.29-6.89,6.29-2.46,0-4.14-.48-5.84-2.16ZM1223.9,796.98v-6.32c-.78-1.26-2.52-2.34-4.31-2.34-2.91,0-4.64,2.31-4.64,5.51s1.74,5.51,4.64,5.51c1.8,0,3.53-1.11,4.31-2.37Z"/>
    <path d="M1247.42,801.14v-1.65c-1.2,1.32-2.85,2.01-4.79,2.01-2.46,0-5.06-1.65-5.06-4.79s2.61-4.76,5.06-4.76c1.98,0,3.62.63,4.79,1.98v-2.61c0-1.95-1.56-3.06-3.65-3.06-1.74,0-3.15.63-4.44,2.01l-1.05-1.56c1.56-1.62,3.42-2.4,5.78-2.4,3.06,0,5.6,1.38,5.6,4.88v9.95h-2.25ZM1247.42,798.09v-2.73c-.87-1.2-2.4-1.8-3.98-1.8-2.1,0-3.57,1.32-3.57,3.18s1.47,3.15,3.57,3.15c1.59,0,3.12-.6,3.98-1.8Z"/>
    <path d="M1263.93,801.14v-9.47c0-2.55-1.29-3.36-3.24-3.36-1.77,0-3.44,1.08-4.28,2.25v10.58h-2.25v-14.47h2.25v2.1c1.02-1.2,3-2.46,5.15-2.46,3.03,0,4.61,1.53,4.61,4.67v10.16h-2.25Z"/>
    <path d="M1281.16,801.14v-2.16c-1.08,1.47-2.85,2.52-4.88,2.52-3.77,0-6.44-2.88-6.44-7.58s2.64-7.61,6.44-7.61c1.95,0,3.72.96,4.88,2.55v-7.7h2.25v19.98h-2.25ZM1281.16,797.22v-6.56c-.81-1.26-2.55-2.34-4.34-2.34-2.91,0-4.64,2.4-4.64,5.6s1.74,5.57,4.64,5.57c1.8,0,3.53-1.02,4.34-2.28Z"/>
    <path d="M1297.88,798.96v7.7h-2.25v-19.98h2.25v2.16c1.05-1.47,2.85-2.52,4.88-2.52,3.81,0,6.44,2.88,6.44,7.58s-2.64,7.61-6.44,7.61c-1.98,0-3.71-.93-4.88-2.55ZM1306.83,793.89c0-3.21-1.74-5.57-4.64-5.57-1.77,0-3.54,1.05-4.31,2.31v6.53c.78,1.26,2.55,2.34,4.31,2.34,2.91,0,4.64-2.4,4.64-5.6Z"/>
    <path d="M1312.77,801.14v-14.47h2.25v2.34c1.17-1.53,2.85-2.64,4.82-2.64v2.31c-.27-.06-.54-.09-.9-.09-1.38,0-3.27,1.14-3.92,2.31v10.25h-2.25Z"/>
    <path d="M1321.82,793.89c0-4.19,2.76-7.58,7.16-7.58s7.16,3.39,7.16,7.58-2.76,7.61-7.16,7.61-7.16-3.42-7.16-7.61ZM1333.77,793.89c0-2.94-1.71-5.57-4.79-5.57s-4.82,2.64-4.82,5.57,1.74,5.6,4.82,5.6,4.79-2.64,4.79-5.6Z"/>
    <path d="M1350.28,801.14v-2.16c-1.08,1.47-2.85,2.52-4.88,2.52-3.77,0-6.44-2.88-6.44-7.58s2.64-7.61,6.44-7.61c1.95,0,3.72.96,4.88,2.55v-7.7h2.25v19.98h-2.25ZM1350.28,797.22v-6.56c-.81-1.26-2.55-2.34-4.34-2.34-2.91,0-4.64,2.4-4.64,5.6s1.74,5.57,4.64,5.57c1.8,0,3.53-1.02,4.34-2.28Z"/>
    <path d="M1366.79,801.14v-2.04c-1.11,1.26-3,2.4-5.15,2.4-3.03,0-4.61-1.47-4.61-4.62v-10.22h2.25v9.53c0,2.55,1.29,3.3,3.24,3.3,1.77,0,3.44-1.02,4.28-2.19v-10.64h2.25v14.47h-2.25Z"/>
    <path d="M1372.69,793.89c0-4.28,2.91-7.58,7.22-7.58,2.64,0,4.19,1.08,5.3,2.52l-1.5,1.38c-.96-1.32-2.19-1.89-3.68-1.89-3.09,0-5,2.37-5,5.57s1.92,5.6,5,5.6c1.5,0,2.73-.6,3.68-1.89l1.5,1.38c-1.11,1.44-2.67,2.52-5.3,2.52-4.31,0-7.22-3.3-7.22-7.61Z"/>
    <path d="M1388.81,798.12v-9.47h-2.4v-1.98h2.4v-3.95h2.25v3.95h2.94v1.98h-2.94v8.99c0,1.08.48,1.86,1.47,1.86.63,0,1.23-.27,1.53-.6l.66,1.68c-.57.54-1.38.93-2.7.93-2.13,0-3.21-1.23-3.21-3.39Z"/>
    <path d="M1396.78,783.11c0-.84.69-1.53,1.5-1.53s1.53.69,1.53,1.53-.69,1.5-1.53,1.5-1.5-.66-1.5-1.5ZM1397.17,801.14v-14.47h2.25v14.47h-2.25Z"/>
    <path d="M1403.07,793.89c0-4.19,2.76-7.58,7.16-7.58s7.16,3.39,7.16,7.58-2.76,7.61-7.16,7.61-7.16-3.42-7.16-7.61ZM1415.02,793.89c0-2.94-1.71-5.57-4.79-5.57s-4.82,2.64-4.82,5.57,1.74,5.6,4.82,5.6,4.79-2.64,4.79-5.6Z"/>
    <path d="M1430.81,801.14v-9.47c0-2.55-1.29-3.36-3.24-3.36-1.77,0-3.44,1.08-4.28,2.25v10.58h-2.25v-14.47h2.25v2.1c1.02-1.2,3-2.46,5.15-2.46,3.03,0,4.61,1.53,4.61,4.67v10.16h-2.25Z"/>
    <path d="M1462.39,801.14v-14.41l-5.63,14.41h-1.86l-5.63-14.41v14.41h-4.25v-19.98h5.96l4.85,12.49,4.86-12.49h5.99v19.98h-4.29Z"/>
    <path d="M1484.44,801.14l-1.26-3.38h-8.57l-1.26,3.38h-4.82l7.7-19.98h5.33l7.7,19.98h-4.82ZM1478.9,785.42l-3.12,8.6h6.23l-3.12-8.6ZM1479.14,779.33h-2.67l4.01-4.31h3.51l-4.85,4.31Z"/>
    <path d="M1502.42,801.14l-3.92-7.1h-3.12v7.1h-4.25v-19.98h9.35c4.16,0,6.74,2.73,6.74,6.44,0,3.51-2.25,5.42-4.4,5.93l4.52,7.61h-4.91ZM1502.84,787.57c0-1.65-1.29-2.67-2.96-2.67h-4.49v5.39h4.49c1.68,0,2.96-1.02,2.96-2.73Z"/>
    <path d="M1510.39,801.14v-19.98h4.25v19.98h-4.25Z"/>
    <path d="M1517.64,791.17c0-6.02,4.4-10.33,10.46-10.33s10.43,4.31,10.43,10.33-4.4,10.34-10.43,10.34-10.46-4.31-10.46-10.34ZM1534.15,791.17c0-3.75-2.37-6.56-6.05-6.56s-6.08,2.82-6.08,6.56,2.37,6.56,6.08,6.56,6.05-2.85,6.05-6.56Z"/>
    <path d="M1554.82,801.14l-7.7-19.98h4.82l5.54,15.34,5.54-15.34h4.82l-7.7,19.98h-5.33Z"/>
    <path d="M1569.71,801.14v-19.98h14.14v3.75h-9.89v4.19h9.68v3.75h-9.68v4.55h9.89v3.75h-14.14Z"/>
    <path d="M1587,801.14v-19.98h4.28v16.24h8.45v3.75h-12.73Z"/>
    <path d="M1601.65,791.17c0-6.02,4.4-10.33,10.46-10.33s10.43,4.31,10.43,10.33-4.4,10.34-10.43,10.34-10.46-4.31-10.46-10.34ZM1618.16,791.17c0-3.75-2.37-6.56-6.05-6.56s-6.08,2.82-6.08,6.56,2.37,6.56,6.08,6.56,6.05-2.85,6.05-6.56Z"/>
    <path d="M1624.15,798.33l2.34-3.33c1.41,1.47,3.59,2.73,6.35,2.73,2.37,0,3.48-1.05,3.48-2.22,0-3.48-11.5-1.05-11.5-8.57,0-3.32,2.88-6.08,7.58-6.08,3.18,0,5.81.96,7.79,2.79l-2.37,3.18c-1.62-1.5-3.77-2.19-5.81-2.19-1.8,0-2.81.78-2.81,1.98,0,3.14,11.47,1.02,11.47,8.48,0,3.66-2.64,6.41-8,6.41-3.86,0-6.62-1.29-8.51-3.18Z"/>
    <path d="M1642.54,791.17c0-6.02,4.4-10.33,10.46-10.33s10.43,4.31,10.43,10.33-4.4,10.34-10.43,10.34-10.46-4.31-10.46-10.34ZM1659.05,791.17c0-3.75-2.37-6.56-6.05-6.56s-6.08,2.82-6.08,6.56,2.37,6.56,6.08,6.56,6.05-2.85,6.05-6.56Z"/>
    <path d="M1677.54,794.46c-1.98,0-3.57-1.59-3.57-3.53s1.59-3.57,3.57-3.57,3.56,1.59,3.56,3.57-1.59,3.53-3.56,3.53Z"/>
    <path d="M240.31,829.85c0-4.28,2.91-7.58,7.22-7.58,2.64,0,4.19,1.08,5.3,2.52l-1.5,1.38c-.96-1.32-2.19-1.89-3.68-1.89-3.09,0-5,2.37-5,5.57s1.92,5.6,5,5.6c1.5,0,2.73-.6,3.68-1.89l1.5,1.38c-1.11,1.44-2.67,2.52-5.3,2.52-4.31,0-7.22-3.3-7.22-7.61Z"/>
    <path d="M255.59,819.06c0-.84.69-1.53,1.5-1.53s1.53.69,1.53,1.53-.69,1.5-1.53,1.5-1.5-.66-1.5-1.5ZM255.98,837.1v-14.47h2.25v14.47h-2.25Z"/>
    <path d="M272.49,837.1v-9.47c0-2.55-1.29-3.36-3.24-3.36-1.77,0-3.44,1.08-4.28,2.25v10.58h-2.25v-14.47h2.25v2.1c1.02-1.2,3-2.46,5.15-2.46,3.03,0,4.61,1.53,4.61,4.67v10.16h-2.25Z"/>
    <path d="M278.39,829.85c0-4.19,3-7.58,7.13-7.58,4.38,0,6.95,3.42,6.95,7.76v.57h-11.72c.18,2.73,2.1,5,5.21,5,1.65,0,3.33-.66,4.46-1.83l1.08,1.47c-1.44,1.44-3.38,2.22-5.75,2.22-4.28,0-7.37-3.09-7.37-7.61ZM285.49,824.12c-3.09,0-4.61,2.61-4.73,4.82h9.5c-.03-2.16-1.47-4.82-4.76-4.82Z"/>
    <path d="M313.56,837.1v-9.83c0-1.83-.81-3-2.67-3-1.5,0-3.09,1.08-3.83,2.22v10.61h-2.25v-9.83c0-1.83-.78-3-2.67-3-1.47,0-3.03,1.08-3.81,2.25v10.58h-2.25v-14.47h2.25v2.1c.6-.93,2.55-2.46,4.67-2.46s3.48,1.2,3.9,2.7c.81-1.32,2.76-2.7,4.85-2.7,2.64,0,4.04,1.47,4.04,4.37v10.46h-2.25Z"/>
    <path d="M329.35,837.1v-1.65c-1.2,1.32-2.85,2.01-4.79,2.01-2.46,0-5.06-1.65-5.06-4.79s2.61-4.76,5.06-4.76c1.98,0,3.62.63,4.79,1.98v-2.61c0-1.95-1.56-3.06-3.65-3.06-1.74,0-3.15.63-4.44,2.01l-1.05-1.56c1.56-1.62,3.42-2.4,5.78-2.4,3.06,0,5.6,1.38,5.6,4.88v9.95h-2.25ZM329.35,834.04v-2.73c-.87-1.2-2.4-1.8-3.98-1.8-2.1,0-3.57,1.32-3.57,3.18s1.47,3.15,3.57,3.15c1.59,0,3.12-.6,3.98-1.8Z"/>
    <path d="M336.54,834.07v-9.47h-2.4v-1.98h2.4v-3.95h2.25v3.95h2.94v1.98h-2.94v8.99c0,1.08.48,1.86,1.47,1.86.63,0,1.23-.27,1.53-.6l.66,1.68c-.57.54-1.38.93-2.7.93-2.13,0-3.21-1.23-3.21-3.39Z"/>
    <path d="M344.06,829.85c0-4.19,2.76-7.58,7.16-7.58s7.16,3.39,7.16,7.58-2.76,7.61-7.16,7.61-7.16-3.42-7.16-7.61ZM356.02,829.85c0-2.94-1.71-5.57-4.79-5.57s-4.82,2.64-4.82,5.57,1.74,5.6,4.82,5.6,4.79-2.64,4.79-5.6Z"/>
    <path d="M362.01,840.81l1.14-1.68c1.2,1.44,2.64,1.98,4.7,1.98,2.4,0,4.64-1.17,4.64-4.34v-2.07c-1.05,1.47-2.81,2.58-4.85,2.58-3.77,0-6.44-2.81-6.44-7.49s2.64-7.52,6.44-7.52c1.95,0,3.68.96,4.85,2.55v-2.19h2.25v14.05c0,4.79-3.36,6.29-6.89,6.29-2.46,0-4.14-.48-5.84-2.16ZM372.5,832.93v-6.32c-.78-1.26-2.52-2.34-4.31-2.34-2.91,0-4.64,2.31-4.64,5.51s1.74,5.51,4.64,5.51c1.8,0,3.53-1.11,4.31-2.37Z"/>
    <path d="M379.24,837.1v-14.47h2.25v2.34c1.17-1.53,2.85-2.64,4.82-2.64v2.31c-.27-.06-.54-.09-.9-.09-1.38,0-3.27,1.14-3.92,2.31v10.25h-2.25Z"/>
    <path d="M398.17,837.1v-1.65c-1.2,1.32-2.85,2.01-4.79,2.01-2.46,0-5.06-1.65-5.06-4.79s2.61-4.76,5.06-4.76c1.98,0,3.62.63,4.79,1.98v-2.61c0-1.95-1.56-3.06-3.65-3.06-1.74,0-3.15.63-4.44,2.01l-1.05-1.56c1.56-1.62,3.42-2.4,5.78-2.4,3.06,0,5.6,1.38,5.6,4.88v9.95h-2.25ZM398.17,834.04v-2.73c-.87-1.2-2.4-1.8-3.98-1.8-2.1,0-3.57,1.32-3.57,3.18s1.47,3.15,3.57,3.15c1.59,0,3.12-.6,3.98-1.8Z"/>
    <path d="M407.16,834.91v7.7h-2.25v-19.98h2.25v2.16c1.05-1.47,2.85-2.52,4.88-2.52,3.81,0,6.44,2.88,6.44,7.58s-2.64,7.61-6.44,7.61c-1.98,0-3.71-.93-4.88-2.55ZM416.12,829.85c0-3.21-1.74-5.57-4.64-5.57-1.77,0-3.54,1.05-4.31,2.31v6.53c.78,1.26,2.55,2.34,4.31,2.34,2.91,0,4.64-2.4,4.64-5.6Z"/>
    <path d="M431.85,837.1v-9.53c0-2.55-1.32-3.29-3.27-3.29-1.74,0-3.42,1.08-4.28,2.25v10.58h-2.25v-19.98h2.25v7.61c1.02-1.2,3-2.46,5.18-2.46,3.03,0,4.61,1.47,4.61,4.62v10.22h-2.25Z"/>
    <path d="M438.14,840.72c.33.15.87.24,1.23.24.99,0,1.65-.33,2.16-1.53l.96-2.19-6.05-14.62h2.43l4.82,11.86,4.79-11.86h2.46l-7.25,17.41c-.87,2.1-2.34,2.91-4.25,2.94-.48,0-1.23-.09-1.65-.21l.36-2.04Z"/>
    <path d="M478.17,837.1v-14.41l-5.63,14.41h-1.86l-5.63-14.41v14.41h-4.25v-19.98h5.96l4.85,12.49,4.86-12.49h5.99v19.98h-4.29Z"/>
    <path d="M500.22,837.1l-1.26-3.38h-8.57l-1.26,3.38h-4.82l7.7-19.98h5.33l7.7,19.98h-4.82ZM494.68,821.37l-3.12,8.6h6.23l-3.12-8.6ZM494.92,815.29h-2.67l4.01-4.31h3.51l-4.85,4.31Z"/>
    <path d="M518.2,837.1l-3.92-7.1h-3.12v7.1h-4.25v-19.98h9.35c4.16,0,6.74,2.73,6.74,6.44,0,3.51-2.25,5.42-4.4,5.93l4.52,7.61h-4.91ZM518.62,823.52c0-1.65-1.29-2.67-2.96-2.67h-4.49v5.39h4.49c1.68,0,2.96-1.02,2.96-2.73Z"/>
    <path d="M526.17,837.1v-19.98h4.25v19.98h-4.25Z"/>
    <path d="M533.42,827.12c0-6.02,4.4-10.33,10.46-10.33s10.43,4.31,10.43,10.33-4.4,10.34-10.43,10.34-10.46-4.31-10.46-10.34ZM549.92,827.12c0-3.75-2.37-6.56-6.05-6.56s-6.08,2.82-6.08,6.56,2.37,6.56,6.08,6.56,6.05-2.85,6.05-6.56Z"/>
    <path d="M570.6,837.1l-7.7-19.98h4.82l5.54,15.34,5.54-15.34h4.82l-7.7,19.98h-5.33Z"/>
    <path d="M585.49,837.1v-19.98h14.14v3.75h-9.89v4.19h9.68v3.75h-9.68v4.55h9.89v3.75h-14.14Z"/>
    <path d="M602.78,837.1v-19.98h4.28v16.24h8.45v3.75h-12.73Z"/>
    <path d="M617.42,827.12c0-6.02,4.4-10.33,10.46-10.33s10.43,4.31,10.43,10.33-4.4,10.34-10.43,10.34-10.46-4.31-10.46-10.34ZM633.93,827.12c0-3.75-2.37-6.56-6.05-6.56s-6.08,2.82-6.08,6.56,2.37,6.56,6.08,6.56,6.05-2.85,6.05-6.56Z"/>
    <path d="M639.92,834.28l2.34-3.33c1.41,1.47,3.59,2.73,6.35,2.73,2.37,0,3.48-1.05,3.48-2.22,0-3.48-11.5-1.05-11.5-8.57,0-3.32,2.88-6.08,7.58-6.08,3.18,0,5.81.96,7.79,2.79l-2.37,3.18c-1.62-1.5-3.77-2.19-5.81-2.19-1.8,0-2.81.78-2.81,1.98,0,3.14,11.47,1.02,11.47,8.48,0,3.66-2.64,6.41-8,6.41-3.86,0-6.62-1.29-8.51-3.18Z"/>
    <path d="M658.32,827.12c0-6.02,4.4-10.33,10.46-10.33s10.43,4.31,10.43,10.33-4.4,10.34-10.43,10.34-10.46-4.31-10.46-10.34ZM674.83,827.12c0-3.75-2.37-6.56-6.05-6.56s-6.08,2.82-6.08,6.56,2.37,6.56,6.08,6.56,6.05-2.85,6.05-6.56Z"/>
    <path d="M693.31,830.42c-1.98,0-3.57-1.59-3.57-3.53s1.59-3.57,3.57-3.57,3.56,1.59,3.56,3.57-1.59,3.53-3.56,3.53Z"/>
    <path d="M707.75,829.85c0-4.19,3-7.58,7.13-7.58,4.38,0,6.95,3.42,6.95,7.76v.57h-11.72c.18,2.73,2.1,5,5.21,5,1.65,0,3.33-.66,4.46-1.83l1.08,1.47c-1.44,1.44-3.38,2.22-5.75,2.22-4.28,0-7.37-3.09-7.37-7.61ZM714.85,824.12c-3.09,0-4.61,2.61-4.73,4.82h9.5c-.03-2.16-1.47-4.82-4.76-4.82Z"/>
    <path d="M735.95,837.1v-2.16c-1.08,1.47-2.85,2.52-4.88,2.52-3.77,0-6.44-2.88-6.44-7.58s2.64-7.61,6.44-7.61c1.95,0,3.72.96,4.88,2.55v-7.7h2.25v19.98h-2.25ZM735.95,833.17v-6.56c-.81-1.26-2.55-2.34-4.34-2.34-2.91,0-4.64,2.4-4.64,5.6s1.74,5.57,4.64,5.57c1.8,0,3.53-1.02,4.34-2.28Z"/>
    <path d="M742.3,819.06c0-.84.69-1.53,1.5-1.53s1.53.69,1.53,1.53-.69,1.5-1.53,1.5-1.5-.66-1.5-1.5ZM742.69,837.1v-14.47h2.25v14.47h-2.25Z"/>
    <path d="M749.88,834.07v-9.47h-2.4v-1.98h2.4v-3.95h2.25v3.95h2.94v1.98h-2.94v8.99c0,1.08.48,1.86,1.47,1.86.63,0,1.23-.27,1.53-.6l.66,1.68c-.57.54-1.38.93-2.7.93-2.13,0-3.21-1.23-3.21-3.39Z"/>
    <path d="M757.85,819.06c0-.84.69-1.53,1.5-1.53s1.53.69,1.53,1.53-.69,1.5-1.53,1.5-1.5-.66-1.5-1.5ZM758.24,837.1v-14.47h2.25v14.47h-2.25Z"/>
    <path d="M774.75,837.1v-9.47c0-2.55-1.29-3.36-3.24-3.36-1.77,0-3.44,1.08-4.28,2.25v10.58h-2.25v-14.47h2.25v2.1c1.02-1.2,3-2.46,5.15-2.46,3.03,0,4.61,1.53,4.61,4.67v10.16h-2.25Z"/>
    <path d="M781.46,840.81l1.14-1.68c1.2,1.44,2.64,1.98,4.7,1.98,2.4,0,4.64-1.17,4.64-4.34v-2.07c-1.05,1.47-2.81,2.58-4.85,2.58-3.77,0-6.44-2.81-6.44-7.49s2.64-7.52,6.44-7.52c1.95,0,3.68.96,4.85,2.55v-2.19h2.25v14.05c0,4.79-3.36,6.29-6.89,6.29-2.46,0-4.14-.48-5.84-2.16ZM791.94,832.93v-6.32c-.78-1.26-2.52-2.34-4.31-2.34-2.91,0-4.64,2.31-4.64,5.51s1.74,5.51,4.64,5.51c1.8,0,3.53-1.11,4.31-2.37Z"/>
    <path d="M806.21,837.1v-19.98h10.52c3.8,0,5.75,2.43,5.75,5.09,0,2.49-1.56,4.19-3.44,4.58,2.16.33,3.83,2.4,3.83,4.88,0,3.03-1.98,5.42-5.81,5.42h-10.85ZM818.13,822.96c0-1.23-.9-2.1-2.34-2.1h-5.33v4.19h5.33c1.44,0,2.34-.81,2.34-2.09ZM818.52,831.07c0-1.26-.9-2.28-2.55-2.28h-5.51v4.55h5.51c1.59,0,2.55-.84,2.55-2.28Z"/>
    <path d="M837.36,837.1l-3.92-7.1h-3.12v7.1h-4.25v-19.98h9.35c4.16,0,6.74,2.73,6.74,6.44,0,3.51-2.25,5.42-4.4,5.93l4.52,7.61h-4.91ZM837.78,823.52c0-1.65-1.29-2.67-2.96-2.67h-4.49v5.39h4.49c1.68,0,2.96-1.02,2.96-2.73Z"/>
    <path d="M845.33,829.1v-11.98h4.31v11.86c0,2.79,1.62,4.7,4.7,4.7s4.67-1.92,4.67-4.7v-11.86h4.34v11.98c0,4.94-2.94,8.36-9.02,8.36s-9.02-3.42-9.02-8.36Z"/>
    <path d="M881.11,837.1l-9.53-13.03v13.03h-4.25v-19.98h4.37l9.26,12.55v-12.55h4.25v19.98h-4.1Z"/>
    <path d="M888.21,827.12c0-6.02,4.4-10.33,10.46-10.33s10.43,4.31,10.43,10.33-4.4,10.34-10.43,10.34-10.46-4.31-10.46-10.34ZM904.71,827.12c0-3.75-2.37-6.56-6.05-6.56s-6.08,2.82-6.08,6.56,2.37,6.56,6.08,6.56,6.05-2.85,6.05-6.56Z"/>
    <path d="M918.41,834.28l2.34-3.33c1.41,1.47,3.59,2.73,6.35,2.73,2.37,0,3.48-1.05,3.48-2.22,0-3.48-11.5-1.05-11.5-8.57,0-3.32,2.88-6.08,7.58-6.08,3.18,0,5.81.96,7.79,2.79l-2.37,3.18c-1.62-1.5-3.77-2.19-5.81-2.19-1.8,0-2.81.78-2.81,1.98,0,3.14,11.47,1.02,11.47,8.48,0,3.66-2.64,6.41-8,6.41-3.86,0-6.62-1.29-8.51-3.18Z"/>
    <path d="M951.57,837.1l-1.26-3.38h-8.57l-1.26,3.38h-4.82l7.7-19.98h5.33l7.7,19.98h-4.82ZM946.03,821.37l-3.12,8.6h6.23l-3.12-8.6Z"/>
    <path d="M969.55,837.1l-3.92-7.1h-3.12v7.1h-4.25v-19.98h9.35c4.16,0,6.74,2.73,6.74,6.44,0,3.51-2.25,5.42-4.4,5.93l4.52,7.61h-4.91ZM969.97,823.52c0-1.65-1.29-2.67-2.96-2.67h-4.49v5.39h4.49c1.68,0,2.96-1.02,2.96-2.73Z"/>
    <path d="M991.33,837.1l-1.26-3.38h-8.57l-1.26,3.38h-4.82l7.7-19.98h5.33l7.7,19.98h-4.82ZM985.79,821.37l-3.12,8.6h6.23l-3.12-8.6Z"/>
    <path d="M998.01,837.1v-19.98h4.25v19.98h-4.25Z"/>
    <path d="M1011.82,837.1l-7.7-19.98h4.82l5.54,15.34,5.54-15.34h4.82l-7.7,19.98h-5.33Z"/>
    <path d="M1040.52,837.1l-1.26-3.38h-8.57l-1.26,3.38h-4.82l7.7-19.98h5.33l7.7,19.98h-4.82ZM1034.98,821.37l-3.12,8.6h6.23l-3.12-8.6Z"/>
    <path d="M1058.32,830.42c-1.98,0-3.57-1.59-3.57-3.53s1.59-3.57,3.57-3.57,3.56,1.59,3.56,3.57-1.59,3.53-3.56,3.53Z"/>
    <path d="M1072.34,835.18l1.17-1.62c.96,1.11,2.79,2.07,4.76,2.07,2.22,0,3.42-1.05,3.42-2.49,0-3.51-8.96-1.35-8.96-6.71,0-2.25,1.95-4.16,5.39-4.16,2.46,0,4.2.93,5.36,2.1l-1.05,1.56c-.87-1.05-2.46-1.83-4.31-1.83-1.98,0-3.2.99-3.2,2.28,0,3.18,8.96,1.08,8.96,6.71,0,2.43-1.95,4.38-5.69,4.38-2.37,0-4.38-.72-5.84-2.28Z"/>
    <path d="M1086.69,829.85c0-4.19,2.76-7.58,7.16-7.58s7.16,3.39,7.16,7.58-2.76,7.61-7.16,7.61-7.16-3.42-7.16-7.61ZM1098.64,829.85c0-2.94-1.71-5.57-4.79-5.57s-4.82,2.64-4.82,5.57,1.74,5.6,4.82,5.6,4.79-2.64,4.79-5.6Z"/>
    <path d="M1114.43,837.1v-2.04c-1.11,1.26-3,2.4-5.15,2.4-3.03,0-4.61-1.47-4.61-4.62v-10.22h2.25v9.53c0,2.55,1.29,3.3,3.24,3.3,1.77,0,3.44-1.02,4.28-2.19v-10.64h2.25v14.47h-2.25Z"/>
    <path d="M1130.94,837.1v-9.47c0-2.55-1.29-3.36-3.24-3.36-1.77,0-3.44,1.08-4.28,2.25v10.58h-2.25v-14.47h2.25v2.1c1.02-1.2,3-2.46,5.15-2.46,3.03,0,4.61,1.53,4.61,4.67v10.16h-2.25Z"/>
    <path d="M1148.17,837.1v-2.16c-1.08,1.47-2.85,2.52-4.88,2.52-3.77,0-6.44-2.88-6.44-7.58s2.64-7.61,6.44-7.61c1.95,0,3.72.96,4.88,2.55v-7.7h2.25v19.98h-2.25ZM1148.17,833.17v-6.56c-.81-1.26-2.55-2.34-4.34-2.34-2.91,0-4.64,2.4-4.64,5.6s1.74,5.57,4.64,5.57c1.8,0,3.53-1.02,4.34-2.28Z"/>
    <path d="M1162.64,837.1v-14.47h2.25v2.34c1.17-1.53,2.85-2.64,4.82-2.64v2.31c-.27-.06-.54-.09-.9-.09-1.38,0-3.27,1.14-3.92,2.31v10.25h-2.25Z"/>
    <path d="M1171.69,829.85c0-4.19,3-7.58,7.13-7.58,4.38,0,6.95,3.42,6.95,7.76v.57h-11.72c.18,2.73,2.1,5,5.21,5,1.65,0,3.33-.66,4.46-1.83l1.08,1.47c-1.44,1.44-3.38,2.22-5.75,2.22-4.28,0-7.37-3.09-7.37-7.61ZM1178.79,824.12c-3.09,0-4.61,2.61-4.73,4.82h9.5c-.03-2.16-1.47-4.82-4.76-4.82Z"/>
    <path d="M1188.56,829.85c0-4.28,2.91-7.58,7.22-7.58,2.64,0,4.19,1.08,5.3,2.52l-1.5,1.38c-.96-1.32-2.19-1.89-3.68-1.89-3.09,0-5,2.37-5,5.57s1.92,5.6,5,5.6c1.5,0,2.73-.6,3.68-1.89l1.5,1.38c-1.11,1.44-2.67,2.52-5.3,2.52-4.31,0-7.22-3.3-7.22-7.61Z"/>
    <path d="M1203.39,829.85c0-4.19,2.76-7.58,7.16-7.58s7.16,3.39,7.16,7.58-2.76,7.61-7.16,7.61-7.16-3.42-7.16-7.61ZM1215.34,829.85c0-2.94-1.71-5.57-4.79-5.57s-4.82,2.64-4.82,5.57,1.74,5.6,4.82,5.6,4.79-2.64,4.79-5.6Z"/>
    <path d="M1221.37,837.1v-14.47h2.25v2.34c1.17-1.53,2.85-2.64,4.82-2.64v2.31c-.27-.06-.54-.09-.9-.09-1.38,0-3.27,1.14-3.92,2.31v10.25h-2.25Z"/>
    <path d="M1241.74,837.1v-2.16c-1.08,1.47-2.85,2.52-4.88,2.52-3.77,0-6.44-2.88-6.44-7.58s2.64-7.61,6.44-7.61c1.95,0,3.72.96,4.88,2.55v-7.7h2.25v19.98h-2.25ZM1241.74,833.17v-6.56c-.81-1.26-2.55-2.34-4.34-2.34-2.91,0-4.64,2.4-4.64,5.6s1.74,5.57,4.64,5.57c1.8,0,3.53-1.02,4.34-2.28Z"/>
    <path d="M1248.09,819.06c0-.84.69-1.53,1.5-1.53s1.53.69,1.53,1.53-.69,1.5-1.53,1.5-1.5-.66-1.5-1.5ZM1248.48,837.1v-14.47h2.25v14.47h-2.25Z"/>
    <path d="M1264.99,837.1v-9.47c0-2.55-1.29-3.36-3.24-3.36-1.77,0-3.44,1.08-4.28,2.25v10.58h-2.25v-14.47h2.25v2.1c1.02-1.2,3-2.46,5.15-2.46,3.03,0,4.61,1.53,4.61,4.67v10.16h-2.25Z"/>
    <path d="M1271.7,840.81l1.14-1.68c1.2,1.44,2.64,1.98,4.7,1.98,2.4,0,4.64-1.17,4.64-4.34v-2.07c-1.05,1.47-2.81,2.58-4.85,2.58-3.77,0-6.44-2.81-6.44-7.49s2.64-7.52,6.44-7.52c1.95,0,3.68.96,4.85,2.55v-2.19h2.25v14.05c0,4.79-3.36,6.29-6.89,6.29-2.46,0-4.14-.48-5.84-2.16ZM1282.19,832.93v-6.32c-.78-1.26-2.52-2.34-4.31-2.34-2.91,0-4.64,2.31-4.64,5.51s1.74,5.51,4.64,5.51c1.8,0,3.53-1.11,4.31-2.37Z"/>
    <path d="M1313.76,837.1v-14.41l-5.63,14.41h-1.86l-5.63-14.41v14.41h-4.25v-19.98h5.96l4.85,12.49,4.86-12.49h5.99v19.98h-4.29Z"/>
    <path d="M1335.81,837.1l-1.26-3.38h-8.57l-1.26,3.38h-4.82l7.7-19.98h5.33l7.7,19.98h-4.82ZM1330.27,821.37l-3.12,8.6h6.23l-3.12-8.6ZM1330.51,815.29h-2.67l4.01-4.31h3.51l-4.85,4.31Z"/>
    <path d="M1353.79,837.1l-3.92-7.1h-3.12v7.1h-4.25v-19.98h9.35c4.16,0,6.74,2.73,6.74,6.44,0,3.51-2.25,5.42-4.4,5.93l4.52,7.61h-4.91ZM1354.21,823.52c0-1.65-1.29-2.67-2.96-2.67h-4.49v5.39h4.49c1.68,0,2.96-1.02,2.96-2.73Z"/>
    <path d="M1361.76,837.1v-19.98h4.25v19.98h-4.25Z"/>
    <path d="M1369.01,827.12c0-6.02,4.4-10.33,10.46-10.33s10.43,4.31,10.43,10.33-4.4,10.34-10.43,10.34-10.46-4.31-10.46-10.34ZM1385.52,827.12c0-3.75-2.37-6.56-6.05-6.56s-6.08,2.82-6.08,6.56,2.37,6.56,6.08,6.56,6.05-2.85,6.05-6.56Z"/>
    <path d="M1406.19,837.1l-7.7-19.98h4.82l5.54,15.34,5.54-15.34h4.82l-7.7,19.98h-5.33Z"/>
    <path d="M1421.08,837.1v-19.98h14.14v3.75h-9.89v4.19h9.68v3.75h-9.68v4.55h9.89v3.75h-14.14Z"/>
    <path d="M1438.37,837.1v-19.98h4.28v16.24h8.45v3.75h-12.73Z"/>
    <path d="M1453.02,827.12c0-6.02,4.4-10.33,10.46-10.33s10.43,4.31,10.43,10.33-4.4,10.34-10.43,10.34-10.46-4.31-10.46-10.34ZM1469.53,827.12c0-3.75-2.37-6.56-6.05-6.56s-6.08,2.82-6.08,6.56,2.37,6.56,6.08,6.56,6.05-2.85,6.05-6.56Z"/>
    <path d="M1475.52,834.28l2.34-3.33c1.41,1.47,3.59,2.73,6.35,2.73,2.37,0,3.48-1.05,3.48-2.22,0-3.48-11.5-1.05-11.5-8.57,0-3.32,2.88-6.08,7.58-6.08,3.18,0,5.81.96,7.79,2.79l-2.37,3.18c-1.62-1.5-3.77-2.19-5.81-2.19-1.8,0-2.81.78-2.81,1.98,0,3.14,11.47,1.02,11.47,8.48,0,3.66-2.64,6.41-8,6.41-3.86,0-6.62-1.29-8.51-3.18Z"/>
    <path d="M1493.91,827.12c0-6.02,4.4-10.33,10.46-10.33s10.43,4.31,10.43,10.33-4.4,10.34-10.43,10.34-10.46-4.31-10.46-10.34ZM1510.42,827.12c0-3.75-2.37-6.56-6.05-6.56s-6.08,2.82-6.08,6.56,2.37,6.56,6.08,6.56,6.05-2.85,6.05-6.56Z"/>
    <path d="M1528.91,830.42c-1.98,0-3.57-1.59-3.57-3.53s1.59-3.57,3.57-3.57,3.56,1.59,3.56,3.57-1.59,3.53-3.56,3.53Z"/>
    <path d="M239.89,871.13l1.17-1.62c.96,1.11,2.79,2.07,4.76,2.07,2.22,0,3.42-1.05,3.42-2.49,0-3.51-8.96-1.35-8.96-6.71,0-2.25,1.95-4.16,5.39-4.16,2.46,0,4.2.93,5.36,2.1l-1.05,1.56c-.87-1.05-2.46-1.83-4.31-1.83-1.98,0-3.2.99-3.2,2.28,0,3.18,8.96,1.08,8.96,6.71,0,2.43-1.95,4.38-5.69,4.38-2.37,0-4.38-.72-5.84-2.28Z"/>
    <path d="M254.24,865.8c0-4.19,2.76-7.58,7.16-7.58s7.16,3.39,7.16,7.58-2.76,7.61-7.16,7.61-7.16-3.42-7.16-7.61ZM266.19,865.8c0-2.94-1.71-5.57-4.79-5.57s-4.82,2.64-4.82,5.57,1.74,5.6,4.82,5.6,4.79-2.64,4.79-5.6Z"/>
    <path d="M281.98,873.05v-2.04c-1.11,1.26-3,2.4-5.15,2.4-3.03,0-4.61-1.47-4.61-4.62v-10.22h2.25v9.53c0,2.55,1.29,3.3,3.24,3.3,1.77,0,3.44-1.02,4.28-2.19v-10.64h2.25v14.47h-2.25Z"/>
    <path d="M298.49,873.05v-9.47c0-2.55-1.29-3.36-3.24-3.36-1.77,0-3.44,1.08-4.28,2.25v10.58h-2.25v-14.47h2.25v2.1c1.02-1.2,3-2.46,5.15-2.46,3.03,0,4.61,1.53,4.61,4.67v10.16h-2.25Z"/>
    <path d="M315.72,873.05v-2.16c-1.08,1.47-2.85,2.52-4.88,2.52-3.77,0-6.44-2.88-6.44-7.58s2.64-7.61,6.44-7.61c1.95,0,3.72.96,4.88,2.55v-7.7h2.25v19.98h-2.25ZM315.72,869.13v-6.56c-.81-1.26-2.55-2.34-4.34-2.34-2.91,0-4.64,2.4-4.64,5.6s1.74,5.57,4.64,5.57c1.8,0,3.53-1.02,4.34-2.28Z"/>
    <path d="M329.35,865.8c0-4.19,3-7.58,7.13-7.58,4.38,0,6.95,3.42,6.95,7.76v.57h-11.72c.18,2.73,2.1,5,5.21,5,1.65,0,3.33-.66,4.46-1.83l1.08,1.47c-1.44,1.44-3.38,2.22-5.75,2.22-4.28,0-7.37-3.09-7.37-7.61ZM336.45,860.08c-3.09,0-4.61,2.61-4.73,4.82h9.5c-.03-2.16-1.47-4.82-4.76-4.82Z"/>
    <path d="M357.54,873.05v-2.16c-1.08,1.47-2.85,2.52-4.88,2.52-3.77,0-6.44-2.88-6.44-7.58s2.64-7.61,6.44-7.61c1.95,0,3.72.96,4.88,2.55v-7.7h2.25v19.98h-2.25ZM357.54,869.13v-6.56c-.81-1.26-2.55-2.34-4.34-2.34-2.91,0-4.64,2.4-4.64,5.6s1.74,5.57,4.64,5.57c1.8,0,3.53-1.02,4.34-2.28Z"/>
    <path d="M363.89,855.01c0-.84.69-1.53,1.5-1.53s1.53.69,1.53,1.53-.69,1.5-1.53,1.5-1.5-.66-1.5-1.5ZM364.28,873.05v-14.47h2.25v14.47h-2.25Z"/>
    <path d="M371.47,870.02v-9.47h-2.4v-1.98h2.4v-3.95h2.25v3.95h2.94v1.98h-2.94v8.99c0,1.08.48,1.86,1.47,1.86.63,0,1.23-.27,1.53-.6l.66,1.68c-.57.54-1.38.93-2.7.93-2.13,0-3.21-1.23-3.21-3.39Z"/>
    <path d="M379.44,855.01c0-.84.69-1.53,1.5-1.53s1.53.69,1.53,1.53-.69,1.5-1.53,1.5-1.5-.66-1.5-1.5ZM379.83,873.05v-14.47h2.25v14.47h-2.25Z"/>
    <path d="M396.34,873.05v-9.47c0-2.55-1.29-3.36-3.24-3.36-1.77,0-3.44,1.08-4.28,2.25v10.58h-2.25v-14.47h2.25v2.1c1.02-1.2,3-2.46,5.15-2.46,3.03,0,4.61,1.53,4.61,4.67v10.16h-2.25Z"/>
    <path d="M403.05,876.77l1.14-1.68c1.2,1.44,2.64,1.98,4.7,1.98,2.4,0,4.64-1.17,4.64-4.34v-2.07c-1.05,1.47-2.81,2.58-4.85,2.58-3.77,0-6.44-2.81-6.44-7.49s2.64-7.52,6.44-7.52c1.95,0,3.68.96,4.85,2.55v-2.19h2.25v14.05c0,4.79-3.36,6.29-6.89,6.29-2.46,0-4.14-.48-5.84-2.16ZM413.54,868.89v-6.32c-.78-1.26-2.52-2.34-4.31-2.34-2.91,0-4.64,2.31-4.64,5.51s1.74,5.51,4.64,5.51c1.8,0,3.53-1.11,4.31-2.37Z"/>
    <path d="M427.8,873.05v-19.98h10.52c3.8,0,5.75,2.43,5.75,5.09,0,2.49-1.56,4.19-3.44,4.58,2.16.33,3.83,2.4,3.83,4.88,0,3.03-1.98,5.42-5.81,5.42h-10.85ZM439.73,858.91c0-1.23-.9-2.1-2.34-2.1h-5.33v4.19h5.33c1.44,0,2.34-.81,2.34-2.09ZM440.11,867.03c0-1.26-.9-2.28-2.55-2.28h-5.51v4.55h5.51c1.59,0,2.55-.84,2.55-2.28Z"/>
    <path d="M458.96,873.05l-3.92-7.1h-3.12v7.1h-4.25v-19.98h9.35c4.16,0,6.74,2.73,6.74,6.44,0,3.51-2.25,5.42-4.4,5.93l4.52,7.61h-4.91ZM459.38,859.48c0-1.65-1.29-2.67-2.96-2.67h-4.49v5.39h4.49c1.68,0,2.96-1.02,2.96-2.73Z"/>
    <path d="M466.93,865.05v-11.98h4.31v11.86c0,2.79,1.62,4.7,4.7,4.7s4.67-1.92,4.67-4.7v-11.86h4.34v11.98c0,4.94-2.94,8.36-9.02,8.36s-9.02-3.42-9.02-8.36Z"/>
    <path d="M502.7,873.05l-9.53-13.03v13.03h-4.25v-19.98h4.37l9.26,12.55v-12.55h4.25v19.98h-4.1Z"/>
    <path d="M509.8,863.07c0-6.02,4.4-10.33,10.46-10.33s10.43,4.31,10.43,10.33-4.4,10.34-10.43,10.34-10.46-4.31-10.46-10.34ZM526.31,863.07c0-3.75-2.37-6.56-6.05-6.56s-6.08,2.82-6.08,6.56,2.37,6.56,6.08,6.56,6.05-2.85,6.05-6.56Z"/>
    <path d="M540,870.23l2.34-3.33c1.41,1.47,3.59,2.73,6.35,2.73,2.37,0,3.48-1.05,3.48-2.22,0-3.48-11.5-1.05-11.5-8.57,0-3.32,2.88-6.08,7.58-6.08,3.18,0,5.81.96,7.79,2.79l-2.37,3.18c-1.62-1.5-3.77-2.19-5.81-2.19-1.8,0-2.81.78-2.81,1.98,0,3.14,11.47,1.02,11.47,8.48,0,3.66-2.64,6.41-8,6.41-3.86,0-6.62-1.29-8.51-3.18Z"/>
    <path d="M573.17,873.05l-1.26-3.38h-8.57l-1.26,3.38h-4.82l7.7-19.98h5.33l7.7,19.98h-4.82ZM567.63,857.32l-3.12,8.6h6.23l-3.12-8.6Z"/>
    <path d="M591.14,873.05l-3.92-7.1h-3.12v7.1h-4.25v-19.98h9.35c4.16,0,6.74,2.73,6.74,6.44,0,3.51-2.25,5.42-4.4,5.93l4.52,7.61h-4.91ZM591.56,859.48c0-1.65-1.29-2.67-2.96-2.67h-4.49v5.39h4.49c1.68,0,2.96-1.02,2.96-2.73Z"/>
    <path d="M612.92,873.05l-1.26-3.38h-8.57l-1.26,3.38h-4.82l7.7-19.98h5.33l7.7,19.98h-4.82ZM607.38,857.32l-3.12,8.6h6.23l-3.12-8.6Z"/>
    <path d="M619.61,873.05v-19.98h4.25v19.98h-4.25Z"/>
    <path d="M633.42,873.05l-7.7-19.98h4.82l5.54,15.34,5.54-15.34h4.82l-7.7,19.98h-5.33Z"/>
    <path d="M662.12,873.05l-1.26-3.38h-8.57l-1.26,3.38h-4.82l7.7-19.98h5.33l7.7,19.98h-4.82ZM656.58,857.32l-3.12,8.6h6.23l-3.12-8.6Z"/>
    <path d="M679.92,866.37c-1.98,0-3.57-1.59-3.57-3.53s1.59-3.57,3.57-3.57,3.56,1.59,3.56,3.57-1.59,3.53-3.56,3.53Z"/>
    <path d="M694.03,871.13l1.17-1.62c.96,1.11,2.79,2.07,4.76,2.07,2.22,0,3.42-1.05,3.42-2.49,0-3.51-8.96-1.35-8.96-6.71,0-2.25,1.95-4.16,5.39-4.16,2.46,0,4.2.93,5.36,2.1l-1.05,1.56c-.87-1.05-2.46-1.83-4.31-1.83-1.98,0-3.2.99-3.2,2.28,0,3.18,8.96,1.08,8.96,6.71,0,2.43-1.95,4.38-5.69,4.38-2.37,0-4.38-.72-5.84-2.28Z"/>
    <path d="M708.38,865.8c0-4.19,2.76-7.58,7.16-7.58s7.16,3.39,7.16,7.58-2.76,7.61-7.16,7.61-7.16-3.42-7.16-7.61ZM720.33,865.8c0-2.94-1.71-5.57-4.79-5.57s-4.82,2.64-4.82,5.57,1.74,5.6,4.82,5.6,4.79-2.64,4.79-5.6Z"/>
    <path d="M736.12,873.05v-2.04c-1.11,1.26-3,2.4-5.15,2.4-3.03,0-4.61-1.47-4.61-4.62v-10.22h2.25v9.53c0,2.55,1.29,3.3,3.24,3.3,1.77,0,3.44-1.02,4.28-2.19v-10.64h2.25v14.47h-2.25Z"/>
    <path d="M752.63,873.05v-9.47c0-2.55-1.29-3.36-3.24-3.36-1.77,0-3.44,1.08-4.28,2.25v10.58h-2.25v-14.47h2.25v2.1c1.02-1.2,3-2.46,5.15-2.46,3.03,0,4.61,1.53,4.61,4.67v10.16h-2.25Z"/>
    <path d="M769.86,873.05v-2.16c-1.08,1.47-2.85,2.52-4.88,2.52-3.77,0-6.44-2.88-6.44-7.58s2.64-7.61,6.44-7.61c1.95,0,3.72.96,4.88,2.55v-7.7h2.25v19.98h-2.25ZM769.86,869.13v-6.56c-.81-1.26-2.55-2.34-4.34-2.34-2.91,0-4.64,2.4-4.64,5.6s1.74,5.57,4.64,5.57c1.8,0,3.53-1.02,4.34-2.28Z"/>
    <path d="M801.79,873.05v-9.83c0-1.83-.81-3-2.67-3-1.5,0-3.09,1.08-3.83,2.22v10.61h-2.25v-9.83c0-1.83-.78-3-2.67-3-1.47,0-3.03,1.08-3.81,2.25v10.58h-2.25v-14.47h2.25v2.1c.6-.93,2.55-2.46,4.67-2.46s3.48,1.2,3.9,2.7c.81-1.32,2.76-2.7,4.85-2.7,2.64,0,4.04,1.47,4.04,4.37v10.46h-2.25Z"/>
    <path d="M808.15,855.01c0-.84.69-1.53,1.5-1.53s1.53.69,1.53,1.53-.69,1.5-1.53,1.5-1.5-.66-1.5-1.5ZM808.54,873.05v-14.47h2.25v14.47h-2.25Z"/>
    <path d="M824.66,873.05l-4.34-5.93-4.34,5.93h-2.58l5.54-7.43-5.24-7.04h2.61l4.01,5.51,4.01-5.51h2.61l-5.24,7.04,5.57,7.43h-2.61Z"/>
    <path d="M829.45,855.01c0-.84.69-1.53,1.5-1.53s1.53.69,1.53,1.53-.69,1.5-1.53,1.5-1.5-.66-1.5-1.5ZM829.84,873.05v-14.47h2.25v14.47h-2.25Z"/>
    <path d="M846.35,873.05v-9.47c0-2.55-1.29-3.36-3.24-3.36-1.77,0-3.44,1.08-4.28,2.25v10.58h-2.25v-14.47h2.25v2.1c1.02-1.2,3-2.46,5.15-2.46,3.03,0,4.61,1.53,4.61,4.67v10.16h-2.25Z"/>
    <path d="M853.06,876.77l1.14-1.68c1.2,1.44,2.64,1.98,4.7,1.98,2.4,0,4.64-1.17,4.64-4.34v-2.07c-1.05,1.47-2.81,2.58-4.85,2.58-3.77,0-6.44-2.81-6.44-7.49s2.64-7.52,6.44-7.52c1.95,0,3.68.96,4.85,2.55v-2.19h2.25v14.05c0,4.79-3.36,6.29-6.89,6.29-2.46,0-4.14-.48-5.84-2.16ZM863.54,868.89v-6.32c-.78-1.26-2.52-2.34-4.31-2.34-2.91,0-4.64,2.31-4.64,5.51s1.74,5.51,4.64,5.51c1.8,0,3.53-1.11,4.31-2.37Z"/>
    <path d="M895.18,873.05v-14.41l-5.63,14.41h-1.86l-5.63-14.41v14.41h-4.25v-19.98h5.96l4.85,12.49,4.86-12.49h5.99v19.98h-4.29Z"/>
    <path d="M903.42,873.05v-19.98h4.25v19.98h-4.25Z"/>
    <path d="M910.67,863.07c0-6.32,4.79-10.33,10.67-10.33,4.14,0,6.74,2.09,8.24,4.46l-3.51,1.92c-.93-1.41-2.64-2.61-4.73-2.61-3.66,0-6.29,2.79-6.29,6.56s2.64,6.56,6.29,6.56c1.77,0,3.42-.78,4.22-1.53v-2.4h-5.27v-3.71h9.53v7.67c-2.04,2.27-4.88,3.75-8.48,3.75-5.87,0-10.67-4.05-10.67-10.34Z"/>
    <path d="M933.2,865.05v-11.98h4.31v11.86c0,2.79,1.62,4.7,4.7,4.7s4.67-1.92,4.67-4.7v-11.86h4.34v11.98c0,4.94-2.94,8.36-9.02,8.36s-9.02-3.42-9.02-8.36Z"/>
    <path d="M955.2,873.05v-19.98h14.14v3.75h-9.89v4.19h9.68v3.75h-9.68v4.55h9.89v3.75h-14.14Z"/>
    <path d="M972.48,873.05v-19.98h4.28v16.24h8.45v3.75h-12.73Z"/>
    <path d="M994.83,863.07c0-6.17,4.64-10.33,10.67-10.33,4.38,0,6.92,2.36,8.33,4.88l-3.66,1.8c-.84-1.62-2.64-2.91-4.67-2.91-3.66,0-6.29,2.79-6.29,6.56s2.64,6.56,6.29,6.56c2.04,0,3.83-1.29,4.67-2.91l3.66,1.77c-1.41,2.49-3.95,4.92-8.33,4.92-6.02,0-10.67-4.2-10.67-10.34Z"/>
    <path d="M1015.41,863.07c0-6.02,4.4-10.33,10.46-10.33s10.43,4.31,10.43,10.33-4.4,10.34-10.43,10.34-10.46-4.31-10.46-10.34ZM1031.92,863.07c0-3.75-2.37-6.56-6.05-6.56s-6.08,2.82-6.08,6.56,2.37,6.56,6.08,6.56,6.05-2.85,6.05-6.56Z"/>
    <path d="M1039.29,873.05v-19.98h14.14v3.75h-9.89v4.19h9.68v3.75h-9.68v4.55h9.89v3.75h-14.14Z"/>
    <path d="M1056.58,873.05v-19.98h4.28v16.24h8.45v3.75h-12.73Z"/>
    <path d="M1085.88,873.05v-8.42h-9.44v8.42h-4.25v-19.98h4.25v7.85h9.44v-7.85h4.28v19.98h-4.28Z"/>
    <path d="M1093.13,863.07c0-6.02,4.4-10.33,10.46-10.33s10.43,4.31,10.43,10.33-4.4,10.34-10.43,10.34-10.46-4.31-10.46-10.34ZM1109.64,863.07c0-3.75-2.37-6.56-6.05-6.56s-6.08,2.82-6.08,6.56,2.37,6.56,6.08,6.56,6.05-2.85,6.05-6.56Z"/>
    <path d="M1128.13,866.37c-1.98,0-3.57-1.59-3.57-3.53s1.59-3.57,3.57-3.57,3.56,1.59,3.56,3.57-1.59,3.53-3.56,3.53Z"/>
    <path d="M1142.57,865.8c0-4.28,2.91-7.58,7.22-7.58,2.64,0,4.2,1.08,5.3,2.52l-1.5,1.38c-.96-1.32-2.19-1.89-3.68-1.89-3.09,0-5,2.37-5,5.57s1.92,5.6,5,5.6c1.5,0,2.73-.6,3.68-1.89l1.5,1.38c-1.11,1.44-2.67,2.52-5.3,2.52-4.31,0-7.22-3.3-7.22-7.61Z"/>
    <path d="M1157.4,865.8c0-4.19,2.76-7.58,7.16-7.58s7.16,3.39,7.16,7.58-2.76,7.61-7.16,7.61-7.16-3.42-7.16-7.61ZM1169.35,865.8c0-2.94-1.71-5.57-4.79-5.57s-4.82,2.64-4.82,5.57,1.74,5.6,4.82,5.6,4.79-2.64,4.79-5.6Z"/>
    <path d="M1175.37,873.05v-19.98h2.25v19.98h-2.25Z"/>
    <path d="M1181.28,865.8c0-4.19,2.76-7.58,7.16-7.58s7.16,3.39,7.16,7.58-2.76,7.61-7.16,7.61-7.16-3.42-7.16-7.61ZM1193.23,865.8c0-2.94-1.71-5.57-4.79-5.57s-4.82,2.64-4.82,5.57,1.74,5.6,4.82,5.6,4.79-2.64,4.79-5.6Z"/>
    <path d="M1199.25,873.05v-14.47h2.25v2.34c1.17-1.53,2.85-2.64,4.82-2.64v2.31c-.27-.06-.54-.09-.9-.09-1.38,0-3.27,1.14-3.92,2.31v10.25h-2.25Z"/>
    <path d="M1216.84,876.77l1.14-1.68c1.2,1.44,2.64,1.98,4.7,1.98,2.4,0,4.64-1.17,4.64-4.34v-2.07c-1.05,1.47-2.81,2.58-4.85,2.58-3.77,0-6.44-2.81-6.44-7.49s2.64-7.52,6.44-7.52c1.95,0,3.68.96,4.85,2.55v-2.19h2.25v14.05c0,4.79-3.36,6.29-6.89,6.29-2.46,0-4.14-.48-5.84-2.16ZM1227.32,868.89v-6.32c-.78-1.26-2.52-2.34-4.31-2.34-2.91,0-4.64,2.31-4.64,5.51s1.74,5.51,4.64,5.51c1.8,0,3.53-1.11,4.31-2.37Z"/>
    <path d="M1234.07,873.05v-14.47h2.25v2.34c1.17-1.53,2.85-2.64,4.82-2.64v2.31c-.27-.06-.54-.09-.9-.09-1.38,0-3.27,1.14-3.92,2.31v10.25h-2.25Z"/>
    <path d="M1253,873.05v-1.65c-1.2,1.32-2.85,2.01-4.79,2.01-2.46,0-5.06-1.65-5.06-4.79s2.61-4.76,5.06-4.76c1.98,0,3.62.63,4.79,1.98v-2.61c0-1.95-1.56-3.06-3.65-3.06-1.74,0-3.15.63-4.44,2.01l-1.05-1.56c1.56-1.62,3.42-2.4,5.78-2.4,3.06,0,5.6,1.38,5.6,4.88v9.95h-2.25ZM1253,869.99v-2.73c-.87-1.2-2.4-1.8-3.98-1.8-2.1,0-3.57,1.32-3.57,3.18s1.47,3.15,3.57,3.15c1.59,0,3.12-.6,3.98-1.8Z"/>
    <path d="M1270.23,873.05v-2.16c-1.08,1.47-2.85,2.52-4.88,2.52-3.77,0-6.44-2.88-6.44-7.58s2.64-7.61,6.44-7.61c1.95,0,3.72.96,4.88,2.55v-7.7h2.25v19.98h-2.25ZM1270.23,869.13v-6.56c-.81-1.26-2.55-2.34-4.34-2.34-2.91,0-4.64,2.4-4.64,5.6s1.74,5.57,4.64,5.57c1.8,0,3.53-1.02,4.34-2.28Z"/>
    <path d="M1276.58,855.01c0-.84.69-1.53,1.5-1.53s1.53.69,1.53,1.53-.69,1.5-1.53,1.5-1.5-.66-1.5-1.5ZM1276.97,873.05v-14.47h2.25v14.47h-2.25Z"/>
    <path d="M1293.48,873.05v-9.47c0-2.55-1.29-3.36-3.24-3.36-1.77,0-3.44,1.08-4.28,2.25v10.58h-2.25v-14.47h2.25v2.1c1.02-1.2,3-2.46,5.15-2.46,3.03,0,4.61,1.53,4.61,4.67v10.16h-2.25Z"/>
    <path d="M1300.19,876.77l1.14-1.68c1.2,1.44,2.64,1.98,4.7,1.98,2.4,0,4.64-1.17,4.64-4.34v-2.07c-1.05,1.47-2.81,2.58-4.85,2.58-3.77,0-6.44-2.81-6.44-7.49s2.64-7.52,6.44-7.52c1.95,0,3.68.96,4.85,2.55v-2.19h2.25v14.05c0,4.79-3.36,6.29-6.89,6.29-2.46,0-4.14-.48-5.84-2.16ZM1310.68,868.89v-6.32c-.78-1.26-2.52-2.34-4.31-2.34-2.91,0-4.64,2.31-4.64,5.51s1.74,5.51,4.64,5.51c1.8,0,3.53-1.11,4.31-2.37Z"/>
    <path d="M1324.88,873.05v-19.98h10.52c3.81,0,5.75,2.43,5.75,5.09,0,2.49-1.56,4.19-3.44,4.58,2.16.33,3.83,2.4,3.83,4.88,0,3.03-1.98,5.42-5.81,5.42h-10.85ZM1336.8,858.91c0-1.23-.9-2.1-2.34-2.1h-5.33v4.19h5.33c1.44,0,2.34-.81,2.34-2.09ZM1337.19,867.03c0-1.26-.9-2.28-2.55-2.28h-5.51v4.55h5.51c1.59,0,2.55-.84,2.55-2.28Z"/>
    <path d="M1356.04,873.05l-3.92-7.1h-3.12v7.1h-4.25v-19.98h9.35c4.16,0,6.74,2.73,6.74,6.44,0,3.51-2.25,5.42-4.4,5.93l4.52,7.61h-4.91ZM1356.46,859.48c0-1.65-1.29-2.67-2.96-2.67h-4.49v5.39h4.49c1.68,0,2.96-1.02,2.96-2.73Z"/>
    <path d="M1364.01,865.05v-11.98h4.31v11.86c0,2.79,1.62,4.7,4.7,4.7s4.67-1.92,4.67-4.7v-11.86h4.34v11.98c0,4.94-2.94,8.36-9.02,8.36s-9.02-3.42-9.02-8.36Z"/>
    <path d="M1399.78,873.05l-9.53-13.03v13.03h-4.25v-19.98h4.37l9.26,12.55v-12.55h4.25v19.98h-4.1Z"/>
    <path d="M1406.88,863.07c0-6.02,4.4-10.33,10.46-10.33s10.43,4.31,10.43,10.33-4.4,10.34-10.43,10.34-10.46-4.31-10.46-10.34ZM1423.39,863.07c0-3.75-2.37-6.56-6.05-6.56s-6.08,2.82-6.08,6.56,2.37,6.56,6.08,6.56,6.05-2.85,6.05-6.56Z"/>
    <path d="M1449.75,873.05l-3.92-7.1h-3.12v7.1h-4.25v-19.98h9.35c4.16,0,6.74,2.73,6.74,6.44,0,3.51-2.25,5.42-4.4,5.93l4.52,7.61h-4.91ZM1450.17,859.48c0-1.65-1.29-2.67-2.96-2.67h-4.49v5.39h4.49c1.68,0,2.96-1.02,2.96-2.73Z"/>
    <path d="M1457.72,873.05v-19.98h14.14v3.75h-9.89v4.19h9.68v3.75h-9.68v4.55h9.89v3.75h-14.14Z"/>
    <path d="M1475.19,873.05v-19.98h4.25v19.98h-4.25Z"/>
    <path d="M1482.02,870.23l2.34-3.33c1.41,1.47,3.59,2.73,6.35,2.73,2.37,0,3.48-1.05,3.48-2.22,0-3.48-11.5-1.05-11.5-8.57,0-3.32,2.88-6.08,7.58-6.08,3.18,0,5.81.96,7.79,2.79l-2.37,3.18c-1.62-1.5-3.77-2.19-5.81-2.19-1.8,0-2.81.78-2.81,1.98,0,3.14,11.47,1.02,11.47,8.48,0,3.66-2.64,6.41-8,6.41-3.86,0-6.62-1.29-8.51-3.18Z"/>
    <path d="M1508.11,863.07c0-6.02,4.4-10.33,10.46-10.33s10.43,4.31,10.43,10.33-4.4,10.34-10.43,10.34-10.46-4.31-10.46-10.34ZM1524.62,863.07c0-3.75-2.37-6.56-6.05-6.56s-6.08,2.82-6.08,6.56,2.37,6.56,6.08,6.56,6.05-2.85,6.05-6.56Z"/>
    <path d="M1531.81,873.05v-19.98h4.28v16.24h8.45v3.75h-12.73Z"/>
    <path d="M1547.42,873.05v-19.98h4.25v19.98h-4.25Z"/>
    <path d="M1561.23,873.05l-7.7-19.98h4.82l5.54,15.34,5.54-15.34h4.82l-7.7,19.98h-5.33Z"/>
    <path d="M1576.12,873.05v-19.98h14.14v3.75h-9.89v4.19h9.68v3.75h-9.68v4.55h9.89v3.75h-14.14Z"/>
    <path d="M1593.59,873.05v-19.98h4.25v19.98h-4.25Z"/>
    <path d="M1613.09,873.05l-3.92-7.1h-3.12v7.1h-4.25v-19.98h9.35c4.16,0,6.74,2.73,6.74,6.44,0,3.51-2.25,5.42-4.4,5.93l4.52,7.61h-4.91ZM1613.51,859.48c0-1.65-1.29-2.67-2.96-2.67h-4.49v5.39h4.49c1.68,0,2.96-1.02,2.96-2.73Z"/>
    <path d="M1634.87,873.05l-1.26-3.38h-8.57l-1.26,3.38h-4.82l7.7-19.98h5.33l7.7,19.98h-4.82ZM1629.33,857.32l-3.12,8.6h6.23l-3.12-8.6Z"/>
    <path d="M1652.67,866.37c-1.98,0-3.57-1.59-3.57-3.53s1.59-3.57,3.57-3.57,3.56,1.59,3.56,3.57-1.59,3.53-3.56,3.53Z"/>
    <path d="M241.12,912.72l1.14-1.68c1.2,1.44,2.64,1.98,4.7,1.98,2.4,0,4.64-1.17,4.64-4.34v-2.07c-1.05,1.47-2.81,2.58-4.85,2.58-3.77,0-6.44-2.81-6.44-7.49s2.64-7.52,6.44-7.52c1.95,0,3.68.96,4.85,2.55v-2.19h2.25v14.05c0,4.79-3.36,6.29-6.89,6.29-2.46,0-4.14-.48-5.84-2.16ZM251.6,904.84v-6.32c-.78-1.26-2.52-2.34-4.31-2.34-2.91,0-4.64,2.31-4.64,5.51s1.74,5.51,4.64,5.51c1.8,0,3.53-1.11,4.31-2.37Z"/>
    <path d="M258.34,909v-14.47h2.25v2.34c1.17-1.53,2.85-2.64,4.82-2.64v2.31c-.27-.06-.54-.09-.9-.09-1.38,0-3.27,1.14-3.92,2.31v10.25h-2.25Z"/>
    <path d="M277.28,909v-1.65c-1.2,1.32-2.85,2.01-4.79,2.01-2.46,0-5.06-1.65-5.06-4.79s2.61-4.76,5.06-4.76c1.98,0,3.62.63,4.79,1.98v-2.61c0-1.95-1.56-3.06-3.65-3.06-1.74,0-3.15.63-4.44,2.01l-1.05-1.56c1.56-1.62,3.42-2.4,5.78-2.4,3.06,0,5.6,1.38,5.6,4.88v9.95h-2.25ZM277.28,905.95v-2.73c-.87-1.2-2.4-1.8-3.98-1.8-2.1,0-3.57,1.32-3.57,3.18s1.47,3.15,3.57,3.15c1.59,0,3.12-.6,3.98-1.8Z"/>
    <path d="M286.27,906.82v7.7h-2.25v-19.98h2.25v2.16c1.05-1.47,2.85-2.52,4.88-2.52,3.81,0,6.44,2.88,6.44,7.58s-2.64,7.61-6.44,7.61c-1.98,0-3.71-.93-4.88-2.55ZM295.23,901.75c0-3.21-1.74-5.57-4.64-5.57-1.77,0-3.54,1.05-4.31,2.31v6.53c.78,1.26,2.55,2.34,4.31,2.34,2.91,0,4.64-2.4,4.64-5.6Z"/>
    <path d="M310.96,909v-9.53c0-2.55-1.32-3.29-3.27-3.29-1.74,0-3.42,1.08-4.28,2.25v10.58h-2.25v-19.98h2.25v7.61c1.02-1.2,3-2.46,5.18-2.46,3.03,0,4.61,1.47,4.61,4.62v10.22h-2.25Z"/>
    <path d="M317.31,890.97c0-.84.69-1.53,1.5-1.53s1.53.69,1.53,1.53-.69,1.5-1.53,1.5-1.5-.66-1.5-1.5ZM317.7,909v-14.47h2.25v14.47h-2.25Z"/>
    <path d="M323.6,901.75c0-4.28,2.91-7.58,7.22-7.58,2.64,0,4.2,1.08,5.3,2.52l-1.5,1.38c-.96-1.32-2.19-1.89-3.68-1.89-3.09,0-5,2.37-5,5.57s1.92,5.6,5,5.6c1.5,0,2.73-.6,3.68-1.89l1.5,1.38c-1.11,1.44-2.67,2.52-5.3,2.52-4.31,0-7.22-3.3-7.22-7.61Z"/>
    <path d="M357.49,909v-2.16c-1.08,1.47-2.85,2.52-4.88,2.52-3.77,0-6.44-2.88-6.44-7.58s2.64-7.61,6.44-7.61c1.95,0,3.72.96,4.88,2.55v-7.7h2.25v19.98h-2.25ZM357.49,905.08v-6.56c-.81-1.26-2.55-2.34-4.34-2.34-2.91,0-4.64,2.4-4.64,5.6s1.74,5.57,4.64,5.57c1.8,0,3.53-1.02,4.34-2.28Z"/>
    <path d="M363.39,901.75c0-4.19,3-7.58,7.13-7.58,4.38,0,6.95,3.42,6.95,7.76v.57h-11.72c.18,2.73,2.1,5,5.21,5,1.65,0,3.33-.66,4.46-1.83l1.08,1.47c-1.44,1.44-3.38,2.22-5.75,2.22-4.28,0-7.37-3.09-7.37-7.61ZM370.49,896.03c-3.09,0-4.61,2.61-4.73,4.82h9.5c-.03-2.16-1.47-4.82-4.76-4.82Z"/>
    <path d="M379.84,907.09l1.17-1.62c.96,1.11,2.79,2.07,4.76,2.07,2.22,0,3.42-1.05,3.42-2.49,0-3.51-8.96-1.35-8.96-6.71,0-2.25,1.95-4.16,5.39-4.16,2.46,0,4.2.93,5.36,2.1l-1.05,1.56c-.87-1.05-2.46-1.83-4.31-1.83-1.98,0-3.2.99-3.2,2.28,0,3.18,8.96,1.08,8.96,6.71,0,2.43-1.95,4.38-5.69,4.38-2.37,0-4.38-.72-5.84-2.28Z"/>
    <path d="M394.64,890.97c0-.84.69-1.53,1.5-1.53s1.53.69,1.53,1.53-.69,1.5-1.53,1.5-1.5-.66-1.5-1.5ZM395.03,909v-14.47h2.25v14.47h-2.25Z"/>
    <path d="M401.74,912.72l1.14-1.68c1.2,1.44,2.64,1.98,4.7,1.98,2.4,0,4.64-1.17,4.64-4.34v-2.07c-1.05,1.47-2.81,2.58-4.85,2.58-3.77,0-6.44-2.81-6.44-7.49s2.64-7.52,6.44-7.52c1.95,0,3.68.96,4.85,2.55v-2.19h2.25v14.05c0,4.79-3.36,6.29-6.89,6.29-2.46,0-4.14-.48-5.84-2.16ZM412.22,904.84v-6.32c-.78-1.26-2.52-2.34-4.31-2.34-2.91,0-4.64,2.31-4.64,5.51s1.74,5.51,4.64,5.51c1.8,0,3.53-1.11,4.31-2.37Z"/>
    <path d="M428.73,909v-9.47c0-2.55-1.29-3.36-3.24-3.36-1.77,0-3.44,1.08-4.28,2.25v10.58h-2.25v-14.47h2.25v2.1c1.02-1.2,3-2.46,5.15-2.46,3.03,0,4.61,1.53,4.61,4.67v10.16h-2.25Z"/>
    <path d="M454.29,909l-3.92-7.1h-3.12v7.1h-4.25v-19.98h9.35c4.16,0,6.74,2.73,6.74,6.44,0,3.51-2.25,5.42-4.4,5.93l4.52,7.61h-4.91ZM454.71,895.43c0-1.65-1.29-2.67-2.96-2.67h-4.49v5.39h4.49c1.68,0,2.96-1.02,2.96-2.73Z"/>
    <path d="M462.26,909v-19.98h4.25v19.98h-4.25Z"/>
    <path d="M475.08,909v-16.24h-5.84v-3.75h15.94v3.75h-5.81v16.24h-4.28Z"/>
    <path d="M501.71,909l-1.26-3.38h-8.57l-1.26,3.38h-4.82l7.7-19.98h5.33l7.7,19.98h-4.82ZM496.17,893.28l-3.12,8.6h6.23l-3.12-8.6Z"/>
    <path d="M515.13,899.03c0-6.17,4.64-10.33,10.67-10.33,4.38,0,6.92,2.36,8.33,4.88l-3.66,1.8c-.84-1.62-2.64-2.91-4.67-2.91-3.66,0-6.29,2.79-6.29,6.56s2.64,6.56,6.29,6.56c2.04,0,3.83-1.29,4.67-2.91l3.66,1.77c-1.41,2.49-3.95,4.92-8.33,4.92-6.02,0-10.67-4.2-10.67-10.34Z"/>
    <path d="M547.97,909l-3.92-7.1h-3.12v7.1h-4.25v-19.98h9.35c4.16,0,6.74,2.73,6.74,6.44,0,3.51-2.25,5.42-4.4,5.93l4.52,7.61h-4.91ZM548.39,895.43c0-1.65-1.29-2.67-2.96-2.67h-4.49v5.39h4.49c1.68,0,2.96-1.02,2.96-2.73Z"/>
    <path d="M555.94,901v-11.98h4.31v11.86c0,2.79,1.62,4.7,4.7,4.7s4.67-1.92,4.67-4.7v-11.86h4.34v11.98c0,4.94-2.94,8.36-9.02,8.36s-9.02-3.42-9.02-8.36Z"/>
    <path d="M577.21,909v-3.45l9.44-12.79h-9.44v-3.75h15.01v3.42l-9.44,12.82h9.65v3.75h-15.22Z"/>
    <path d="M607.98,909v-16.24h-5.84v-3.75h15.94v3.75h-5.81v16.24h-4.28Z"/>
    <path d="M634.61,909l-1.26-3.38h-8.57l-1.26,3.38h-4.82l7.7-19.98h5.33l7.7,19.98h-4.82ZM629.07,893.28l-3.12,8.6h6.23l-3.12-8.6Z"/>
    <path d="M646.9,909l-7.7-19.98h4.82l5.54,15.34,5.54-15.34h4.82l-7.7,19.98h-5.33Z"/>
    <path d="M675.6,909l-1.26-3.38h-8.57l-1.26,3.38h-4.82l7.7-19.98h5.33l7.7,19.98h-4.82ZM670.06,893.28l-3.12,8.6h6.23l-3.12-8.6Z"/>
    <path d="M693.58,909l-3.92-7.1h-3.12v7.1h-4.25v-19.98h9.35c4.16,0,6.74,2.73,6.74,6.44,0,3.51-2.25,5.42-4.4,5.93l4.52,7.61h-4.91ZM694,895.43c0-1.65-1.29-2.67-2.96-2.67h-4.49v5.39h4.49c1.68,0,2.96-1.02,2.96-2.73Z"/>
    <path d="M701.55,909v-19.98h14.14v3.75h-9.89v4.19h9.68v3.75h-9.68v4.55h9.89v3.75h-14.14Z"/>
    <path d="M717.63,906.19l2.34-3.33c1.41,1.47,3.59,2.73,6.35,2.73,2.37,0,3.48-1.05,3.48-2.22,0-3.48-11.5-1.05-11.5-8.57,0-3.32,2.88-6.08,7.58-6.08,3.18,0,5.81.96,7.79,2.79l-2.37,3.18c-1.62-1.5-3.77-2.19-5.81-2.19-1.8,0-2.81.78-2.81,1.98,0,3.14,11.47,1.02,11.47,8.48,0,3.66-2.64,6.41-8,6.41-3.86,0-6.62-1.29-8.51-3.18Z"/>
    <path d="M754.1,909v-1.65c-1.2,1.32-2.85,2.01-4.79,2.01-2.46,0-5.06-1.65-5.06-4.79s2.61-4.76,5.06-4.76c1.98,0,3.62.63,4.79,1.98v-2.61c0-1.95-1.56-3.06-3.65-3.06-1.74,0-3.15.63-4.44,2.01l-1.05-1.56c1.56-1.62,3.42-2.4,5.78-2.4,3.06,0,5.6,1.38,5.6,4.88v9.95h-2.25ZM754.1,905.95v-2.73c-.87-1.2-2.4-1.8-3.98-1.8-2.1,0-3.57,1.32-3.57,3.18s1.47,3.15,3.57,3.15c1.59,0,3.12-.6,3.98-1.8Z"/>
    <path d="M770.61,909v-9.47c0-2.55-1.29-3.36-3.24-3.36-1.77,0-3.44,1.08-4.28,2.25v10.58h-2.25v-14.47h2.25v2.1c1.02-1.2,3-2.46,5.15-2.46,3.03,0,4.61,1.53,4.61,4.67v10.16h-2.25Z"/>
    <path d="M787.83,909v-2.16c-1.08,1.47-2.85,2.52-4.88,2.52-3.77,0-6.44-2.88-6.44-7.58s2.64-7.61,6.44-7.61c1.95,0,3.72.96,4.88,2.55v-7.7h2.25v19.98h-2.25ZM787.83,905.08v-6.56c-.81-1.26-2.55-2.34-4.34-2.34-2.91,0-4.64,2.4-4.64,5.6s1.74,5.57,4.64,5.57c1.8,0,3.53-1.02,4.34-2.28Z"/>
    <path d="M819.47,909v-14.41l-5.63,14.41h-1.86l-5.63-14.41v14.41h-4.25v-19.98h5.96l4.85,12.49,4.86-12.49h5.99v19.98h-4.29Z"/>
    <path d="M841.52,909l-1.26-3.38h-8.57l-1.26,3.38h-4.82l7.7-19.98h5.33l7.7,19.98h-4.82ZM835.98,893.28l-3.12,8.6h6.23l-3.12-8.6ZM836.22,887.19h-2.67l4.01-4.31h3.51l-4.85,4.31Z"/>
    <path d="M859.5,909l-3.92-7.1h-3.12v7.1h-4.25v-19.98h9.35c4.16,0,6.74,2.73,6.74,6.44,0,3.51-2.25,5.42-4.4,5.93l4.52,7.61h-4.91ZM859.92,895.43c0-1.65-1.29-2.67-2.96-2.67h-4.49v5.39h4.49c1.68,0,2.96-1.02,2.96-2.73Z"/>
    <path d="M867.47,909v-19.98h4.25v19.98h-4.25Z"/>
    <path d="M874.72,899.03c0-6.02,4.4-10.33,10.46-10.33s10.43,4.31,10.43,10.33-4.4,10.34-10.43,10.34-10.46-4.31-10.46-10.34ZM891.23,899.03c0-3.75-2.37-6.56-6.05-6.56s-6.08,2.82-6.08,6.56,2.37,6.56,6.08,6.56,6.05-2.85,6.05-6.56Z"/>
    <path d="M911.9,909l-7.7-19.98h4.82l5.54,15.34,5.54-15.34h4.82l-7.7,19.98h-5.33Z"/>
    <path d="M926.79,909v-19.98h14.14v3.75h-9.89v4.19h9.68v3.75h-9.68v4.55h9.89v3.75h-14.14Z"/>
    <path d="M944.08,909v-19.98h4.28v16.24h8.45v3.75h-12.73Z"/>
    <path d="M958.73,899.03c0-6.02,4.4-10.33,10.46-10.33s10.43,4.31,10.43,10.33-4.4,10.34-10.43,10.34-10.46-4.31-10.46-10.34ZM975.24,899.03c0-3.75-2.37-6.56-6.05-6.56s-6.08,2.82-6.08,6.56,2.37,6.56,6.08,6.56,6.05-2.85,6.05-6.56Z"/>
    <path d="M981.23,906.19l2.34-3.33c1.41,1.47,3.59,2.73,6.35,2.73,2.37,0,3.48-1.05,3.48-2.22,0-3.48-11.5-1.05-11.5-8.57,0-3.32,2.88-6.08,7.58-6.08,3.18,0,5.81.96,7.79,2.79l-2.37,3.18c-1.62-1.5-3.77-2.19-5.81-2.19-1.8,0-2.81.78-2.81,1.98,0,3.14,11.47,1.02,11.47,8.48,0,3.66-2.64,6.41-8,6.41-3.86,0-6.62-1.29-8.51-3.18Z"/>
    <path d="M999.62,899.03c0-6.02,4.4-10.33,10.46-10.33s10.43,4.31,10.43,10.33-4.4,10.34-10.43,10.34-10.46-4.31-10.46-10.34ZM1016.13,899.03c0-3.75-2.37-6.56-6.05-6.56s-6.08,2.82-6.08,6.56,2.37,6.56,6.08,6.56,6.05-2.85,6.05-6.56Z"/>
    <path d="M1034.62,902.32c-1.98,0-3.57-1.59-3.57-3.53s1.59-3.57,3.57-3.57,3.56,1.59,3.56,3.57-1.59,3.53-3.56,3.53Z"/>
  </g>
</svg>