<?xml version="1.0" encoding="UTF-8"?>
<svg id="Camada_1" data-name="Camada 1" xmlns="http://www.w3.org/2000/svg" xmlns:xlink="http://www.w3.org/1999/xlink" viewBox="0 0 1442.21 997.6">
  <defs>
    <style>
      .cls-1 {
        fill: none;
      }

      .cls-2 {
        clip-path: url(#clippath);
      }
    </style>
    <clipPath id="clippath">
      <rect class="cls-1" width="465.31" height="309.19"/>
    </clipPath>
  </defs>
  <g>
    <g>
      <path d="M150.25,462.63c0-55.4,42.97-93.23,98.64-93.23s98.64,37.83,98.64,93.23-42.97,93.23-98.64,93.23-98.64-37.83-98.64-93.23M292.13,462.63c0-25.13-17.02-45.13-43.24-45.13s-43.23,20-43.23,45.13,17.02,45.13,43.23,45.13,43.24-20,43.24-45.13"/>
      <path d="M466.14,552.62l-24.86-56.75h-19.73v56.75h-54.59v-180.25h96.21c42.15,0,64.86,28.11,64.86,61.88,0,31.08-18.11,47.56-32.43,54.59l32.7,63.78h-62.16ZM472.62,433.99c0-9.73-8.64-14.05-17.84-14.05h-33.24v28.37h33.24c9.19,0,17.84-4.32,17.84-14.32"/>
      <path d="M670.42,552.62l-6.49-21.08h-64.86l-6.49,21.08h-61.88l66.48-180.24h68.64l66.48,180.24h-61.88ZM631.5,425.88l-17.84,58.1h35.67l-17.84-58.1h.01Z"/>
      <path d="M0,765.67v-180.24h80.54c56.75,0,98.9,32.43,98.9,89.99s-42.15,90.26-98.64,90.26H0ZM124.05,675.41c0-24.32-14.06-42.43-43.24-42.43h-26.21v85.12h25.95c27.29,0,43.51-20,43.51-42.7"/>
      <path d="M311.04,765.67l-6.49-21.08h-64.86l-6.49,21.08h-61.88l66.47-180.24h68.64l66.48,180.24h-61.88.01ZM272.12,638.93l-17.83,58.1h35.67l-17.84-58.1h0Z"/>
      <path d="M451.53,765.67v-180.24h109.44c37.29,0,53.51,24.86,53.51,45.94,0,22.43-13.24,37.56-30.8,41.34,19.45,2.97,34.32,20.81,34.32,44.05,0,25.13-17.03,48.91-53.24,48.91h-113.23ZM559.09,641.09c0-6.22-5.14-10.27-10.81-10.27h-42.16v21.08h42.16c5.67,0,10.81-4.32,10.81-10.81M562.6,708.92c0-6.49-4.86-11.62-12.7-11.62h-43.78v22.97h43.78c7.84,0,12.7-4.6,12.7-11.35"/>
      <path d="M630.15,675.68c0-55.4,42.97-93.23,98.64-93.23s98.63,37.83,98.63,93.23-42.97,93.23-98.63,93.23-98.64-37.83-98.64-93.23M772.02,675.68c0-25.13-17.03-45.13-43.24-45.13s-43.24,20-43.24,45.13,17.02,45.13,43.24,45.13,43.24-20,43.24-45.13"/>
      <path d="M846.85,691.63v-106.2h55.4v104.31c0,17.3,11.35,31.08,33.78,31.08s33.51-13.78,33.51-31.08v-104.31h55.4v105.93c0,44.86-28.11,77.56-88.91,77.56s-89.18-32.7-89.18-77.29"/>
      <path d="M1109.77,809.45l8.38-17.3c7.03,4.86,14.87,8.11,22.43,8.11,5.67,0,11.35-1.89,11.35-6.49,0-2.97-2.16-4.59-5.67-4.59-2.97,0-5.4,1.35-7.02,3.24l-15.95-9.19,5.67-15.4c-49.18-5.67-84.58-41.61-84.58-92.15,0-55.67,42.7-93.23,99.18-93.23,47.29,0,71.07,27.56,81.88,52.42l-47.02,21.89c-4.59-14.05-18.65-26.21-34.86-26.21-26.21,0-43.78,20-43.78,45.13s17.56,45.13,43.78,45.13c16.21,0,30.27-12.16,34.86-26.21l47.02,21.62c-10,22.97-32.43,50-75.67,52.43l-3.52,8.65c2.7-1.62,5.67-2.43,9.19-2.43,9.73,0,18.38,8.11,18.38,19.73,0,15.4-14.59,24.05-31.89,24.05-14.32,0-26.21-4.32-32.16-9.19"/>
      <path d="M1360,765.67l-6.49-21.08h-64.86l-6.49,21.08h-61.88l66.48-180.24h68.64l66.48,180.24h-61.88ZM1321.09,638.93l-17.84,58.1h35.67l-17.84-58.1h0Z"/>
      <polygon points="0 552.62 0 372.37 136.75 372.37 136.75 419.93 54.6 419.93 54.6 437.77 134.86 437.77 134.86 485.33 54.6 485.33 54.6 552.62 0 552.62"/>
    </g>
    <g>
      <g>
        <path d="M18.79,281.58v-2.74c-1.99,2.19-4.73,3.34-7.97,3.34-4.09,0-8.42-2.74-8.42-7.97s4.34-7.92,8.42-7.92c3.29,0,6.03,1.05,7.97,3.29v-4.34c0-3.24-2.59-5.08-6.08-5.08-2.89,0-5.23,1.05-7.38,3.34l-1.74-2.59c2.59-2.69,5.68-3.99,9.62-3.99,5.08,0,9.32,2.29,9.32,8.12v16.54h-3.74ZM18.79,276.5v-4.53c-1.44-1.99-3.99-2.99-6.63-2.99-3.49,0-5.93,2.19-5.93,5.28s2.44,5.23,5.93,5.23c2.64,0,5.18-1,6.63-2.99h0Z"/>
        <path d="M43.91,281.58v-20.78h-3.99v-3.29h3.99v-1.84c0-4.98,2.79-7.82,6.98-7.82,1.39,0,2.69.25,3.64.85l-.95,2.84c-.55-.35-1.2-.6-2.14-.6-2.44,0-3.79,1.7-3.79,4.73v1.84h4.88v3.29h-4.88v20.78s-3.74,0-3.74,0ZM56.32,251.58c0-1.4,1.15-2.54,2.49-2.54s2.54,1.15,2.54,2.54-1.15,2.49-2.54,2.49-2.49-1.1-2.49-2.49ZM56.97,281.58v-24.07h3.74v24.07h-3.74Z"/>
        <path d="M68.23,281.58v-33.24h3.74v33.24h-3.74Z"/>
        <path d="M108.5,281.58v-16.35c0-3.04-1.35-4.98-4.44-4.98-2.49,0-5.13,1.79-6.38,3.69v17.64h-3.74v-16.35c0-3.04-1.3-4.98-4.44-4.98-2.44,0-5.03,1.79-6.33,3.74v17.59h-3.74v-24.07h3.74v3.49c1-1.54,4.23-4.09,7.77-4.09s5.78,1.99,6.48,4.48c1.35-2.19,4.58-4.48,8.07-4.48,4.38,0,6.73,2.44,6.73,7.27v17.39h-3.74.02Z"/>
        <path d="M132.57,281.58v-33.24h3.74v12.81c1.94-2.64,4.83-4.24,8.12-4.24,6.28,0,10.71,4.98,10.71,12.66s-4.43,12.61-10.71,12.61c-3.39,0-6.33-1.74-8.12-4.19v3.59h-3.74ZM143.49,278.84c4.88,0,7.77-3.94,7.77-9.27s-2.89-9.32-7.77-9.32c-2.94,0-5.88,1.79-7.18,3.89v10.91c1.3,2.09,4.23,3.79,7.18,3.79h0Z"/>
        <path d="M160.48,287.61c.55.25,1.44.4,2.04.4,1.64,0,2.74-.55,3.59-2.54l1.6-3.64-10.07-24.32h4.04l8.02,19.73,7.97-19.73h4.09l-12.06,28.95c-1.45,3.49-3.89,4.83-7.08,4.88-.8,0-2.04-.15-2.74-.35l.6-3.39h0Z"/>
      </g>
      <g>
        <path d="M32.2,335.35v-23.97l-9.37,23.97h-3.09l-9.37-23.97v23.97H3.29v-33.24h9.92l8.07,20.78,8.07-20.78h9.97v33.24h-7.13.01Z"/>
        <path d="M68.88,335.35l-2.09-5.63h-14.25l-2.09,5.63h-8.02l12.81-33.24h8.87l12.81,33.24h-8.04ZM59.66,309.19l-5.18,14.3h10.37l-5.18-14.3h0ZM60.06,299.08h-4.44l6.68-7.18h5.83l-8.07,7.18h0Z"/>
        <path d="M98.78,335.35l-6.53-11.81h-5.18v11.81h-7.08v-33.24h15.55c6.93,0,11.21,4.54,11.21,10.71,0,5.83-3.74,9.02-7.32,9.87l7.52,12.66h-8.17ZM99.48,312.78c0-2.74-2.14-4.44-4.93-4.44h-7.47v8.97h7.47c2.79,0,4.93-1.69,4.93-4.53Z"/>
        <path d="M112.04,335.35v-33.24h7.07v33.24h-7.07Z"/>
        <path d="M124.1,318.76c0-10.02,7.33-17.19,17.39-17.19s17.34,7.18,17.34,17.19-7.33,17.19-17.34,17.19-17.39-7.18-17.39-17.19ZM151.56,318.76c0-6.23-3.94-10.91-10.07-10.91s-10.12,4.68-10.12,10.91,3.94,10.91,10.12,10.91,10.07-4.73,10.07-10.91Z"/>
        <path d="M185.95,335.35l-12.81-33.24h8.02l9.22,25.51,9.22-25.51h8.02l-12.81,33.24h-8.87,0,0Z"/>
        <path d="M210.72,335.35v-33.24h23.52v6.23h-16.44v6.98h16.1v6.23h-16.1v7.57h16.44v6.23h-23.52Z"/>
        <path d="M239.47,335.35v-33.24h7.13v27.01h14.05v6.23h-21.18Z"/>
        <path d="M262.5,318.76c0-10.02,7.32-17.19,17.39-17.19s17.34,7.18,17.34,17.19-7.32,17.19-17.34,17.19-17.39-7.18-17.39-17.19ZM289.95,318.76c0-6.23-3.94-10.91-10.07-10.91s-10.12,4.68-10.12,10.91,3.94,10.91,10.12,10.91,10.07-4.73,10.07-10.91Z"/>
        <path d="M299.93,330.67l3.89-5.53c2.34,2.44,5.98,4.53,10.56,4.53,3.94,0,5.78-1.74,5.78-3.69,0-5.78-19.14-1.74-19.14-14.25,0-5.53,4.78-10.12,12.61-10.12,5.28,0,9.67,1.59,12.96,4.63l-3.94,5.28c-2.69-2.49-6.28-3.64-9.67-3.64-2.99,0-4.68,1.3-4.68,3.29,0,5.23,19.08,1.69,19.08,14.1,0,6.08-4.38,10.66-13.31,10.66-6.43,0-11.01-2.14-14.15-5.28v.02h.01Z"/>
        <path d="M330.52,318.76c0-10.02,7.33-17.19,17.39-17.19s17.34,7.18,17.34,17.19-7.33,17.19-17.34,17.19-17.39-7.18-17.39-17.19h0ZM357.98,318.76c0-6.23-3.94-10.91-10.07-10.91s-10.12,4.68-10.12,10.91,3.94,10.91,10.12,10.91,10.07-4.73,10.07-10.91Z"/>
      </g>
    </g>
    <g>
      <path d="M14.78,883.86l-3.77-11.62-3.77,11.62h-2.25l-4.62-14.47h2.34l3.54,11.54,3.8-11.54h1.92l3.81,11.54,3.53-11.54h2.34l-4.61,14.47h-2.26Z"/>
      <path d="M23.86,865.83c0-.84.69-1.53,1.5-1.53s1.53.69,1.53,1.53-.69,1.5-1.53,1.5-1.5-.66-1.5-1.5ZM24.25,883.86v-14.47h2.25v14.47h-2.25Z"/>
      <path d="M31.44,880.84v-9.47h-2.4v-1.98h2.4v-3.95h2.25v3.95h2.94v1.98h-2.94v8.99c0,1.08.48,1.86,1.47,1.86.63,0,1.23-.27,1.53-.6l.66,1.68c-.57.54-1.38.93-2.7.93-2.13,0-3.21-1.23-3.21-3.39Z"/>
      <path d="M49.59,883.86v-9.53c0-2.55-1.32-3.29-3.27-3.29-1.74,0-3.42,1.08-4.28,2.25v10.58h-2.25v-19.98h2.25v7.61c1.02-1.2,3-2.46,5.18-2.46,3.03,0,4.61,1.47,4.61,4.62v10.22h-2.25v-.02h0Z"/>
      <path d="M62.84,873.89c0-6.17,4.64-10.33,10.67-10.33,4.38,0,6.92,2.36,8.33,4.88l-3.66,1.8c-.84-1.62-2.64-2.91-4.67-2.91-3.66,0-6.29,2.79-6.29,6.56s2.64,6.56,6.29,6.56c2.04,0,3.83-1.29,4.67-2.91l3.66,1.77c-1.41,2.49-3.95,4.92-8.33,4.92-6.02,0-10.67-4.2-10.67-10.34Z"/>
      <path d="M98.19,883.86l-1.26-3.38h-8.57l-1.26,3.38h-4.82l7.7-19.98h5.33l7.7,19.98h-4.82,0ZM92.65,868.14l-3.12,8.6h6.23l-3.12-8.6h.01Z"/>
      <path d="M109.49,883.86v-16.24h-5.84v-3.75h15.94v3.75h-5.81v16.24h-4.29Z"/>
      <path d="M136.12,883.86l-1.26-3.38h-8.57l-1.26,3.38h-4.82l7.7-19.98h5.33l7.7,19.98h-4.82,0ZM130.58,868.14l-3.12,8.6h6.23l-3.12-8.6h0Z"/>
      <path d="M154.1,883.86l-3.92-7.1h-3.12v7.1h-4.25v-19.98h9.35c4.16,0,6.74,2.73,6.74,6.44,0,3.51-2.25,5.42-4.4,5.93l4.52,7.61h-4.92ZM154.52,870.29c0-1.65-1.29-2.67-2.96-2.67h-4.49v5.39h4.49c1.68,0,2.96-1.02,2.96-2.73h0Z"/>
      <path d="M162.07,883.86v-19.98h4.25v19.98h-4.25Z"/>
      <path d="M184.06,883.86l-9.53-13.03v13.03h-4.25v-19.98h4.37l9.26,12.55v-12.55h4.25v19.98h-4.1,0Z"/>
      <path d="M205.93,883.86l-1.26-3.38h-8.57l-1.26,3.38h-4.82l7.7-19.98h5.33l7.7,19.98h-4.82ZM200.38,868.14l-3.12,8.6h6.23l-3.12-8.6h0Z"/>
      <path d="M237.68,883.86v-14.41l-5.63,14.41h-1.86l-5.63-14.41v14.41h-4.25v-19.98h5.96l4.85,12.49,4.86-12.49h5.99v19.98h-4.29Z"/>
      <path d="M244.97,873.89c0-6.02,4.4-10.33,10.46-10.33s10.43,4.31,10.43,10.33-4.4,10.34-10.43,10.34-10.46-4.31-10.46-10.34h0ZM261.47,873.89c0-3.75-2.37-6.56-6.05-6.56s-6.08,2.82-6.08,6.56,2.37,6.56,6.08,6.56,6.05-2.85,6.05-6.56Z"/>
      <path d="M282.63,883.86l-9.53-13.03v13.03h-4.25v-19.98h4.37l9.26,12.55v-12.55h4.25v19.98h-4.1Z"/>
      <path d="M295.3,883.86v-16.24h-5.84v-3.75h15.94v3.75h-5.81v16.24h-4.29Z"/>
      <path d="M308.12,883.86v-19.98h14.14v3.75h-9.89v4.19h9.68v3.75h-9.68v4.55h9.89v3.75h-14.14Z"/>
      <path d="M325.59,883.86v-19.98h4.25v19.98h-4.25Z"/>
      <path d="M345.09,883.86l-3.92-7.1h-3.12v7.1h-4.25v-19.98h9.35c4.16,0,6.74,2.73,6.74,6.44,0,3.51-2.25,5.42-4.4,5.93l4.52,7.61h-4.92,0ZM345.51,870.29c0-1.65-1.29-2.67-2.96-2.67h-4.49v5.39h4.49c1.68,0,2.96-1.02,2.96-2.73h0Z"/>
      <path d="M352.1,873.89c0-6.02,4.4-10.33,10.46-10.33s10.43,4.31,10.43,10.33-4.4,10.34-10.43,10.34-10.46-4.31-10.46-10.34ZM368.61,873.89c0-3.75-2.37-6.56-6.05-6.56s-6.08,2.82-6.08,6.56,2.37,6.56,6.08,6.56,6.05-2.85,6.05-6.56Z"/>
      <path d="M393,883.86v-1.65c-1.2,1.32-2.85,2.01-4.79,2.01-2.46,0-5.06-1.65-5.06-4.79s2.61-4.76,5.06-4.76c1.98,0,3.62.63,4.79,1.98v-2.61c0-1.95-1.56-3.06-3.65-3.06-1.74,0-3.15.63-4.44,2.01l-1.05-1.56c1.56-1.62,3.42-2.4,5.78-2.4,3.06,0,5.6,1.38,5.6,4.88v9.95h-2.25.01,0ZM393,880.81v-2.73c-.87-1.2-2.4-1.8-3.98-1.8-2.1,0-3.57,1.32-3.57,3.18s1.47,3.15,3.57,3.15c1.59,0,3.12-.6,3.98-1.8h0Z"/>
      <path d="M409.51,883.86v-9.47c0-2.55-1.29-3.36-3.24-3.36-1.77,0-3.44,1.08-4.28,2.25v10.58h-2.25v-14.47h2.25v2.1c1.02-1.2,3-2.46,5.15-2.46,3.03,0,4.61,1.53,4.61,4.67v10.16h-2.25.01Z"/>
      <path d="M426.73,883.86v-2.16c-1.08,1.47-2.85,2.52-4.88,2.52-3.77,0-6.44-2.88-6.44-7.58s2.64-7.61,6.44-7.61c1.95,0,3.72.96,4.88,2.55v-7.7h2.25v19.98h-2.25ZM426.73,879.94v-6.56c-.81-1.26-2.55-2.34-4.34-2.34-2.91,0-4.64,2.4-4.64,5.6s1.74,5.57,4.64,5.57c1.8,0,3.53-1.02,4.34-2.28h0Z"/>
      <path d="M440.04,873.89c0-6.17,4.64-10.33,10.67-10.33,4.38,0,6.92,2.36,8.33,4.88l-3.66,1.8c-.84-1.62-2.64-2.91-4.67-2.91-3.66,0-6.29,2.79-6.29,6.56s2.64,6.56,6.29,6.56c2.04,0,3.83-1.29,4.67-2.91l3.66,1.77c-1.41,2.49-3.95,4.92-8.33,4.92-6.02,0-10.67-4.2-10.67-10.34Z"/>
      <path d="M475.39,883.86l-1.26-3.38h-8.57l-1.26,3.38h-4.82l7.7-19.98h5.33l7.7,19.98h-4.82,0ZM469.85,868.14l-3.12,8.6h6.23l-3.12-8.6h.01,0Z"/>
      <path d="M486.69,883.86v-16.24h-5.84v-3.75h15.94v3.75h-5.81v16.24h-4.29Z"/>
      <path d="M513.32,883.86l-1.26-3.38h-8.57l-1.26,3.38h-4.82l7.7-19.98h5.33l7.7,19.98h-4.82,0ZM507.78,868.14l-3.12,8.6h6.23l-3.12-8.6h.01,0Z"/>
      <path d="M531.3,883.86l-3.92-7.1h-3.12v7.1h-4.25v-19.98h9.35c4.16,0,6.74,2.73,6.74,6.44,0,3.51-2.25,5.42-4.4,5.93l4.52,7.61h-4.92ZM531.71,870.29c0-1.65-1.29-2.67-2.96-2.67h-4.49v5.39h4.49c1.68,0,2.96-1.02,2.96-2.73h0Z"/>
      <path d="M539.27,883.86v-19.98h4.25v19.98h-4.25Z"/>
      <path d="M561.25,883.86l-9.53-13.03v13.03h-4.25v-19.98h4.37l9.26,12.55v-12.55h4.25v19.98h-4.1Z"/>
      <path d="M583.12,883.86l-1.26-3.38h-8.57l-1.26,3.38h-4.82l7.7-19.98h5.33l7.7,19.98h-4.82ZM577.58,868.14l-3.12,8.6h6.23l-3.12-8.6h.01Z"/>
      <path d="M596.55,873.89c0-6.17,4.64-10.33,10.67-10.33,4.38,0,6.92,2.36,8.33,4.88l-3.66,1.8c-.84-1.62-2.64-2.91-4.67-2.91-3.66,0-6.29,2.79-6.29,6.56s2.64,6.56,6.29,6.56c2.04,0,3.83-1.29,4.67-2.91l3.66,1.77c-1.41,2.49-3.95,4.92-8.33,4.92-6.02,0-10.67-4.2-10.67-10.34Z"/>
      <path d="M618.09,875.86v-11.98h4.31v11.86c0,2.79,1.62,4.7,4.7,4.7s4.67-1.92,4.67-4.7v-11.86h4.34v11.98c0,4.94-2.94,8.36-9.02,8.36s-9.02-3.42-9.02-8.36h.02Z"/>
      <path d="M653.86,883.86l-9.53-13.03v13.03h-4.25v-19.98h4.37l9.26,12.55v-12.55h4.25v19.98h-4.1Z"/>
      <path d="M675.61,883.86v-8.42h-9.44v8.42h-4.25v-19.98h4.25v7.85h9.44v-7.85h4.28v19.98h-4.28Z"/>
      <path d="M697.63,883.86l-1.26-3.38h-8.57l-1.26,3.38h-4.82l7.7-19.98h5.33l7.7,19.98h-4.82ZM692.09,868.14l-3.12,8.6h6.23l-3.12-8.6h.01Z"/>
      <path d="M712.01,883.86v-19.98h14.14v3.75h-9.89v4.19h9.68v3.75h-9.68v8.3h-4.25Z"/>
      <path d="M729.12,883.86v-19.98h14.14v3.75h-9.89v4.19h9.68v3.75h-9.68v4.55h9.89v3.75h-14.14Z"/>
      <path d="M757.88,883.86l-3.92-7.1h-3.12v7.1h-4.25v-19.98h9.35c4.16,0,6.74,2.73,6.74,6.44,0,3.51-2.25,5.42-4.4,5.93l4.52,7.61h-4.92ZM758.3,870.29c0-1.65-1.29-2.67-2.96-2.67h-4.49v5.39h4.49c1.68,0,2.96-1.02,2.96-2.73h0Z"/>
      <path d="M777.15,883.86l-3.92-7.1h-3.12v7.1h-4.25v-19.98h9.35c4.16,0,6.74,2.73,6.74,6.44,0,3.51-2.25,5.42-4.4,5.93l4.52,7.61h-4.92ZM777.57,870.29c0-1.65-1.29-2.67-2.96-2.67h-4.49v5.39h4.49c1.68,0,2.96-1.02,2.96-2.73h0Z"/>
      <path d="M785.12,883.86v-19.98h14.14v3.75h-9.89v4.19h9.68v3.75h-9.68v4.55h9.89v3.75h-14.14Z"/>
      <path d="M802.59,883.86v-19.98h4.25v19.98h-4.25Z"/>
      <path d="M822.09,883.86l-3.92-7.1h-3.12v7.1h-4.25v-19.98h9.35c4.16,0,6.74,2.73,6.74,6.44,0,3.51-2.25,5.42-4.4,5.93l4.52,7.61h-4.92ZM822.51,870.29c0-1.65-1.29-2.67-2.96-2.67h-4.49v5.39h4.49c1.68,0,2.96-1.02,2.96-2.73h0Z"/>
      <path d="M843.87,883.86l-1.26-3.38h-8.57l-1.26,3.38h-4.82l7.7-19.98h5.33l7.7,19.98h-4.82ZM838.33,868.14l-3.12,8.6h6.23l-3.12-8.6h.01Z"/>
      <path d="M861.67,877.18c-1.98,0-3.57-1.59-3.57-3.53s1.59-3.57,3.57-3.57,3.56,1.59,3.56,3.57-1.59,3.53-3.56,3.53Z"/>
      <path d="M887.43,883.86v-2.16c-1.08,1.47-2.85,2.52-4.88,2.52-3.77,0-6.44-2.88-6.44-7.58s2.64-7.61,6.44-7.61c1.95,0,3.72.96,4.88,2.55v-7.7h2.25v19.98h-2.25ZM887.43,879.94v-6.56c-.81-1.26-2.55-2.34-4.34-2.34-2.91,0-4.64,2.4-4.64,5.6s1.74,5.57,4.64,5.57c1.8,0,3.53-1.02,4.34-2.28h0Z"/>
      <path d="M893.78,865.83c0-.84.69-1.53,1.5-1.53s1.53.69,1.53,1.53-.69,1.5-1.53,1.5-1.5-.66-1.5-1.5ZM894.17,883.86v-14.47h2.25v14.47h-2.25Z"/>
      <path d="M900.91,883.86v-14.47h2.25v2.34c1.17-1.53,2.85-2.64,4.82-2.64v2.31c-.27-.06-.54-.09-.9-.09-1.38,0-3.27,1.14-3.92,2.31v10.25h-2.25Z"/>
      <path d="M909.96,876.61c0-4.19,3-7.58,7.13-7.58,4.38,0,6.95,3.42,6.95,7.76v.57h-11.72c.18,2.73,2.1,5,5.21,5,1.65,0,3.33-.66,4.46-1.83l1.08,1.47c-1.44,1.44-3.38,2.22-5.75,2.22-4.28,0-7.37-3.09-7.37-7.61h.01,0ZM917.06,870.89c-3.09,0-4.61,2.61-4.73,4.82h9.5c-.03-2.16-1.47-4.82-4.76-4.82h-.01Z"/>
      <path d="M926.83,876.61c0-4.28,2.91-7.58,7.22-7.58,2.64,0,4.19,1.08,5.3,2.52l-1.5,1.38c-.96-1.32-2.19-1.89-3.68-1.89-3.09,0-5,2.37-5,5.57s1.92,5.6,5,5.6c1.5,0,2.73-.6,3.68-1.89l1.5,1.38c-1.11,1.44-2.67,2.52-5.3,2.52-4.31,0-7.22-3.3-7.22-7.61Z"/>
      <path d="M942.95,880.84v-9.47h-2.4v-1.98h2.4v-3.95h2.25v3.95h2.94v1.98h-2.94v8.99c0,1.08.48,1.86,1.47,1.86.63,0,1.23-.27,1.53-.6l.66,1.68c-.57.54-1.38.93-2.7.93-2.13,0-3.21-1.23-3.21-3.39h0Z"/>
      <path d="M950.92,865.83c0-.84.69-1.53,1.5-1.53s1.53.69,1.53,1.53-.69,1.5-1.53,1.5-1.5-.66-1.5-1.5ZM951.31,883.86v-14.47h2.25v14.47h-2.25Z"/>
      <path d="M967.82,883.86v-9.47c0-2.55-1.29-3.36-3.24-3.36-1.77,0-3.44,1.08-4.28,2.25v10.58h-2.25v-14.47h2.25v2.1c1.02-1.2,3-2.46,5.15-2.46,3.03,0,4.61,1.53,4.61,4.67v10.16h-2.25.01Z"/>
      <path d="M974.53,887.58l1.14-1.68c1.2,1.44,2.64,1.98,4.7,1.98,2.4,0,4.64-1.17,4.64-4.34v-2.07c-1.05,1.47-2.81,2.58-4.85,2.58-3.77,0-6.44-2.81-6.44-7.49s2.64-7.52,6.44-7.52c1.95,0,3.68.96,4.85,2.55v-2.19h2.25v14.05c0,4.79-3.36,6.29-6.89,6.29-2.46,0-4.14-.48-5.84-2.16h0ZM985.01,879.7v-6.32c-.78-1.26-2.52-2.34-4.31-2.34-2.91,0-4.64,2.31-4.64,5.51s1.74,5.51,4.64,5.51c1.8,0,3.53-1.11,4.31-2.37h0Z"/>
      <path d="M1008.53,883.86v-1.65c-1.2,1.32-2.85,2.01-4.79,2.01-2.46,0-5.06-1.65-5.06-4.79s2.61-4.76,5.06-4.76c1.98,0,3.62.63,4.79,1.98v-2.61c0-1.95-1.56-3.06-3.65-3.06-1.74,0-3.15.63-4.44,2.01l-1.05-1.56c1.56-1.62,3.42-2.4,5.78-2.4,3.06,0,5.6,1.38,5.6,4.88v9.95h-2.25.01ZM1008.53,880.81v-2.73c-.87-1.2-2.4-1.8-3.98-1.8-2.1,0-3.57,1.32-3.57,3.18s1.47,3.15,3.57,3.15c1.59,0,3.12-.6,3.98-1.8h0Z"/>
      <path d="M1025.04,883.86v-9.47c0-2.55-1.29-3.36-3.24-3.36-1.77,0-3.44,1.08-4.28,2.25v10.58h-2.25v-14.47h2.25v2.1c1.02-1.2,3-2.46,5.15-2.46,3.03,0,4.61,1.53,4.61,4.67v10.16h-2.25.01Z"/>
      <path d="M1042.27,883.86v-2.16c-1.08,1.47-2.85,2.52-4.88,2.52-3.77,0-6.44-2.88-6.44-7.58s2.64-7.61,6.44-7.61c1.95,0,3.72.96,4.88,2.55v-7.7h2.25v19.98h-2.25ZM1042.27,879.94v-6.56c-.81-1.26-2.55-2.34-4.34-2.34-2.91,0-4.64,2.4-4.64,5.6s1.74,5.57,4.64,5.57c1.8,0,3.53-1.02,4.34-2.28h0Z"/>
      <path d="M1058.99,881.68v7.7h-2.25v-19.98h2.25v2.16c1.05-1.47,2.85-2.52,4.88-2.52,3.81,0,6.44,2.88,6.44,7.58s-2.64,7.61-6.44,7.61c-1.98,0-3.71-.93-4.88-2.55ZM1067.94,876.61c0-3.21-1.74-5.57-4.64-5.57-1.77,0-3.54,1.05-4.31,2.31v6.53c.78,1.26,2.55,2.34,4.31,2.34,2.91,0,4.64-2.4,4.64-5.6h0Z"/>
      <path d="M1073.88,883.86v-14.47h2.25v2.34c1.17-1.53,2.85-2.64,4.82-2.64v2.31c-.27-.06-.54-.09-.9-.09-1.38,0-3.27,1.14-3.92,2.31v10.25h-2.25,0Z"/>
      <path d="M1082.93,876.61c0-4.19,2.76-7.58,7.16-7.58s7.16,3.39,7.16,7.58-2.76,7.61-7.16,7.61-7.16-3.42-7.16-7.61ZM1094.88,876.61c0-2.94-1.71-5.57-4.79-5.57s-4.82,2.64-4.82,5.57,1.74,5.6,4.82,5.6,4.79-2.64,4.79-5.6Z"/>
      <path d="M1111.39,883.86v-2.16c-1.08,1.47-2.85,2.52-4.88,2.52-3.77,0-6.44-2.88-6.44-7.58s2.64-7.61,6.44-7.61c1.95,0,3.72.96,4.88,2.55v-7.7h2.25v19.98h-2.25ZM1111.39,879.94v-6.56c-.81-1.26-2.55-2.34-4.34-2.34-2.91,0-4.64,2.4-4.64,5.6s1.74,5.57,4.64,5.57c1.8,0,3.53-1.02,4.34-2.28h0Z"/>
      <path d="M1127.9,883.86v-2.04c-1.11,1.26-3,2.4-5.15,2.4-3.03,0-4.61-1.47-4.61-4.62v-10.22h2.25v9.53c0,2.55,1.29,3.3,3.24,3.3,1.77,0,3.44-1.02,4.28-2.19v-10.64h2.25v14.47h-2.26Z"/>
      <path d="M1133.8,876.61c0-4.28,2.91-7.58,7.22-7.58,2.64,0,4.19,1.08,5.3,2.52l-1.5,1.38c-.96-1.32-2.19-1.89-3.68-1.89-3.09,0-5,2.37-5,5.57s1.92,5.6,5,5.6c1.5,0,2.73-.6,3.68-1.89l1.5,1.38c-1.11,1.44-2.67,2.52-5.3,2.52-4.31,0-7.22-3.3-7.22-7.61Z"/>
      <path d="M1149.92,880.84v-9.47h-2.4v-1.98h2.4v-3.95h2.25v3.95h2.94v1.98h-2.94v8.99c0,1.08.48,1.86,1.47,1.86.63,0,1.23-.27,1.53-.6l.66,1.68c-.57.54-1.38.93-2.7.93-2.13,0-3.21-1.23-3.21-3.39h0Z"/>
      <path d="M1157.89,865.83c0-.84.69-1.53,1.5-1.53s1.53.69,1.53,1.53-.69,1.5-1.53,1.5-1.5-.66-1.5-1.5ZM1158.28,883.86v-14.47h2.25v14.47h-2.25Z"/>
      <path d="M1164.18,876.61c0-4.19,2.76-7.58,7.16-7.58s7.16,3.39,7.16,7.58-2.76,7.61-7.16,7.61-7.16-3.42-7.16-7.61ZM1176.13,876.61c0-2.94-1.71-5.57-4.79-5.57s-4.82,2.64-4.82,5.57,1.74,5.6,4.82,5.6,4.79-2.64,4.79-5.6Z"/>
      <path d="M1191.92,883.86v-9.47c0-2.55-1.29-3.36-3.24-3.36-1.77,0-3.44,1.08-4.28,2.25v10.58h-2.25v-14.47h2.25v2.1c1.02-1.2,3-2.46,5.15-2.46,3.03,0,4.61,1.53,4.61,4.67v10.16h-2.25.01Z"/>
      <path d="M1223.5,883.86v-14.41l-5.63,14.41h-1.86l-5.63-14.41v14.41h-4.25v-19.98h5.96l4.85,12.49,4.86-12.49h5.99v19.98h-4.29,0Z"/>
      <path d="M1245.55,883.86l-1.26-3.38h-8.57l-1.26,3.38h-4.82l7.7-19.98h5.33l7.7,19.98h-4.82ZM1240.01,868.14l-3.12,8.6h6.23l-3.12-8.6h.01ZM1240.25,862.05h-2.67l4.01-4.31h3.51l-4.85,4.31Z"/>
      <path d="M1263.53,883.86l-3.92-7.1h-3.12v7.1h-4.25v-19.98h9.35c4.16,0,6.74,2.73,6.74,6.44,0,3.51-2.25,5.42-4.4,5.93l4.52,7.61h-4.92,0ZM1263.95,870.29c0-1.65-1.29-2.67-2.96-2.67h-4.49v5.39h4.49c1.68,0,2.96-1.02,2.96-2.73h0Z"/>
      <path d="M1271.5,883.86v-19.98h4.25v19.98h-4.25Z"/>
      <path d="M1278.75,873.89c0-6.02,4.4-10.33,10.46-10.33s10.43,4.31,10.43,10.33-4.4,10.34-10.43,10.34-10.46-4.31-10.46-10.34ZM1295.26,873.89c0-3.75-2.37-6.56-6.05-6.56s-6.08,2.82-6.08,6.56,2.37,6.56,6.08,6.56,6.05-2.85,6.05-6.56Z"/>
      <path d="M1315.93,883.86l-7.7-19.98h4.82l5.54,15.34,5.54-15.34h4.82l-7.7,19.98h-5.33,0Z"/>
      <path d="M1330.82,883.86v-19.98h14.14v3.75h-9.89v4.19h9.68v3.75h-9.68v4.55h9.89v3.75h-14.14Z"/>
      <path d="M1348.11,883.86v-19.98h4.28v16.24h8.45v3.75h-12.73Z"/>
      <path d="M1362.76,873.89c0-6.02,4.4-10.33,10.46-10.33s10.43,4.31,10.43,10.33-4.4,10.34-10.43,10.34-10.46-4.31-10.46-10.34ZM1379.27,873.89c0-3.75-2.37-6.56-6.05-6.56s-6.08,2.82-6.08,6.56,2.37,6.56,6.08,6.56,6.05-2.85,6.05-6.56Z"/>
      <path d="M1385.26,881.05l2.34-3.33c1.41,1.47,3.59,2.73,6.35,2.73,2.37,0,3.48-1.05,3.48-2.22,0-3.48-11.5-1.05-11.5-8.57,0-3.32,2.88-6.08,7.58-6.08,3.18,0,5.81.96,7.79,2.79l-2.37,3.18c-1.62-1.5-3.77-2.19-5.81-2.19-1.8,0-2.81.78-2.81,1.98,0,3.14,11.47,1.02,11.47,8.48,0,3.66-2.64,6.41-8,6.41-3.86,0-6.62-1.29-8.51-3.18h0Z"/>
      <path d="M1403.65,873.89c0-6.02,4.4-10.33,10.46-10.33s10.43,4.31,10.43,10.33-4.4,10.34-10.43,10.34-10.46-4.31-10.46-10.34ZM1420.16,873.89c0-3.75-2.37-6.56-6.05-6.56s-6.08,2.82-6.08,6.56,2.37,6.56,6.08,6.56,6.05-2.85,6.05-6.56Z"/>
      <path d="M1438.65,877.18c-1.98,0-3.57-1.59-3.57-3.53s1.59-3.57,3.57-3.57,3.56,1.59,3.56,3.57-1.59,3.53-3.56,3.53Z"/>
      <path d="M1.42,912.57c0-4.28,2.91-7.58,7.22-7.58,2.64,0,4.19,1.08,5.3,2.52l-1.5,1.38c-.96-1.32-2.19-1.89-3.68-1.89-3.09,0-5,2.37-5,5.57s1.92,5.6,5,5.6c1.5,0,2.73-.6,3.68-1.89l1.5,1.38c-1.11,1.44-2.67,2.52-5.3,2.52-4.31,0-7.22-3.3-7.22-7.61Z"/>
      <path d="M16.7,901.78c0-.84.69-1.53,1.5-1.53s1.53.69,1.53,1.53-.69,1.5-1.53,1.5-1.5-.66-1.5-1.5ZM17.09,919.82v-14.47h2.25v14.47h-2.25Z"/>
      <path d="M33.6,919.82v-9.47c0-2.55-1.29-3.36-3.24-3.36-1.77,0-3.44,1.08-4.28,2.25v10.58h-2.25v-14.47h2.25v2.1c1.02-1.2,3-2.46,5.15-2.46,3.03,0,4.61,1.53,4.61,4.67v10.16h-2.25.01Z"/>
      <path d="M39.5,912.57c0-4.19,3-7.58,7.13-7.58,4.38,0,6.95,3.42,6.95,7.76v.57h-11.72c.18,2.73,2.1,5,5.21,5,1.65,0,3.33-.66,4.46-1.83l1.08,1.47c-1.44,1.44-3.38,2.22-5.75,2.22-4.28,0-7.37-3.09-7.37-7.61h0ZM46.6,906.84c-3.09,0-4.61,2.61-4.73,4.82h9.5c-.03-2.16-1.47-4.82-4.76-4.82h-.01Z"/>
      <path d="M74.67,919.82v-9.83c0-1.83-.81-3-2.67-3-1.5,0-3.09,1.08-3.83,2.22v10.61h-2.25v-9.83c0-1.83-.78-3-2.67-3-1.47,0-3.03,1.08-3.81,2.25v10.58h-2.25v-14.47h2.25v2.1c.6-.93,2.55-2.46,4.67-2.46s3.48,1.2,3.9,2.7c.81-1.32,2.76-2.7,4.85-2.7,2.64,0,4.04,1.47,4.04,4.37v10.46h-2.25.02Z"/>
      <path d="M90.46,919.82v-1.65c-1.2,1.32-2.85,2.01-4.79,2.01-2.46,0-5.06-1.65-5.06-4.79s2.61-4.76,5.06-4.76c1.98,0,3.62.63,4.79,1.98v-2.61c0-1.95-1.56-3.06-3.65-3.06-1.74,0-3.15.63-4.44,2.01l-1.05-1.56c1.56-1.62,3.42-2.4,5.78-2.4,3.06,0,5.6,1.38,5.6,4.88v9.95h-2.25.01ZM90.46,916.76v-2.73c-.87-1.2-2.4-1.8-3.98-1.8-2.1,0-3.57,1.32-3.57,3.18s1.47,3.15,3.57,3.15c1.59,0,3.12-.6,3.98-1.8h0Z"/>
      <path d="M97.65,916.79v-9.47h-2.4v-1.98h2.4v-3.95h2.25v3.95h2.94v1.98h-2.94v8.99c0,1.08.48,1.86,1.47,1.86.63,0,1.23-.27,1.53-.6l.66,1.68c-.57.54-1.38.93-2.7.93-2.13,0-3.21-1.23-3.21-3.39Z"/>
      <path d="M105.17,912.57c0-4.19,2.76-7.58,7.16-7.58s7.16,3.39,7.16,7.58-2.76,7.61-7.16,7.61-7.16-3.42-7.16-7.61ZM117.13,912.57c0-2.94-1.71-5.57-4.79-5.57s-4.82,2.64-4.82,5.57,1.74,5.6,4.82,5.6,4.79-2.64,4.79-5.6Z"/>
      <path d="M123.12,923.53l1.14-1.68c1.2,1.44,2.64,1.98,4.7,1.98,2.4,0,4.64-1.17,4.64-4.34v-2.07c-1.05,1.47-2.81,2.58-4.85,2.58-3.77,0-6.44-2.81-6.44-7.49s2.64-7.52,6.44-7.52c1.95,0,3.68.96,4.85,2.55v-2.19h2.25v14.05c0,4.79-3.36,6.29-6.89,6.29-2.46,0-4.14-.48-5.84-2.16h0ZM133.61,915.65v-6.32c-.78-1.26-2.52-2.34-4.31-2.34-2.91,0-4.64,2.31-4.64,5.51s1.74,5.51,4.64,5.51c1.8,0,3.53-1.11,4.31-2.37h0Z"/>
      <path d="M140.35,919.82v-14.47h2.25v2.34c1.17-1.53,2.85-2.64,4.82-2.64v2.31c-.27-.06-.54-.09-.9-.09-1.38,0-3.27,1.14-3.92,2.31v10.25h-2.25Z"/>
      <path d="M159.28,919.82v-1.65c-1.2,1.32-2.85,2.01-4.79,2.01-2.46,0-5.06-1.65-5.06-4.79s2.61-4.76,5.06-4.76c1.98,0,3.62.63,4.79,1.98v-2.61c0-1.95-1.56-3.06-3.65-3.06-1.74,0-3.15.63-4.44,2.01l-1.05-1.56c1.56-1.62,3.42-2.4,5.78-2.4,3.06,0,5.6,1.38,5.6,4.88v9.95h-2.25,0ZM159.28,916.76v-2.73c-.87-1.2-2.4-1.8-3.98-1.8-2.1,0-3.57,1.32-3.57,3.18s1.47,3.15,3.57,3.15c1.59,0,3.12-.6,3.98-1.8h0Z"/>
      <path d="M168.27,917.63v7.7h-2.25v-19.98h2.25v2.16c1.05-1.47,2.85-2.52,4.88-2.52,3.81,0,6.44,2.88,6.44,7.58s-2.64,7.61-6.44,7.61c-1.98,0-3.71-.93-4.88-2.55ZM177.23,912.57c0-3.21-1.74-5.57-4.64-5.57-1.77,0-3.54,1.05-4.31,2.31v6.53c.78,1.26,2.55,2.34,4.31,2.34,2.91,0,4.64-2.4,4.64-5.6h0Z"/>
      <path d="M192.96,919.82v-9.53c0-2.55-1.32-3.29-3.27-3.29-1.74,0-3.42,1.08-4.28,2.25v10.58h-2.25v-19.98h2.25v7.61c1.02-1.2,3-2.46,5.18-2.46,3.03,0,4.61,1.47,4.61,4.62v10.22h-2.25v-.02h.01Z"/>
      <path d="M199.25,923.44c.33.15.87.24,1.23.24.99,0,1.65-.33,2.16-1.53l.96-2.19-6.05-14.62h2.43l4.82,11.86,4.79-11.86h2.46l-7.25,17.41c-.87,2.1-2.34,2.91-4.25,2.94-.48,0-1.23-.09-1.65-.21l.36-2.04h-.01Z"/>
      <path d="M239.28,919.82v-14.41l-5.63,14.41h-1.86l-5.63-14.41v14.41h-4.25v-19.98h5.96l4.85,12.49,4.86-12.49h5.99v19.98h-4.29Z"/>
      <path d="M261.33,919.82l-1.26-3.38h-8.57l-1.26,3.38h-4.82l7.7-19.98h5.33l7.7,19.98h-4.82,0ZM255.79,904.09l-3.12,8.6h6.23l-3.12-8.6h0ZM256.03,898.01h-2.67l4.01-4.31h3.51l-4.85,4.31Z"/>
      <path d="M279.31,919.82l-3.92-7.1h-3.12v7.1h-4.25v-19.98h9.35c4.16,0,6.74,2.73,6.74,6.44,0,3.51-2.25,5.42-4.4,5.93l4.52,7.61h-4.92,0ZM279.73,906.24c0-1.65-1.29-2.67-2.96-2.67h-4.49v5.39h4.49c1.68,0,2.96-1.02,2.96-2.73h0Z"/>
      <path d="M287.28,919.82v-19.98h4.25v19.98h-4.25Z"/>
      <path d="M294.53,909.84c0-6.02,4.4-10.33,10.46-10.33s10.43,4.31,10.43,10.33-4.4,10.34-10.43,10.34-10.46-4.31-10.46-10.34ZM311.03,909.84c0-3.75-2.37-6.56-6.05-6.56s-6.08,2.82-6.08,6.56,2.37,6.56,6.08,6.56,6.05-2.85,6.05-6.56Z"/>
      <path d="M331.71,919.82l-7.7-19.98h4.82l5.54,15.34,5.54-15.34h4.82l-7.7,19.98h-5.33.01,0Z"/>
      <path d="M346.6,919.82v-19.98h14.14v3.75h-9.89v4.19h9.68v3.75h-9.68v4.55h9.89v3.75h-14.14Z"/>
      <path d="M363.89,919.82v-19.98h4.28v16.24h8.45v3.75h-12.73Z"/>
      <path d="M378.53,909.84c0-6.02,4.4-10.33,10.46-10.33s10.43,4.31,10.43,10.33-4.4,10.34-10.43,10.34-10.46-4.31-10.46-10.34ZM395.04,909.84c0-3.75-2.37-6.56-6.05-6.56s-6.08,2.82-6.08,6.56,2.37,6.56,6.08,6.56,6.05-2.85,6.05-6.56Z"/>
      <path d="M401.03,917l2.34-3.33c1.41,1.47,3.59,2.73,6.35,2.73,2.37,0,3.48-1.05,3.48-2.22,0-3.48-11.5-1.05-11.5-8.57,0-3.32,2.88-6.08,7.58-6.08,3.18,0,5.81.96,7.79,2.79l-2.37,3.18c-1.62-1.5-3.77-2.19-5.81-2.19-1.8,0-2.81.78-2.81,1.98,0,3.14,11.47,1.02,11.47,8.48,0,3.66-2.64,6.41-8,6.41-3.86,0-6.62-1.29-8.51-3.18h-.01Z"/>
      <path d="M419.43,909.84c0-6.02,4.4-10.33,10.46-10.33s10.43,4.31,10.43,10.33-4.4,10.34-10.43,10.34-10.46-4.31-10.46-10.34ZM435.94,909.84c0-3.75-2.37-6.56-6.05-6.56s-6.08,2.82-6.08,6.56,2.37,6.56,6.08,6.56,6.05-2.85,6.05-6.56Z"/>
      <path d="M454.42,913.14c-1.98,0-3.57-1.59-3.57-3.53s1.59-3.57,3.57-3.57,3.56,1.59,3.56,3.57-1.59,3.53-3.56,3.53Z"/>
      <path d="M468.86,912.57c0-4.19,3-7.58,7.13-7.58,4.38,0,6.95,3.42,6.95,7.76v.57h-11.72c.18,2.73,2.1,5,5.21,5,1.65,0,3.33-.66,4.46-1.83l1.08,1.47c-1.44,1.44-3.38,2.22-5.75,2.22-4.28,0-7.37-3.09-7.37-7.61h.01ZM475.96,906.84c-3.09,0-4.61,2.61-4.73,4.82h9.5c-.03-2.16-1.47-4.82-4.76-4.82h-.01,0Z"/>
      <path d="M497.06,919.82v-2.16c-1.08,1.47-2.85,2.52-4.88,2.52-3.77,0-6.44-2.88-6.44-7.58s2.64-7.61,6.44-7.61c1.95,0,3.72.96,4.88,2.55v-7.7h2.25v19.98h-2.25ZM497.06,915.89v-6.56c-.81-1.26-2.55-2.34-4.34-2.34-2.91,0-4.64,2.4-4.64,5.6s1.74,5.57,4.64,5.57c1.8,0,3.53-1.02,4.34-2.28h0Z"/>
      <path d="M503.41,901.78c0-.84.69-1.53,1.5-1.53s1.53.69,1.53,1.53-.69,1.5-1.53,1.5-1.5-.66-1.5-1.5ZM503.8,919.82v-14.47h2.25v14.47h-2.25Z"/>
      <path d="M510.99,916.79v-9.47h-2.4v-1.98h2.4v-3.95h2.25v3.95h2.94v1.98h-2.94v8.99c0,1.08.48,1.86,1.47,1.86.63,0,1.23-.27,1.53-.6l.66,1.68c-.57.54-1.38.93-2.7.93-2.13,0-3.21-1.23-3.21-3.39h0Z"/>
      <path d="M518.96,901.78c0-.84.69-1.53,1.5-1.53s1.53.69,1.53,1.53-.69,1.5-1.53,1.5-1.5-.66-1.5-1.5ZM519.35,919.82v-14.47h2.25v14.47h-2.25Z"/>
      <path d="M535.86,919.82v-9.47c0-2.55-1.29-3.36-3.24-3.36-1.77,0-3.44,1.08-4.28,2.25v10.58h-2.25v-14.47h2.25v2.1c1.02-1.2,3-2.46,5.15-2.46,3.03,0,4.61,1.53,4.61,4.67v10.16h-2.25.01Z"/>
      <path d="M542.57,923.53l1.14-1.68c1.2,1.44,2.64,1.98,4.7,1.98,2.4,0,4.64-1.17,4.64-4.34v-2.07c-1.05,1.47-2.81,2.58-4.85,2.58-3.77,0-6.44-2.81-6.44-7.49s2.64-7.52,6.44-7.52c1.95,0,3.68.96,4.85,2.55v-2.19h2.25v14.05c0,4.79-3.36,6.29-6.89,6.29-2.46,0-4.14-.48-5.84-2.16h0ZM553.05,915.65v-6.32c-.78-1.26-2.52-2.34-4.31-2.34-2.91,0-4.64,2.31-4.64,5.51s1.74,5.51,4.64,5.51c1.8,0,3.53-1.11,4.31-2.37h0Z"/>
      <path d="M567.32,919.82v-19.98h10.52c3.8,0,5.75,2.43,5.75,5.09,0,2.49-1.56,4.19-3.44,4.58,2.16.33,3.83,2.4,3.83,4.88,0,3.03-1.98,5.42-5.81,5.42h-10.85ZM579.24,905.68c0-1.23-.9-2.1-2.34-2.1h-5.33v4.19h5.33c1.44,0,2.34-.81,2.34-2.09ZM579.63,913.8c0-1.26-.9-2.28-2.55-2.28h-5.51v4.55h5.51c1.59,0,2.55-.84,2.55-2.28h0Z"/>
      <path d="M598.47,919.82l-3.92-7.1h-3.12v7.1h-4.25v-19.98h9.35c4.16,0,6.74,2.73,6.74,6.44,0,3.51-2.25,5.42-4.4,5.93l4.52,7.61h-4.92ZM598.89,906.24c0-1.65-1.29-2.67-2.96-2.67h-4.49v5.39h4.49c1.68,0,2.96-1.02,2.96-2.73h0Z"/>
      <path d="M606.44,911.82v-11.98h4.31v11.86c0,2.79,1.62,4.7,4.7,4.7s4.67-1.92,4.67-4.7v-11.86h4.34v11.98c0,4.94-2.94,8.36-9.02,8.36s-9.02-3.42-9.02-8.36h.02Z"/>
      <path d="M642.22,919.82l-9.53-13.03v13.03h-4.25v-19.98h4.37l9.26,12.55v-12.55h4.25v19.98h-4.1Z"/>
      <path d="M649.32,909.84c0-6.02,4.4-10.33,10.46-10.33s10.43,4.31,10.43,10.33-4.4,10.34-10.43,10.34-10.46-4.31-10.46-10.34ZM665.82,909.84c0-3.75-2.37-6.56-6.05-6.56s-6.08,2.82-6.08,6.56,2.37,6.56,6.08,6.56,6.05-2.85,6.05-6.56Z"/>
      <path d="M679.52,917l2.34-3.33c1.41,1.47,3.59,2.73,6.35,2.73,2.37,0,3.48-1.05,3.48-2.22,0-3.48-11.5-1.05-11.5-8.57,0-3.32,2.88-6.08,7.58-6.08,3.18,0,5.81.96,7.79,2.79l-2.37,3.18c-1.62-1.5-3.77-2.19-5.81-2.19-1.8,0-2.81.78-2.81,1.98,0,3.14,11.47,1.02,11.47,8.48,0,3.66-2.64,6.41-8,6.41-3.86,0-6.62-1.29-8.51-3.18h0Z"/>
      <path d="M712.68,919.82l-1.26-3.38h-8.57l-1.26,3.38h-4.82l7.7-19.98h5.33l7.7,19.98h-4.82ZM707.14,904.09l-3.12,8.6h6.23l-3.12-8.6h.01Z"/>
      <path d="M730.66,919.82l-3.92-7.1h-3.12v7.1h-4.25v-19.98h9.35c4.16,0,6.74,2.73,6.74,6.44,0,3.51-2.25,5.42-4.4,5.93l4.52,7.61h-4.92ZM731.08,906.24c0-1.65-1.29-2.67-2.96-2.67h-4.49v5.39h4.49c1.68,0,2.96-1.02,2.96-2.73h0Z"/>
      <path d="M752.44,919.82l-1.26-3.38h-8.57l-1.26,3.38h-4.82l7.7-19.98h5.33l7.7,19.98h-4.82ZM746.9,904.09l-3.12,8.6h6.23l-3.12-8.6h.01Z"/>
      <path d="M759.12,919.82v-19.98h4.25v19.98h-4.25Z"/>
      <path d="M772.93,919.82l-7.7-19.98h4.82l5.54,15.34,5.54-15.34h4.82l-7.7,19.98h-5.33.01Z"/>
      <path d="M801.63,919.82l-1.26-3.38h-8.57l-1.26,3.38h-4.82l7.7-19.98h5.33l7.7,19.98h-4.82ZM796.09,904.09l-3.12,8.6h6.23l-3.12-8.6h.01Z"/>
      <path d="M819.43,913.14c-1.98,0-3.57-1.59-3.57-3.53s1.59-3.57,3.57-3.57,3.56,1.59,3.56,3.57-1.59,3.53-3.56,3.53Z"/>
      <path d="M833.45,917.9l1.17-1.62c.96,1.11,2.79,2.07,4.76,2.07,2.22,0,3.42-1.05,3.42-2.49,0-3.51-8.96-1.35-8.96-6.71,0-2.25,1.95-4.16,5.39-4.16,2.46,0,4.2.93,5.36,2.1l-1.05,1.56c-.87-1.05-2.46-1.83-4.31-1.83-1.98,0-3.2.99-3.2,2.28,0,3.18,8.96,1.08,8.96,6.71,0,2.43-1.95,4.38-5.69,4.38-2.37,0-4.38-.72-5.84-2.28h-.01,0Z"/>
      <path d="M847.8,912.57c0-4.19,2.76-7.58,7.16-7.58s7.16,3.39,7.16,7.58-2.76,7.61-7.16,7.61-7.16-3.42-7.16-7.61ZM859.75,912.57c0-2.94-1.71-5.57-4.79-5.57s-4.82,2.64-4.82,5.57,1.74,5.6,4.82,5.6,4.79-2.64,4.79-5.6Z"/>
      <path d="M875.54,919.82v-2.04c-1.11,1.26-3,2.4-5.15,2.4-3.03,0-4.61-1.47-4.61-4.62v-10.22h2.25v9.53c0,2.55,1.29,3.3,3.24,3.3,1.77,0,3.44-1.02,4.28-2.19v-10.64h2.25v14.47h-2.26Z"/>
      <path d="M892.05,919.82v-9.47c0-2.55-1.29-3.36-3.24-3.36-1.77,0-3.44,1.08-4.28,2.25v10.58h-2.25v-14.47h2.25v2.1c1.02-1.2,3-2.46,5.15-2.46,3.03,0,4.61,1.53,4.61,4.67v10.16h-2.25.01Z"/>
      <path d="M909.28,919.82v-2.16c-1.08,1.47-2.85,2.52-4.88,2.52-3.77,0-6.44-2.88-6.44-7.58s2.64-7.61,6.44-7.61c1.95,0,3.72.96,4.88,2.55v-7.7h2.25v19.98h-2.25ZM909.28,915.89v-6.56c-.81-1.26-2.55-2.34-4.34-2.34-2.91,0-4.64,2.4-4.64,5.6s1.74,5.57,4.64,5.57c1.8,0,3.53-1.02,4.34-2.28h0Z"/>
      <path d="M923.75,919.82v-14.47h2.25v2.34c1.17-1.53,2.85-2.64,4.82-2.64v2.31c-.27-.06-.54-.09-.9-.09-1.38,0-3.27,1.14-3.92,2.31v10.25h-2.25Z"/>
      <path d="M932.8,912.57c0-4.19,3-7.58,7.13-7.58,4.38,0,6.95,3.42,6.95,7.76v.57h-11.72c.18,2.73,2.1,5,5.21,5,1.65,0,3.33-.66,4.46-1.83l1.08,1.47c-1.44,1.44-3.38,2.22-5.75,2.22-4.28,0-7.37-3.09-7.37-7.61h.01,0ZM939.9,906.84c-3.09,0-4.61,2.61-4.73,4.82h9.5c-.03-2.16-1.47-4.82-4.76-4.82h-.01Z"/>
      <path d="M949.67,912.57c0-4.28,2.91-7.58,7.22-7.58,2.64,0,4.19,1.08,5.3,2.52l-1.5,1.38c-.96-1.32-2.19-1.89-3.68-1.89-3.09,0-5,2.37-5,5.57s1.92,5.6,5,5.6c1.5,0,2.73-.6,3.68-1.89l1.5,1.38c-1.11,1.44-2.67,2.52-5.3,2.52-4.31,0-7.22-3.3-7.22-7.61Z"/>
      <path d="M964.5,912.57c0-4.19,2.76-7.58,7.16-7.58s7.16,3.39,7.16,7.58-2.76,7.61-7.16,7.61-7.16-3.42-7.16-7.61ZM976.45,912.57c0-2.94-1.71-5.57-4.79-5.57s-4.82,2.64-4.82,5.57,1.74,5.6,4.82,5.6,4.79-2.64,4.79-5.6Z"/>
      <path d="M982.48,919.82v-14.47h2.25v2.34c1.17-1.53,2.85-2.64,4.82-2.64v2.31c-.27-.06-.54-.09-.9-.09-1.38,0-3.27,1.14-3.92,2.31v10.25h-2.25Z"/>
      <path d="M1002.85,919.82v-2.16c-1.08,1.47-2.85,2.52-4.88,2.52-3.77,0-6.44-2.88-6.44-7.58s2.64-7.61,6.44-7.61c1.95,0,3.72.96,4.88,2.55v-7.7h2.25v19.98h-2.25ZM1002.85,915.89v-6.56c-.81-1.26-2.55-2.34-4.34-2.34-2.91,0-4.64,2.4-4.64,5.6s1.74,5.57,4.64,5.57c1.8,0,3.53-1.02,4.34-2.28h0Z"/>
      <path d="M1009.2,901.78c0-.84.69-1.53,1.5-1.53s1.53.69,1.53,1.53-.69,1.5-1.53,1.5-1.5-.66-1.5-1.5ZM1009.59,919.82v-14.47h2.25v14.47h-2.25Z"/>
      <path d="M1026.1,919.82v-9.47c0-2.55-1.29-3.36-3.24-3.36-1.77,0-3.44,1.08-4.28,2.25v10.58h-2.25v-14.47h2.25v2.1c1.02-1.2,3-2.46,5.15-2.46,3.03,0,4.61,1.53,4.61,4.67v10.16h-2.25.01Z"/>
      <path d="M1032.81,923.53l1.14-1.68c1.2,1.44,2.64,1.98,4.7,1.98,2.4,0,4.64-1.17,4.64-4.34v-2.07c-1.05,1.47-2.81,2.58-4.85,2.58-3.77,0-6.44-2.81-6.44-7.49s2.64-7.52,6.44-7.52c1.95,0,3.68.96,4.85,2.55v-2.19h2.25v14.05c0,4.79-3.36,6.29-6.89,6.29-2.46,0-4.14-.48-5.84-2.16h0ZM1043.3,915.65v-6.32c-.78-1.26-2.52-2.34-4.31-2.34-2.91,0-4.64,2.31-4.64,5.51s1.74,5.51,4.64,5.51c1.8,0,3.53-1.11,4.31-2.37h0Z"/>
      <path d="M1074.87,919.82v-14.41l-5.63,14.41h-1.86l-5.63-14.41v14.41h-4.25v-19.98h5.96l4.85,12.49,4.86-12.49h5.99v19.98h-4.29,0Z"/>
      <path d="M1096.92,919.82l-1.26-3.38h-8.57l-1.26,3.38h-4.82l7.7-19.98h5.33l7.7,19.98h-4.82ZM1091.38,904.09l-3.12,8.6h6.23l-3.12-8.6h.01ZM1091.62,898.01h-2.67l4.01-4.31h3.51l-4.85,4.31Z"/>
      <path d="M1114.9,919.82l-3.92-7.1h-3.12v7.1h-4.25v-19.98h9.35c4.16,0,6.74,2.73,6.74,6.44,0,3.51-2.25,5.42-4.4,5.93l4.52,7.61h-4.92,0ZM1115.32,906.24c0-1.65-1.29-2.67-2.96-2.67h-4.49v5.39h4.49c1.68,0,2.96-1.02,2.96-2.73h0Z"/>
      <path d="M1122.87,919.82v-19.98h4.25v19.98h-4.25Z"/>
      <path d="M1130.12,909.84c0-6.02,4.4-10.33,10.46-10.33s10.43,4.31,10.43,10.33-4.4,10.34-10.43,10.34-10.46-4.31-10.46-10.34ZM1146.63,909.84c0-3.75-2.37-6.56-6.05-6.56s-6.08,2.82-6.08,6.56,2.37,6.56,6.08,6.56,6.05-2.85,6.05-6.56Z"/>
      <path d="M1167.3,919.82l-7.7-19.98h4.82l5.54,15.34,5.54-15.34h4.82l-7.7,19.98h-5.33,0Z"/>
      <path d="M1182.19,919.82v-19.98h14.14v3.75h-9.89v4.19h9.68v3.75h-9.68v4.55h9.89v3.75h-14.14Z"/>
      <path d="M1199.48,919.82v-19.98h4.28v16.24h8.45v3.75h-12.73Z"/>
      <path d="M1214.13,909.84c0-6.02,4.4-10.33,10.46-10.33s10.43,4.31,10.43,10.33-4.4,10.34-10.43,10.34-10.46-4.31-10.46-10.34ZM1230.64,909.84c0-3.75-2.37-6.56-6.05-6.56s-6.08,2.82-6.08,6.56,2.37,6.56,6.08,6.56,6.05-2.85,6.05-6.56Z"/>
      <path d="M1236.63,917l2.34-3.33c1.41,1.47,3.59,2.73,6.35,2.73,2.37,0,3.48-1.05,3.48-2.22,0-3.48-11.5-1.05-11.5-8.57,0-3.32,2.88-6.08,7.58-6.08,3.18,0,5.81.96,7.79,2.79l-2.37,3.18c-1.62-1.5-3.77-2.19-5.81-2.19-1.8,0-2.81.78-2.81,1.98,0,3.14,11.47,1.02,11.47,8.48,0,3.66-2.64,6.41-8,6.41-3.86,0-6.62-1.29-8.51-3.18h0Z"/>
      <path d="M1255.02,909.84c0-6.02,4.4-10.33,10.46-10.33s10.43,4.31,10.43,10.33-4.4,10.34-10.43,10.34-10.46-4.31-10.46-10.34ZM1271.53,909.84c0-3.75-2.37-6.56-6.05-6.56s-6.08,2.82-6.08,6.56,2.37,6.56,6.08,6.56,6.05-2.85,6.05-6.56Z"/>
      <path d="M1290.02,913.14c-1.98,0-3.57-1.59-3.57-3.53s1.59-3.57,3.57-3.57,3.56,1.59,3.56,3.57-1.59,3.53-3.56,3.53Z"/>
      <path d="M1,953.85l1.17-1.62c.96,1.11,2.79,2.07,4.76,2.07,2.22,0,3.42-1.05,3.42-2.49,0-3.51-8.96-1.35-8.96-6.71,0-2.25,1.95-4.16,5.39-4.16,2.46,0,4.2.93,5.36,2.1l-1.05,1.56c-.87-1.05-2.46-1.83-4.31-1.83-1.98,0-3.2.99-3.2,2.28,0,3.18,8.96,1.08,8.96,6.71,0,2.43-1.95,4.38-5.69,4.38-2.37,0-4.38-.72-5.84-2.28h0Z"/>
      <path d="M15.35,948.52c0-4.19,2.76-7.58,7.16-7.58s7.16,3.39,7.16,7.58-2.76,7.61-7.16,7.61-7.16-3.42-7.16-7.61h0ZM27.3,948.52c0-2.94-1.71-5.57-4.79-5.57s-4.82,2.64-4.82,5.57,1.74,5.6,4.82,5.6,4.79-2.64,4.79-5.6Z"/>
      <path d="M43.09,955.77v-2.04c-1.11,1.26-3,2.4-5.15,2.4-3.03,0-4.61-1.47-4.61-4.62v-10.22h2.25v9.53c0,2.55,1.29,3.3,3.24,3.3,1.77,0,3.44-1.02,4.28-2.19v-10.64h2.25v14.47h-2.26Z"/>
      <path d="M59.6,955.77v-9.47c0-2.55-1.29-3.36-3.24-3.36-1.77,0-3.44,1.08-4.28,2.25v10.58h-2.25v-14.47h2.25v2.1c1.02-1.2,3-2.46,5.15-2.46,3.03,0,4.61,1.53,4.61,4.67v10.16h-2.25,0Z"/>
      <path d="M76.83,955.77v-2.16c-1.08,1.47-2.85,2.52-4.88,2.52-3.77,0-6.44-2.88-6.44-7.58s2.64-7.61,6.44-7.61c1.95,0,3.72.96,4.88,2.55v-7.7h2.25v19.98h-2.25ZM76.83,951.85v-6.56c-.81-1.26-2.55-2.34-4.34-2.34-2.91,0-4.64,2.4-4.64,5.6s1.74,5.57,4.64,5.57c1.8,0,3.53-1.02,4.34-2.28h0Z"/>
      <path d="M90.46,948.52c0-4.19,3-7.58,7.13-7.58,4.38,0,6.95,3.42,6.95,7.76v.57h-11.72c.18,2.73,2.1,5,5.21,5,1.65,0,3.33-.66,4.46-1.83l1.08,1.47c-1.44,1.44-3.38,2.22-5.75,2.22-4.28,0-7.37-3.09-7.37-7.61h.01ZM97.56,942.8c-3.09,0-4.61,2.61-4.73,4.82h9.5c-.03-2.16-1.47-4.82-4.76-4.82h0Z"/>
      <path d="M118.65,955.77v-2.16c-1.08,1.47-2.85,2.52-4.88,2.52-3.77,0-6.44-2.88-6.44-7.58s2.64-7.61,6.44-7.61c1.95,0,3.72.96,4.88,2.55v-7.7h2.25v19.98h-2.25ZM118.65,951.85v-6.56c-.81-1.26-2.55-2.34-4.34-2.34-2.91,0-4.64,2.4-4.64,5.6s1.74,5.57,4.64,5.57c1.8,0,3.53-1.02,4.34-2.28h0Z"/>
      <path d="M125,937.73c0-.84.69-1.53,1.5-1.53s1.53.69,1.53,1.53-.69,1.5-1.53,1.5-1.5-.66-1.5-1.5ZM125.39,955.77v-14.47h2.25v14.47h-2.25Z"/>
      <path d="M132.58,952.74v-9.47h-2.4v-1.98h2.4v-3.95h2.25v3.95h2.94v1.98h-2.94v8.99c0,1.08.48,1.86,1.47,1.86.63,0,1.23-.27,1.53-.6l.66,1.68c-.57.54-1.38.93-2.7.93-2.13,0-3.21-1.23-3.21-3.39Z"/>
      <path d="M140.55,937.73c0-.84.69-1.53,1.5-1.53s1.53.69,1.53,1.53-.69,1.5-1.53,1.5-1.5-.66-1.5-1.5ZM140.94,955.77v-14.47h2.25v14.47h-2.25Z"/>
      <path d="M157.45,955.77v-9.47c0-2.55-1.29-3.36-3.24-3.36-1.77,0-3.44,1.08-4.28,2.25v10.58h-2.25v-14.47h2.25v2.1c1.02-1.2,3-2.46,5.15-2.46,3.03,0,4.61,1.53,4.61,4.67v10.16h-2.25.01Z"/>
      <path d="M164.16,959.49l1.14-1.68c1.2,1.44,2.64,1.98,4.7,1.98,2.4,0,4.64-1.17,4.64-4.34v-2.07c-1.05,1.47-2.81,2.58-4.85,2.58-3.77,0-6.44-2.81-6.44-7.49s2.64-7.52,6.44-7.52c1.95,0,3.68.96,4.85,2.55v-2.19h2.25v14.05c0,4.79-3.36,6.29-6.89,6.29-2.46,0-4.14-.48-5.84-2.16h0ZM174.65,951.61v-6.32c-.78-1.26-2.52-2.34-4.31-2.34-2.91,0-4.64,2.31-4.64,5.51s1.74,5.51,4.64,5.51c1.8,0,3.53-1.11,4.31-2.37h0Z"/>
      <path d="M188.91,955.77v-19.98h10.52c3.8,0,5.75,2.43,5.75,5.09,0,2.49-1.56,4.19-3.44,4.58,2.16.33,3.83,2.4,3.83,4.88,0,3.03-1.98,5.42-5.81,5.42h-10.85ZM200.84,941.63c0-1.23-.9-2.1-2.34-2.1h-5.33v4.19h5.33c1.44,0,2.34-.81,2.34-2.09ZM201.22,949.75c0-1.26-.9-2.28-2.55-2.28h-5.51v4.55h5.51c1.59,0,2.55-.84,2.55-2.28h0Z"/>
      <path d="M220.07,955.77l-3.92-7.1h-3.12v7.1h-4.25v-19.98h9.35c4.16,0,6.74,2.73,6.74,6.44,0,3.51-2.25,5.42-4.4,5.93l4.52,7.61h-4.92ZM220.49,942.2c0-1.65-1.29-2.67-2.96-2.67h-4.49v5.39h4.49c1.68,0,2.96-1.02,2.96-2.73h0Z"/>
      <path d="M228.04,947.77v-11.98h4.31v11.86c0,2.79,1.62,4.7,4.7,4.7s4.67-1.92,4.67-4.7v-11.86h4.34v11.98c0,4.94-2.94,8.36-9.02,8.36s-9.02-3.42-9.02-8.36h.02Z"/>
      <path d="M263.81,955.77l-9.53-13.03v13.03h-4.25v-19.98h4.37l9.26,12.55v-12.55h4.25v19.98h-4.1Z"/>
      <path d="M270.91,945.79c0-6.02,4.4-10.33,10.46-10.33s10.43,4.31,10.43,10.33-4.4,10.34-10.43,10.34-10.46-4.31-10.46-10.34h0ZM287.42,945.79c0-3.75-2.37-6.56-6.05-6.56s-6.08,2.82-6.08,6.56,2.37,6.56,6.08,6.56,6.05-2.85,6.05-6.56Z"/>
      <path d="M301.11,952.95l2.34-3.33c1.41,1.47,3.59,2.73,6.35,2.73,2.37,0,3.48-1.05,3.48-2.22,0-3.48-11.5-1.05-11.5-8.57,0-3.32,2.88-6.08,7.58-6.08,3.18,0,5.81.96,7.79,2.79l-2.37,3.18c-1.62-1.5-3.77-2.19-5.81-2.19-1.8,0-2.81.78-2.81,1.98,0,3.14,11.47,1.02,11.47,8.48,0,3.66-2.64,6.41-8,6.41-3.86,0-6.62-1.29-8.51-3.18h-.01Z"/>
      <path d="M334.28,955.77l-1.26-3.38h-8.57l-1.26,3.38h-4.82l7.7-19.98h5.33l7.7,19.98h-4.82,0ZM328.74,940.04l-3.12,8.6h6.23l-3.12-8.6h.01,0Z"/>
      <path d="M352.25,955.77l-3.92-7.1h-3.12v7.1h-4.25v-19.98h9.35c4.16,0,6.74,2.73,6.74,6.44,0,3.51-2.25,5.42-4.4,5.93l4.52,7.61h-4.92,0ZM352.67,942.2c0-1.65-1.29-2.67-2.96-2.67h-4.49v5.39h4.49c1.68,0,2.96-1.02,2.96-2.73h0Z"/>
      <path d="M374.03,955.77l-1.26-3.38h-8.57l-1.26,3.38h-4.82l7.7-19.98h5.33l7.7,19.98h-4.82,0ZM368.49,940.04l-3.12,8.6h6.23l-3.12-8.6h.01,0Z"/>
      <path d="M380.72,955.77v-19.98h4.25v19.98h-4.25Z"/>
      <path d="M394.53,955.77l-7.7-19.98h4.82l5.54,15.34,5.54-15.34h4.82l-7.7,19.98h-5.33.01,0Z"/>
      <path d="M423.23,955.77l-1.26-3.38h-8.57l-1.26,3.38h-4.82l7.7-19.98h5.33l7.7,19.98h-4.82,0ZM417.69,940.04l-3.12,8.6h6.23l-3.12-8.6h.01,0Z"/>
      <path d="M441.03,949.09c-1.98,0-3.57-1.59-3.57-3.53s1.59-3.57,3.57-3.57,3.56,1.59,3.56,3.57-1.59,3.53-3.56,3.53Z"/>
      <path d="M455.14,953.85l1.17-1.62c.96,1.11,2.79,2.07,4.76,2.07,2.22,0,3.42-1.05,3.42-2.49,0-3.51-8.96-1.35-8.96-6.71,0-2.25,1.95-4.16,5.39-4.16,2.46,0,4.2.93,5.36,2.1l-1.05,1.56c-.87-1.05-2.46-1.83-4.31-1.83-1.98,0-3.2.99-3.2,2.28,0,3.18,8.96,1.08,8.96,6.71,0,2.43-1.95,4.38-5.69,4.38-2.37,0-4.38-.72-5.84-2.28h-.01Z"/>
      <path d="M469.49,948.52c0-4.19,2.76-7.58,7.16-7.58s7.16,3.39,7.16,7.58-2.76,7.61-7.16,7.61-7.16-3.42-7.16-7.61ZM481.44,948.52c0-2.94-1.71-5.57-4.79-5.57s-4.82,2.64-4.82,5.57,1.74,5.6,4.82,5.6,4.79-2.64,4.79-5.6Z"/>
      <path d="M497.23,955.77v-2.04c-1.11,1.26-3,2.4-5.15,2.4-3.03,0-4.61-1.47-4.61-4.62v-10.22h2.25v9.53c0,2.55,1.29,3.3,3.24,3.3,1.77,0,3.44-1.02,4.28-2.19v-10.64h2.25v14.47h-2.26Z"/>
      <path d="M513.74,955.77v-9.47c0-2.55-1.29-3.36-3.24-3.36-1.77,0-3.44,1.08-4.28,2.25v10.58h-2.25v-14.47h2.25v2.1c1.02-1.2,3-2.46,5.15-2.46,3.03,0,4.61,1.53,4.61,4.67v10.16h-2.25.01Z"/>
      <path d="M530.97,955.77v-2.16c-1.08,1.47-2.85,2.52-4.88,2.52-3.77,0-6.44-2.88-6.44-7.58s2.64-7.61,6.44-7.61c1.95,0,3.72.96,4.88,2.55v-7.7h2.25v19.98h-2.25ZM530.97,951.85v-6.56c-.81-1.26-2.55-2.34-4.34-2.34-2.91,0-4.64,2.4-4.64,5.6s1.74,5.57,4.64,5.57c1.8,0,3.53-1.02,4.34-2.28h0Z"/>
      <path d="M562.9,955.77v-9.83c0-1.83-.81-3-2.67-3-1.5,0-3.09,1.08-3.83,2.22v10.61h-2.25v-9.83c0-1.83-.78-3-2.67-3-1.47,0-3.03,1.08-3.81,2.25v10.58h-2.25v-14.47h2.25v2.1c.6-.93,2.55-2.46,4.67-2.46s3.48,1.2,3.9,2.7c.81-1.32,2.76-2.7,4.85-2.7,2.64,0,4.04,1.47,4.04,4.37v10.46h-2.25.02Z"/>
      <path d="M569.26,937.73c0-.84.69-1.53,1.5-1.53s1.53.69,1.53,1.53-.69,1.5-1.53,1.5-1.5-.66-1.5-1.5ZM569.65,955.77v-14.47h2.25v14.47h-2.25Z"/>
      <path d="M585.77,955.77l-4.34-5.93-4.34,5.93h-2.58l5.54-7.43-5.24-7.04h2.61l4.01,5.51,4.01-5.51h2.61l-5.24,7.04,5.57,7.43h-2.61,0Z"/>
      <path d="M590.56,937.73c0-.84.69-1.53,1.5-1.53s1.53.69,1.53,1.53-.69,1.5-1.53,1.5-1.5-.66-1.5-1.5ZM590.95,955.77v-14.47h2.25v14.47h-2.25Z"/>
      <path d="M607.46,955.77v-9.47c0-2.55-1.29-3.36-3.24-3.36-1.77,0-3.44,1.08-4.28,2.25v10.58h-2.25v-14.47h2.25v2.1c1.02-1.2,3-2.46,5.15-2.46,3.03,0,4.61,1.53,4.61,4.67v10.16h-2.25.01Z"/>
      <path d="M614.17,959.49l1.14-1.68c1.2,1.44,2.64,1.98,4.7,1.98,2.4,0,4.64-1.17,4.64-4.34v-2.07c-1.05,1.47-2.81,2.58-4.85,2.58-3.77,0-6.44-2.81-6.44-7.49s2.64-7.52,6.44-7.52c1.95,0,3.68.96,4.85,2.55v-2.19h2.25v14.05c0,4.79-3.36,6.29-6.89,6.29-2.46,0-4.14-.48-5.84-2.16h0ZM624.65,951.61v-6.32c-.78-1.26-2.52-2.34-4.31-2.34-2.91,0-4.64,2.31-4.64,5.51s1.74,5.51,4.64,5.51c1.8,0,3.53-1.11,4.31-2.37h0Z"/>
      <path d="M656.29,955.77v-14.41l-5.63,14.41h-1.86l-5.63-14.41v14.41h-4.25v-19.98h5.96l4.85,12.49,4.86-12.49h5.99v19.98h-4.29Z"/>
      <path d="M664.53,955.77v-19.98h4.25v19.98h-4.25Z"/>
      <path d="M671.78,945.79c0-6.32,4.79-10.33,10.67-10.33,4.14,0,6.74,2.09,8.24,4.46l-3.51,1.92c-.93-1.41-2.64-2.61-4.73-2.61-3.66,0-6.29,2.79-6.29,6.56s2.64,6.56,6.29,6.56c1.77,0,3.42-.78,4.22-1.53v-2.4h-5.27v-3.71h9.53v7.67c-2.04,2.27-4.88,3.75-8.48,3.75-5.87,0-10.67-4.05-10.67-10.34h0Z"/>
      <path d="M694.31,947.77v-11.98h4.31v11.86c0,2.79,1.62,4.7,4.7,4.7s4.67-1.92,4.67-4.7v-11.86h4.34v11.98c0,4.94-2.94,8.36-9.02,8.36s-9.02-3.42-9.02-8.36h.02Z"/>
      <path d="M716.31,955.77v-19.98h14.14v3.75h-9.89v4.19h9.68v3.75h-9.68v4.55h9.89v3.75h-14.14Z"/>
      <path d="M733.59,955.77v-19.98h4.28v16.24h8.45v3.75h-12.73Z"/>
      <path d="M755.94,945.79c0-6.17,4.64-10.33,10.67-10.33,4.38,0,6.92,2.36,8.33,4.88l-3.66,1.8c-.84-1.62-2.64-2.91-4.67-2.91-3.66,0-6.29,2.79-6.29,6.56s2.64,6.56,6.29,6.56c2.04,0,3.83-1.29,4.67-2.91l3.66,1.77c-1.41,2.49-3.95,4.92-8.33,4.92-6.02,0-10.67-4.2-10.67-10.34Z"/>
      <path d="M776.52,945.79c0-6.02,4.4-10.33,10.46-10.33s10.43,4.31,10.43,10.33-4.4,10.34-10.43,10.34-10.46-4.31-10.46-10.34ZM793.03,945.79c0-3.75-2.37-6.56-6.05-6.56s-6.08,2.82-6.08,6.56,2.37,6.56,6.08,6.56,6.05-2.85,6.05-6.56Z"/>
      <path d="M800.4,955.77v-19.98h14.14v3.75h-9.89v4.19h9.68v3.75h-9.68v4.55h9.89v3.75h-14.14Z"/>
      <path d="M817.69,955.77v-19.98h4.28v16.24h8.45v3.75h-12.73Z"/>
      <path d="M846.99,955.77v-8.42h-9.44v8.42h-4.25v-19.98h4.25v7.85h9.44v-7.85h4.28v19.98h-4.28Z"/>
      <path d="M854.24,945.79c0-6.02,4.4-10.33,10.46-10.33s10.43,4.31,10.43,10.33-4.4,10.34-10.43,10.34-10.46-4.31-10.46-10.34ZM870.75,945.79c0-3.75-2.37-6.56-6.05-6.56s-6.08,2.82-6.08,6.56,2.37,6.56,6.08,6.56,6.05-2.85,6.05-6.56Z"/>
      <path d="M889.24,949.09c-1.98,0-3.57-1.59-3.57-3.53s1.59-3.57,3.57-3.57,3.56,1.59,3.56,3.57-1.59,3.53-3.56,3.53Z"/>
      <path d="M903.68,948.52c0-4.28,2.91-7.58,7.22-7.58,2.64,0,4.2,1.08,5.3,2.52l-1.5,1.38c-.96-1.32-2.19-1.89-3.68-1.89-3.09,0-5,2.37-5,5.57s1.92,5.6,5,5.6c1.5,0,2.73-.6,3.68-1.89l1.5,1.38c-1.11,1.44-2.67,2.52-5.3,2.52-4.31,0-7.22-3.3-7.22-7.61Z"/>
      <path d="M918.51,948.52c0-4.19,2.76-7.58,7.16-7.58s7.16,3.39,7.16,7.58-2.76,7.61-7.16,7.61-7.16-3.42-7.16-7.61ZM930.46,948.52c0-2.94-1.71-5.57-4.79-5.57s-4.82,2.64-4.82,5.57,1.74,5.6,4.82,5.6,4.79-2.64,4.79-5.6Z"/>
      <path d="M936.48,955.77v-19.98h2.25v19.98h-2.25Z"/>
      <path d="M942.39,948.52c0-4.19,2.76-7.58,7.16-7.58s7.16,3.39,7.16,7.58-2.76,7.61-7.16,7.61-7.16-3.42-7.16-7.61ZM954.34,948.52c0-2.94-1.71-5.57-4.79-5.57s-4.82,2.64-4.82,5.57,1.74,5.6,4.82,5.6,4.79-2.64,4.79-5.6Z"/>
      <path d="M960.36,955.77v-14.47h2.25v2.34c1.17-1.53,2.85-2.64,4.82-2.64v2.31c-.27-.06-.54-.09-.9-.09-1.38,0-3.27,1.14-3.92,2.31v10.25h-2.25Z"/>
      <path d="M977.95,959.49l1.14-1.68c1.2,1.44,2.64,1.98,4.7,1.98,2.4,0,4.64-1.17,4.64-4.34v-2.07c-1.05,1.47-2.81,2.58-4.85,2.58-3.77,0-6.44-2.81-6.44-7.49s2.64-7.52,6.44-7.52c1.95,0,3.68.96,4.85,2.55v-2.19h2.25v14.05c0,4.79-3.36,6.29-6.89,6.29-2.46,0-4.14-.48-5.84-2.16h0ZM988.43,951.61v-6.32c-.78-1.26-2.52-2.34-4.31-2.34-2.91,0-4.64,2.31-4.64,5.51s1.74,5.51,4.64,5.51c1.8,0,3.53-1.11,4.31-2.37h0Z"/>
      <path d="M995.18,955.77v-14.47h2.25v2.34c1.17-1.53,2.85-2.64,4.82-2.64v2.31c-.27-.06-.54-.09-.9-.09-1.38,0-3.27,1.14-3.92,2.31v10.25h-2.25Z"/>
      <path d="M1014.11,955.77v-1.65c-1.2,1.32-2.85,2.01-4.79,2.01-2.46,0-5.06-1.65-5.06-4.79s2.61-4.76,5.06-4.76c1.98,0,3.62.63,4.79,1.98v-2.61c0-1.95-1.56-3.06-3.65-3.06-1.74,0-3.15.63-4.44,2.01l-1.05-1.56c1.56-1.62,3.42-2.4,5.78-2.4,3.06,0,5.6,1.38,5.6,4.88v9.95h-2.25.01ZM1014.11,952.71v-2.73c-.87-1.2-2.4-1.8-3.98-1.8-2.1,0-3.57,1.32-3.57,3.18s1.47,3.15,3.57,3.15c1.59,0,3.12-.6,3.98-1.8h0Z"/>
      <path d="M1031.34,955.77v-2.16c-1.08,1.47-2.85,2.52-4.88,2.52-3.77,0-6.44-2.88-6.44-7.58s2.64-7.61,6.44-7.61c1.95,0,3.72.96,4.88,2.55v-7.7h2.25v19.98h-2.25ZM1031.34,951.85v-6.56c-.81-1.26-2.55-2.34-4.34-2.34-2.91,0-4.64,2.4-4.64,5.6s1.74,5.57,4.64,5.57c1.8,0,3.53-1.02,4.34-2.28h0Z"/>
      <path d="M1037.69,937.73c0-.84.69-1.53,1.5-1.53s1.53.69,1.53,1.53-.69,1.5-1.53,1.5-1.5-.66-1.5-1.5ZM1038.08,955.77v-14.47h2.25v14.47h-2.25Z"/>
      <path d="M1054.59,955.77v-9.47c0-2.55-1.29-3.36-3.24-3.36-1.77,0-3.44,1.08-4.28,2.25v10.58h-2.25v-14.47h2.25v2.1c1.02-1.2,3-2.46,5.15-2.46,3.03,0,4.61,1.53,4.61,4.67v10.16h-2.25.01Z"/>
      <path d="M1061.3,959.49l1.14-1.68c1.2,1.44,2.64,1.98,4.7,1.98,2.4,0,4.64-1.17,4.64-4.34v-2.07c-1.05,1.47-2.81,2.58-4.85,2.58-3.77,0-6.44-2.81-6.44-7.49s2.64-7.52,6.44-7.52c1.95,0,3.68.96,4.85,2.55v-2.19h2.25v14.05c0,4.79-3.36,6.29-6.89,6.29-2.46,0-4.14-.48-5.84-2.16h0ZM1071.79,951.61v-6.32c-.78-1.26-2.52-2.34-4.31-2.34-2.91,0-4.64,2.31-4.64,5.51s1.74,5.51,4.64,5.51c1.8,0,3.53-1.11,4.31-2.37h0Z"/>
      <path d="M1085.99,955.77v-19.98h10.52c3.81,0,5.75,2.43,5.75,5.09,0,2.49-1.56,4.19-3.44,4.58,2.16.33,3.83,2.4,3.83,4.88,0,3.03-1.98,5.42-5.81,5.42h-10.85ZM1097.91,941.63c0-1.23-.9-2.1-2.34-2.1h-5.33v4.19h5.33c1.44,0,2.34-.81,2.34-2.09ZM1098.3,949.75c0-1.26-.9-2.28-2.55-2.28h-5.51v4.55h5.51c1.59,0,2.55-.84,2.55-2.28h0Z"/>
      <path d="M1117.15,955.77l-3.92-7.1h-3.12v7.1h-4.25v-19.98h9.35c4.16,0,6.74,2.73,6.74,6.44,0,3.51-2.25,5.42-4.4,5.93l4.52,7.61h-4.92,0ZM1117.57,942.2c0-1.65-1.29-2.67-2.96-2.67h-4.49v5.39h4.49c1.68,0,2.96-1.02,2.96-2.73h0Z"/>
      <path d="M1125.12,947.77v-11.98h4.31v11.86c0,2.79,1.62,4.7,4.7,4.7s4.67-1.92,4.67-4.7v-11.86h4.34v11.98c0,4.94-2.94,8.36-9.02,8.36s-9.02-3.42-9.02-8.36h.02Z"/>
      <path d="M1160.89,955.77l-9.53-13.03v13.03h-4.25v-19.98h4.37l9.26,12.55v-12.55h4.25v19.98h-4.1Z"/>
      <path d="M1167.99,945.79c0-6.02,4.4-10.33,10.46-10.33s10.43,4.31,10.43,10.33-4.4,10.34-10.43,10.34-10.46-4.31-10.46-10.34ZM1184.5,945.79c0-3.75-2.37-6.56-6.05-6.56s-6.08,2.82-6.08,6.56,2.37,6.56,6.08,6.56,6.05-2.85,6.05-6.56Z"/>
      <path d="M1210.86,955.77l-3.92-7.1h-3.12v7.1h-4.25v-19.98h9.35c4.16,0,6.74,2.73,6.74,6.44,0,3.51-2.25,5.42-4.4,5.93l4.52,7.61h-4.92,0ZM1211.28,942.2c0-1.65-1.29-2.67-2.96-2.67h-4.49v5.39h4.49c1.68,0,2.96-1.02,2.96-2.73h0Z"/>
      <path d="M1218.83,955.77v-19.98h14.14v3.75h-9.89v4.19h9.68v3.75h-9.68v4.55h9.89v3.75h-14.14Z"/>
      <path d="M1236.3,955.77v-19.98h4.25v19.98h-4.25Z"/>
      <path d="M1243.13,952.95l2.34-3.33c1.41,1.47,3.59,2.73,6.35,2.73,2.37,0,3.48-1.05,3.48-2.22,0-3.48-11.5-1.05-11.5-8.57,0-3.32,2.88-6.08,7.58-6.08,3.18,0,5.81.96,7.79,2.79l-2.37,3.18c-1.62-1.5-3.77-2.19-5.81-2.19-1.8,0-2.81.78-2.81,1.98,0,3.14,11.47,1.02,11.47,8.48,0,3.66-2.64,6.41-8,6.41-3.86,0-6.62-1.29-8.51-3.18h0Z"/>
      <path d="M1269.22,945.79c0-6.02,4.4-10.33,10.46-10.33s10.43,4.31,10.43,10.33-4.4,10.34-10.43,10.34-10.46-4.31-10.46-10.34ZM1285.73,945.79c0-3.75-2.37-6.56-6.05-6.56s-6.08,2.82-6.08,6.56,2.37,6.56,6.08,6.56,6.05-2.85,6.05-6.56Z"/>
      <path d="M1292.92,955.77v-19.98h4.28v16.24h8.45v3.75h-12.73Z"/>
      <path d="M1308.53,955.77v-19.98h4.25v19.98h-4.25Z"/>
      <path d="M1322.34,955.77l-7.7-19.98h4.82l5.54,15.34,5.54-15.34h4.82l-7.7,19.98h-5.33,0Z"/>
      <path d="M1337.23,955.77v-19.98h14.14v3.75h-9.89v4.19h9.68v3.75h-9.68v4.55h9.89v3.75h-14.14Z"/>
      <path d="M1354.7,955.77v-19.98h4.25v19.98h-4.25Z"/>
      <path d="M1374.2,955.77l-3.92-7.1h-3.12v7.1h-4.25v-19.98h9.35c4.16,0,6.74,2.73,6.74,6.44,0,3.51-2.25,5.42-4.4,5.93l4.52,7.61h-4.92,0ZM1374.62,942.2c0-1.65-1.29-2.67-2.96-2.67h-4.49v5.39h4.49c1.68,0,2.96-1.02,2.96-2.73h0Z"/>
      <path d="M1395.98,955.77l-1.26-3.38h-8.57l-1.26,3.38h-4.82l7.7-19.98h5.33l7.7,19.98h-4.82ZM1390.44,940.04l-3.12,8.6h6.23l-3.12-8.6h.01Z"/>
      <path d="M1413.78,949.09c-1.98,0-3.57-1.59-3.57-3.53s1.59-3.57,3.57-3.57,3.56,1.59,3.56,3.57-1.59,3.53-3.56,3.53Z"/>
      <path d="M2.23,995.44l1.14-1.68c1.2,1.44,2.64,1.98,4.7,1.98,2.4,0,4.64-1.17,4.64-4.34v-2.07c-1.05,1.47-2.81,2.58-4.85,2.58-3.77,0-6.44-2.81-6.44-7.49s2.64-7.52,6.44-7.52c1.95,0,3.68.96,4.85,2.55v-2.19h2.25v14.05c0,4.79-3.36,6.29-6.89,6.29-2.46,0-4.14-.48-5.84-2.16h0ZM12.71,987.56v-6.32c-.78-1.26-2.52-2.34-4.31-2.34-2.91,0-4.64,2.31-4.64,5.51s1.74,5.51,4.64,5.51c1.8,0,3.53-1.11,4.31-2.37h0Z"/>
      <path d="M19.45,991.72v-14.47h2.25v2.34c1.17-1.53,2.85-2.64,4.82-2.64v2.31c-.27-.06-.54-.09-.9-.09-1.38,0-3.27,1.14-3.92,2.31v10.25h-2.25Z"/>
      <path d="M38.39,991.72v-1.65c-1.2,1.32-2.85,2.01-4.79,2.01-2.46,0-5.06-1.65-5.06-4.79s2.61-4.76,5.06-4.76c1.98,0,3.62.63,4.79,1.98v-2.61c0-1.95-1.56-3.06-3.65-3.06-1.74,0-3.15.63-4.44,2.01l-1.05-1.56c1.56-1.62,3.42-2.4,5.78-2.4,3.06,0,5.6,1.38,5.6,4.88v9.95h-2.25.01ZM38.39,988.67v-2.73c-.87-1.2-2.4-1.8-3.98-1.8-2.1,0-3.57,1.32-3.57,3.18s1.47,3.15,3.57,3.15c1.59,0,3.12-.6,3.98-1.8h0Z"/>
      <path d="M47.38,989.54v7.7h-2.25v-19.98h2.25v2.16c1.05-1.47,2.85-2.52,4.88-2.52,3.81,0,6.44,2.88,6.44,7.58s-2.64,7.61-6.44,7.61c-1.98,0-3.71-.93-4.88-2.55h0ZM56.34,984.47c0-3.21-1.74-5.57-4.64-5.57-1.77,0-3.54,1.05-4.31,2.31v6.53c.78,1.26,2.55,2.34,4.31,2.34,2.91,0,4.64-2.4,4.64-5.6h0Z"/>
      <path d="M72.07,991.72v-9.53c0-2.55-1.32-3.29-3.27-3.29-1.74,0-3.42,1.08-4.28,2.25v10.58h-2.25v-19.98h2.25v7.61c1.02-1.2,3-2.46,5.18-2.46,3.03,0,4.61,1.47,4.61,4.62v10.22h-2.25v-.02h0Z"/>
      <path d="M78.42,973.69c0-.84.69-1.53,1.5-1.53s1.53.69,1.53,1.53-.69,1.5-1.53,1.5-1.5-.66-1.5-1.5ZM78.81,991.72v-14.47h2.25v14.47h-2.25Z"/>
      <path d="M84.71,984.47c0-4.28,2.91-7.58,7.22-7.58,2.64,0,4.2,1.08,5.3,2.52l-1.5,1.38c-.96-1.32-2.19-1.89-3.68-1.89-3.09,0-5,2.37-5,5.57s1.92,5.6,5,5.6c1.5,0,2.73-.6,3.68-1.89l1.5,1.38c-1.11,1.44-2.67,2.52-5.3,2.52-4.31,0-7.22-3.3-7.22-7.61Z"/>
      <path d="M118.6,991.72v-2.16c-1.08,1.47-2.85,2.52-4.88,2.52-3.77,0-6.44-2.88-6.44-7.58s2.64-7.61,6.44-7.61c1.95,0,3.72.96,4.88,2.55v-7.7h2.25v19.98h-2.25ZM118.6,987.8v-6.56c-.81-1.26-2.55-2.34-4.34-2.34-2.91,0-4.64,2.4-4.64,5.6s1.74,5.57,4.64,5.57c1.8,0,3.53-1.02,4.34-2.28h0Z"/>
      <path d="M124.5,984.47c0-4.19,3-7.58,7.13-7.58,4.38,0,6.95,3.42,6.95,7.76v.57h-11.72c.18,2.73,2.1,5,5.21,5,1.65,0,3.33-.66,4.46-1.83l1.08,1.47c-1.44,1.44-3.38,2.22-5.75,2.22-4.28,0-7.37-3.09-7.37-7.61h.01,0ZM131.6,978.75c-3.09,0-4.61,2.61-4.73,4.82h9.5c-.03-2.16-1.47-4.82-4.76-4.82h0Z"/>
      <path d="M140.95,989.81l1.17-1.62c.96,1.11,2.79,2.07,4.76,2.07,2.22,0,3.42-1.05,3.42-2.49,0-3.51-8.96-1.35-8.96-6.71,0-2.25,1.95-4.16,5.39-4.16,2.46,0,4.2.93,5.36,2.1l-1.05,1.56c-.87-1.05-2.46-1.83-4.31-1.83-1.98,0-3.2.99-3.2,2.28,0,3.18,8.96,1.08,8.96,6.71,0,2.43-1.95,4.38-5.69,4.38-2.37,0-4.38-.72-5.84-2.28h0Z"/>
      <path d="M155.75,973.69c0-.84.69-1.53,1.5-1.53s1.53.69,1.53,1.53-.69,1.5-1.53,1.5-1.5-.66-1.5-1.5ZM156.14,991.72v-14.47h2.25v14.47h-2.25Z"/>
      <path d="M162.85,995.44l1.14-1.68c1.2,1.44,2.64,1.98,4.7,1.98,2.4,0,4.64-1.17,4.64-4.34v-2.07c-1.05,1.47-2.81,2.58-4.85,2.58-3.77,0-6.44-2.81-6.44-7.49s2.64-7.52,6.44-7.52c1.95,0,3.68.96,4.85,2.55v-2.19h2.25v14.05c0,4.79-3.36,6.29-6.89,6.29-2.46,0-4.14-.48-5.84-2.16h0ZM173.33,987.56v-6.32c-.78-1.26-2.52-2.34-4.31-2.34-2.91,0-4.64,2.31-4.64,5.51s1.74,5.51,4.64,5.51c1.8,0,3.53-1.11,4.31-2.37h0Z"/>
      <path d="M189.84,991.72v-9.47c0-2.55-1.29-3.36-3.24-3.36-1.77,0-3.44,1.08-4.28,2.25v10.58h-2.25v-14.47h2.25v2.1c1.02-1.2,3-2.46,5.15-2.46,3.03,0,4.61,1.53,4.61,4.67v10.16h-2.25.01Z"/>
      <path d="M215.4,991.72l-3.92-7.1h-3.12v7.1h-4.25v-19.98h9.35c4.16,0,6.74,2.73,6.74,6.44,0,3.51-2.25,5.42-4.4,5.93l4.52,7.61h-4.92ZM215.82,978.15c0-1.65-1.29-2.67-2.96-2.67h-4.49v5.39h4.49c1.68,0,2.96-1.02,2.96-2.73h0Z"/>
      <path d="M223.37,991.72v-19.98h4.25v19.98h-4.25Z"/>
      <path d="M236.19,991.72v-16.24h-5.84v-3.75h15.94v3.75h-5.81v16.24h-4.29Z"/>
      <path d="M262.82,991.72l-1.26-3.38h-8.57l-1.26,3.38h-4.82l7.7-19.98h5.33l7.7,19.98h-4.82,0ZM257.28,976l-3.12,8.6h6.23l-3.12-8.6h0Z"/>
      <path d="M276.24,981.75c0-6.17,4.64-10.33,10.67-10.33,4.38,0,6.92,2.36,8.33,4.88l-3.66,1.8c-.84-1.62-2.64-2.91-4.67-2.91-3.66,0-6.29,2.79-6.29,6.56s2.64,6.56,6.29,6.56c2.04,0,3.83-1.29,4.67-2.91l3.66,1.77c-1.41,2.49-3.95,4.92-8.33,4.92-6.02,0-10.67-4.2-10.67-10.34Z"/>
      <path d="M309.08,991.72l-3.92-7.1h-3.12v7.1h-4.25v-19.98h9.35c4.16,0,6.74,2.73,6.74,6.44,0,3.51-2.25,5.42-4.4,5.93l4.52,7.61h-4.92,0ZM309.5,978.15c0-1.65-1.29-2.67-2.96-2.67h-4.49v5.39h4.49c1.68,0,2.96-1.02,2.96-2.73h0Z"/>
      <path d="M317.05,983.72v-11.98h4.31v11.86c0,2.79,1.62,4.7,4.7,4.7s4.67-1.92,4.67-4.7v-11.86h4.34v11.98c0,4.94-2.94,8.36-9.02,8.36s-9.02-3.42-9.02-8.36h.02,0Z"/>
      <path d="M338.32,991.72v-3.45l9.44-12.79h-9.44v-3.75h15.01v3.42l-9.44,12.82h9.65v3.75h-15.22Z"/>
      <path d="M369.09,991.72v-16.24h-5.84v-3.75h15.94v3.75h-5.81v16.24h-4.29Z"/>
      <path d="M395.72,991.72l-1.26-3.38h-8.57l-1.26,3.38h-4.82l7.7-19.98h5.33l7.7,19.98h-4.82,0ZM390.18,976l-3.12,8.6h6.23l-3.12-8.6h.01,0Z"/>
      <path d="M408.01,991.72l-7.7-19.98h4.82l5.54,15.34,5.54-15.34h4.82l-7.7,19.98h-5.33.01,0Z"/>
      <path d="M436.71,991.72l-1.26-3.38h-8.57l-1.26,3.38h-4.82l7.7-19.98h5.33l7.7,19.98h-4.82,0ZM431.17,976l-3.12,8.6h6.23l-3.12-8.6h.01,0Z"/>
      <path d="M454.69,991.72l-3.92-7.1h-3.12v7.1h-4.25v-19.98h9.35c4.16,0,6.74,2.73,6.74,6.44,0,3.51-2.25,5.42-4.4,5.93l4.52,7.61h-4.92,0ZM455.11,978.15c0-1.65-1.29-2.67-2.96-2.67h-4.49v5.39h4.49c1.68,0,2.96-1.02,2.96-2.73h0Z"/>
      <path d="M462.66,991.72v-19.98h14.14v3.75h-9.89v4.19h9.68v3.75h-9.68v4.55h9.89v3.75h-14.14Z"/>
      <path d="M478.74,988.91l2.34-3.33c1.41,1.47,3.59,2.73,6.35,2.73,2.37,0,3.48-1.05,3.48-2.22,0-3.48-11.5-1.05-11.5-8.57,0-3.32,2.88-6.08,7.58-6.08,3.18,0,5.81.96,7.79,2.79l-2.37,3.18c-1.62-1.5-3.77-2.19-5.81-2.19-1.8,0-2.81.78-2.81,1.98,0,3.14,11.47,1.02,11.47,8.48,0,3.66-2.64,6.41-8,6.41-3.86,0-6.62-1.29-8.51-3.18h-.01Z"/>
      <path d="M515.21,991.72v-1.65c-1.2,1.32-2.85,2.01-4.79,2.01-2.46,0-5.06-1.65-5.06-4.79s2.61-4.76,5.06-4.76c1.98,0,3.62.63,4.79,1.98v-2.61c0-1.95-1.56-3.06-3.65-3.06-1.74,0-3.15.63-4.44,2.01l-1.05-1.56c1.56-1.62,3.42-2.4,5.78-2.4,3.06,0,5.6,1.38,5.6,4.88v9.95h-2.25.01ZM515.21,988.67v-2.73c-.87-1.2-2.4-1.8-3.98-1.8-2.1,0-3.57,1.32-3.57,3.18s1.47,3.15,3.57,3.15c1.59,0,3.12-.6,3.98-1.8h0Z"/>
      <path d="M531.72,991.72v-9.47c0-2.55-1.29-3.36-3.24-3.36-1.77,0-3.44,1.08-4.28,2.25v10.58h-2.25v-14.47h2.25v2.1c1.02-1.2,3-2.46,5.15-2.46,3.03,0,4.61,1.53,4.61,4.67v10.16h-2.25.01Z"/>
      <path d="M548.94,991.72v-2.16c-1.08,1.47-2.85,2.52-4.88,2.52-3.77,0-6.44-2.88-6.44-7.58s2.64-7.61,6.44-7.61c1.95,0,3.72.96,4.88,2.55v-7.7h2.25v19.98h-2.25ZM548.94,987.8v-6.56c-.81-1.26-2.55-2.34-4.34-2.34-2.91,0-4.64,2.4-4.64,5.6s1.74,5.57,4.64,5.57c1.8,0,3.53-1.02,4.34-2.28h0Z"/>
      <path d="M580.58,991.72v-14.41l-5.63,14.41h-1.86l-5.63-14.41v14.41h-4.25v-19.98h5.96l4.85,12.49,4.86-12.49h5.99v19.98h-4.29Z"/>
      <path d="M602.63,991.72l-1.26-3.38h-8.57l-1.26,3.38h-4.82l7.7-19.98h5.33l7.7,19.98h-4.82ZM597.09,976l-3.12,8.6h6.23l-3.12-8.6h.01ZM597.33,969.91h-2.67l4.01-4.31h3.51l-4.85,4.31h0Z"/>
      <path d="M620.61,991.72l-3.92-7.1h-3.12v7.1h-4.25v-19.98h9.35c4.16,0,6.74,2.73,6.74,6.44,0,3.51-2.25,5.42-4.4,5.93l4.52,7.61h-4.92ZM621.03,978.15c0-1.65-1.29-2.67-2.96-2.67h-4.49v5.39h4.49c1.68,0,2.96-1.02,2.96-2.73h0Z"/>
      <path d="M628.58,991.72v-19.98h4.25v19.98h-4.25Z"/>
      <path d="M635.83,981.75c0-6.02,4.4-10.33,10.46-10.33s10.43,4.31,10.43,10.33-4.4,10.34-10.43,10.34-10.46-4.31-10.46-10.34ZM652.34,981.75c0-3.75-2.37-6.56-6.05-6.56s-6.08,2.82-6.08,6.56,2.37,6.56,6.08,6.56,6.05-2.85,6.05-6.56Z"/>
      <path d="M673.01,991.72l-7.7-19.98h4.82l5.54,15.34,5.54-15.34h4.82l-7.7,19.98h-5.33.01Z"/>
      <path d="M687.9,991.72v-19.98h14.14v3.75h-9.89v4.19h9.68v3.75h-9.68v4.55h9.89v3.75h-14.14Z"/>
      <path d="M705.19,991.72v-19.98h4.28v16.24h8.45v3.75h-12.73Z"/>
      <path d="M719.84,981.75c0-6.02,4.4-10.33,10.46-10.33s10.43,4.31,10.43,10.33-4.4,10.34-10.43,10.34-10.46-4.31-10.46-10.34ZM736.35,981.75c0-3.75-2.37-6.56-6.05-6.56s-6.08,2.82-6.08,6.56,2.37,6.56,6.08,6.56,6.05-2.85,6.05-6.56Z"/>
      <path d="M742.34,988.91l2.34-3.33c1.41,1.47,3.59,2.73,6.35,2.73,2.37,0,3.48-1.05,3.48-2.22,0-3.48-11.5-1.05-11.5-8.57,0-3.32,2.88-6.08,7.58-6.08,3.18,0,5.81.96,7.79,2.79l-2.37,3.18c-1.62-1.5-3.77-2.19-5.81-2.19-1.8,0-2.81.78-2.81,1.98,0,3.14,11.47,1.02,11.47,8.48,0,3.66-2.64,6.41-8,6.41-3.86,0-6.62-1.29-8.51-3.18h0Z"/>
      <path d="M760.73,981.75c0-6.02,4.4-10.33,10.46-10.33s10.43,4.31,10.43,10.33-4.4,10.34-10.43,10.34-10.46-4.31-10.46-10.34ZM777.24,981.75c0-3.75-2.37-6.56-6.05-6.56s-6.08,2.82-6.08,6.56,2.37,6.56,6.08,6.56,6.05-2.85,6.05-6.56Z"/>
      <path d="M795.73,985.04c-1.98,0-3.57-1.59-3.57-3.53s1.59-3.57,3.57-3.57,3.56,1.59,3.56,3.57-1.59,3.53-3.56,3.53Z"/>
    </g>
  </g>
  <g class="cls-2">
    <g>
      <path d="M329.21,40.29c1.29-2.22,2.55-11.19,2.55-11.19,0,0-7.13,5.58-8.42,7.8-1.28,2.23-1.62,4.44.61,5.72,2.22,1.28,3.97-.11,5.26-2.33h0ZM323.45,22.59c.88-2.41.57-11.47.57-11.47,0,0-6.06,6.74-6.93,9.15-.88,2.41-.82,4.65,1.59,5.53,2.41.88,3.89-.8,4.77-3.21h0ZM310.7,17.76c1.06-1.34.61-3.13-.51-4.91-1.36-2.18-8.68-7.51-8.68-7.51,0,0,1.58,8.92,2.94,11.1,1.09,1.74,2.46,2.92,4.08,2.63,7.64,11.24,12.24,25.23,12.24,40.47,0,36.92-26.66,66.85-59.55,66.85v2.74c34.24,0,61.99-31.16,61.99-69.59,0-15.7-4.69-30.14-12.5-41.78h-.01,0ZM311.97,30.63c-2-1.62-10.66-4.27-10.66-4.27,0,0,4.4,7.92,6.39,9.53,2,1.62,4.13,2.29,5.75.29s.51-3.94-1.48-5.56h0ZM314.52,77.48c-1.44-2.13-8.94-7.2-8.94-7.2,0,0,1.89,8.86,3.32,10.99,1.44,2.13,3.28,3.4,5.41,1.96s1.64-3.62.21-5.75h0ZM317.58,52.03c1.78-1.85.85-3.88-.99-5.67-1.85-1.78-10.24-5.18-10.24-5.18,0,0,3.69,8.27,5.54,10.06s3.91,2.64,5.7.79h-.01ZM317.15,61.52c-1.72-1.91-9.86-5.88-9.86-5.88,0,0,3.1,8.51,4.82,10.42,1.72,1.91,3.72,2.91,5.63,1.19s1.12-3.82-.59-5.72h0ZM300.52,83.03s.32,9.05,1.37,11.4,2.64,3.92,4.99,2.87c2.35-1.04,2.25-3.28,1.2-5.63s-7.56-8.64-7.56-8.64h0ZM300.26,102.7c-.88-2.41-6.93-9.15-6.93-9.15,0,0-.31,9.05.57,11.47.88,2.41,2.36,4.09,4.77,3.21,2.41-.88,2.47-3.11,1.59-5.53h0ZM291.1,111.03c-.53-2.51-5.59-10.02-5.59-10.02,0,0-1.57,8.92-1.03,11.43s1.77,4.38,4.28,3.84c2.51-.53,2.88-2.74,2.35-5.25h-.01ZM279.65,116.99c-.18-2.56-4.15-10.71-4.15-10.71,0,0-2.79,8.62-2.61,11.18.18,2.56,1.14,4.58,3.7,4.4s3.23-2.31,3.06-4.88h0ZM287.54,126.09c-1.28,2.22.11,3.97,2.33,5.26,2.22,1.28,11.19,2.55,11.19,2.55,0,0-5.58-7.13-7.81-8.42-2.23-1.28-4.44-1.61-5.72.61h.01ZM304.71,121.52c2.53.45,11.39-1.43,11.39-1.43,0,0-7.68-4.79-10.21-5.24s-4.72,0-5.17,2.53,1.46,3.7,3.99,4.14h0ZM316.12,109.32c2.53-.45,10.21-5.24,10.21-5.24,0,0-8.86-1.88-11.39-1.43-2.53.45-4.44,1.62-3.99,4.15s2.64,2.97,5.17,2.53h0ZM331.74,86.18s-8.97,1.27-11.19,2.55c-2.22,1.28-3.62,3.03-2.33,5.26,1.28,2.22,3.5,1.89,5.72.61s7.81-8.42,7.81-8.42h-.01ZM329.01,77.32c1.97-1.65,6.23-9.64,6.23-9.64,0,0-8.61,2.8-10.58,4.46-1.97,1.65-3.04,3.62-1.39,5.58,1.65,1.97,3.77,1.26,5.74-.4h0ZM331.36,59.89c1.65-1.97,4.46-10.58,4.46-10.58,0,0-7.99,4.26-9.65,6.23-1.65,1.97-2.36,4.09-.39,5.74,1.97,1.65,3.93.58,5.58-1.39h0Z"/>
      <path d="M75.39,129.13v-2.74c-32.89,0-59.55-29.93-59.55-66.85,0-15.23,4.59-29.23,12.24-40.47,1.62.28,2.99-.89,4.08-2.63,1.36-2.18,2.94-11.1,2.94-11.1,0,0-7.32,5.33-8.69,7.51-1.11,1.78-1.56,3.57-.51,4.91-7.81,11.64-12.5,26.08-12.5,41.78,0,38.44,27.75,69.59,61.99,69.59h0ZM63.71,117.46c.18-2.56-2.62-11.18-2.62-11.18,0,0-3.96,8.14-4.14,10.71-.18,2.56.49,4.7,3.05,4.88,2.56.18,3.52-1.84,3.7-4.4h0ZM52.13,112.44c.54-2.51-1.03-11.43-1.03-11.43,0,0-5.06,7.51-5.59,10.02-.53,2.51-.17,4.72,2.35,5.25,2.51.54,3.75-1.33,4.28-3.84h0ZM42.71,105.01c.88-2.41.57-11.47.57-11.47,0,0-6.06,6.73-6.93,9.15-.88,2.42-.82,4.65,1.59,5.53s3.89-.8,4.77-3.21h0ZM34.73,94.43c1.04-2.35,1.37-11.4,1.37-11.4,0,0-6.51,6.3-7.56,8.64-1.05,2.35-1.14,4.58,1.2,5.63,2.35,1.04,3.94-.52,4.99-2.87h0ZM23.15,36.19c1.62,2,3.75,1.32,5.75-.29,2-1.62,6.39-9.53,6.39-9.53,0,0-8.66,2.65-10.66,4.27-2,1.62-3.1,3.56-1.48,5.56h0ZM20.02,46.37c-1.85,1.79-2.78,3.82-.99,5.67,1.78,1.85,3.85.99,5.7-.79s5.54-10.06,5.54-10.06c0,0-8.39,3.4-10.24,5.18h-.01ZM22.09,77.48c-1.44,2.13-1.92,4.31.21,5.75s3.97.17,5.41-1.96,3.32-10.99,3.32-10.99c0,0-7.5,5.07-8.94,7.2h0ZM18.86,67.24c1.91,1.72,3.91.72,5.63-1.19s4.82-10.42,4.82-10.42c0,0-8.14,3.98-9.86,5.88s-2.5,4-.6,5.72h.01ZM19.52,20.27c-.88-2.41-6.93-9.15-6.93-9.15,0,0-.31,9.05.57,11.47.88,2.41,2.36,4.09,4.77,3.21,2.41-.88,2.47-3.11,1.59-5.53h0ZM13.27,36.9c-1.28-2.22-8.42-7.8-8.42-7.8,0,0,1.27,8.97,2.55,11.19,1.28,2.22,3.03,3.62,5.26,2.33,2.22-1.28,1.89-3.5.61-5.72h0ZM10.44,55.54c-1.65-1.97-9.65-6.23-9.65-6.23,0,0,2.8,8.61,4.46,10.58,1.65,1.97,3.62,3.04,5.58,1.39,1.97-1.65,1.26-3.77-.39-5.74h0ZM11.95,72.13c-1.97-1.65-10.58-4.46-10.58-4.46,0,0,4.26,7.99,6.22,9.64,1.97,1.65,4.09,2.36,5.74.4,1.65-1.97.58-3.93-1.38-5.58h0ZM16.06,88.73c-2.22-1.29-11.19-2.55-11.19-2.55,0,0,5.58,7.13,7.81,8.42,2.22,1.29,4.44,1.62,5.72-.61,1.29-2.23-.11-3.98-2.33-5.26h-.01ZM10.28,104.08s7.68,4.79,10.21,5.24,4.72,0,5.17-2.53-1.46-3.7-3.99-4.15-11.39,1.43-11.39,1.43h0ZM30.72,114.85c-2.53.45-10.21,5.24-10.21,5.24,0,0,8.86,1.88,11.39,1.43s4.44-1.61,3.99-4.14-2.64-2.98-5.17-2.53h0ZM35.55,133.9s8.97-1.27,11.19-2.55,3.62-3.03,2.33-5.26c-1.29-2.22-3.5-1.89-5.72-.61-2.22,1.29-7.81,8.42-7.81,8.42h.01Z"/>
      <path d="M155.33,167.62l1.96-1.64c1.46-1.21,3.2-2.72,3.2-4.63,0-1.79-1.17-3.23-3.64-3.23-2.26,0-3.72,1.39-3.72,3.55,0,.32.05.65.17.99l1.42.07c-.12-.3-.17-.64-.17-.96,0-1.54.84-2.43,2.3-2.43s2.15.84,2.15,2.08c0,1.54-1.28,2.62-2.97,4.06l-3,2.56v.84h7.79v-1.26h-5.5.01ZM170.2,163.6c0-3.51-1.61-5.48-4.37-5.48s-4.39,1.98-4.39,5.48,1.62,5.48,4.39,5.48,4.37-1.98,4.37-5.48h0ZM168.69,163.6c0,2.87-.92,4.31-2.87,4.31s-2.87-1.44-2.87-4.31.92-4.31,2.87-4.31,2.87,1.44,2.87,4.31h0ZM173.33,167.62l1.96-1.64c1.46-1.21,3.2-2.72,3.2-4.63,0-1.79-1.17-3.23-3.64-3.23-2.26,0-3.72,1.39-3.72,3.55,0,.32.05.65.17.99l1.42.07c-.12-.3-.17-.64-.17-.96,0-1.54.84-2.43,2.3-2.43s2.15.84,2.15,2.08c0,1.54-1.28,2.62-2.97,4.06l-3,2.56v.84h7.79v-1.26h-5.5.01ZM183.57,168.88v-10.63h-.95c-.3,1.24-.79,1.58-2.56,1.58h-.75v1.07h2.82v7.98h1.46-.02Z"/>
      <path d="M118.62,152.12v-7.5h3.84v7.5h3.14v-9.67h-6.97v-.11c0-1.24.72-2.05,2.07-2.05,1.05,0,1.68.48,1.92,1.09l2.13-1.24c-.65-1.13-2.05-2-4.31-2-2.92,0-4.92,1.72-4.92,4.16v.15h-1.63v2.18h1.63v7.5h3.11-.01,0ZM127.33,138.39v13.73h3.16v-13.73h-3.16ZM141.82,144.31c-.41-1.26-1.5-2.13-3.2-2.13-1.44,0-2.9.85-3.34,2v-1.74h-3.16v9.67h3.16v-4.86c0-1.55.76-2.64,1.99-2.64,1.11,0,1.72.76,1.72,2.16v5.34h3.13v-4.86c0-1.55.76-2.64,1.99-2.64,1.11,0,1.74.76,1.74,2.16v5.34h3.13v-6.06c0-2.07-.98-3.88-3.53-3.88-1.81,0-3.18.98-3.64,2.13h0,0ZM155.82,144.62v7.5h3.11v-7.5h2.51v-2.18h-2.51v-.33c0-1.2.63-1.77,1.59-1.77,1.07,0,1.55.59,1.74,1.11l1.7-1.37c-.57-1.11-1.81-1.96-3.79-1.96-2.53,0-4.36,1.5-4.36,3.9v.41h-1.63v2.18h1.64ZM169.29,148.8c-.41.87-1.15,1.29-2.22,1.29-1.44,0-2.33-.96-2.36-2.31h7.06v-.78c0-2.6-1.63-4.82-4.9-4.82-3.01,0-5.27,2.2-5.27,5.25s2.2,4.95,5.34,4.95c2.42,0,4.14-.94,4.79-2.83l-2.44-.74h0ZM164.78,146.3c.17-1.07.85-1.94,2.09-1.94s1.96.9,2.01,1.94h-4.1,0ZM172.01,150.24c.98,1.42,3.18,2.13,5.19,2.13,2.77,0,4.53-1.26,4.53-3.25,0-1.63-1.28-2.46-2.94-2.83l-2.6-.57c-.54-.11-.83-.35-.83-.7,0-.52.63-.76,1.31-.76,1.22,0,2.18.37,2.92,1.16l1.74-1.33c-1-1.2-2.44-1.92-4.66-1.92-2.53,0-4.21,1.33-4.21,3.09s1.29,2.64,3.22,3.03l2.03.39c.66.13,1.11.3,1.11.81,0,.55-.66.79-1.64.79-1.2,0-2.59-.5-3.2-1.44l-1.98,1.4h.01ZM181.86,142.44v2.18h1.81v4.03c0,2.57,1.68,3.72,3.81,3.72,1.94,0,3.23-1.02,3.95-2.09l-1.53-1.83c-.57.94-.92,1.4-1.87,1.4-.81,0-1.31-.54-1.31-1.44v-3.79h3.57v-2.18h-3.57v-2.99l-3.05.61v2.37h-1.81ZM191.89,141.04h3.35v-2.66h-3.35v2.66h0ZM192,142.44v9.67h3.16v-9.67h-3.16ZM202.95,152.12l3.83-9.67h-2.9l-2.46,6.49h-.09l-2.35-6.49h-3.31l3.83,9.67h3.45ZM209.46,145.79c.13-.76.87-1.4,2.07-1.4.85,0,1.35.33,1.35,1.11v.33l-3.1.78c-1.89.48-3.44,1.18-3.44,2.92s1.33,2.72,3.16,2.72c1.64,0,2.9-.7,3.45-1.85.2,1.11,1.24,1.94,2.63,1.94.78,0,1.5-.22,2.24-.67l-.22-1.87c-.26.24-.72.44-1.09.44-.39,0-.67-.22-.67-.68v-3.9c0-2.53-1.63-3.48-4.16-3.48s-4.29,1.2-4.99,2.9l2.77.72h0ZM212.88,148.13c0,1.33-1.13,2.12-2.29,2.12-.7,0-1.16-.39-1.16-1.03,0-.74.61-1.09,1.42-1.33l2.03-.57v.81h0ZM218.6,138.39v13.73h3.16v-13.73h-3.16Z"/>
      <path d="M107.85,124.28h3.35v-2.66h-3.35v2.66h0ZM107.95,125.68v9.67h3.16v-9.67s-3.16,0-3.16,0ZM115.92,130.49c0-1.55.81-2.64,2.09-2.64,1.18,0,1.81.76,1.81,2.16v5.34h3.16v-6.06c0-2.07-1.07-3.88-3.7-3.88-1.5,0-2.9.85-3.36,2v-1.74h-3.16v9.67h3.16v-4.86h0ZM123.46,125.68v2.18h1.81v4.03c0,2.57,1.68,3.72,3.81,3.72,1.94,0,3.22-1.02,3.94-2.09l-1.53-1.83c-.57.94-.92,1.4-1.87,1.4-.81,0-1.31-.54-1.31-1.44v-3.79h3.57v-2.18h-3.57v-2.99l-3.05.61v2.37h-1.81,0ZM140.66,132.04c-.41.87-1.16,1.29-2.22,1.29-1.44,0-2.33-.96-2.36-2.31h7.06v-.78c0-2.6-1.63-4.82-4.9-4.82-3.01,0-5.27,2.2-5.27,5.25s2.2,4.95,5.34,4.95c2.42,0,4.14-.94,4.79-2.83l-2.44-.74h0ZM136.15,129.53c.17-1.07.85-1.94,2.09-1.94s1.96.9,2.01,1.94h-4.1,0ZM149.63,127.98c1,0,1.46.63,1.46,1.53,0,.17,0,.37-.04.52l2.57-1.02s.02-.13.02-.17c0-2.03-1.04-3.42-3.01-3.42-1.66,0-2.7,1.2-3.21,2.31v-2.05h-3.13v9.67h3.13v-4.19c0-1.76.74-3.18,2.2-3.18h0,0ZM157.42,130.49c0-1.55.81-2.64,2.09-2.64,1.18,0,1.81.76,1.81,2.16v5.34h3.16v-6.06c0-2.07-1.07-3.88-3.7-3.88-1.5,0-2.9.85-3.36,2v-1.74h-3.16v9.67h3.16v-4.86h0ZM168.51,129.03c.13-.76.87-1.4,2.07-1.4.85,0,1.35.33,1.35,1.11v.33l-3.1.78c-1.9.48-3.44,1.18-3.44,2.92s1.33,2.72,3.16,2.72c1.64,0,2.9-.7,3.45-1.85.2,1.11,1.24,1.94,2.63,1.94.79,0,1.5-.22,2.25-.67l-.22-1.87c-.26.24-.72.44-1.09.44-.39,0-.67-.22-.67-.68v-3.9c0-2.53-1.63-3.48-4.16-3.48s-4.29,1.2-4.99,2.9l2.77.72h-.01ZM171.93,131.36c0,1.33-1.13,2.12-2.29,2.12-.7,0-1.16-.39-1.16-1.03,0-.74.61-1.09,1.42-1.33l2.03-.57v.81h0ZM175.88,125.68v2.18h1.81v4.03c0,2.57,1.68,3.72,3.81,3.72,1.94,0,3.23-1.02,3.95-2.09l-1.53-1.83c-.57.94-.92,1.4-1.87,1.4-.81,0-1.31-.54-1.31-1.44v-3.79h3.57v-2.18h-3.57v-2.99l-3.05.61v2.37h-1.81ZM185.92,124.28h3.35v-2.66h-3.35v2.66h0ZM186.03,125.68v9.67h3.16v-9.67s-3.16,0-3.16,0ZM201.03,130.51c0-2.99-2.31-5.1-5.4-5.1s-5.42,2.11-5.42,5.1,2.33,5.1,5.42,5.1,5.4-2.09,5.4-5.1h0ZM193.43,130.51c0-1.68.81-2.81,2.2-2.81s2.2,1.13,2.2,2.81-.81,2.81-2.2,2.81-2.2-1.13-2.2-2.81h0ZM205.26,130.49c0-1.55.81-2.64,2.09-2.64,1.18,0,1.81.76,1.81,2.16v5.34h3.16v-6.06c0-2.07-1.07-3.88-3.7-3.88-1.5,0-2.9.85-3.36,2v-1.74h-3.16v9.67h3.16v-4.86h0ZM216.35,129.03c.13-.76.87-1.4,2.07-1.4.85,0,1.35.33,1.35,1.11v.33l-3.1.78c-1.89.48-3.44,1.18-3.44,2.92s1.33,2.72,3.16,2.72c1.63,0,2.9-.7,3.45-1.85.2,1.11,1.24,1.94,2.63,1.94.78,0,1.5-.22,2.25-.67l-.22-1.87c-.26.24-.72.44-1.09.44-.39,0-.68-.22-.68-.68v-3.9c0-2.53-1.63-3.48-4.16-3.48s-4.29,1.2-4.99,2.9l2.76.72h0ZM219.77,131.36c0,1.33-1.13,2.12-2.29,2.12-.7,0-1.16-.39-1.16-1.03,0-.74.61-1.09,1.42-1.33l2.03-.57v.81h0ZM225.49,121.62v13.73h3.16v-13.73s-3.16,0-3.16,0Z"/>
      <path d="M132.51,113.95c0,1.55-1,2.55-2.31,2.55-1.5,0-2.36-1.18-2.36-2.75s.85-2.75,2.36-2.75c1.31,0,2.31,1,2.31,2.55v.39h0ZM132.44,118.59h3.16v-13.73h-3.16v5.84c-.52-1.2-1.59-2.05-3.25-2.05-2.85,0-4.53,2.26-4.53,5.1s1.68,5.1,4.53,5.1c1.66,0,2.73-.85,3.25-2.05v1.79h0ZM147.49,113.75c0-2.99-2.31-5.1-5.4-5.1s-5.42,2.11-5.42,5.1,2.33,5.1,5.42,5.1,5.4-2.09,5.4-5.1h0ZM139.88,113.75c0-1.68.81-2.81,2.2-2.81s2.2,1.13,2.2,2.81-.81,2.81-2.2,2.81-2.2-1.13-2.2-2.81h0ZM155.38,114.71c-.24,1.09-.89,1.77-1.98,1.77-1.26,0-2.2-.94-2.2-2.73s.94-2.73,2.22-2.73c1,0,1.61.59,1.9,1.55l2.68-.79c-.54-1.85-2.16-3.14-4.71-3.14-3.12,0-5.31,2.02-5.31,5.1s2.2,5.1,5.31,5.1c2.7,0,4.36-1.46,4.82-3.44l-2.72-.7h0ZM158.98,104.86v13.73h3.16v-13.73h-3.16ZM163.67,107.51h3.35v-2.66h-3.35v2.66h0ZM163.78,108.91v9.67h3.16v-9.67h-3.16ZM167.75,116.71c.98,1.42,3.18,2.13,5.19,2.13,2.77,0,4.53-1.26,4.53-3.25,0-1.63-1.28-2.46-2.94-2.83l-2.6-.57c-.54-.11-.83-.35-.83-.7,0-.52.63-.76,1.31-.76,1.22,0,2.18.37,2.92,1.16l1.74-1.33c-1-1.2-2.44-1.92-4.66-1.92-2.53,0-4.21,1.33-4.21,3.09s1.29,2.64,3.22,3.03l2.03.39c.66.13,1.11.3,1.11.81,0,.55-.66.79-1.64.79-1.2,0-2.59-.5-3.2-1.44l-1.98,1.4h.01ZM181.54,116.82c.5,1.24,1.74,2.02,3.31,2.02,2.96,0,4.64-2.24,4.64-5.1s-1.68-5.1-4.53-5.1c-1.68,0-2.75.85-3.25,2.05v-5.84h-3.16v13.73h2.33l.65-1.76h.01ZM181.65,113.55c0-1.55.98-2.55,2.31-2.55,1.5,0,2.33,1.18,2.33,2.75s-.83,2.75-2.33,2.75c-1.33,0-2.31-1-2.31-2.55v-.39h0ZM200.83,113.75c0-2.99-2.31-5.1-5.4-5.1s-5.43,2.11-5.43,5.1,2.33,5.1,5.43,5.1,5.4-2.09,5.4-5.1h0ZM193.23,113.75c0-1.68.81-2.81,2.2-2.81s2.2,1.13,2.2,2.81-.81,2.81-2.2,2.81-2.2-1.13-2.2-2.81h0ZM204.28,112.27c.13-.76.87-1.4,2.07-1.4.85,0,1.35.33,1.35,1.11v.33l-3.1.78c-1.89.48-3.44,1.18-3.44,2.92s1.33,2.72,3.16,2.72c1.64,0,2.9-.7,3.45-1.85.2,1.11,1.24,1.94,2.63,1.94.78,0,1.5-.22,2.24-.67l-.22-1.87c-.26.24-.72.44-1.09.44-.39,0-.67-.22-.67-.68v-3.9c0-2.53-1.63-3.48-4.16-3.48s-4.29,1.2-4.99,2.9l2.77.72h0ZM207.7,114.6c0,1.33-1.13,2.12-2.29,2.12-.7,0-1.16-.39-1.16-1.03,0-.74.61-1.09,1.42-1.33l2.03-.57v.81h0Z"/>
      <path d="M124.39,74.45h10.08v8.68h2.34v-19.24h-2.34v8.47h-10.08v-8.47h-2.34v19.24h2.34v-8.68h0ZM146.25,83.45c3.72,0,5.96-2.82,5.96-6.97s-1.96-6.94-5.91-6.94c-3.7,0-5.96,2.84-5.96,6.94s2.01,6.97,5.91,6.97h0ZM146.27,71.28c2.54,0,3.6,1.99,3.6,5.21s-1.08,5.21-3.55,5.21-3.65-1.96-3.65-5.21,1.18-5.21,3.6-5.21h0ZM163.7,83.13h2.26v-9.23c0-3.14-1.68-4.35-4.22-4.35-2.11,0-3.65,1.21-4.27,2.56h-.05v-2.24h-2.14v13.25h2.26v-7.95c0-2.16,1.13-3.75,3.6-3.75.88,0,1.63.25,2.09.88.48.63.48,1.68.48,2.64v8.17h0v.02h0ZM169.82,83.13h2.26v-7.22c0-2.56,1.56-3.92,3.92-3.92h.43v-2.36h-.23c-1.94,0-3.6,1.36-4.2,2.74h-.05v-2.49h-2.14v13.25h.01ZM183.88,83.45c3.72,0,5.96-2.82,5.96-6.97s-1.96-6.94-5.91-6.94c-3.7,0-5.96,2.84-5.96,6.94s2.01,6.97,5.91,6.97h0ZM183.9,71.28c2.54,0,3.6,1.99,3.6,5.21s-1.08,5.21-3.55,5.21-3.65-1.96-3.65-5.21,1.18-5.21,3.6-5.21h0ZM201.83,73.19c-.23-2.31-1.86-3.65-4.73-3.65-3.02,0-4.8,1.68-4.8,4.02s1.26,3.29,3.62,3.67l2.04.3c1.81.3,2.09.88,2.09,1.94,0,1.38-1.13,2.24-2.94,2.24-2.34,0-2.92-1.31-3.02-2.34h-2.21c.18,2.84,2.44,4.07,5.18,4.07,3.02,0,5.18-1.43,5.18-4.1,0-2.29-1.01-3.42-3.77-3.85l-2.04-.3c-1.33-.23-1.99-.73-1.99-1.81,0-1.23,1.03-2.14,2.59-2.14s2.51.75,2.64,1.94h2.16ZM209.05,81.52c-1.43,0-2.31-.73-2.31-2.09,0-.7.23-1.26.73-1.63.85-.63,2.49-.85,5.36-.98v.3c0,3.27-2.09,4.4-3.77,4.4,0,0,0,0,0,0ZM207.29,73.49c.08-1.13.8-2.26,2.77-2.26s2.77.93,2.77,3.32v.58c-2.97.1-5.03.35-6.41,1.08-1.36.68-1.99,1.89-1.99,3.34,0,2.36,1.56,3.8,4.2,3.8,1.96,0,3.55-.91,4.25-2.46h.05c.23,1.58.93,2.34,3.04,2.34h.28v-1.84c-.98-.03-1.21-.45-1.21-1.51v-5.41c0-3.55-1.61-4.93-4.9-4.93s-4.95,1.61-5,3.95h2.16,0Z"/>
      <path d="M124.44,57.98h2.26v-16.52h.08s.35,1.01,1.03,3.02l4.73,13.5h2.21l4.85-13.5c.73-2.04,1.03-3.02,1.03-3.02h.08v16.52h2.39v-19.24h-3.52l-4.95,13.78c-.6,1.68-.85,2.51-.85,2.51h-.05s-.25-.83-.85-2.51l-4.88-13.78h-3.55v19.24s-.01,0,0,0ZM155.77,50.18h-6.79c.28-2.41,1.43-4.07,3.55-4.07,2.31,0,3.19,1.71,3.24,3.92v.15h0ZM157.91,54.51h-2.19c-.23.78-.8,2.06-3.02,2.06-2.49,0-3.6-1.86-3.75-4.6h9.13v-1.16c0-3.34-1.56-6.41-5.53-6.41s-5.91,3.09-5.91,7.02,1.94,6.89,5.98,6.89c2.84,0,4.8-1.51,5.28-3.8h.01ZM169.58,57.98h2.26v-9.23c0-3.14-1.68-4.35-4.22-4.35-2.11,0-3.65,1.21-4.27,2.56h-.05v-2.24h-2.14v13.25h2.26v-7.95c0-2.16,1.13-3.75,3.6-3.75.88,0,1.63.25,2.09.88.48.63.48,1.68.48,2.64v8.17h0v.02h0ZM180.71,63.31c1.61,0,2.34-1.01,2.34-2.04,0-1.18-.68-1.91-1.79-1.91-.43,0-.73.13-.91.28h-.05l.65-1.36c2.74-.1,4.78-1.66,5.1-4.63h-2.11c-.08,1.01-.73,2.87-3.24,2.87-2.67,0-3.6-2.14-3.6-5.21s1.26-5.18,3.65-5.18c1.91,0,2.87,1.23,3.02,2.59h2.21c-.23-3.12-2.62-4.33-5.26-4.33-3.72,0-5.93,2.97-5.93,7.02s1.79,6.49,5.1,6.81l-1.18,2.46h1.36c.15-.18.35-.3.68-.3.55,0,.8.38.8.91s-.25.91-.8.91c-.43,0-.68-.23-.75-.55h-1.43c.08.88.6,1.66,2.14,1.66h0ZM192.81,56.37c-1.43,0-2.31-.73-2.31-2.09,0-.7.23-1.26.73-1.63.85-.63,2.49-.85,5.36-.98v.3c0,3.27-2.09,4.4-3.77,4.4h0ZM191.05,48.35c.08-1.13.8-2.26,2.77-2.26s2.77.93,2.77,3.32v.58c-2.97.1-5.03.35-6.41,1.08-1.36.68-1.99,1.89-1.99,3.34,0,2.36,1.56,3.8,4.2,3.8,1.96,0,3.55-.91,4.25-2.46h.05c.23,1.58.93,2.34,3.04,2.34h.28v-1.84c-.98-.03-1.21-.45-1.21-1.51v-5.41c0-3.55-1.61-4.93-4.9-4.93s-4.95,1.61-5,3.95h2.16s0,0,0,0ZM189.51,42.29h1.41c.13-1.06.55-1.61,1.16-1.61.98,0,2.06,1.56,3.72,1.56,1.76,0,2.64-1.63,2.64-3.39h-1.41c-.13,1.06-.55,1.63-1.18,1.63-.88,0-2.04-1.58-3.7-1.58-1.76,0-2.64,1.63-2.64,3.39h0ZM207.62,58.31c3.72,0,5.96-2.82,5.96-6.97s-1.96-6.94-5.91-6.94c-3.7,0-5.96,2.84-5.96,6.94s2.01,6.97,5.91,6.97h0ZM207.64,46.14c2.54,0,3.6,1.99,3.6,5.21s-1.08,5.21-3.55,5.21-3.65-1.96-3.65-5.21,1.18-5.21,3.6-5.21h0Z"/>
      <path d="M96.72,32.83h4.73l6.44-19.24h-3.97l-4,12.5c-.58,1.84-.68,2.84-.68,2.84h-.05s-.1-1.01-.68-2.87l-3.95-12.47h-4.33l6.49,19.24h0ZM116.9,24.74h-5.08c.2-2.06,1.06-3.22,2.69-3.22,1.51,0,2.26,1.13,2.39,3.04v.18h0ZM120.84,28.91h-3.92c-.25.8-.75,1.58-2.34,1.58-1.68,0-2.59-1.06-2.77-3.47h9.15v-1.06c0-3.95-1.91-6.94-6.46-6.94-4.25,0-6.71,2.92-6.71,7.04s2.31,7.12,6.66,7.12c3.65,0,5.98-1.66,6.39-4.27h0ZM123.47,32.83h3.97v-6.66c0-2.59,1.38-3.42,3.82-3.42h.7v-3.62h-.23c-1.81,0-3.7,1.03-4.45,3.07h-.05v-2.84h-3.77v13.48h0ZM142.93,27.1c0,1.94-.98,3.39-2.82,3.39-1.96,0-2.79-1.61-2.79-4.35,0-2.94,1.11-4.35,2.89-4.35,1.66,0,2.72,1.33,2.72,3.7v1.61h0ZM146.88,13.02h-4v8.12h-.05c-.63-1.26-1.96-2.06-3.7-2.06-3.34,0-5.88,2.44-5.88,7.19s2.16,6.92,5.73,6.92c2.11,0,3.32-1.16,4.02-2.34h.05v1.99h3.82V13.02h0ZM158.44,24.74h-5.08c.2-2.06,1.06-3.22,2.69-3.22,1.51,0,2.26,1.13,2.39,3.04v.18h0ZM162.39,28.91h-3.92c-.25.8-.75,1.58-2.34,1.58-1.68,0-2.59-1.06-2.77-3.47h9.15v-1.06c0-3.95-1.91-6.94-6.46-6.94-4.25,0-6.71,2.92-6.71,7.04s2.31,7.12,6.66,7.12c3.65,0,5.98-1.66,6.39-4.27h0ZM175.48,23.1c-.18-2.36-1.91-4.07-5.43-4.07-3.82,0-5.58,2.09-5.58,4.43s1.43,3.67,3.95,4.02l2.16.3c1.26.18,1.61.58,1.61,1.38,0,.98-.85,1.48-2.14,1.48-1.58,0-2.21-.78-2.26-1.74h-3.67c.18,2.41,1.89,4.3,5.91,4.3,3.42,0,5.86-1.61,5.86-4.6,0-2.44-1.43-3.65-3.9-3.97l-2.29-.3c-1.16-.15-1.56-.6-1.56-1.36,0-.8.65-1.41,1.89-1.41s1.86.68,1.94,1.53h3.52-.01ZM192.51,17.14h.05s.2,1.13.73,2.82l1.76,5.58h-5.08l1.79-5.61c.5-1.56.73-2.69.75-2.79h0ZM197.47,32.83h4.33l-6.81-19.24h-4.63l-6.71,19.24h3.95l1.41-4.27h7.07l1.41,4.27h-.02ZM212.68,32.83h4v-8.75c0-3.32-1.33-5-4.58-5-2.31,0-3.65,1.13-4.38,2.49h-.05v-2.21h-3.85v13.48h4v-7.8c0-1.96.93-3.09,2.72-3.09.75,0,1.36.25,1.74.78.35.5.4,1.28.4,2.24v7.87h0ZM225.83,33.18c4.05,0,6.84-2.69,6.84-7.09s-2.69-7.07-6.81-7.07-6.84,2.64-6.84,7.07,2.56,7.09,6.81,7.09h0ZM225.86,21.72c1.96,0,2.67,1.79,2.67,4.38s-.65,4.4-2.67,4.4-2.72-1.79-2.72-4.4.73-4.38,2.72-4.38h0ZM245.57,23.1c-.18-2.36-1.91-4.07-5.43-4.07-3.82,0-5.58,2.09-5.58,4.43s1.43,3.67,3.95,4.02l2.16.3c1.26.18,1.61.58,1.61,1.38,0,.98-.85,1.48-2.14,1.48-1.58,0-2.21-.78-2.26-1.74h-3.67c.18,2.41,1.89,4.3,5.91,4.3,3.42,0,5.86-1.61,5.86-4.6,0-2.44-1.43-3.65-3.9-3.97l-2.29-.3c-1.16-.15-1.56-.6-1.56-1.36,0-.8.65-1.41,1.89-1.41s1.86.68,1.94,1.53h3.52-.01Z"/>
      <rect x="105.44" y="95.16" width="125.73" height=".29"/>
    </g>
  </g>
</svg>