<?xml version="1.0" encoding="UTF-8"?>
<svg id="Camada_1" data-name="Camada 1" xmlns="http://www.w3.org/2000/svg" viewBox="0 0 1444.06 502.67">
  <defs>
    <style>
      .cls-1 {
        fill: none;
        stroke: #000;
        stroke-width: .87px;
      }

      .cls-2 {
        fill: #1d1d1b;
        font-family: FoundersGroteskXCond-Med, 'FoundersGroteskXCond Med';
        font-size: 31.37px;
        letter-spacing: .06em;
      }
    </style>
  </defs>
  <g>
    <path d="M1.64,499.35l-.66-12.62,20.26-4.98c0-1.55.06-3.93.17-7.14s.17-7.03.17-11.46.05-9.24.17-14.45c.11-5.2.17-10.35.17-15.45v-62.44c0-10.19-.05-18.77-.17-25.74-.11-6.98-.28-12.4-.5-16.28-.22-3.87-.44-6.25-.66-7.14l-20.59-4.65,1-12.62h72.74c20.81,0,36.7,4.04,47.66,12.12s16.44,19.98,16.44,35.71c0,10.85-2.99,20.54-8.97,29.06s-14.34,15.22-25.08,20.09c-10.74,4.87-22.97,7.31-36.7,7.31h-21.26v-14.95h18.93c13.73,0,24.41-3.43,32.05-10.3,7.64-6.86,11.46-16.39,11.46-28.56s-3.32-20.65-9.96-26.74c-6.64-6.09-16.17-9.14-28.57-9.14h-19.26c-.22.44-.39,1.33-.5,2.66-.11,1.33-.17,3.54-.17,6.64v104.96c0,9.52.05,17.49.17,23.92.11,6.42.33,11.57.67,15.45.33,3.87.61,6.92.83,9.13l19.6,4.98-1,12.62H1.64ZM159.08,502.67c-9.74,0-18.38-1.83-25.91-5.48-7.53-3.65-14.78-9.8-21.76-18.43-6.98-8.64-14.67-20.15-23.08-34.54l-22.59-41.19,24.91-5.65,35.87,52.81c6.2,9.08,11.79,16.33,16.77,21.76,4.98,5.43,9.91,9.47,14.78,12.12,4.87,2.66,10.19,4.54,15.94,5.65l-.33,11.63c-2.21.44-4.59.77-7.14.99s-5.04.33-7.47.33h0Z"/>
    <path d="M181.67,499.35l-.67-12.29,22.26-4.65c.22-.89.39-2.44.5-4.65s.28-5.76.5-10.63.33-11.62.33-20.26v-21.92c0-9.3-.22-17.72-.67-25.24-.44-7.53-1-13.29-1.66-17.27l-22.26-4.65v-10.96l47.17-12.29,4.98,4.65c-.66,6.86-1.16,13.62-1.49,20.26s-.5,14.39-.5,23.25v41.85c0,10.19.17,18.6.5,25.24s.72,10.85,1.16,12.62l22.25,4.65-.66,12.29h-71.74,0ZM217.54,317c-5.76,0-10.63-1.88-14.61-5.65-3.99-3.76-5.98-8.42-5.98-13.95s1.99-9.91,5.98-13.78c3.99-3.87,8.86-5.81,14.61-5.81s10.52,1.94,14.28,5.81c3.76,3.88,5.65,8.47,5.65,13.78s-1.88,10.19-5.65,13.95c-3.76,3.76-8.52,5.65-14.28,5.65h0Z"/>
    <path d="M347.08,502.01c-14.39,0-26.96-3.1-37.7-9.3-10.74-6.2-19.1-14.89-25.08-26.08-5.98-11.18-8.97-23.97-8.97-38.36s3.27-28.12,9.8-39.19,15.39-19.71,26.57-25.91c11.18-6.2,23.42-9.3,36.7-9.3s25.69,3.04,35.87,9.14c10.19,6.09,18.16,14.61,23.92,25.58,5.76,10.96,8.64,23.75,8.64,38.36s-3.1,26.63-9.3,38.03c-6.2,11.4-14.56,20.43-25.08,27.07s-22.31,9.96-35.37,9.96h0ZM350.4,486.39c7.53,0,14.06-2.27,19.6-6.81s9.86-10.85,12.95-18.93c3.1-8.08,4.65-17.33,4.65-27.73,0-19.04-3.93-34.49-11.79-46.33-7.86-11.85-18.21-17.77-31.06-17.77-11.96,0-21.53,4.93-28.73,14.78-7.2,9.85-10.8,23.08-10.8,39.69,0,12.4,1.94,23.36,5.81,32.88,3.88,9.52,9.25,16.94,16.11,22.26,6.86,5.31,14.61,7.97,23.25,7.97h0Z"/>
    <path d="M617.22,400.04l9.96,6.64c-3.76,9.52-8.97,16.99-15.61,22.42-6.64,5.42-14.28,8.14-22.92,8.14-6.42,0-12.9-1.22-19.43-3.65-6.53-2.44-12.95-5.2-19.26-8.3s-12.29-5.87-17.94-8.3c-5.65-2.44-10.57-3.65-14.78-3.65-10.41,0-18.49,5.65-24.25,16.94l-9.97-6.64c3.76-9.74,8.97-17.27,15.61-22.59,6.64-5.31,14.28-7.97,22.92-7.97,6.42,0,12.9,1.16,19.43,3.49,6.53,2.33,12.95,5.09,19.26,8.3s12.29,5.98,17.94,8.3c5.65,2.33,10.57,3.49,14.78,3.49,5.54,0,10.24-1.44,14.12-4.32,3.87-2.88,7.25-6.98,10.13-12.29h0Z"/>
    <path d="M856.63,303.05l7.31,53.81-14.61,1.66-13.95-37.53c-1.77-.44-3.82-.72-6.14-.83-2.33-.11-4.37-.17-6.14-.17h-20.92c-3.76,0-7.2.11-10.3.33,0,1.77-.05,5.92-.17,12.46-.11,6.53-.17,14.11-.17,22.75v69.75c0,13.95.11,26.07.33,36.37.22,10.3.33,17.11.33,20.43l28.23,3.99-1,13.29h-84.7l-.66-13.29,27.9-3.99c0-3.32.11-10.13.33-20.43.22-10.3.33-22.42.33-36.37v-92.5c0-6.53-.11-10.69-.33-12.46-2.88-.22-6.2-.33-9.96-.33h-21.92c-1.77,0-3.71.05-5.81.17-2.1.11-4.15.39-6.14.83l-13.62,37.86-14.95-1.99,7.31-53.81c2.44.22,5.04.39,7.81.5s5.54.27,8.3.5c2.77.22,5.48.33,8.14.33h110.77c2.77,0,5.48-.11,8.14-.33,2.66-.22,5.37-.39,8.14-.5s5.48-.28,8.14-.5h-.02Z"/>
    <path d="M941.66,502.01c-14.39,0-26.96-3.1-37.7-9.3s-19.1-14.89-25.08-26.08c-5.98-11.18-8.97-23.97-8.97-38.36s3.27-28.12,9.8-39.19c6.53-11.07,15.39-19.71,26.57-25.91,11.18-6.2,23.42-9.3,36.7-9.3s25.69,3.04,35.87,9.14c10.18,6.09,18.16,14.61,23.91,25.58,5.76,10.96,8.64,23.75,8.64,38.36s-3.1,26.63-9.3,38.03c-6.2,11.4-14.56,20.43-25.08,27.07-10.52,6.64-22.31,9.96-35.37,9.96h0ZM944.98,486.39c7.53,0,14.06-2.27,19.6-6.81,5.54-4.54,9.85-10.85,12.95-18.93s4.65-17.33,4.65-27.73c0-19.04-3.93-34.49-11.79-46.33-7.86-11.85-18.21-17.77-31.06-17.77-11.96,0-21.53,4.93-28.73,14.78-7.2,9.85-10.8,23.08-10.8,39.69,0,12.4,1.94,23.36,5.81,32.88,3.88,9.52,9.24,16.94,16.11,22.26,6.86,5.31,14.62,7.97,23.25,7.97h.01Z"/>
    <path d="M1035.99,499.35l-1-11.96,20.59-4.98c.22-1.11.44-3.05.66-5.81.22-2.77.39-6.64.5-11.62s.17-11.02.17-18.1l.33-25.91c0-7.31-.28-14.56-.83-21.76-.55-7.2-1.16-12.79-1.83-16.77l-21.26-4.65v-10.96l44.51-12.29,4.65,4.65-1.33,27.9,1,.33c6.64-12.84,13.34-21.54,20.09-26.07,6.76-4.54,13.23-6.81,19.43-6.81,5.09,0,9.36,1.33,12.79,3.99s5.15,6.42,5.15,11.29-1.83,9.08-5.48,11.96-8.25,4.32-13.79,4.32c-3.99,0-7.8-.89-11.46-2.66-3.65-1.77-7.14-4.21-10.46-7.31l5.98,1.99c-3.99,2.66-7.86,6.42-11.62,11.29s-7.31,10.74-10.63,17.6l.33,30.89c.22,5.54.44,11.24.67,17.11.22,5.87.44,11.29.66,16.28.22,4.98.44,8.69.67,11.13l28.9,4.32-.67,12.62h-76.73,0Z"/>
    <path d="M1260.52,478.76c-4.21,7.31-9.96,13.01-17.27,17.11s-14.95,6.14-22.92,6.14c-13.29,0-24.3-4.1-33.05-12.29-8.74-8.19-13.12-20.48-13.12-36.87l.99-79.39h-23.25v-6.98l42.85-38.86h6.31l-.67,38.2-.33,81.71c0,11.52,2.49,20.04,7.47,25.58,4.98,5.54,12.01,8.3,21.09,8.3,5.09,0,9.8-1.05,14.11-3.15,4.32-2.11,8.25-4.71,11.79-7.81l5.98,8.3h.02ZM1188.45,373.46v-16.61h62.11v16.61h-62.11Z"/>
    <path d="M1341.57,502.01c-14.39,0-26.96-3.1-37.7-9.3s-19.1-14.89-25.08-26.08c-5.98-11.18-8.97-23.97-8.97-38.36s3.27-28.12,9.8-39.19,15.39-19.71,26.57-25.91c11.18-6.2,23.42-9.3,36.7-9.3s25.69,3.04,35.87,9.14c10.19,6.09,18.16,14.61,23.92,25.58,5.76,10.96,8.64,23.75,8.64,38.36s-3.1,26.63-9.3,38.03c-6.2,11.4-14.56,20.43-25.08,27.07-10.52,6.64-22.31,9.96-35.37,9.96h0ZM1344.89,486.39c7.53,0,14.06-2.27,19.6-6.81,5.54-4.54,9.85-10.85,12.95-18.93s4.65-17.33,4.65-27.73c0-19.04-3.93-34.49-11.79-46.33-7.86-11.85-18.21-17.77-31.05-17.77-11.96,0-21.54,4.93-28.73,14.78-7.2,9.85-10.8,23.08-10.8,39.69,0,12.4,1.94,23.36,5.81,32.88,3.88,9.52,9.24,16.94,16.11,22.26,6.86,5.31,14.61,7.97,23.25,7.97h0Z"/>
  </g>
  <g>
    <path d="M923.5,231.05v-.9h-5.39v9.21h1.01v-4.05h3.95v-.9h-3.95v-3.36h4.39ZM927.51,239.36v-9.21h-1.01v9.21h1.01ZM936.71,239.36v-.9h-4.39v-8.31h-1.01v9.21h5.39ZM948.54,239.36l-.35-9.36-.2-.02-3.9,6.94-4-6.94-.19.02-.35,9.36h1.02l.11-6.52,3.29,5.58h.14l3.27-5.57.14,6.51h1.02ZM961.77,231.05v-.9h-5.39v9.21h1.01v-4.05h3.95v-.9h-3.95v-3.36h4.39ZM970.14,239.36v-.9h-4.39v-3.32h3.95v-.9h-3.95v-3.18h4.39v-.9h-5.39v9.21h5.39ZM978.48,236.87c0-1.23-.54-1.87-2.46-2.74-1.13-.52-1.57-1.03-1.57-1.67,0-.84.59-1.55,1.75-1.55.6,0,1.21.24,1.66.56l.45-.85c-.53-.36-1.27-.63-2.05-.63-1.68,0-2.82,1.18-2.82,2.51,0,1.1.59,1.82,2.19,2.53,1.51.67,1.82,1.15,1.82,1.95s-.55,1.61-1.73,1.61c-.72,0-1.52-.31-2.22-.82l-.49.88c.8.53,1.62.86,2.66.86,1.6,0,2.82-1.15,2.82-2.64h0ZM988.25,231.05v-.9h-7.15v.9h3.08v8.31h1.01v-8.31h3.07ZM992.25,239.36v-9.21h-1v9.21h1ZM1003.45,230.14h-1.09l-3.06,7.29-3.08-7.29h-1.13l4.1,9.38h.16l4.1-9.38h0ZM1012.76,239.36l-4.13-9.38h-.16l-4.14,9.38h1.04l1.09-2.55h4.12l1.09,2.55h1.08ZM1010.22,235.96h-3.39l1.7-3.96,1.7,3.96h0ZM1020.99,239.36v-.9h-4.39v-8.31h-1v9.21h5.39Z"/>
    <path d="M912.59,224.43v-9.21h-1.01v9.21h1.01ZM923.51,224.57v-9.35h-1.01v6.88l-5.91-7.05-.2.05v9.34h1.01v-6.99l5.98,7.16.13-.04h0ZM933.62,216.12v-.9h-7.15v.9h3.08v8.31h1.01v-8.31h3.07ZM941.97,224.43v-.9h-4.39v-3.32h3.95v-.9h-3.95v-3.18h4.39v-.9h-5.39v9.21h5.39ZM951.58,224.43l-2.68-3.85c1.29-.41,2.01-1.38,2.01-2.66,0-1.58-1.17-2.77-3.54-2.77-.77,0-1.45.06-2.12.15v9.12h1.01v-3.63c.3.01.74.02,1.04.02.21,0,.41-.01.62-.02l2.45,3.63h1.22ZM949.83,217.99c0,1.19-.74,1.98-2.46,1.98-.35,0-.82-.02-1.12-.06v-3.75c.33-.07.84-.1,1.27-.1,1.51,0,2.31.84,2.31,1.92h0ZM961.55,224.57v-9.35h-1.01v6.88l-5.91-7.05-.2.05v9.34h1.01v-6.99l5.98,7.16.13-.04h0ZM972.82,224.43l-4.14-9.38h-.16l-4.14,9.38h1.04l1.09-2.55h4.12l1.09,2.55h1.08ZM970.28,221.04h-3.39l1.7-3.96,1.7,3.96h0ZM980.91,216.12v-.9h-7.15v.9h3.08v8.31h1.01v-8.31h3.07ZM984.9,224.43v-9.21h-1.01v9.21h1.01ZM997.51,219.83c0-2.77-2.06-4.76-4.55-4.76s-4.64,2-4.64,4.76,2.06,4.75,4.55,4.75,4.64-1.99,4.64-4.75h0ZM996.41,219.83c0,2.17-1.46,3.86-3.49,3.86s-3.51-1.69-3.51-3.86,1.46-3.86,3.51-3.86,3.49,1.68,3.49,3.86h0ZM1008.02,224.57v-9.35h-1.01v6.88l-5.91-7.05-.2.05v9.34h1.01v-6.99l5.98,7.16.13-.04h0ZM1019.28,224.43l-4.13-9.38h-.16l-4.14,9.38h1.04l1.09-2.55h4.12l1.09,2.55h1.08ZM1016.74,221.04h-3.39l1.7-3.96,1.7,3.96h0ZM1027.51,224.43v-.9h-4.39v-8.31h-1.01v9.21h5.39Z"/>
    <path d="M932.79,204.82c0-2.6-1.78-4.59-5.61-4.59-.92,0-1.66.04-2.73.15v9.05c1.13.1,1.73.15,2.82.15,3.82,0,5.52-2.05,5.52-4.76h0ZM930.52,204.82c0,1.72-.89,2.85-2.9,2.85-.46,0-.63-.01-1.02-.05v-5.43c.33-.04.52-.05.88-.05,1.99,0,3.04,1.01,3.04,2.68h0ZM945.12,204.91c0-2.72-1.83-4.76-4.68-4.76s-4.76,2.05-4.76,4.76,1.82,4.75,4.68,4.75,4.76-2.05,4.76-4.75h0ZM942.83,204.91c0,1.65-.98,2.85-2.44,2.85s-2.44-1.21-2.44-2.85.98-2.85,2.44-2.85,2.44,1.19,2.44,2.85h0ZM956.14,208.8l-.64-1.81c-.69.43-1.55.68-2.3.68-1.72,0-2.79-1.05-2.79-2.76s1.07-2.77,2.79-2.77c.75,0,1.52.24,2.2.62l.65-1.81c-.83-.49-1.81-.8-2.88-.8-3,0-5.04,2.02-5.04,4.76s2.04,4.75,5.04,4.75c1.06,0,2.16-.33,2.97-.86h0ZM965.39,209.51v-1.95h-3.69v-7.27h-2.14v9.21h5.83ZM970.96,209.51v-9.21h-2.14v9.21h2.14ZM980.86,206.79c0-1.18-.52-2.01-2.24-2.74-1.16-.49-1.62-.69-1.62-1.29,0-.38.31-.74,1.09-.74.65,0,1.51.39,2.04.75l.54-1.91c-.54-.36-1.57-.72-2.58-.72-2.15,0-3.24,1.31-3.24,2.65,0,1.11.57,2.05,2.19,2.7,1.41.56,1.65.89,1.65,1.37s-.29.8-1.04.8c-.87,0-1.83-.35-2.58-.89l-.59,1.94c.8.53,2.06.94,3.1.94,2.21,0,3.28-1.4,3.28-2.87h0ZM991.12,206.89c0-1.05-.59-1.78-1.85-2.16,1.04-.43,1.58-1.08,1.58-2.05,0-1.28-1.36-2.47-4.03-2.47-.75,0-1.91.1-2.58.2v9c.9.11,1.95.19,2.75.19,2.77,0,4.12-1.27,4.12-2.7h0ZM988.66,203.07c0,.67-.51,1.04-1.55,1.04-.39,0-.55-.01-.79-.04v-1.92c.3-.05.58-.09.97-.09.9,0,1.37.45,1.37,1.01h0ZM988.81,206.67c0,.69-.52,1.1-1.6,1.1-.43,0-.59-.01-.89-.04v-2.13c.21-.03.48-.04.8-.04,1.13,0,1.69.4,1.69,1.11h0ZM1003.72,204.91c0-2.72-1.84-4.76-4.68-4.76s-4.76,2.05-4.76,4.76,1.82,4.75,4.68,4.75,4.76-2.05,4.76-4.75h0ZM1001.44,204.91c0,1.65-.98,2.85-2.44,2.85s-2.44-1.21-2.44-2.85.98-2.85,2.44-2.85,2.44,1.19,2.44,2.85h0ZM1014.63,209.51l-4.34-9.29h-.29l-4.34,9.29h2.17l.69-1.67h3.18l.69,1.67h2.23ZM1011.04,206.2h-1.82l.92-2.21.9,2.21h0Z"/>
    <path d="M1087.62,75.78c1.6-2.77,3.18-13.96,3.18-13.96,0,0-8.9,6.96-10.5,9.73-1.6,2.78-2.02,5.54.76,7.14,2.78,1.6,4.96-.14,6.56-2.91h0ZM1080.44,53.7c1.1-3.01.71-14.3.71-14.3,0,0-7.55,8.4-8.65,11.41-1.1,3.01-1.02,5.8,1.99,6.9,3.01,1.1,4.86-1,5.96-4.01h0ZM1064.53,47.67c1.32-1.67.76-3.9-.63-6.13-1.7-2.72-10.83-9.36-10.83-9.36,0,0,1.97,11.13,3.67,13.84,1.36,2.17,3.07,3.64,5.09,3.28,9.53,14.02,15.26,31.48,15.26,50.48,0,46.06-33.26,83.39-74.28,83.39v3.42c42.71,0,77.33-38.87,77.33-86.82,0-19.59-5.85-37.59-15.6-52.12h0ZM1066.12,63.73c-2.49-2.02-13.29-5.33-13.29-5.33,0,0,5.48,9.88,7.97,11.89,2.49,2.02,5.15,2.86,7.17.37,2.02-2.49.64-4.92-1.85-6.94h0ZM1069.29,122.17c-1.79-2.66-11.16-8.98-11.16-8.98,0,0,2.36,11.05,4.15,13.71,1.79,2.66,4.09,4.24,6.75,2.45,2.66-1.79,2.05-4.52.26-7.17h0ZM1073.11,90.43c2.23-2.3,1.07-4.84-1.24-7.07-2.3-2.23-12.78-6.47-12.78-6.47,0,0,4.6,10.32,6.91,12.54,2.31,2.23,4.88,3.29,7.11.99h0ZM1072.58,102.27c-2.14-2.38-12.3-7.34-12.3-7.34,0,0,3.87,10.61,6.02,13,2.14,2.38,4.64,3.63,7.02,1.48,2.38-2.14,1.4-4.76-.74-7.14h0ZM1051.82,129.1s.4,11.29,1.71,14.22c1.3,2.93,3.29,4.88,6.22,3.58,2.93-1.3,2.8-4.09,1.5-7.02-1.3-2.93-9.43-10.78-9.43-10.78h0ZM1051.51,153.63c-1.09-3.01-8.65-11.41-8.65-11.41,0,0-.39,11.29.71,14.3,1.1,3.01,2.95,5.1,5.95,4.01,3.01-1.1,3.08-3.89,1.99-6.9h0ZM1040.09,164.03c-.67-3.13-6.98-12.5-6.98-12.5,0,0-1.95,11.13-1.29,14.26s2.2,5.46,5.34,4.8c3.13-.67,3.59-3.42,2.93-6.55h0ZM1025.8,171.46c-.22-3.2-5.17-13.35-5.17-13.35,0,0-3.48,10.75-3.26,13.95.22,3.2,1.42,5.72,4.62,5.49,3.2-.22,4.03-2.89,3.81-6.08h0ZM936.29,186.61v-3.42c-41.03,0-74.28-37.34-74.28-83.39,0-19,5.73-36.46,15.26-50.48,2.02.35,3.73-1.11,5.09-3.28,1.7-2.72,3.67-13.84,3.67-13.84,0,0-9.14,6.65-10.83,9.36-1.39,2.22-1.95,4.45-.63,6.13-9.75,14.53-15.6,32.53-15.6,52.12,0,47.95,34.62,86.81,77.33,86.82h0ZM921.72,172.05c.22-3.2-3.26-13.95-3.26-13.95,0,0-4.95,10.16-5.17,13.35-.22,3.2.61,5.86,3.81,6.08,3.2.22,4.4-2.3,4.62-5.49h0ZM907.27,165.78c.67-3.13-1.29-14.26-1.29-14.26,0,0-6.31,9.37-6.98,12.5-.67,3.13-.21,5.89,2.93,6.55,3.13.67,4.67-1.66,5.34-4.8h0ZM895.53,156.52c1.1-3.01.71-14.3.71-14.3,0,0-7.55,8.4-8.65,11.41-1.1,3.01-1.02,5.8,1.99,6.9,3.01,1.1,4.86-1,5.95-4.01h0ZM885.56,143.32c1.3-2.93,1.7-14.22,1.7-14.22,0,0-8.12,7.85-9.43,10.78-1.3,2.93-1.43,5.71,1.5,7.02,2.93,1.3,4.92-.65,6.22-3.58h0ZM871.13,70.67c2.02,2.49,4.68,1.65,7.17-.37,2.49-2.02,7.97-11.89,7.97-11.89,0,0-10.8,3.31-13.29,5.33-2.49,2.02-3.87,4.45-1.85,6.94h0ZM867.22,83.36c-2.31,2.23-3.46,4.77-1.24,7.07,2.23,2.3,4.8,1.24,7.11-.99,2.3-2.23,6.91-12.54,6.91-12.54,0,0-10.47,4.24-12.78,6.47h0ZM869.8,122.17c-1.79,2.66-2.4,5.38.26,7.17,2.66,1.79,4.96.21,6.75-2.45,1.79-2.66,4.15-13.71,4.15-13.71,0,0-9.36,6.32-11.15,8.98h0ZM865.77,109.41c2.38,2.14,4.88.9,7.02-1.48,2.14-2.38,6.01-13,6.01-13,0,0-10.15,4.96-12.3,7.34-2.14,2.38-3.12,5-.74,7.14h0ZM866.6,50.81c-1.1-3.01-8.65-11.41-8.65-11.41,0,0-.39,11.29.71,14.3,1.1,3.01,2.94,5.1,5.96,4.01,3.01-1.1,3.08-3.89,1.99-6.9h0ZM858.8,71.55c-1.6-2.77-10.5-9.73-10.5-9.73,0,0,1.58,11.19,3.18,13.96,1.6,2.78,3.79,4.52,6.56,2.91,2.77-1.6,2.36-4.36.76-7.14h0ZM855.26,94.81c-2.06-2.45-12.03-7.77-12.03-7.77,0,0,3.5,10.74,5.56,13.2,2.06,2.45,4.51,3.79,6.97,1.73,2.45-2.06,1.57-4.71-.49-7.16h0ZM857.15,115.5c-2.45-2.06-13.2-5.56-13.2-5.56,0,0,5.31,9.97,7.77,12.03,2.45,2.06,5.1,2.95,7.16.49,2.06-2.45.73-4.91-1.73-6.97h0ZM862.27,136.21c-2.77-1.6-13.96-3.18-13.96-3.18,0,0,6.96,8.9,9.74,10.5,2.78,1.6,5.54,2.02,7.14-.76,1.6-2.78-.14-4.96-2.91-6.56h0ZM855.06,155.36s9.59,5.98,12.74,6.54c3.16.56,5.89,0,6.45-3.15.56-3.16-1.82-4.61-4.98-5.17-3.16-.56-14.21,1.79-14.21,1.79h0ZM880.56,168.8c-3.16.56-12.74,6.54-12.74,6.54,0,0,11.05,2.34,14.21,1.79,3.16-.56,5.54-2.01,4.98-5.17-.56-3.16-3.29-3.71-6.45-3.16h0ZM886.59,192.56s11.19-1.58,13.96-3.18c2.78-1.6,4.51-3.79,2.91-6.56-1.6-2.77-4.36-2.36-7.14-.76-2.77,1.6-9.74,10.5-9.74,10.5h0ZM1035.63,182.81c-1.6,2.78.14,4.96,2.91,6.56,2.77,1.6,13.96,3.18,13.96,3.18,0,0-6.96-8.9-9.74-10.5-2.77-1.6-5.53-2.01-7.14.76h0ZM1057.06,177.12c3.16.56,14.21-1.79,14.21-1.79,0,0-9.59-5.98-12.74-6.54-3.15-.56-5.89,0-6.45,3.16-.56,3.16,1.82,4.61,4.98,5.17h0ZM1071.29,161.89c3.15-.56,12.74-6.54,12.74-6.54,0,0-11.05-2.34-14.21-1.79-3.16.56-5.54,2.01-4.98,5.17.56,3.16,3.29,3.71,6.45,3.15h0ZM1090.78,133.03s-11.19,1.58-13.96,3.18c-2.77,1.6-4.51,3.79-2.91,6.56,1.6,2.77,4.36,2.36,7.14.76,2.77-1.6,9.74-10.5,9.74-10.5h0ZM1087.37,121.97c2.45-2.06,7.77-12.03,7.77-12.03,0,0-10.74,3.5-13.2,5.56-2.46,2.06-3.79,4.51-1.73,6.97,2.06,2.46,4.71,1.57,7.16-.49h0ZM1090.3,100.24c2.06-2.45,5.56-13.2,5.56-13.2,0,0-9.97,5.31-12.03,7.77-2.06,2.45-2.95,5.1-.49,7.16,2.46,2.06,4.91.72,6.97-1.73h0Z"/>
    <path d="M954.52,184.04c1.41-2.1,2.38-3.73,2.38-6.56,0-3.45-1.6-5.36-4.77-5.36s-4.67,2.2-4.67,5.87v1.6h2.76v-1.76c0-2.2.47-3.36,1.91-3.36s1.94,1.25,1.94,3.01c0,2.26-.82,3.7-2.13,5.77l-4.58,6.87v2.01h9.66v-2.51h-6.21l3.7-5.58h0ZM970.24,180.78c0-5.52-1.41-8.66-5.18-8.66s-5.18,3.14-5.18,8.66v2.95c0,5.52,1.41,8.66,5.18,8.66s5.18-3.14,5.18-8.66v-2.95h0ZM962.87,179.4c0-3.04.5-4.89,2.2-4.89s2.2,1.85,2.2,4.89v5.71c0,3.04-.5,4.89-2.2,4.89s-2.2-1.85-2.2-4.89v-5.71h0ZM972.95,177.14h2.35v14.99h2.92v-19.89h-1.94c-.56,2.13-1,2.98-3.33,3.01v1.88h0ZM986.3,192.38c3.8,0,5.18-3.11,5.18-8.63v-3.07c0-5.46-1.32-8.56-5.08-8.56-3.45,0-4.93,2.79-4.93,6.37s1.41,6.18,4.24,6.18c1.41,0,2.48-.78,2.95-1.85v2.1c0,3.14-.6,5.08-2.26,5.08-1.44,0-2.01-1.35-2.01-3.61v-.88h-2.67v.88c0,3.61,1.44,5.99,4.58,5.99h0ZM988.62,178.49c0,2.48-.66,3.98-2.16,3.98s-2.2-1.51-2.2-3.98.69-4.02,2.2-4.02,2.16,1.54,2.16,4.02h0Z"/>
    <path d="M942.89,139.47c-.35-.15-.82-.26-1.46-.26-1.85,0-2.71,1.02-2.71,2.74v.88h-.97v1.64h.97v6.46h2.32v-6.46h1.41v-1.64h-1.41v-.9c0-.6.24-.92.79-.92.33,0,.57.07.86.18l.2-1.74h0ZM944,142.84v8.1h2.34v-8.1h-2.34ZM944,141.85h2.34v-2.25h-2.34v2.25h0ZM953.33,142.88c-.2-.11-.46-.14-.77-.14-.9,0-1.59.4-1.9,1.39v-1.28h-2.34v8.1h2.34v-4.14c0-1.35.57-1.94,1.65-1.94.33,0,.59.04.91.13l.11-2.12h0ZM954.29,148.28c.07,1.81,1.37,2.83,3.35,2.83s3.13-.95,3.13-2.54c0-1.35-.79-2.03-2.27-2.43l-1.15-.31c-.51-.16-.81-.33-.81-.79s.37-.71.92-.71c.82,0,1.19.51,1.19,1.25h1.97c-.02-1.67-1.06-2.89-3.18-2.89-1.81,0-3,1.06-3,2.56s.8,2.12,2.16,2.47l1.25.31c.55.15.81.31.81.73,0,.48-.4.71-1.01.71-.77,0-1.3-.38-1.35-1.19h-1.99ZM962.68,148.84c0,1.63.99,2.23,2.18,2.23.77,0,1.39-.18,2.01-.6v-1.63c-.49.24-.81.35-1.17.35-.48,0-.71-.26-.71-.81v-3.9h1.68v-1.64h-1.68v-2.21h-1.41l-.26,1.08c-.18.75-.44,1.13-1.21,1.3l-.35.07v1.41h.91v4.36h0ZM974.94,150.95v-4.59h3.37v-1.99h-3.37v-2.91h4.26v-2.03h-6.71v11.53h2.45ZM980.74,142.84v8.1h2.34v-8.1h-2.34ZM980.74,141.85h2.34v-2.25h-2.34v2.25h0ZM985.06,139.42v11.53h2.34v-11.53h-2.34ZM996.24,146.35c0-.88.24-1.76,1.15-1.76.82,0,1.01.6,1.01,1.5v4.85h2.34v-5.62c0-1.48-.66-2.65-2.47-2.65-1.12,0-1.85.53-2.29,1.17-.35-.62-1.01-1.17-2.16-1.17-.97,0-1.76.48-2.11,1.15v-.99h-2.34v8.1h2.34v-4.59c0-.88.26-1.76,1.17-1.76.82,0,1.01.6,1.01,1.5v4.85h2.34v-4.59h0Z"/>
    <path d="M904.97,122.05c-.35-.15-.82-.26-1.46-.26-1.85,0-2.71,1.02-2.71,2.74v.88h-.97v1.64h.97v6.46h2.32v-6.46h1.41v-1.64h-1.41v-.9c0-.6.24-.92.79-.92.33,0,.57.07.86.18l.2-1.74h0ZM909.1,131.87c-.88,0-1.26-.73-1.26-1.9v-1.01c0-1.17.38-1.9,1.26-1.9s1.26.73,1.26,1.9v1.01c0,1.17-.38,1.9-1.26,1.9h0ZM909.1,133.68c2.23,0,3.59-1.57,3.59-4.06v-.31c0-2.49-1.35-4.06-3.59-4.06s-3.59,1.57-3.59,4.06v.31c0,2.49,1.35,4.06,3.59,4.06h0ZM919.35,125.45c-.2-.11-.46-.14-.77-.14-.9,0-1.59.4-1.9,1.39v-1.28h-2.34v8.1h2.34v-4.14c0-1.35.57-1.94,1.65-1.94.33,0,.59.04.91.13l.11-2.12h0ZM932.53,130.34c0-1.63-.97-2.53-2.32-2.76,1.22-.22,2.01-1.1,2.01-2.47,0-1.87-1.01-3.11-3.66-3.11h-3.77v11.53h3.79c2.71,0,3.95-1.17,3.95-3.18h0ZM928.45,128.6c1.3,0,1.7.57,1.7,1.48s-.4,1.47-1.68,1.47h-1.34v-2.95h1.32ZM927.13,123.95h1.12c1.26,0,1.59.6,1.59,1.43,0,.77-.33,1.36-1.59,1.36h-1.12v-2.78h0ZM937.46,133.68c2.01,0,3.13-1.17,3.27-3.09h-2.08c-.02.82-.4,1.26-1.17,1.26-.9,0-1.36-.64-1.36-1.91h4.67v-.64c0-2.49-1.1-4.06-3.42-4.06-2.14,0-3.49,1.57-3.49,4.06v.31c0,2.49,1.35,4.06,3.59,4.06h0ZM936.13,128.65c0-1.03.46-1.58,1.25-1.58s1.23.55,1.23,1.58h-2.47ZM942,130.85c.07,1.81,1.37,2.83,3.35,2.83s3.13-.95,3.13-2.54c0-1.35-.79-2.03-2.27-2.43l-1.15-.31c-.51-.16-.81-.33-.81-.79s.37-.71.92-.71c.82,0,1.19.51,1.19,1.24h1.97c-.02-1.67-1.06-2.89-3.18-2.89-1.81,0-3,1.06-3,2.56s.8,2.12,2.16,2.47l1.25.31c.55.15.81.31.81.73,0,.48-.4.71-1.01.71-.77,0-1.3-.38-1.36-1.19h-1.99ZM950.39,131.41c0,1.63.99,2.23,2.18,2.23.77,0,1.39-.18,2.01-.6v-1.63c-.49.24-.81.35-1.17.35-.48,0-.71-.26-.71-.81v-3.9h1.68v-1.64h-1.68v-2.21h-1.41l-.26,1.08c-.18.75-.44,1.13-1.21,1.3l-.35.07v1.41h.91v4.36h0ZM962.65,127.63v-3.66h1.1c1.21,0,1.83.49,1.83,1.83s-.62,1.83-1.83,1.83h-1.1ZM962.65,129.58h1.3c2.73,0,4.01-1.35,4.01-3.8s-1.28-3.79-4.01-3.79h-3.75v11.53h2.45v-3.93h0ZM972.63,131.87c-.88,0-1.26-.73-1.26-1.9v-1.01c0-1.17.38-1.9,1.26-1.9s1.26.73,1.26,1.9v1.01c0,1.17-.38,1.9-1.26,1.9h0ZM972.63,133.68c2.23,0,3.59-1.57,3.59-4.06v-.31c0-2.49-1.35-4.06-3.59-4.06s-3.59,1.57-3.59,4.06v.31c0,2.49,1.35,4.06,3.59,4.06h0ZM982.88,125.45c-.2-.11-.46-.14-.77-.14-.9,0-1.59.4-1.9,1.39v-1.28h-2.34v8.1h2.34v-4.14c0-1.35.57-1.94,1.65-1.94.33,0,.59.04.91.13l.11-2.12h0ZM984.76,131.41c0,1.63.99,2.23,2.17,2.23.77,0,1.39-.18,2.01-.6v-1.63c-.49.24-.81.35-1.17.35-.48,0-.71-.26-.71-.81v-3.9h1.68v-1.64h-1.68v-2.21h-1.41l-.26,1.08c-.18.75-.44,1.13-1.21,1.3l-.35.07v1.41h.91v4.36h0ZM994.93,129.93c0,1.04-.31,1.81-1.21,1.81-.84,0-1.06-.6-1.06-1.52v-4.81h-2.32v5.56c0,1.57.73,2.71,2.45,2.71,1.06,0,1.81-.51,2.14-1.15v.99h2.34v-8.1h-2.34v4.52h0ZM1005.54,127.92c0-.4-.09-.79-.26-1.12.33-.09.71-.15,1.02-.15v-1.83c-.71,0-1.43.42-1.83,1.04-.57-.4-1.32-.62-2.18-.62-1.83,0-3.22,1-3.22,2.67v.22c0,.86.38,1.56,1.01,2.01-.71.38-1.08.86-1.08,1.56s.36,1.24.93,1.44c-.84.13-1.37.71-1.37,1.47,0,1.44,1.59,2.02,3.64,2.02,2.31,0,4.11-.88,4.11-2.84,0-1.44-.84-2.28-2.59-2.28h-2.25c-.44,0-.64-.23-.64-.55,0-.15.04-.26.11-.37.4.15.86.2,1.36.2,1.85,0,3.24-1.02,3.24-2.67v-.22h0ZM1000.56,134.28c0-.47.29-.76.91-.76h1.89c.53,0,.88.22.88.71,0,.65-.79.94-2.03.94-1.08,0-1.65-.33-1.65-.89h0ZM1001.33,127.94c0-.71.31-1.19.97-1.19s.99.48.99,1.19v.18c0,.71-.31,1.19-.99,1.19s-.97-.48-.97-1.19v-.18h0ZM1012.19,129.93c0,1.04-.31,1.81-1.21,1.81-.84,0-1.06-.6-1.06-1.52v-4.81h-2.32v5.56c0,1.57.73,2.71,2.45,2.71,1.06,0,1.81-.51,2.14-1.15v.99h2.34v-8.1h-2.34v4.52h0ZM1019.81,133.68c2.01,0,3.13-1.17,3.27-3.09h-2.08c-.02.82-.4,1.26-1.17,1.26-.9,0-1.36-.64-1.36-1.91h4.67v-.64c0-2.49-1.1-4.06-3.42-4.06-2.14,0-3.49,1.57-3.49,4.06v.31c0,2.49,1.35,4.06,3.58,4.06h0ZM1018.47,128.65c0-1.03.46-1.58,1.25-1.58s1.23.55,1.23,1.58h-2.47ZM1024.34,130.85c.07,1.81,1.37,2.83,3.35,2.83s3.13-.95,3.13-2.54c0-1.35-.79-2.03-2.27-2.43l-1.16-.31c-.51-.16-.81-.33-.81-.79s.37-.71.91-.71c.82,0,1.19.51,1.19,1.24h1.97c-.02-1.67-1.06-2.89-3.18-2.89-1.81,0-3,1.06-3,2.56s.8,2.12,2.16,2.47l1.25.31c.55.15.81.31.81.73,0,.48-.4.71-1.01.71-.77,0-1.3-.38-1.36-1.19h-1.99ZM1035.66,133.68c2.01,0,3.13-1.17,3.27-3.09h-2.08c-.02.82-.4,1.26-1.17,1.26-.9,0-1.36-.64-1.36-1.91h4.67v-.64c0-2.49-1.1-4.06-3.42-4.06-2.14,0-3.49,1.57-3.49,4.06v.31c0,2.49,1.35,4.06,3.58,4.06h0ZM1034.32,128.65c0-1.03.46-1.58,1.25-1.58s1.23.55,1.23,1.58h-2.47Z"/>
    <path d="M900.35,113c0,.93-.51,1.54-1.34,1.54-.49,0-.79-.24-.79-.71,0-.51.33-.75.82-.95l1.3-.59v.71h0ZM902.6,110.84c0-1.99-.99-3.02-3.13-3.02s-3.18,1.22-3.18,2.91v.24h2.08v-.24c0-.7.33-1.12,1.01-1.12.71,0,.97.44.97,1.12v.18l-2.33.86c-.93.37-2.03.88-2.03,2.34,0,1.24.82,2.08,2.25,2.08,1.06,0,1.87-.53,2.2-1.24.18.88.88,1.24,1.68,1.24.53,0,.91-.15,1.26-.37v-1.41c-.18.05-.29.07-.44.07-.24,0-.35-.13-.35-.38v-3.28h0ZM907.14,111.53c0-1.01.35-1.79,1.26-1.79.84,0,1.06.6,1.06,1.54v4.81h2.34v-5.56c0-1.59-.77-2.71-2.49-2.71-1.06,0-1.83.51-2.18,1.15v-.99h-2.34v8.1h2.34v-4.56h0ZM915.79,111.66c0-1.3.46-2,1.34-2s1.32.7,1.32,1.7v1.34c0,1.01-.48,1.68-1.32,1.68s-1.34-.68-1.34-1.98v-.75h0ZM918.44,116.09h2.34v-11.53h-2.34v4.43c-.4-.68-1.08-1.17-2.14-1.17-1.85,0-2.83,1.43-2.83,3.93v.57c0,2.51.99,3.93,2.83,3.93,1.06,0,1.74-.49,2.14-1.17v1h0ZM929.37,114.12v-7.58h1.03c1.56,0,2.36.71,2.36,2.95v1.68c0,2.23-.81,2.95-2.36,2.95h-1.03ZM926.9,116.09h3.71c3.2,0,4.65-1.9,4.65-5.43v-.66c0-3.53-1.44-5.43-4.65-5.43h-3.71v11.53h0ZM940.27,114.45c-.88,0-1.26-.73-1.26-1.9v-1.01c0-1.17.38-1.9,1.26-1.9s1.26.73,1.26,1.9v1.01c0,1.17-.38,1.9-1.26,1.9h0ZM940.27,116.26c2.23,0,3.59-1.57,3.59-4.06v-.31c0-2.49-1.35-4.06-3.59-4.06s-3.59,1.57-3.59,4.06v.31c0,2.49,1.35,4.06,3.59,4.06h0ZM945.15,112.19c0,2.49,1.32,4.06,3.53,4.06s3.27-1.48,3.27-3.49v-.2h-2.14v.16c0,1.01-.29,1.7-1.14,1.7s-1.21-.73-1.21-1.89v-1.01c0-1.17.35-1.9,1.21-1.9s1.14.71,1.14,1.72v.15h2.14v-.18c0-2.01-1.13-3.49-3.27-3.49s-3.53,1.57-3.53,4.06v.31h0ZM953.65,104.56v11.53h2.34v-11.53h-2.34ZM957.97,107.99v8.1h2.34v-8.1h-2.34ZM957.97,107h2.34v-2.25h-2.34v2.25h0ZM961.85,113.42c.07,1.81,1.37,2.83,3.35,2.83s3.13-.95,3.13-2.54c0-1.35-.79-2.03-2.27-2.43l-1.15-.31c-.51-.16-.81-.33-.81-.79s.37-.71.92-.71c.82,0,1.19.51,1.19,1.25h1.97c-.02-1.67-1.06-2.89-3.18-2.89-1.81,0-3,1.06-3,2.56s.8,2.12,2.16,2.47l1.25.31c.55.15.81.31.81.73,0,.48-.4.71-1.01.71-.77,0-1.3-.38-1.35-1.19h-1.99ZM974.97,112.41c0,1.3-.46,1.98-1.34,1.98s-1.32-.68-1.32-1.68v-1.34c0-1.01.46-1.7,1.32-1.7s1.34.7,1.34,2v.75h0ZM972.31,115.09c.38.68,1.08,1.17,2.14,1.17,1.85,0,2.83-1.43,2.83-3.93v-.57c0-2.51-.99-3.93-2.83-3.93-1.06,0-1.76.49-2.14,1.17v-4.43h-2.34v11.53h2.08l.26-1h0ZM982.21,114.45c-.88,0-1.26-.73-1.26-1.9v-1.01c0-1.17.38-1.9,1.26-1.9s1.26.73,1.26,1.9v1.01c0,1.17-.38,1.9-1.26,1.9h0ZM982.21,116.26c2.23,0,3.59-1.57,3.59-4.06v-.31c0-2.49-1.35-4.06-3.59-4.06s-3.59,1.57-3.59,4.06v.31c0,2.49,1.35,4.06,3.59,4.06h0ZM991.35,113c0,.93-.51,1.54-1.34,1.54-.49,0-.79-.24-.79-.71,0-.51.33-.75.82-.95l1.3-.59v.71h0ZM993.6,110.84c0-1.99-.99-3.02-3.13-3.02s-3.18,1.22-3.18,2.91v.24h2.08v-.24c0-.7.33-1.12,1.01-1.12.71,0,.97.44.97,1.12v.18l-2.33.86c-.93.37-2.03.88-2.03,2.34,0,1.24.82,2.08,2.25,2.08,1.06,0,1.87-.53,2.2-1.24.18.88.88,1.24,1.68,1.24.53,0,.91-.15,1.26-.37v-1.41c-.18.05-.29.07-.44.07-.24,0-.35-.13-.35-.38v-3.28h0ZM1002.46,104.56l-3.31,11.53h2.29l.73-2.65h3.37l.71,2.65h2.49l-3.31-11.53h-2.96ZM1003.83,107.38h.07l1.1,4.12h-2.3l1.13-4.12h0ZM1015.43,107.99h-1.81l-1.08,4.78h-.07l-1.12-4.78h-2.27l2.09,8.1h2.1l1.12-5.03h.07l1.12,5.03h2.1l2.09-8.1h-2.05l-1.12,4.78h-.07l-1.1-4.78h0ZM1024.84,113c0,.93-.51,1.54-1.34,1.54-.49,0-.79-.24-.79-.71,0-.51.33-.75.82-.95l1.3-.59v.71h0ZM1027.09,110.84c0-1.99-.99-3.02-3.13-3.02s-3.18,1.22-3.18,2.91v.24h2.08v-.24c0-.7.33-1.12,1.01-1.12.71,0,.97.44.97,1.12v.18l-2.32.86c-.93.37-2.03.88-2.03,2.34,0,1.24.82,2.08,2.25,2.08,1.06,0,1.87-.53,2.2-1.24.18.88.88,1.24,1.68,1.24.53,0,.91-.15,1.26-.37v-1.41c-.18.05-.29.07-.44.07-.24,0-.35-.13-.35-.38v-3.28h0ZM1034.3,108.02c-.2-.11-.46-.14-.77-.14-.9,0-1.59.4-1.9,1.39v-1.28h-2.34v8.1h2.34v-4.14c0-1.35.57-1.94,1.65-1.94.33,0,.59.04.91.13l.11-2.12h0ZM1037.66,111.66c0-1.3.46-2,1.34-2s1.32.7,1.32,1.7v1.34c0,1.01-.48,1.68-1.32,1.68s-1.34-.68-1.34-1.98v-.75h0ZM1040.32,116.09h2.34v-11.53h-2.34v4.43c-.4-.68-1.08-1.17-2.14-1.17-1.85,0-2.83,1.43-2.83,3.93v.57c0,2.51.99,3.93,2.83,3.93,1.06,0,1.74-.49,2.14-1.17v1h0Z"/>
    <path d="M930.35,98.66l2.07-8.16h.07v8.16h2.3v-11.53h-3.27l-1.72,7.04h-.07l-1.74-7.04h-3.44v11.53h2.18v-8.16h.07l2.05,8.16h1.5ZM936.91,90.56v8.1h2.34v-8.1h-2.34ZM936.91,89.57h2.34v-2.25h-2.34v2.25h0ZM943.29,94.24c0-1.3.46-2,1.34-2s1.32.7,1.32,1.7v1.34c0,1.01-.48,1.68-1.32,1.68s-1.34-.68-1.34-1.98v-.75h0ZM945.94,98.66h2.34v-11.53h-2.34v4.43c-.4-.68-1.08-1.17-2.14-1.17-1.85,0-2.83,1.43-2.83,3.93v.57c0,2.51.99,3.93,2.83,3.93,1.06,0,1.74-.49,2.14-1.17v1h0ZM954.23,95.57c0,.93-.51,1.54-1.34,1.54-.49,0-.79-.24-.79-.71,0-.51.33-.75.82-.95l1.3-.59v.71h0ZM956.48,93.41c0-1.99-.99-3.02-3.13-3.02s-3.18,1.22-3.18,2.91v.24h2.08v-.24c0-.7.33-1.12,1.01-1.12.71,0,.97.44.97,1.12v.18l-2.33.86c-.93.37-2.03.88-2.03,2.34,0,1.24.82,2.08,2.25,2.08,1.06,0,1.87-.53,2.2-1.24.18.88.88,1.24,1.68,1.24.53,0,.91-.15,1.26-.37v-1.41c-.18.05-.29.07-.44.07-.24,0-.35-.13-.35-.38v-3.28h0ZM958.32,95.99c.07,1.81,1.37,2.83,3.35,2.83s3.13-.95,3.13-2.54c0-1.35-.79-2.03-2.27-2.43l-1.15-.31c-.51-.16-.81-.33-.81-.79s.37-.71.92-.71c.82,0,1.19.51,1.19,1.25h1.97c-.02-1.67-1.06-2.89-3.18-2.89-1.81,0-3,1.06-3,2.56s.8,2.12,2.16,2.47l1.25.31c.55.15.81.31.81.73,0,.48-.4.71-1.01.71-.77,0-1.3-.38-1.35-1.19h-1.99ZM972.98,98.66v-4.59h3.37v-1.99h-3.37v-2.91h4.26v-2.03h-6.71v11.53h2.45ZM978.78,90.56v8.1h2.34v-8.1h-2.34ZM978.78,89.57h2.34v-2.25h-2.34v2.25h0ZM983.1,87.14v11.53h2.34v-11.53h-2.34ZM994.27,94.07c0-.88.24-1.76,1.15-1.76.82,0,1.01.6,1.01,1.5v4.85h2.34v-5.62c0-1.48-.66-2.65-2.47-2.65-1.12,0-1.85.53-2.29,1.17-.35-.62-1.01-1.17-2.16-1.17-.97,0-1.76.48-2.11,1.15v-.99h-2.34v8.1h2.34v-4.59c0-.88.26-1.76,1.17-1.76.82,0,1.01.6,1.01,1.5v4.85h2.34v-4.59h0ZM1003.99,98.83c2.01,0,3.13-1.17,3.27-3.09h-2.08c-.02.82-.4,1.26-1.17,1.26-.9,0-1.36-.64-1.36-1.91h4.67v-.64c0-2.49-1.1-4.06-3.42-4.06-2.14,0-3.49,1.57-3.49,4.06v.31c0,2.49,1.35,4.06,3.58,4.06h0ZM1002.65,93.8c0-1.03.46-1.58,1.25-1.58s1.23.55,1.23,1.58h-2.47ZM1008.52,95.99c.07,1.81,1.37,2.83,3.35,2.83s3.13-.95,3.13-2.54c0-1.35-.79-2.03-2.27-2.43l-1.15-.31c-.51-.16-.81-.33-.81-.79s.37-.71.91-.71c.82,0,1.19.51,1.19,1.25h1.97c-.02-1.67-1.06-2.89-3.18-2.89-1.81,0-3,1.06-3,2.56s.81,2.12,2.16,2.47l1.25.31c.55.15.81.31.81.73,0,.48-.4.71-1.01.71-.77,0-1.3-.38-1.35-1.19h-1.99Z"/>
    <path d="M950.77,69.71l-3.31,11.53h2.29l.73-2.65h3.37l.71,2.65h2.49l-3.31-11.53h-2.96ZM952.14,72.53h.07l1.1,4.12h-2.31l1.13-4.12h0ZM963.74,73.13h-1.81l-1.08,4.78h-.07l-1.12-4.78h-2.27l2.09,8.1h2.1l1.12-5.03h.07l1.12,5.03h2.1l2.09-8.1h-2.05l-1.12,4.78h-.07l-1.1-4.78h0ZM973.16,78.15c0,.93-.51,1.54-1.34,1.54-.49,0-.79-.24-.79-.71,0-.51.33-.75.82-.95l1.3-.59v.71h0ZM975.41,75.98c0-1.99-.99-3.02-3.13-3.02s-3.18,1.22-3.18,2.91v.24h2.08v-.24c0-.7.33-1.12,1.01-1.12.71,0,.97.44.97,1.12v.18l-2.33.86c-.93.37-2.03.88-2.03,2.34,0,1.24.82,2.08,2.25,2.08,1.06,0,1.87-.53,2.2-1.24.18.88.88,1.24,1.68,1.24.53,0,.91-.15,1.26-.37v-1.41c-.18.05-.29.07-.44.07-.24,0-.35-.13-.35-.38v-3.28h0ZM982.62,73.17c-.2-.11-.46-.14-.77-.14-.9,0-1.59.4-1.9,1.39v-1.28h-2.34v8.1h2.34v-4.14c0-1.35.57-1.94,1.65-1.94.33,0,.59.04.91.13l.11-2.12h0ZM985.98,76.81c0-1.3.46-2,1.34-2s1.32.7,1.32,1.7v1.34c0,1.01-.48,1.68-1.32,1.68s-1.34-.68-1.34-1.98v-.75h0ZM988.63,81.24h2.34v-11.53h-2.34v4.43c-.4-.68-1.08-1.17-2.14-1.17-1.85,0-2.83,1.43-2.83,3.93v.57c0,2.51.99,3.93,2.83,3.93,1.06,0,1.74-.49,2.14-1.17v1h0Z"/>
    <path d="M916.89,63.81v-4.59h3.37v-1.99h-3.37v-2.91h4.26v-2.03h-6.71v11.53h2.45ZM925.64,63.97c2.01,0,3.13-1.17,3.27-3.09h-2.08c-.02.82-.4,1.26-1.17,1.26-.9,0-1.36-.64-1.36-1.91h4.67v-.64c0-2.49-1.1-4.06-3.42-4.06-2.14,0-3.49,1.57-3.49,4.06v.31c0,2.49,1.35,4.06,3.59,4.06h0ZM924.31,58.94c0-1.03.46-1.58,1.25-1.58s1.23.55,1.23,1.58h-2.47ZM935.66,55.74c-.2-.11-.46-.14-.77-.14-.9,0-1.59.4-1.9,1.39v-1.28h-2.34v8.1h2.34v-4.14c0-1.35.57-1.94,1.65-1.94.33,0,.59.04.91.13l.11-2.12h0ZM939.32,59.25c0-1.01.35-1.79,1.26-1.79.84,0,1.06.6,1.06,1.54v4.81h2.34v-5.56c0-1.59-.77-2.71-2.49-2.71-1.06,0-1.83.51-2.18,1.15v-.99h-2.34v8.1h2.34v-4.56h0ZM949.89,60.72c0,.93-.51,1.54-1.34,1.54-.49,0-.79-.24-.79-.71,0-.51.33-.75.82-.95l1.3-.59v.71h0ZM952.14,58.56c0-1.99-.99-3.02-3.13-3.02s-3.18,1.22-3.18,2.91v.24h2.08v-.24c0-.7.33-1.12,1.01-1.12.71,0,.97.44.97,1.12v.18l-2.33.86c-.93.37-2.03.88-2.03,2.34,0,1.24.82,2.08,2.25,2.08,1.06,0,1.87-.53,2.2-1.24.18.88.88,1.24,1.68,1.24.53,0,.91-.15,1.26-.37v-1.41c-.18.05-.29.07-.44.07-.24,0-.35-.13-.35-.38v-3.28h0ZM956.68,59.25c0-1.01.35-1.79,1.26-1.79.84,0,1.06.6,1.06,1.54v4.81h2.34v-5.56c0-1.59-.77-2.71-2.49-2.71-1.06,0-1.83.51-2.18,1.15v-.99h-2.34v8.1h2.34v-4.56h0ZM965.33,59.38c0-1.3.46-2,1.34-2s1.32.7,1.32,1.7v1.34c0,1.01-.48,1.68-1.32,1.68s-1.34-.68-1.34-1.98v-.75h0ZM967.98,63.81h2.34v-11.53h-2.34v4.43c-.4-.68-1.08-1.17-2.14-1.17-1.85,0-2.83,1.43-2.83,3.93v.57c0,2.51.99,3.93,2.83,3.93,1.06,0,1.74-.49,2.14-1.17v1h0ZM975.56,62.16c-.88,0-1.26-.73-1.26-1.9v-1.01c0-1.17.38-1.9,1.26-1.9s1.26.73,1.26,1.9v1.01c0,1.17-.38,1.9-1.26,1.9h0ZM975.56,63.97c2.23,0,3.59-1.57,3.59-4.06v-.31c0-2.49-1.35-4.06-3.59-4.06s-3.59,1.57-3.59,4.06v.31c0,2.49,1.35,4.06,3.59,4.06h0ZM984.9,52.28v11.53h6.86v-2.03h-4.39v-9.5h-2.47ZM996.6,62.16c-.88,0-1.26-.73-1.26-1.9v-1.01c0-1.17.39-1.9,1.26-1.9s1.26.73,1.26,1.9v1.01c0,1.17-.39,1.9-1.26,1.9h0ZM996.6,63.97c2.23,0,3.58-1.57,3.58-4.06v-.31c0-2.49-1.35-4.06-3.58-4.06s-3.58,1.57-3.58,4.06v.31c0,2.49,1.35,4.06,3.58,4.06h0ZM1006.83,60.13c0,1.3-.46,1.98-1.34,1.98s-1.32-.68-1.32-1.68v-1.34c0-1.01.46-1.7,1.32-1.7s1.34.7,1.34,2v.75h0ZM1004.17,62.8c.39.68,1.08,1.17,2.14,1.17,1.85,0,2.83-1.43,2.83-3.93v-.57c0-2.51-.99-3.93-2.83-3.93-1.06,0-1.76.49-2.14,1.17v-1h-2.34v11.07h2.34v-3.97h0ZM1014.1,63.97c2.01,0,3.13-1.17,3.27-3.09h-2.08c-.02.82-.4,1.26-1.17,1.26-.9,0-1.36-.64-1.36-1.91h4.67v-.64c0-2.49-1.1-4.06-3.42-4.06-2.14,0-3.49,1.57-3.49,4.06v.31c0,2.49,1.35,4.06,3.58,4.06h0ZM1012.77,58.94c0-1.03.46-1.58,1.25-1.58s1.23.55,1.23,1.58h-2.47ZM1018.64,61.14c.07,1.81,1.37,2.83,3.35,2.83s3.13-.95,3.13-2.54c0-1.35-.79-2.03-2.27-2.43l-1.16-.31c-.51-.16-.81-.33-.81-.79s.37-.71.91-.71c.82,0,1.19.51,1.19,1.25h1.97c-.02-1.67-1.06-2.89-3.18-2.89-1.81,0-3,1.06-3,2.56s.8,2.12,2.16,2.47l1.25.31c.55.15.81.31.81.73,0,.48-.4.71-1.01.71-.77,0-1.3-.38-1.36-1.19h-1.99Z"/>
  </g>
  <g>
    <path d="M1237.46,231.05v-.9h-5.39v9.21h1.01v-4.05h3.95v-.9h-3.95v-3.36h4.39ZM1241.47,239.36v-9.21h-1.01v9.21h1.01ZM1250.67,239.36v-.9h-4.39v-8.31h-1.01v9.21h5.39ZM1262.51,239.36l-.35-9.36-.2-.02-3.9,6.94-4-6.94-.19.02-.35,9.36h1.02l.11-6.52,3.29,5.58h.14l3.27-5.57.14,6.51h1.02ZM1275.74,231.05v-.9h-5.39v9.21h1.01v-4.05h3.95v-.9h-3.95v-3.36h4.39ZM1284.11,239.36v-.9h-4.39v-3.32h3.95v-.9h-3.95v-3.18h4.39v-.9h-5.39v9.21h5.39ZM1292.44,236.87c0-1.23-.54-1.87-2.46-2.74-1.13-.52-1.57-1.03-1.57-1.67,0-.84.59-1.55,1.75-1.55.6,0,1.21.24,1.66.56l.45-.85c-.53-.36-1.27-.63-2.05-.63-1.68,0-2.82,1.18-2.82,2.51,0,1.1.59,1.82,2.19,2.53,1.51.67,1.82,1.15,1.82,1.95s-.55,1.61-1.73,1.61c-.72,0-1.52-.31-2.22-.82l-.49.88c.8.53,1.62.86,2.66.86,1.6,0,2.82-1.15,2.82-2.64h0ZM1302.22,231.05v-.9h-7.15v.9h3.08v8.31h1.01v-8.31h3.07ZM1306.21,239.36v-9.21h-1v9.21h1ZM1317.42,230.14h-1.09l-3.06,7.29-3.08-7.29h-1.13l4.1,9.38h.16l4.1-9.38h0ZM1326.72,239.36l-4.13-9.38h-.16l-4.14,9.38h1.04l1.09-2.55h4.12l1.09,2.55h1.08ZM1324.19,235.96h-3.39l1.7-3.96,1.7,3.96h0ZM1334.95,239.36v-.9h-4.39v-8.31h-1v9.21h5.39Z"/>
    <path d="M1226.55,224.43v-9.21h-1.01v9.21h1.01ZM1237.47,224.57v-9.35h-1.01v6.88l-5.91-7.05-.2.05v9.34h1.01v-6.99l5.98,7.16.13-.04h0ZM1247.58,216.12v-.9h-7.15v.9h3.08v8.31h1.01v-8.31h3.07ZM1255.93,224.43v-.9h-4.39v-3.32h3.95v-.9h-3.95v-3.18h4.39v-.9h-5.39v9.21h5.39ZM1265.54,224.43l-2.68-3.85c1.29-.41,2.01-1.38,2.01-2.66,0-1.58-1.17-2.77-3.54-2.77-.77,0-1.45.06-2.12.15v9.12h1.01v-3.63c.3.01.74.02,1.04.02.21,0,.41-.01.62-.02l2.45,3.63h1.22ZM1263.8,217.99c0,1.19-.74,1.98-2.46,1.98-.35,0-.82-.02-1.12-.06v-3.75c.33-.07.84-.1,1.27-.1,1.51,0,2.31.84,2.31,1.92h0ZM1275.52,224.57v-9.35h-1.01v6.88l-5.91-7.05-.2.05v9.34h1.01v-6.99l5.98,7.16.13-.04h0ZM1286.78,224.43l-4.14-9.38h-.16l-4.14,9.38h1.04l1.09-2.55h4.12l1.09,2.55h1.08ZM1284.25,221.04h-3.39l1.7-3.96,1.7,3.96h0ZM1294.87,216.12v-.9h-7.15v.9h3.08v8.31h1.01v-8.31h3.07ZM1298.87,224.43v-9.21h-1.01v9.21h1.01ZM1311.47,219.83c0-2.77-2.06-4.76-4.55-4.76s-4.64,2-4.64,4.76,2.06,4.75,4.55,4.75,4.64-1.99,4.64-4.75h0ZM1310.38,219.83c0,2.17-1.46,3.86-3.49,3.86s-3.51-1.69-3.51-3.86,1.46-3.86,3.51-3.86,3.49,1.68,3.49,3.86h0ZM1321.98,224.57v-9.35h-1.01v6.88l-5.91-7.05-.2.05v9.34h1.01v-6.99l5.98,7.16.13-.04h0ZM1333.25,224.43l-4.13-9.38h-.16l-4.14,9.38h1.04l1.09-2.55h4.12l1.09,2.55h1.08ZM1330.71,221.04h-3.39l1.7-3.96,1.7,3.96h0ZM1341.47,224.43v-.9h-4.39v-8.31h-1.01v9.21h5.39Z"/>
    <path d="M1246.75,204.82c0-2.6-1.78-4.59-5.61-4.59-.92,0-1.66.04-2.73.15v9.05c1.13.1,1.73.15,2.82.15,3.82,0,5.52-2.05,5.52-4.76h0ZM1244.48,204.82c0,1.72-.89,2.85-2.9,2.85-.46,0-.63-.01-1.02-.05v-5.43c.33-.04.52-.05.88-.05,1.99,0,3.04,1.01,3.04,2.68h0ZM1259.08,204.91c0-2.72-1.83-4.76-4.68-4.76s-4.76,2.05-4.76,4.76,1.82,4.75,4.68,4.75,4.76-2.05,4.76-4.75h0ZM1256.8,204.91c0,1.65-.98,2.85-2.44,2.85s-2.44-1.21-2.44-2.85.98-2.85,2.44-2.85,2.44,1.19,2.44,2.85h0ZM1270.11,208.8l-.64-1.81c-.69.43-1.55.68-2.3.68-1.72,0-2.79-1.05-2.79-2.76s1.07-2.77,2.79-2.77c.75,0,1.52.24,2.2.62l.65-1.81c-.83-.49-1.81-.8-2.88-.8-3,0-5.04,2.02-5.04,4.76s2.04,4.75,5.04,4.75c1.06,0,2.16-.33,2.97-.86h0ZM1279.36,209.51v-1.95h-3.69v-7.27h-2.14v9.21h5.83ZM1284.92,209.51v-9.21h-2.14v9.21h2.14ZM1294.83,206.79c0-1.18-.52-2.01-2.24-2.74-1.16-.49-1.62-.69-1.62-1.29,0-.38.31-.74,1.09-.74.65,0,1.51.39,2.04.75l.54-1.91c-.54-.36-1.57-.72-2.58-.72-2.15,0-3.24,1.31-3.24,2.65,0,1.11.57,2.05,2.19,2.7,1.41.56,1.65.89,1.65,1.37s-.29.8-1.04.8c-.87,0-1.83-.35-2.58-.89l-.59,1.94c.8.53,2.06.94,3.1.94,2.21,0,3.28-1.4,3.28-2.87h0ZM1305.08,206.89c0-1.05-.59-1.78-1.85-2.16,1.04-.43,1.58-1.08,1.58-2.05,0-1.28-1.36-2.47-4.03-2.47-.75,0-1.91.1-2.58.2v9c.9.11,1.95.19,2.75.19,2.77,0,4.12-1.27,4.12-2.7h0ZM1302.62,203.07c0,.67-.51,1.04-1.55,1.04-.39,0-.55-.01-.79-.04v-1.92c.3-.05.58-.09.97-.09.9,0,1.37.45,1.37,1.01h0ZM1302.77,206.67c0,.69-.52,1.1-1.6,1.1-.43,0-.59-.01-.89-.04v-2.13c.21-.03.48-.04.8-.04,1.13,0,1.69.4,1.69,1.11h0ZM1317.69,204.91c0-2.72-1.84-4.76-4.68-4.76s-4.76,2.05-4.76,4.76,1.82,4.75,4.68,4.75,4.76-2.05,4.76-4.75h0ZM1315.4,204.91c0,1.65-.98,2.85-2.44,2.85s-2.44-1.21-2.44-2.85.98-2.85,2.44-2.85,2.44,1.19,2.44,2.85h0ZM1328.6,209.51l-4.34-9.29h-.29l-4.34,9.29h2.17l.69-1.67h3.18l.69,1.67h2.23ZM1325,206.2h-1.82l.92-2.21.9,2.21h0Z"/>
    <path d="M1401.58,75.78c1.6-2.77,3.18-13.96,3.18-13.96,0,0-8.9,6.96-10.5,9.73-1.6,2.78-2.02,5.54.76,7.14,2.78,1.6,4.96-.14,6.56-2.91h0ZM1394.4,53.7c1.1-3.01.71-14.3.71-14.3,0,0-7.55,8.4-8.65,11.41-1.1,3.01-1.02,5.8,1.99,6.9,3.01,1.1,4.86-1,5.96-4.01h0ZM1378.5,47.67c1.32-1.67.76-3.9-.63-6.13-1.7-2.72-10.83-9.36-10.83-9.36,0,0,1.97,11.13,3.67,13.84,1.36,2.17,3.07,3.64,5.09,3.28,9.53,14.02,15.26,31.48,15.26,50.48,0,46.06-33.26,83.39-74.28,83.39v3.42c42.71,0,77.33-38.87,77.33-86.82,0-19.59-5.85-37.59-15.6-52.12h0ZM1380.08,63.73c-2.49-2.02-13.29-5.33-13.29-5.33,0,0,5.48,9.88,7.97,11.89,2.49,2.02,5.15,2.86,7.17.37,2.02-2.49.64-4.92-1.85-6.94h0ZM1383.26,122.17c-1.79-2.66-11.16-8.98-11.16-8.98,0,0,2.36,11.05,4.15,13.71,1.79,2.66,4.09,4.24,6.75,2.45,2.66-1.79,2.05-4.52.26-7.17h0ZM1387.07,90.43c2.23-2.3,1.07-4.84-1.24-7.07-2.3-2.23-12.78-6.47-12.78-6.47,0,0,4.6,10.32,6.91,12.54,2.31,2.23,4.88,3.29,7.11.99h0ZM1386.54,102.27c-2.14-2.38-12.3-7.34-12.3-7.34,0,0,3.87,10.61,6.02,13,2.14,2.38,4.64,3.63,7.02,1.48,2.38-2.14,1.4-4.76-.74-7.14h0ZM1365.79,129.1s.4,11.29,1.71,14.22c1.3,2.93,3.29,4.88,6.22,3.58,2.93-1.3,2.8-4.09,1.5-7.02-1.3-2.93-9.43-10.78-9.43-10.78h0ZM1365.47,153.63c-1.09-3.01-8.65-11.41-8.65-11.41,0,0-.39,11.29.71,14.3,1.1,3.01,2.95,5.1,5.95,4.01,3.01-1.1,3.08-3.89,1.99-6.9h0ZM1354.05,164.03c-.67-3.13-6.98-12.5-6.98-12.5,0,0-1.95,11.13-1.29,14.26s2.2,5.46,5.34,4.8c3.13-.67,3.59-3.42,2.93-6.55h0ZM1339.76,171.46c-.22-3.2-5.17-13.35-5.17-13.35,0,0-3.48,10.75-3.26,13.95.22,3.2,1.42,5.72,4.62,5.49,3.2-.22,4.03-2.89,3.81-6.08h0ZM1250.26,186.61v-3.42c-41.03,0-74.28-37.34-74.28-83.39,0-19,5.73-36.46,15.26-50.48,2.02.35,3.73-1.11,5.09-3.28,1.7-2.72,3.67-13.84,3.67-13.84,0,0-9.14,6.65-10.83,9.36-1.39,2.22-1.95,4.45-.63,6.13-9.75,14.53-15.6,32.53-15.6,52.12,0,47.95,34.62,86.81,77.33,86.82h0ZM1235.69,172.05c.22-3.2-3.26-13.95-3.26-13.95,0,0-4.95,10.16-5.17,13.35-.22,3.2.61,5.86,3.81,6.08,3.2.22,4.4-2.3,4.62-5.49h0ZM1221.24,165.78c.67-3.13-1.29-14.26-1.29-14.26,0,0-6.31,9.37-6.98,12.5-.67,3.13-.21,5.89,2.93,6.55,3.13.67,4.67-1.66,5.34-4.8h0ZM1209.49,156.52c1.1-3.01.71-14.3.71-14.3,0,0-7.55,8.4-8.65,11.41-1.1,3.01-1.02,5.8,1.99,6.9,3.01,1.1,4.86-1,5.95-4.01h0ZM1199.53,143.32c1.3-2.93,1.7-14.22,1.7-14.22,0,0-8.12,7.85-9.43,10.78-1.3,2.93-1.43,5.71,1.5,7.02,2.93,1.3,4.92-.65,6.22-3.58h0ZM1185.09,70.67c2.02,2.49,4.68,1.65,7.17-.37,2.49-2.02,7.97-11.89,7.97-11.89,0,0-10.8,3.31-13.29,5.33-2.49,2.02-3.87,4.45-1.85,6.94h0ZM1181.19,83.36c-2.31,2.23-3.46,4.77-1.24,7.07,2.23,2.3,4.8,1.24,7.11-.99,2.3-2.23,6.91-12.54,6.91-12.54,0,0-10.47,4.24-12.78,6.47h0ZM1183.76,122.17c-1.79,2.66-2.4,5.38.26,7.17,2.66,1.79,4.96.21,6.75-2.45,1.79-2.66,4.15-13.71,4.15-13.71,0,0-9.36,6.32-11.15,8.98h0ZM1179.74,109.41c2.38,2.14,4.88.9,7.02-1.48,2.14-2.38,6.01-13,6.01-13,0,0-10.15,4.96-12.3,7.34-2.14,2.38-3.12,5-.74,7.14h0ZM1180.56,50.81c-1.1-3.01-8.65-11.41-8.65-11.41,0,0-.39,11.29.71,14.3,1.1,3.01,2.94,5.1,5.96,4.01,3.01-1.1,3.08-3.89,1.99-6.9h0ZM1172.76,71.55c-1.6-2.77-10.5-9.73-10.5-9.73,0,0,1.58,11.19,3.18,13.96,1.6,2.78,3.79,4.52,6.56,2.91,2.77-1.6,2.36-4.36.76-7.14h0ZM1169.23,94.81c-2.06-2.45-12.03-7.77-12.03-7.77,0,0,3.5,10.74,5.56,13.2,2.06,2.45,4.51,3.79,6.97,1.73,2.45-2.06,1.57-4.71-.49-7.16h0ZM1171.12,115.5c-2.45-2.06-13.2-5.56-13.2-5.56,0,0,5.31,9.97,7.77,12.03,2.45,2.06,5.1,2.95,7.16.49,2.06-2.45.73-4.91-1.73-6.97h0ZM1176.24,136.21c-2.77-1.6-13.96-3.18-13.96-3.18,0,0,6.96,8.9,9.74,10.5,2.78,1.6,5.54,2.02,7.14-.76,1.6-2.78-.14-4.96-2.91-6.56h0ZM1169.03,155.36s9.59,5.98,12.74,6.54c3.16.56,5.89,0,6.45-3.15.56-3.16-1.82-4.61-4.98-5.17-3.16-.56-14.21,1.79-14.21,1.79h0ZM1194.53,168.8c-3.16.56-12.74,6.54-12.74,6.54,0,0,11.05,2.34,14.21,1.79,3.16-.56,5.54-2.01,4.98-5.17-.56-3.16-3.29-3.71-6.45-3.16h0ZM1200.55,192.56s11.19-1.58,13.96-3.18c2.78-1.6,4.51-3.79,2.91-6.56-1.6-2.77-4.36-2.36-7.14-.76-2.77,1.6-9.74,10.5-9.74,10.5h0ZM1349.6,182.81c-1.6,2.78.14,4.96,2.91,6.56,2.77,1.6,13.96,3.18,13.96,3.18,0,0-6.96-8.9-9.74-10.5-2.77-1.6-5.53-2.01-7.14.76h0ZM1371.02,177.12c3.16.56,14.21-1.79,14.21-1.79,0,0-9.59-5.98-12.74-6.54-3.15-.56-5.89,0-6.45,3.16-.56,3.16,1.82,4.61,4.98,5.17h0ZM1385.25,161.89c3.15-.56,12.74-6.54,12.74-6.54,0,0-11.05-2.34-14.21-1.79-3.16.56-5.54,2.01-4.98,5.17.56,3.16,3.29,3.71,6.45,3.15h0ZM1404.74,133.03s-11.19,1.58-13.96,3.18c-2.77,1.6-4.51,3.79-2.91,6.56,1.6,2.77,4.36,2.36,7.14.76,2.77-1.6,9.74-10.5,9.74-10.5h0ZM1401.34,121.97c2.45-2.06,7.77-12.03,7.77-12.03,0,0-10.74,3.5-13.2,5.56-2.46,2.06-3.79,4.51-1.73,6.97,2.06,2.46,4.71,1.57,7.16-.49h0ZM1404.26,100.24c2.06-2.45,5.56-13.2,5.56-13.2,0,0-9.97,5.31-12.03,7.77-2.06,2.45-2.95,5.1-.49,7.16,2.46,2.06,4.91.72,6.97-1.73h0Z"/>
    <text class="cls-2" transform="translate(1260.95 192.13)"><tspan x="0" y="0">2019</tspan></text>
    <path d="M1234.86,143.74v-7.58h1.03c1.56,0,2.36.71,2.36,2.95v1.68c0,2.23-.81,2.95-2.36,2.95h-1.03ZM1232.39,145.72h3.71c3.2,0,4.65-1.9,4.65-5.43v-.66c0-3.53-1.44-5.43-4.65-5.43h-3.71v11.53h0ZM1245.76,144.07c-.88,0-1.26-.73-1.26-1.9v-1.01c0-1.17.38-1.9,1.26-1.9s1.26.73,1.26,1.9v1.01c0,1.17-.38,1.9-1.26,1.9h0ZM1245.76,145.88c2.23,0,3.59-1.57,3.59-4.06v-.31c0-2.49-1.35-4.06-3.59-4.06s-3.59,1.57-3.59,4.06v.31c0,2.49,1.35,4.06,3.59,4.06h0ZM1250.64,141.82c0,2.49,1.32,4.06,3.53,4.06s3.27-1.48,3.27-3.49v-.2h-2.14v.16c0,1.01-.29,1.7-1.14,1.7s-1.21-.73-1.21-1.89v-1.01c0-1.17.35-1.9,1.21-1.9s1.14.71,1.14,1.72v.15h2.14v-.18c0-2.01-1.13-3.49-3.27-3.49s-3.53,1.57-3.53,4.06v.31h0ZM1258.82,136.49h1.15c-.02.75-.37.97-1.15,1.01v1.17c1.74-.04,2.52-.75,2.52-2.29v-2.19h-2.52v2.3h0ZM1262.06,143.05c.07,1.81,1.37,2.83,3.35,2.83s3.13-.95,3.13-2.54c0-1.35-.79-2.03-2.27-2.43l-1.15-.31c-.51-.16-.81-.33-.81-.79s.37-.71.92-.71c.82,0,1.19.51,1.19,1.24h1.97c-.02-1.67-1.06-2.89-3.18-2.89-1.81,0-3,1.06-3,2.56s.8,2.12,2.16,2.47l1.25.31c.55.15.81.31.81.73,0,.48-.4.71-1.01.71-.77,0-1.3-.38-1.35-1.19h-1.99ZM1282.98,145.72l-3.51-6.46,3.29-5.07h-2.62l-3.4,5.38v-5.38h-2.47v11.53h2.47v-3.35l.86-1.37,2.62,4.72h2.76ZM1284.36,137.61v8.1h2.34v-8.1h-2.34ZM1284.36,136.62h2.34v-2.25h-2.34v2.25h0ZM1291.02,141.16c0-1.01.35-1.79,1.26-1.79.84,0,1.06.6,1.06,1.54v4.81h2.34v-5.56c0-1.59-.77-2.71-2.49-2.71-1.06,0-1.83.51-2.18,1.15v-.99h-2.34v8.1h2.34v-4.56h0ZM1303.86,140.12c0-.4-.09-.79-.26-1.12.33-.09.71-.15,1.02-.15v-1.83c-.71,0-1.43.42-1.83,1.04-.57-.4-1.32-.62-2.18-.62-1.83,0-3.22,1-3.22,2.67v.22c0,.86.38,1.56,1,2.01-.71.38-1.08.86-1.08,1.56s.36,1.24.93,1.44c-.84.13-1.37.71-1.37,1.47,0,1.44,1.59,2.02,3.64,2.02,2.31,0,4.12-.88,4.12-2.84,0-1.44-.84-2.28-2.6-2.28h-2.25c-.44,0-.64-.23-.64-.55,0-.15.04-.26.11-.37.4.15.86.2,1.36.2,1.85,0,3.24-1.02,3.24-2.67v-.22h0ZM1298.88,146.48c0-.47.29-.76.91-.76h1.89c.53,0,.88.22.88.71,0,.65-.79.94-2.03.94-1.08,0-1.65-.33-1.65-.89h0ZM1299.65,140.14c0-.71.31-1.19.97-1.19s.99.48.99,1.19v.18c0,.71-.31,1.19-.99,1.19s-.97-.48-.97-1.19v-.18h0ZM1307.9,141.29c0-1.3.46-2,1.34-2s1.32.7,1.32,1.7v1.34c0,1.01-.48,1.68-1.32,1.68s-1.34-.68-1.34-1.98v-.75h0ZM1310.56,145.72h2.34v-11.53h-2.34v4.43c-.4-.68-1.08-1.17-2.14-1.17-1.85,0-2.83,1.43-2.83,3.93v.57c0,2.51.99,3.93,2.83,3.93,1.06,0,1.74-.49,2.14-1.17v1.01h0ZM1318.14,144.07c-.88,0-1.26-.73-1.26-1.9v-1.01c0-1.17.39-1.9,1.26-1.9s1.27.73,1.27,1.9v1.01c0,1.17-.39,1.9-1.27,1.9h0ZM1318.14,145.88c2.23,0,3.59-1.57,3.59-4.06v-.31c0-2.49-1.35-4.06-3.59-4.06s-3.58,1.57-3.58,4.06v.31c0,2.49,1.35,4.06,3.58,4.06h0ZM1330.24,141.12c0-.88.24-1.76,1.16-1.76.82,0,1.01.6,1.01,1.5v4.85h2.34v-5.62c0-1.48-.66-2.65-2.47-2.65-1.12,0-1.85.53-2.29,1.17-.35-.62-1.01-1.17-2.16-1.17-.97,0-1.76.48-2.11,1.15v-.99h-2.34v8.1h2.34v-4.59c0-.88.26-1.76,1.17-1.76.82,0,1.01.6,1.01,1.5v4.85h2.34v-4.59h0Z"/>
    <path d="M1229.62,111.94v-3.66h1.1c1.21,0,1.83.49,1.83,1.83s-.62,1.83-1.83,1.83h-1.1ZM1229.62,113.9h1.3c2.73,0,4.01-1.35,4.01-3.81s-1.28-3.79-4.01-3.79h-3.75v11.53h2.45v-3.93h0ZM1239.6,116.19c-.88,0-1.26-.73-1.26-1.9v-1.01c0-1.17.38-1.9,1.26-1.9s1.26.73,1.26,1.9v1.01c0,1.17-.38,1.9-1.26,1.9h0ZM1239.6,118c2.23,0,3.59-1.57,3.59-4.06v-.31c0-2.49-1.35-4.06-3.59-4.06s-3.59,1.57-3.59,4.06v.31c0,2.49,1.35,4.06,3.59,4.06h0ZM1249.85,109.76c-.2-.11-.46-.14-.77-.14-.9,0-1.59.4-1.9,1.39v-1.28h-2.34v8.1h2.34v-4.14c0-1.35.57-1.94,1.65-1.94.33,0,.59.04.91.13l.11-2.12h0ZM1251.73,115.73c0,1.63.99,2.23,2.18,2.23.77,0,1.39-.18,2.01-.6v-1.63c-.49.24-.81.35-1.17.35-.48,0-.71-.26-.71-.81v-3.9h1.68v-1.64h-1.68v-2.21h-1.41l-.26,1.08c-.18.75-.44,1.13-1.21,1.3l-.35.07v1.41h.91v4.36h0ZM1261.9,114.25c0,1.04-.31,1.81-1.21,1.81-.84,0-1.06-.6-1.06-1.52v-4.81h-2.32v5.56c0,1.57.73,2.71,2.45,2.71,1.06,0,1.81-.51,2.14-1.15v.99h2.34v-8.1h-2.34v4.52h0ZM1272.51,112.23c0-.4-.09-.79-.26-1.12.33-.09.71-.15,1.02-.15v-1.83c-.71,0-1.43.42-1.83,1.04-.57-.4-1.32-.62-2.18-.62-1.83,0-3.22,1-3.22,2.67v.22c0,.86.38,1.56,1.01,2.01-.71.38-1.08.86-1.08,1.56s.37,1.24.93,1.44c-.84.13-1.37.71-1.37,1.47,0,1.44,1.59,2.02,3.64,2.02,2.31,0,4.12-.88,4.12-2.84,0-1.44-.84-2.28-2.6-2.28h-2.25c-.44,0-.64-.23-.64-.55,0-.15.04-.26.11-.37.4.15.86.2,1.35.2,1.85,0,3.24-1.02,3.24-2.67v-.22h0ZM1267.53,118.59c0-.47.29-.76.92-.76h1.89c.53,0,.88.22.88.71,0,.65-.79.94-2.03.94-1.08,0-1.65-.33-1.65-.89h0ZM1268.3,112.25c0-.71.31-1.19.97-1.19s.99.48.99,1.19v.18c0,.71-.31,1.19-.99,1.19s-.97-.48-.97-1.19v-.18h0ZM1279.16,114.25c0,1.04-.31,1.81-1.21,1.81-.84,0-1.06-.6-1.06-1.52v-4.81h-2.32v5.56c0,1.57.73,2.71,2.45,2.71,1.06,0,1.81-.51,2.14-1.15v.99h2.34v-8.1h-2.34v4.52h0ZM1286.78,118c2.01,0,3.13-1.17,3.27-3.09h-2.08c-.02.82-.4,1.26-1.17,1.26-.9,0-1.36-.64-1.36-1.91h4.67v-.64c0-2.49-1.1-4.06-3.42-4.06-2.14,0-3.49,1.57-3.49,4.06v.31c0,2.49,1.35,4.06,3.59,4.06h0ZM1285.44,112.97c0-1.03.46-1.58,1.25-1.58s1.23.55,1.23,1.58h-2.47ZM1291.31,115.16c.07,1.81,1.37,2.83,3.35,2.83s3.13-.95,3.13-2.54c0-1.35-.79-2.03-2.27-2.43l-1.15-.31c-.51-.16-.81-.33-.81-.79s.37-.71.92-.71c.82,0,1.19.51,1.19,1.24h1.97c-.02-1.67-1.06-2.89-3.18-2.89-1.81,0-3,1.06-3,2.56s.8,2.12,2.16,2.47l1.25.31c.55.15.81.31.81.73,0,.48-.4.71-1.01.71-.77,0-1.3-.38-1.36-1.19h-1.99ZM1302.63,118c2.01,0,3.13-1.17,3.27-3.09h-2.08c-.02.82-.4,1.26-1.17,1.26-.9,0-1.36-.64-1.36-1.91h4.67v-.64c0-2.49-1.1-4.06-3.42-4.06-2.14,0-3.49,1.57-3.49,4.06v.31c0,2.49,1.35,4.06,3.59,4.06h0ZM1301.29,112.97c0-1.03.46-1.58,1.25-1.58s1.23.55,1.23,1.58h-2.47ZM1314.16,117.83v-4.59h3.37v-1.99h-3.37v-2.91h4.26v-2.03h-6.71v11.53h2.45ZM1319.96,109.73v8.1h2.34v-8.1h-2.34ZM1319.96,108.74h2.34v-2.25h-2.34v2.25h0ZM1324.28,106.31v11.53h2.34v-11.53h-2.34ZM1335.46,113.24c0-.88.24-1.76,1.15-1.76.82,0,1.01.6,1.01,1.5v4.85h2.34v-5.62c0-1.48-.66-2.65-2.47-2.65-1.12,0-1.85.53-2.29,1.17-.35-.62-1.01-1.17-2.16-1.17-.97,0-1.76.48-2.11,1.15v-.99h-2.34v8.1h2.34v-4.59c0-.88.26-1.76,1.17-1.76.82,0,1.01.6,1.01,1.5v4.85h2.34v-4.59h0Z"/>
    <path d="M1216.38,88.93c-.35-.15-.82-.26-1.46-.26-1.85,0-2.71,1.02-2.71,2.74v.88h-.97v1.64h.97v6.46h2.32v-6.46h1.41v-1.64h-1.41v-.9c0-.6.24-.92.79-.92.33,0,.57.07.86.18l.2-1.74h0ZM1220.51,98.76c-.88,0-1.26-.73-1.26-1.9v-1.01c0-1.17.38-1.9,1.26-1.9s1.26.73,1.26,1.9v1.01c0,1.17-.38,1.9-1.26,1.9h0ZM1220.51,100.57c2.23,0,3.59-1.57,3.59-4.06v-.31c0-2.49-1.35-4.06-3.59-4.06s-3.59,1.57-3.59,4.06v.31c0,2.49,1.35,4.06,3.59,4.06h0ZM1230.77,92.33c-.2-.11-.46-.14-.77-.14-.9,0-1.59.4-1.9,1.39v-1.28h-2.34v8.1h2.34v-4.14c0-1.35.57-1.94,1.65-1.94.33,0,.59.04.91.13l.11-2.12h0ZM1243.95,97.22c0-1.63-.97-2.53-2.32-2.76,1.22-.22,2.01-1.1,2.01-2.47,0-1.87-1.01-3.11-3.66-3.11h-3.77v11.53h3.79c2.71,0,3.95-1.17,3.95-3.18h0ZM1239.87,95.48c1.3,0,1.7.57,1.7,1.48s-.4,1.47-1.68,1.47h-1.34v-2.95h1.32ZM1238.55,90.83h1.12c1.26,0,1.59.6,1.59,1.43,0,.77-.33,1.36-1.59,1.36h-1.12v-2.78h0ZM1248.88,100.57c2.01,0,3.13-1.17,3.27-3.09h-2.08c-.02.82-.4,1.26-1.17,1.26-.9,0-1.36-.64-1.36-1.91h4.67v-.64c0-2.49-1.1-4.06-3.42-4.06-2.14,0-3.49,1.57-3.49,4.06v.31c0,2.49,1.35,4.06,3.59,4.06h0ZM1247.54,95.54c0-1.03.46-1.58,1.25-1.58s1.23.55,1.23,1.58h-2.47ZM1253.41,97.73c.07,1.81,1.37,2.83,3.35,2.83s3.13-.95,3.13-2.54c0-1.35-.79-2.03-2.27-2.43l-1.15-.31c-.51-.16-.81-.33-.81-.79s.37-.71.92-.71c.82,0,1.19.51,1.19,1.25h1.97c-.02-1.67-1.06-2.89-3.18-2.89-1.81,0-3,1.06-3,2.56s.8,2.12,2.16,2.47l1.25.31c.55.15.81.31.81.73,0,.48-.4.71-1.01.71-.77,0-1.3-.38-1.35-1.19h-1.99ZM1261.8,98.3c0,1.63.99,2.23,2.18,2.23.77,0,1.39-.18,2.01-.6v-1.63c-.49.24-.81.35-1.17.35-.48,0-.71-.26-.71-.81v-3.9h1.68v-1.64h-1.68v-2.21h-1.41l-.26,1.08c-.18.75-.44,1.13-1.21,1.3l-.35.07v1.41h.91v4.36h0ZM1275.37,100.61c1.25,0,2.12-.49,2.45-1.37l.2,1.17h1.81v-5.82h-3.82v1.79h1.48v.15c0,1.32-.6,2.05-1.67,2.05-1.32,0-2.01-1.01-2.01-3.06v-1.76c0-2.05.64-3.04,1.87-3.04s1.78.93,1.78,2.67v.13h2.34v-.13c0-2.84-1.28-4.72-4.13-4.72s-4.37,2.16-4.37,5.58v.82c0,3.4,1.44,5.52,4.08,5.52h0ZM1286.89,92.33c-.2-.11-.46-.14-.77-.14-.9,0-1.59.4-1.9,1.39v-1.28h-2.34v8.1h2.34v-4.14c0-1.35.57-1.94,1.65-1.94.33,0,.59.04.91.13l.11-2.12h0ZM1291.47,100.57c2.01,0,3.13-1.17,3.27-3.09h-2.08c-.02.82-.4,1.26-1.17,1.26-.9,0-1.36-.64-1.36-1.91h4.67v-.64c0-2.49-1.1-4.06-3.42-4.06-2.14,0-3.49,1.57-3.49,4.06v.31c0,2.49,1.35,4.06,3.59,4.06h0ZM1290.14,95.54c0-1.03.46-1.58,1.25-1.58s1.23.55,1.23,1.58h-2.47ZM1299.72,100.57c2.01,0,3.13-1.17,3.27-3.09h-2.08c-.02.82-.4,1.26-1.17,1.26-.9,0-1.35-.64-1.35-1.91h4.67v-.64c0-2.49-1.1-4.06-3.42-4.06-2.14,0-3.49,1.57-3.49,4.06v.31c0,2.49,1.35,4.06,3.59,4.06h0ZM1298.38,95.54c0-1.03.46-1.58,1.24-1.58s1.23.55,1.23,1.58h-2.47ZM1307.06,95.85c0-1.01.35-1.79,1.26-1.79.84,0,1.06.6,1.06,1.54v4.81h2.34v-5.56c0-1.59-.77-2.71-2.49-2.71-1.06,0-1.83.51-2.18,1.15v-.99h-2.34v8.1h2.34v-4.56h0ZM1321.74,93.62l-2.12-4.74h-2.56l3.4,7.39v4.13h2.38v-4.13l3.4-7.39h-2.47l-2.03,4.74h0ZM1329.73,100.57c2.01,0,3.13-1.17,3.27-3.09h-2.08c-.02.82-.4,1.26-1.17,1.26-.9,0-1.36-.64-1.36-1.91h4.67v-.64c0-2.49-1.1-4.06-3.42-4.06-2.14,0-3.49,1.57-3.49,4.06v.31c0,2.49,1.35,4.06,3.58,4.06h0ZM1328.39,95.54c0-1.03.46-1.58,1.25-1.58s1.23.55,1.23,1.58h-2.47ZM1338.63,97.31c0,.93-.51,1.54-1.34,1.54-.49,0-.79-.24-.79-.71,0-.51.33-.75.82-.95l1.3-.59v.71h0ZM1340.88,95.15c0-1.99-.99-3.02-3.13-3.02s-3.18,1.22-3.18,2.91v.24h2.08v-.24c0-.7.33-1.12,1.01-1.12.71,0,.97.44.97,1.12v.18l-2.33.86c-.93.37-2.03.88-2.03,2.34,0,1.24.82,2.08,2.25,2.08,1.06,0,1.87-.53,2.2-1.24.18.88.88,1.24,1.68,1.24.53,0,.91-.15,1.26-.37v-1.41c-.18.05-.29.07-.44.07-.24,0-.35-.13-.35-.38v-3.28h0ZM1348.09,92.33c-.2-.11-.46-.14-.77-.14-.9,0-1.59.4-1.9,1.39v-1.28h-2.34v8.1h2.34v-4.14c0-1.35.57-1.94,1.65-1.94.33,0,.59.04.91.13l.11-2.12h0ZM1349.04,97.73c.07,1.81,1.37,2.83,3.35,2.83s3.13-.95,3.13-2.54c0-1.35-.79-2.03-2.27-2.43l-1.15-.31c-.51-.16-.81-.33-.81-.79s.37-.71.92-.71c.82,0,1.19.51,1.19,1.25h1.97c-.02-1.67-1.06-2.89-3.18-2.89-1.81,0-3,1.06-3,2.56s.81,2.12,2.16,2.47l1.25.31c.55.15.81.31.81.73,0,.48-.4.71-1.01.71-.77,0-1.3-.38-1.36-1.19h-1.99Z"/>
    <path d="M1217.44,77.09v-3.66h1.1c1.21,0,1.83.49,1.83,1.83s-.62,1.83-1.83,1.83h-1.1ZM1217.44,79.04h1.3c2.73,0,4.01-1.35,4.01-3.8s-1.28-3.79-4.01-3.79h-3.75v11.53h2.45v-3.93h0ZM1227.42,83.14c2.01,0,3.13-1.17,3.27-3.09h-2.08c-.02.82-.4,1.26-1.17,1.26-.9,0-1.36-.64-1.36-1.91h4.67v-.64c0-2.49-1.1-4.06-3.42-4.06-2.14,0-3.49,1.57-3.49,4.06v.31c0,2.49,1.35,4.06,3.59,4.06h0ZM1226.08,78.11c0-1.03.46-1.58,1.25-1.58s1.23.55,1.23,1.58h-2.47ZM1234.42,78.55c0-1.3.46-2,1.34-2s1.32.7,1.32,1.7v1.34c0,1.01-.48,1.68-1.32,1.68s-1.34-.68-1.34-1.98v-.75h0ZM1237.08,82.98h2.34v-11.53h-2.34v4.43c-.4-.68-1.08-1.17-2.14-1.17-1.85,0-2.83,1.43-2.83,3.93v.57c0,2.51.99,3.93,2.83,3.93,1.06,0,1.74-.49,2.14-1.17v1.01h0ZM1246.42,74.91c-.2-.11-.46-.14-.77-.14-.9,0-1.59.4-1.9,1.39v-1.28h-2.34v8.1h2.34v-4.14c0-1.35.57-1.94,1.65-1.94.33,0,.59.04.91.13l.11-2.12h0ZM1251.01,81.33c-.88,0-1.26-.73-1.26-1.9v-1.01c0-1.17.38-1.9,1.26-1.9s1.26.73,1.26,1.9v1.01c0,1.17-.38,1.9-1.26,1.9h0ZM1251.01,83.14c2.23,0,3.59-1.57,3.59-4.06v-.31c0-2.49-1.35-4.06-3.59-4.06s-3.59,1.57-3.59,4.06v.31c0,2.49,1.35,4.06,3.59,4.06h0ZM1262.8,82.98v-4.59h3.37v-1.99h-3.37v-2.91h4.26v-2.03h-6.71v11.53h2.45ZM1271.56,81.33c-.88,0-1.26-.73-1.26-1.9v-1.01c0-1.17.38-1.9,1.26-1.9s1.26.73,1.26,1.9v1.01c0,1.17-.38,1.9-1.26,1.9h0ZM1271.56,83.14c2.23,0,3.59-1.57,3.59-4.06v-.31c0-2.49-1.35-4.06-3.59-4.06s-3.59,1.57-3.59,4.06v.31c0,2.49,1.35,4.06,3.59,4.06h0ZM1281.81,74.91c-.2-.11-.46-.14-.77-.14-.9,0-1.59.4-1.9,1.39v-1.28h-2.34v8.1h2.34v-4.14c0-1.35.57-1.94,1.65-1.94.33,0,.59.04.91.13l.11-2.12h0ZM1283.69,80.87c0,1.63.99,2.23,2.18,2.23.77,0,1.39-.18,2.01-.6v-1.63c-.49.24-.81.35-1.17.35-.48,0-.71-.26-.71-.81v-3.9h1.68v-1.64h-1.68v-2.21h-1.41l-.26,1.08c-.18.75-.44,1.13-1.21,1.3l-.35.07v1.41h.91v4.36h0ZM1292.58,83.14c2.01,0,3.13-1.17,3.27-3.09h-2.08c-.02.82-.4,1.26-1.17,1.26-.9,0-1.36-.64-1.36-1.91h4.67v-.64c0-2.49-1.1-4.06-3.42-4.06-2.14,0-3.49,1.57-3.49,4.06v.31c0,2.49,1.35,4.06,3.59,4.06h0ZM1291.25,78.11c0-1.03.46-1.58,1.25-1.58s1.23.55,1.23,1.58h-2.47ZM1297.12,80.31c.07,1.81,1.37,2.83,3.35,2.83s3.13-.95,3.13-2.54c0-1.35-.79-2.03-2.27-2.43l-1.15-.31c-.51-.16-.81-.33-.81-.79s.37-.71.92-.71c.82,0,1.19.51,1.19,1.24h1.97c-.02-1.67-1.06-2.89-3.18-2.89-1.81,0-3,1.06-3,2.56s.81,2.12,2.16,2.47l1.25.31c.55.15.81.31.81.73,0,.48-.4.71-1.01.71-.77,0-1.3-.38-1.36-1.19h-1.99ZM1311.91,71.45l-3.31,11.53h2.29l.73-2.65h3.37l.71,2.65h2.49l-3.31-11.53h-2.96ZM1313.28,74.27h.07l1.1,4.12h-2.3l1.13-4.12h0ZM1324.87,74.87h-1.81l-1.08,4.78h-.07l-1.12-4.78h-2.27l2.09,8.1h2.1l1.12-5.03h.07l1.12,5.03h2.1l2.09-8.1h-2.05l-1.12,4.78h-.07l-1.1-4.78h0ZM1334.29,79.89c0,.93-.51,1.54-1.34,1.54-.49,0-.79-.24-.79-.71,0-.51.33-.75.82-.95l1.3-.59v.71h0ZM1336.54,77.73c0-1.99-.99-3.02-3.13-3.02s-3.18,1.22-3.18,2.91v.24h2.08v-.24c0-.7.33-1.12,1.01-1.12.71,0,.97.44.97,1.12v.18l-2.33.86c-.93.37-2.03.88-2.03,2.34,0,1.24.82,2.08,2.25,2.08,1.06,0,1.87-.53,2.2-1.24.18.88.88,1.24,1.68,1.24.53,0,.91-.15,1.26-.37v-1.41c-.18.05-.29.07-.44.07-.24,0-.35-.13-.35-.38v-3.28h0ZM1343.75,74.91c-.2-.11-.46-.14-.77-.14-.9,0-1.59.4-1.9,1.39v-1.28h-2.34v8.1h2.34v-4.14c0-1.35.57-1.94,1.65-1.94.33,0,.59.04.91.13l.11-2.12h0ZM1347.11,78.55c0-1.3.46-2,1.34-2s1.32.7,1.32,1.7v1.34c0,1.01-.48,1.68-1.32,1.68s-1.34-.68-1.34-1.98v-.75h0ZM1349.77,82.98h2.34v-11.53h-2.34v4.43c-.4-.68-1.08-1.17-2.14-1.17-1.85,0-2.83,1.43-2.83,3.93v.57c0,2.51.99,3.93,2.83,3.93,1.06,0,1.74-.49,2.14-1.17v1.01h0Z"/>
    <line class="cls-1" x1="1261.4" y1="126.11" x2="1305.62" y2="126.11"/>
  </g>
</svg>