<?xml version="1.0" encoding="UTF-8"?>
<svg id="Camada_1" data-name="Camada 1" xmlns="http://www.w3.org/2000/svg" xmlns:xlink="http://www.w3.org/1999/xlink" viewBox="0 0 1442.22 951.19">
  <defs>
    <style>
      .cls-1 {
        fill: none;
      }

      .cls-2 {
        clip-path: url(#clippath);
      }
    </style>
    <clipPath id="clippath">
      <rect class="cls-1" width="465.31" height="309.19"/>
    </clipPath>
  </defs>
  <g>
    <path d="M15.81,836.94l-4.06-12.43-4.09,12.43h-1.5l-4.73-14.54h1.68l3.85,12.34,4.09-12.34h1.35l4.09,12.34,3.85-12.34h1.68l-4.72,14.54h-1.5,0Z"/>
    <path d="M24.57,818.74c0-.66.57-1.2,1.2-1.2s1.2.54,1.2,1.2-.54,1.2-1.2,1.2-1.2-.54-1.2-1.2ZM24.99,836.94v-14.54h1.57v14.54h-1.57Z"/>
    <path d="M31.73,834.15v-10.35h-2.41v-1.39h2.41v-3.97h1.59v3.97h2.95v1.39h-2.95v10.11c0,1.17.48,1.99,1.5,1.99.69,0,1.29-.33,1.62-.69l.6,1.2c-.57.54-1.26.9-2.47.9-1.93,0-2.86-1.17-2.86-3.16h.02Z"/>
    <path d="M49.51,836.94v-9.9c0-2.8-1.41-3.58-3.52-3.58-1.87,0-3.79,1.17-4.72,2.5v10.98h-1.57v-20.07h1.57v7.73c1.05-1.26,3.13-2.56,5.23-2.56,2.95,0,4.57,1.38,4.57,4.66v10.23h-1.57,0Z"/>
    <path d="M62.3,826.92c0-6.2,4.66-10.38,10.71-10.38,4.39,0,6.95,2.38,8.37,4.91l-3.67,1.8c-.84-1.62-2.65-2.92-4.69-2.92-3.67,0-6.32,2.8-6.32,6.59s2.65,6.59,6.32,6.59c2.05,0,3.85-1.3,4.69-2.92l3.67,1.78c-1.41,2.5-3.97,4.94-8.37,4.94-6.05,0-10.71-4.21-10.71-10.38h0Z"/>
    <path d="M97.81,836.94l-1.26-3.4h-8.6l-1.27,3.4h-4.84l7.73-20.07h5.36l7.73,20.07h-4.85ZM92.25,821.15l-3.13,8.64h6.26l-3.13-8.64Z"/>
    <path d="M109.16,836.94v-16.31h-5.87v-3.76h16.01v3.76h-5.84v16.31h-4.3Z"/>
    <path d="M135.91,836.94l-1.26-3.4h-8.6l-1.27,3.4h-4.84l7.73-20.07h5.36l7.73,20.07h-4.85ZM130.34,821.15l-3.13,8.64h6.26l-3.13-8.64Z"/>
    <path d="M153.96,836.94l-3.94-7.13h-3.13v7.13h-4.27v-20.07h9.39c4.18,0,6.77,2.74,6.77,6.47,0,3.52-2.26,5.45-4.42,5.96l4.54,7.64h-4.94ZM154.38,823.31c0-1.66-1.29-2.68-2.98-2.68h-4.51v5.42h4.51c1.68,0,2.98-1.02,2.98-2.74Z"/>
    <path d="M161.97,836.94v-20.07h4.27v20.07h-4.27Z"/>
    <path d="M184.05,836.94l-9.57-13.09v13.09h-4.27v-20.07h4.39l9.3,12.61v-12.61h4.27v20.07h-4.12Z"/>
    <path d="M206.02,836.94l-1.26-3.4h-8.6l-1.27,3.4h-4.84l7.73-20.07h5.36l7.73,20.07h-4.85ZM200.46,821.15l-3.13,8.64h6.26l-3.13-8.64Z"/>
    <path d="M237.92,836.94v-14.47l-5.66,14.47h-1.87l-5.66-14.47v14.47h-4.27v-20.07h5.99l4.87,12.55,4.88-12.55h6.02v20.07h-4.3Z"/>
    <path d="M245.23,826.92c0-6.05,4.42-10.38,10.5-10.38s10.47,4.33,10.47,10.38-4.42,10.38-10.47,10.38-10.5-4.33-10.5-10.38ZM261.81,826.92c0-3.76-2.38-6.59-6.08-6.59s-6.11,2.83-6.11,6.59,2.38,6.59,6.11,6.59,6.08-2.86,6.08-6.59Z"/>
    <path d="M283.06,836.94l-9.57-13.09v13.09h-4.27v-20.07h4.39l9.3,12.61v-12.61h4.27v20.07h-4.12Z"/>
    <path d="M295.79,836.94v-16.31h-5.87v-3.76h16.01v3.76h-5.84v16.31h-4.3Z"/>
    <path d="M308.67,836.94v-20.07h14.2v3.76h-9.93v4.21h9.72v3.76h-9.72v4.57h9.93v3.76h-14.2Z"/>
    <path d="M326.21,836.94v-20.07h4.27v20.07h-4.27Z"/>
    <path d="M345.8,836.94l-3.94-7.13h-3.13v7.13h-4.27v-20.07h9.39c4.18,0,6.77,2.74,6.77,6.47,0,3.52-2.26,5.45-4.42,5.96l4.54,7.64h-4.94ZM346.22,823.31c0-1.66-1.29-2.68-2.98-2.68h-4.51v5.42h4.51c1.68,0,2.98-1.02,2.98-2.74Z"/>
    <path d="M352.84,826.92c0-6.05,4.42-10.38,10.5-10.38s10.47,4.33,10.47,10.38-4.42,10.38-10.47,10.38-10.5-4.33-10.5-10.38ZM369.42,826.92c0-3.76-2.38-6.59-6.08-6.59s-6.11,2.83-6.11,6.59,2.38,6.59,6.11,6.59,6.08-2.86,6.08-6.59Z"/>
    <path d="M394.25,836.94v-1.72c-1.29,1.41-2.92,2.08-4.94,2.08-2.5,0-5.08-1.71-5.08-4.85s2.56-4.81,5.08-4.81c2.02,0,3.67.66,4.94,2.08v-2.95c0-2.17-1.74-3.34-3.91-3.34-1.81,0-3.22.63-4.55,2.14l-.87-1.08c1.5-1.62,3.19-2.44,5.6-2.44,2.95,0,5.3,1.41,5.3,4.66v10.23h-1.57ZM394.25,830.9c-1.02-1.32-2.65-2.02-4.39-2.02-2.41,0-3.97,1.54-3.97,3.61s1.56,3.58,3.97,3.58c1.75,0,3.37-.66,4.39-1.98v-3.19Z"/>
    <path d="M410.5,836.94v-9.84c0-2.8-1.41-3.64-3.52-3.64-1.87,0-3.79,1.17-4.72,2.5v10.98h-1.57v-14.54h1.57v2.2c1.05-1.26,3.13-2.56,5.23-2.56,2.95,0,4.57,1.44,4.57,4.72v10.17h-1.57.01Z"/>
    <path d="M427.65,836.94v-2.32c-1.02,1.5-2.89,2.68-5.05,2.68-3.85,0-6.5-2.95-6.5-7.61s2.65-7.64,6.5-7.64c2.07,0,3.88,1.05,5.05,2.71v-7.88h1.59v20.07h-1.59ZM427.65,826.11c-.84-1.41-2.74-2.65-4.78-2.65-3.22,0-5.09,2.71-5.09,6.23s1.87,6.2,5.09,6.2c2.05,0,3.94-1.2,4.78-2.59v-7.19h0Z"/>
    <path d="M440.53,826.92c0-6.2,4.66-10.38,10.71-10.38,4.39,0,6.95,2.38,8.37,4.91l-3.67,1.8c-.84-1.62-2.65-2.92-4.69-2.92-3.67,0-6.32,2.8-6.32,6.59s2.65,6.59,6.32,6.59c2.05,0,3.85-1.3,4.69-2.92l3.67,1.78c-1.41,2.5-3.97,4.94-8.37,4.94-6.05,0-10.71-4.21-10.71-10.38h0Z"/>
    <path d="M476.04,836.94l-1.26-3.4h-8.6l-1.27,3.4h-4.84l7.73-20.07h5.36l7.73,20.07h-4.85,0ZM470.47,821.15l-3.13,8.64h6.26l-3.13-8.64Z"/>
    <path d="M487.38,836.94v-16.31h-5.87v-3.76h16.01v3.76h-5.84v16.31h-4.3Z"/>
    <path d="M514.14,836.94l-1.26-3.4h-8.6l-1.27,3.4h-4.84l7.73-20.07h5.36l7.73,20.07h-4.85,0ZM508.57,821.15l-3.13,8.64h6.26l-3.13-8.64Z"/>
    <path d="M532.19,836.94l-3.94-7.13h-3.13v7.13h-4.27v-20.07h9.39c4.18,0,6.77,2.74,6.77,6.47,0,3.52-2.26,5.45-4.42,5.96l4.54,7.64h-4.94ZM532.61,823.31c0-1.66-1.29-2.68-2.98-2.68h-4.51v5.42h4.51c1.68,0,2.98-1.02,2.98-2.74Z"/>
    <path d="M540.2,836.94v-20.07h4.27v20.07h-4.27Z"/>
    <path d="M562.28,836.94l-9.57-13.09v13.09h-4.27v-20.07h4.39l9.3,12.61v-12.61h4.27v20.07h-4.12Z"/>
    <path d="M584.25,836.94l-1.26-3.4h-8.6l-1.27,3.4h-4.84l7.73-20.07h5.36l7.73,20.07h-4.85,0ZM578.68,821.15l-3.13,8.64h6.26l-3.13-8.64Z"/>
    <path d="M597.73,826.92c0-6.2,4.66-10.38,10.71-10.38,4.39,0,6.95,2.38,8.37,4.91l-3.67,1.8c-.84-1.62-2.65-2.92-4.69-2.92-3.67,0-6.32,2.8-6.32,6.59s2.65,6.59,6.32,6.59c2.05,0,3.85-1.3,4.69-2.92l3.67,1.78c-1.41,2.5-3.97,4.94-8.37,4.94-6.05,0-10.71-4.21-10.71-10.38h0Z"/>
    <path d="M619.37,828.91v-12.04h4.33v11.92c0,2.8,1.63,4.73,4.73,4.73s4.69-1.93,4.69-4.73v-11.92h4.36v12.04c0,4.96-2.95,8.4-9.06,8.4s-9.06-3.43-9.06-8.4h.01Z"/>
    <path d="M655.3,836.94l-9.57-13.09v13.09h-4.27v-20.07h4.39l9.3,12.61v-12.61h4.27v20.07h-4.12Z"/>
    <path d="M677.14,836.94v-8.46h-9.48v8.46h-4.27v-20.07h4.27v7.88h9.48v-7.88h4.3v20.07h-4.3Z"/>
    <path d="M699.26,836.94l-1.26-3.4h-8.6l-1.27,3.4h-4.84l7.73-20.07h5.36l7.73,20.07h-4.85,0ZM693.69,821.15l-3.13,8.64h6.26l-3.13-8.64Z"/>
    <path d="M713.71,836.94v-20.07h14.2v3.76h-9.93v4.21h9.72v3.76h-9.72v8.34h-4.27Z"/>
    <path d="M730.89,836.94v-20.07h14.2v3.76h-9.93v4.21h9.72v3.76h-9.72v4.57h9.93v3.76h-14.2Z"/>
    <path d="M759.78,836.94l-3.94-7.13h-3.13v7.13h-4.27v-20.07h9.39c4.18,0,6.77,2.74,6.77,6.47,0,3.52-2.26,5.45-4.42,5.96l4.54,7.64h-4.94ZM760.2,823.31c0-1.66-1.29-2.68-2.98-2.68h-4.51v5.42h4.51c1.68,0,2.98-1.02,2.98-2.74Z"/>
    <path d="M779.13,836.94l-3.94-7.13h-3.13v7.13h-4.27v-20.07h9.39c4.18,0,6.77,2.74,6.77,6.47,0,3.52-2.26,5.45-4.42,5.96l4.54,7.64h-4.94ZM779.55,823.31c0-1.66-1.29-2.68-2.98-2.68h-4.51v5.42h4.51c1.68,0,2.98-1.02,2.98-2.74Z"/>
    <path d="M787.13,836.94v-20.07h14.2v3.76h-9.93v4.21h9.72v3.76h-9.72v4.57h9.93v3.76h-14.2Z"/>
    <path d="M804.68,836.94v-20.07h4.27v20.07h-4.27Z"/>
    <path d="M824.27,836.94l-3.94-7.13h-3.13v7.13h-4.27v-20.07h9.39c4.18,0,6.77,2.74,6.77,6.47,0,3.52-2.26,5.45-4.42,5.96l4.54,7.64h-4.94ZM824.69,823.31c0-1.66-1.29-2.68-2.98-2.68h-4.51v5.42h4.51c1.68,0,2.98-1.02,2.98-2.74Z"/>
    <path d="M846.14,836.94l-1.26-3.4h-8.6l-1.27,3.4h-4.84l7.73-20.07h5.36l7.73,20.07h-4.85ZM840.58,821.15l-3.13,8.64h6.26l-3.13-8.64Z"/>
    <path d="M864.02,830.23c-1.99,0-3.58-1.59-3.58-3.55s1.59-3.58,3.58-3.58,3.58,1.59,3.58,3.58-1.59,3.55-3.58,3.55Z"/>
    <path d="M890.26,836.94v-2.32c-1.02,1.5-2.89,2.68-5.05,2.68-3.85,0-6.5-2.95-6.5-7.61s2.65-7.64,6.5-7.64c2.07,0,3.88,1.05,5.05,2.71v-7.88h1.59v20.07h-1.59ZM890.26,826.11c-.84-1.41-2.74-2.65-4.78-2.65-3.22,0-5.09,2.71-5.09,6.23s1.87,6.2,5.09,6.2c2.05,0,3.94-1.2,4.78-2.59v-7.19h0Z"/>
    <path d="M896.31,818.74c0-.66.57-1.2,1.2-1.2s1.2.54,1.2,1.2-.54,1.2-1.2,1.2-1.2-.54-1.2-1.2ZM896.73,836.94v-14.54h1.57v14.54h-1.57Z"/>
    <path d="M903.17,836.94v-14.54h1.57v2.5c1.23-1.62,2.89-2.8,4.9-2.8v1.71c-.27-.06-.48-.06-.78-.06-1.48,0-3.46,1.32-4.12,2.59v10.59h-1.57Z"/>
    <path d="M918.88,822.05c4.42,0,6.86,3.52,6.86,7.7v.42h-12.16c.15,3.16,2.26,5.78,5.69,5.78,1.84,0,3.52-.69,4.75-2.02l.81,1.02c-1.44,1.5-3.28,2.35-5.69,2.35-4.24,0-7.28-3.16-7.28-7.64,0-4.21,2.98-7.61,7.01-7.61h.01ZM913.58,828.94h10.56c-.03-2.47-1.66-5.54-5.3-5.54-3.43,0-5.14,3.01-5.26,5.54Z"/>
    <path d="M936,822.05c2.53,0,3.97.99,5.14,2.47l-1.08.96c-1.05-1.44-2.38-2.02-3.97-2.02-3.4,0-5.48,2.71-5.48,6.2s2.08,6.23,5.48,6.23c1.59,0,2.92-.6,3.97-2.05l1.08.96c-1.17,1.5-2.62,2.5-5.14,2.5-4.27,0-7.07-3.4-7.07-7.64s2.8-7.61,7.07-7.61Z"/>
    <path d="M944.94,834.15v-10.35h-2.41v-1.39h2.41v-3.97h1.59v3.97h2.95v1.39h-2.95v10.11c0,1.17.48,1.99,1.5,1.99.69,0,1.29-.33,1.62-.69l.6,1.2c-.57.54-1.26.9-2.47.9-1.93,0-2.86-1.17-2.86-3.16h.02Z"/>
    <path d="M952.49,818.74c0-.66.57-1.2,1.2-1.2s1.2.54,1.2,1.2-.54,1.2-1.2,1.2-1.2-.54-1.2-1.2ZM952.91,836.94v-14.54h1.57v14.54h-1.57Z"/>
    <path d="M969.16,836.94v-9.84c0-2.8-1.41-3.64-3.52-3.64-1.87,0-3.79,1.17-4.72,2.5v10.98h-1.57v-14.54h1.57v2.2c1.05-1.26,3.13-2.56,5.23-2.56,2.95,0,4.57,1.44,4.57,4.72v10.17h-1.57.01Z"/>
    <path d="M976.53,839.44c1.26,1.5,2.65,2.05,4.82,2.05,2.65,0,4.96-1.32,4.96-4.66v-2.29c-1.02,1.48-2.89,2.71-5.05,2.71-3.85,0-6.5-2.92-6.5-7.58s2.65-7.61,6.5-7.61c2.07,0,3.88,1.05,5.05,2.71v-2.35h1.59v14.38c0,4.45-3.01,6.05-6.56,6.05-2.44,0-4-.45-5.72-2.2l.9-1.2h.01ZM986.31,826.11c-.84-1.41-2.77-2.65-4.78-2.65-3.22,0-5.09,2.68-5.09,6.2s1.87,6.17,5.09,6.17c2.02,0,3.94-1.23,4.78-2.65v-7.07h0Z"/>
    <path d="M1009.78,836.94v-1.72c-1.29,1.41-2.92,2.08-4.94,2.08-2.5,0-5.08-1.71-5.08-4.85s2.56-4.81,5.08-4.81c2.02,0,3.67.66,4.94,2.08v-2.95c0-2.17-1.74-3.34-3.91-3.34-1.81,0-3.22.63-4.55,2.14l-.87-1.08c1.5-1.62,3.19-2.44,5.6-2.44,2.95,0,5.3,1.41,5.3,4.66v10.23h-1.57ZM1009.78,830.9c-1.02-1.32-2.65-2.02-4.39-2.02-2.41,0-3.97,1.54-3.97,3.61s1.56,3.58,3.97,3.58c1.75,0,3.37-.66,4.39-1.98v-3.19Z"/>
    <path d="M1026.03,836.94v-9.84c0-2.8-1.41-3.64-3.52-3.64-1.87,0-3.79,1.17-4.72,2.5v10.98h-1.57v-14.54h1.57v2.2c1.05-1.26,3.13-2.56,5.23-2.56,2.95,0,4.57,1.44,4.57,4.72v10.17h-1.57.01Z"/>
    <path d="M1043.19,836.94v-2.32c-1.02,1.5-2.89,2.68-5.05,2.68-3.85,0-6.5-2.95-6.5-7.61s2.65-7.64,6.5-7.64c2.07,0,3.88,1.05,5.05,2.71v-7.88h1.59v20.07h-1.59ZM1043.19,826.11c-.84-1.41-2.74-2.65-4.78-2.65-3.22,0-5.09,2.71-5.09,6.23s1.87,6.2,5.09,6.2c2.05,0,3.94-1.2,4.78-2.59v-7.19h0Z"/>
    <path d="M1059.02,842.48h-1.57v-20.07h1.57v2.29c1.02-1.47,2.89-2.65,5.05-2.65,3.88,0,6.5,2.95,6.5,7.61s-2.62,7.64-6.5,7.64c-2.05,0-3.88-1.05-5.05-2.71v7.88h0ZM1063.8,823.46c-2.02,0-3.94,1.2-4.78,2.59v7.19c.84,1.38,2.77,2.65,4.78,2.65,3.25,0,5.09-2.71,5.09-6.23s-1.84-6.2-5.09-6.2h0Z"/>
    <path d="M1074.6,836.94v-14.54h1.57v2.5c1.23-1.62,2.89-2.8,4.9-2.8v1.71c-.27-.06-.48-.06-.78-.06-1.48,0-3.46,1.32-4.12,2.59v10.59h-1.57Z"/>
    <path d="M1083.3,829.66c0-4.24,2.74-7.61,6.98-7.61s7.01,3.37,7.01,7.61-2.71,7.64-7.01,7.64-6.98-3.4-6.98-7.64ZM1095.61,829.66c0-3.22-1.9-6.2-5.33-6.2s-5.3,2.98-5.3,6.2,1.93,6.23,5.3,6.23,5.33-2.98,5.33-6.23Z"/>
    <path d="M1112.04,836.94v-2.32c-1.02,1.5-2.89,2.68-5.05,2.68-3.85,0-6.5-2.95-6.5-7.61s2.65-7.64,6.5-7.64c2.07,0,3.88,1.05,5.05,2.71v-7.88h1.59v20.07h-1.59ZM1112.04,826.11c-.84-1.41-2.74-2.65-4.78-2.65-3.22,0-5.09,2.71-5.09,6.23s1.87,6.2,5.09,6.2c2.05,0,3.94-1.2,4.78-2.59v-7.19h0Z"/>
    <path d="M1128.32,836.94v-2.14c-1.2,1.32-3.13,2.5-5.23,2.5-2.98,0-4.57-1.38-4.57-4.66v-10.23h1.57v9.87c0,2.83,1.41,3.61,3.52,3.61,1.87,0,3.76-1.11,4.72-2.41v-11.07h1.57v14.54h-1.58Z"/>
    <path d="M1140.99,822.05c2.53,0,3.97.99,5.15,2.47l-1.08.96c-1.05-1.44-2.38-2.02-3.97-2.02-3.4,0-5.48,2.71-5.48,6.2s2.08,6.23,5.48,6.23c1.59,0,2.92-.6,3.97-2.05l1.08.96c-1.17,1.5-2.62,2.5-5.15,2.5-4.27,0-7.07-3.4-7.07-7.64s2.8-7.61,7.07-7.61Z"/>
    <path d="M1149.93,834.15v-10.35h-2.41v-1.39h2.41v-3.97h1.59v3.97h2.95v1.39h-2.95v10.11c0,1.17.48,1.99,1.5,1.99.69,0,1.29-.33,1.62-.69l.6,1.2c-.57.54-1.26.9-2.47.9-1.93,0-2.86-1.17-2.86-3.16h.02Z"/>
    <path d="M1157.48,818.74c0-.66.57-1.2,1.2-1.2s1.2.54,1.2,1.2-.54,1.2-1.2,1.2-1.2-.54-1.2-1.2ZM1157.9,836.94v-14.54h1.57v14.54h-1.57Z"/>
    <path d="M1163.5,829.66c0-4.24,2.74-7.61,6.98-7.61s7.01,3.37,7.01,7.61-2.71,7.64-7.01,7.64-6.98-3.4-6.98-7.64ZM1175.81,829.66c0-3.22-1.9-6.2-5.33-6.2s-5.3,2.98-5.3,6.2,1.93,6.23,5.3,6.23,5.33-2.98,5.33-6.23Z"/>
    <path d="M1191.34,836.94v-9.84c0-2.8-1.41-3.64-3.52-3.64-1.87,0-3.79,1.17-4.72,2.5v10.98h-1.57v-14.54h1.57v2.2c1.05-1.26,3.13-2.56,5.23-2.56,2.95,0,4.57,1.44,4.57,4.72v10.17h-1.57.01Z"/>
    <path d="M1222.54,836.94v-14.47l-5.66,14.47h-1.87l-5.66-14.47v14.47h-4.27v-20.07h5.99l4.87,12.55,4.88-12.55h6.02v20.07h-4.3,0Z"/>
    <path d="M1244.69,836.94l-1.26-3.4h-8.6l-1.27,3.4h-4.84l7.73-20.07h5.36l7.73,20.07h-4.85ZM1239.13,821.15l-3.13,8.64h6.26l-3.13-8.64ZM1239.37,815.04h-2.68l4.03-4.33h3.52l-4.87,4.33Z"/>
    <path d="M1262.75,836.94l-3.94-7.13h-3.13v7.13h-4.27v-20.07h9.39c4.18,0,6.77,2.74,6.77,6.47,0,3.52-2.26,5.45-4.42,5.96l4.54,7.64h-4.94ZM1263.17,823.31c0-1.66-1.29-2.68-2.98-2.68h-4.51v5.42h4.51c1.68,0,2.98-1.02,2.98-2.74Z"/>
    <path d="M1270.75,836.94v-20.07h4.27v20.07h-4.27Z"/>
    <path d="M1278.03,826.92c0-6.05,4.42-10.38,10.5-10.38s10.47,4.33,10.47,10.38-4.42,10.38-10.47,10.38-10.5-4.33-10.5-10.38ZM1294.61,826.92c0-3.76-2.38-6.59-6.08-6.59s-6.11,2.83-6.11,6.59,2.38,6.59,6.11,6.59,6.08-2.86,6.08-6.59Z"/>
    <path d="M1315.38,836.94l-7.73-20.07h4.84l5.57,15.41,5.57-15.41h4.85l-7.73,20.07h-5.37Z"/>
    <path d="M1330.33,836.94v-20.07h14.2v3.76h-9.93v4.21h9.72v3.76h-9.72v4.57h9.93v3.76h-14.2Z"/>
    <path d="M1347.7,836.94v-20.07h4.3v16.31h8.49v3.76h-12.79Z"/>
    <path d="M1362.41,826.92c0-6.05,4.42-10.38,10.5-10.38s10.47,4.33,10.47,10.38-4.42,10.38-10.47,10.38-10.5-4.33-10.5-10.38ZM1378.99,826.92c0-3.76-2.38-6.59-6.08-6.59s-6.11,2.83-6.11,6.59,2.38,6.59,6.11,6.59,6.08-2.86,6.08-6.59Z"/>
    <path d="M1385.01,834.12l2.35-3.34c1.41,1.48,3.61,2.74,6.38,2.74,2.38,0,3.49-1.05,3.49-2.23,0-3.49-11.56-1.05-11.56-8.61,0-3.34,2.89-6.11,7.61-6.11,3.19,0,5.84.96,7.82,2.8l-2.38,3.19c-1.62-1.5-3.79-2.2-5.84-2.2-1.8,0-2.83.78-2.83,1.98,0,3.16,11.52,1.02,11.52,8.52,0,3.67-2.65,6.44-8.03,6.44-3.88,0-6.65-1.29-8.55-3.19h.02Z"/>
    <path d="M1403.49,826.92c0-6.05,4.42-10.38,10.5-10.38s10.47,4.33,10.47,10.38-4.42,10.38-10.47,10.38-10.5-4.33-10.5-10.38ZM1420.07,826.92c0-3.76-2.38-6.59-6.08-6.59s-6.11,2.83-6.11,6.59,2.38,6.59,6.11,6.59,6.08-2.86,6.08-6.59Z"/>
    <path d="M1438.64,830.23c-1.99,0-3.58-1.59-3.58-3.55s1.59-3.58,3.58-3.58,3.58,1.59,3.58,3.58-1.59,3.55-3.58,3.55Z"/>
    <path d="M9.58,858.16c2.53,0,3.97.99,5.14,2.47l-1.08.96c-1.05-1.44-2.38-2.02-3.97-2.02-3.4,0-5.48,2.71-5.48,6.2s2.08,6.23,5.48,6.23c1.59,0,2.92-.6,3.97-2.05l1.08.96c-1.17,1.5-2.62,2.5-5.14,2.5-4.27,0-7.07-3.4-7.07-7.64s2.8-7.61,7.07-7.61Z"/>
    <path d="M17.8,854.85c0-.66.57-1.2,1.2-1.2s1.2.54,1.2,1.2-.54,1.2-1.2,1.2-1.2-.54-1.2-1.2ZM18.22,873.06v-14.54h1.57v14.54h-1.57Z"/>
    <path d="M34.47,873.06v-9.84c0-2.8-1.41-3.64-3.52-3.64-1.87,0-3.79,1.17-4.72,2.5v10.98h-1.57v-14.54h1.57v2.2c1.05-1.26,3.13-2.56,5.23-2.56,2.95,0,4.57,1.44,4.57,4.72v10.17h-1.57,0Z"/>
    <path d="M47.08,858.16c4.42,0,6.86,3.52,6.86,7.7v.42h-12.16c.15,3.16,2.26,5.78,5.69,5.78,1.84,0,3.52-.69,4.75-2.02l.81,1.02c-1.44,1.5-3.28,2.35-5.69,2.35-4.24,0-7.28-3.16-7.28-7.64,0-4.21,2.98-7.61,7.01-7.61h.01ZM41.78,865.05h10.56c-.03-2.47-1.66-5.54-5.3-5.54-3.43,0-5.14,3.01-5.26,5.54Z"/>
    <path d="M75.27,873.06v-10.17c0-2.05-.87-3.31-2.92-3.31-1.57,0-3.34,1.14-4.15,2.47v11.01h-1.59v-10.17c0-2.05-.84-3.31-2.92-3.31-1.53,0-3.28,1.17-4.15,2.5v10.98h-1.57v-14.54h1.57v2.2c.6-.93,2.59-2.56,4.69-2.56,2.26,0,3.46,1.32,3.82,2.74.81-1.36,2.77-2.74,4.81-2.74,2.68,0,3.97,1.5,3.97,4.42v10.47h-1.56Z"/>
    <path d="M90.95,873.06v-1.72c-1.29,1.41-2.92,2.08-4.93,2.08-2.5,0-5.09-1.71-5.09-4.85s2.56-4.81,5.09-4.81c2.02,0,3.67.66,4.93,2.08v-2.95c0-2.17-1.74-3.34-3.91-3.34-1.81,0-3.22.63-4.55,2.14l-.87-1.08c1.5-1.62,3.19-2.44,5.6-2.44,2.95,0,5.3,1.41,5.3,4.66v10.23h-1.57ZM90.95,867.01c-1.02-1.32-2.65-2.02-4.39-2.02-2.41,0-3.97,1.54-3.97,3.61s1.56,3.58,3.97,3.58c1.75,0,3.37-.66,4.39-1.98v-3.19Z"/>
    <path d="M97.69,870.26v-10.35h-2.41v-1.39h2.41v-3.97h1.59v3.97h2.95v1.39h-2.95v10.11c0,1.17.48,1.99,1.5,1.99.69,0,1.29-.33,1.62-.69l.6,1.2c-.57.54-1.26.9-2.47.9-1.93,0-2.86-1.17-2.86-3.16h.02Z"/>
    <path d="M104.83,865.77c0-4.24,2.74-7.61,6.98-7.61s7.01,3.37,7.01,7.61-2.71,7.64-7.01,7.64-6.98-3.4-6.98-7.64ZM117.13,865.77c0-3.22-1.9-6.2-5.33-6.2s-5.3,2.98-5.3,6.2,1.93,6.23,5.3,6.23,5.33-2.98,5.33-6.23Z"/>
    <path d="M123.78,875.55c1.26,1.5,2.65,2.05,4.82,2.05,2.65,0,4.96-1.32,4.96-4.66v-2.29c-1.02,1.48-2.89,2.71-5.05,2.71-3.85,0-6.5-2.92-6.5-7.58s2.65-7.61,6.5-7.61c2.07,0,3.88,1.05,5.05,2.71v-2.35h1.59v14.38c0,4.45-3.01,6.05-6.56,6.05-2.44,0-4-.45-5.72-2.2l.9-1.2h.01ZM133.56,862.22c-.84-1.41-2.77-2.65-4.78-2.65-3.22,0-5.09,2.68-5.09,6.2s1.87,6.17,5.09,6.17c2.02,0,3.94-1.23,4.78-2.65v-7.07h0Z"/>
    <path d="M140,873.06v-14.54h1.57v2.5c1.23-1.62,2.89-2.8,4.9-2.8v1.71c-.27-.06-.48-.06-.78-.06-1.48,0-3.46,1.32-4.12,2.59v10.59h-1.57Z"/>
    <path d="M158.78,873.06v-1.72c-1.29,1.41-2.92,2.08-4.93,2.08-2.5,0-5.09-1.71-5.09-4.85s2.56-4.81,5.09-4.81c2.02,0,3.67.66,4.93,2.08v-2.95c0-2.17-1.74-3.34-3.91-3.34-1.81,0-3.22.63-4.55,2.14l-.87-1.08c1.5-1.62,3.19-2.44,5.6-2.44,2.95,0,5.3,1.41,5.3,4.66v10.23h-1.57ZM158.78,867.01c-1.02-1.32-2.65-2.02-4.39-2.02-2.41,0-3.97,1.54-3.97,3.61s1.56,3.58,3.97,3.58c1.75,0,3.37-.66,4.39-1.98v-3.19Z"/>
    <path d="M166.79,878.59h-1.57v-20.07h1.57v2.29c1.02-1.47,2.89-2.65,5.05-2.65,3.88,0,6.5,2.95,6.5,7.61s-2.62,7.64-6.5,7.64c-2.05,0-3.88-1.05-5.05-2.71v7.88h0ZM171.57,859.58c-2.02,0-3.94,1.2-4.78,2.59v7.19c.84,1.38,2.77,2.65,4.78,2.65,3.25,0,5.09-2.71,5.09-6.23s-1.84-6.2-5.09-6.2h0Z"/>
    <path d="M192.19,873.06v-9.9c0-2.8-1.41-3.58-3.52-3.58-1.87,0-3.79,1.17-4.72,2.5v10.98h-1.57v-20.07h1.57v7.73c1.05-1.26,3.13-2.56,5.23-2.56,2.95,0,4.57,1.38,4.57,4.66v10.23h-1.57,0Z"/>
    <path d="M197.93,877.3c.33.15.9.24,1.26.24.96,0,1.62-.39,2.2-1.78l1.14-2.59-6.14-14.65h1.74l5.3,12.7,5.23-12.7h1.78l-7.52,17.72c-.78,1.84-2.02,2.71-3.73,2.71-.48,0-1.14-.09-1.53-.21l.27-1.45h0Z"/>
    <path d="M237.93,873.06v-14.47l-5.66,14.47h-1.87l-5.66-14.47v14.47h-4.27v-20.07h5.99l4.87,12.55,4.88-12.55h6.02v20.07h-4.3Z"/>
    <path d="M260.08,873.06l-1.26-3.4h-8.6l-1.27,3.4h-4.84l7.73-20.07h5.36l7.73,20.07h-4.85ZM254.51,857.26l-3.13,8.64h6.26l-3.13-8.64ZM254.75,851.15h-2.68l4.03-4.33h3.52l-4.87,4.33Z"/>
    <path d="M278.13,873.06l-3.94-7.13h-3.13v7.13h-4.27v-20.07h9.39c4.18,0,6.77,2.74,6.77,6.47,0,3.52-2.26,5.45-4.42,5.96l4.54,7.64h-4.94ZM278.55,859.42c0-1.66-1.29-2.68-2.98-2.68h-4.51v5.42h4.51c1.68,0,2.98-1.02,2.98-2.74Z"/>
    <path d="M286.14,873.06v-20.07h4.27v20.07h-4.27Z"/>
    <path d="M293.42,863.04c0-6.05,4.42-10.38,10.5-10.38s10.47,4.33,10.47,10.38-4.42,10.38-10.47,10.38-10.5-4.33-10.5-10.38ZM310,863.04c0-3.76-2.38-6.59-6.08-6.59s-6.11,2.83-6.11,6.59,2.38,6.59,6.11,6.59,6.08-2.86,6.08-6.59Z"/>
    <path d="M330.76,873.06l-7.73-20.07h4.84l5.57,15.41,5.57-15.41h4.85l-7.73,20.07h-5.37Z"/>
    <path d="M345.72,873.06v-20.07h14.2v3.76h-9.93v4.21h9.72v3.76h-9.72v4.57h9.93v3.76h-14.2Z"/>
    <path d="M363.08,873.06v-20.07h4.3v16.31h8.49v3.76h-12.79Z"/>
    <path d="M377.8,863.04c0-6.05,4.42-10.38,10.5-10.38s10.47,4.33,10.47,10.38-4.42,10.38-10.47,10.38-10.5-4.33-10.5-10.38ZM394.38,863.04c0-3.76-2.38-6.59-6.08-6.59s-6.11,2.83-6.11,6.59,2.38,6.59,6.11,6.59,6.08-2.86,6.08-6.59Z"/>
    <path d="M400.39,870.23l2.35-3.34c1.41,1.48,3.61,2.74,6.38,2.74,2.38,0,3.49-1.05,3.49-2.23,0-3.49-11.56-1.05-11.56-8.61,0-3.34,2.89-6.11,7.61-6.11,3.19,0,5.84.96,7.82,2.8l-2.38,3.19c-1.62-1.5-3.79-2.2-5.84-2.2-1.8,0-2.83.78-2.83,1.98,0,3.16,11.52,1.02,11.52,8.52,0,3.67-2.65,6.44-8.03,6.44-3.88,0-6.65-1.29-8.55-3.19h.02Z"/>
    <path d="M418.87,863.04c0-6.05,4.42-10.38,10.5-10.38s10.47,4.33,10.47,10.38-4.42,10.38-10.47,10.38-10.5-4.33-10.5-10.38ZM435.45,863.04c0-3.76-2.38-6.59-6.08-6.59s-6.11,2.83-6.11,6.59,2.38,6.59,6.11,6.59,6.08-2.86,6.08-6.59Z"/>
    <path d="M454.02,866.35c-1.99,0-3.58-1.59-3.58-3.55s1.59-3.58,3.58-3.58,3.58,1.59,3.58,3.58-1.59,3.55-3.58,3.55Z"/>
    <path d="M475.72,858.16c4.42,0,6.86,3.52,6.86,7.7v.42h-12.16c.15,3.16,2.26,5.78,5.69,5.78,1.84,0,3.52-.69,4.75-2.02l.81,1.02c-1.44,1.5-3.28,2.35-5.69,2.35-4.24,0-7.28-3.16-7.28-7.64,0-4.21,2.98-7.61,7.01-7.61h.01ZM470.42,865.05h10.56c-.03-2.47-1.66-5.54-5.3-5.54-3.43,0-5.14,3.01-5.26,5.54Z"/>
    <path d="M497.32,873.06v-2.32c-1.02,1.5-2.89,2.68-5.05,2.68-3.85,0-6.5-2.95-6.5-7.61s2.65-7.64,6.5-7.64c2.07,0,3.88,1.05,5.05,2.71v-7.88h1.59v20.07h-1.59ZM497.32,862.22c-.84-1.41-2.74-2.65-4.78-2.65-3.22,0-5.09,2.71-5.09,6.23s1.87,6.2,5.09,6.2c2.05,0,3.94-1.2,4.78-2.59v-7.19h0Z"/>
    <path d="M503.37,854.85c0-.66.57-1.2,1.2-1.2s1.2.54,1.2,1.2-.54,1.2-1.2,1.2-1.2-.54-1.2-1.2ZM503.79,873.06v-14.54h1.57v14.54h-1.57Z"/>
    <path d="M510.53,870.26v-10.35h-2.41v-1.39h2.41v-3.97h1.59v3.97h2.95v1.39h-2.95v10.11c0,1.17.48,1.99,1.5,1.99.69,0,1.29-.33,1.62-.69l.6,1.2c-.57.54-1.26.9-2.47.9-1.93,0-2.86-1.17-2.86-3.16h.02Z"/>
    <path d="M518.09,854.85c0-.66.57-1.2,1.2-1.2s1.2.54,1.2,1.2-.54,1.2-1.2,1.2-1.2-.54-1.2-1.2ZM518.51,873.06v-14.54h1.57v14.54h-1.57Z"/>
    <path d="M534.76,873.06v-9.84c0-2.8-1.41-3.64-3.52-3.64-1.87,0-3.79,1.17-4.72,2.5v10.98h-1.57v-14.54h1.57v2.2c1.05-1.26,3.13-2.56,5.23-2.56,2.95,0,4.57,1.44,4.57,4.72v10.17h-1.57.01Z"/>
    <path d="M542.13,875.55c1.26,1.5,2.65,2.05,4.82,2.05,2.65,0,4.96-1.32,4.96-4.66v-2.29c-1.02,1.48-2.89,2.71-5.05,2.71-3.85,0-6.5-2.92-6.5-7.58s2.65-7.61,6.5-7.61c2.07,0,3.88,1.05,5.05,2.71v-2.35h1.59v14.38c0,4.45-3.01,6.05-6.56,6.05-2.44,0-4-.45-5.72-2.2l.9-1.2h0ZM551.91,862.22c-.84-1.41-2.77-2.65-4.78-2.65-3.22,0-5.09,2.68-5.09,6.2s1.87,6.17,5.09,6.17c2.02,0,3.94-1.23,4.78-2.65v-7.07h0Z"/>
    <path d="M565.72,873.06v-20.07h10.56c3.82,0,5.78,2.44,5.78,5.12,0,2.5-1.57,4.21-3.46,4.6,2.16.33,3.85,2.41,3.85,4.91,0,3.04-1.99,5.45-5.84,5.45h-10.89,0ZM577.7,858.85c0-1.23-.9-2.11-2.35-2.11h-5.36v4.21h5.36c1.44,0,2.35-.81,2.35-2.11h0ZM578.09,867.01c0-1.27-.9-2.29-2.56-2.29h-5.54v4.57h5.54c1.59,0,2.56-.84,2.56-2.29h0Z"/>
    <path d="M597.02,873.06l-3.94-7.13h-3.13v7.13h-4.27v-20.07h9.39c4.18,0,6.77,2.74,6.77,6.47,0,3.52-2.26,5.45-4.42,5.96l4.54,7.64h-4.94ZM597.44,859.42c0-1.66-1.29-2.68-2.98-2.68h-4.51v5.42h4.51c1.68,0,2.98-1.02,2.98-2.74Z"/>
    <path d="M605.03,865.02v-12.04h4.33v11.92c0,2.8,1.63,4.73,4.73,4.73s4.69-1.93,4.69-4.73v-11.92h4.36v12.04c0,4.96-2.95,8.4-9.06,8.4s-9.06-3.43-9.06-8.4h.01Z"/>
    <path d="M640.96,873.06l-9.57-13.09v13.09h-4.27v-20.07h4.39l9.3,12.61v-12.61h4.27v20.07h-4.12Z"/>
    <path d="M648.09,863.04c0-6.05,4.42-10.38,10.5-10.38s10.47,4.33,10.47,10.38-4.42,10.38-10.47,10.38-10.5-4.33-10.5-10.38ZM664.67,863.04c0-3.76-2.38-6.59-6.08-6.59s-6.11,2.83-6.11,6.59,2.38,6.59,6.11,6.59,6.08-2.86,6.08-6.59Z"/>
    <path d="M678.42,870.23l2.35-3.34c1.41,1.48,3.61,2.74,6.38,2.74,2.38,0,3.49-1.05,3.49-2.23,0-3.49-11.56-1.05-11.56-8.61,0-3.34,2.89-6.11,7.61-6.11,3.19,0,5.84.96,7.82,2.8l-2.38,3.19c-1.62-1.5-3.79-2.2-5.84-2.2-1.8,0-2.83.78-2.83,1.98,0,3.16,11.52,1.02,11.52,8.52,0,3.67-2.65,6.44-8.03,6.44-3.88,0-6.65-1.29-8.55-3.19h.02Z"/>
    <path d="M711.73,873.06l-1.26-3.4h-8.6l-1.27,3.4h-4.84l7.73-20.07h5.36l7.73,20.07h-4.85,0ZM706.17,857.26l-3.13,8.64h6.26l-3.13-8.64Z"/>
    <path d="M729.79,873.06l-3.94-7.13h-3.13v7.13h-4.27v-20.07h9.39c4.18,0,6.77,2.74,6.77,6.47,0,3.52-2.26,5.45-4.42,5.96l4.54,7.64h-4.94ZM730.21,859.42c0-1.66-1.29-2.68-2.98-2.68h-4.51v5.42h4.51c1.68,0,2.98-1.02,2.98-2.74Z"/>
    <path d="M751.66,873.06l-1.26-3.4h-8.6l-1.27,3.4h-4.84l7.73-20.07h5.36l7.73,20.07h-4.85,0ZM746.1,857.26l-3.13,8.64h6.26l-3.13-8.64Z"/>
    <path d="M758.38,873.06v-20.07h4.27v20.07h-4.27Z"/>
    <path d="M772.25,873.06l-7.73-20.07h4.84l5.57,15.41,5.57-15.41h4.85l-7.73,20.07h-5.37Z"/>
    <path d="M801.07,873.06l-1.26-3.4h-8.6l-1.27,3.4h-4.84l7.73-20.07h5.36l7.73,20.07h-4.85ZM795.51,857.26l-3.13,8.64h6.26l-3.13-8.64Z"/>
    <path d="M818.95,866.35c-1.99,0-3.58-1.59-3.58-3.55s1.59-3.58,3.58-3.58,3.58,1.59,3.58,3.58-1.59,3.55-3.58,3.55Z"/>
    <path d="M834.15,869.96c.93,1.17,2.65,2.14,4.69,2.14,2.44,0,3.88-1.2,3.88-2.89,0-1.87-1.99-2.41-4.06-2.95-2.44-.6-5.12-1.23-5.12-4.06,0-2.23,1.9-4.03,5.18-4.03,2.5,0,4.15.96,5.21,2.14l-.87,1.11c-.84-1.14-2.41-1.93-4.33-1.93-2.26,0-3.64,1.11-3.64,2.62,0,1.66,1.87,2.11,3.88,2.62,2.5.63,5.3,1.32,5.3,4.42,0,2.35-1.81,4.27-5.45,4.27-2.35,0-4.15-.69-5.6-2.29l.93-1.17h0Z"/>
    <path d="M847.45,865.77c0-4.24,2.74-7.61,6.98-7.61s7.01,3.37,7.01,7.61-2.71,7.64-7.01,7.64-6.98-3.4-6.98-7.64ZM859.75,865.77c0-3.22-1.9-6.2-5.33-6.2s-5.3,2.98-5.3,6.2,1.93,6.23,5.3,6.23,5.33-2.98,5.33-6.23Z"/>
    <path d="M875.28,873.06v-2.14c-1.2,1.32-3.13,2.5-5.23,2.5-2.98,0-4.57-1.38-4.57-4.66v-10.23h1.57v9.87c0,2.83,1.41,3.61,3.52,3.61,1.87,0,3.76-1.11,4.72-2.41v-11.07h1.57v14.54h-1.58Z"/>
    <path d="M891.53,873.06v-9.84c0-2.8-1.41-3.64-3.52-3.64-1.87,0-3.79,1.17-4.72,2.5v10.98h-1.57v-14.54h1.57v2.2c1.05-1.26,3.13-2.56,5.23-2.56,2.95,0,4.57,1.44,4.57,4.72v10.17h-1.57.01Z"/>
    <path d="M908.68,873.06v-2.32c-1.02,1.5-2.89,2.68-5.05,2.68-3.85,0-6.5-2.95-6.5-7.61s2.65-7.64,6.5-7.64c2.07,0,3.88,1.05,5.05,2.71v-7.88h1.59v20.07h-1.59ZM908.68,862.22c-.84-1.41-2.74-2.65-4.78-2.65-3.22,0-5.09,2.71-5.09,6.23s1.87,6.2,5.09,6.2c2.05,0,3.94-1.2,4.78-2.59v-7.19h0Z"/>
    <path d="M922.95,873.06v-14.54h1.57v2.5c1.23-1.62,2.89-2.8,4.9-2.8v1.71c-.27-.06-.48-.06-.78-.06-1.48,0-3.46,1.32-4.12,2.59v10.59h-1.57Z"/>
    <path d="M938.66,858.16c4.42,0,6.86,3.52,6.86,7.7v.42h-12.16c.15,3.16,2.26,5.78,5.69,5.78,1.84,0,3.52-.69,4.75-2.02l.81,1.02c-1.44,1.5-3.28,2.35-5.69,2.35-4.24,0-7.28-3.16-7.28-7.64,0-4.21,2.98-7.61,7.01-7.61h.01ZM933.36,865.05h10.56c-.03-2.47-1.66-5.54-5.3-5.54-3.43,0-5.14,3.01-5.26,5.54Z"/>
    <path d="M955.78,858.16c2.53,0,3.97.99,5.15,2.47l-1.08.96c-1.05-1.44-2.38-2.02-3.97-2.02-3.4,0-5.48,2.71-5.48,6.2s2.08,6.23,5.48,6.23c1.59,0,2.92-.6,3.97-2.05l1.08.96c-1.17,1.5-2.62,2.5-5.15,2.5-4.27,0-7.07-3.4-7.07-7.64s2.8-7.61,7.07-7.61Z"/>
    <path d="M963.58,865.77c0-4.24,2.74-7.61,6.98-7.61s7.01,3.37,7.01,7.61-2.71,7.64-7.01,7.64-6.98-3.4-6.98-7.64ZM975.88,865.77c0-3.22-1.9-6.2-5.33-6.2s-5.3,2.98-5.3,6.2,1.93,6.23,5.3,6.23,5.33-2.98,5.33-6.23Z"/>
    <path d="M981.6,873.06v-14.54h1.57v2.5c1.23-1.62,2.89-2.8,4.9-2.8v1.71c-.27-.06-.48-.06-.78-.06-1.48,0-3.46,1.32-4.12,2.59v10.59h-1.57Z"/>
    <path d="M1001.85,873.06v-2.32c-1.02,1.5-2.89,2.68-5.05,2.68-3.85,0-6.5-2.95-6.5-7.61s2.65-7.64,6.5-7.64c2.07,0,3.88,1.05,5.05,2.71v-7.88h1.59v20.07h-1.59ZM1001.85,862.22c-.84-1.41-2.74-2.65-4.78-2.65-3.22,0-5.09,2.71-5.09,6.23s1.87,6.2,5.09,6.2c2.05,0,3.94-1.2,4.78-2.59v-7.19h0Z"/>
    <path d="M1007.9,854.85c0-.66.57-1.2,1.2-1.2s1.2.54,1.2,1.2-.54,1.2-1.2,1.2-1.2-.54-1.2-1.2ZM1008.33,873.06v-14.54h1.57v14.54h-1.57Z"/>
    <path d="M1024.57,873.06v-9.84c0-2.8-1.41-3.64-3.52-3.64-1.87,0-3.79,1.17-4.72,2.5v10.98h-1.57v-14.54h1.57v2.2c1.05-1.26,3.13-2.56,5.23-2.56,2.95,0,4.57,1.44,4.57,4.72v10.17h-1.57.01Z"/>
    <path d="M1031.95,875.55c1.26,1.5,2.65,2.05,4.82,2.05,2.65,0,4.96-1.32,4.96-4.66v-2.29c-1.02,1.48-2.89,2.71-5.05,2.71-3.85,0-6.5-2.92-6.5-7.58s2.65-7.61,6.5-7.61c2.07,0,3.88,1.05,5.05,2.71v-2.35h1.59v14.38c0,4.45-3.01,6.05-6.56,6.05-2.44,0-4-.45-5.72-2.2l.9-1.2h.01ZM1041.73,862.22c-.84-1.41-2.77-2.65-4.78-2.65-3.22,0-5.09,2.68-5.09,6.2s1.87,6.17,5.09,6.17c2.02,0,3.94-1.23,4.78-2.65v-7.07h0Z"/>
    <path d="M1072.93,873.06v-14.47l-5.66,14.47h-1.87l-5.66-14.47v14.47h-4.27v-20.07h5.99l4.87,12.55,4.88-12.55h6.02v20.07h-4.3,0Z"/>
    <path d="M1095.08,873.06l-1.26-3.4h-8.6l-1.27,3.4h-4.84l7.73-20.07h5.36l7.73,20.07h-4.85ZM1089.52,857.26l-3.13,8.64h6.26l-3.13-8.64ZM1089.76,851.15h-2.68l4.03-4.33h3.52l-4.87,4.33Z"/>
    <path d="M1113.14,873.06l-3.94-7.13h-3.13v7.13h-4.27v-20.07h9.39c4.18,0,6.77,2.74,6.77,6.47,0,3.52-2.26,5.45-4.42,5.96l4.54,7.64h-4.94ZM1113.56,859.42c0-1.66-1.29-2.68-2.98-2.68h-4.51v5.42h4.51c1.68,0,2.98-1.02,2.98-2.74Z"/>
    <path d="M1121.14,873.06v-20.07h4.27v20.07h-4.27Z"/>
    <path d="M1128.42,863.04c0-6.05,4.42-10.38,10.5-10.38s10.47,4.33,10.47,10.38-4.42,10.38-10.47,10.38-10.5-4.33-10.5-10.38ZM1145,863.04c0-3.76-2.38-6.59-6.08-6.59s-6.11,2.83-6.11,6.59,2.38,6.59,6.11,6.59,6.08-2.86,6.08-6.59Z"/>
    <path d="M1165.77,873.06l-7.73-20.07h4.84l5.57,15.41,5.57-15.41h4.85l-7.73,20.07h-5.37Z"/>
    <path d="M1180.72,873.06v-20.07h14.2v3.76h-9.93v4.21h9.72v3.76h-9.72v4.57h9.93v3.76h-14.2Z"/>
    <path d="M1198.09,873.06v-20.07h4.3v16.31h8.49v3.76h-12.79Z"/>
    <path d="M1212.8,863.04c0-6.05,4.42-10.38,10.5-10.38s10.47,4.33,10.47,10.38-4.42,10.38-10.47,10.38-10.5-4.33-10.5-10.38ZM1229.38,863.04c0-3.76-2.38-6.59-6.08-6.59s-6.11,2.83-6.11,6.59,2.38,6.59,6.11,6.59,6.08-2.86,6.08-6.59Z"/>
    <path d="M1235.4,870.23l2.35-3.34c1.41,1.48,3.61,2.74,6.38,2.74,2.38,0,3.49-1.05,3.49-2.23,0-3.49-11.56-1.05-11.56-8.61,0-3.34,2.89-6.11,7.61-6.11,3.19,0,5.84.96,7.82,2.8l-2.38,3.19c-1.62-1.5-3.79-2.2-5.84-2.2-1.8,0-2.83.78-2.83,1.98,0,3.16,11.52,1.02,11.52,8.52,0,3.67-2.65,6.44-8.03,6.44-3.88,0-6.65-1.29-8.55-3.19h.02Z"/>
    <path d="M1253.88,863.04c0-6.05,4.42-10.38,10.5-10.38s10.47,4.33,10.47,10.38-4.42,10.38-10.47,10.38-10.5-4.33-10.5-10.38ZM1270.46,863.04c0-3.76-2.38-6.59-6.08-6.59s-6.11,2.83-6.11,6.59,2.38,6.59,6.11,6.59,6.08-2.86,6.08-6.59Z"/>
    <path d="M1289.03,866.35c-1.99,0-3.58-1.59-3.58-3.55s1.59-3.58,3.58-3.58,3.58,1.59,3.58,3.58-1.59,3.55-3.58,3.55Z"/>
    <path d="M3.02,906.07c.93,1.17,2.65,2.14,4.69,2.14,2.44,0,3.88-1.2,3.88-2.89,0-1.87-1.99-2.41-4.06-2.95-2.44-.6-5.12-1.23-5.12-4.06,0-2.23,1.9-4.03,5.18-4.03,2.5,0,4.15.96,5.21,2.14l-.87,1.11c-.84-1.14-2.41-1.93-4.33-1.93-2.26,0-3.64,1.11-3.64,2.62,0,1.66,1.87,2.11,3.88,2.62,2.5.63,5.3,1.32,5.3,4.42,0,2.35-1.81,4.27-5.45,4.27-2.35,0-4.15-.69-5.6-2.29l.93-1.17h0Z"/>
    <path d="M16.32,901.89c0-4.24,2.74-7.61,6.98-7.61s7.01,3.37,7.01,7.61-2.71,7.64-7.01,7.64-6.98-3.4-6.98-7.64ZM28.63,901.89c0-3.22-1.9-6.2-5.33-6.2s-5.3,2.98-5.3,6.2,1.93,6.23,5.3,6.23,5.33-2.98,5.33-6.23Z"/>
    <path d="M44.16,909.17v-2.14c-1.2,1.32-3.13,2.5-5.23,2.5-2.98,0-4.57-1.38-4.57-4.66v-10.23h1.57v9.87c0,2.83,1.41,3.61,3.52,3.61,1.87,0,3.76-1.11,4.72-2.41v-11.07h1.57v14.54h-1.58Z"/>
    <path d="M60.41,909.17v-9.84c0-2.8-1.41-3.64-3.52-3.64-1.87,0-3.79,1.17-4.72,2.5v10.98h-1.57v-14.54h1.57v2.2c1.05-1.26,3.13-2.56,5.23-2.56,2.95,0,4.57,1.44,4.57,4.72v10.17h-1.57,0Z"/>
    <path d="M77.56,909.17v-2.32c-1.02,1.5-2.89,2.68-5.05,2.68-3.85,0-6.5-2.95-6.5-7.61s2.65-7.64,6.5-7.64c2.07,0,3.88,1.05,5.05,2.71v-7.88h1.59v20.07h-1.59ZM77.56,898.33c-.84-1.41-2.74-2.65-4.78-2.65-3.22,0-5.09,2.71-5.09,6.23s1.87,6.2,5.09,6.2c2.05,0,3.94-1.2,4.78-2.59v-7.19h0Z"/>
    <path d="M97.99,894.27c4.42,0,6.86,3.52,6.86,7.7v.42h-12.16c.15,3.16,2.26,5.78,5.69,5.78,1.84,0,3.52-.69,4.75-2.02l.81,1.02c-1.44,1.5-3.28,2.35-5.69,2.35-4.24,0-7.28-3.16-7.28-7.64,0-4.21,2.98-7.61,7.01-7.61h.01ZM92.7,901.16h10.56c-.03-2.47-1.66-5.54-5.3-5.54-3.43,0-5.14,3.01-5.26,5.54Z"/>
    <path d="M119.6,909.17v-2.32c-1.02,1.5-2.89,2.68-5.05,2.68-3.85,0-6.5-2.95-6.5-7.61s2.65-7.64,6.5-7.64c2.07,0,3.88,1.05,5.05,2.71v-7.88h1.59v20.07h-1.59ZM119.6,898.33c-.84-1.41-2.74-2.65-4.78-2.65-3.22,0-5.09,2.71-5.09,6.23s1.87,6.2,5.09,6.2c2.05,0,3.94-1.2,4.78-2.59v-7.19h0Z"/>
    <path d="M125.65,890.96c0-.66.57-1.2,1.2-1.2s1.2.54,1.2,1.2-.54,1.2-1.2,1.2-1.2-.54-1.2-1.2ZM126.07,909.17v-14.54h1.57v14.54h-1.57Z"/>
    <path d="M132.81,906.37v-10.35h-2.41v-1.39h2.41v-3.97h1.59v3.97h2.95v1.39h-2.95v10.11c0,1.17.48,1.99,1.5,1.99.69,0,1.29-.33,1.62-.69l.6,1.2c-.57.54-1.26.9-2.47.9-1.93,0-2.86-1.17-2.86-3.16h.02Z"/>
    <path d="M140.36,890.96c0-.66.57-1.2,1.2-1.2s1.2.54,1.2,1.2-.54,1.2-1.2,1.2-1.2-.54-1.2-1.2ZM140.79,909.17v-14.54h1.57v14.54h-1.57Z"/>
    <path d="M157.04,909.17v-9.84c0-2.8-1.41-3.64-3.52-3.64-1.87,0-3.79,1.17-4.72,2.5v10.98h-1.57v-14.54h1.57v2.2c1.05-1.26,3.13-2.56,5.23-2.56,2.95,0,4.57,1.44,4.57,4.72v10.17h-1.57,0Z"/>
    <path d="M164.41,911.67c1.26,1.5,2.65,2.05,4.82,2.05,2.65,0,4.96-1.32,4.96-4.66v-2.29c-1.02,1.48-2.89,2.71-5.05,2.71-3.85,0-6.5-2.92-6.5-7.58s2.65-7.61,6.5-7.61c2.07,0,3.88,1.05,5.05,2.71v-2.35h1.59v14.38c0,4.45-3.01,6.05-6.56,6.05-2.44,0-4-.45-5.72-2.2l.9-1.2h.01ZM174.19,898.33c-.84-1.41-2.77-2.65-4.78-2.65-3.22,0-5.09,2.68-5.09,6.2s1.87,6.17,5.09,6.17c2.02,0,3.94-1.23,4.78-2.65v-7.07h0Z"/>
    <path d="M188,909.17v-20.07h10.56c3.82,0,5.78,2.44,5.78,5.12,0,2.5-1.57,4.21-3.46,4.6,2.16.33,3.85,2.41,3.85,4.91,0,3.04-1.99,5.45-5.84,5.45h-10.89ZM199.98,894.96c0-1.23-.9-2.11-2.35-2.11h-5.36v4.21h5.36c1.44,0,2.35-.81,2.35-2.11h0ZM200.37,903.12c0-1.27-.9-2.29-2.56-2.29h-5.54v4.57h5.54c1.59,0,2.56-.84,2.56-2.29h0Z"/>
    <path d="M219.3,909.17l-3.94-7.13h-3.13v7.13h-4.27v-20.07h9.39c4.18,0,6.77,2.74,6.77,6.47,0,3.52-2.26,5.45-4.42,5.96l4.54,7.64h-4.94ZM219.72,895.54c0-1.66-1.29-2.68-2.98-2.68h-4.51v5.42h4.51c1.68,0,2.98-1.02,2.98-2.74Z"/>
    <path d="M227.3,901.13v-12.04h4.33v11.92c0,2.8,1.63,4.73,4.73,4.73s4.69-1.93,4.69-4.73v-11.92h4.36v12.04c0,4.96-2.95,8.4-9.06,8.4s-9.06-3.43-9.06-8.4h.01Z"/>
    <path d="M263.23,909.17l-9.57-13.09v13.09h-4.27v-20.07h4.39l9.3,12.61v-12.61h4.27v20.07h-4.12Z"/>
    <path d="M270.36,899.15c0-6.05,4.42-10.38,10.5-10.38s10.47,4.33,10.47,10.38-4.42,10.38-10.47,10.38-10.5-4.33-10.5-10.38ZM286.95,899.15c0-3.76-2.38-6.59-6.08-6.59s-6.11,2.83-6.11,6.59,2.38,6.59,6.11,6.59,6.08-2.86,6.08-6.59Z"/>
    <path d="M300.7,906.34l2.35-3.34c1.41,1.48,3.61,2.74,6.38,2.74,2.38,0,3.49-1.05,3.49-2.23,0-3.49-11.56-1.05-11.56-8.61,0-3.34,2.89-6.11,7.61-6.11,3.19,0,5.84.96,7.82,2.8l-2.38,3.19c-1.62-1.5-3.79-2.2-5.84-2.2-1.8,0-2.83.78-2.83,1.98,0,3.16,11.52,1.02,11.52,8.52,0,3.67-2.65,6.44-8.03,6.44-3.88,0-6.65-1.29-8.55-3.19h.02Z"/>
    <path d="M334.01,909.17l-1.26-3.4h-8.6l-1.27,3.4h-4.84l7.73-20.07h5.36l7.73,20.07h-4.85,0ZM328.44,893.37l-3.13,8.64h6.26l-3.13-8.64Z"/>
    <path d="M352.07,909.17l-3.94-7.13h-3.13v7.13h-4.27v-20.07h9.39c4.18,0,6.77,2.74,6.77,6.47,0,3.52-2.26,5.45-4.42,5.96l4.54,7.64h-4.94ZM352.49,895.54c0-1.66-1.29-2.68-2.98-2.68h-4.51v5.42h4.51c1.68,0,2.98-1.02,2.98-2.74Z"/>
    <path d="M373.94,909.17l-1.26-3.4h-8.6l-1.27,3.4h-4.84l7.73-20.07h5.36l7.73,20.07h-4.85,0ZM368.38,893.37l-3.13,8.64h6.26l-3.13-8.64Z"/>
    <path d="M380.65,909.17v-20.07h4.27v20.07h-4.27Z"/>
    <path d="M394.52,909.17l-7.73-20.07h4.84l5.57,15.41,5.57-15.41h4.85l-7.73,20.07h-5.37Z"/>
    <path d="M423.35,909.17l-1.26-3.4h-8.6l-1.27,3.4h-4.84l7.73-20.07h5.36l7.73,20.07h-4.85,0ZM417.79,893.37l-3.13,8.64h6.26l-3.13-8.64Z"/>
    <path d="M441.23,902.46c-1.99,0-3.58-1.59-3.58-3.55s1.59-3.58,3.58-3.58,3.58,1.59,3.58,3.58-1.59,3.55-3.58,3.55Z"/>
    <path d="M456.52,906.07c.93,1.17,2.65,2.14,4.69,2.14,2.44,0,3.88-1.2,3.88-2.89,0-1.87-1.99-2.41-4.06-2.95-2.44-.6-5.12-1.23-5.12-4.06,0-2.23,1.9-4.03,5.18-4.03,2.5,0,4.15.96,5.21,2.14l-.87,1.11c-.84-1.14-2.41-1.93-4.33-1.93-2.26,0-3.64,1.11-3.64,2.62,0,1.66,1.87,2.11,3.88,2.62,2.5.63,5.3,1.32,5.3,4.42,0,2.35-1.81,4.27-5.45,4.27-2.35,0-4.15-.69-5.6-2.29l.93-1.17Z"/>
    <path d="M469.82,901.89c0-4.24,2.74-7.61,6.98-7.61s7.01,3.37,7.01,7.61-2.71,7.64-7.01,7.64-6.98-3.4-6.98-7.64ZM482.12,901.89c0-3.22-1.9-6.2-5.33-6.2s-5.3,2.98-5.3,6.2,1.93,6.23,5.3,6.23,5.33-2.98,5.33-6.23Z"/>
    <path d="M497.65,909.17v-2.14c-1.2,1.32-3.13,2.5-5.23,2.5-2.98,0-4.57-1.38-4.57-4.66v-10.23h1.57v9.87c0,2.83,1.41,3.61,3.52,3.61,1.87,0,3.76-1.11,4.72-2.41v-11.07h1.57v14.54h-1.58Z"/>
    <path d="M513.9,909.17v-9.84c0-2.8-1.41-3.64-3.52-3.64-1.87,0-3.79,1.17-4.72,2.5v10.98h-1.57v-14.54h1.57v2.2c1.05-1.26,3.13-2.56,5.23-2.56,2.95,0,4.57,1.44,4.57,4.72v10.17h-1.57.01Z"/>
    <path d="M531.05,909.17v-2.32c-1.02,1.5-2.89,2.68-5.05,2.68-3.85,0-6.5-2.95-6.5-7.61s2.65-7.64,6.5-7.64c2.07,0,3.88,1.05,5.05,2.71v-7.88h1.59v20.07h-1.59ZM531.05,898.33c-.84-1.41-2.74-2.65-4.78-2.65-3.22,0-5.09,2.71-5.09,6.23s1.87,6.2,5.09,6.2c2.05,0,3.94-1.2,4.78-2.59v-7.19h0Z"/>
    <path d="M562.62,909.17v-10.17c0-2.05-.87-3.31-2.92-3.31-1.57,0-3.34,1.14-4.15,2.47v11.01h-1.59v-10.17c0-2.05-.84-3.31-2.92-3.31-1.53,0-3.28,1.17-4.15,2.5v10.98h-1.57v-14.54h1.57v2.2c.6-.93,2.59-2.56,4.69-2.56,2.26,0,3.46,1.32,3.82,2.74.81-1.36,2.77-2.74,4.82-2.74,2.68,0,3.97,1.5,3.97,4.42v10.47h-1.57Z"/>
    <path d="M568.64,890.96c0-.66.57-1.2,1.2-1.2s1.2.54,1.2,1.2-.54,1.2-1.2,1.2-1.2-.54-1.2-1.2ZM569.06,909.17v-14.54h1.57v14.54h-1.57Z"/>
    <path d="M585.1,909.17l-4.82-6.41-4.85,6.41h-1.87l5.75-7.46-5.42-7.07h1.87l4.51,5.99,4.48-5.99h1.87l-5.42,7.07,5.75,7.46h-1.87.02Z"/>
    <path d="M589.5,890.96c0-.66.57-1.2,1.2-1.2s1.2.54,1.2,1.2-.54,1.2-1.2,1.2-1.2-.54-1.2-1.2ZM589.92,909.17v-14.54h1.57v14.54h-1.57Z"/>
    <path d="M606.17,909.17v-9.84c0-2.8-1.41-3.64-3.52-3.64-1.87,0-3.79,1.17-4.72,2.5v10.98h-1.57v-14.54h1.57v2.2c1.05-1.26,3.13-2.56,5.23-2.56,2.95,0,4.57,1.44,4.57,4.72v10.17h-1.57.01Z"/>
    <path d="M613.54,911.67c1.26,1.5,2.65,2.05,4.82,2.05,2.65,0,4.96-1.32,4.96-4.66v-2.29c-1.02,1.48-2.89,2.71-5.05,2.71-3.85,0-6.5-2.92-6.5-7.58s2.65-7.61,6.5-7.61c2.07,0,3.88,1.05,5.05,2.71v-2.35h1.59v14.38c0,4.45-3.01,6.05-6.56,6.05-2.44,0-4-.45-5.72-2.2l.9-1.2h0ZM623.32,898.33c-.84-1.41-2.77-2.65-4.78-2.65-3.22,0-5.09,2.68-5.09,6.2s1.87,6.17,5.09,6.17c2.02,0,3.94-1.23,4.78-2.65v-7.07h0Z"/>
    <path d="M654.59,909.17v-14.47l-5.66,14.47h-1.87l-5.66-14.47v14.47h-4.27v-20.07h5.99l4.87,12.55,4.88-12.55h6.02v20.07h-4.3Z"/>
    <path d="M662.86,909.17v-20.07h4.27v20.07h-4.27Z"/>
    <path d="M670.14,899.15c0-6.35,4.82-10.38,10.71-10.38,4.15,0,6.77,2.11,8.28,4.48l-3.52,1.93c-.93-1.41-2.65-2.62-4.75-2.62-3.67,0-6.32,2.8-6.32,6.59s2.65,6.59,6.32,6.59c1.78,0,3.43-.78,4.24-1.54v-2.41h-5.3v-3.73h9.57v7.7c-2.05,2.29-4.91,3.76-8.52,3.76-5.9,0-10.71-4.06-10.71-10.38h0Z"/>
    <path d="M692.77,901.13v-12.04h4.33v11.92c0,2.8,1.63,4.73,4.73,4.73s4.69-1.93,4.69-4.73v-11.92h4.36v12.04c0,4.96-2.95,8.4-9.06,8.4s-9.06-3.43-9.06-8.4h.01Z"/>
    <path d="M714.86,909.17v-20.07h14.2v3.76h-9.93v4.21h9.72v3.76h-9.72v4.57h9.93v3.76h-14.2Z"/>
    <path d="M732.23,909.17v-20.07h4.3v16.31h8.49v3.76h-12.79Z"/>
    <path d="M754.67,899.15c0-6.2,4.66-10.38,10.71-10.38,4.39,0,6.95,2.38,8.37,4.91l-3.67,1.8c-.84-1.62-2.65-2.92-4.69-2.92-3.67,0-6.32,2.8-6.32,6.59s2.65,6.59,6.32,6.59c2.05,0,3.85-1.3,4.69-2.92l3.67,1.78c-1.41,2.5-3.97,4.94-8.37,4.94-6.05,0-10.71-4.21-10.71-10.38h0Z"/>
    <path d="M775.35,899.15c0-6.05,4.42-10.38,10.5-10.38s10.47,4.33,10.47,10.38-4.42,10.38-10.47,10.38-10.5-4.33-10.5-10.38ZM791.93,899.15c0-3.76-2.38-6.59-6.08-6.59s-6.11,2.83-6.11,6.59,2.38,6.59,6.11,6.59,6.08-2.86,6.08-6.59Z"/>
    <path d="M799.33,909.17v-20.07h14.2v3.76h-9.93v4.21h9.72v3.76h-9.72v4.57h9.93v3.76h-14.2Z"/>
    <path d="M816.69,909.17v-20.07h4.3v16.31h8.49v3.76h-12.79Z"/>
    <path d="M846.12,909.17v-8.46h-9.48v8.46h-4.27v-20.07h4.27v7.88h9.48v-7.88h4.3v20.07h-4.3Z"/>
    <path d="M853.41,899.15c0-6.05,4.42-10.38,10.5-10.38s10.47,4.33,10.47,10.38-4.42,10.38-10.47,10.38-10.5-4.33-10.5-10.38ZM869.99,899.15c0-3.76-2.38-6.59-6.08-6.59s-6.11,2.83-6.11,6.59,2.38,6.59,6.11,6.59,6.08-2.86,6.08-6.59Z"/>
    <path d="M888.55,902.46c-1.99,0-3.58-1.59-3.58-3.55s1.59-3.58,3.58-3.58,3.58,1.59,3.58,3.58-1.59,3.55-3.58,3.55Z"/>
    <path d="M910.31,894.27c2.53,0,3.97.99,5.14,2.47l-1.08.96c-1.05-1.44-2.38-2.02-3.97-2.02-3.4,0-5.48,2.71-5.48,6.2s2.08,6.23,5.48,6.23c1.59,0,2.92-.6,3.97-2.05l1.08.96c-1.17,1.5-2.62,2.5-5.14,2.5-4.27,0-7.07-3.4-7.07-7.64s2.8-7.61,7.07-7.61Z"/>
    <path d="M918.1,901.89c0-4.24,2.74-7.61,6.98-7.61s7.01,3.37,7.01,7.61-2.71,7.64-7.01,7.64-6.98-3.4-6.98-7.64ZM930.41,901.89c0-3.22-1.9-6.2-5.33-6.2s-5.3,2.98-5.3,6.2,1.93,6.23,5.3,6.23,5.33-2.98,5.33-6.23Z"/>
    <path d="M936.13,909.17v-20.07h1.57v20.07h-1.57Z"/>
    <path d="M941.73,901.89c0-4.24,2.74-7.61,6.98-7.61s7.01,3.37,7.01,7.61-2.71,7.64-7.01,7.64-6.98-3.4-6.98-7.64ZM954.04,901.89c0-3.22-1.9-6.2-5.33-6.2s-5.3,2.98-5.3,6.2,1.93,6.23,5.3,6.23,5.33-2.98,5.33-6.23Z"/>
    <path d="M959.75,909.17v-14.54h1.57v2.5c1.23-1.62,2.89-2.8,4.9-2.8v1.71c-.27-.06-.48-.06-.78-.06-1.48,0-3.46,1.32-4.12,2.59v10.59h-1.57Z"/>
    <path d="M978.02,911.67c1.26,1.5,2.65,2.05,4.82,2.05,2.65,0,4.96-1.32,4.96-4.66v-2.29c-1.02,1.48-2.89,2.71-5.05,2.71-3.85,0-6.5-2.92-6.5-7.58s2.65-7.61,6.5-7.61c2.07,0,3.88,1.05,5.05,2.71v-2.35h1.59v14.38c0,4.45-3.01,6.05-6.56,6.05-2.44,0-4-.45-5.72-2.2l.9-1.2h.01ZM987.8,898.33c-.84-1.41-2.77-2.65-4.78-2.65-3.22,0-5.09,2.68-5.09,6.2s1.87,6.17,5.09,6.17c2.02,0,3.94-1.23,4.78-2.65v-7.07h0Z"/>
    <path d="M994.24,909.17v-14.54h1.57v2.5c1.23-1.62,2.89-2.8,4.9-2.8v1.71c-.27-.06-.48-.06-.78-.06-1.48,0-3.46,1.32-4.12,2.59v10.59h-1.57Z"/>
    <path d="M1013.02,909.17v-1.72c-1.29,1.41-2.92,2.08-4.94,2.08-2.5,0-5.08-1.71-5.08-4.85s2.56-4.81,5.08-4.81c2.02,0,3.67.66,4.94,2.08v-2.95c0-2.17-1.74-3.34-3.91-3.34-1.81,0-3.22.63-4.55,2.14l-.87-1.08c1.5-1.62,3.19-2.44,5.6-2.44,2.95,0,5.3,1.41,5.3,4.66v10.23h-1.57ZM1013.02,903.12c-1.02-1.32-2.65-2.02-4.39-2.02-2.41,0-3.97,1.54-3.97,3.61s1.56,3.58,3.97,3.58c1.75,0,3.37-.66,4.39-1.98v-3.19Z"/>
    <path d="M1030.17,909.17v-2.32c-1.02,1.5-2.89,2.68-5.05,2.68-3.85,0-6.5-2.95-6.5-7.61s2.65-7.64,6.5-7.64c2.07,0,3.88,1.05,5.05,2.71v-7.88h1.59v20.07h-1.59ZM1030.17,898.33c-.84-1.41-2.74-2.65-4.78-2.65-3.22,0-5.09,2.71-5.09,6.23s1.87,6.2,5.09,6.2c2.05,0,3.94-1.2,4.78-2.59v-7.19h0Z"/>
    <path d="M1036.22,890.96c0-.66.57-1.2,1.2-1.2s1.2.54,1.2,1.2-.54,1.2-1.2,1.2-1.2-.54-1.2-1.2ZM1036.64,909.17v-14.54h1.57v14.54h-1.57Z"/>
    <path d="M1052.89,909.17v-9.84c0-2.8-1.41-3.64-3.52-3.64-1.87,0-3.79,1.17-4.72,2.5v10.98h-1.57v-14.54h1.57v2.2c1.05-1.26,3.13-2.56,5.23-2.56,2.95,0,4.57,1.44,4.57,4.72v10.17h-1.57.01Z"/>
    <path d="M1060.26,911.67c1.26,1.5,2.65,2.05,4.82,2.05,2.65,0,4.96-1.32,4.96-4.66v-2.29c-1.02,1.48-2.89,2.71-5.05,2.71-3.85,0-6.5-2.92-6.5-7.58s2.65-7.61,6.5-7.61c2.07,0,3.88,1.05,5.05,2.71v-2.35h1.59v14.38c0,4.45-3.01,6.05-6.56,6.05-2.44,0-4-.45-5.72-2.2l.9-1.2h.01ZM1070.04,898.33c-.84-1.41-2.77-2.65-4.78-2.65-3.22,0-5.09,2.68-5.09,6.2s1.87,6.17,5.09,6.17c2.02,0,3.94-1.23,4.78-2.65v-7.07h0Z"/>
    <path d="M1083.8,909.17v-20.07h10.56c3.82,0,5.78,2.44,5.78,5.12,0,2.5-1.57,4.21-3.46,4.6,2.16.33,3.85,2.41,3.85,4.91,0,3.04-1.99,5.45-5.84,5.45h-10.89ZM1095.77,894.96c0-1.23-.9-2.11-2.35-2.11h-5.36v4.21h5.36c1.44,0,2.35-.81,2.35-2.11h0ZM1096.16,903.12c0-1.27-.9-2.29-2.56-2.29h-5.54v4.57h5.54c1.59,0,2.56-.84,2.56-2.29h0Z"/>
    <path d="M1115.09,909.17l-3.94-7.13h-3.13v7.13h-4.27v-20.07h9.39c4.18,0,6.77,2.74,6.77,6.47,0,3.52-2.26,5.45-4.42,5.96l4.54,7.64h-4.94ZM1115.51,895.54c0-1.66-1.29-2.68-2.98-2.68h-4.51v5.42h4.51c1.68,0,2.98-1.02,2.98-2.74Z"/>
    <path d="M1123.1,901.13v-12.04h4.33v11.92c0,2.8,1.63,4.73,4.73,4.73s4.69-1.93,4.69-4.73v-11.92h4.36v12.04c0,4.96-2.95,8.4-9.06,8.4s-9.06-3.43-9.06-8.4h.01Z"/>
    <path d="M1159.03,909.17l-9.57-13.09v13.09h-4.27v-20.07h4.39l9.3,12.61v-12.61h4.27v20.07h-4.12Z"/>
    <path d="M1166.16,899.15c0-6.05,4.42-10.38,10.5-10.38s10.47,4.33,10.47,10.38-4.42,10.38-10.47,10.38-10.5-4.33-10.5-10.38ZM1182.74,899.15c0-3.76-2.38-6.59-6.08-6.59s-6.11,2.83-6.11,6.59,2.38,6.59,6.11,6.59,6.08-2.86,6.08-6.59Z"/>
    <path d="M1209.22,909.17l-3.94-7.13h-3.13v7.13h-4.27v-20.07h9.39c4.18,0,6.77,2.74,6.77,6.47,0,3.52-2.26,5.45-4.42,5.96l4.54,7.64h-4.94ZM1209.64,895.54c0-1.66-1.29-2.68-2.98-2.68h-4.51v5.42h4.51c1.68,0,2.98-1.02,2.98-2.74Z"/>
    <path d="M1217.23,909.17v-20.07h14.2v3.76h-9.93v4.21h9.72v3.76h-9.72v4.57h9.93v3.76h-14.2Z"/>
    <path d="M1234.77,909.17v-20.07h4.27v20.07h-4.27Z"/>
    <path d="M1241.63,906.34l2.35-3.34c1.41,1.48,3.61,2.74,6.38,2.74,2.38,0,3.49-1.05,3.49-2.23,0-3.49-11.56-1.05-11.56-8.61,0-3.34,2.89-6.11,7.61-6.11,3.19,0,5.84.96,7.82,2.8l-2.38,3.19c-1.62-1.5-3.79-2.2-5.84-2.2-1.8,0-2.83.78-2.83,1.98,0,3.16,11.52,1.02,11.52,8.52,0,3.67-2.65,6.44-8.03,6.44-3.88,0-6.65-1.29-8.55-3.19h.02Z"/>
    <path d="M1267.84,899.15c0-6.05,4.42-10.38,10.5-10.38s10.47,4.33,10.47,10.38-4.42,10.38-10.47,10.38-10.5-4.33-10.5-10.38ZM1284.42,899.15c0-3.76-2.38-6.59-6.08-6.59s-6.11,2.83-6.11,6.59,2.38,6.59,6.11,6.59,6.08-2.86,6.08-6.59Z"/>
    <path d="M1291.64,909.17v-20.07h4.3v16.31h8.49v3.76h-12.79Z"/>
    <path d="M1307.32,909.17v-20.07h4.27v20.07h-4.27Z"/>
    <path d="M1321.19,909.17l-7.73-20.07h4.84l5.57,15.41,5.57-15.41h4.85l-7.73,20.07h-5.37Z"/>
    <path d="M1336.15,909.17v-20.07h14.2v3.76h-9.93v4.21h9.72v3.76h-9.72v4.57h9.93v3.76h-14.2Z"/>
    <path d="M1353.69,909.17v-20.07h4.27v20.07h-4.27Z"/>
    <path d="M1373.28,909.17l-3.94-7.13h-3.13v7.13h-4.27v-20.07h9.39c4.18,0,6.77,2.74,6.77,6.47,0,3.52-2.26,5.45-4.42,5.96l4.54,7.64h-4.94ZM1373.7,895.54c0-1.66-1.29-2.68-2.98-2.68h-4.51v5.42h4.51c1.68,0,2.98-1.02,2.98-2.74Z"/>
    <path d="M1395.16,909.17l-1.26-3.4h-8.6l-1.27,3.4h-4.84l7.73-20.07h5.36l7.73,20.07h-4.85ZM1389.59,893.37l-3.13,8.64h6.26l-3.13-8.64Z"/>
    <path d="M1413.03,902.46c-1.99,0-3.58-1.59-3.58-3.55s1.59-3.58,3.58-3.58,3.58,1.59,3.58,3.58-1.59,3.55-3.58,3.55Z"/>
    <path d="M4.28,947.78c1.26,1.5,2.65,2.05,4.82,2.05,2.65,0,4.96-1.32,4.96-4.66v-2.29c-1.02,1.48-2.89,2.71-5.05,2.71-3.85,0-6.5-2.92-6.5-7.58s2.65-7.61,6.5-7.61c2.07,0,3.88,1.05,5.05,2.71v-2.35h1.59v14.38c0,4.45-3.01,6.05-6.56,6.05-2.44,0-4-.45-5.72-2.2l.9-1.2h0ZM14.06,934.45c-.84-1.41-2.77-2.65-4.78-2.65-3.22,0-5.09,2.68-5.09,6.2s1.87,6.17,5.09,6.17c2.02,0,3.94-1.23,4.78-2.65v-7.07h0Z"/>
    <path d="M20.5,945.28v-14.54h1.57v2.5c1.23-1.62,2.89-2.8,4.9-2.8v1.71c-.27-.06-.48-.06-.78-.06-1.48,0-3.46,1.32-4.12,2.59v10.59h-1.57Z"/>
    <path d="M39.28,945.28v-1.72c-1.29,1.41-2.92,2.08-4.94,2.08-2.5,0-5.08-1.71-5.08-4.85s2.56-4.81,5.08-4.81c2.02,0,3.67.66,4.94,2.08v-2.95c0-2.17-1.74-3.34-3.91-3.34-1.81,0-3.22.63-4.55,2.14l-.87-1.08c1.5-1.62,3.19-2.44,5.6-2.44,2.95,0,5.3,1.41,5.3,4.66v10.23h-1.57ZM39.28,939.23c-1.02-1.32-2.65-2.02-4.39-2.02-2.41,0-3.97,1.54-3.97,3.61s1.56,3.58,3.97,3.58c1.75,0,3.37-.66,4.39-1.98v-3.19Z"/>
    <path d="M47.29,950.82h-1.57v-20.07h1.57v2.29c1.02-1.47,2.89-2.65,5.05-2.65,3.88,0,6.5,2.95,6.5,7.61s-2.62,7.64-6.5,7.64c-2.05,0-3.88-1.05-5.05-2.71v7.88h0ZM52.07,931.8c-2.02,0-3.94,1.2-4.78,2.59v7.19c.84,1.38,2.77,2.65,4.78,2.65,3.25,0,5.09-2.71,5.09-6.23s-1.84-6.2-5.09-6.2h0Z"/>
    <path d="M72.68,945.28v-9.9c0-2.8-1.41-3.58-3.52-3.58-1.87,0-3.79,1.17-4.72,2.5v10.98h-1.57v-20.07h1.57v7.73c1.05-1.26,3.13-2.56,5.23-2.56,2.95,0,4.57,1.38,4.57,4.66v10.23h-1.57,0Z"/>
    <path d="M78.7,927.07c0-.66.57-1.2,1.2-1.2s1.2.54,1.2,1.2-.54,1.2-1.2,1.2-1.2-.54-1.2-1.2ZM79.12,945.28v-14.54h1.57v14.54h-1.57Z"/>
    <path d="M91.79,930.38c2.53,0,3.97.99,5.14,2.47l-1.08.96c-1.05-1.44-2.38-2.02-3.97-2.02-3.4,0-5.48,2.71-5.48,6.2s2.08,6.23,5.48,6.23c1.59,0,2.92-.6,3.97-2.05l1.08.96c-1.17,1.5-2.62,2.5-5.14,2.5-4.27,0-7.07-3.4-7.07-7.64s2.8-7.61,7.07-7.61Z"/>
    <path d="M118.94,945.28v-2.32c-1.02,1.5-2.89,2.68-5.05,2.68-3.85,0-6.5-2.95-6.5-7.61s2.65-7.64,6.5-7.64c2.07,0,3.88,1.05,5.05,2.71v-7.88h1.59v20.07h-1.59ZM118.94,934.45c-.84-1.41-2.74-2.65-4.78-2.65-3.22,0-5.09,2.71-5.09,6.23s1.87,6.2,5.09,6.2c2.05,0,3.94-1.2,4.78-2.59v-7.19h0Z"/>
    <path d="M131.58,930.38c4.42,0,6.86,3.52,6.86,7.7v.42h-12.16c.15,3.16,2.26,5.78,5.69,5.78,1.84,0,3.52-.69,4.75-2.02l.81,1.02c-1.44,1.5-3.28,2.35-5.69,2.35-4.24,0-7.28-3.16-7.28-7.64,0-4.21,2.98-7.61,7.01-7.61h.01ZM126.28,937.28h10.56c-.03-2.47-1.66-5.54-5.3-5.54-3.43,0-5.14,3.01-5.26,5.54Z"/>
    <path d="M142.14,942.18c.93,1.17,2.65,2.14,4.69,2.14,2.44,0,3.88-1.2,3.88-2.89,0-1.87-1.99-2.41-4.06-2.95-2.44-.6-5.12-1.23-5.12-4.06,0-2.23,1.9-4.03,5.18-4.03,2.5,0,4.15.96,5.21,2.14l-.87,1.11c-.84-1.14-2.41-1.93-4.33-1.93-2.26,0-3.64,1.11-3.64,2.62,0,1.66,1.87,2.11,3.88,2.62,2.5.63,5.3,1.32,5.3,4.42,0,2.35-1.81,4.27-5.45,4.27-2.35,0-4.15-.69-5.6-2.29l.93-1.17h0Z"/>
    <path d="M155.86,927.07c0-.66.57-1.2,1.2-1.2s1.2.54,1.2,1.2-.54,1.2-1.2,1.2-1.2-.54-1.2-1.2ZM156.28,945.28v-14.54h1.57v14.54h-1.57Z"/>
    <path d="M163.65,947.78c1.26,1.5,2.65,2.05,4.82,2.05,2.65,0,4.96-1.32,4.96-4.66v-2.29c-1.02,1.48-2.89,2.71-5.05,2.71-3.85,0-6.5-2.92-6.5-7.58s2.65-7.61,6.5-7.61c2.07,0,3.88,1.05,5.05,2.71v-2.35h1.59v14.38c0,4.45-3.01,6.05-6.56,6.05-2.44,0-4-.45-5.72-2.2l.9-1.2h.01ZM173.43,934.45c-.84-1.41-2.77-2.65-4.78-2.65-3.22,0-5.09,2.68-5.09,6.2s1.87,6.17,5.09,6.17c2.02,0,3.94-1.23,4.78-2.65v-7.07h0Z"/>
    <path d="M189.68,945.28v-9.84c0-2.8-1.41-3.64-3.52-3.64-1.87,0-3.79,1.17-4.72,2.5v10.98h-1.57v-14.54h1.57v2.2c1.05-1.26,3.13-2.56,5.23-2.56,2.95,0,4.57,1.44,4.57,4.72v10.17h-1.57,0Z"/>
    <path d="M214.84,945.28l-3.94-7.13h-3.13v7.13h-4.27v-20.07h9.39c4.18,0,6.77,2.74,6.77,6.47,0,3.52-2.26,5.45-4.42,5.96l4.54,7.64h-4.94ZM215.26,931.65c0-1.66-1.29-2.68-2.98-2.68h-4.51v5.42h4.51c1.68,0,2.98-1.02,2.98-2.74Z"/>
    <path d="M222.85,945.28v-20.07h4.27v20.07h-4.27Z"/>
    <path d="M235.72,945.28v-16.31h-5.87v-3.76h16.01v3.76h-5.84v16.31h-4.3Z"/>
    <path d="M262.48,945.28l-1.26-3.4h-8.6l-1.27,3.4h-4.84l7.73-20.07h5.36l7.73,20.07h-4.85ZM256.91,929.48l-3.13,8.64h6.26l-3.13-8.64Z"/>
    <path d="M275.96,935.26c0-6.2,4.66-10.38,10.71-10.38,4.39,0,6.95,2.38,8.37,4.91l-3.67,1.8c-.84-1.62-2.65-2.92-4.69-2.92-3.67,0-6.32,2.8-6.32,6.59s2.65,6.59,6.32,6.59c2.05,0,3.85-1.3,4.69-2.92l3.67,1.78c-1.41,2.5-3.97,4.94-8.37,4.94-6.05,0-10.71-4.21-10.71-10.38h0Z"/>
    <path d="M308.94,945.28l-3.94-7.13h-3.13v7.13h-4.27v-20.07h9.39c4.18,0,6.77,2.74,6.77,6.47,0,3.52-2.26,5.45-4.42,5.96l4.54,7.64h-4.94ZM309.36,931.65c0-1.66-1.29-2.68-2.98-2.68h-4.51v5.42h4.51c1.68,0,2.98-1.02,2.98-2.74Z"/>
    <path d="M316.94,937.25v-12.04h4.33v11.92c0,2.8,1.63,4.73,4.73,4.73s4.69-1.93,4.69-4.73v-11.92h4.36v12.04c0,4.96-2.95,8.4-9.06,8.4s-9.06-3.43-9.06-8.4h.01Z"/>
    <path d="M338.31,945.28v-3.46l9.48-12.85h-9.48v-3.76h15.08v3.43l-9.48,12.88h9.69v3.76h-15.29Z"/>
    <path d="M369.21,945.28v-16.31h-5.87v-3.76h16.01v3.76h-5.84v16.31h-4.3Z"/>
    <path d="M395.96,945.28l-1.26-3.4h-8.6l-1.27,3.4h-4.84l7.73-20.07h5.36l7.73,20.07h-4.85,0ZM390.4,929.48l-3.13,8.64h6.26l-3.13-8.64Z"/>
    <path d="M408.3,945.28l-7.73-20.07h4.84l5.57,15.41,5.57-15.41h4.85l-7.73,20.07h-5.37Z"/>
    <path d="M437.13,945.28l-1.26-3.4h-8.6l-1.27,3.4h-4.84l7.73-20.07h5.36l7.73,20.07h-4.85,0ZM431.56,929.48l-3.13,8.64h6.26l-3.13-8.64Z"/>
    <path d="M455.19,945.28l-3.94-7.13h-3.13v7.13h-4.27v-20.07h9.39c4.18,0,6.77,2.74,6.77,6.47,0,3.52-2.26,5.45-4.42,5.96l4.54,7.64h-4.94ZM455.61,931.65c0-1.66-1.29-2.68-2.98-2.68h-4.51v5.42h4.51c1.68,0,2.98-1.02,2.98-2.74Z"/>
    <path d="M463.19,945.28v-20.07h14.2v3.76h-9.93v4.21h9.72v3.76h-9.72v4.57h9.93v3.76h-14.2Z"/>
    <path d="M479.35,942.45l2.35-3.34c1.41,1.48,3.61,2.74,6.38,2.74,2.38,0,3.49-1.05,3.49-2.23,0-3.49-11.56-1.05-11.56-8.61,0-3.34,2.89-6.11,7.61-6.11,3.19,0,5.84.96,7.82,2.8l-2.38,3.19c-1.62-1.5-3.79-2.2-5.84-2.2-1.8,0-2.83.78-2.83,1.98,0,3.16,11.52,1.02,11.52,8.52,0,3.67-2.65,6.44-8.03,6.44-3.88,0-6.65-1.29-8.55-3.19h.02Z"/>
    <path d="M516.3,945.28v-1.72c-1.29,1.41-2.92,2.08-4.94,2.08-2.5,0-5.08-1.71-5.08-4.85s2.56-4.81,5.08-4.81c2.02,0,3.67.66,4.94,2.08v-2.95c0-2.17-1.74-3.34-3.91-3.34-1.81,0-3.22.63-4.55,2.14l-.87-1.08c1.5-1.62,3.19-2.44,5.6-2.44,2.95,0,5.3,1.41,5.3,4.66v10.23h-1.57ZM516.3,939.23c-1.02-1.32-2.65-2.02-4.39-2.02-2.41,0-3.97,1.54-3.97,3.61s1.56,3.58,3.97,3.58c1.75,0,3.37-.66,4.39-1.98v-3.19Z"/>
    <path d="M532.55,945.28v-9.84c0-2.8-1.41-3.64-3.52-3.64-1.87,0-3.79,1.17-4.72,2.5v10.98h-1.57v-14.54h1.57v2.2c1.05-1.26,3.13-2.56,5.23-2.56,2.95,0,4.57,1.44,4.57,4.72v10.17h-1.57.01Z"/>
    <path d="M549.71,945.28v-2.32c-1.02,1.5-2.89,2.68-5.05,2.68-3.85,0-6.5-2.95-6.5-7.61s2.65-7.64,6.5-7.64c2.07,0,3.88,1.05,5.05,2.71v-7.88h1.59v20.07h-1.59ZM549.71,934.45c-.84-1.41-2.74-2.65-4.78-2.65-3.22,0-5.09,2.71-5.09,6.23s1.87,6.2,5.09,6.2c2.05,0,3.94-1.2,4.78-2.59v-7.19h0Z"/>
    <path d="M581,945.28v-14.47l-5.66,14.47h-1.87l-5.66-14.47v14.47h-4.27v-20.07h5.99l4.87,12.55,4.88-12.55h6.02v20.07h-4.3Z"/>
    <path d="M603.15,945.28l-1.26-3.4h-8.6l-1.27,3.4h-4.84l7.73-20.07h5.36l7.73,20.07h-4.85,0ZM597.59,929.48l-3.13,8.64h6.26l-3.13-8.64ZM597.83,923.37h-2.68l4.03-4.33h3.52l-4.87,4.33h0Z"/>
    <path d="M621.21,945.28l-3.94-7.13h-3.13v7.13h-4.27v-20.07h9.39c4.18,0,6.77,2.74,6.77,6.47,0,3.52-2.26,5.45-4.42,5.96l4.54,7.64h-4.94ZM621.63,931.65c0-1.66-1.29-2.68-2.98-2.68h-4.51v5.42h4.51c1.68,0,2.98-1.02,2.98-2.74Z"/>
    <path d="M629.21,945.28v-20.07h4.27v20.07h-4.27Z"/>
    <path d="M636.49,935.26c0-6.05,4.42-10.38,10.5-10.38s10.47,4.33,10.47,10.38-4.42,10.38-10.47,10.38-10.5-4.33-10.5-10.38ZM653.07,935.26c0-3.76-2.38-6.59-6.08-6.59s-6.11,2.83-6.11,6.59,2.38,6.59,6.11,6.59,6.08-2.86,6.08-6.59Z"/>
    <path d="M673.84,945.28l-7.73-20.07h4.84l5.57,15.41,5.57-15.41h4.85l-7.73,20.07h-5.37Z"/>
    <path d="M688.79,945.28v-20.07h14.2v3.76h-9.93v4.21h9.72v3.76h-9.72v4.57h9.93v3.76h-14.2Z"/>
    <path d="M706.16,945.28v-20.07h4.3v16.31h8.49v3.76h-12.79Z"/>
    <path d="M720.87,935.26c0-6.05,4.42-10.38,10.5-10.38s10.47,4.33,10.47,10.38-4.42,10.38-10.47,10.38-10.5-4.33-10.5-10.38ZM737.45,935.26c0-3.76-2.38-6.59-6.08-6.59s-6.11,2.83-6.11,6.59,2.38,6.59,6.11,6.59,6.08-2.86,6.08-6.59Z"/>
    <path d="M743.47,942.45l2.35-3.34c1.41,1.48,3.61,2.74,6.38,2.74,2.38,0,3.49-1.05,3.49-2.23,0-3.49-11.56-1.05-11.56-8.61,0-3.34,2.89-6.11,7.61-6.11,3.19,0,5.84.96,7.82,2.8l-2.38,3.19c-1.62-1.5-3.79-2.2-5.84-2.2-1.8,0-2.83.78-2.83,1.98,0,3.16,11.52,1.02,11.52,8.52,0,3.67-2.65,6.44-8.03,6.44-3.88,0-6.65-1.29-8.55-3.19h.02Z"/>
    <path d="M761.95,935.26c0-6.05,4.42-10.38,10.5-10.38s10.47,4.33,10.47,10.38-4.42,10.38-10.47,10.38-10.5-4.33-10.5-10.38ZM778.53,935.26c0-3.76-2.38-6.59-6.08-6.59s-6.11,2.83-6.11,6.59,2.38,6.59,6.11,6.59,6.08-2.86,6.08-6.59Z"/>
    <path d="M797.1,938.57c-1.99,0-3.58-1.59-3.58-3.55s1.59-3.58,3.58-3.58,3.58,1.59,3.58,3.58-1.59,3.55-3.58,3.55Z"/>
  </g>
  <g>
    <g>
      <path d="M18.79,281.58v-2.74c-1.99,2.19-4.73,3.34-7.97,3.34-4.09,0-8.42-2.74-8.42-7.97s4.34-7.92,8.42-7.92c3.29,0,6.03,1.05,7.97,3.29v-4.34c0-3.24-2.59-5.08-6.08-5.08-2.89,0-5.23,1.05-7.38,3.34l-1.74-2.59c2.59-2.69,5.68-3.99,9.62-3.99,5.08,0,9.32,2.29,9.32,8.12v16.54h-3.74ZM18.79,276.5v-4.53c-1.44-1.99-3.99-2.99-6.63-2.99-3.49,0-5.93,2.19-5.93,5.28s2.44,5.23,5.93,5.23c2.64,0,5.18-1,6.63-2.99h0Z"/>
      <path d="M43.91,281.58v-20.78h-3.99v-3.29h3.99v-1.84c0-4.98,2.79-7.82,6.98-7.82,1.39,0,2.69.25,3.64.85l-.95,2.84c-.55-.35-1.2-.6-2.14-.6-2.44,0-3.79,1.7-3.79,4.73v1.84h4.88v3.29h-4.88v20.78h-3.74ZM56.32,251.58c0-1.4,1.15-2.54,2.49-2.54s2.54,1.15,2.54,2.54-1.15,2.49-2.54,2.49-2.49-1.1-2.49-2.49ZM56.97,281.58v-24.07h3.74v24.07h-3.74Z"/>
      <path d="M68.23,281.58v-33.24h3.74v33.24h-3.74Z"/>
      <path d="M108.5,281.58v-16.35c0-3.04-1.35-4.98-4.44-4.98-2.49,0-5.13,1.79-6.38,3.69v17.64h-3.74v-16.35c0-3.04-1.3-4.98-4.44-4.98-2.44,0-5.03,1.79-6.33,3.74v17.59h-3.74v-24.07h3.74v3.49c1-1.54,4.23-4.09,7.77-4.09s5.78,1.99,6.48,4.48c1.35-2.19,4.58-4.48,8.07-4.48,4.38,0,6.73,2.44,6.73,7.27v17.39h-3.74.02,0Z"/>
      <path d="M132.57,281.58v-33.24h3.74v12.81c1.94-2.64,4.83-4.24,8.12-4.24,6.28,0,10.71,4.98,10.71,12.66s-4.43,12.61-10.71,12.61c-3.39,0-6.33-1.74-8.12-4.19v3.59h-3.74ZM143.49,278.84c4.88,0,7.77-3.94,7.77-9.27s-2.89-9.32-7.77-9.32c-2.94,0-5.88,1.79-7.18,3.89v10.91c1.3,2.09,4.23,3.79,7.18,3.79h0Z"/>
      <path d="M160.48,287.61c.55.25,1.44.4,2.04.4,1.64,0,2.74-.55,3.59-2.54l1.6-3.64-10.07-24.32h4.04l8.02,19.73,7.97-19.73h4.09l-12.06,28.95c-1.45,3.49-3.89,4.83-7.08,4.88-.8,0-2.04-.15-2.74-.35l.6-3.39h0Z"/>
    </g>
    <g>
      <path d="M32.2,335.35v-23.97l-9.37,23.97h-3.09l-9.37-23.97v23.97H3.29v-33.24h9.92l8.07,20.78,8.07-20.78h9.97v33.24h-7.13.01,0Z"/>
      <path d="M68.88,335.35l-2.09-5.63h-14.25l-2.09,5.63h-8.02l12.81-33.24h8.87l12.81,33.24h-8.04ZM59.66,309.19l-5.18,14.3h10.37l-5.18-14.3h-.01ZM60.06,299.08h-4.44l6.68-7.18h5.83l-8.07,7.18h0Z"/>
      <path d="M98.78,335.35l-6.53-11.81h-5.18v11.81h-7.08v-33.24h15.55c6.93,0,11.21,4.54,11.21,10.71,0,5.83-3.74,9.02-7.32,9.87l7.52,12.66h-8.17,0ZM99.48,312.78c0-2.74-2.14-4.44-4.93-4.44h-7.47v8.97h7.47c2.79,0,4.93-1.69,4.93-4.53Z"/>
      <path d="M112.04,335.35v-33.24h7.07v33.24h-7.07Z"/>
      <path d="M124.1,318.76c0-10.02,7.33-17.19,17.39-17.19s17.34,7.18,17.34,17.19-7.33,17.19-17.34,17.19-17.39-7.18-17.39-17.19ZM151.56,318.76c0-6.23-3.94-10.91-10.07-10.91s-10.12,4.68-10.12,10.91,3.94,10.91,10.12,10.91,10.07-4.73,10.07-10.91Z"/>
      <path d="M185.95,335.35l-12.81-33.24h8.02l9.22,25.51,9.22-25.51h8.02l-12.81,33.24h-8.87.01Z"/>
      <path d="M210.72,335.35v-33.24h23.52v6.23h-16.44v6.98h16.1v6.23h-16.1v7.57h16.44v6.23h-23.52Z"/>
      <path d="M239.47,335.35v-33.24h7.13v27.01h14.05v6.23h-21.18Z"/>
      <path d="M262.5,318.76c0-10.02,7.32-17.19,17.39-17.19s17.34,7.18,17.34,17.19-7.32,17.19-17.34,17.19-17.39-7.18-17.39-17.19ZM289.95,318.76c0-6.23-3.94-10.91-10.07-10.91s-10.12,4.68-10.12,10.91,3.94,10.91,10.12,10.91,10.07-4.73,10.07-10.91Z"/>
      <path d="M299.93,330.67l3.89-5.53c2.34,2.44,5.98,4.53,10.56,4.53,3.94,0,5.78-1.74,5.78-3.69,0-5.78-19.14-1.74-19.14-14.25,0-5.53,4.78-10.12,12.61-10.12,5.28,0,9.67,1.59,12.96,4.63l-3.94,5.28c-2.69-2.49-6.28-3.64-9.67-3.64-2.99,0-4.68,1.3-4.68,3.29,0,5.23,19.08,1.69,19.08,14.1,0,6.08-4.38,10.66-13.31,10.66-6.43,0-11.01-2.14-14.15-5.28v.02h.01,0Z"/>
      <path d="M330.52,318.76c0-10.02,7.33-17.19,17.39-17.19s17.34,7.18,17.34,17.19-7.33,17.19-17.34,17.19-17.39-7.18-17.39-17.19h0ZM357.98,318.76c0-6.23-3.94-10.91-10.07-10.91s-10.12,4.68-10.12,10.91,3.94,10.91,10.12,10.91,10.07-4.73,10.07-10.91Z"/>
    </g>
  </g>
  <g class="cls-2">
    <g>
      <path d="M329.21,40.29c1.29-2.22,2.55-11.19,2.55-11.19,0,0-7.13,5.58-8.42,7.8-1.28,2.23-1.62,4.44.61,5.72,2.22,1.28,3.97-.11,5.26-2.33h0ZM323.45,22.59c.88-2.41.57-11.47.57-11.47,0,0-6.06,6.74-6.93,9.15-.88,2.41-.82,4.65,1.59,5.53,2.41.88,3.89-.8,4.77-3.21h0ZM310.7,17.76c1.06-1.34.61-3.13-.51-4.91-1.36-2.18-8.68-7.51-8.68-7.51,0,0,1.58,8.92,2.94,11.1,1.09,1.74,2.46,2.92,4.08,2.63,7.64,11.24,12.24,25.23,12.24,40.47,0,36.92-26.66,66.85-59.55,66.85v2.74c34.24,0,61.99-31.16,61.99-69.59,0-15.7-4.69-30.14-12.5-41.78h-.01ZM311.97,30.63c-2-1.62-10.66-4.27-10.66-4.27,0,0,4.4,7.92,6.39,9.53,2,1.62,4.13,2.29,5.75.29s.51-3.94-1.48-5.56h0ZM314.52,77.48c-1.44-2.13-8.94-7.2-8.94-7.2,0,0,1.89,8.86,3.32,10.99,1.44,2.13,3.28,3.4,5.41,1.96,2.13-1.44,1.64-3.62.21-5.75h0ZM317.58,52.03c1.78-1.85.85-3.88-.99-5.67-1.85-1.78-10.24-5.18-10.24-5.18,0,0,3.69,8.27,5.54,10.06s3.91,2.64,5.7.79h-.01ZM317.15,61.52c-1.72-1.91-9.86-5.88-9.86-5.88,0,0,3.1,8.51,4.82,10.42,1.72,1.91,3.72,2.91,5.63,1.19,1.91-1.72,1.12-3.82-.59-5.72h0ZM300.52,83.03s.32,9.05,1.37,11.4,2.64,3.92,4.99,2.87c2.35-1.04,2.25-3.28,1.2-5.63s-7.56-8.64-7.56-8.64h0ZM300.26,102.7c-.88-2.41-6.93-9.15-6.93-9.15,0,0-.31,9.05.57,11.47.88,2.41,2.36,4.09,4.77,3.21,2.41-.88,2.47-3.11,1.59-5.53h0ZM291.1,111.03c-.53-2.51-5.59-10.02-5.59-10.02,0,0-1.57,8.92-1.03,11.43s1.77,4.38,4.28,3.84c2.51-.53,2.88-2.74,2.35-5.25h-.01,0ZM279.65,116.99c-.18-2.56-4.15-10.71-4.15-10.71,0,0-2.79,8.62-2.61,11.18.18,2.56,1.14,4.58,3.7,4.4,2.56-.18,3.23-2.31,3.06-4.88h0ZM287.54,126.09c-1.28,2.22.11,3.97,2.33,5.26,2.22,1.28,11.19,2.55,11.19,2.55,0,0-5.58-7.13-7.81-8.42-2.23-1.28-4.44-1.61-5.72.61h.01,0ZM304.71,121.52c2.53.45,11.39-1.43,11.39-1.43,0,0-7.68-4.79-10.21-5.24-2.53-.45-4.72,0-5.17,2.53s1.46,3.7,3.99,4.14h0ZM316.12,109.32c2.53-.45,10.21-5.24,10.21-5.24,0,0-8.86-1.88-11.39-1.43-2.53.45-4.44,1.62-3.99,4.15s2.64,2.97,5.17,2.53h0ZM331.74,86.18s-8.97,1.27-11.19,2.55c-2.22,1.28-3.62,3.03-2.33,5.26,1.28,2.22,3.5,1.89,5.72.61s7.81-8.42,7.81-8.42h-.01,0ZM329.01,77.32c1.97-1.65,6.23-9.64,6.23-9.64,0,0-8.61,2.8-10.58,4.46-1.97,1.65-3.04,3.62-1.39,5.58,1.65,1.97,3.77,1.26,5.74-.4h0ZM331.36,59.89c1.65-1.97,4.46-10.58,4.46-10.58,0,0-7.99,4.26-9.65,6.23-1.65,1.97-2.36,4.09-.39,5.74,1.97,1.65,3.93.58,5.58-1.39h0Z"/>
      <path d="M75.39,129.13v-2.74c-32.89,0-59.55-29.93-59.55-66.85,0-15.23,4.59-29.23,12.24-40.47,1.62.28,2.99-.89,4.08-2.63,1.36-2.18,2.94-11.1,2.94-11.1,0,0-7.32,5.33-8.69,7.51-1.11,1.78-1.56,3.57-.51,4.91-7.81,11.64-12.5,26.08-12.5,41.78,0,38.44,27.75,69.59,61.99,69.59h0ZM63.71,117.46c.18-2.56-2.62-11.18-2.62-11.18,0,0-3.96,8.14-4.14,10.71-.18,2.56.49,4.7,3.05,4.88,2.56.18,3.52-1.84,3.7-4.4h.01ZM52.13,112.44c.54-2.51-1.03-11.43-1.03-11.43,0,0-5.06,7.51-5.59,10.02-.53,2.51-.17,4.72,2.35,5.25,2.51.54,3.75-1.33,4.28-3.84h-.01ZM42.71,105.01c.88-2.41.57-11.47.57-11.47,0,0-6.06,6.73-6.93,9.15-.88,2.42-.82,4.65,1.59,5.53s3.89-.8,4.77-3.21h0ZM34.73,94.43c1.04-2.35,1.37-11.4,1.37-11.4,0,0-6.51,6.3-7.56,8.64-1.05,2.35-1.14,4.58,1.2,5.63,2.35,1.04,3.94-.52,4.99-2.87h0ZM23.15,36.19c1.62,2,3.75,1.32,5.75-.29,2-1.62,6.39-9.53,6.39-9.53,0,0-8.66,2.65-10.66,4.27-2,1.62-3.1,3.56-1.48,5.56h0ZM20.02,46.37c-1.85,1.79-2.78,3.82-.99,5.67,1.78,1.85,3.85.99,5.7-.79s5.54-10.06,5.54-10.06c0,0-8.39,3.4-10.24,5.18h-.01ZM22.09,77.48c-1.44,2.13-1.92,4.31.21,5.75s3.97.17,5.41-1.96,3.32-10.99,3.32-10.99c0,0-7.5,5.07-8.94,7.2h0ZM18.86,67.24c1.91,1.72,3.91.72,5.63-1.19s4.82-10.42,4.82-10.42c0,0-8.14,3.98-9.86,5.88-1.72,1.9-2.5,4-.6,5.72h.01,0ZM19.52,20.27c-.88-2.41-6.93-9.15-6.93-9.15,0,0-.31,9.05.57,11.47.88,2.41,2.36,4.09,4.77,3.21,2.41-.88,2.47-3.11,1.59-5.53h0ZM13.27,36.9c-1.28-2.22-8.42-7.8-8.42-7.8,0,0,1.27,8.97,2.55,11.19s3.03,3.62,5.26,2.33c2.22-1.28,1.89-3.5.61-5.72h0ZM10.44,55.54c-1.65-1.97-9.65-6.23-9.65-6.23,0,0,2.8,8.61,4.46,10.58,1.65,1.97,3.62,3.04,5.58,1.39,1.97-1.65,1.26-3.77-.39-5.74h0ZM11.95,72.13c-1.97-1.65-10.58-4.46-10.58-4.46,0,0,4.26,7.99,6.22,9.64,1.97,1.65,4.09,2.36,5.74.4,1.65-1.97.58-3.93-1.38-5.58h0ZM16.06,88.73c-2.22-1.29-11.19-2.55-11.19-2.55,0,0,5.58,7.13,7.81,8.42,2.22,1.29,4.44,1.62,5.72-.61,1.29-2.23-.11-3.98-2.33-5.26h0,0ZM10.28,104.08s7.68,4.79,10.21,5.24,4.72,0,5.17-2.53-1.46-3.7-3.99-4.15-11.39,1.43-11.39,1.43h0ZM30.72,114.85c-2.53.45-10.21,5.24-10.21,5.24,0,0,8.86,1.88,11.39,1.43s4.44-1.61,3.99-4.14-2.64-2.98-5.17-2.53h0ZM35.55,133.9s8.97-1.27,11.19-2.55,3.62-3.03,2.33-5.26c-1.29-2.22-3.5-1.89-5.72-.61-2.22,1.29-7.81,8.42-7.81,8.42h.01Z"/>
      <path d="M155.33,167.62l1.96-1.64c1.46-1.21,3.2-2.72,3.2-4.63,0-1.79-1.17-3.23-3.64-3.23-2.26,0-3.72,1.39-3.72,3.55,0,.32.05.65.17.99l1.42.07c-.12-.3-.17-.64-.17-.96,0-1.54.84-2.43,2.3-2.43s2.15.84,2.15,2.08c0,1.54-1.28,2.62-2.97,4.06l-3,2.56v.84h7.79v-1.26h-5.5.01ZM170.2,163.6c0-3.51-1.61-5.48-4.37-5.48s-4.39,1.98-4.39,5.48,1.62,5.48,4.39,5.48,4.37-1.98,4.37-5.48h0ZM168.69,163.6c0,2.87-.92,4.31-2.87,4.31s-2.87-1.44-2.87-4.31.92-4.31,2.87-4.31,2.87,1.44,2.87,4.31h0ZM173.33,167.62l1.96-1.64c1.46-1.21,3.2-2.72,3.2-4.63,0-1.79-1.17-3.23-3.64-3.23-2.26,0-3.72,1.39-3.72,3.55,0,.32.05.65.17.99l1.42.07c-.12-.3-.17-.64-.17-.96,0-1.54.84-2.43,2.3-2.43s2.15.84,2.15,2.08c0,1.54-1.28,2.62-2.97,4.06l-3,2.56v.84h7.79v-1.26h-5.5.01ZM183.57,168.88v-10.63h-.95c-.3,1.24-.79,1.58-2.56,1.58h-.75v1.07h2.82v7.98h1.46-.02Z"/>
      <path d="M118.62,152.12v-7.5h3.84v7.5h3.14v-9.67h-6.97v-.11c0-1.24.72-2.05,2.07-2.05,1.05,0,1.68.48,1.92,1.09l2.13-1.24c-.65-1.13-2.05-2-4.31-2-2.92,0-4.92,1.72-4.92,4.16v.15h-1.63v2.18h1.63v7.5h3.11-.01ZM127.33,138.39v13.73h3.16v-13.73h-3.16ZM141.82,144.31c-.41-1.26-1.5-2.13-3.2-2.13-1.44,0-2.9.85-3.34,2v-1.74h-3.16v9.67h3.16v-4.86c0-1.55.76-2.64,1.99-2.64,1.11,0,1.72.76,1.72,2.16v5.34h3.13v-4.86c0-1.55.76-2.64,1.99-2.64,1.11,0,1.74.76,1.74,2.16v5.34h3.13v-6.06c0-2.07-.98-3.88-3.53-3.88-1.81,0-3.18.98-3.64,2.13h.01ZM155.82,144.62v7.5h3.11v-7.5h2.51v-2.18h-2.51v-.33c0-1.2.63-1.77,1.59-1.77,1.07,0,1.55.59,1.74,1.11l1.7-1.37c-.57-1.11-1.81-1.96-3.79-1.96-2.53,0-4.36,1.5-4.36,3.9v.41h-1.63v2.18h1.64ZM169.29,148.8c-.41.87-1.15,1.29-2.22,1.29-1.44,0-2.33-.96-2.36-2.31h7.06v-.78c0-2.6-1.63-4.82-4.9-4.82-3.01,0-5.27,2.2-5.27,5.25s2.2,4.95,5.34,4.95c2.42,0,4.14-.94,4.79-2.83l-2.44-.74h0ZM164.78,146.3c.17-1.07.85-1.94,2.09-1.94s1.96.9,2.01,1.94h-4.1ZM172.01,150.24c.98,1.42,3.18,2.13,5.19,2.13,2.77,0,4.53-1.26,4.53-3.25,0-1.63-1.28-2.46-2.94-2.83l-2.6-.57c-.54-.11-.83-.35-.83-.7,0-.52.63-.76,1.31-.76,1.22,0,2.18.37,2.92,1.16l1.74-1.33c-1-1.2-2.44-1.92-4.66-1.92-2.53,0-4.21,1.33-4.21,3.09s1.29,2.64,3.22,3.03l2.03.39c.66.13,1.11.3,1.11.81,0,.55-.66.79-1.64.79-1.2,0-2.59-.5-3.2-1.44l-1.98,1.4h.01ZM181.86,142.44v2.18h1.81v4.03c0,2.57,1.68,3.72,3.81,3.72,1.94,0,3.23-1.02,3.95-2.09l-1.53-1.83c-.57.94-.92,1.4-1.87,1.4-.81,0-1.31-.54-1.31-1.44v-3.79h3.57v-2.18h-3.57v-2.99l-3.05.61v2.37h-1.81ZM191.89,141.04h3.35v-2.66h-3.35v2.66h0ZM192,142.44v9.67h3.16v-9.67h-3.16ZM202.95,152.12l3.83-9.67h-2.9l-2.46,6.49h-.09l-2.35-6.49h-3.31l3.83,9.67h3.45ZM209.46,145.79c.13-.76.87-1.4,2.07-1.4.85,0,1.35.33,1.35,1.11v.33l-3.1.78c-1.89.48-3.44,1.18-3.44,2.92s1.33,2.72,3.16,2.72c1.64,0,2.9-.7,3.45-1.85.2,1.11,1.24,1.94,2.63,1.94.78,0,1.5-.22,2.24-.67l-.22-1.87c-.26.24-.72.44-1.09.44-.39,0-.67-.22-.67-.68v-3.9c0-2.53-1.63-3.48-4.16-3.48s-4.29,1.2-4.99,2.9l2.77.72h0ZM212.88,148.13c0,1.33-1.13,2.12-2.29,2.12-.7,0-1.16-.39-1.16-1.03,0-.74.61-1.09,1.42-1.33l2.03-.57v.81h0ZM218.6,138.39v13.73h3.16v-13.73h-3.16Z"/>
      <path d="M107.85,124.28h3.35v-2.66h-3.35v2.66h0ZM107.95,125.68v9.67h3.16v-9.67h-3.16ZM115.92,130.49c0-1.55.81-2.64,2.09-2.64,1.18,0,1.81.76,1.81,2.16v5.34h3.16v-6.06c0-2.07-1.07-3.88-3.7-3.88-1.5,0-2.9.85-3.36,2v-1.74h-3.16v9.67h3.16v-4.86h0ZM123.46,125.68v2.18h1.81v4.03c0,2.57,1.68,3.72,3.81,3.72,1.94,0,3.22-1.02,3.94-2.09l-1.53-1.83c-.57.94-.92,1.4-1.87,1.4-.81,0-1.31-.54-1.31-1.44v-3.79h3.57v-2.18h-3.57v-2.99l-3.05.61v2.37h-1.81,0ZM140.66,132.04c-.41.87-1.16,1.29-2.22,1.29-1.44,0-2.33-.96-2.36-2.31h7.06v-.78c0-2.6-1.63-4.82-4.9-4.82-3.01,0-5.27,2.2-5.27,5.25s2.2,4.95,5.34,4.95c2.42,0,4.14-.94,4.79-2.83l-2.44-.74h0ZM136.15,129.53c.17-1.07.85-1.94,2.09-1.94s1.96.9,2.01,1.94h-4.1ZM149.63,127.98c1,0,1.46.63,1.46,1.53,0,.17,0,.37-.04.52l2.57-1.02s.02-.13.02-.17c0-2.03-1.04-3.42-3.01-3.42-1.66,0-2.7,1.2-3.21,2.31v-2.05h-3.13v9.67h3.13v-4.19c0-1.76.74-3.18,2.2-3.18h.01ZM157.42,130.49c0-1.55.81-2.64,2.09-2.64,1.18,0,1.81.76,1.81,2.16v5.34h3.16v-6.06c0-2.07-1.07-3.88-3.7-3.88-1.5,0-2.9.85-3.36,2v-1.74h-3.16v9.67h3.16v-4.86h0ZM168.51,129.03c.13-.76.87-1.4,2.07-1.4.85,0,1.35.33,1.35,1.11v.33l-3.1.78c-1.9.48-3.44,1.18-3.44,2.92s1.33,2.72,3.16,2.72c1.64,0,2.9-.7,3.45-1.85.2,1.11,1.24,1.94,2.63,1.94.79,0,1.5-.22,2.25-.67l-.22-1.87c-.26.24-.72.44-1.09.44-.39,0-.67-.22-.67-.68v-3.9c0-2.53-1.63-3.48-4.16-3.48s-4.29,1.2-4.99,2.9l2.77.72h-.01ZM171.93,131.36c0,1.33-1.13,2.12-2.29,2.12-.7,0-1.16-.39-1.16-1.03,0-.74.61-1.09,1.42-1.33l2.03-.57v.81h0ZM175.88,125.68v2.18h1.81v4.03c0,2.57,1.68,3.72,3.81,3.72,1.94,0,3.23-1.02,3.95-2.09l-1.53-1.83c-.57.94-.92,1.4-1.87,1.4-.81,0-1.31-.54-1.31-1.44v-3.79h3.57v-2.18h-3.57v-2.99l-3.05.61v2.37h-1.81ZM185.92,124.28h3.35v-2.66h-3.35v2.66h0ZM186.03,125.68v9.67h3.16v-9.67h-3.16ZM201.03,130.51c0-2.99-2.31-5.1-5.4-5.1s-5.42,2.11-5.42,5.1,2.33,5.1,5.42,5.1,5.4-2.09,5.4-5.1h0ZM193.43,130.51c0-1.68.81-2.81,2.2-2.81s2.2,1.13,2.2,2.81-.81,2.81-2.2,2.81-2.2-1.13-2.2-2.81h0ZM205.26,130.49c0-1.55.81-2.64,2.09-2.64,1.18,0,1.81.76,1.81,2.16v5.34h3.16v-6.06c0-2.07-1.07-3.88-3.7-3.88-1.5,0-2.9.85-3.36,2v-1.74h-3.16v9.67h3.16v-4.86h0ZM216.35,129.03c.13-.76.87-1.4,2.07-1.4.85,0,1.35.33,1.35,1.11v.33l-3.1.78c-1.89.48-3.44,1.18-3.44,2.92s1.33,2.72,3.16,2.72c1.63,0,2.9-.7,3.45-1.85.2,1.11,1.24,1.94,2.63,1.94.78,0,1.5-.22,2.25-.67l-.22-1.87c-.26.24-.72.44-1.09.44-.39,0-.68-.22-.68-.68v-3.9c0-2.53-1.63-3.48-4.16-3.48s-4.29,1.2-4.99,2.9l2.76.72h0ZM219.77,131.36c0,1.33-1.13,2.12-2.29,2.12-.7,0-1.16-.39-1.16-1.03,0-.74.61-1.09,1.42-1.33l2.03-.57v.81h0ZM225.49,121.62v13.73h3.16v-13.73h-3.16Z"/>
      <path d="M132.51,113.95c0,1.55-1,2.55-2.31,2.55-1.5,0-2.36-1.18-2.36-2.75s.85-2.75,2.36-2.75c1.31,0,2.31,1,2.31,2.55v.39h0ZM132.44,118.59h3.16v-13.73h-3.16v5.84c-.52-1.2-1.59-2.05-3.25-2.05-2.85,0-4.53,2.26-4.53,5.1s1.68,5.1,4.53,5.1c1.66,0,2.73-.85,3.25-2.05v1.79h0ZM147.49,113.75c0-2.99-2.31-5.1-5.4-5.1s-5.42,2.11-5.42,5.1,2.33,5.1,5.42,5.1,5.4-2.09,5.4-5.1h0ZM139.88,113.75c0-1.68.81-2.81,2.2-2.81s2.2,1.13,2.2,2.81-.81,2.81-2.2,2.81-2.2-1.13-2.2-2.81h0ZM155.38,114.71c-.24,1.09-.89,1.77-1.98,1.77-1.26,0-2.2-.94-2.2-2.73s.94-2.73,2.22-2.73c1,0,1.61.59,1.9,1.55l2.68-.79c-.54-1.85-2.16-3.14-4.71-3.14-3.12,0-5.31,2.02-5.31,5.1s2.2,5.1,5.31,5.1c2.7,0,4.36-1.46,4.82-3.44l-2.72-.7h0ZM158.98,104.86v13.73h3.16v-13.73h-3.16ZM163.67,107.51h3.35v-2.66h-3.35v2.66h0ZM163.78,108.91v9.67h3.16v-9.67h-3.16ZM167.75,116.71c.98,1.42,3.18,2.13,5.19,2.13,2.77,0,4.53-1.26,4.53-3.25,0-1.63-1.28-2.46-2.94-2.83l-2.6-.57c-.54-.11-.83-.35-.83-.7,0-.52.63-.76,1.31-.76,1.22,0,2.18.37,2.92,1.16l1.74-1.33c-1-1.2-2.44-1.92-4.66-1.92-2.53,0-4.21,1.33-4.21,3.09s1.29,2.64,3.22,3.03l2.03.39c.66.13,1.11.3,1.11.81,0,.55-.66.79-1.64.79-1.2,0-2.59-.5-3.2-1.44l-1.98,1.4h.01ZM181.54,116.82c.5,1.24,1.74,2.02,3.31,2.02,2.96,0,4.64-2.24,4.64-5.1s-1.68-5.1-4.53-5.1c-1.68,0-2.75.85-3.25,2.05v-5.84h-3.16v13.73h2.33l.65-1.76h.01ZM181.65,113.55c0-1.55.98-2.55,2.31-2.55,1.5,0,2.33,1.18,2.33,2.75s-.83,2.75-2.33,2.75c-1.33,0-2.31-1-2.31-2.55v-.39h0ZM200.83,113.75c0-2.99-2.31-5.1-5.4-5.1s-5.43,2.11-5.43,5.1,2.33,5.1,5.43,5.1,5.4-2.09,5.4-5.1h0ZM193.23,113.75c0-1.68.81-2.81,2.2-2.81s2.2,1.13,2.2,2.81-.81,2.81-2.2,2.81-2.2-1.13-2.2-2.81h0ZM204.28,112.27c.13-.76.87-1.4,2.07-1.4.85,0,1.35.33,1.35,1.11v.33l-3.1.78c-1.89.48-3.44,1.18-3.44,2.92s1.33,2.72,3.16,2.72c1.64,0,2.9-.7,3.45-1.85.2,1.11,1.24,1.94,2.63,1.94.78,0,1.5-.22,2.24-.67l-.22-1.87c-.26.24-.72.44-1.09.44-.39,0-.67-.22-.67-.68v-3.9c0-2.53-1.63-3.48-4.16-3.48s-4.29,1.2-4.99,2.9l2.77.72h0ZM207.7,114.6c0,1.33-1.13,2.12-2.29,2.12-.7,0-1.16-.39-1.16-1.03,0-.74.61-1.09,1.42-1.33l2.03-.57v.81h0Z"/>
      <path d="M124.39,74.45h10.08v8.68h2.34v-19.24h-2.34v8.47h-10.08v-8.47h-2.34v19.24h2.34v-8.68h0ZM146.25,83.45c3.72,0,5.96-2.82,5.96-6.97s-1.96-6.94-5.91-6.94c-3.7,0-5.96,2.84-5.96,6.94s2.01,6.97,5.91,6.97h0ZM146.27,71.28c2.54,0,3.6,1.99,3.6,5.21s-1.08,5.21-3.55,5.21-3.65-1.96-3.65-5.21,1.18-5.21,3.6-5.21h0ZM163.7,83.13h2.26v-9.23c0-3.14-1.68-4.35-4.22-4.35-2.11,0-3.65,1.21-4.27,2.56h-.05v-2.24h-2.14v13.25h2.26v-7.95c0-2.16,1.13-3.75,3.6-3.75.88,0,1.63.25,2.09.88.48.63.48,1.68.48,2.64v8.17h0v.02h-.01ZM169.82,83.13h2.26v-7.22c0-2.56,1.56-3.92,3.92-3.92h.43v-2.36h-.23c-1.94,0-3.6,1.36-4.2,2.74h-.05v-2.49h-2.14v13.25h.01ZM183.88,83.45c3.72,0,5.96-2.82,5.96-6.97s-1.96-6.94-5.91-6.94c-3.7,0-5.96,2.84-5.96,6.94s2.01,6.97,5.91,6.97h0ZM183.9,71.28c2.54,0,3.6,1.99,3.6,5.21s-1.08,5.21-3.55,5.21-3.65-1.96-3.65-5.21,1.18-5.21,3.6-5.21h0ZM201.83,73.19c-.23-2.31-1.86-3.65-4.73-3.65-3.02,0-4.8,1.68-4.8,4.02s1.26,3.29,3.62,3.67l2.04.3c1.81.3,2.09.88,2.09,1.94,0,1.38-1.13,2.24-2.94,2.24-2.34,0-2.92-1.31-3.02-2.34h-2.21c.18,2.84,2.44,4.07,5.18,4.07,3.02,0,5.18-1.43,5.18-4.1,0-2.29-1.01-3.42-3.77-3.85l-2.04-.3c-1.33-.23-1.99-.73-1.99-1.81,0-1.23,1.03-2.14,2.59-2.14s2.51.75,2.64,1.94h2.16,0ZM209.05,81.52c-1.43,0-2.31-.73-2.31-2.09,0-.7.23-1.26.73-1.63.85-.63,2.49-.85,5.36-.98v.3c0,3.27-2.09,4.4-3.77,4.4h-.01ZM207.29,73.49c.08-1.13.8-2.26,2.77-2.26s2.77.93,2.77,3.32v.58c-2.97.1-5.03.35-6.41,1.08-1.36.68-1.99,1.89-1.99,3.34,0,2.36,1.56,3.8,4.2,3.8,1.96,0,3.55-.91,4.25-2.46h.05c.23,1.58.93,2.34,3.04,2.34h.28v-1.84c-.98-.03-1.21-.45-1.21-1.51v-5.41c0-3.55-1.61-4.93-4.9-4.93s-4.95,1.61-5,3.95h2.16-.01Z"/>
      <path d="M124.44,57.98h2.26v-16.52h.08s.35,1.01,1.03,3.02l4.73,13.5h2.21l4.85-13.5c.73-2.04,1.03-3.02,1.03-3.02h.08v16.52h2.39v-19.24h-3.52l-4.95,13.78c-.6,1.68-.85,2.51-.85,2.51h-.05s-.25-.83-.85-2.51l-4.88-13.78h-3.55v19.24s-.01,0,0,0h-.01ZM155.77,50.18h-6.79c.28-2.41,1.43-4.07,3.55-4.07,2.31,0,3.19,1.71,3.24,3.92v.15h0ZM157.91,54.51h-2.19c-.23.78-.8,2.06-3.02,2.06-2.49,0-3.6-1.86-3.75-4.6h9.13v-1.16c0-3.34-1.56-6.41-5.53-6.41s-5.91,3.09-5.91,7.02,1.94,6.89,5.98,6.89c2.84,0,4.8-1.51,5.28-3.8h.01,0ZM169.58,57.98h2.26v-9.23c0-3.14-1.68-4.35-4.22-4.35-2.11,0-3.65,1.21-4.27,2.56h-.05v-2.24h-2.14v13.25h2.26v-7.95c0-2.16,1.13-3.75,3.6-3.75.88,0,1.63.25,2.09.88.48.63.48,1.68.48,2.64v8.17h0v.02h-.01ZM180.71,63.31c1.61,0,2.34-1.01,2.34-2.04,0-1.18-.68-1.91-1.79-1.91-.43,0-.73.13-.91.28h-.05l.65-1.36c2.74-.1,4.78-1.66,5.1-4.63h-2.11c-.08,1.01-.73,2.87-3.24,2.87-2.67,0-3.6-2.14-3.6-5.21s1.26-5.18,3.65-5.18c1.91,0,2.87,1.23,3.02,2.59h2.21c-.23-3.12-2.62-4.33-5.26-4.33-3.72,0-5.93,2.97-5.93,7.02s1.79,6.49,5.1,6.81l-1.18,2.46h1.36c.15-.18.35-.3.68-.3.55,0,.8.38.8.91s-.25.91-.8.91c-.43,0-.68-.23-.75-.55h-1.43c.08.88.6,1.66,2.14,1.66h0ZM192.81,56.37c-1.43,0-2.31-.73-2.31-2.09,0-.7.23-1.26.73-1.63.85-.63,2.49-.85,5.36-.98v.3c0,3.27-2.09,4.4-3.77,4.4h-.01ZM191.05,48.35c.08-1.13.8-2.26,2.77-2.26s2.77.93,2.77,3.32v.58c-2.97.1-5.03.35-6.41,1.08-1.36.68-1.99,1.89-1.99,3.34,0,2.36,1.56,3.8,4.2,3.8,1.96,0,3.55-.91,4.25-2.46h.05c.23,1.58.93,2.34,3.04,2.34h.28v-1.84c-.98-.03-1.21-.45-1.21-1.51v-5.41c0-3.55-1.61-4.93-4.9-4.93s-4.95,1.61-5,3.95h2.16-.01ZM189.51,42.29h1.41c.13-1.06.55-1.61,1.16-1.61.98,0,2.06,1.56,3.72,1.56,1.76,0,2.64-1.63,2.64-3.39h-1.41c-.13,1.06-.55,1.63-1.18,1.63-.88,0-2.04-1.58-3.7-1.58-1.76,0-2.64,1.63-2.64,3.39h0ZM207.62,58.31c3.72,0,5.96-2.82,5.96-6.97s-1.96-6.94-5.91-6.94c-3.7,0-5.96,2.84-5.96,6.94s2.01,6.97,5.91,6.97h0ZM207.64,46.14c2.54,0,3.6,1.99,3.6,5.21s-1.08,5.21-3.55,5.21-3.65-1.96-3.65-5.21,1.18-5.21,3.6-5.21h0Z"/>
      <path d="M96.72,32.83h4.73l6.44-19.24h-3.97l-4,12.5c-.58,1.84-.68,2.84-.68,2.84h-.05s-.1-1.01-.68-2.87l-3.95-12.47h-4.33l6.49,19.24h0ZM116.9,24.74h-5.08c.2-2.06,1.06-3.22,2.69-3.22,1.51,0,2.26,1.13,2.39,3.04v.18h0ZM120.84,28.91h-3.92c-.25.8-.75,1.58-2.34,1.58-1.68,0-2.59-1.06-2.77-3.47h9.15v-1.06c0-3.95-1.91-6.94-6.46-6.94-4.25,0-6.71,2.92-6.71,7.04s2.31,7.12,6.66,7.12c3.65,0,5.98-1.66,6.39-4.27h0ZM123.47,32.83h3.97v-6.66c0-2.59,1.38-3.42,3.82-3.42h.7v-3.62h-.23c-1.81,0-3.7,1.03-4.45,3.07h-.05v-2.84h-3.77v13.48h0ZM142.93,27.1c0,1.94-.98,3.39-2.82,3.39-1.96,0-2.79-1.61-2.79-4.35,0-2.94,1.11-4.35,2.89-4.35,1.66,0,2.72,1.33,2.72,3.7v1.61h0ZM146.88,13.02h-4v8.12h-.05c-.63-1.26-1.96-2.06-3.7-2.06-3.34,0-5.88,2.44-5.88,7.19s2.16,6.92,5.73,6.92c2.11,0,3.32-1.16,4.02-2.34h.05v1.99h3.82V13.02h.01ZM158.44,24.74h-5.08c.2-2.06,1.06-3.22,2.69-3.22,1.51,0,2.26,1.13,2.39,3.04v.18h0ZM162.39,28.91h-3.92c-.25.8-.75,1.58-2.34,1.58-1.68,0-2.59-1.06-2.77-3.47h9.15v-1.06c0-3.95-1.91-6.94-6.46-6.94-4.25,0-6.71,2.92-6.71,7.04s2.31,7.12,6.66,7.12c3.65,0,5.98-1.66,6.39-4.27h0ZM175.48,23.1c-.18-2.36-1.91-4.07-5.43-4.07-3.82,0-5.58,2.09-5.58,4.43s1.43,3.67,3.95,4.02l2.16.3c1.26.18,1.61.58,1.61,1.38,0,.98-.85,1.48-2.14,1.48-1.58,0-2.21-.78-2.26-1.74h-3.67c.18,2.41,1.89,4.3,5.91,4.3,3.42,0,5.86-1.61,5.86-4.6,0-2.44-1.43-3.65-3.9-3.97l-2.29-.3c-1.16-.15-1.56-.6-1.56-1.36,0-.8.65-1.41,1.89-1.41s1.86.68,1.94,1.53h3.52-.01,0ZM192.51,17.14h.05s.2,1.13.73,2.82l1.76,5.58h-5.08l1.79-5.61c.5-1.56.73-2.69.75-2.79h0ZM197.47,32.83h4.33l-6.81-19.24h-4.63l-6.71,19.24h3.95l1.41-4.27h7.07l1.41,4.27h-.02ZM212.68,32.83h4v-8.75c0-3.32-1.33-5-4.58-5-2.31,0-3.65,1.13-4.38,2.49h-.05v-2.21h-3.85v13.48h4v-7.8c0-1.96.93-3.09,2.72-3.09.75,0,1.36.25,1.74.78.35.5.4,1.28.4,2.24v7.87h0ZM225.83,33.18c4.05,0,6.84-2.69,6.84-7.09s-2.69-7.07-6.81-7.07-6.84,2.64-6.84,7.07,2.56,7.09,6.81,7.09h0ZM225.86,21.72c1.96,0,2.67,1.79,2.67,4.38s-.65,4.4-2.67,4.4-2.72-1.79-2.72-4.4.73-4.38,2.72-4.38h0ZM245.57,23.1c-.18-2.36-1.91-4.07-5.43-4.07-3.82,0-5.58,2.09-5.58,4.43s1.43,3.67,3.95,4.02l2.16.3c1.26.18,1.61.58,1.61,1.38,0,.98-.85,1.48-2.14,1.48-1.58,0-2.21-.78-2.26-1.74h-3.67c.18,2.41,1.89,4.3,5.91,4.3,3.42,0,5.86-1.61,5.86-4.6,0-2.44-1.43-3.65-3.9-3.97l-2.29-.3c-1.16-.15-1.56-.6-1.56-1.36,0-.8.65-1.41,1.89-1.41s1.86.68,1.94,1.53h3.52-.01,0Z"/>
      <rect x="105.44" y="95.16" width="125.73" height=".29"/>
    </g>
  </g>
  <g>
    <path d="M8.7,446.72c0-47.01,36.46-79.11,83.7-79.11s83.7,32.11,83.7,79.11-36.46,79.11-83.7,79.11S8.7,493.72,8.7,446.72h0ZM129.09,446.72c0-21.33-14.45-38.29-36.69-38.29s-36.69,16.97-36.69,38.29,14.45,38.29,36.69,38.29,36.69-16.97,36.69-38.29h0Z"/>
    <path d="M192.61,460.25v-90.12h47.01v88.51c0,14.68,9.63,26.37,28.66,26.37s28.44-11.7,28.44-26.37v-88.51h47.01v89.89c0,38.07-23.85,65.81-75.44,65.81s-75.67-27.75-75.67-65.58h-.01Z"/>
    <path d="M452.66,523.08l-21.1-48.16h-16.74v48.16h-46.32v-152.95h81.64c35.77,0,55.04,23.85,55.04,52.51,0,26.37-15.37,40.36-27.52,46.32l27.75,54.12h-52.75ZM458.16,422.41c0-8.26-7.34-11.93-15.14-11.93h-28.21v24.08h28.21c7.8,0,15.14-3.67,15.14-12.15Z"/>
    <path d="M512.28,501.52l24.08-34.39c11.47,11.01,28.66,19.72,49.3,19.72,8.71,0,16.97-2.29,16.97-8.26,0-14.68-85.3.23-85.3-60.08,0-25.91,21.55-50.68,63.52-50.68,24.99,0,47.47,7.11,64.9,21.33l-24.77,32.79c-13.3-10.09-30.5-15.14-44.95-15.14-9.17,0-11.7,2.98-11.7,6.88,0,14.44,85.08,2.06,85.08,58.93,0,33.71-25,53.2-66.04,53.2-32.56,0-54.81-9.63-71.09-24.31h0Z"/>
    <path d="M723.02,523.08v-152.95h46.32v152.95h-46.32Z"/>
    <path d="M782.41,501.52l24.08-34.39c11.47,11.01,28.66,19.72,49.3,19.72,8.71,0,16.97-2.29,16.97-8.26,0-14.68-85.3.23-85.3-60.08,0-25.91,21.55-50.68,63.52-50.68,24.99,0,47.47,7.11,64.9,21.33l-24.77,32.79c-13.3-10.09-30.5-15.14-44.95-15.14-9.17,0-11.7,2.98-11.7,6.88,0,14.44,85.08,2.06,85.08,58.93,0,33.71-25,53.2-66.04,53.2-32.56,0-54.81-9.63-71.09-24.31h0Z"/>
    <path d="M1025.95,523.08v-112.59h-41.05v-40.36h128.19v40.36h-40.82v112.59h-46.32Z"/>
    <path d="M1230.73,523.08v-58.47h-54.81v58.47h-46.32v-152.95h46.32v54.12h54.81v-54.12h46.32v152.95h-46.32Z"/>
    <path d="M1301.82,523.08v-152.95h116.03v40.36h-69.71v15.14h68.11v40.36h-68.11v16.74h69.71v40.36h-116.03Z"/>
    <path d="M133.68,734.61l-19.72-86.68-19.72,86.68h-48.61L1.83,581.66h51.82l19.72,93.56,23.16-93.56h34.86l23.16,93.56,19.49-93.56h52.06l-43.8,152.95h-48.62Z"/>
    <path d="M337.77,734.61l-5.5-17.89h-55.03l-5.5,17.89h-52.51l56.41-152.95h58.25l56.41,152.95h-52.53ZM304.75,627.06l-15.13,49.3h30.27l-15.14-49.3Z"/>
    <path d="M386.84,713.05l24.08-34.39c11.47,11.01,28.66,19.72,49.3,19.72,8.71,0,16.97-2.29,16.97-8.26,0-14.68-85.3.23-85.3-60.08,0-25.91,21.55-50.68,63.52-50.68,24.99,0,47.47,7.11,64.9,21.33l-24.77,32.79c-13.3-10.09-30.5-15.14-44.95-15.14-9.17,0-11.7,2.98-11.7,6.88,0,14.44,85.08,2.06,85.08,58.93,0,33.71-25,53.2-66.04,53.2-32.56,0-54.81-9.63-71.09-24.31h0Z"/>
    <path d="M571.9,734.61v-112.59h-41.05v-40.36h128.19v40.36h-40.82v112.59h-46.32Z"/>
    <path d="M675.55,734.61v-152.95h116.03v40.36h-69.71v15.14h68.11v40.36h-68.11v16.74h69.71v40.36h-116.03,0Z"/>
    <path d="M812.22,734.61v-152.95h46.32v112.59h58.02v40.36h-104.34Z"/>
    <path d="M1037.18,734.61l-5.5-17.89h-55.03l-5.5,17.89h-52.51l56.41-152.95h58.25l56.41,152.95h-52.53ZM1004.16,627.06l-15.13,49.3h30.27l-15.14-49.3Z"/>
    <path d="M1200.69,734.61l-56.41-77.51v77.51h-46.32v-152.95h47.7l53.2,72.46v-72.46h46.32v152.95h-44.49,0Z"/>
    <path d="M1269.94,734.61v-152.95h68.34c48.16,0,83.93,27.52,83.93,76.36s-35.77,76.59-83.7,76.59h-68.57ZM1375.2,658.02c0-20.64-11.93-36-36.69-36h-22.24v72.23h22.01c23.16,0,36.92-16.97,36.92-36.23h0Z"/>
  </g>
</svg>