<?xml version="1.0" encoding="UTF-8"?>
<svg id="Camada_1" data-name="Camada 1" xmlns="http://www.w3.org/2000/svg" xmlns:xlink="http://www.w3.org/1999/xlink" viewBox="0 0 1415.64 593.5">
  <g>
    <path d="M5.96,590.18l-.66-12.62,20.26-4.98c0-1.55.06-3.93.17-7.14s.17-7.03.17-11.46.05-9.24.17-14.45c.11-5.2.17-10.35.17-15.45v-62.44c0-10.19-.05-18.77-.17-25.74-.11-6.98-.28-12.4-.5-16.28-.22-3.87-.44-6.25-.66-7.14l-20.59-4.65,1-12.62h72.74c20.81,0,36.7,4.04,47.66,12.12s16.44,19.98,16.44,35.71c0,10.85-2.99,20.54-8.97,29.06s-14.34,15.22-25.08,20.09c-10.74,4.87-22.97,7.31-36.7,7.31h-21.26v-14.95h18.93c13.73,0,24.41-3.43,32.05-10.3,7.64-6.86,11.46-16.39,11.46-28.56s-3.32-20.65-9.96-26.74c-6.64-6.09-16.17-9.14-28.57-9.14h-19.26c-.22.44-.39,1.33-.5,2.66-.11,1.33-.17,3.54-.17,6.64v104.96c0,9.52.05,17.49.17,23.92.11,6.42.33,11.57.67,15.45.33,3.87.61,6.92.83,9.13l19.6,4.98-1,12.62H5.96ZM163.4,593.5c-9.74,0-18.38-1.83-25.91-5.48-7.53-3.65-14.78-9.8-21.76-18.43-6.98-8.64-14.67-20.15-23.08-34.54l-22.59-41.19,24.91-5.65,35.87,52.81c6.2,9.08,11.79,16.33,16.77,21.76,4.98,5.43,9.91,9.47,14.78,12.12,4.87,2.66,10.19,4.54,15.94,5.65l-.33,11.63c-2.21.44-4.59.77-7.14.99s-5.04.33-7.47.33h.01Z"/>
    <path d="M185.99,590.18l-.67-12.29,22.26-4.65c.22-.89.39-2.44.5-4.65s.28-5.76.5-10.63.33-11.62.33-20.26v-21.92c0-9.3-.22-17.72-.67-25.24-.44-7.53-1-13.29-1.66-17.27l-22.26-4.65v-10.96l47.17-12.29,4.98,4.65c-.66,6.86-1.16,13.62-1.49,20.26s-.5,14.39-.5,23.25v41.85c0,10.19.17,18.6.5,25.24s.72,10.85,1.16,12.62l22.25,4.65-.66,12.29h-71.74,0ZM221.86,407.83c-5.76,0-10.63-1.88-14.61-5.65-3.99-3.76-5.98-8.42-5.98-13.95s1.99-9.91,5.98-13.78c3.99-3.87,8.86-5.81,14.61-5.81s10.52,1.94,14.28,5.81c3.76,3.88,5.65,8.47,5.65,13.78s-1.88,10.19-5.65,13.95c-3.76,3.76-8.52,5.65-14.28,5.65h0Z"/>
    <path d="M351.4,592.84c-14.39,0-26.96-3.1-37.7-9.3s-19.1-14.89-25.08-26.08c-5.98-11.18-8.97-23.97-8.97-38.36s3.27-28.12,9.8-39.19,15.39-19.71,26.57-25.91c11.18-6.2,23.42-9.3,36.7-9.3s25.69,3.04,35.87,9.14c10.19,6.09,18.16,14.61,23.92,25.58,5.76,10.96,8.64,23.75,8.64,38.36s-3.1,26.63-9.3,38.03c-6.2,11.4-14.56,20.43-25.08,27.07s-22.31,9.96-35.37,9.96h0ZM354.72,577.22c7.53,0,14.06-2.27,19.6-6.81s9.86-10.85,12.95-18.93c3.1-8.08,4.65-17.33,4.65-27.73,0-19.04-3.93-34.49-11.79-46.33-7.86-11.85-18.21-17.77-31.06-17.77-11.96,0-21.53,4.93-28.73,14.78-7.2,9.85-10.8,23.08-10.8,39.69,0,12.4,1.94,23.36,5.81,32.88,3.88,9.52,9.25,16.94,16.11,22.26,6.86,5.31,14.61,7.97,23.25,7.97h0Z"/>
    <path d="M621.54,490.87l9.96,6.64c-3.76,9.52-8.97,16.99-15.61,22.42-6.64,5.42-14.28,8.14-22.92,8.14-6.42,0-12.9-1.22-19.43-3.65-6.53-2.44-12.95-5.2-19.26-8.3s-12.29-5.87-17.94-8.3c-5.65-2.44-10.57-3.65-14.78-3.65-10.41,0-18.49,5.65-24.25,16.94l-9.97-6.64c3.76-9.74,8.97-17.27,15.61-22.59,6.64-5.31,14.28-7.97,22.92-7.97,6.42,0,12.9,1.16,19.43,3.49,6.53,2.33,12.95,5.09,19.26,8.3s12.29,5.98,17.94,8.3c5.65,2.33,10.57,3.49,14.78,3.49,5.54,0,10.24-1.44,14.12-4.32,3.87-2.88,7.25-6.98,10.13-12.29h0Z"/>
    <path d="M860.95,393.88l7.31,53.81-14.61,1.66-13.95-37.53c-1.77-.44-3.82-.72-6.14-.83-2.33-.11-4.37-.17-6.14-.17h-20.92c-3.76,0-7.2.11-10.3.33,0,1.77-.05,5.92-.17,12.46-.11,6.53-.17,14.11-.17,22.75v69.75c0,13.95.11,26.07.33,36.37s.33,17.11.33,20.43l28.23,3.99-1,13.29h-84.7l-.66-13.29,27.9-3.99c0-3.32.11-10.13.33-20.43.22-10.3.33-22.42.33-36.37v-92.5c0-6.53-.11-10.69-.33-12.46-2.88-.22-6.2-.33-9.96-.33h-21.92c-1.77,0-3.71.05-5.81.17-2.1.11-4.15.39-6.14.83l-13.62,37.86-14.95-1.99,7.31-53.81c2.44.22,5.04.39,7.81.5s5.54.27,8.3.5c2.77.22,5.48.33,8.14.33h110.77c2.77,0,5.48-.11,8.14-.33,2.66-.22,5.37-.39,8.14-.5s5.48-.28,8.14-.5h-.02,0Z"/>
    <path d="M945.98,592.84c-14.39,0-26.96-3.1-37.7-9.3s-19.1-14.89-25.08-26.08c-5.98-11.18-8.97-23.97-8.97-38.36s3.27-28.12,9.8-39.19,15.39-19.71,26.57-25.91c11.18-6.2,23.42-9.3,36.7-9.3s25.69,3.04,35.87,9.14c10.18,6.09,18.16,14.61,23.91,25.58,5.76,10.96,8.64,23.75,8.64,38.36s-3.1,26.63-9.3,38.03c-6.2,11.4-14.56,20.43-25.08,27.07-10.52,6.64-22.31,9.96-35.37,9.96h0ZM949.3,577.22c7.53,0,14.06-2.27,19.6-6.81,5.54-4.54,9.85-10.85,12.95-18.93s4.65-17.33,4.65-27.73c0-19.04-3.93-34.49-11.79-46.33-7.86-11.85-18.21-17.77-31.06-17.77-11.96,0-21.53,4.93-28.73,14.78-7.2,9.85-10.8,23.08-10.8,39.69,0,12.4,1.94,23.36,5.81,32.88,3.88,9.52,9.24,16.94,16.11,22.26,6.86,5.31,14.62,7.97,23.25,7.97h.01Z"/>
    <path d="M1040.31,590.18l-1-11.96,20.59-4.98c.22-1.11.44-3.05.66-5.81.22-2.77.39-6.64.5-11.62s.17-11.02.17-18.1l.33-25.91c0-7.31-.28-14.56-.83-21.76-.55-7.2-1.16-12.79-1.83-16.77l-21.26-4.65v-10.96l44.51-12.29,4.65,4.65-1.33,27.9,1,.33c6.64-12.84,13.34-21.54,20.09-26.07,6.76-4.54,13.23-6.81,19.43-6.81,5.09,0,9.36,1.33,12.79,3.99s5.15,6.42,5.15,11.29-1.83,9.08-5.48,11.96-8.25,4.32-13.79,4.32c-3.99,0-7.8-.89-11.46-2.66-3.65-1.77-7.14-4.21-10.46-7.31l5.98,1.99c-3.99,2.66-7.86,6.42-11.62,11.29s-7.31,10.74-10.63,17.6l.33,30.89c.22,5.54.44,11.24.67,17.11.22,5.87.44,11.29.66,16.28.22,4.98.44,8.69.67,11.13l28.9,4.32-.67,12.62h-76.73,0Z"/>
    <path d="M1264.84,569.59c-4.21,7.31-9.96,13.01-17.27,17.11s-14.95,6.14-22.92,6.14c-13.29,0-24.3-4.1-33.05-12.29-8.74-8.19-13.12-20.48-13.12-36.87l.99-79.39h-23.25v-6.98l42.85-38.86h6.31l-.67,38.2-.33,81.71c0,11.52,2.49,20.04,7.47,25.58,4.98,5.54,12.01,8.3,21.09,8.3,5.09,0,9.8-1.05,14.11-3.15,4.32-2.11,8.25-4.71,11.79-7.81l5.98,8.3h.02ZM1192.77,464.29v-16.61h62.11v16.61h-62.11Z"/>
    <path d="M1345.89,592.84c-14.39,0-26.96-3.1-37.7-9.3s-19.1-14.89-25.08-26.08c-5.98-11.18-8.97-23.97-8.97-38.36s3.27-28.12,9.8-39.19,15.39-19.71,26.57-25.91c11.18-6.2,23.42-9.3,36.7-9.3s25.69,3.04,35.87,9.14c10.19,6.09,18.16,14.61,23.92,25.58,5.76,10.96,8.64,23.75,8.64,38.36s-3.1,26.63-9.3,38.03c-6.2,11.4-14.56,20.43-25.08,27.07-10.52,6.64-22.31,9.96-35.37,9.96h0ZM1349.21,577.22c7.53,0,14.06-2.27,19.6-6.81,5.54-4.54,9.85-10.85,12.95-18.93s4.65-17.33,4.65-27.73c0-19.04-3.93-34.49-11.79-46.33-7.86-11.85-18.21-17.77-31.05-17.77-11.96,0-21.54,4.93-28.73,14.78-7.2,9.85-10.8,23.08-10.8,39.69,0,12.4,1.94,23.36,5.81,32.88,3.88,9.52,9.24,16.94,16.11,22.26,6.86,5.31,14.61,7.97,23.25,7.97h0Z"/>
  </g>
  <g>
    <path d="M14.57,35.95l-.57-2.35c-1.33,1.71-3.19,2.81-5.77,2.81-4.48,0-7.67-3.04-7.67-9.79,0-7.97,3.8-10.93,8.31-10.93,2.01,0,3.57.72,4.67,1.9v-4.21c0-1.9-.19-2.43-1.52-2.73l-.99-.23.27-1.9,6.83-.84.99.49v23.08c0,1.97.11,2.39,1.52,2.66l.76.11v1.94h-6.83ZM13.55,20.46c-.8-.68-2.09-1.14-3.15-1.14-2.58,0-3.99,1.9-3.99,6.79,0,4.56,1.29,6.45,3.95,6.45,1.18,0,2.43-.46,3.19-1.14v-10.97h0Z"/>
    <path d="M31.43,30.86c0,2.47.15,2.81,1.48,3.04l.91.11v1.94h-10.52v-1.94l.91-.11c1.37-.23,1.63-.49,1.63-3.04v-9.41c0-1.75-.42-2.24-1.75-2.51l-.84-.19.3-2.16,7.4-.65.46.23v14.69h.02ZM28.17,13.28c-2.01,0-3.3-1.18-3.3-3.23s1.29-3.19,3.3-3.19,3.38,1.1,3.38,3.19-1.29,3.23-3.38,3.23Z"/>
    <path d="M43.69,30.86c0,2.47.19,2.81,1.44,2.96l1.63.19v1.94h-10.9v-1.94l.76-.11c1.37-.19,1.48-.49,1.48-3.04v-9.45c0-1.75-.23-2.28-1.6-2.54l-.8-.15.3-2.13,6.68-.65.42.23.3,2.7c1.33-1.86,2.96-3.19,5.08-3.19.72,0,1.48.11,2.16.38l-.38,6h-.49c-1.63-.87-2.92-1.33-3.95-1.44-.91-.08-1.63.3-2.16.65v9.6h.03Z"/>
    <path d="M69.78,33.74c-2.01,1.71-4.78,2.66-7.48,2.66-6.91,0-9.8-4.56-9.8-10.44,0-7.02,4.48-10.29,9.45-10.29,4.71,0,7.82,2.62,7.82,9.26,0,.53-.04,1.29-.11,2.05h-11.24c.11,3.8,1.94,5.88,5.16,5.88,1.67,0,3.08-.42,4.9-1.4l1.29,2.28h.01,0ZM64.39,24.03c.15-3.76-.87-5.24-2.69-5.24s-3.15,1.48-3.27,5.24h5.96Z"/>
    <path d="M89.74,33.78c-1.59,1.33-4.21,2.62-7.52,2.62-6.53,0-9.45-4.48-9.45-9.91,0-7.33,4.14-10.82,10.17-10.82,2.58,0,4.97.8,6.3,1.71l-.27,5.43-3.26-.27-.49-2.47c-.15-.99-.95-1.21-2.09-1.21-2.88,0-4.56,2.2-4.56,6.83,0,5.69,2.47,7.21,5.35,7.21,1.67,0,3.38-.68,4.56-1.37l1.25,2.24h0Z"/>
    <path d="M105.99,34.77c-1.25.84-3.64,1.63-5.96,1.63-4.18,0-5.7-2.05-5.7-6.26v-11.08h-2.73l.3-2.58,2.73-.42,2.43-5.73h2.85v5.77h5.2l-.38,2.96h-4.82v10.48c0,2.28.34,3.49,2.2,3.49,1.29,0,2.32-.42,3-.72l.87,2.47h.01Z"/>
    <path d="M124.37,33.74c-2.01,1.71-4.78,2.66-7.48,2.66-6.91,0-9.79-4.56-9.79-10.44,0-7.02,4.48-10.29,9.45-10.29,4.71,0,7.82,2.62,7.82,9.26,0,.53-.04,1.29-.11,2.05h-11.24c.11,3.8,1.94,5.88,5.16,5.88,1.67,0,3.07-.42,4.9-1.4l1.29,2.28h0ZM118.98,24.03c.15-3.76-.87-5.24-2.7-5.24s-3.15,1.48-3.26,5.24h5.96Z"/>
    <path d="M141.42,35.95l-.57-2.35c-1.33,1.71-3.19,2.81-5.77,2.81-4.48,0-7.67-3.04-7.67-9.79,0-7.97,3.8-10.93,8.31-10.93,2.01,0,3.57.72,4.67,1.9v-4.21c0-1.9-.19-2.43-1.52-2.73l-.99-.23.26-1.9,6.83-.84.99.49v23.08c0,1.97.11,2.39,1.52,2.66l.76.11v1.94h-6.83.01,0ZM140.39,20.46c-.8-.68-2.09-1.14-3.15-1.14-2.58,0-3.98,1.9-3.98,6.79,0,4.56,1.29,6.45,3.95,6.45,1.18,0,2.43-.46,3.19-1.14v-10.97h-.01Z"/>
    <path d="M159.68,13.25c0-1.97-.34-2.35-1.71-2.66l-.65-.15.27-1.94,6.72-.84.95.49v10.17c1.33-1.44,3.08-2.66,5.81-2.66,4.21,0,7.14,2.96,7.14,9.83,0,7.86-3.68,10.89-8.01,10.89-2.31,0-4.4-1.14-5.47-2.51-.04,0-.08,0-.15.04l-.38,2.01h-5.2c.53-2.01.69-3.76.69-6.3V13.22v.03h-.01ZM165.26,31.54c.84.65,2.01,1.06,3.11,1.06,2.7,0,3.98-2.01,3.98-6.76,0-4.33-1.25-6.19-3.76-6.19-1.02,0-2.35.38-3.34,1.06v10.82h.01Z"/>
    <path d="M192.74,35.41c-2.32,5.92-3.83,7.86-7.82,7.86-2.13,0-4.06-.84-4.82-1.48l1.06-2.58c.65.27,1.94.65,3.08.65,2.47,0,3-1.25,4.25-3.99l-6.15-15.18c-.68-1.67-.95-2.09-1.97-2.32l-.76-.15.42-2.13h9.94v2.16l-2.39.3,3.91,11.39h.15l4.18-11.35-2.54-.3.3-2.2h7.97v2.13l-.8.11c-1.33.19-1.59.76-2.31,2.58l-5.69,14.5h0Z"/>
    <path d="M251.92,10.59l-1.06.11c-1.14.11-1.25.61-1.25,2.66v17.39c0,2.51,0,2.81,1.44,2.96l.95.11v2.13h-10.32v-2.16l.95-.11c1.33-.23,1.44-.46,1.44-2.77V14.82h-.23l-6.57,21.14h-5.43l-6.61-21.11h-.23v15.94c0,2.28-.04,2.73,1.33,2.92l.99.11v2.13h-8.2v-2.16l1.03-.11c1.25-.23,1.44-.38,1.44-2.88V13.49c0-2.2-.23-2.58-1.52-2.77l-.91-.11v-2.13h9.95l6.38,21.67h.23l6.53-21.67h9.68v2.13-.02h-.01Z"/>
    <path d="M271.22,8.46l6.91,22.17c.76,2.51,1.06,2.81,2.24,3.07l.68.11v2.13h-10.93v-2.13l2.69-.42-1.56-5.35h-9.15l-1.71,5.43,2.51.34v2.13h-8.27v-2.13l.84-.15c1.33-.23,1.59-.95,2.2-2.66l7.48-22.55h6.07,0ZM266.97,12.49h-.11l-3.91,12.6h7.59l-3.57-12.6h0ZM264.61,6.68l-1.06-1.86,6.98-4.82,2.96,3-.08.49-8.81,3.19h0Z"/>
    <path d="M307.74,35.57c-1.06.49-2.66.84-4.1.84-2.43,0-4.18-.68-5.28-3.19-.72-1.67-1.18-4.37-1.74-6.57-.42-1.63-.91-2.39-2.88-2.39h-2.24v6.45c0,2.43-.04,2.85,1.37,3l.95.11v2.13h-10.51v-2.16l1.03-.11c1.25-.19,1.4-.42,1.4-2.96V13.52c0-2.2-.23-2.62-1.52-2.81l-.87-.11v-2.13h12.34c6.23,0,8.85,2.54,8.85,7.02,0,4.02-3.08,6.3-6.04,7.02,1.97.38,3.61,1.59,4.21,4.02l1.18,4.63c.53,2.01,1.29,2.24,3.68,2.39l.19,2.01h-.02ZM291.49,21.41h2.24c2.69,0,4.78-1.44,4.78-5.31,0-3.3-1.59-4.71-4.29-4.71h-2.73v10.02h0Z"/>
    <path d="M318.52,30.67c0,2.58.04,2.88,1.33,3.04l.99.11v2.13h-10.52v-2.16l.99-.11c1.33-.19,1.44-.46,1.44-3V13.52c0-2.2-.23-2.62-1.52-2.81l-.87-.11v-2.13h10.4v2.13l-1.02.11c-1.14.15-1.21.61-1.21,2.81v17.16h-.01,0Z"/>
    <path d="M324.71,22.58c0-8.09,4.21-14.61,13.17-14.61,8.27,0,11.77,6.26,11.77,13.89,0,8.46-4.02,14.54-12.68,14.54s-12.26-6.3-12.26-13.82h0ZM343.5,22.2c0-7.9-2.09-11.01-6.04-11.01s-6.6,3.11-6.6,11.05,2.39,10.86,6.38,10.86,6.26-3.04,6.26-10.89h0Z"/>
    <path d="M373.61,31.62h.15l6.23-20.69-2.43-.34v-2.13h8.16v2.13l-.84.11c-1.33.19-1.48.53-2.01,2.24l-7.1,23h-6.3l-7.33-22.17c-.83-2.47-.99-2.85-2.16-3.07l-.72-.11v-2.13h10.9v2.13l-2.7.42,6.15,20.61h0Z"/>
    <path d="M407.62,15.94l-3.26-.11-.76-2.62c-.34-1.29-.99-1.86-2.51-1.86h-4.71v9.11h8.58v3.07h-8.58v9.53h5.31c1.52,0,2.16-.49,2.51-1.78l.83-3.19h3.27l-.46,7.86h-19.7v-2.13l1.03-.11c1.37-.23,1.44-.46,1.44-3V13.51c0-2.2-.23-2.62-1.52-2.81l-.91-.11v-2.13h19.02l.42,7.48h0Z"/>
    <path d="M420.3,33.06h5.28c1.52,0,2.2-.46,2.58-1.78l.8-3.34h3.3l-.46,8.01h-19.7v-2.16l.99-.11c1.33-.23,1.44-.42,1.44-2.96V13.52c0-2.2-.23-2.62-1.52-2.81l-.87-.11v-2.13h11.2v2.13l-1.63.11c-1.33.08-1.4.65-1.4,2.51v19.85h0Z"/>
    <path d="M435.11,22.58c0-8.09,4.21-14.61,13.17-14.61,8.27,0,11.77,6.26,11.77,13.89,0,8.46-4.02,14.54-12.68,14.54s-12.26-6.3-12.26-13.82h0ZM453.9,22.2c0-7.9-2.09-11.01-6.04-11.01s-6.6,3.11-6.6,11.05,2.39,10.86,6.38,10.86,6.26-3.04,6.26-10.89h0Z"/>
    <path d="M477.9,15.87l-.53-2.54c-.3-1.48-.91-2.13-3.87-2.13-3.53,0-4.75,1.78-4.75,3.53,0,6.45,13.59,2.7,13.59,12.72,0,6.26-5.28,8.96-10.78,8.96-3.8,0-6.98-.84-8.43-1.71l.61-6.49h3.42l.42,2.58c.26,1.56,1.06,2.32,4.36,2.32s5.2-1.48,5.2-4.18c0-6.19-13.55-2.62-13.55-12.45,0-5.24,3.76-8.5,10.02-8.5,2.96,0,6.04.65,7.78,1.56l-.38,6.68-3.11-.34h0Z"/>
    <path d="M485.38,22.58c0-8.09,4.21-14.61,13.17-14.61,8.28,0,11.77,6.26,11.77,13.89,0,8.46-4.03,14.54-12.68,14.54s-12.26-6.3-12.26-13.82h0ZM504.17,22.2c0-7.9-2.09-11.01-6.03-11.01s-6.6,3.11-6.6,11.05,2.39,10.86,6.38,10.86,6.26-3.04,6.26-10.89h-.01Z"/>
    <path d="M2.39,82.76c0-1.9-.34-2.2-1.78-2.47l-.61-.11.3-2.13,6.68-.65.42.23.27,2.32c1.37-1.48,3.34-2.81,6.07-2.81,4.25,0,7.17,2.96,7.17,9.76,0,7.93-3.68,10.97-8.12,10.97-2.24,0-3.91-1.02-4.82-1.97v3.34c0,2.51.04,2.88,1.33,3.04l1.67.15v1.94H.08v-1.94l.83-.11c1.37-.23,1.48-.49,1.48-3.04v-16.51h0ZM7.97,93.01c.83.68,2.01,1.06,3.07,1.06,2.58,0,4.02-1.71,4.02-6.76,0-4.56-1.44-6.19-3.76-6.19-1.03,0-2.36.38-3.34,1.06v10.82h0,0Z"/>
    <path d="M31.43,92.33c0,2.47.19,2.81,1.44,2.96l1.63.19v1.94h-10.89v-1.94l.76-.11c1.37-.19,1.48-.49,1.48-3.04v-9.45c0-1.75-.23-2.28-1.59-2.54l-.8-.15.3-2.13,6.68-.65.42.23.3,2.7c1.33-1.86,2.96-3.19,5.09-3.19.72,0,1.48.11,2.16.38l-.38,6h-.49c-1.63-.87-2.92-1.33-3.95-1.44-.91-.08-1.63.3-2.16.65v9.6h0Z"/>
    <path d="M40.24,87.43c0-6.19,3.42-10.29,9.83-10.29s9.26,4.18,9.26,10.13c0,6.42-3.11,10.59-9.72,10.59s-9.38-4.25-9.38-10.44h.01ZM53.53,87.39c0-5.35-1.29-7.06-3.64-7.06s-3.83,1.63-3.83,7.1,1.37,7.44,3.76,7.44,3.72-1.9,3.72-7.48h-.01Z"/>
    <path d="M76.38,97.41l-.57-2.35c-1.33,1.71-3.19,2.81-5.77,2.81-4.48,0-7.67-3.04-7.67-9.79,0-7.97,3.8-10.93,8.31-10.93,2.01,0,3.57.72,4.67,1.9v-4.21c0-1.9-.19-2.43-1.52-2.73l-.99-.23.26-1.9,6.83-.84.99.49v23.08c0,1.97.11,2.39,1.52,2.66l.76.11v1.94h-6.83.01,0ZM75.36,81.93c-.8-.68-2.09-1.14-3.15-1.14-2.58,0-3.98,1.9-3.98,6.79,0,4.56,1.29,6.45,3.95,6.45,1.18,0,2.43-.46,3.19-1.14v-10.97h-.01Z"/>
    <path d="M104.17,92.67c0,1.94.11,2.35,1.48,2.47l.68.11-.11,1.97-6.45.57-.42-.23-.42-2.51c-1.56,1.63-3.57,2.81-6.11,2.81-3.87,0-5.85-1.97-5.85-6.64v-8.01c0-2.24-.26-2.58-1.63-2.85l-.8-.19.3-2.09,7.29-.68.42.3v12.79c0,2.35.8,3.45,2.7,3.45,1.25,0,2.51-.49,3.34-1.06v-9.83c0-2.24-.42-2.47-1.78-2.73l-.61-.11.3-2.16,7.25-.65.42.23v15.03h0Z"/>
    <path d="M125.81,95.25c-1.59,1.33-4.21,2.62-7.52,2.62-6.53,0-9.45-4.48-9.45-9.91,0-7.33,4.14-10.82,10.17-10.82,2.58,0,4.97.8,6.3,1.71l-.27,5.43-3.26-.27-.49-2.47c-.15-.99-.95-1.21-2.09-1.21-2.88,0-4.56,2.2-4.56,6.83,0,5.69,2.47,7.21,5.35,7.21,1.67,0,3.38-.68,4.56-1.37l1.25,2.24h0Z"/>
    <path d="M145.1,95.21c-2.01,1.71-4.78,2.66-7.48,2.66-6.91,0-9.79-4.56-9.79-10.44,0-7.02,4.48-10.29,9.45-10.29,4.71,0,7.82,2.62,7.82,9.26,0,.53-.04,1.29-.11,2.05h-11.24c.11,3.8,1.94,5.88,5.16,5.88,1.67,0,3.07-.42,4.9-1.4l1.29,2.28h0ZM139.71,85.49c.15-3.76-.87-5.24-2.7-5.24s-3.15,1.48-3.26,5.24h5.96Z"/>
    <path d="M162.15,97.41l-.57-2.35c-1.33,1.71-3.19,2.81-5.77,2.81-4.48,0-7.67-3.04-7.67-9.79,0-7.97,3.8-10.93,8.31-10.93,2.01,0,3.57.72,4.67,1.9v-4.21c0-1.9-.19-2.43-1.52-2.73l-.99-.23.26-1.9,6.83-.84.99.49v23.08c0,1.97.11,2.39,1.52,2.66l.76.11v1.94h-6.83.01,0ZM161.12,81.93c-.8-.68-2.09-1.14-3.15-1.14-2.58,0-3.98,1.9-3.98,6.79,0,4.56,1.29,6.45,3.95,6.45,1.18,0,2.43-.46,3.19-1.14v-10.97h-.01Z"/>
    <path d="M180.41,74.71c0-1.97-.34-2.35-1.71-2.66l-.65-.15.27-1.94,6.72-.84.95.49v10.17c1.33-1.44,3.08-2.66,5.81-2.66,4.21,0,7.14,2.96,7.14,9.83,0,7.86-3.68,10.89-8.01,10.89-2.31,0-4.4-1.14-5.47-2.51-.04,0-.08,0-.15.04l-.38,2.01h-5.2c.53-2.01.69-3.76.69-6.3v-16.4.03h-.01ZM185.99,93.01c.84.65,2.01,1.06,3.11,1.06,2.7,0,3.98-2.01,3.98-6.76,0-4.33-1.25-6.19-3.76-6.19-1.02,0-2.35.38-3.34,1.06v10.82h.01Z"/>
    <path d="M213.48,96.88c-2.31,5.92-3.83,7.86-7.82,7.86-2.13,0-4.06-.84-4.82-1.48l1.06-2.58c.64.27,1.94.65,3.07.65,2.47,0,3-1.25,4.25-3.99l-6.15-15.18c-.68-1.67-.95-2.09-1.97-2.32l-.76-.15.42-2.13h9.95v2.16l-2.39.3,3.91,11.39h.15l4.17-11.35-2.54-.3.3-2.2h7.97v2.13l-.8.11c-1.33.19-1.6.76-2.32,2.58l-5.69,14.5h.01Z"/>
    <path d="M248.06,81.93h10.32v-6.72c0-2.47,0-2.85-1.33-3.04l-.99-.11v-2.13h10.52v2.16l-.99.11c-1.33.19-1.44.49-1.44,2.77v17.16c0,2.43.15,2.85,1.52,3.04l.87.11v2.13h-10.4v-2.13l1.02-.11c1.1-.15,1.21-.61,1.21-2.81v-7.36h-10.32v7.14c0,2.47,0,2.85,1.33,3.04l1.03.11v2.13h-10.55v-2.16l1.02-.11c1.33-.23,1.44-.46,1.44-3v-17.16c0-2.2-.27-2.62-1.52-2.81l-.91-.11v-2.13h10.44v2.13l-1.06.11c-1.1.15-1.21.61-1.21,2.81v6.95h0Z"/>
    <path d="M290.05,77.41l-3.26-.11-.76-2.62c-.34-1.29-.99-1.86-2.51-1.86h-4.71v9.11h8.58v3.07h-8.58v9.53h5.31c1.52,0,2.16-.49,2.51-1.78l.83-3.19h3.27l-.46,7.86h-19.7v-2.13l1.03-.11c1.37-.23,1.44-.46,1.44-3v-17.2c0-2.2-.23-2.62-1.52-2.81l-.91-.11v-2.13h19.02l.42,7.48h0Z"/>
    <path d="M314.5,90.39l.15-.04v-15.53c0-2.09-.26-2.47-1.52-2.66l-.87-.11v-2.13h8.16v2.13l-1.1.11c-1.18.11-1.29.65-1.29,2.62v22.62h-5.39l-12.11-20.23-.15.04v15.07c0,2.35,0,2.7,1.33,2.88l.99.11v2.13h-8.16v-2.16l.99-.11c1.33-.19,1.44-.42,1.44-2.88v-17.31c0-2.2-.23-2.58-1.52-2.77l-.87-.11v-2.13h7.93l11.99,20.46h0Z"/>
    <path d="M348.59,97.03c-1.06.49-2.66.84-4.1.84-2.43,0-4.18-.68-5.28-3.19-.72-1.67-1.18-4.37-1.74-6.57-.42-1.63-.91-2.39-2.88-2.39h-2.24v6.45c0,2.43-.04,2.85,1.37,3l.95.11v2.13h-10.51v-2.16l1.03-.11c1.25-.19,1.4-.42,1.4-2.96v-17.2c0-2.2-.23-2.62-1.52-2.81l-.87-.11v-2.13h12.34c6.23,0,8.85,2.54,8.85,7.02,0,4.02-3.08,6.3-6.04,7.02,1.97.38,3.61,1.59,4.21,4.02l1.18,4.63c.53,2.01,1.29,2.24,3.68,2.39l.19,2.01h-.02ZM332.34,82.88h2.24c2.69,0,4.78-1.44,4.78-5.31,0-3.3-1.59-4.71-4.29-4.71h-2.73v10.02h0Z"/>
    <path d="M359.37,92.14c0,2.58.04,2.88,1.33,3.04l.99.11v2.13h-10.51v-2.16l.99-.11c1.33-.19,1.44-.46,1.44-3v-17.16c0-2.2-.23-2.62-1.52-2.81l-.87-.11v-2.13h10.4v2.13l-1.03.11c-1.14.15-1.21.61-1.21,2.81v17.16h0Z"/>
    <path d="M365.56,84.05c0-8.09,4.21-14.61,13.17-14.61,8.27,0,11.77,6.26,11.77,13.89,0,7.14-2.88,12.75-9.49,14.01l.04.23c2.66.11,3.83.46,5.39,2.05,1.1,1.14,2.09,1.86,3.76,1.86l1.1.04.38,1.78c-1.06.57-2.62,1.25-4.52,1.25-2.66,0-4.36-1.25-5.69-3.3s-2.09-3.15-4.71-3.45c-8.09-.95-11.2-6.42-11.2-13.74h0ZM384.35,83.67c0-7.9-2.09-11.01-6.04-11.01s-6.6,3.11-6.6,11.05,2.39,10.86,6.38,10.86,6.26-3.04,6.26-10.89h0Z"/>
    <path d="M413.32,74.45c0-1.48-.26-2.09-1.37-2.24l-1.02-.15v-2.13h8.46v2.13l-1.1.11c-.99.08-1.25.46-1.25,2.2v13.1c0,7.29-3.72,10.4-10.1,10.4-8.16,0-10.74-3.99-10.74-10.78v-12.56c0-1.37-.15-2.16-1.29-2.32l-1.1-.15v-2.13h10.55v2.13l-1.14.11c-1.14.11-1.25.76-1.25,2.24v13.32c0,4.29,1.18,6.83,5.43,6.83,3.95,0,5.92-1.82,5.92-6.72v-13.4h0Z"/>
    <path d="M442.59,77.41l-3.26-.11-.76-2.62c-.34-1.29-.99-1.86-2.51-1.86h-4.71v9.11h8.58v3.07h-8.58v9.53h5.31c1.52,0,2.16-.49,2.51-1.78l.83-3.19h3.27l-.46,7.86h-19.7v-2.13l1.03-.11c1.37-.23,1.44-.46,1.44-3v-17.2c0-2.2-.23-2.62-1.52-2.81l-.91-.11v-2.13h19.02l.42,7.48h0Z"/>
    <path d="M462.87,92.1c0,2.28.07,2.58,1.25,2.7l4.02.53v2.09h-13.51v-2.13l1.02-.11c1.33-.19,1.44-.46,1.44-2.88v-17.31c0-2.2-.23-2.62-1.52-2.81l-.91-.11v-2.13h19.02l.42,7.55-3.27-.15-.76-2.66c-.34-1.29-.99-1.86-2.5-1.86h-4.71v9.49h8.58v3.04h-8.58v6.76h.01Z"/>
    <path d="M485.91,92.14c0,2.58.04,2.88,1.33,3.04l.99.11v2.13h-10.52v-2.16l.99-.11c1.33-.19,1.44-.46,1.44-3v-17.16c0-2.2-.23-2.62-1.52-2.81l-.87-.11v-2.13h10.4v2.13l-1.02.11c-1.14.15-1.21.61-1.21,2.81v17.16h0Z"/>
    <path d="M507.7,69.93l6.91,22.17c.76,2.51,1.06,2.81,2.24,3.07l.68.11v2.13h-10.93v-2.13l2.7-.42-1.56-5.35h-9.15l-1.71,5.43,2.51.34v2.13h-8.27v-2.13l.84-.15c1.33-.23,1.59-.95,2.2-2.66l7.48-22.55h6.07,0ZM503.45,73.96h-.11l-3.91,12.6h7.59l-3.57-12.6h0Z"/>
    <path d="M527.98,94.53h5.28c1.52,0,2.2-.46,2.58-1.78l.8-3.34h3.3l-.46,8.01h-19.7v-2.16l.99-.11c1.33-.23,1.44-.42,1.44-2.96v-17.2c0-2.2-.23-2.62-1.52-2.81l-.87-.11v-2.13h11.2v2.13l-1.63.11c-1.33.08-1.41.65-1.41,2.51v19.85h0Z"/>
    <path d="M551.36,81.93h10.32v-6.72c0-2.47,0-2.85-1.33-3.04l-.99-.11v-2.13h10.51v2.16l-.99.11c-1.33.19-1.44.49-1.44,2.77v17.16c0,2.43.15,2.85,1.52,3.04l.87.11v2.13h-10.4v-2.13l1.03-.11c1.1-.15,1.21-.61,1.21-2.81v-7.36h-10.32v7.14c0,2.47,0,2.85,1.33,3.04l1.02.11v2.13h-10.55v-2.16l1.03-.11c1.33-.23,1.44-.46,1.44-3v-17.16c0-2.2-.26-2.62-1.52-2.81l-.91-.11v-2.13h10.44v2.13l-1.06.11c-1.1.15-1.21.61-1.21,2.81v6.95h0Z"/>
    <path d="M573.5,84.05c0-8.09,4.21-14.61,13.17-14.61,8.28,0,11.77,6.26,11.77,13.89,0,8.46-4.03,14.54-12.68,14.54s-12.26-6.3-12.26-13.82h0ZM592.29,83.67c0-7.9-2.09-11.01-6.03-11.01s-6.6,3.11-6.6,11.05,2.39,10.86,6.38,10.86,6.26-3.04,6.26-10.89h-.01Z"/>
    <path d="M17.5,156.72c-1.59,1.33-4.21,2.62-7.52,2.62-6.53,0-9.45-4.48-9.45-9.91,0-7.33,4.14-10.82,10.17-10.82,2.58,0,4.97.8,6.3,1.71l-.26,5.43-3.26-.27-.49-2.47c-.15-.99-.95-1.21-2.09-1.21-2.88,0-4.56,2.2-4.56,6.83,0,5.69,2.47,7.21,5.35,7.21,1.67,0,3.38-.68,4.56-1.37l1.25,2.24h0Z"/>
    <path d="M28.02,153.8c0,2.47.15,2.81,1.48,3.04l.91.11v1.94h-10.52v-1.94l.91-.11c1.37-.23,1.63-.49,1.63-3.04v-9.41c0-1.75-.42-2.24-1.75-2.51l-.84-.19.3-2.16,7.4-.65.46.23v14.69h.02ZM24.75,136.22c-2.01,0-3.3-1.18-3.3-3.23s1.29-3.19,3.3-3.19,3.38,1.1,3.38,3.19-1.29,3.23-3.38,3.23Z"/>
    <path d="M40.28,153.8c0,2.47,0,2.81,1.33,3.07l.65.08v1.94h-9.87v-1.94l.8-.11c1.37-.23,1.52-.49,1.52-3.04v-9.57c0-1.75-.27-2.16-1.6-2.43l-.8-.15.3-2.13,6.68-.65.42.23.26,2.35c1.59-1.56,3.68-2.85,6.53-2.85,3.42,0,5.73,1.82,5.73,6.49v8.69c0,2.43.11,2.85,1.48,3.04l.91.11v1.94h-9.87v-1.94l.68-.08c1.14-.19,1.21-.65,1.21-2.85v-8.2c0-2.35-.87-3.3-2.85-3.3-1.37,0-2.7.53-3.53,1.06v10.21l.02.03h0Z"/>
    <path d="M74.06,156.68c-2.01,1.71-4.78,2.66-7.48,2.66-6.91,0-9.79-4.56-9.79-10.44,0-7.02,4.48-10.29,9.45-10.29,4.71,0,7.82,2.62,7.82,9.26,0,.53-.04,1.29-.11,2.05h-11.24c.11,3.8,1.94,5.88,5.16,5.88,1.67,0,3.07-.42,4.9-1.4l1.29,2.28h0ZM68.67,146.96c.15-3.76-.87-5.24-2.7-5.24s-3.15,1.48-3.26,5.24h5.96Z"/>
    <path d="M84.62,153.8c0,2.47-.08,2.85,1.06,3.04l.72.11v1.94h-9.64v-1.94l.91-.15c1.37-.23,1.37-.46,1.37-3v-9.53c0-1.75-.27-2.2-1.6-2.47l-.8-.15.3-2.13,6.68-.65.42.23.26,2.39c1.48-1.56,3.45-2.88,6.19-2.88,2.32,0,4.03.91,4.9,3,1.56-1.75,3.61-3,6.38-3,3.45,0,5.5,1.97,5.5,6.64v8.54c0,2.43.15,2.85,1.48,3.04l.91.11v1.94h-9.72v-1.94l.57-.08c.99-.11,1.18-.65,1.18-2.62v-8.39c0-2.43-.8-3.3-2.54-3.3-1.18,0-2.43.53-3.26,1.06.07.46.11.95.11,1.48v8.92c0,2.2.08,2.58,1.02,2.81l.61.11v1.94h-8.92v-1.94l.61-.08c.99-.19,1.1-.65,1.1-2.85v-8.16c0-2.43-.8-3.3-2.51-3.3-1.18,0-2.47.57-3.3,1.1v10.16h.01Z"/>
    <path d="M130.44,158.69c-1.21.46-2.47.65-3.49.65-2.69,0-3.72-1.21-4.02-2.73-.95,1.37-2.62,2.73-5.58,2.73-4.56,0-5.69-3-5.69-5.54,0-5.77,5.69-6.11,10.97-6.3v-2.13c0-2.09-.87-3.19-3.19-3.19-2.01,0-3.8.61-5.73,1.48l-1.1-2.54c1.25-.84,4.25-2.51,8.08-2.51,4.67,0,7.33,1.59,7.33,7.44v8.46c0,1.56.15,1.9,1.52,2.05l.76.08.15,2.05h0ZM122.62,150.11c-3.87,0-5.39.68-5.39,3,0,1.67.99,2.51,2.58,2.51s2.81-.95,2.81-2.62v-2.88h0Z"/>
    <path d="M145.93,157.71c-1.25.84-3.64,1.63-5.96,1.63-4.17,0-5.69-2.05-5.69-6.26v-11.08h-2.73l.3-2.58,2.73-.42,2.43-5.73h2.85v5.77h5.2l-.38,2.96h-4.82v10.48c0,2.28.34,3.49,2.2,3.49,1.29,0,2.31-.42,3-.72l.87,2.47h0Z"/>
    <path d="M147.04,148.9c0-6.19,3.41-10.29,9.83-10.29s9.26,4.18,9.26,10.13c0,6.42-3.11,10.59-9.72,10.59s-9.37-4.25-9.37-10.44h0ZM160.32,148.86c0-5.35-1.29-7.06-3.64-7.06s-3.83,1.63-3.83,7.1,1.37,7.44,3.76,7.44,3.72-1.9,3.72-7.48h-.01Z"/>
    <path d="M184.16,141.84c.99.95,1.67,2.43,1.67,4.14,0,4.02-3.41,6.34-7.97,6.34-1.29,0-2.32-.15-2.88-.3l-.8,2.28,7.02.46c4.02.27,6.26,1.78,6.26,5.09,0,4.37-4.06,6.38-10.67,6.38-4.71,0-8.31-1.18-8.31-4.21,0-1.33.87-2.58,2.7-3.53-1.18-.46-1.6-1.29-1.6-2.2,0-.99.53-1.67,1.21-2.58l1.86-2.43c-1.97-.91-3.45-2.54-3.45-5.5,0-4.14,3.04-7.14,8.2-7.14,1.67,0,2.96.3,3.72.57l5.66-.3.3,2.32-2.92.65v-.04h0ZM178.62,159.15l-5.01-.34c-.49.57-1.03,1.37-1.03,2.2,0,1.48,1.63,2.32,4.97,2.32,2.05,0,4.74-.27,4.74-2.28,0-1.33-.87-1.63-3.68-1.9h.01ZM177.67,141.46c-1.9,0-3.19,1.21-3.19,4.1s1.06,3.99,3.08,3.99,3.23-1.06,3.23-3.95-1.18-4.14-3.11-4.14h-.01Z"/>
    <path d="M197.23,153.8c0,2.47.19,2.81,1.44,2.96l1.63.19v1.94h-10.89v-1.94l.76-.11c1.37-.19,1.48-.49,1.48-3.04v-9.45c0-1.75-.23-2.28-1.59-2.54l-.8-.15.3-2.13,6.68-.65.42.23.3,2.7c1.33-1.86,2.96-3.19,5.09-3.19.72,0,1.48.11,2.16.38l-.38,6h-.49c-1.63-.87-2.92-1.33-3.95-1.44-.91-.08-1.63.3-2.16.65v9.6h0Z"/>
    <path d="M224.37,158.69c-1.21.46-2.47.65-3.49.65-2.7,0-3.72-1.21-4.02-2.73-.95,1.37-2.62,2.73-5.58,2.73-4.56,0-5.7-3-5.7-5.54,0-5.77,5.7-6.11,10.97-6.3v-2.13c0-2.09-.87-3.19-3.19-3.19-2.01,0-3.8.61-5.73,1.48l-1.1-2.54c1.25-.84,4.25-2.51,8.09-2.51,4.67,0,7.33,1.59,7.33,7.44v8.46c0,1.56.15,1.9,1.52,2.05l.76.08.15,2.05h0ZM216.55,150.11c-3.87,0-5.39.68-5.39,3,0,1.67.99,2.51,2.58,2.51s2.81-.95,2.81-2.62v-2.88h0Z"/>
    <path d="M228.55,144.23c0-1.9-.34-2.2-1.78-2.47l-.61-.11.3-2.13,6.68-.65.42.23.27,2.32c1.37-1.48,3.34-2.81,6.07-2.81,4.25,0,7.17,2.96,7.17,9.76,0,7.93-3.68,10.97-8.12,10.97-2.24,0-3.91-1.02-4.82-1.97v3.34c0,2.51.04,2.88,1.33,3.04l1.67.15v1.94h-10.89v-1.94l.83-.11c1.37-.23,1.48-.49,1.48-3.04v-16.51h0ZM234.13,154.48c.83.68,2.01,1.06,3.07,1.06,2.58,0,4.02-1.71,4.02-6.76,0-4.56-1.44-6.19-3.76-6.19-1.03,0-2.36.38-3.34,1.06v10.82h.01Z"/>
    <path d="M257.29,153.8c0,2.47-.15,2.81,1.18,3.04l.72.11v1.94h-9.87v-1.94l.95-.15c1.37-.23,1.44-.46,1.44-3v-17.69c0-1.63-.15-2.2-1.56-2.54l-.95-.23.27-1.9,6.8-.84.95.49v10.21c1.48-1.44,3.53-2.7,6.38-2.7,3.53,0,5.62,1.97,5.62,6.64v8.54c0,2.43.15,2.77,1.52,3l.95.15v1.94h-9.91v-1.94l.61-.08c1.18-.15,1.25-.65,1.25-2.85v-8.12c0-2.47-1.1-3.38-2.85-3.38-1.29,0-2.66.57-3.49,1.14v10.16h0Z"/>
    <path d="M284.92,158.35c-2.32,5.92-3.83,7.86-7.82,7.86-2.13,0-4.06-.84-4.82-1.48l1.06-2.58c.65.27,1.94.65,3.08.65,2.47,0,3-1.25,4.25-3.99l-6.15-15.18c-.68-1.67-.95-2.09-1.97-2.32l-.76-.15.42-2.13h9.94v2.16l-2.39.3,3.91,11.39h.15l4.18-11.35-2.54-.3.3-2.2h7.97v2.13l-.8.11c-1.33.19-1.59.76-2.31,2.58l-5.69,14.5h0Z"/>
    <path d="M323.3,131.4c6.19,0,8.16,2.92,8.16,6.49,0,3.87-2.43,5.73-4.71,6.53v.11c4.33.57,6.38,3,6.38,6.72,0,5.54-4.33,7.63-10.48,7.63h-11.35v-2.13l1.03-.11c1.37-.23,1.44-.46,1.44-3v-17.2c0-2.2-.23-2.62-1.52-2.81l-.91-.11v-2.13h11.96,0ZM321.06,143.39c3.3,0,4.86-1.59,4.86-4.74,0-3.53-1.97-4.37-4.25-4.37h-2.13v9.11h1.52ZM321.71,156c3.57,0,5.31-1.21,5.31-4.97s-2.24-4.74-4.86-4.74h-2.62v9.72h2.17Z"/>
    <path d="M360.89,158.5c-1.06.49-2.66.84-4.1.84-2.43,0-4.18-.68-5.28-3.19-.72-1.67-1.18-4.37-1.75-6.57-.42-1.63-.91-2.39-2.88-2.39h-2.24v6.45c0,2.43-.04,2.85,1.37,3l.95.11v2.13h-10.52v-2.16l1.02-.11c1.25-.19,1.41-.42,1.41-2.96v-17.2c0-2.2-.23-2.62-1.52-2.81l-.87-.11v-2.13h12.34c6.23,0,8.84,2.54,8.84,7.02,0,4.02-3.07,6.3-6.03,7.02,1.97.38,3.61,1.59,4.21,4.02l1.18,4.63c.53,2.01,1.29,2.24,3.68,2.39l.19,2.01h0ZM344.64,144.34h2.24c2.7,0,4.78-1.44,4.78-5.31,0-3.3-1.6-4.71-4.29-4.71h-2.73v10.02h0Z"/>
    <path d="M381.43,135.92c0-1.48-.26-2.09-1.37-2.24l-1.02-.15v-2.13h8.46v2.13l-1.1.11c-.99.08-1.25.46-1.25,2.2v13.1c0,7.29-3.72,10.4-10.1,10.4-8.16,0-10.74-3.99-10.74-10.78v-12.56c0-1.37-.15-2.16-1.29-2.32l-1.1-.15v-2.13h10.55v2.13l-1.14.11c-1.14.11-1.25.76-1.25,2.24v13.32c0,4.29,1.18,6.83,5.43,6.83,3.95,0,5.92-1.82,5.92-6.72v-13.4h0Z"/>
    <path d="M411.19,151.86l.15-.04v-15.53c0-2.09-.27-2.47-1.52-2.66l-.87-.11v-2.13h8.16v2.13l-1.1.11c-1.18.11-1.29.65-1.29,2.62v22.62h-5.39l-12.11-20.23-.15.04v15.07c0,2.35,0,2.7,1.33,2.88l.99.11v2.13h-8.16v-2.16l.99-.11c1.33-.19,1.44-.42,1.44-2.88v-17.31c0-2.2-.23-2.58-1.52-2.77l-.87-.11v-2.13h7.93l11.99,20.46h0Z"/>
    <path d="M420.46,145.52c0-8.09,4.21-14.61,13.17-14.61,8.28,0,11.77,6.26,11.77,13.89,0,8.46-4.03,14.54-12.68,14.54s-12.26-6.3-12.26-13.82h0ZM439.25,145.14c0-7.9-2.09-11.01-6.03-11.01s-6.6,3.11-6.6,11.05,2.39,10.86,6.38,10.86,6.26-3.04,6.26-10.89h-.01Z"/>
    <path d="M481.01,158.5c-1.06.49-2.66.84-4.1.84-2.43,0-4.18-.68-5.28-3.19-.72-1.67-1.18-4.37-1.74-6.57-.42-1.63-.91-2.39-2.88-2.39h-2.24v6.45c0,2.43-.04,2.85,1.37,3l.95.11v2.13h-10.51v-2.16l1.03-.11c1.25-.19,1.4-.42,1.4-2.96v-17.2c0-2.2-.23-2.62-1.52-2.81l-.87-.11v-2.13h12.34c6.23,0,8.85,2.54,8.85,7.02,0,4.02-3.08,6.3-6.04,7.02,1.97.38,3.61,1.59,4.21,4.02l1.18,4.63c.53,2.01,1.29,2.24,3.68,2.39l.19,2.01h-.02ZM464.76,144.34h2.24c2.69,0,4.78-1.44,4.78-5.31,0-3.3-1.59-4.71-4.29-4.71h-2.73v10.02h0Z"/>
    <path d="M502.91,138.88l-3.26-.11-.76-2.62c-.34-1.29-.99-1.86-2.51-1.86h-4.71v9.11h8.58v3.07h-8.58v9.53h5.31c1.52,0,2.16-.49,2.51-1.78l.83-3.19h3.27l-.46,7.86h-19.7v-2.13l1.03-.11c1.37-.23,1.44-.46,1.44-3v-17.2c0-2.2-.23-2.62-1.52-2.81l-.91-.11v-2.13h19.02l.42,7.48h0Z"/>
    <path d="M515.75,153.61c0,2.58.04,2.88,1.33,3.04l.99.11v2.13h-10.52v-2.16l.99-.11c1.33-.19,1.44-.46,1.44-3v-17.16c0-2.2-.23-2.62-1.52-2.81l-.87-.11v-2.13h10.4v2.13l-1.02.11c-1.14.15-1.21.61-1.21,2.81v17.16h0Z"/>
    <path d="M536.97,138.8l-.53-2.54c-.3-1.48-.91-2.13-3.87-2.13-3.53,0-4.74,1.78-4.74,3.53,0,6.45,13.59,2.7,13.59,12.72,0,6.26-5.28,8.96-10.78,8.96-3.8,0-6.98-.84-8.43-1.71l.61-6.49h3.41l.42,2.58c.27,1.56,1.06,2.32,4.37,2.32s5.2-1.48,5.2-4.18c0-6.19-13.55-2.62-13.55-12.45,0-5.24,3.76-8.5,10.02-8.5,2.96,0,6.03.65,7.78,1.56l-.38,6.68-3.11-.34h-.01Z"/>
    <path d="M552,145.52c0-8.09,4.21-14.61,13.17-14.61,8.27,0,11.77,6.26,11.77,13.89,0,8.46-4.02,14.54-12.68,14.54s-12.26-6.3-12.26-13.82h0ZM570.79,145.14c0-7.9-2.09-11.01-6.04-11.01s-6.6,3.11-6.6,11.05,2.39,10.86,6.38,10.86,6.26-3.04,6.26-10.89h0Z"/>
    <path d="M588.75,156h5.28c1.52,0,2.2-.46,2.58-1.78l.8-3.34h3.3l-.46,8.01h-19.7v-2.16l.99-.11c1.33-.23,1.44-.42,1.44-2.96v-17.2c0-2.2-.23-2.62-1.52-2.81l-.87-.11v-2.13h11.2v2.13l-1.63.11c-1.33.08-1.41.65-1.41,2.51v19.85h0Z"/>
    <path d="M612.29,153.61c0,2.58.04,2.88,1.33,3.04l.99.11v2.13h-10.51v-2.16l.99-.11c1.33-.19,1.44-.46,1.44-3v-17.16c0-2.2-.23-2.62-1.52-2.81l-.87-.11v-2.13h10.4v2.13l-1.03.11c-1.14.15-1.21.61-1.21,2.81v17.16h0Z"/>
    <path d="M631.65,154.55h.15l6.23-20.69-2.43-.34v-2.13h8.16v2.13l-.84.11c-1.33.19-1.48.53-2.01,2.24l-7.1,23h-6.3l-7.33-22.17c-.84-2.47-.99-2.85-2.16-3.07l-.72-.11v-2.13h10.89v2.13l-2.69.42,6.15,20.61h0Z"/>
    <path d="M665.67,138.88l-3.27-.11-.76-2.62c-.34-1.29-.99-1.86-2.5-1.86h-4.71v9.11h8.58v3.07h-8.58v9.53h5.31c1.52,0,2.16-.49,2.5-1.78l.84-3.19h3.26l-.46,7.86h-19.7v-2.13l1.02-.11c1.37-.23,1.44-.46,1.44-3v-17.2c0-2.2-.23-2.62-1.52-2.81l-.91-.11v-2.13h19.02l.42,7.48h.02Z"/>
    <path d="M678.5,153.61c0,2.58.04,2.88,1.33,3.04l.99.11v2.13h-10.52v-2.16l.99-.11c1.33-.19,1.44-.46,1.44-3v-17.16c0-2.2-.23-2.62-1.52-2.81l-.87-.11v-2.13h10.4v2.13l-1.02.11c-1.14.15-1.21.61-1.21,2.81v17.16h0Z"/>
    <path d="M709.52,158.5c-1.06.49-2.66.84-4.1.84-2.43,0-4.18-.68-5.28-3.19-.72-1.67-1.18-4.37-1.74-6.57-.42-1.63-.91-2.39-2.88-2.39h-2.24v6.45c0,2.43-.04,2.85,1.37,3l.95.11v2.13h-10.51v-2.16l1.03-.11c1.25-.19,1.4-.42,1.4-2.96v-17.2c0-2.2-.23-2.62-1.52-2.81l-.87-.11v-2.13h12.34c6.23,0,8.85,2.54,8.85,7.02,0,4.02-3.08,6.3-6.04,7.02,1.97.38,3.61,1.59,4.21,4.02l1.18,4.63c.53,2.01,1.29,2.24,3.68,2.39l.19,2.01h-.02ZM693.27,144.34h2.24c2.69,0,4.78-1.44,4.78-5.31,0-3.3-1.59-4.71-4.29-4.71h-2.73v10.02h0Z"/>
    <path d="M727.17,131.4l6.91,22.17c.76,2.51,1.06,2.81,2.24,3.07l.68.11v2.13h-10.93v-2.13l2.7-.42-1.56-5.35h-9.15l-1.71,5.43,2.51.34v2.13h-8.27v-2.13l.84-.15c1.33-.23,1.59-.95,2.2-2.66l7.48-22.55h6.07,0ZM722.92,135.42h-.11l-3.91,12.6h7.59l-3.57-12.6h0Z"/>
    <path d="M12.53,206.23l-.49-2.01c-.23-.76-.87-1.14-2.62-1.14-2.09,0-3.3.68-3.3,2.16,0,4.21,10.74,1.02,10.74,8.69,0,4.14-3.11,6.87-8.69,6.87-3.76,0-6.41-.87-7.29-1.4l.49-5.09h3.15l.42,2.05c.23.91.95,1.52,3.41,1.52,1.86,0,3.34-.61,3.34-2.32,0-4.59-10.63-.8-10.63-8.84,0-4.4,3.72-6.64,8.35-6.64,2.96,0,5.43.76,6.57,1.44l-.23,5.05-3.23-.34h0,0Z"/>
    <path d="M19.63,210.37c0-6.19,3.42-10.29,9.83-10.29s9.26,4.18,9.26,10.13c0,6.42-3.11,10.59-9.72,10.59s-9.38-4.25-9.38-10.44h0ZM32.91,210.33c0-5.35-1.29-7.06-3.64-7.06s-3.83,1.63-3.83,7.1,1.37,7.44,3.76,7.44,3.72-1.9,3.72-7.48h-.01Z"/>
    <path d="M60.63,215.61c0,1.94.11,2.35,1.48,2.47l.68.11-.11,1.97-6.45.57-.42-.23-.42-2.51c-1.56,1.63-3.57,2.81-6.11,2.81-3.87,0-5.85-1.97-5.85-6.64v-8.01c0-2.24-.27-2.58-1.63-2.85l-.8-.19.3-2.09,7.29-.68.42.3v12.79c0,2.35.8,3.45,2.69,3.45,1.25,0,2.51-.49,3.34-1.06v-9.83c0-2.24-.42-2.47-1.78-2.73l-.61-.11.3-2.16,7.25-.65.42.23v15.03h0Z"/>
    <path d="M72.93,215.26c0,2.47,0,2.81,1.33,3.07l.64.08v1.94h-9.87v-1.94l.8-.11c1.37-.23,1.52-.49,1.52-3.04v-9.57c0-1.75-.26-2.16-1.59-2.43l-.8-.15.3-2.13,6.68-.65.42.23.27,2.35c1.59-1.56,3.68-2.85,6.53-2.85,3.42,0,5.73,1.82,5.73,6.49v8.69c0,2.43.11,2.85,1.48,3.04l.91.11v1.94h-9.87v-1.94l.68-.08c1.14-.19,1.21-.65,1.21-2.85v-8.2c0-2.35-.87-3.3-2.85-3.3-1.37,0-2.69.53-3.53,1.06v10.24h.01Z"/>
    <path d="M103.49,220.35l-.57-2.35c-1.33,1.71-3.19,2.81-5.77,2.81-4.48,0-7.67-3.04-7.67-9.79,0-7.97,3.8-10.93,8.31-10.93,2.01,0,3.57.72,4.67,1.9v-4.21c0-1.9-.19-2.43-1.52-2.73l-.99-.23.27-1.9,6.83-.84.99.49v23.08c0,1.97.11,2.39,1.52,2.66l.76.11v1.94h-6.83ZM102.46,204.86c-.8-.68-2.09-1.14-3.15-1.14-2.58,0-3.99,1.9-3.99,6.79,0,4.56,1.29,6.45,3.95,6.45,1.18,0,2.43-.46,3.19-1.14v-10.97h0Z"/>
    <path d="M136.41,217.47h5.28c1.52,0,2.2-.46,2.58-1.78l.8-3.34h3.3l-.46,8.01h-19.7v-2.16l.99-.11c1.33-.23,1.44-.42,1.44-2.96v-17.2c0-2.2-.23-2.62-1.52-2.81l-.87-.11v-2.13h11.2v2.13l-1.63.11c-1.33.08-1.41.65-1.41,2.51v19.85h0Z"/>
    <path d="M171.07,200.35l-3.27-.11-.76-2.62c-.34-1.29-.99-1.86-2.5-1.86h-4.71v9.11h8.58v3.07h-8.58v9.53h5.31c1.52,0,2.16-.49,2.5-1.78l.84-3.19h3.26l-.46,7.86h-19.7v-2.13l1.02-.11c1.37-.23,1.44-.46,1.44-3v-17.2c0-2.2-.23-2.62-1.52-2.81l-.91-.11v-2.13h19.02l.42,7.48h.02Z"/>
    <path d="M175.17,206.99c0-8.09,4.21-14.61,13.17-14.61,8.28,0,11.77,6.26,11.77,13.89,0,8.46-4.03,14.54-12.68,14.54s-12.26-6.3-12.26-13.82h0ZM193.96,206.61c0-7.9-2.09-11.01-6.03-11.01s-6.6,3.11-6.6,11.05,2.39,10.86,6.38,10.86,6.26-3.04,6.26-10.89h-.01Z"/>
    <path d="M223.68,213.33l.15-.04v-15.53c0-2.09-.27-2.47-1.52-2.66l-.87-.11v-2.13h8.16v2.13l-1.1.11c-1.18.11-1.29.65-1.29,2.62v22.62h-5.39l-12.11-20.23-.15.04v15.07c0,2.35,0,2.7,1.33,2.88l.99.11v2.13h-8.16v-2.16l.99-.11c1.33-.19,1.44-.42,1.44-2.88v-17.31c0-2.2-.23-2.58-1.52-2.77l-.87-.11v-2.13h7.93l11.99,20.46h0Z"/>
    <path d="M247.15,192.87l6.91,22.17c.76,2.51,1.06,2.81,2.24,3.07l.68.11v2.13h-10.93v-2.13l2.69-.42-1.56-5.35h-9.15l-1.71,5.43,2.51.34v2.13h-8.27v-2.13l.84-.15c1.33-.23,1.59-.95,2.2-2.66l7.48-22.55h6.07,0ZM242.9,196.89h-.11l-3.91,12.6h7.59l-3.57-12.6Z"/>
    <path d="M283.67,219.97c-1.06.49-2.66.84-4.1.84-2.43,0-4.18-.68-5.28-3.19-.72-1.67-1.18-4.37-1.74-6.57-.42-1.63-.91-2.39-2.88-2.39h-2.24v6.45c0,2.43-.04,2.85,1.37,3l.95.11v2.13h-10.51v-2.16l1.03-.11c1.25-.19,1.4-.42,1.4-2.96v-17.2c0-2.2-.23-2.62-1.52-2.81l-.87-.11v-2.13h12.34c6.23,0,8.85,2.54,8.85,7.02,0,4.02-3.08,6.3-6.04,7.02,1.97.38,3.61,1.59,4.21,4.02l1.18,4.63c.53,2.01,1.29,2.24,3.68,2.39l.19,2.01h-.02ZM267.42,205.81h2.24c2.69,0,4.78-1.44,4.78-5.31,0-3.3-1.59-4.71-4.29-4.71h-2.73v10.02h0Z"/>
    <path d="M297.53,192.87c9.53,0,13.36,5.01,13.36,13.21s-4.33,14.27-15.22,14.27h-9.57v-2.13l1.02-.11c1.29-.19,1.44-.42,1.44-2.81v-17.39c0-2.2-.23-2.62-1.52-2.81l-.91-.11v-2.13h11.4,0ZM296.09,217.47c6.8,0,8.69-4.93,8.69-11.43,0-7.21-2.35-10.29-7.97-10.29h-2.47v21.71h1.75,0Z"/>
    <path d="M314.12,206.99c0-8.09,4.21-14.61,13.17-14.61,8.28,0,11.77,6.26,11.77,13.89,0,8.46-4.03,14.54-12.68,14.54s-12.26-6.3-12.26-13.82h0ZM332.91,206.61c0-7.9-2.09-11.01-6.03-11.01s-6.6,3.11-6.6,11.05,2.39,10.86,6.38,10.86,6.26-3.04,6.26-10.89h-.01Z"/>
    <path d="M383.02,194.99l-1.06.11c-1.14.11-1.25.61-1.25,2.66v17.39c0,2.51,0,2.81,1.44,2.96l.95.11v2.13h-10.32v-2.16l.95-.11c1.33-.23,1.44-.46,1.44-2.77v-16.09h-.23l-6.57,21.14h-5.43l-6.61-21.11h-.23v15.94c0,2.28-.04,2.73,1.33,2.92l.99.11v2.13h-8.2v-2.16l1.03-.11c1.25-.23,1.44-.38,1.44-2.88v-17.31c0-2.2-.23-2.58-1.52-2.77l-.91-.11v-2.13h9.95l6.38,21.67h.23l6.53-21.67h9.68v2.13-.02h-.01Z"/>
    <path d="M395.44,215.07c0,2.58.04,2.88,1.33,3.04l.99.11v2.13h-10.51v-2.16l.99-.11c1.33-.19,1.44-.46,1.44-3v-17.16c0-2.2-.23-2.62-1.52-2.81l-.87-.11v-2.13h10.4v2.13l-1.03.11c-1.14.15-1.21.61-1.21,2.81v17.16h0Z"/>
    <path d="M426.46,219.97c-1.06.49-2.66.84-4.1.84-2.43,0-4.18-.68-5.28-3.19-.72-1.67-1.18-4.37-1.75-6.57-.42-1.63-.91-2.39-2.88-2.39h-2.24v6.45c0,2.43-.04,2.85,1.37,3l.95.11v2.13h-10.52v-2.16l1.02-.11c1.25-.19,1.41-.42,1.41-2.96v-17.2c0-2.2-.23-2.62-1.52-2.81l-.87-.11v-2.13h12.34c6.23,0,8.84,2.54,8.84,7.02,0,4.02-3.07,6.3-6.03,7.02,1.97.38,3.61,1.59,4.21,4.02l1.18,4.63c.53,2.01,1.29,2.24,3.68,2.39l.19,2.01h0ZM410.21,205.81h2.24c2.7,0,4.78-1.44,4.78-5.31,0-3.3-1.6-4.71-4.29-4.71h-2.73v10.02h0Z"/>
    <path d="M444.11,192.87l6.91,22.17c.76,2.51,1.06,2.81,2.24,3.07l.68.11v2.13h-10.93v-2.13l2.69-.42-1.56-5.35h-9.15l-1.71,5.43,2.51.34v2.13h-8.27v-2.13l.84-.15c1.33-.23,1.59-.95,2.2-2.66l7.48-22.55h6.07ZM439.86,196.89h-.11l-3.91,12.6h7.59l-3.57-12.6h0Z"/>
    <path d="M476.15,213.33l.15-.04v-15.53c0-2.09-.27-2.47-1.52-2.66l-.87-.11v-2.13h8.16v2.13l-1.1.11c-1.18.11-1.29.65-1.29,2.62v22.62h-5.39l-12.11-20.23-.15.04v15.07c0,2.35,0,2.7,1.33,2.88l.99.11v2.13h-8.16v-2.16l.99-.11c1.33-.19,1.44-.42,1.44-2.88v-17.31c0-2.2-.23-2.58-1.52-2.77l-.87-.11v-2.13h7.93l11.99,20.46Z"/>
    <path d="M497.22,192.87c9.53,0,13.36,5.01,13.36,13.21s-4.33,14.27-15.22,14.27h-9.57v-2.13l1.03-.11c1.29-.19,1.44-.42,1.44-2.81v-17.39c0-2.2-.23-2.62-1.52-2.81l-.91-.11v-2.13h11.39,0ZM495.78,217.47c6.79,0,8.69-4.93,8.69-11.43,0-7.21-2.35-10.29-7.97-10.29h-2.47v21.71h1.75,0Z"/>
    <path d="M528.36,192.87l6.91,22.17c.76,2.51,1.06,2.81,2.24,3.07l.68.11v2.13h-10.93v-2.13l2.69-.42-1.56-5.35h-9.15l-1.71,5.43,2.51.34v2.13h-8.27v-2.13l.84-.15c1.33-.23,1.59-.95,2.2-2.66l7.48-22.55h6.07ZM524.11,196.89h-.11l-3.91,12.6h7.59l-3.57-12.6h0Z"/>
    <path d="M17.8,279.62c-2.01,1.71-4.78,2.66-7.48,2.66-6.91,0-9.79-4.56-9.79-10.44,0-7.02,4.48-10.29,9.45-10.29,4.71,0,7.82,2.62,7.82,9.26,0,.53-.04,1.29-.11,2.05H6.45c.11,3.8,1.94,5.88,5.16,5.88,1.67,0,3.07-.42,4.9-1.41l1.29,2.28h0ZM12.41,269.9c.15-3.76-.87-5.24-2.7-5.24s-3.15,1.48-3.26,5.24h5.96,0Z"/>
    <path d="M34.85,281.82l-.57-2.35c-1.33,1.71-3.19,2.81-5.77,2.81-4.48,0-7.67-3.04-7.67-9.79,0-7.97,3.8-10.93,8.31-10.93,2.01,0,3.57.72,4.67,1.9v-4.21c0-1.9-.19-2.43-1.52-2.73l-.99-.23.26-1.9,6.83-.84.99.49v23.08c0,1.97.11,2.39,1.52,2.66l.76.11v1.94h-6.83,0ZM33.82,266.33c-.8-.68-2.09-1.14-3.15-1.14-2.58,0-3.98,1.9-3.98,6.8,0,4.56,1.29,6.45,3.95,6.45,1.18,0,2.43-.46,3.19-1.14v-10.97h-.01Z"/>
    <path d="M51.71,276.73c0,2.47.15,2.81,1.48,3.04l.91.11v1.94h-10.52v-1.94l.91-.11c1.37-.23,1.63-.49,1.63-3.04v-9.41c0-1.75-.42-2.24-1.75-2.51l-.84-.19.3-2.16,7.4-.64.46.23v14.69h.02ZM48.44,259.16c-2.01,0-3.3-1.18-3.3-3.23s1.29-3.19,3.3-3.19,3.38,1.1,3.38,3.19-1.29,3.23-3.38,3.23Z"/>
    <path d="M69.7,280.64c-1.25.84-3.64,1.63-5.96,1.63-4.17,0-5.69-2.05-5.69-6.26v-11.08h-2.73l.3-2.58,2.73-.42,2.43-5.73h2.85v5.77h5.2l-.38,2.96h-4.82v10.48c0,2.28.34,3.49,2.2,3.49,1.29,0,2.31-.42,3-.72l.87,2.47h0Z"/>
    <path d="M79.8,276.73c0,2.47.15,2.81,1.48,3.04l.91.11v1.94h-10.52v-1.94l.91-.11c1.37-.23,1.63-.49,1.63-3.04v-9.41c0-1.75-.42-2.24-1.75-2.51l-.84-.19.3-2.16,7.4-.64.46.23v14.69h.02ZM76.53,259.16c-2.01,0-3.3-1.18-3.3-3.23s1.29-3.19,3.3-3.19,3.38,1.1,3.38,3.19-1.29,3.23-3.38,3.23Z"/>
    <path d="M92.06,276.73c0,2.47,0,2.81,1.33,3.08l.64.08v1.94h-9.87v-1.94l.8-.11c1.37-.23,1.52-.49,1.52-3.04v-9.57c0-1.75-.26-2.16-1.59-2.43l-.8-.15.3-2.13,6.68-.64.42.23.27,2.35c1.59-1.56,3.68-2.85,6.53-2.85,3.42,0,5.73,1.82,5.73,6.49v8.69c0,2.43.11,2.85,1.48,3.04l.91.11v1.94h-9.87v-1.94l.68-.08c1.14-.19,1.21-.65,1.21-2.85v-8.2c0-2.35-.87-3.3-2.85-3.3-1.37,0-2.69.53-3.53,1.06v10.21h.01Z"/>
    <path d="M123.61,264.78c.99.95,1.67,2.43,1.67,4.14,0,4.02-3.42,6.34-7.97,6.34-1.29,0-2.31-.15-2.88-.3l-.8,2.28,7.02.46c4.03.26,6.26,1.78,6.26,5.09,0,4.36-4.06,6.38-10.67,6.38-4.71,0-8.31-1.18-8.31-4.21,0-1.33.87-2.58,2.69-3.53-1.18-.46-1.59-1.29-1.59-2.2,0-.99.53-1.67,1.21-2.58l1.86-2.43c-1.97-.91-3.46-2.54-3.46-5.5,0-4.14,3.04-7.14,8.2-7.14,1.67,0,2.96.3,3.72.57l5.65-.3.3,2.31-2.92.65.02-.03h0ZM118.06,282.09l-5.01-.34c-.49.57-1.02,1.37-1.02,2.2,0,1.48,1.63,2.32,4.97,2.32,2.05,0,4.75-.27,4.75-2.28,0-1.33-.87-1.63-3.68-1.9h-.01ZM117.12,264.4c-1.9,0-3.19,1.21-3.19,4.1s1.06,3.98,3.07,3.98,3.23-1.06,3.23-3.95-1.18-4.14-3.11-4.14h0Z"/>
    <path d="M152.92,278.93h5.28c1.52,0,2.2-.46,2.58-1.78l.8-3.34h3.3l-.46,8.01h-19.7v-2.16l.99-.11c1.33-.23,1.44-.42,1.44-2.96v-17.19c0-2.2-.23-2.62-1.52-2.81l-.87-.11v-2.13h11.2v2.13l-1.63.11c-1.33.08-1.41.64-1.41,2.51v19.85-.02h0Z"/>
    <path d="M186.4,258.85c0-1.48-.26-2.09-1.37-2.24l-1.02-.15v-2.13h8.46v2.13l-1.1.11c-.99.08-1.25.46-1.25,2.2v13.09c0,7.29-3.72,10.4-10.1,10.4-8.16,0-10.74-3.98-10.74-10.78v-12.56c0-1.37-.15-2.16-1.29-2.32l-1.1-.15v-2.13h10.55v2.13l-1.14.11c-1.14.11-1.25.76-1.25,2.24v13.32c0,4.29,1.18,6.83,5.43,6.83,3.95,0,5.92-1.82,5.92-6.72v-13.4.02h0Z"/>
    <path d="M204.55,276.54c0,2.58.04,2.88,1.33,3.04l.99.11v2.13h-10.51v-2.16l.99-.11c1.33-.19,1.44-.46,1.44-3v-17.16c0-2.2-.23-2.62-1.52-2.81l-.87-.11v-2.13h10.4v2.13l-1.03.11c-1.14.15-1.21.61-1.21,2.81v17.16h0ZM198.59,252.55l-1.06-1.86,6.98-4.82,2.96,3-.07.49-8.81,3.19Z"/>
    <path d="M225.77,261.74l-.53-2.54c-.3-1.48-.91-2.13-3.87-2.13-3.53,0-4.75,1.78-4.75,3.53,0,6.45,13.59,2.69,13.59,12.72,0,6.26-5.28,8.96-10.78,8.96-3.8,0-6.98-.84-8.43-1.71l.61-6.49h3.42l.42,2.58c.26,1.56,1.06,2.32,4.36,2.32s5.2-1.48,5.2-4.18c0-6.19-13.55-2.62-13.55-12.45,0-5.24,3.76-8.5,10.02-8.5,2.96,0,6.04.64,7.78,1.56l-.38,6.68-3.11-.34h0Z"/>
    <path d="M273.98,256.46l-1.06.11c-1.14.11-1.25.61-1.25,2.66v17.39c0,2.51,0,2.81,1.44,2.96l.95.11v2.13h-10.32v-2.16l.95-.11c1.33-.23,1.44-.46,1.44-2.77v-16.09h-.23l-6.57,21.14h-5.43l-6.6-21.11h-.23v15.94c0,2.28-.04,2.73,1.33,2.92l.99.11v2.13h-8.2v-2.16l1.02-.11c1.25-.23,1.44-.38,1.44-2.88v-17.31c0-2.2-.23-2.58-1.52-2.77l-.91-.11v-2.13h9.94l6.38,21.68h.23l6.53-21.68h9.68v2.13-.02h0Z"/>
    <path d="M293.27,254.34l6.91,22.17c.76,2.51,1.06,2.81,2.24,3.08l.68.11v2.13h-10.93v-2.13l2.69-.42-1.56-5.35h-9.15l-1.71,5.43,2.51.34v2.13h-8.27v-2.13l.84-.15c1.33-.23,1.59-.95,2.2-2.66l7.48-22.55h6.07ZM289.02,258.36h-.11l-3.91,12.6h7.59l-3.57-12.6h0Z"/>
    <path d="M316.58,277.38c0,1.71.38,1.94,1.14,2.01l3.19.3v2.13h-14.42v-2.16l3.19-.3c.76-.08,1.14-.27,1.14-1.97v-20.16h-2.58c-1.52,0-2.2.42-2.54,1.71l-.76,2.88h-3.27l.42-7.48h23.23l.42,7.48h-3.27l-.76-2.85c-.34-1.29-.99-1.75-2.5-1.75h-2.62v20.16h-.01,0Z"/>
    <path d="M327.9,268.46c0-8.08,4.21-14.61,13.17-14.61,8.28,0,11.77,6.26,11.77,13.89,0,8.46-4.03,14.54-12.68,14.54s-12.26-6.3-12.26-13.82h0ZM346.69,268.08c0-7.9-2.09-11.01-6.03-11.01s-6.6,3.11-6.6,11.05,2.39,10.86,6.38,10.86,6.26-3.04,6.26-10.9h-.01Z"/>
    <path d="M370.69,261.74l-.53-2.54c-.3-1.48-.91-2.13-3.87-2.13-3.53,0-4.75,1.78-4.75,3.53,0,6.45,13.59,2.69,13.59,12.72,0,6.26-5.28,8.96-10.78,8.96-3.8,0-6.98-.84-8.43-1.71l.61-6.49h3.42l.42,2.58c.26,1.56,1.06,2.32,4.36,2.32s5.2-1.48,5.2-4.18c0-6.19-13.55-2.62-13.55-12.45,0-5.24,3.76-8.5,10.02-8.5,2.96,0,6.04.64,7.78,1.56l-.38,6.68-3.11-.34h0Z"/>
  </g>
  <g>
    <path d="M927.81,321.88v-.9h-5.39v9.21h1.01v-4.05h3.95v-.9h-3.95v-3.36h4.39-.01ZM931.83,330.18v-9.21h-1.01v9.21h1.01ZM941.03,330.18v-.9h-4.39v-8.31h-1.01v9.21h5.4ZM952.86,330.18l-.35-9.36-.2-.02-3.9,6.94-4-6.94-.19.02-.35,9.36h1.02l.11-6.52,3.29,5.58h.14l3.27-5.57.14,6.51h1.02,0ZM966.09,321.88v-.9h-5.39v9.21h1.01v-4.05h3.95v-.9h-3.95v-3.36h4.39-.01ZM974.46,330.18v-.9h-4.39v-3.32h3.95v-.9h-3.95v-3.18h4.39v-.9h-5.39v9.21h5.39ZM982.8,327.69c0-1.23-.54-1.87-2.46-2.74-1.13-.52-1.57-1.03-1.57-1.67,0-.84.59-1.55,1.75-1.55.6,0,1.21.24,1.66.56l.45-.85c-.53-.36-1.27-.63-2.05-.63-1.68,0-2.82,1.18-2.82,2.51,0,1.1.59,1.82,2.19,2.53,1.51.67,1.82,1.15,1.82,1.95s-.55,1.61-1.73,1.61c-.72,0-1.52-.31-2.22-.82l-.49.88c.8.53,1.62.86,2.66.86,1.6,0,2.82-1.15,2.82-2.64h-.01ZM992.57,321.88v-.9h-7.15v.9h3.08v8.31h1.01v-8.31h3.07,0ZM996.56,330.18v-9.21h-1v9.21h1ZM1007.77,320.97h-1.09l-3.06,7.29-3.08-7.29h-1.13l4.1,9.38h.16l4.1-9.38h0ZM1017.08,330.18l-4.13-9.38h-.16l-4.14,9.38h1.04l1.09-2.55h4.12l1.09,2.55h1.09ZM1014.54,326.79h-3.39l1.7-3.96,1.7,3.96h0ZM1025.3,330.18v-.9h-4.39v-8.31h-1v9.21h5.39Z"/>
    <path d="M916.91,315.26v-9.21h-1.01v9.21h1.01ZM927.83,315.4v-9.35h-1.01v6.88l-5.91-7.05-.2.05v9.34h1.01v-6.99l5.98,7.16.13-.04h0ZM937.94,306.95v-.9h-7.15v.9h3.08v8.31h1.01v-8.31h3.07,0ZM946.29,315.26v-.9h-4.39v-3.32h3.95v-.9h-3.95v-3.18h4.39v-.9h-5.39v9.21h5.39ZM955.9,315.26l-2.68-3.85c1.29-.41,2.01-1.38,2.01-2.66,0-1.58-1.17-2.77-3.54-2.77-.77,0-1.45.06-2.12.15v9.12h1.01v-3.63c.3.01.74.02,1.04.02.21,0,.41-.01.62-.02l2.45,3.63h1.22,0ZM954.15,308.81c0,1.19-.74,1.98-2.46,1.98-.35,0-.82-.02-1.12-.06v-3.75c.33-.07.84-.1,1.27-.1,1.51,0,2.31.84,2.31,1.92h0ZM965.87,315.4v-9.35h-1.01v6.88l-5.91-7.05-.2.05v9.34h1.01v-6.99l5.98,7.16.13-.04h0ZM977.14,315.26l-4.14-9.38h-.16l-4.14,9.38h1.04l1.09-2.55h4.12l1.09,2.55h1.1ZM974.6,311.87h-3.39l1.7-3.96,1.7,3.96h0ZM985.22,306.95v-.9h-7.15v.9h3.08v8.31h1.01v-8.31h3.07,0ZM989.22,315.26v-9.21h-1.01v9.21h1.01ZM1001.82,310.66c0-2.77-2.06-4.76-4.55-4.76s-4.64,2-4.64,4.76,2.06,4.75,4.55,4.75,4.64-1.99,4.64-4.75h0ZM1000.73,310.66c0,2.17-1.46,3.86-3.49,3.86s-3.51-1.69-3.51-3.86,1.46-3.86,3.51-3.86,3.49,1.68,3.49,3.86h0ZM1012.33,315.4v-9.35h-1.01v6.88l-5.91-7.05-.2.05v9.34h1.01v-6.99l5.98,7.16.13-.04h0ZM1023.6,315.26l-4.13-9.38h-.16l-4.14,9.38h1.04l1.09-2.55h4.12l1.09,2.55h1.09ZM1021.06,311.87h-3.39l1.7-3.96,1.7,3.96h0ZM1031.82,315.26v-.9h-4.39v-8.31h-1.01v9.21h5.4Z"/>
    <path d="M937.11,295.65c0-2.6-1.78-4.59-5.61-4.59-.92,0-1.66.04-2.73.15v9.05c1.13.1,1.73.15,2.82.15,3.82,0,5.52-2.05,5.52-4.76h0ZM934.83,295.65c0,1.72-.89,2.85-2.9,2.85-.46,0-.63-.01-1.02-.05v-5.43c.33-.04.52-.05.88-.05,1.99,0,3.04,1.01,3.04,2.68h0ZM949.44,295.73c0-2.72-1.83-4.76-4.68-4.76s-4.76,2.05-4.76,4.76,1.82,4.75,4.68,4.75,4.76-2.05,4.76-4.75h0ZM947.15,295.73c0,1.65-.98,2.85-2.44,2.85s-2.44-1.21-2.44-2.85.98-2.85,2.44-2.85,2.44,1.19,2.44,2.85h0ZM960.46,299.63l-.64-1.81c-.69.43-1.55.68-2.3.68-1.72,0-2.79-1.05-2.79-2.76s1.07-2.77,2.79-2.77c.75,0,1.52.24,2.2.62l.65-1.81c-.83-.49-1.81-.8-2.88-.8-3,0-5.04,2.02-5.04,4.76s2.04,4.75,5.04,4.75c1.06,0,2.16-.33,2.97-.86h0ZM969.71,300.33v-1.95h-3.69v-7.27h-2.14v9.21h5.83ZM975.28,300.33v-9.21h-2.14v9.21h2.14ZM985.18,297.62c0-1.18-.52-2.01-2.24-2.74-1.16-.49-1.62-.69-1.62-1.29,0-.38.31-.74,1.09-.74.65,0,1.51.39,2.04.75l.54-1.91c-.54-.36-1.57-.72-2.58-.72-2.15,0-3.24,1.31-3.24,2.65,0,1.11.57,2.05,2.19,2.7,1.41.56,1.65.89,1.65,1.37s-.29.8-1.04.8c-.87,0-1.83-.35-2.58-.89l-.59,1.94c.8.53,2.06.94,3.1.94,2.21,0,3.28-1.4,3.28-2.87h0ZM995.44,297.72c0-1.05-.59-1.78-1.85-2.16,1.04-.43,1.58-1.08,1.58-2.05,0-1.28-1.36-2.47-4.03-2.47-.75,0-1.91.1-2.58.2v9c.9.11,1.95.19,2.75.19,2.77,0,4.12-1.27,4.12-2.7h.01ZM992.97,293.9c0,.67-.51,1.04-1.55,1.04-.39,0-.55-.01-.79-.04v-1.92c.3-.05.58-.09.97-.09.9,0,1.37.45,1.37,1.01h0ZM993.12,297.49c0,.69-.52,1.1-1.6,1.1-.43,0-.59-.01-.89-.04v-2.13c.21-.03.48-.04.8-.04,1.13,0,1.69.4,1.69,1.11h0ZM1008.04,295.73c0-2.72-1.84-4.76-4.68-4.76s-4.76,2.05-4.76,4.76,1.82,4.75,4.68,4.75,4.76-2.05,4.76-4.75h0ZM1005.75,295.73c0,1.65-.98,2.85-2.44,2.85s-2.44-1.21-2.44-2.85.98-2.85,2.44-2.85,2.44,1.19,2.44,2.85h0ZM1018.95,300.33l-4.34-9.29h-.29l-4.34,9.29h2.17l.69-1.67h3.18l.69,1.67h2.24ZM1015.36,297.03h-1.82l.92-2.21.9,2.21h0Z"/>
    <path d="M1091.93,166.6c1.6-2.77,3.18-13.96,3.18-13.96,0,0-8.9,6.96-10.5,9.73-1.6,2.78-2.02,5.54.76,7.14s4.96-.14,6.56-2.91h0ZM1084.76,144.53c1.1-3.01.71-14.3.71-14.3,0,0-7.55,8.4-8.65,11.41s-1.02,5.8,1.99,6.9,4.86-1,5.96-4.01h0ZM1068.85,138.5c1.32-1.67.76-3.9-.63-6.13-1.7-2.72-10.83-9.36-10.83-9.36,0,0,1.97,11.13,3.67,13.84,1.36,2.17,3.07,3.64,5.09,3.28,9.53,14.02,15.26,31.48,15.26,50.48,0,46.06-33.26,83.39-74.28,83.39v3.42c42.71,0,77.33-38.87,77.33-86.82,0-19.59-5.85-37.59-15.6-52.12h0v.02ZM1070.43,154.56c-2.49-2.02-13.29-5.33-13.29-5.33,0,0,5.48,9.88,7.97,11.89,2.49,2.02,5.15,2.86,7.17.37s.64-4.92-1.85-6.94h0ZM1073.61,213c-1.79-2.66-11.16-8.98-11.16-8.98,0,0,2.36,11.05,4.15,13.71s4.09,4.24,6.75,2.45c2.66-1.79,2.05-4.52.26-7.17h0ZM1077.42,181.26c2.23-2.3,1.07-4.84-1.24-7.07-2.3-2.23-12.78-6.47-12.78-6.47,0,0,4.6,10.32,6.91,12.54,2.31,2.23,4.88,3.29,7.11.99h0ZM1076.89,193.09c-2.14-2.38-12.3-7.34-12.3-7.34,0,0,3.87,10.61,6.02,13,2.14,2.38,4.64,3.63,7.02,1.48,2.38-2.14,1.4-4.76-.74-7.14h0ZM1056.14,219.93s.4,11.29,1.71,14.22c1.3,2.93,3.29,4.88,6.22,3.58,2.93-1.3,2.8-4.09,1.5-7.02s-9.43-10.78-9.43-10.78h0ZM1055.82,244.46c-1.09-3.01-8.65-11.41-8.65-11.41,0,0-.39,11.29.71,14.3,1.1,3.01,2.95,5.1,5.95,4.01,3.01-1.1,3.08-3.89,1.99-6.9h0ZM1044.4,254.85c-.67-3.13-6.98-12.5-6.98-12.5,0,0-1.95,11.13-1.29,14.26s2.2,5.46,5.34,4.8c3.13-.67,3.59-3.42,2.93-6.55h0ZM1030.11,262.29c-.22-3.2-5.17-13.35-5.17-13.35,0,0-3.48,10.75-3.26,13.95s1.42,5.72,4.62,5.49c3.2-.22,4.03-2.89,3.81-6.08h0ZM940.61,277.43v-3.42c-41.03,0-74.28-37.34-74.28-83.39,0-19,5.73-36.46,15.26-50.48,2.02.35,3.73-1.11,5.09-3.28,1.7-2.72,3.67-13.84,3.67-13.84,0,0-9.14,6.65-10.83,9.36-1.39,2.22-1.95,4.45-.63,6.13-9.75,14.53-15.6,32.53-15.6,52.12,0,47.95,34.62,86.81,77.33,86.82h0v-.02ZM926.04,262.88c.22-3.2-3.26-13.95-3.26-13.95,0,0-4.95,10.16-5.17,13.35-.22,3.2.61,5.86,3.81,6.08,3.2.22,4.4-2.3,4.62-5.49h0ZM911.59,256.61c.67-3.13-1.29-14.26-1.29-14.26,0,0-6.31,9.37-6.98,12.5-.67,3.13-.21,5.89,2.93,6.55,3.13.67,4.67-1.66,5.34-4.8h0ZM899.84,247.35c1.1-3.01.71-14.3.71-14.3,0,0-7.55,8.4-8.65,11.41s-1.02,5.8,1.99,6.9,4.86-1,5.95-4.01h0ZM889.88,234.15c1.3-2.93,1.7-14.22,1.7-14.22,0,0-8.12,7.85-9.43,10.78-1.3,2.93-1.43,5.71,1.5,7.02,2.93,1.3,4.92-.65,6.22-3.58h.01ZM875.44,161.5c2.02,2.49,4.68,1.65,7.17-.37s7.97-11.89,7.97-11.89c0,0-10.8,3.31-13.29,5.33s-3.87,4.45-1.85,6.94h0ZM871.54,174.19c-2.31,2.23-3.46,4.77-1.24,7.07,2.23,2.3,4.8,1.24,7.11-.99,2.3-2.23,6.91-12.54,6.91-12.54,0,0-10.47,4.24-12.78,6.47h0ZM874.12,213c-1.79,2.66-2.4,5.38.26,7.17s4.96.21,6.75-2.45,4.15-13.71,4.15-13.71c0,0-9.36,6.32-11.15,8.98h-.01ZM870.09,200.23c2.38,2.14,4.88.9,7.02-1.48s6.01-13,6.01-13c0,0-10.15,4.96-12.3,7.34-2.14,2.38-3.12,5-.74,7.14h.01ZM870.91,141.64c-1.1-3.01-8.65-11.41-8.65-11.41,0,0-.39,11.29.71,14.3,1.1,3.01,2.94,5.1,5.96,4.01,3.01-1.1,3.08-3.89,1.99-6.9h0ZM863.11,162.38c-1.6-2.77-10.5-9.73-10.5-9.73,0,0,1.58,11.19,3.18,13.96,1.6,2.78,3.79,4.52,6.56,2.91,2.77-1.6,2.36-4.36.76-7.14h0ZM859.58,185.63c-2.06-2.45-12.03-7.77-12.03-7.77,0,0,3.5,10.74,5.56,13.2,2.06,2.45,4.51,3.79,6.97,1.73,2.45-2.06,1.57-4.71-.49-7.16h-.01ZM861.47,206.32c-2.45-2.06-13.2-5.56-13.2-5.56,0,0,5.31,9.97,7.77,12.03,2.45,2.06,5.1,2.95,7.16.49,2.06-2.45.73-4.91-1.73-6.97h0ZM866.59,227.04c-2.77-1.6-13.96-3.18-13.96-3.18,0,0,6.96,8.9,9.74,10.5s5.54,2.02,7.14-.76-.14-4.96-2.91-6.56h-.01ZM859.38,246.18s9.59,5.98,12.74,6.54c3.16.56,5.89,0,6.45-3.15.56-3.16-1.82-4.61-4.98-5.17-3.16-.56-14.21,1.79-14.21,1.79h0ZM884.88,259.62c-3.16.56-12.74,6.54-12.74,6.54,0,0,11.05,2.34,14.21,1.79,3.16-.56,5.54-2.01,4.98-5.17s-3.29-3.71-6.45-3.16h0ZM890.9,283.38s11.19-1.58,13.96-3.18c2.78-1.6,4.51-3.79,2.91-6.56s-4.36-2.36-7.14-.76c-2.77,1.6-9.74,10.5-9.74,10.5h.01ZM1039.95,273.64c-1.6,2.78.14,4.96,2.91,6.56s13.96,3.18,13.96,3.18c0,0-6.96-8.9-9.74-10.5-2.77-1.6-5.53-2.01-7.14.76h.01ZM1061.38,267.95c3.16.56,14.21-1.79,14.21-1.79,0,0-9.59-5.98-12.74-6.54s-5.89,0-6.45,3.16c-.56,3.16,1.82,4.61,4.98,5.17h0ZM1075.6,252.72c3.15-.56,12.74-6.54,12.74-6.54,0,0-11.05-2.34-14.21-1.79-3.16.56-5.54,2.01-4.98,5.17s3.29,3.71,6.45,3.15h0ZM1095.1,223.85s-11.19,1.58-13.96,3.18-4.51,3.79-2.91,6.56,4.36,2.36,7.14.76c2.77-1.6,9.74-10.5,9.74-10.5h-.01ZM1091.69,212.8c2.45-2.06,7.77-12.03,7.77-12.03,0,0-10.74,3.5-13.2,5.56s-3.79,4.51-1.73,6.97,4.71,1.57,7.16-.49h0ZM1094.62,191.06c2.06-2.45,5.56-13.2,5.56-13.2,0,0-9.97,5.31-12.03,7.77-2.06,2.45-2.95,5.1-.49,7.16s4.91.72,6.97-1.73h-.01Z"/>
    <path d="M958.83,274.87c1.41-2.1,2.38-3.73,2.38-6.56,0-3.45-1.6-5.36-4.77-5.36s-4.67,2.2-4.67,5.87v1.6h2.76v-1.76c0-2.2.47-3.36,1.91-3.36s1.94,1.25,1.94,3.01c0,2.26-.82,3.7-2.13,5.77l-4.58,6.87v2.01h9.66v-2.51h-6.21l3.7-5.58h.01ZM974.56,271.6c0-5.52-1.41-8.66-5.18-8.66s-5.18,3.14-5.18,8.66v2.95c0,5.52,1.41,8.66,5.18,8.66s5.18-3.14,5.18-8.66v-2.95h0ZM967.18,270.22c0-3.04.5-4.89,2.2-4.89s2.2,1.85,2.2,4.89v5.71c0,3.04-.5,4.89-2.2,4.89s-2.2-1.85-2.2-4.89v-5.71h0ZM977.26,267.96h2.35v14.99h2.92v-19.89h-1.94c-.56,2.13-1,2.98-3.33,3.01v1.88h0ZM990.62,283.21c3.8,0,5.18-3.11,5.18-8.63v-3.07c0-5.46-1.32-8.56-5.08-8.56-3.45,0-4.93,2.79-4.93,6.37s1.41,6.18,4.24,6.18c1.41,0,2.48-.78,2.95-1.85v2.1c0,3.14-.6,5.08-2.26,5.08-1.44,0-2.01-1.35-2.01-3.61v-.88h-2.67v.88c0,3.61,1.44,5.99,4.58,5.99h0ZM992.94,269.31c0,2.48-.66,3.98-2.16,3.98s-2.2-1.51-2.2-3.98.69-4.02,2.2-4.02,2.16,1.54,2.16,4.02h0Z"/>
    <path d="M947.2,230.3c-.35-.15-.82-.26-1.46-.26-1.85,0-2.71,1.02-2.71,2.74v.88h-.97v1.64h.97v6.46h2.32v-6.46h1.41v-1.64h-1.41v-.9c0-.6.24-.92.79-.92.33,0,.57.07.86.18l.2-1.74h0v.02ZM948.32,233.67v8.1h2.34v-8.1h-2.34ZM948.32,232.68h2.34v-2.25h-2.34v2.25h0ZM957.65,233.7c-.2-.11-.46-.14-.77-.14-.9,0-1.59.4-1.9,1.39v-1.28h-2.34v8.1h2.34v-4.14c0-1.35.57-1.94,1.65-1.94.33,0,.59.04.91.13l.11-2.12h0ZM958.6,239.1c.07,1.81,1.37,2.83,3.35,2.83s3.13-.95,3.13-2.54c0-1.35-.79-2.03-2.27-2.43l-1.15-.31c-.51-.16-.81-.33-.81-.79s.37-.71.92-.71c.82,0,1.19.51,1.19,1.25h1.97c-.02-1.67-1.06-2.89-3.18-2.89-1.81,0-3,1.06-3,2.56s.8,2.12,2.16,2.47l1.25.31c.55.15.81.31.81.73,0,.48-.4.71-1.01.71-.77,0-1.3-.38-1.35-1.19h-2.01ZM967,239.67c0,1.63.99,2.23,2.18,2.23.77,0,1.39-.18,2.01-.6v-1.63c-.49.24-.81.35-1.17.35-.48,0-.71-.26-.71-.81v-3.9h1.68v-1.64h-1.68v-2.21h-1.41l-.26,1.08c-.18.75-.44,1.13-1.21,1.3l-.35.07v1.41h.91v4.36h0ZM979.26,241.77v-4.59h3.37v-1.99h-3.37v-2.91h4.26v-2.03h-6.71v11.53h2.45ZM985.06,233.67v8.1h2.34v-8.1h-2.34ZM985.06,232.68h2.34v-2.25h-2.34v2.25h0ZM989.38,230.25v11.53h2.34v-11.53h-2.34ZM1000.56,237.18c0-.88.24-1.76,1.15-1.76.82,0,1.01.6,1.01,1.5v4.85h2.34v-5.62c0-1.48-.66-2.65-2.47-2.65-1.12,0-1.85.53-2.29,1.17-.35-.62-1.01-1.17-2.16-1.17-.97,0-1.76.48-2.11,1.15v-.99h-2.34v8.1h2.34v-4.59c0-.88.26-1.76,1.17-1.76.82,0,1.01.6,1.01,1.5v4.85h2.34v-4.59h.01Z"/>
    <path d="M909.29,212.87c-.35-.15-.82-.26-1.46-.26-1.85,0-2.71,1.02-2.71,2.74v.88h-.97v1.64h.97v6.46h2.32v-6.46h1.41v-1.64h-1.41v-.9c0-.6.24-.92.79-.92.33,0,.57.07.86.18l.2-1.74h0v.02ZM913.42,222.7c-.88,0-1.26-.73-1.26-1.9v-1.01c0-1.17.38-1.9,1.26-1.9s1.26.73,1.26,1.9v1.01c0,1.17-.38,1.9-1.26,1.9h0ZM913.42,224.51c2.23,0,3.59-1.57,3.59-4.06v-.31c0-2.49-1.35-4.06-3.59-4.06s-3.59,1.57-3.59,4.06v.31c0,2.49,1.35,4.06,3.59,4.06h0ZM923.67,216.28c-.2-.11-.46-.14-.77-.14-.9,0-1.59.4-1.9,1.39v-1.28h-2.34v8.1h2.34v-4.14c0-1.35.57-1.94,1.65-1.94.33,0,.59.04.91.13l.11-2.12h0ZM936.85,221.16c0-1.63-.97-2.53-2.32-2.76,1.22-.22,2.01-1.1,2.01-2.47,0-1.87-1.01-3.11-3.66-3.11h-3.77v11.53h3.79c2.71,0,3.95-1.17,3.95-3.18h0ZM932.77,219.42c1.3,0,1.7.57,1.7,1.48s-.4,1.47-1.68,1.47h-1.34v-2.95h1.32ZM931.45,214.77h1.12c1.26,0,1.59.6,1.59,1.43,0,.77-.33,1.36-1.59,1.36h-1.12v-2.78h0ZM941.78,224.51c2.01,0,3.13-1.17,3.27-3.09h-2.08c-.02.82-.4,1.26-1.17,1.26-.9,0-1.36-.64-1.36-1.91h4.67v-.64c0-2.49-1.1-4.06-3.42-4.06-2.14,0-3.49,1.57-3.49,4.06v.31c0,2.49,1.35,4.06,3.59,4.06h-.01ZM940.44,219.48c0-1.03.46-1.58,1.25-1.58s1.23.55,1.23,1.58h-2.48ZM946.31,221.68c.07,1.81,1.37,2.83,3.35,2.83s3.13-.95,3.13-2.54c0-1.35-.79-2.03-2.27-2.43l-1.15-.31c-.51-.16-.81-.33-.81-.79s.37-.71.92-.71c.82,0,1.19.51,1.19,1.24h1.97c-.02-1.67-1.06-2.89-3.18-2.89-1.81,0-3,1.06-3,2.56s.8,2.12,2.16,2.47l1.25.31c.55.15.81.31.81.73,0,.48-.4.71-1.01.71-.77,0-1.3-.38-1.36-1.19h-2ZM954.7,222.24c0,1.63.99,2.23,2.18,2.23.77,0,1.39-.18,2.01-.6v-1.63c-.49.24-.81.35-1.17.35-.48,0-.71-.26-.71-.81v-3.9h1.68v-1.64h-1.68v-2.21h-1.41l-.26,1.08c-.18.75-.44,1.13-1.21,1.3l-.35.07v1.41h.91v4.36h0ZM966.97,218.46v-3.66h1.1c1.21,0,1.83.49,1.83,1.83s-.62,1.83-1.83,1.83h-1.1ZM966.97,220.41h1.3c2.73,0,4.01-1.35,4.01-3.8s-1.28-3.79-4.01-3.79h-3.75v11.53h2.45v-3.93h0ZM976.95,222.7c-.88,0-1.26-.73-1.26-1.9v-1.01c0-1.17.38-1.9,1.26-1.9s1.26.73,1.26,1.9v1.01c0,1.17-.38,1.9-1.26,1.9h0ZM976.95,224.51c2.23,0,3.59-1.57,3.59-4.06v-.31c0-2.49-1.35-4.06-3.59-4.06s-3.59,1.57-3.59,4.06v.31c0,2.49,1.35,4.06,3.59,4.06h0ZM987.2,216.28c-.2-.11-.46-.14-.77-.14-.9,0-1.59.4-1.9,1.39v-1.28h-2.34v8.1h2.34v-4.14c0-1.35.57-1.94,1.65-1.94.33,0,.59.04.91.13l.11-2.12h0ZM989.08,222.24c0,1.63.99,2.23,2.17,2.23.77,0,1.39-.18,2.01-.6v-1.63c-.49.24-.81.35-1.17.35-.48,0-.71-.26-.71-.81v-3.9h1.68v-1.64h-1.68v-2.21h-1.41l-.26,1.08c-.18.75-.44,1.13-1.21,1.3l-.35.07v1.41h.91v4.36h.02ZM999.25,220.76c0,1.04-.31,1.81-1.21,1.81-.84,0-1.06-.6-1.06-1.52v-4.81h-2.32v5.56c0,1.57.73,2.71,2.45,2.71,1.06,0,1.81-.51,2.14-1.15v.99h2.34v-8.1h-2.34v4.52h0ZM1009.85,218.75c0-.4-.09-.79-.26-1.12.33-.09.71-.15,1.02-.15v-1.83c-.71,0-1.43.42-1.83,1.04-.57-.4-1.32-.62-2.18-.62-1.83,0-3.22,1-3.22,2.67v.22c0,.86.38,1.56,1.01,2.01-.71.38-1.08.86-1.08,1.56s.36,1.24.93,1.44c-.84.13-1.37.71-1.37,1.47,0,1.44,1.59,2.02,3.64,2.02,2.31,0,4.11-.88,4.11-2.84,0-1.44-.84-2.28-2.59-2.28h-2.25c-.44,0-.64-.23-.64-.55,0-.15.04-.26.11-.37.4.15.86.2,1.36.2,1.85,0,3.24-1.02,3.24-2.67v-.22h0v.02ZM1004.88,225.11c0-.47.29-.76.91-.76h1.89c.53,0,.88.22.88.71,0,.65-.79.94-2.03.94-1.08,0-1.65-.33-1.65-.89h0ZM1005.64,218.76c0-.71.31-1.19.97-1.19s.99.48.99,1.19v.18c0,.71-.31,1.19-.99,1.19s-.97-.48-.97-1.19v-.18h0ZM1016.51,220.76c0,1.04-.31,1.81-1.21,1.81-.84,0-1.06-.6-1.06-1.52v-4.81h-2.32v5.56c0,1.57.73,2.71,2.45,2.71,1.06,0,1.81-.51,2.14-1.15v.99h2.34v-8.1h-2.34v4.52h0ZM1024.13,224.51c2.01,0,3.13-1.17,3.27-3.09h-2.08c-.02.82-.4,1.26-1.17,1.26-.9,0-1.36-.64-1.36-1.91h4.67v-.64c0-2.49-1.1-4.06-3.42-4.06-2.14,0-3.49,1.57-3.49,4.06v.31c0,2.49,1.35,4.06,3.58,4.06h0ZM1022.79,219.48c0-1.03.46-1.58,1.25-1.58s1.23.55,1.23,1.58h-2.48ZM1028.66,221.68c.07,1.81,1.37,2.83,3.35,2.83s3.13-.95,3.13-2.54c0-1.35-.79-2.03-2.27-2.43l-1.16-.31c-.51-.16-.81-.33-.81-.79s.37-.71.91-.71c.82,0,1.19.51,1.19,1.24h1.97c-.02-1.67-1.06-2.89-3.18-2.89-1.81,0-3,1.06-3,2.56s.8,2.12,2.16,2.47l1.25.31c.55.15.81.31.81.73,0,.48-.4.71-1.01.71-.77,0-1.3-.38-1.36-1.19h-1.99.01ZM1039.98,224.51c2.01,0,3.13-1.17,3.27-3.09h-2.08c-.02.82-.4,1.26-1.17,1.26-.9,0-1.36-.64-1.36-1.91h4.67v-.64c0-2.49-1.1-4.06-3.42-4.06-2.14,0-3.49,1.57-3.49,4.06v.31c0,2.49,1.35,4.06,3.58,4.06h0ZM1038.64,219.48c0-1.03.46-1.58,1.25-1.58s1.23.55,1.23,1.58h-2.48Z"/>
    <path d="M904.67,203.83c0,.93-.51,1.54-1.34,1.54-.49,0-.79-.24-.79-.71,0-.51.33-.75.82-.95l1.3-.59v.71h.01ZM906.91,201.67c0-1.99-.99-3.02-3.13-3.02s-3.18,1.22-3.18,2.91v.24h2.08v-.24c0-.7.33-1.12,1.01-1.12s.97.44.97,1.12v.18l-2.33.86c-.93.37-2.03.88-2.03,2.34,0,1.24.82,2.08,2.25,2.08,1.06,0,1.87-.53,2.2-1.24.18.88.88,1.24,1.68,1.24.53,0,.91-.15,1.26-.37v-1.41c-.18.05-.29.07-.44.07-.24,0-.35-.13-.35-.38v-3.28h0v.02ZM911.46,202.36c0-1.01.35-1.79,1.26-1.79.84,0,1.06.6,1.06,1.54v4.81h2.34v-5.56c0-1.59-.77-2.71-2.49-2.71-1.06,0-1.83.51-2.18,1.15v-.99h-2.34v8.1h2.34v-4.56h.01ZM920.1,202.49c0-1.3.46-2,1.34-2s1.32.7,1.32,1.7v1.34c0,1.01-.48,1.68-1.32,1.68s-1.34-.68-1.34-1.98v-.75h0ZM922.76,206.92h2.34v-11.53h-2.34v4.43c-.4-.68-1.08-1.17-2.14-1.17-1.85,0-2.83,1.43-2.83,3.93v.57c0,2.51.99,3.93,2.83,3.93,1.06,0,1.74-.49,2.14-1.17v1h0ZM933.69,204.94v-7.58h1.03c1.56,0,2.36.71,2.36,2.95v1.68c0,2.23-.81,2.95-2.36,2.95h-1.03ZM931.22,206.92h3.71c3.2,0,4.65-1.9,4.65-5.43v-.66c0-3.53-1.44-5.43-4.65-5.43h-3.71v11.53h0ZM944.59,205.27c-.88,0-1.26-.73-1.26-1.9v-1.01c0-1.17.38-1.9,1.26-1.9s1.26.73,1.26,1.9v1.01c0,1.17-.38,1.9-1.26,1.9h0ZM944.59,207.08c2.23,0,3.59-1.57,3.59-4.06v-.31c0-2.49-1.35-4.06-3.59-4.06s-3.59,1.57-3.59,4.06v.31c0,2.49,1.35,4.06,3.59,4.06h0ZM949.47,203.02c0,2.49,1.32,4.06,3.53,4.06s3.27-1.48,3.27-3.49v-.2h-2.14v.16c0,1.01-.29,1.7-1.14,1.7s-1.21-.73-1.21-1.89v-1.01c0-1.17.35-1.9,1.21-1.9s1.14.71,1.14,1.72v.15h2.14v-.18c0-2.01-1.13-3.49-3.27-3.49s-3.53,1.57-3.53,4.06v.31h0ZM957.96,195.39v11.53h2.34v-11.53h-2.34ZM962.28,198.81v8.1h2.34v-8.1h-2.34ZM962.28,197.82h2.34v-2.25h-2.34v2.25h0ZM966.17,204.25c.07,1.81,1.37,2.83,3.35,2.83s3.13-.95,3.13-2.54c0-1.35-.79-2.03-2.27-2.43l-1.15-.31c-.51-.16-.81-.33-.81-.79s.37-.71.92-.71c.82,0,1.19.51,1.19,1.25h1.97c-.02-1.67-1.06-2.89-3.18-2.89-1.81,0-3,1.06-3,2.56s.8,2.12,2.16,2.47l1.25.31c.55.15.81.31.81.73,0,.48-.4.71-1.01.71-.77,0-1.3-.38-1.35-1.19h-2.01ZM979.28,203.24c0,1.3-.46,1.98-1.34,1.98s-1.32-.68-1.32-1.68v-1.34c0-1.01.46-1.7,1.32-1.7s1.34.7,1.34,2v.75h0ZM976.63,205.91c.38.68,1.08,1.17,2.14,1.17,1.85,0,2.83-1.43,2.83-3.93v-.57c0-2.51-.99-3.93-2.83-3.93-1.06,0-1.76.49-2.14,1.17v-4.43h-2.34v11.53h2.08l.26-1h0ZM986.53,205.27c-.88,0-1.26-.73-1.26-1.9v-1.01c0-1.17.38-1.9,1.26-1.9s1.26.73,1.26,1.9v1.01c0,1.17-.38,1.9-1.26,1.9h0ZM986.53,207.08c2.23,0,3.59-1.57,3.59-4.06v-.31c0-2.49-1.35-4.06-3.59-4.06s-3.59,1.57-3.59,4.06v.31c0,2.49,1.35,4.06,3.59,4.06h0ZM995.66,203.83c0,.93-.51,1.54-1.34,1.54-.49,0-.79-.24-.79-.71,0-.51.33-.75.82-.95l1.3-.59v.71h.01ZM997.91,201.67c0-1.99-.99-3.02-3.13-3.02s-3.18,1.22-3.18,2.91v.24h2.08v-.24c0-.7.33-1.12,1.01-1.12s.97.44.97,1.12v.18l-2.33.86c-.93.37-2.03.88-2.03,2.34,0,1.24.82,2.08,2.25,2.08,1.06,0,1.87-.53,2.2-1.24.18.88.88,1.24,1.68,1.24.53,0,.91-.15,1.26-.37v-1.41c-.18.05-.29.07-.44.07-.24,0-.35-.13-.35-.38v-3.28h0v.02ZM1006.78,195.39l-3.31,11.53h2.29l.73-2.65h3.37l.71,2.65h2.49l-3.31-11.53h-2.97ZM1008.15,198.21h.07l1.1,4.12h-2.3l1.13-4.12h0ZM1019.74,198.81h-1.81l-1.08,4.78h-.07l-1.12-4.78h-2.27l2.09,8.1h2.1l1.12-5.03h.07l1.12,5.03h2.1l2.09-8.1h-2.05l-1.12,4.78h-.07l-1.1-4.78h0ZM1029.16,203.83c0,.93-.51,1.54-1.34,1.54-.49,0-.79-.24-.79-.71,0-.51.33-.75.82-.95l1.3-.59v.71h.01ZM1031.41,201.67c0-1.99-.99-3.02-3.13-3.02s-3.18,1.22-3.18,2.91v.24h2.08v-.24c0-.7.33-1.12,1.01-1.12s.97.44.97,1.12v.18l-2.32.86c-.93.37-2.03.88-2.03,2.34,0,1.24.82,2.08,2.25,2.08,1.06,0,1.87-.53,2.2-1.24.18.88.88,1.24,1.68,1.24.53,0,.91-.15,1.26-.37v-1.41c-.18.05-.29.07-.44.07-.24,0-.35-.13-.35-.38v-3.28h0v.02ZM1038.62,198.85c-.2-.11-.46-.14-.77-.14-.9,0-1.59.4-1.9,1.39v-1.28h-2.34v8.1h2.34v-4.14c0-1.35.57-1.94,1.65-1.94.33,0,.59.04.91.13l.11-2.12h0ZM1041.98,202.49c0-1.3.46-2,1.34-2s1.32.7,1.32,1.7v1.34c0,1.01-.48,1.68-1.32,1.68s-1.34-.68-1.34-1.98v-.75h0ZM1044.64,206.92h2.34v-11.53h-2.34v4.43c-.4-.68-1.08-1.17-2.14-1.17-1.85,0-2.83,1.43-2.83,3.93v.57c0,2.51.99,3.93,2.83,3.93,1.06,0,1.74-.49,2.14-1.17v1h0Z"/>
    <path d="M934.67,189.49l2.07-8.16h.07v8.16h2.3v-11.53h-3.27l-1.72,7.04h-.07l-1.74-7.04h-3.44v11.53h2.18v-8.16h.07l2.05,8.16h1.5,0ZM941.23,181.39v8.1h2.34v-8.1h-2.34ZM941.23,180.4h2.34v-2.25h-2.34v2.25h0ZM947.6,185.06c0-1.3.46-2,1.34-2s1.32.7,1.32,1.7v1.34c0,1.01-.48,1.68-1.32,1.68s-1.34-.68-1.34-1.98v-.75h0ZM950.26,189.49h2.34v-11.53h-2.34v4.43c-.4-.68-1.08-1.17-2.14-1.17-1.85,0-2.83,1.43-2.83,3.93v.57c0,2.51.99,3.93,2.83,3.93,1.06,0,1.74-.49,2.14-1.17v1h0ZM958.54,186.4c0,.93-.51,1.54-1.34,1.54-.49,0-.79-.24-.79-.71,0-.51.33-.75.82-.95l1.3-.59v.71h.01ZM960.79,184.24c0-1.99-.99-3.02-3.13-3.02s-3.18,1.22-3.18,2.91v.24h2.08v-.24c0-.7.33-1.12,1.01-1.12s.97.44.97,1.12v.18l-2.33.86c-.93.37-2.03.88-2.03,2.34,0,1.24.82,2.08,2.25,2.08,1.06,0,1.87-.53,2.2-1.24.18.88.88,1.24,1.68,1.24.53,0,.91-.15,1.26-.37v-1.41c-.18.05-.29.07-.44.07-.24,0-.35-.13-.35-.38v-3.28h0v.02ZM962.63,186.82c.07,1.81,1.37,2.83,3.35,2.83s3.13-.95,3.13-2.54c0-1.35-.79-2.03-2.27-2.43l-1.15-.31c-.51-.16-.81-.33-.81-.79s.37-.71.92-.71c.82,0,1.19.51,1.19,1.25h1.97c-.02-1.67-1.06-2.89-3.18-2.89-1.81,0-3,1.06-3,2.56s.8,2.12,2.16,2.47l1.25.31c.55.15.81.31.81.73,0,.48-.4.71-1.01.71-.77,0-1.3-.38-1.35-1.19h-2.01ZM977.29,189.49v-4.59h3.37v-1.99h-3.37v-2.91h4.26v-2.03h-6.71v11.53h2.45ZM983.09,181.39v8.1h2.34v-8.1h-2.34ZM983.09,180.4h2.34v-2.25h-2.34v2.25h0ZM987.41,177.96v11.53h2.34v-11.53h-2.34ZM998.59,184.9c0-.88.24-1.76,1.15-1.76.82,0,1.01.6,1.01,1.5v4.85h2.34v-5.62c0-1.48-.66-2.65-2.47-2.65-1.12,0-1.85.53-2.29,1.17-.35-.62-1.01-1.17-2.16-1.17-.97,0-1.76.48-2.11,1.15v-.99h-2.34v8.1h2.34v-4.59c0-.88.26-1.76,1.17-1.76.82,0,1.01.6,1.01,1.5v4.85h2.34v-4.59h.01ZM1008.3,189.65c2.01,0,3.13-1.17,3.27-3.09h-2.08c-.02.82-.4,1.26-1.17,1.26-.9,0-1.36-.64-1.36-1.91h4.67v-.64c0-2.49-1.1-4.06-3.42-4.06-2.14,0-3.49,1.57-3.49,4.06v.31c0,2.49,1.35,4.06,3.58,4.06h0ZM1006.97,184.63c0-1.03.46-1.58,1.25-1.58s1.23.55,1.23,1.58h-2.48ZM1012.84,186.82c.07,1.81,1.37,2.83,3.35,2.83s3.13-.95,3.13-2.54c0-1.35-.79-2.03-2.27-2.43l-1.15-.31c-.51-.16-.81-.33-.81-.79s.37-.71.91-.71c.82,0,1.19.51,1.19,1.25h1.97c-.02-1.67-1.06-2.89-3.18-2.89-1.81,0-3,1.06-3,2.56s.81,2.12,2.16,2.47l1.25.31c.55.15.81.31.81.73,0,.48-.4.71-1.01.71-.77,0-1.3-.38-1.35-1.19h-2Z"/>
    <path d="M955.09,160.54l-3.31,11.53h2.29l.73-2.65h3.37l.71,2.65h2.49l-3.31-11.53h-2.97ZM956.46,163.35h.07l1.1,4.12h-2.31l1.13-4.12h.01ZM968.06,163.96h-1.81l-1.08,4.78h-.07l-1.12-4.78h-2.27l2.09,8.1h2.1l1.12-5.03h.07l1.12,5.03h2.1l2.09-8.1h-2.05l-1.12,4.78h-.07l-1.1-4.78h0ZM977.47,168.97c0,.93-.51,1.54-1.34,1.54-.49,0-.79-.24-.79-.71,0-.51.33-.75.82-.95l1.3-.59v.71h.01ZM979.72,166.81c0-1.99-.99-3.02-3.13-3.02s-3.18,1.22-3.18,2.91v.24h2.08v-.24c0-.7.33-1.12,1.01-1.12s.97.44.97,1.12v.18l-2.33.86c-.93.37-2.03.88-2.03,2.34,0,1.24.82,2.08,2.25,2.08,1.06,0,1.87-.53,2.2-1.24.18.88.88,1.24,1.68,1.24.53,0,.91-.15,1.26-.37v-1.41c-.18.05-.29.07-.44.07-.24,0-.35-.13-.35-.38v-3.28h0v.02ZM986.93,163.99c-.2-.11-.46-.14-.77-.14-.9,0-1.59.4-1.9,1.39v-1.28h-2.34v8.1h2.34v-4.14c0-1.35.57-1.94,1.65-1.94.33,0,.59.04.91.13l.11-2.12h0ZM990.29,167.64c0-1.3.46-2,1.34-2s1.32.7,1.32,1.7v1.34c0,1.01-.48,1.68-1.32,1.68s-1.34-.68-1.34-1.98v-.75h0ZM992.95,172.06h2.34v-11.53h-2.34v4.43c-.4-.68-1.08-1.17-2.14-1.17-1.85,0-2.83,1.43-2.83,3.93v.57c0,2.51.99,3.93,2.83,3.93,1.06,0,1.74-.49,2.14-1.17v1h0Z"/>
    <path d="M921.2,154.64v-4.59h3.37v-1.99h-3.37v-2.91h4.26v-2.03h-6.71v11.53h2.45ZM929.96,154.8c2.01,0,3.13-1.17,3.27-3.09h-2.08c-.02.82-.4,1.26-1.17,1.26-.9,0-1.36-.64-1.36-1.91h4.67v-.64c0-2.49-1.1-4.06-3.42-4.06-2.14,0-3.49,1.57-3.49,4.06v.31c0,2.49,1.35,4.06,3.59,4.06h-.01ZM928.62,149.77c0-1.03.46-1.58,1.25-1.58s1.23.55,1.23,1.58h-2.48ZM939.98,146.57c-.2-.11-.46-.14-.77-.14-.9,0-1.59.4-1.9,1.39v-1.28h-2.34v8.1h2.34v-4.14c0-1.35.57-1.94,1.65-1.94.33,0,.59.04.91.13l.11-2.12h0ZM943.64,150.08c0-1.01.35-1.79,1.26-1.79.84,0,1.06.6,1.06,1.54v4.81h2.34v-5.56c0-1.59-.77-2.71-2.49-2.71-1.06,0-1.83.51-2.18,1.15v-.99h-2.34v8.1h2.34v-4.56h.01ZM954.21,151.54c0,.93-.51,1.54-1.34,1.54-.49,0-.79-.24-.79-.71,0-.51.33-.75.82-.95l1.3-.59v.71h.01ZM956.46,149.38c0-1.99-.99-3.02-3.13-3.02s-3.18,1.22-3.18,2.91v.24h2.08v-.24c0-.7.33-1.12,1.01-1.12s.97.44.97,1.12v.18l-2.33.86c-.93.37-2.03.88-2.03,2.34,0,1.24.82,2.08,2.25,2.08,1.06,0,1.87-.53,2.2-1.24.18.88.88,1.24,1.68,1.24.53,0,.91-.15,1.26-.37v-1.41c-.18.05-.29.07-.44.07-.24,0-.35-.13-.35-.38v-3.28h0v.02ZM961,150.08c0-1.01.35-1.79,1.26-1.79.84,0,1.06.6,1.06,1.54v4.81h2.34v-5.56c0-1.59-.77-2.71-2.49-2.71-1.06,0-1.83.51-2.18,1.15v-.99h-2.34v8.1h2.34v-4.56h.01ZM969.64,150.21c0-1.3.46-2,1.34-2s1.32.7,1.32,1.7v1.34c0,1.01-.48,1.68-1.32,1.68s-1.34-.68-1.34-1.98v-.75h0ZM972.3,154.64h2.34v-11.53h-2.34v4.43c-.4-.68-1.08-1.17-2.14-1.17-1.85,0-2.83,1.43-2.83,3.93v.57c0,2.51.99,3.93,2.83,3.93,1.06,0,1.74-.49,2.14-1.17v1h0ZM979.88,152.99c-.88,0-1.26-.73-1.26-1.9v-1.01c0-1.17.38-1.9,1.26-1.9s1.26.73,1.26,1.9v1.01c0,1.17-.38,1.9-1.26,1.9h0ZM979.88,154.8c2.23,0,3.59-1.57,3.59-4.06v-.31c0-2.49-1.35-4.06-3.59-4.06s-3.59,1.57-3.59,4.06v.31c0,2.49,1.35,4.06,3.59,4.06h0ZM989.22,143.11v11.53h6.86v-2.03h-4.39v-9.5h-2.47ZM1000.91,152.99c-.88,0-1.26-.73-1.26-1.9v-1.01c0-1.17.39-1.9,1.26-1.9s1.26.73,1.26,1.9v1.01c0,1.17-.39,1.9-1.26,1.9h0ZM1000.91,154.8c2.23,0,3.58-1.57,3.58-4.06v-.31c0-2.49-1.35-4.06-3.58-4.06s-3.58,1.57-3.58,4.06v.31c0,2.49,1.35,4.06,3.58,4.06h0ZM1011.15,150.96c0,1.3-.46,1.98-1.34,1.98s-1.32-.68-1.32-1.68v-1.34c0-1.01.46-1.7,1.32-1.7s1.34.7,1.34,2v.75h0ZM1008.49,153.63c.39.68,1.08,1.17,2.14,1.17,1.85,0,2.83-1.43,2.83-3.93v-.57c0-2.51-.99-3.93-2.83-3.93-1.06,0-1.76.49-2.14,1.17v-1h-2.34v11.07h2.34v-3.97h0ZM1018.42,154.8c2.01,0,3.13-1.17,3.27-3.09h-2.08c-.02.82-.4,1.26-1.17,1.26-.9,0-1.36-.64-1.36-1.91h4.67v-.64c0-2.49-1.1-4.06-3.42-4.06-2.14,0-3.49,1.57-3.49,4.06v.31c0,2.49,1.35,4.06,3.58,4.06h0ZM1017.08,149.77c0-1.03.46-1.58,1.25-1.58s1.23.55,1.23,1.58h-2.48ZM1022.95,151.97c.07,1.81,1.37,2.83,3.35,2.83s3.13-.95,3.13-2.54c0-1.35-.79-2.03-2.27-2.43l-1.16-.31c-.51-.16-.81-.33-.81-.79s.37-.71.91-.71c.82,0,1.19.51,1.19,1.25h1.97c-.02-1.67-1.06-2.89-3.18-2.89-1.81,0-3,1.06-3,2.56s.8,2.12,2.16,2.47l1.25.31c.55.15.81.31.81.73,0,.48-.4.71-1.01.71-.77,0-1.3-.38-1.36-1.19h-1.99.01Z"/>
  </g>
  <g>
    <path d="M1242.26,321.83v-.9h-5.39v9.21h1.01v-4.05h3.95v-.9h-3.95v-3.36h4.39-.01ZM1246.28,330.14v-9.21h-1.01v9.21h1.01ZM1255.47,330.14v-.9h-4.39v-8.31h-1.01v9.21h5.4ZM1267.31,330.14l-.35-9.36-.2-.02-3.9,6.94-4-6.94-.19.02-.35,9.36h1.02l.11-6.52,3.29,5.58h.14l3.27-5.57.14,6.51h1.02,0ZM1280.54,321.83v-.9h-5.39v9.21h1.01v-4.05h3.95v-.9h-3.95v-3.36h4.39-.01ZM1288.91,330.14v-.9h-4.39v-3.32h3.95v-.9h-3.95v-3.18h4.39v-.9h-5.39v9.21h5.39ZM1297.25,327.65c0-1.23-.54-1.87-2.46-2.74-1.13-.52-1.57-1.03-1.57-1.67,0-.84.59-1.55,1.75-1.55.6,0,1.21.24,1.66.56l.45-.85c-.53-.36-1.27-.63-2.05-.63-1.68,0-2.82,1.18-2.82,2.51,0,1.1.59,1.82,2.19,2.53,1.51.67,1.82,1.15,1.82,1.95s-.55,1.61-1.73,1.61c-.72,0-1.52-.31-2.22-.82l-.49.88c.8.53,1.62.86,2.66.86,1.6,0,2.82-1.15,2.82-2.64h-.01ZM1307.02,321.83v-.9h-7.15v.9h3.08v8.31h1.01v-8.31h3.07,0ZM1311.01,330.14v-9.21h-1v9.21h1ZM1322.22,320.93h-1.09l-3.06,7.29-3.08-7.29h-1.13l4.1,9.38h.16l4.1-9.38h0ZM1331.53,330.14l-4.13-9.38h-.16l-4.14,9.38h1.04l1.09-2.55h4.12l1.09,2.55h1.09ZM1328.99,326.75h-3.39l1.7-3.96,1.7,3.96h0ZM1339.75,330.14v-.9h-4.39v-8.31h-1v9.21h5.39Z"/>
    <path d="M1231.35,315.21v-9.21h-1.01v9.21h1.01ZM1242.27,315.35v-9.35h-1.01v6.88l-5.91-7.05-.2.05v9.34h1.01v-6.99l5.98,7.16.13-.04h0ZM1252.38,306.91v-.9h-7.15v.9h3.08v8.31h1.01v-8.31h3.07,0ZM1260.73,315.21v-.9h-4.39v-3.32h3.95v-.9h-3.95v-3.18h4.39v-.9h-5.39v9.21h5.39ZM1270.34,315.21l-2.68-3.85c1.29-.41,2.01-1.38,2.01-2.66,0-1.58-1.17-2.77-3.54-2.77-.77,0-1.45.06-2.12.15v9.12h1.01v-3.63c.3.01.74.02,1.04.02.21,0,.41-.01.62-.02l2.45,3.63h1.22,0ZM1268.6,308.77c0,1.19-.74,1.98-2.46,1.98-.35,0-.82-.02-1.12-.06v-3.75c.33-.07.84-.1,1.27-.1,1.51,0,2.31.84,2.31,1.92h0ZM1280.32,315.35v-9.35h-1.01v6.88l-5.91-7.05-.2.05v9.34h1.01v-6.99l5.98,7.16.13-.04h0ZM1291.59,315.21l-4.14-9.38h-.16l-4.14,9.38h1.04l1.09-2.55h4.12l1.09,2.55h1.1ZM1289.05,311.82h-3.39l1.7-3.96,1.7,3.96h0ZM1299.67,306.91v-.9h-7.15v.9h3.08v8.31h1.01v-8.31h3.07,0ZM1303.67,315.21v-9.21h-1.01v9.21h1.01ZM1316.27,310.62c0-2.77-2.06-4.76-4.55-4.76s-4.64,2-4.64,4.76,2.06,4.75,4.55,4.75,4.64-1.99,4.64-4.75h0ZM1315.18,310.62c0,2.17-1.46,3.86-3.49,3.86s-3.51-1.69-3.51-3.86,1.46-3.86,3.51-3.86,3.49,1.68,3.49,3.86h0ZM1326.78,315.35v-9.35h-1.01v6.88l-5.91-7.05-.2.05v9.34h1.01v-6.99l5.98,7.16.13-.04h0ZM1338.05,315.21l-4.13-9.38h-.16l-4.14,9.38h1.04l1.09-2.55h4.12l1.09,2.55h1.09ZM1335.51,311.82h-3.39l1.7-3.96,1.7,3.96h0ZM1346.27,315.21v-.9h-4.39v-8.31h-1.01v9.21h5.4Z"/>
    <path d="M1251.56,295.6c0-2.6-1.78-4.59-5.61-4.59-.92,0-1.66.04-2.73.15v9.05c1.13.1,1.73.15,2.82.15,3.82,0,5.52-2.05,5.52-4.76h0ZM1249.28,295.6c0,1.72-.89,2.85-2.9,2.85-.46,0-.63-.01-1.02-.05v-5.43c.33-.04.52-.05.88-.05,1.99,0,3.04,1.01,3.04,2.68h0ZM1263.88,295.69c0-2.72-1.83-4.76-4.68-4.76s-4.76,2.05-4.76,4.76,1.82,4.75,4.68,4.75,4.76-2.05,4.76-4.75h0ZM1261.6,295.69c0,1.65-.98,2.85-2.44,2.85s-2.44-1.21-2.44-2.85.98-2.85,2.44-2.85,2.44,1.19,2.44,2.85h0ZM1274.91,299.59l-.64-1.81c-.69.43-1.55.68-2.3.68-1.72,0-2.79-1.05-2.79-2.76s1.07-2.77,2.79-2.77c.75,0,1.52.24,2.2.62l.65-1.81c-.83-.49-1.81-.8-2.88-.8-3,0-5.04,2.02-5.04,4.76s2.04,4.75,5.04,4.75c1.06,0,2.16-.33,2.97-.86h0ZM1284.16,300.29v-1.95h-3.69v-7.27h-2.14v9.21h5.83ZM1289.73,300.29v-9.21h-2.14v9.21h2.14ZM1299.63,297.58c0-1.18-.52-2.01-2.24-2.74-1.16-.49-1.62-.69-1.62-1.29,0-.38.31-.74,1.09-.74.65,0,1.51.39,2.04.75l.54-1.91c-.54-.36-1.57-.72-2.58-.72-2.15,0-3.24,1.31-3.24,2.65,0,1.11.57,2.05,2.19,2.7,1.41.56,1.65.89,1.65,1.37s-.29.8-1.04.8c-.87,0-1.83-.35-2.58-.89l-.59,1.94c.8.53,2.06.94,3.1.94,2.21,0,3.28-1.4,3.28-2.87h0ZM1309.88,297.68c0-1.05-.59-1.78-1.85-2.16,1.04-.43,1.58-1.08,1.58-2.05,0-1.28-1.36-2.47-4.03-2.47-.75,0-1.91.1-2.58.2v9c.9.11,1.95.19,2.75.19,2.77,0,4.12-1.27,4.12-2.7h.01ZM1307.42,293.86c0,.67-.51,1.04-1.55,1.04-.39,0-.55-.01-.79-.04v-1.92c.3-.05.58-.09.97-.09.9,0,1.37.45,1.37,1.01h0ZM1307.57,297.45c0,.69-.52,1.1-1.6,1.1-.43,0-.59-.01-.89-.04v-2.13c.21-.03.48-.04.8-.04,1.13,0,1.69.4,1.69,1.11h0ZM1322.49,295.69c0-2.72-1.84-4.76-4.68-4.76s-4.76,2.05-4.76,4.76,1.82,4.75,4.68,4.75,4.76-2.05,4.76-4.75h0ZM1320.2,295.69c0,1.65-.98,2.85-2.44,2.85s-2.44-1.21-2.44-2.85.98-2.85,2.44-2.85,2.44,1.19,2.44,2.85h0ZM1333.4,300.29l-4.34-9.29h-.29l-4.34,9.29h2.17l.69-1.67h3.18l.69,1.67h2.24ZM1329.8,296.99h-1.82l.92-2.21.9,2.21h0Z"/>
    <path d="M1273.11,274.81c1.41-2.1,2.38-3.73,2.38-6.56,0-3.45-1.6-5.36-4.77-5.36s-4.67,2.2-4.67,5.87v1.6h2.76v-1.76c0-2.2.47-3.36,1.91-3.36s1.94,1.25,1.94,3.01c0,2.26-.82,3.7-2.13,5.77l-4.58,6.87v2.01h9.66v-2.51h-6.21l3.7-5.58h.01ZM1288.83,271.55c0-5.52-1.41-8.66-5.18-8.66s-5.18,3.14-5.18,8.66v2.95c0,5.52,1.41,8.66,5.18,8.66s5.18-3.14,5.18-8.66v-2.95h0ZM1281.46,270.17c0-3.04.5-4.89,2.2-4.89s2.2,1.85,2.2,4.89v5.71c0,3.04-.5,4.89-2.2,4.89s-2.2-1.85-2.2-4.89v-5.71h0ZM1291.54,267.91h2.35v14.99h2.92v-19.89h-1.94c-.56,2.13-1,2.98-3.33,3.01v1.88h0ZM1304.89,283.16c3.8,0,5.18-3.11,5.18-8.63v-3.07c0-5.46-1.32-8.56-5.08-8.56-3.45,0-4.93,2.79-4.93,6.37s1.41,6.18,4.24,6.18c1.41,0,2.48-.78,2.95-1.85v2.1c0,3.14-.6,5.08-2.26,5.08-1.44,0-2.01-1.35-2.01-3.61v-.88h-2.67v.88c0,3.61,1.44,5.99,4.58,5.99h0ZM1307.22,269.26c0,2.48-.66,3.98-2.16,3.98s-2.2-1.51-2.2-3.98.69-4.02,2.2-4.02,2.16,1.54,2.16,4.02h0Z"/>
    <path d="M1406.38,166.56c1.6-2.77,3.18-13.96,3.18-13.96,0,0-8.9,6.96-10.5,9.73-1.6,2.78-2.02,5.54.76,7.14s4.96-.14,6.56-2.91h0ZM1399.2,144.49c1.1-3.01.71-14.3.71-14.3,0,0-7.55,8.4-8.65,11.41s-1.02,5.8,1.99,6.9,4.86-1,5.96-4.01h0ZM1383.3,138.45c1.32-1.67.76-3.9-.63-6.13-1.7-2.72-10.83-9.36-10.83-9.36,0,0,1.97,11.13,3.67,13.84,1.36,2.17,3.07,3.64,5.09,3.28,9.53,14.02,15.26,31.48,15.26,50.48,0,46.06-33.26,83.39-74.28,83.39v3.42c42.71,0,77.33-38.87,77.33-86.82,0-19.59-5.85-37.59-15.6-52.12h0v.02ZM1384.88,154.52c-2.49-2.02-13.29-5.33-13.29-5.33,0,0,5.48,9.88,7.97,11.89,2.49,2.02,5.15,2.86,7.17.37s.64-4.92-1.85-6.94h0ZM1388.06,212.95c-1.79-2.66-11.16-8.98-11.16-8.98,0,0,2.36,11.05,4.15,13.71s4.09,4.24,6.75,2.45c2.66-1.79,2.05-4.52.26-7.17h0ZM1391.87,181.21c2.23-2.3,1.07-4.84-1.24-7.07-2.3-2.23-12.78-6.47-12.78-6.47,0,0,4.6,10.32,6.91,12.54,2.31,2.23,4.88,3.29,7.11.99h0ZM1391.34,193.05c-2.14-2.38-12.3-7.34-12.3-7.34,0,0,3.87,10.61,6.02,13,2.14,2.38,4.64,3.63,7.02,1.48,2.38-2.14,1.4-4.76-.74-7.14h0ZM1370.59,219.88s.4,11.29,1.71,14.22c1.3,2.93,3.29,4.88,6.22,3.58,2.93-1.3,2.8-4.09,1.5-7.02s-9.43-10.78-9.43-10.78h0ZM1370.27,244.41c-1.09-3.01-8.65-11.41-8.65-11.41,0,0-.39,11.29.71,14.3,1.1,3.01,2.95,5.1,5.95,4.01,3.01-1.1,3.08-3.89,1.99-6.9h0ZM1358.85,254.81c-.67-3.13-6.98-12.5-6.98-12.5,0,0-1.95,11.13-1.29,14.26s2.2,5.46,5.34,4.8c3.13-.67,3.59-3.42,2.93-6.55h0ZM1344.56,262.25c-.22-3.2-5.17-13.35-5.17-13.35,0,0-3.48,10.75-3.26,13.95s1.42,5.72,4.62,5.49c3.2-.22,4.03-2.89,3.81-6.08h0ZM1255.06,277.39v-3.42c-41.03,0-74.28-37.34-74.28-83.39,0-19,5.73-36.46,15.26-50.48,2.02.35,3.73-1.11,5.09-3.28,1.7-2.72,3.67-13.84,3.67-13.84,0,0-9.14,6.65-10.83,9.36-1.39,2.22-1.95,4.45-.63,6.13-9.75,14.53-15.6,32.53-15.6,52.12,0,47.95,34.62,86.81,77.33,86.82h0v-.02ZM1240.49,262.84c.22-3.2-3.26-13.95-3.26-13.95,0,0-4.95,10.16-5.17,13.35-.22,3.2.61,5.86,3.81,6.08,3.2.22,4.4-2.3,4.62-5.49h0ZM1226.04,256.57c.67-3.13-1.29-14.26-1.29-14.26,0,0-6.31,9.37-6.98,12.5-.67,3.13-.21,5.89,2.93,6.55,3.13.67,4.67-1.66,5.34-4.8h0ZM1214.29,247.31c1.1-3.01.71-14.3.71-14.3,0,0-7.55,8.4-8.65,11.41s-1.02,5.8,1.99,6.9,4.86-1,5.95-4.01h0ZM1204.33,234.1c1.3-2.93,1.7-14.22,1.7-14.22,0,0-8.12,7.85-9.43,10.78-1.3,2.93-1.43,5.71,1.5,7.02,2.93,1.3,4.92-.65,6.22-3.58h.01ZM1189.89,161.45c2.02,2.49,4.68,1.65,7.17-.37s7.97-11.89,7.97-11.89c0,0-10.8,3.31-13.29,5.33s-3.87,4.45-1.85,6.94h0ZM1185.99,174.14c-2.31,2.23-3.46,4.77-1.24,7.07,2.23,2.3,4.8,1.24,7.11-.99,2.3-2.23,6.91-12.54,6.91-12.54,0,0-10.47,4.24-12.78,6.47h0ZM1188.57,212.95c-1.79,2.66-2.4,5.38.26,7.17s4.96.21,6.75-2.45,4.15-13.71,4.15-13.71c0,0-9.36,6.32-11.15,8.98h-.01ZM1184.54,200.19c2.38,2.14,4.88.9,7.02-1.48s6.01-13,6.01-13c0,0-10.15,4.96-12.3,7.34-2.14,2.38-3.12,5-.74,7.14h.01ZM1185.36,141.6c-1.1-3.01-8.65-11.41-8.65-11.41,0,0-.39,11.29.71,14.3,1.1,3.01,2.94,5.1,5.96,4.01,3.01-1.1,3.08-3.89,1.99-6.9h0ZM1177.56,162.33c-1.6-2.77-10.5-9.73-10.5-9.73,0,0,1.58,11.19,3.18,13.96,1.6,2.78,3.79,4.52,6.56,2.91,2.77-1.6,2.36-4.36.76-7.14h0ZM1174.03,185.59c-2.06-2.45-12.03-7.77-12.03-7.77,0,0,3.5,10.74,5.56,13.2,2.06,2.45,4.51,3.79,6.97,1.73,2.45-2.06,1.57-4.71-.49-7.16h-.01ZM1175.92,206.28c-2.45-2.06-13.2-5.56-13.2-5.56,0,0,5.31,9.97,7.77,12.03,2.45,2.06,5.1,2.95,7.16.49,2.06-2.45.73-4.91-1.73-6.97h0ZM1181.04,226.99c-2.77-1.6-13.96-3.18-13.96-3.18,0,0,6.96,8.9,9.74,10.5s5.54,2.02,7.14-.76-.14-4.96-2.91-6.56h-.01ZM1173.83,246.14s9.59,5.98,12.74,6.54c3.16.56,5.89,0,6.45-3.15.56-3.16-1.82-4.61-4.98-5.17-3.16-.56-14.21,1.79-14.21,1.79h0ZM1199.33,259.58c-3.16.56-12.74,6.54-12.74,6.54,0,0,11.05,2.34,14.21,1.79,3.16-.56,5.54-2.01,4.98-5.17s-3.29-3.71-6.45-3.16h0ZM1205.35,283.34s11.19-1.58,13.96-3.18c2.78-1.6,4.51-3.79,2.91-6.56s-4.36-2.36-7.14-.76c-2.77,1.6-9.74,10.5-9.74,10.5h.01ZM1354.4,273.6c-1.6,2.78.14,4.96,2.91,6.56s13.96,3.18,13.96,3.18c0,0-6.96-8.9-9.74-10.5-2.77-1.6-5.53-2.01-7.14.76h.01ZM1375.82,267.9c3.16.56,14.21-1.79,14.21-1.79,0,0-9.59-5.98-12.74-6.54s-5.89,0-6.45,3.16c-.56,3.16,1.82,4.61,4.98,5.17h0ZM1390.05,252.68c3.15-.56,12.74-6.54,12.74-6.54,0,0-11.05-2.34-14.21-1.79-3.16.56-5.54,2.01-4.98,5.17s3.29,3.71,6.45,3.15h0ZM1409.55,223.81s-11.19,1.58-13.96,3.18-4.51,3.79-2.91,6.56,4.36,2.36,7.14.76c2.77-1.6,9.74-10.5,9.74-10.5h-.01ZM1406.14,212.75c2.45-2.06,7.77-12.03,7.77-12.03,0,0-10.74,3.5-13.2,5.56s-3.79,4.51-1.73,6.97,4.71,1.57,7.16-.49h0ZM1409.07,191.02c2.06-2.45,5.56-13.2,5.56-13.2,0,0-9.97,5.31-12.03,7.77-2.06,2.45-2.95,5.1-.49,7.16s4.91.72,6.97-1.73h-.01Z"/>
    <path d="M1239.66,234.52v-7.58h1.03c1.56,0,2.36.71,2.36,2.95v1.68c0,2.23-.81,2.95-2.36,2.95h-1.03ZM1237.19,236.5h3.71c3.2,0,4.65-1.9,4.65-5.43v-.66c0-3.53-1.44-5.43-4.65-5.43h-3.71v11.53h0ZM1250.57,234.85c-.88,0-1.26-.73-1.26-1.9v-1.01c0-1.17.38-1.9,1.26-1.9s1.26.73,1.26,1.9v1.01c0,1.17-.38,1.9-1.26,1.9h0ZM1250.57,236.66c2.23,0,3.59-1.57,3.59-4.06v-.31c0-2.49-1.35-4.06-3.59-4.06s-3.59,1.57-3.59,4.06v.31c0,2.49,1.35,4.06,3.59,4.06h0ZM1255.45,232.6c0,2.49,1.32,4.06,3.53,4.06s3.27-1.48,3.27-3.49v-.2h-2.14v.16c0,1.01-.29,1.7-1.14,1.7s-1.21-.73-1.21-1.89v-1.01c0-1.17.35-1.9,1.21-1.9s1.14.71,1.14,1.72v.15h2.14v-.18c0-2.01-1.13-3.49-3.27-3.49s-3.53,1.57-3.53,4.06v.31h0ZM1263.62,227.28h1.15c-.02.75-.37.97-1.15,1.01v1.17c1.74-.04,2.52-.75,2.52-2.29v-2.19h-2.52v2.3h0ZM1266.87,233.83c.07,1.81,1.37,2.83,3.35,2.83s3.13-.95,3.13-2.54c0-1.35-.79-2.03-2.27-2.43l-1.15-.31c-.51-.16-.81-.33-.81-.79s.37-.71.92-.71c.82,0,1.19.51,1.19,1.24h1.97c-.02-1.67-1.06-2.89-3.18-2.89-1.81,0-3,1.06-3,2.56s.8,2.12,2.16,2.47l1.25.31c.55.15.81.31.81.73,0,.48-.4.71-1.01.71-.77,0-1.3-.38-1.35-1.19h-2.01ZM1287.78,236.5l-3.51-6.46,3.29-5.07h-2.62l-3.4,5.38v-5.38h-2.47v11.53h2.47v-3.35l.86-1.37,2.62,4.72h2.76ZM1289.16,228.39v8.1h2.34v-8.1h-2.34ZM1289.16,227.4h2.34v-2.25h-2.34v2.25h0ZM1295.82,231.94c0-1.01.35-1.79,1.26-1.79.84,0,1.06.6,1.06,1.54v4.81h2.34v-5.56c0-1.59-.77-2.71-2.49-2.71-1.06,0-1.83.51-2.18,1.15v-.99h-2.34v8.1h2.34v-4.56h.01ZM1308.66,230.9c0-.4-.09-.79-.26-1.12.33-.09.71-.15,1.02-.15v-1.83c-.71,0-1.43.42-1.83,1.04-.57-.4-1.32-.62-2.18-.62-1.83,0-3.22,1-3.22,2.67v.22c0,.86.38,1.56,1,2.01-.71.38-1.08.86-1.08,1.56s.36,1.24.93,1.44c-.84.13-1.37.71-1.37,1.47,0,1.44,1.59,2.02,3.64,2.02,2.31,0,4.12-.88,4.12-2.84,0-1.44-.84-2.28-2.6-2.28h-2.25c-.44,0-.64-.23-.64-.55,0-.15.04-.26.11-.37.4.15.86.2,1.36.2,1.85,0,3.24-1.02,3.24-2.67v-.22h0v.02ZM1303.68,237.26c0-.47.29-.76.91-.76h1.89c.53,0,.88.22.88.71,0,.65-.79.94-2.03.94-1.08,0-1.65-.33-1.65-.89h0ZM1304.45,230.92c0-.71.31-1.19.97-1.19s.99.48.99,1.19v.18c0,.71-.31,1.19-.99,1.19s-.97-.48-.97-1.19v-.18h0ZM1312.7,232.07c0-1.3.46-2,1.34-2s1.32.7,1.32,1.7v1.34c0,1.01-.48,1.68-1.32,1.68s-1.34-.68-1.34-1.98v-.75h0ZM1315.36,236.5h2.34v-11.53h-2.34v4.43c-.4-.68-1.08-1.17-2.14-1.17-1.85,0-2.83,1.43-2.83,3.93v.57c0,2.51.99,3.93,2.83,3.93,1.06,0,1.74-.49,2.14-1.17v1.01h0ZM1322.94,234.85c-.88,0-1.26-.73-1.26-1.9v-1.01c0-1.17.39-1.9,1.26-1.9s1.27.73,1.27,1.9v1.01c0,1.17-.39,1.9-1.27,1.9h0ZM1322.94,236.66c2.23,0,3.59-1.57,3.59-4.06v-.31c0-2.49-1.35-4.06-3.59-4.06s-3.58,1.57-3.58,4.06v.31c0,2.49,1.35,4.06,3.58,4.06h0ZM1335.04,231.91c0-.88.24-1.76,1.16-1.76.82,0,1.01.6,1.01,1.5v4.85h2.34v-5.62c0-1.48-.66-2.65-2.47-2.65-1.12,0-1.85.53-2.29,1.17-.35-.62-1.01-1.17-2.16-1.17-.97,0-1.76.48-2.11,1.15v-.99h-2.34v8.1h2.34v-4.59c0-.88.26-1.76,1.17-1.76.82,0,1.01.6,1.01,1.5v4.85h2.34v-4.59h0Z"/>
    <path d="M1234.42,202.72v-3.66h1.1c1.21,0,1.83.49,1.83,1.83s-.62,1.83-1.83,1.83h-1.1ZM1234.42,204.68h1.3c2.73,0,4.01-1.35,4.01-3.81s-1.28-3.79-4.01-3.79h-3.75v11.53h2.45v-3.93h0ZM1244.4,206.97c-.88,0-1.26-.73-1.26-1.9v-1.01c0-1.17.38-1.9,1.26-1.9s1.26.73,1.26,1.9v1.01c0,1.17-.38,1.9-1.26,1.9h0ZM1244.4,208.78c2.23,0,3.59-1.57,3.59-4.06v-.31c0-2.49-1.35-4.06-3.59-4.06s-3.59,1.57-3.59,4.06v.31c0,2.49,1.35,4.06,3.59,4.06h0ZM1254.65,200.54c-.2-.11-.46-.14-.77-.14-.9,0-1.59.4-1.9,1.39v-1.28h-2.34v8.1h2.34v-4.14c0-1.35.57-1.94,1.65-1.94.33,0,.59.04.91.13l.11-2.12h0ZM1256.53,206.51c0,1.63.99,2.23,2.18,2.23.77,0,1.39-.18,2.01-.6v-1.63c-.49.24-.81.35-1.17.35-.48,0-.71-.26-.71-.81v-3.9h1.68v-1.64h-1.68v-2.21h-1.41l-.26,1.08c-.18.75-.44,1.13-1.21,1.3l-.35.07v1.41h.91v4.36h0ZM1266.7,205.03c0,1.04-.31,1.81-1.21,1.81-.84,0-1.06-.6-1.06-1.52v-4.81h-2.32v5.56c0,1.57.73,2.71,2.45,2.71,1.06,0,1.81-.51,2.14-1.15v.99h2.34v-8.1h-2.34v4.52h0ZM1277.31,203.02c0-.4-.09-.79-.26-1.12.33-.09.71-.15,1.02-.15v-1.83c-.71,0-1.43.42-1.83,1.04-.57-.4-1.32-.62-2.18-.62-1.83,0-3.22,1-3.22,2.67v.22c0,.86.38,1.56,1.01,2.01-.71.38-1.08.86-1.08,1.56s.37,1.24.93,1.44c-.84.13-1.37.71-1.37,1.47,0,1.44,1.59,2.02,3.64,2.02,2.31,0,4.12-.88,4.12-2.84,0-1.44-.84-2.28-2.6-2.28h-2.25c-.44,0-.64-.23-.64-.55,0-.15.04-.26.11-.37.4.15.86.2,1.35.2,1.85,0,3.24-1.02,3.24-2.67v-.22h0v.02ZM1272.33,209.38c0-.47.29-.76.92-.76h1.89c.53,0,.88.22.88.71,0,.65-.79.94-2.03.94-1.08,0-1.65-.33-1.65-.89h-.01ZM1273.1,203.03c0-.71.31-1.19.97-1.19s.99.48.99,1.19v.18c0,.71-.31,1.19-.99,1.19s-.97-.48-.97-1.19v-.18h0ZM1283.96,205.03c0,1.04-.31,1.81-1.21,1.81-.84,0-1.06-.6-1.06-1.52v-4.81h-2.32v5.56c0,1.57.73,2.71,2.45,2.71,1.06,0,1.81-.51,2.14-1.15v.99h2.34v-8.1h-2.34v4.52h0ZM1291.58,208.78c2.01,0,3.13-1.17,3.27-3.09h-2.08c-.02.82-.4,1.26-1.17,1.26-.9,0-1.36-.64-1.36-1.91h4.67v-.64c0-2.49-1.1-4.06-3.42-4.06-2.14,0-3.49,1.57-3.49,4.06v.31c0,2.49,1.35,4.06,3.59,4.06h-.01ZM1290.24,203.75c0-1.03.46-1.58,1.25-1.58s1.23.55,1.23,1.58h-2.48ZM1296.11,205.94c.07,1.81,1.37,2.83,3.35,2.83s3.13-.95,3.13-2.54c0-1.35-.79-2.03-2.27-2.43l-1.15-.31c-.51-.16-.81-.33-.81-.79s.37-.71.92-.71c.82,0,1.19.51,1.19,1.24h1.97c-.02-1.67-1.06-2.89-3.18-2.89-1.81,0-3,1.06-3,2.56s.8,2.12,2.16,2.47l1.25.31c.55.15.81.31.81.73,0,.48-.4.71-1.01.71-.77,0-1.3-.38-1.36-1.19h-2ZM1307.43,208.78c2.01,0,3.13-1.17,3.27-3.09h-2.08c-.02.82-.4,1.26-1.17,1.26-.9,0-1.36-.64-1.36-1.91h4.67v-.64c0-2.49-1.1-4.06-3.42-4.06-2.14,0-3.49,1.57-3.49,4.06v.31c0,2.49,1.35,4.06,3.59,4.06h-.01ZM1306.09,203.75c0-1.03.46-1.58,1.25-1.58s1.23.55,1.23,1.58h-2.48ZM1318.96,208.61v-4.59h3.37v-1.99h-3.37v-2.91h4.26v-2.03h-6.71v11.53h2.45ZM1324.76,200.51v8.1h2.34v-8.1h-2.34ZM1324.76,199.52h2.34v-2.25h-2.34v2.25h0ZM1329.08,197.09v11.53h2.34v-11.53h-2.34ZM1340.26,204.02c0-.88.24-1.76,1.15-1.76.82,0,1.01.6,1.01,1.5v4.85h2.34v-5.62c0-1.48-.66-2.65-2.47-2.65-1.12,0-1.85.53-2.29,1.17-.35-.62-1.01-1.17-2.16-1.17-.97,0-1.76.48-2.11,1.15v-.99h-2.34v8.1h2.34v-4.59c0-.88.26-1.76,1.17-1.76.82,0,1.01.6,1.01,1.5v4.85h2.34v-4.59h.01Z"/>
    <path d="M1221.18,179.72c-.35-.15-.82-.26-1.46-.26-1.85,0-2.71,1.02-2.71,2.74v.88h-.97v1.64h.97v6.46h2.32v-6.46h1.41v-1.64h-1.41v-.9c0-.6.24-.92.79-.92.33,0,.57.07.86.18l.2-1.74h0v.02ZM1225.32,189.54c-.88,0-1.26-.73-1.26-1.9v-1.01c0-1.17.38-1.9,1.26-1.9s1.26.73,1.26,1.9v1.01c0,1.17-.38,1.9-1.26,1.9h0ZM1225.32,191.35c2.23,0,3.59-1.57,3.59-4.06v-.31c0-2.49-1.35-4.06-3.59-4.06s-3.59,1.57-3.59,4.06v.31c0,2.49,1.35,4.06,3.59,4.06h0ZM1235.57,183.12c-.2-.11-.46-.14-.77-.14-.9,0-1.59.4-1.9,1.39v-1.28h-2.34v8.1h2.34v-4.14c0-1.35.57-1.94,1.65-1.94.33,0,.59.04.91.13l.11-2.12h0ZM1248.75,188c0-1.63-.97-2.53-2.32-2.76,1.22-.22,2.01-1.1,2.01-2.47,0-1.87-1.01-3.11-3.66-3.11h-3.77v11.53h3.79c2.71,0,3.95-1.17,3.95-3.18h0ZM1244.67,186.26c1.3,0,1.7.57,1.7,1.48s-.4,1.47-1.68,1.47h-1.34v-2.95h1.32ZM1243.35,181.62h1.12c1.26,0,1.59.6,1.59,1.43,0,.77-.33,1.36-1.59,1.36h-1.12v-2.78h0ZM1253.68,191.35c2.01,0,3.13-1.17,3.27-3.09h-2.08c-.02.82-.4,1.26-1.17,1.26-.9,0-1.36-.64-1.36-1.91h4.67v-.64c0-2.49-1.1-4.06-3.42-4.06-2.14,0-3.49,1.57-3.49,4.06v.31c0,2.49,1.35,4.06,3.59,4.06h-.01ZM1252.34,186.32c0-1.03.46-1.58,1.25-1.58s1.23.55,1.23,1.58h-2.48ZM1258.21,188.52c.07,1.81,1.37,2.83,3.35,2.83s3.13-.95,3.13-2.54c0-1.35-.79-2.03-2.27-2.43l-1.15-.31c-.51-.16-.81-.33-.81-.79s.37-.71.92-.71c.82,0,1.19.51,1.19,1.25h1.97c-.02-1.67-1.06-2.89-3.18-2.89-1.81,0-3,1.06-3,2.56s.8,2.12,2.16,2.47l1.25.31c.55.15.81.31.81.73,0,.48-.4.71-1.01.71-.77,0-1.3-.38-1.35-1.19h-2.01ZM1266.6,189.08c0,1.63.99,2.23,2.18,2.23.77,0,1.39-.18,2.01-.6v-1.63c-.49.24-.81.35-1.17.35-.48,0-.71-.26-.71-.81v-3.9h1.68v-1.64h-1.68v-2.21h-1.41l-.26,1.08c-.18.75-.44,1.13-1.21,1.3l-.35.07v1.41h.91v4.36h0ZM1280.17,191.39c1.25,0,2.12-.49,2.45-1.37l.2,1.17h1.81v-5.82h-3.82v1.79h1.48v.15c0,1.32-.6,2.05-1.67,2.05-1.32,0-2.01-1.01-2.01-3.06v-1.76c0-2.05.64-3.04,1.87-3.04s1.78.93,1.78,2.67v.13h2.34v-.13c0-2.84-1.28-4.72-4.13-4.72s-4.37,2.16-4.37,5.58v.82c0,3.4,1.44,5.52,4.08,5.52h0v.02ZM1291.69,183.12c-.2-.11-.46-.14-.77-.14-.9,0-1.59.4-1.9,1.39v-1.28h-2.34v8.1h2.34v-4.14c0-1.35.57-1.94,1.65-1.94.33,0,.59.04.91.13l.11-2.12h0ZM1296.28,191.35c2.01,0,3.13-1.17,3.27-3.09h-2.08c-.02.82-.4,1.26-1.17,1.26-.9,0-1.36-.64-1.36-1.91h4.67v-.64c0-2.49-1.1-4.06-3.42-4.06-2.14,0-3.49,1.57-3.49,4.06v.31c0,2.49,1.35,4.06,3.59,4.06h-.01ZM1294.94,186.32c0-1.03.46-1.58,1.25-1.58s1.23.55,1.23,1.58h-2.48ZM1304.52,191.35c2.01,0,3.13-1.17,3.27-3.09h-2.08c-.02.82-.4,1.26-1.17,1.26-.9,0-1.35-.64-1.35-1.91h4.67v-.64c0-2.49-1.1-4.06-3.42-4.06-2.14,0-3.49,1.57-3.49,4.06v.31c0,2.49,1.35,4.06,3.59,4.06h-.02ZM1303.18,186.32c0-1.03.46-1.58,1.24-1.58s1.23.55,1.23,1.58h-2.47ZM1311.86,186.63c0-1.01.35-1.79,1.26-1.79.84,0,1.06.6,1.06,1.54v4.81h2.34v-5.56c0-1.59-.77-2.71-2.49-2.71-1.06,0-1.83.51-2.18,1.15v-.99h-2.34v8.1h2.34v-4.56h.01ZM1326.55,184.4l-2.12-4.74h-2.56l3.4,7.39v4.13h2.38v-4.13l3.4-7.39h-2.47l-2.03,4.74h0ZM1334.53,191.35c2.01,0,3.13-1.17,3.27-3.09h-2.08c-.02.82-.4,1.26-1.17,1.26-.9,0-1.36-.64-1.36-1.91h4.67v-.64c0-2.49-1.1-4.06-3.42-4.06-2.14,0-3.49,1.57-3.49,4.06v.31c0,2.49,1.35,4.06,3.58,4.06h0ZM1333.2,186.32c0-1.03.46-1.58,1.25-1.58s1.23.55,1.23,1.58h-2.48ZM1343.43,188.1c0,.93-.51,1.54-1.34,1.54-.49,0-.79-.24-.79-.71,0-.51.33-.75.82-.95l1.3-.59v.71h.01ZM1345.68,185.94c0-1.99-.99-3.02-3.13-3.02s-3.18,1.22-3.18,2.91v.24h2.08v-.24c0-.7.33-1.12,1.01-1.12s.97.44.97,1.12v.18l-2.33.86c-.93.37-2.03.88-2.03,2.34,0,1.24.82,2.08,2.25,2.08,1.06,0,1.87-.53,2.2-1.24.18.88.88,1.24,1.68,1.24.53,0,.91-.15,1.26-.37v-1.41c-.18.05-.29.07-.44.07-.24,0-.35-.13-.35-.38v-3.28h0v.02ZM1352.89,183.12c-.2-.11-.46-.14-.77-.14-.9,0-1.59.4-1.9,1.39v-1.28h-2.34v8.1h2.34v-4.14c0-1.35.57-1.94,1.65-1.94.33,0,.59.04.91.13l.11-2.12h0ZM1353.85,188.52c.07,1.81,1.37,2.83,3.35,2.83s3.13-.95,3.13-2.54c0-1.35-.79-2.03-2.27-2.43l-1.15-.31c-.51-.16-.81-.33-.81-.79s.37-.71.92-.71c.82,0,1.19.51,1.19,1.25h1.97c-.02-1.67-1.06-2.89-3.18-2.89-1.81,0-3,1.06-3,2.56s.81,2.12,2.16,2.47l1.25.31c.55.15.81.31.81.73,0,.48-.4.71-1.01.71-.77,0-1.3-.38-1.36-1.19h-2Z"/>
    <path d="M1222.24,167.87v-3.66h1.1c1.21,0,1.83.49,1.83,1.83s-.62,1.83-1.83,1.83h-1.1ZM1222.24,169.83h1.3c2.73,0,4.01-1.35,4.01-3.8s-1.28-3.79-4.01-3.79h-3.75v11.53h2.45v-3.93h0ZM1232.22,173.92c2.01,0,3.13-1.17,3.27-3.09h-2.08c-.02.82-.4,1.26-1.17,1.26-.9,0-1.36-.64-1.36-1.91h4.67v-.64c0-2.49-1.1-4.06-3.42-4.06-2.14,0-3.49,1.57-3.49,4.06v.31c0,2.49,1.35,4.06,3.59,4.06h-.01ZM1230.88,168.89c0-1.03.46-1.58,1.25-1.58s1.23.55,1.23,1.58h-2.48ZM1239.23,169.33c0-1.3.46-2,1.34-2s1.32.7,1.32,1.7v1.34c0,1.01-.48,1.68-1.32,1.68s-1.34-.68-1.34-1.98v-.75h0ZM1241.88,173.76h2.34v-11.53h-2.34v4.43c-.4-.68-1.08-1.17-2.14-1.17-1.85,0-2.83,1.43-2.83,3.93v.57c0,2.51.99,3.93,2.83,3.93,1.06,0,1.74-.49,2.14-1.17v1.01h0ZM1251.22,165.69c-.2-.11-.46-.14-.77-.14-.9,0-1.59.4-1.9,1.39v-1.28h-2.34v8.1h2.34v-4.14c0-1.35.57-1.94,1.65-1.94.33,0,.59.04.91.13l.11-2.12h0ZM1255.81,172.12c-.88,0-1.26-.73-1.26-1.9v-1.01c0-1.17.38-1.9,1.26-1.9s1.26.73,1.26,1.9v1.01c0,1.17-.38,1.9-1.26,1.9h0ZM1255.81,173.92c2.23,0,3.59-1.57,3.59-4.06v-.31c0-2.49-1.35-4.06-3.59-4.06s-3.59,1.57-3.59,4.06v.31c0,2.49,1.35,4.06,3.59,4.06h0ZM1267.6,173.76v-4.59h3.37v-1.99h-3.37v-2.91h4.26v-2.03h-6.71v11.53h2.45ZM1276.36,172.12c-.88,0-1.26-.73-1.26-1.9v-1.01c0-1.17.38-1.9,1.26-1.9s1.26.73,1.26,1.9v1.01c0,1.17-.38,1.9-1.26,1.9h0ZM1276.36,173.92c2.23,0,3.59-1.57,3.59-4.06v-.31c0-2.49-1.35-4.06-3.59-4.06s-3.59,1.57-3.59,4.06v.31c0,2.49,1.35,4.06,3.59,4.06h0ZM1286.61,165.69c-.2-.11-.46-.14-.77-.14-.9,0-1.59.4-1.9,1.39v-1.28h-2.34v8.1h2.34v-4.14c0-1.35.57-1.94,1.65-1.94.33,0,.59.04.91.13l.11-2.12h0ZM1288.49,171.66c0,1.63.99,2.23,2.18,2.23.77,0,1.39-.18,2.01-.6v-1.63c-.49.24-.81.35-1.17.35-.48,0-.71-.26-.71-.81v-3.9h1.68v-1.64h-1.68v-2.21h-1.41l-.26,1.08c-.18.75-.44,1.13-1.21,1.3l-.35.07v1.41h.91v4.36h0ZM1297.39,173.92c2.01,0,3.13-1.17,3.27-3.09h-2.08c-.02.82-.4,1.26-1.17,1.26-.9,0-1.36-.64-1.36-1.91h4.67v-.64c0-2.49-1.1-4.06-3.42-4.06-2.14,0-3.49,1.57-3.49,4.06v.31c0,2.49,1.35,4.06,3.59,4.06h-.01ZM1296.05,168.89c0-1.03.46-1.58,1.25-1.58s1.23.55,1.23,1.58h-2.48ZM1301.92,171.09c.07,1.81,1.37,2.83,3.35,2.83s3.13-.95,3.13-2.54c0-1.35-.79-2.03-2.27-2.43l-1.15-.31c-.51-.16-.81-.33-.81-.79s.37-.71.92-.71c.82,0,1.19.51,1.19,1.24h1.97c-.02-1.67-1.06-2.89-3.18-2.89-1.81,0-3,1.06-3,2.56s.81,2.12,2.16,2.47l1.25.31c.55.15.81.31.81.73,0,.48-.4.71-1.01.71-.77,0-1.3-.38-1.36-1.19h-2ZM1316.71,162.23l-3.31,11.53h2.29l.73-2.65h3.37l.71,2.65h2.49l-3.31-11.53h-2.97ZM1318.08,165.05h.07l1.1,4.12h-2.3l1.13-4.12h0ZM1329.67,165.66h-1.81l-1.08,4.78h-.07l-1.12-4.78h-2.27l2.09,8.1h2.1l1.12-5.03h.07l1.12,5.03h2.1l2.09-8.1h-2.05l-1.12,4.78h-.07l-1.1-4.78h0ZM1339.09,170.67c0,.93-.51,1.54-1.34,1.54-.49,0-.79-.24-.79-.71,0-.51.33-.75.82-.95l1.3-.59v.71h.01ZM1341.34,168.51c0-1.99-.99-3.02-3.13-3.02s-3.18,1.22-3.18,2.91v.24h2.08v-.24c0-.7.33-1.12,1.01-1.12s.97.44.97,1.12v.18l-2.33.86c-.93.37-2.03.88-2.03,2.34,0,1.24.82,2.08,2.25,2.08,1.06,0,1.87-.53,2.2-1.24.18.88.88,1.24,1.68,1.24.53,0,.91-.15,1.26-.37v-1.41c-.18.05-.29.07-.44.07-.24,0-.35-.13-.35-.38v-3.28h0v.02ZM1348.55,165.69c-.2-.11-.46-.14-.77-.14-.9,0-1.59.4-1.9,1.39v-1.28h-2.34v8.1h2.34v-4.14c0-1.35.57-1.94,1.65-1.94.33,0,.59.04.91.13l.11-2.12h0ZM1351.91,169.33c0-1.3.46-2,1.34-2s1.32.7,1.32,1.7v1.34c0,1.01-.48,1.68-1.32,1.68s-1.34-.68-1.34-1.98v-.75h0ZM1354.57,173.76h2.34v-11.53h-2.34v4.43c-.4-.68-1.08-1.17-2.14-1.17-1.85,0-2.83,1.43-2.83,3.93v.57c0,2.51.99,3.93,2.83,3.93,1.06,0,1.74-.49,2.14-1.17v1.01h0Z"/>
    <line stroke="currentColor" x1="1266.2" y1="216.89" x2="1310.42" y2="216.89"/>
  </g>
</svg>