<?xml version="1.0" encoding="UTF-8"?>
<svg id="Camada_1" data-name="Camada 1" xmlns="http://www.w3.org/2000/svg" viewBox="0 0 737 289.17">
  <path d="M14.57,35.95l-.57-2.35c-1.33,1.71-3.19,2.81-5.77,2.81-4.48,0-7.67-3.04-7.67-9.79,0-7.97,3.8-10.93,8.31-10.93,2.01,0,3.57.72,4.67,1.9v-4.21c0-1.9-.19-2.43-1.52-2.73l-.99-.23.27-1.9,6.83-.84.99.49v23.08c0,1.97.11,2.39,1.52,2.66l.76.11v1.94h-6.83ZM13.55,20.46c-.8-.68-2.09-1.14-3.15-1.14-2.58,0-3.99,1.9-3.99,6.79,0,4.56,1.29,6.45,3.95,6.45,1.18,0,2.43-.46,3.19-1.14v-10.97h0Z"/>
  <path d="M31.43,30.86c0,2.47.15,2.81,1.48,3.04l.91.11v1.94h-10.52v-1.94l.91-.11c1.37-.23,1.63-.49,1.63-3.04v-9.41c0-1.75-.42-2.24-1.75-2.51l-.84-.19.3-2.16,7.4-.65.46.23v14.69h.02ZM28.17,13.28c-2.01,0-3.3-1.18-3.3-3.23s1.29-3.19,3.3-3.19,3.38,1.1,3.38,3.19-1.29,3.23-3.38,3.23Z"/>
  <path d="M43.69,30.86c0,2.47.19,2.81,1.44,2.96l1.63.19v1.94h-10.9v-1.94l.76-.11c1.37-.19,1.48-.49,1.48-3.04v-9.45c0-1.75-.23-2.28-1.6-2.54l-.8-.15.3-2.13,6.68-.65.42.23.3,2.7c1.33-1.86,2.96-3.19,5.08-3.19.72,0,1.48.11,2.16.38l-.38,6h-.49c-1.63-.87-2.92-1.33-3.95-1.44-.91-.08-1.63.3-2.16.65v9.6h.03Z"/>
  <path d="M69.78,33.74c-2.01,1.71-4.78,2.66-7.48,2.66-6.91,0-9.8-4.56-9.8-10.44,0-7.02,4.48-10.29,9.45-10.29,4.71,0,7.82,2.62,7.82,9.26,0,.53-.04,1.29-.11,2.05h-11.24c.11,3.8,1.94,5.88,5.16,5.88,1.67,0,3.08-.42,4.9-1.4l1.29,2.28h.01,0ZM64.39,24.03c.15-3.76-.87-5.24-2.69-5.24s-3.15,1.48-3.27,5.24h5.96Z"/>
  <path d="M89.74,33.78c-1.59,1.33-4.21,2.62-7.52,2.62-6.53,0-9.45-4.48-9.45-9.91,0-7.33,4.14-10.82,10.17-10.82,2.58,0,4.97.8,6.3,1.71l-.27,5.43-3.26-.27-.49-2.47c-.15-.99-.95-1.21-2.09-1.21-2.88,0-4.56,2.2-4.56,6.83,0,5.69,2.47,7.21,5.35,7.21,1.67,0,3.38-.68,4.56-1.37l1.25,2.24h0Z"/>
  <path d="M105.99,34.77c-1.25.84-3.64,1.63-5.96,1.63-4.18,0-5.7-2.05-5.7-6.26v-11.08h-2.73l.3-2.58,2.73-.42,2.43-5.73h2.85v5.77h5.2l-.38,2.96h-4.82v10.48c0,2.28.34,3.49,2.2,3.49,1.29,0,2.32-.42,3-.72l.87,2.47h.01,0Z"/>
  <path d="M124.37,33.74c-2.01,1.71-4.78,2.66-7.48,2.66-6.91,0-9.79-4.56-9.79-10.44,0-7.02,4.48-10.29,9.45-10.29,4.71,0,7.82,2.62,7.82,9.26,0,.53-.04,1.29-.11,2.05h-11.24c.11,3.8,1.94,5.88,5.16,5.88,1.67,0,3.07-.42,4.9-1.4l1.29,2.28h0ZM118.98,24.03c.15-3.76-.87-5.24-2.7-5.24s-3.15,1.48-3.26,5.24h5.96Z"/>
  <path d="M141.42,35.95l-.57-2.35c-1.33,1.71-3.19,2.81-5.77,2.81-4.48,0-7.67-3.04-7.67-9.79,0-7.97,3.8-10.93,8.31-10.93,2.01,0,3.57.72,4.67,1.9v-4.21c0-1.9-.19-2.43-1.52-2.73l-.99-.23.26-1.9,6.83-.84.99.49v23.08c0,1.97.11,2.39,1.52,2.66l.76.11v1.94h-6.83.01ZM140.39,20.46c-.8-.68-2.09-1.14-3.15-1.14-2.58,0-3.98,1.9-3.98,6.79,0,4.56,1.29,6.45,3.95,6.45,1.18,0,2.43-.46,3.19-1.14v-10.97h-.01Z"/>
  <path d="M159.68,13.25c0-1.97-.34-2.35-1.71-2.66l-.65-.15.27-1.94,6.72-.84.95.49v10.17c1.33-1.44,3.08-2.66,5.81-2.66,4.21,0,7.14,2.96,7.14,9.83,0,7.86-3.68,10.89-8.01,10.89-2.31,0-4.4-1.14-5.47-2.51-.04,0-.08,0-.15.04l-.38,2.01h-5.2c.53-2.01.69-3.76.69-6.3V13.22v.03h-.01ZM165.26,31.54c.84.65,2.01,1.06,3.11,1.06,2.7,0,3.98-2.01,3.98-6.76,0-4.33-1.25-6.19-3.76-6.19-1.02,0-2.35.38-3.34,1.06v10.82h0Z"/>
  <path d="M192.74,35.41c-2.32,5.92-3.83,7.86-7.82,7.86-2.13,0-4.06-.84-4.82-1.48l1.06-2.58c.65.27,1.94.65,3.08.65,2.47,0,3-1.25,4.25-3.99l-6.15-15.18c-.68-1.67-.95-2.09-1.97-2.32l-.76-.15.42-2.13h9.94v2.16l-2.39.3,3.91,11.39h.15l4.18-11.35-2.54-.3.3-2.2h7.97v2.13l-.8.11c-1.33.19-1.59.76-2.31,2.58l-5.69,14.5h0Z"/>
  <path d="M251.92,10.59l-1.06.11c-1.14.11-1.25.61-1.25,2.66v17.39c0,2.51,0,2.81,1.44,2.96l.95.11v2.13h-10.32v-2.16l.95-.11c1.33-.23,1.44-.46,1.44-2.77V14.82h-.23l-6.57,21.14h-5.43l-6.61-21.11h-.23v15.94c0,2.28-.04,2.73,1.33,2.92l.99.11v2.13h-8.2v-2.16l1.03-.11c1.25-.23,1.44-.38,1.44-2.88V13.49c0-2.2-.23-2.58-1.52-2.77l-.91-.11v-2.13h9.95l6.38,21.67h.23l6.53-21.67h9.68v2.13-.02s0,0,0,0Z"/>
  <path d="M271.22,8.46l6.91,22.17c.76,2.51,1.06,2.81,2.24,3.07l.68.11v2.13h-10.93v-2.13l2.69-.42-1.56-5.35h-9.15l-1.71,5.43,2.51.34v2.13h-8.27v-2.13l.84-.15c1.33-.23,1.59-.95,2.2-2.66l7.48-22.55h6.07,0ZM266.97,12.49h-.11l-3.91,12.6h7.59l-3.57-12.6h0ZM264.61,6.68l-1.06-1.86,6.98-4.82,2.96,3-.08.49-8.81,3.19h0Z"/>
  <path d="M307.74,35.57c-1.06.49-2.66.84-4.1.84-2.43,0-4.18-.68-5.28-3.19-.72-1.67-1.18-4.37-1.74-6.57-.42-1.63-.91-2.39-2.88-2.39h-2.24v6.45c0,2.43-.04,2.85,1.37,3l.95.11v2.13h-10.51v-2.16l1.03-.11c1.25-.19,1.4-.42,1.4-2.96V13.52c0-2.2-.23-2.62-1.52-2.81l-.87-.11v-2.13h12.34c6.23,0,8.85,2.54,8.85,7.02,0,4.02-3.08,6.3-6.04,7.02,1.97.38,3.61,1.59,4.21,4.02l1.18,4.63c.53,2.01,1.29,2.24,3.68,2.39l.19,2.01h-.02ZM291.49,21.41h2.24c2.69,0,4.78-1.44,4.78-5.31,0-3.3-1.59-4.71-4.29-4.71h-2.73v10.02h0Z"/>
  <path d="M318.52,30.67c0,2.58.04,2.88,1.33,3.04l.99.11v2.13h-10.52v-2.16l.99-.11c1.33-.19,1.44-.46,1.44-3V13.52c0-2.2-.23-2.62-1.52-2.81l-.87-.11v-2.13h10.4v2.13l-1.02.11c-1.14.15-1.21.61-1.21,2.81v17.16h-.01Z"/>
  <path d="M324.71,22.58c0-8.09,4.21-14.61,13.17-14.61,8.27,0,11.77,6.26,11.77,13.89,0,8.46-4.02,14.54-12.68,14.54s-12.26-6.3-12.26-13.82h0ZM343.5,22.2c0-7.9-2.09-11.01-6.04-11.01s-6.6,3.11-6.6,11.05,2.39,10.86,6.38,10.86,6.26-3.04,6.26-10.89h0Z"/>
  <path d="M373.61,31.62h.15l6.23-20.69-2.43-.34v-2.13h8.16v2.13l-.84.11c-1.33.19-1.48.53-2.01,2.24l-7.1,23h-6.3l-7.33-22.17c-.83-2.47-.99-2.85-2.16-3.07l-.72-.11v-2.13h10.9v2.13l-2.7.42,6.15,20.61h0Z"/>
  <path d="M407.62,15.94l-3.26-.11-.76-2.62c-.34-1.29-.99-1.86-2.51-1.86h-4.71v9.11h8.58v3.07h-8.58v9.53h5.31c1.52,0,2.16-.49,2.51-1.78l.83-3.19h3.27l-.46,7.86h-19.7v-2.13l1.03-.11c1.37-.23,1.44-.46,1.44-3V13.51c0-2.2-.23-2.62-1.52-2.81l-.91-.11v-2.13h19.02l.42,7.48h0Z"/>
  <path d="M420.3,33.06h5.28c1.52,0,2.2-.46,2.58-1.78l.8-3.34h3.3l-.46,8.01h-19.7v-2.16l.99-.11c1.33-.23,1.44-.42,1.44-2.96V13.52c0-2.2-.23-2.62-1.52-2.81l-.87-.11v-2.13h11.2v2.13l-1.63.11c-1.33.08-1.4.65-1.4,2.51v19.85h0Z"/>
  <path d="M435.11,22.58c0-8.09,4.21-14.61,13.17-14.61,8.27,0,11.77,6.26,11.77,13.89,0,8.46-4.02,14.54-12.68,14.54s-12.26-6.3-12.26-13.82h0ZM453.9,22.2c0-7.9-2.09-11.01-6.04-11.01s-6.6,3.11-6.6,11.05,2.39,10.86,6.38,10.86,6.26-3.04,6.26-10.89h0Z"/>
  <path d="M477.9,15.87l-.53-2.54c-.3-1.48-.91-2.13-3.87-2.13-3.53,0-4.75,1.78-4.75,3.53,0,6.45,13.59,2.7,13.59,12.72,0,6.26-5.28,8.96-10.78,8.96-3.8,0-6.98-.84-8.43-1.71l.61-6.49h3.42l.42,2.58c.26,1.56,1.06,2.32,4.36,2.32s5.2-1.48,5.2-4.18c0-6.19-13.55-2.62-13.55-12.45,0-5.24,3.76-8.5,10.02-8.5,2.96,0,6.04.65,7.78,1.56l-.38,6.68-3.11-.34h0Z"/>
  <path d="M485.38,22.58c0-8.09,4.21-14.61,13.17-14.61,8.28,0,11.77,6.26,11.77,13.89,0,8.46-4.03,14.54-12.68,14.54s-12.26-6.3-12.26-13.82h0ZM504.17,22.2c0-7.9-2.09-11.01-6.03-11.01s-6.6,3.11-6.6,11.05,2.39,10.86,6.38,10.86,6.26-3.04,6.26-10.89h-.01Z"/>
  <path d="M2.39,82.76c0-1.9-.34-2.2-1.78-2.47l-.61-.11.3-2.13,6.68-.65.42.23.27,2.32c1.37-1.48,3.34-2.81,6.07-2.81,4.25,0,7.17,2.96,7.17,9.76,0,7.93-3.68,10.97-8.12,10.97-2.24,0-3.91-1.02-4.82-1.97v3.34c0,2.51.04,2.88,1.33,3.04l1.67.15v1.94H.08v-1.94l.83-.11c1.37-.23,1.48-.49,1.48-3.04v-16.51h0ZM7.97,93.01c.83.68,2.01,1.06,3.07,1.06,2.58,0,4.02-1.71,4.02-6.76,0-4.56-1.44-6.19-3.76-6.19-1.03,0-2.36.38-3.34,1.06v10.82h.01Z"/>
  <path d="M31.43,92.33c0,2.47.19,2.81,1.44,2.96l1.63.19v1.94h-10.89v-1.94l.76-.11c1.37-.19,1.48-.49,1.48-3.04v-9.45c0-1.75-.23-2.28-1.59-2.54l-.8-.15.3-2.13,6.68-.65.42.23.3,2.7c1.33-1.86,2.96-3.19,5.09-3.19.72,0,1.48.11,2.16.38l-.38,6h-.49c-1.63-.87-2.92-1.33-3.95-1.44-.91-.08-1.63.3-2.16.65v9.6h0Z"/>
  <path d="M40.24,87.43c0-6.19,3.42-10.29,9.83-10.29s9.26,4.18,9.26,10.13c0,6.42-3.11,10.59-9.72,10.59s-9.38-4.25-9.38-10.44h.01ZM53.53,87.39c0-5.35-1.29-7.06-3.64-7.06s-3.83,1.63-3.83,7.1,1.37,7.44,3.76,7.44,3.72-1.9,3.72-7.48h0Z"/>
  <path d="M76.38,97.41l-.57-2.35c-1.33,1.71-3.19,2.81-5.77,2.81-4.48,0-7.67-3.04-7.67-9.79,0-7.97,3.8-10.93,8.31-10.93,2.01,0,3.57.72,4.67,1.9v-4.21c0-1.9-.19-2.43-1.52-2.73l-.99-.23.26-1.9,6.83-.84.99.49v23.08c0,1.97.11,2.39,1.52,2.66l.76.11v1.94h-6.83.01,0ZM75.36,81.93c-.8-.68-2.09-1.14-3.15-1.14-2.58,0-3.98,1.9-3.98,6.79,0,4.56,1.29,6.45,3.95,6.45,1.18,0,2.43-.46,3.19-1.14v-10.97h-.01,0Z"/>
  <path d="M104.17,92.67c0,1.94.11,2.35,1.48,2.47l.68.11-.11,1.97-6.45.57-.42-.23-.42-2.51c-1.56,1.63-3.57,2.81-6.11,2.81-3.87,0-5.85-1.97-5.85-6.64v-8.01c0-2.24-.26-2.58-1.63-2.85l-.8-.19.3-2.09,7.29-.68.42.3v12.79c0,2.35.8,3.45,2.7,3.45,1.25,0,2.51-.49,3.34-1.06v-9.83c0-2.24-.42-2.47-1.78-2.73l-.61-.11.3-2.16,7.25-.65.42.23v15.03h0Z"/>
  <path d="M125.81,95.25c-1.59,1.33-4.21,2.62-7.52,2.62-6.53,0-9.45-4.48-9.45-9.91,0-7.33,4.14-10.82,10.17-10.82,2.58,0,4.97.8,6.3,1.71l-.27,5.43-3.26-.27-.49-2.47c-.15-.99-.95-1.21-2.09-1.21-2.88,0-4.56,2.2-4.56,6.83,0,5.69,2.47,7.21,5.35,7.21,1.67,0,3.38-.68,4.56-1.37l1.25,2.24h0Z"/>
  <path d="M145.1,95.21c-2.01,1.71-4.78,2.66-7.48,2.66-6.91,0-9.79-4.56-9.79-10.44,0-7.02,4.48-10.29,9.45-10.29,4.71,0,7.82,2.62,7.82,9.26,0,.53-.04,1.29-.11,2.05h-11.24c.11,3.8,1.94,5.88,5.16,5.88,1.67,0,3.07-.42,4.9-1.4l1.29,2.28h0ZM139.71,85.49c.15-3.76-.87-5.24-2.7-5.24s-3.15,1.48-3.26,5.24h5.96,0Z"/>
  <path d="M162.15,97.41l-.57-2.35c-1.33,1.71-3.19,2.81-5.77,2.81-4.48,0-7.67-3.04-7.67-9.79,0-7.97,3.8-10.93,8.31-10.93,2.01,0,3.57.72,4.67,1.9v-4.21c0-1.9-.19-2.43-1.52-2.73l-.99-.23.26-1.9,6.83-.84.99.49v23.08c0,1.97.11,2.39,1.52,2.66l.76.11v1.94h-6.83.01ZM161.12,81.93c-.8-.68-2.09-1.14-3.15-1.14-2.58,0-3.98,1.9-3.98,6.79,0,4.56,1.29,6.45,3.95,6.45,1.18,0,2.43-.46,3.19-1.14v-10.97h-.01Z"/>
  <path d="M180.41,74.71c0-1.97-.34-2.35-1.71-2.66l-.65-.15.27-1.94,6.72-.84.95.49v10.17c1.33-1.44,3.08-2.66,5.81-2.66,4.21,0,7.14,2.96,7.14,9.83,0,7.86-3.68,10.89-8.01,10.89-2.31,0-4.4-1.14-5.47-2.51-.04,0-.08,0-.15.04l-.38,2.01h-5.2c.53-2.01.69-3.76.69-6.3v-16.4.03h-.01ZM185.99,93.01c.84.65,2.01,1.06,3.11,1.06,2.7,0,3.98-2.01,3.98-6.76,0-4.33-1.25-6.19-3.76-6.19-1.02,0-2.35.38-3.34,1.06v10.82h0Z"/>
  <path d="M213.48,96.88c-2.31,5.92-3.83,7.86-7.82,7.86-2.13,0-4.06-.84-4.82-1.48l1.06-2.58c.64.27,1.94.65,3.07.65,2.47,0,3-1.25,4.25-3.99l-6.15-15.18c-.68-1.67-.95-2.09-1.97-2.32l-.76-.15.42-2.13h9.95v2.16l-2.39.3,3.91,11.39h.15l4.17-11.35-2.54-.3.3-2.2h7.97v2.13l-.8.11c-1.33.19-1.6.76-2.32,2.58l-5.69,14.5h.01Z"/>
  <path d="M248.06,81.93h10.32v-6.72c0-2.47,0-2.85-1.33-3.04l-.99-.11v-2.13h10.52v2.16l-.99.11c-1.33.19-1.44.49-1.44,2.77v17.16c0,2.43.15,2.85,1.52,3.04l.87.11v2.13h-10.4v-2.13l1.02-.11c1.1-.15,1.21-.61,1.21-2.81v-7.36h-10.32v7.14c0,2.47,0,2.85,1.33,3.04l1.03.11v2.13h-10.55v-2.16l1.02-.11c1.33-.23,1.44-.46,1.44-3v-17.16c0-2.2-.27-2.62-1.52-2.81l-.91-.11v-2.13h10.44v2.13l-1.06.11c-1.1.15-1.21.61-1.21,2.81v6.95h0Z"/>
  <path d="M290.05,77.41l-3.26-.11-.76-2.62c-.34-1.29-.99-1.86-2.51-1.86h-4.71v9.11h8.58v3.07h-8.58v9.53h5.31c1.52,0,2.16-.49,2.51-1.78l.83-3.19h3.27l-.46,7.86h-19.7v-2.13l1.03-.11c1.37-.23,1.44-.46,1.44-3v-17.2c0-2.2-.23-2.62-1.52-2.81l-.91-.11v-2.13h19.02l.42,7.48h0Z"/>
  <path d="M314.5,90.39l.15-.04v-15.53c0-2.09-.26-2.47-1.52-2.66l-.87-.11v-2.13h8.16v2.13l-1.1.11c-1.18.11-1.29.65-1.29,2.62v22.62h-5.39l-12.11-20.23-.15.04v15.07c0,2.35,0,2.7,1.33,2.88l.99.11v2.13h-8.16v-2.16l.99-.11c1.33-.19,1.44-.42,1.44-2.88v-17.31c0-2.2-.23-2.58-1.52-2.77l-.87-.11v-2.13h7.93l11.99,20.46h0Z"/>
  <path d="M348.59,97.03c-1.06.49-2.66.84-4.1.84-2.43,0-4.18-.68-5.28-3.19-.72-1.67-1.18-4.37-1.74-6.57-.42-1.63-.91-2.39-2.88-2.39h-2.24v6.45c0,2.43-.04,2.85,1.37,3l.95.11v2.13h-10.51v-2.16l1.03-.11c1.25-.19,1.4-.42,1.4-2.96v-17.2c0-2.2-.23-2.62-1.52-2.81l-.87-.11v-2.13h12.34c6.23,0,8.85,2.54,8.85,7.02,0,4.02-3.08,6.3-6.04,7.02,1.97.38,3.61,1.59,4.21,4.02l1.18,4.63c.53,2.01,1.29,2.24,3.68,2.39l.19,2.01h-.02ZM332.34,82.88h2.24c2.69,0,4.78-1.44,4.78-5.31,0-3.3-1.59-4.71-4.29-4.71h-2.73v10.02h0Z"/>
  <path d="M359.37,92.14c0,2.58.04,2.88,1.33,3.04l.99.11v2.13h-10.51v-2.16l.99-.11c1.33-.19,1.44-.46,1.44-3v-17.16c0-2.2-.23-2.62-1.52-2.81l-.87-.11v-2.13h10.4v2.13l-1.03.11c-1.14.15-1.21.61-1.21,2.81v17.16h0Z"/>
  <path d="M365.56,84.05c0-8.09,4.21-14.61,13.17-14.61,8.27,0,11.77,6.26,11.77,13.89,0,7.14-2.88,12.75-9.49,14.01l.04.23c2.66.11,3.83.46,5.39,2.05,1.1,1.14,2.09,1.86,3.76,1.86l1.1.04.38,1.78c-1.06.57-2.62,1.25-4.52,1.25-2.66,0-4.36-1.25-5.69-3.3s-2.09-3.15-4.71-3.45c-8.09-.95-11.2-6.42-11.2-13.74h0ZM384.35,83.67c0-7.9-2.09-11.01-6.04-11.01s-6.6,3.11-6.6,11.05,2.39,10.86,6.38,10.86,6.26-3.04,6.26-10.89h0Z"/>
  <path d="M413.32,74.45c0-1.48-.26-2.09-1.37-2.24l-1.02-.15v-2.13h8.46v2.13l-1.1.11c-.99.08-1.25.46-1.25,2.2v13.1c0,7.29-3.72,10.4-10.1,10.4-8.16,0-10.74-3.99-10.74-10.78v-12.56c0-1.37-.15-2.16-1.29-2.32l-1.1-.15v-2.13h10.55v2.13l-1.14.11c-1.14.11-1.25.76-1.25,2.24v13.32c0,4.29,1.18,6.83,5.43,6.83,3.95,0,5.92-1.82,5.92-6.72v-13.4h0Z"/>
  <path d="M442.59,77.41l-3.26-.11-.76-2.62c-.34-1.29-.99-1.86-2.51-1.86h-4.71v9.11h8.58v3.07h-8.58v9.53h5.31c1.52,0,2.16-.49,2.51-1.78l.83-3.19h3.27l-.46,7.86h-19.7v-2.13l1.03-.11c1.37-.23,1.44-.46,1.44-3v-17.2c0-2.2-.23-2.62-1.52-2.81l-.91-.11v-2.13h19.02l.42,7.48h0Z"/>
  <path d="M462.87,92.1c0,2.28.07,2.58,1.25,2.7l4.02.53v2.09h-13.51v-2.13l1.02-.11c1.33-.19,1.44-.46,1.44-2.88v-17.31c0-2.2-.23-2.62-1.52-2.81l-.91-.11v-2.13h19.02l.42,7.55-3.27-.15-.76-2.66c-.34-1.29-.99-1.86-2.5-1.86h-4.71v9.49h8.58v3.04h-8.58v6.76h.01Z"/>
  <path d="M485.91,92.14c0,2.58.04,2.88,1.33,3.04l.99.11v2.13h-10.52v-2.16l.99-.11c1.33-.19,1.44-.46,1.44-3v-17.16c0-2.2-.23-2.62-1.52-2.81l-.87-.11v-2.13h10.4v2.13l-1.02.11c-1.14.15-1.21.61-1.21,2.81v17.16h-.01Z"/>
  <path d="M507.7,69.93l6.91,22.17c.76,2.51,1.06,2.81,2.24,3.07l.68.11v2.13h-10.93v-2.13l2.7-.42-1.56-5.35h-9.15l-1.71,5.43,2.51.34v2.13h-8.27v-2.13l.84-.15c1.33-.23,1.59-.95,2.2-2.66l7.48-22.55h6.07-.01ZM503.45,73.96h-.11l-3.91,12.6h7.59l-3.57-12.6h0Z"/>
  <path d="M527.98,94.53h5.28c1.52,0,2.2-.46,2.58-1.78l.8-3.34h3.3l-.46,8.01h-19.7v-2.16l.99-.11c1.33-.23,1.44-.42,1.44-2.96v-17.2c0-2.2-.23-2.62-1.52-2.81l-.87-.11v-2.13h11.2v2.13l-1.63.11c-1.33.08-1.41.65-1.41,2.51v19.85h0Z"/>
  <path d="M551.36,81.93h10.32v-6.72c0-2.47,0-2.85-1.33-3.04l-.99-.11v-2.13h10.51v2.16l-.99.11c-1.33.19-1.44.49-1.44,2.77v17.16c0,2.43.15,2.85,1.52,3.04l.87.11v2.13h-10.4v-2.13l1.03-.11c1.1-.15,1.21-.61,1.21-2.81v-7.36h-10.32v7.14c0,2.47,0,2.85,1.33,3.04l1.02.11v2.13h-10.55v-2.16l1.03-.11c1.33-.23,1.44-.46,1.44-3v-17.16c0-2.2-.26-2.62-1.52-2.81l-.91-.11v-2.13h10.44v2.13l-1.06.11c-1.1.15-1.21.61-1.21,2.81v6.95h0Z"/>
  <path d="M573.5,84.05c0-8.09,4.21-14.61,13.17-14.61,8.28,0,11.77,6.26,11.77,13.89,0,8.46-4.03,14.54-12.68,14.54s-12.26-6.3-12.26-13.82h0ZM592.29,83.67c0-7.9-2.09-11.01-6.03-11.01s-6.6,3.11-6.6,11.05,2.39,10.86,6.38,10.86,6.26-3.04,6.26-10.89h-.01Z"/>
  <path d="M17.5,156.72c-1.59,1.33-4.21,2.62-7.52,2.62-6.53,0-9.45-4.48-9.45-9.91,0-7.33,4.14-10.82,10.17-10.82,2.58,0,4.97.8,6.3,1.71l-.26,5.43-3.26-.27-.49-2.47c-.15-.99-.95-1.21-2.09-1.21-2.88,0-4.56,2.2-4.56,6.83,0,5.69,2.47,7.21,5.35,7.21,1.67,0,3.38-.68,4.56-1.37l1.25,2.24h0Z"/>
  <path d="M28.02,153.8c0,2.47.15,2.81,1.48,3.04l.91.11v1.94h-10.52v-1.94l.91-.11c1.37-.23,1.63-.49,1.63-3.04v-9.41c0-1.75-.42-2.24-1.75-2.51l-.84-.19.3-2.16,7.4-.65.46.23v14.69h.02ZM24.75,136.22c-2.01,0-3.3-1.18-3.3-3.23s1.29-3.19,3.3-3.19,3.38,1.1,3.38,3.19-1.29,3.23-3.38,3.23Z"/>
  <path d="M40.28,153.8c0,2.47,0,2.81,1.33,3.07l.65.08v1.94h-9.87v-1.94l.8-.11c1.37-.23,1.52-.49,1.52-3.04v-9.57c0-1.75-.27-2.16-1.6-2.43l-.8-.15.3-2.13,6.68-.65.42.23.26,2.35c1.59-1.56,3.68-2.85,6.53-2.85,3.42,0,5.73,1.82,5.73,6.49v8.69c0,2.43.11,2.85,1.48,3.04l.91.11v1.94h-9.87v-1.94l.68-.08c1.14-.19,1.21-.65,1.21-2.85v-8.2c0-2.35-.87-3.3-2.85-3.3-1.37,0-2.7.53-3.53,1.06v10.21l.02.03h0Z"/>
  <path d="M74.06,156.68c-2.01,1.71-4.78,2.66-7.48,2.66-6.91,0-9.79-4.56-9.79-10.44,0-7.02,4.48-10.29,9.45-10.29,4.71,0,7.82,2.62,7.82,9.26,0,.53-.04,1.29-.11,2.05h-11.24c.11,3.8,1.94,5.88,5.16,5.88,1.67,0,3.07-.42,4.9-1.4l1.29,2.28h0ZM68.67,146.96c.15-3.76-.87-5.24-2.7-5.24s-3.15,1.48-3.26,5.24c0,0,5.96,0,5.96,0Z"/>
  <path d="M84.62,153.8c0,2.47-.08,2.85,1.06,3.04l.72.11v1.94h-9.64v-1.94l.91-.15c1.37-.23,1.37-.46,1.37-3v-9.53c0-1.75-.27-2.2-1.6-2.47l-.8-.15.3-2.13,6.68-.65.42.23.26,2.39c1.48-1.56,3.45-2.88,6.19-2.88,2.32,0,4.03.91,4.9,3,1.56-1.75,3.61-3,6.38-3,3.45,0,5.5,1.97,5.5,6.64v8.54c0,2.43.15,2.85,1.48,3.04l.91.11v1.94h-9.72v-1.94l.57-.08c.99-.11,1.18-.65,1.18-2.62v-8.39c0-2.43-.8-3.3-2.54-3.3-1.18,0-2.43.53-3.26,1.06.07.46.11.95.11,1.48v8.92c0,2.2.08,2.58,1.02,2.81l.61.11v1.94h-8.92v-1.94l.61-.08c.99-.19,1.1-.65,1.1-2.85v-8.16c0-2.43-.8-3.3-2.51-3.3-1.18,0-2.47.57-3.3,1.1v10.16h.01,0Z"/>
  <path d="M130.44,158.69c-1.21.46-2.47.65-3.49.65-2.69,0-3.72-1.21-4.02-2.73-.95,1.37-2.62,2.73-5.58,2.73-4.56,0-5.69-3-5.69-5.54,0-5.77,5.69-6.11,10.97-6.3v-2.13c0-2.09-.87-3.19-3.19-3.19-2.01,0-3.8.61-5.73,1.48l-1.1-2.54c1.25-.84,4.25-2.51,8.08-2.51,4.67,0,7.33,1.59,7.33,7.44v8.46c0,1.56.15,1.9,1.52,2.05l.76.08.15,2.05h0ZM122.62,150.11c-3.87,0-5.39.68-5.39,3,0,1.67.99,2.51,2.58,2.51s2.81-.95,2.81-2.62v-2.88h0Z"/>
  <path d="M145.93,157.71c-1.25.84-3.64,1.63-5.96,1.63-4.17,0-5.69-2.05-5.69-6.26v-11.08h-2.73l.3-2.58,2.73-.42,2.43-5.73h2.85v5.77h5.2l-.38,2.96h-4.82v10.48c0,2.28.34,3.49,2.2,3.49,1.29,0,2.31-.42,3-.72l.87,2.47h0Z"/>
  <path d="M147.04,148.9c0-6.19,3.41-10.29,9.83-10.29s9.26,4.18,9.26,10.13c0,6.42-3.11,10.59-9.72,10.59s-9.37-4.25-9.37-10.44h0ZM160.32,148.86c0-5.35-1.29-7.06-3.64-7.06s-3.83,1.63-3.83,7.1,1.37,7.44,3.76,7.44,3.72-1.9,3.72-7.48h0Z"/>
  <path d="M184.16,141.84c.99.95,1.67,2.43,1.67,4.14,0,4.02-3.41,6.34-7.97,6.34-1.29,0-2.32-.15-2.88-.3l-.8,2.28,7.02.46c4.02.27,6.26,1.78,6.26,5.09,0,4.37-4.06,6.38-10.67,6.38-4.71,0-8.31-1.18-8.31-4.21,0-1.33.87-2.58,2.7-3.53-1.18-.46-1.6-1.29-1.6-2.2,0-.99.53-1.67,1.21-2.58l1.86-2.43c-1.97-.91-3.45-2.54-3.45-5.5,0-4.14,3.04-7.14,8.2-7.14,1.67,0,2.96.3,3.72.57l5.66-.3.3,2.32-2.92.65v-.04h0ZM178.62,159.15l-5.01-.34c-.49.57-1.03,1.37-1.03,2.2,0,1.48,1.63,2.32,4.97,2.32,2.05,0,4.74-.27,4.74-2.28,0-1.33-.87-1.63-3.68-1.9h0,0ZM177.67,141.46c-1.9,0-3.19,1.21-3.19,4.1s1.06,3.99,3.08,3.99,3.23-1.06,3.23-3.95-1.18-4.14-3.11-4.14h0Z"/>
  <path d="M197.23,153.8c0,2.47.19,2.81,1.44,2.96l1.63.19v1.94h-10.89v-1.94l.76-.11c1.37-.19,1.48-.49,1.48-3.04v-9.45c0-1.75-.23-2.28-1.59-2.54l-.8-.15.3-2.13,6.68-.65.42.23.3,2.7c1.33-1.86,2.96-3.19,5.09-3.19.72,0,1.48.11,2.16.38l-.38,6h-.49c-1.63-.87-2.92-1.33-3.95-1.44-.91-.08-1.63.3-2.16.65v9.6h0Z"/>
  <path d="M224.37,158.69c-1.21.46-2.47.65-3.49.65-2.7,0-3.72-1.21-4.02-2.73-.95,1.37-2.62,2.73-5.58,2.73-4.56,0-5.7-3-5.7-5.54,0-5.77,5.7-6.11,10.97-6.3v-2.13c0-2.09-.87-3.19-3.19-3.19-2.01,0-3.8.61-5.73,1.48l-1.1-2.54c1.25-.84,4.25-2.51,8.09-2.51,4.67,0,7.33,1.59,7.33,7.44v8.46c0,1.56.15,1.9,1.52,2.05l.76.08.15,2.05h0ZM216.55,150.11c-3.87,0-5.39.68-5.39,3,0,1.67.99,2.51,2.58,2.51s2.81-.95,2.81-2.62v-2.88h0Z"/>
  <path d="M228.55,144.23c0-1.9-.34-2.2-1.78-2.47l-.61-.11.3-2.13,6.68-.65.42.23.27,2.32c1.37-1.48,3.34-2.81,6.07-2.81,4.25,0,7.17,2.96,7.17,9.76,0,7.93-3.68,10.97-8.12,10.97-2.24,0-3.91-1.02-4.82-1.97v3.34c0,2.51.04,2.88,1.33,3.04l1.67.15v1.94h-10.89v-1.94l.83-.11c1.37-.23,1.48-.49,1.48-3.04v-16.51h0ZM234.13,154.48c.83.68,2.01,1.06,3.07,1.06,2.58,0,4.02-1.71,4.02-6.76,0-4.56-1.44-6.19-3.76-6.19-1.03,0-2.36.38-3.34,1.06v10.82h0,0Z"/>
  <path d="M257.29,153.8c0,2.47-.15,2.81,1.18,3.04l.72.11v1.94h-9.87v-1.94l.95-.15c1.37-.23,1.44-.46,1.44-3v-17.69c0-1.63-.15-2.2-1.56-2.54l-.95-.23.27-1.9,6.8-.84.95.49v10.21c1.48-1.44,3.53-2.7,6.38-2.7,3.53,0,5.62,1.97,5.62,6.64v8.54c0,2.43.15,2.77,1.52,3l.95.15v1.94h-9.91v-1.94l.61-.08c1.18-.15,1.25-.65,1.25-2.85v-8.12c0-2.47-1.1-3.38-2.85-3.38-1.29,0-2.66.57-3.49,1.14v10.16h-.01Z"/>
  <path d="M284.92,158.35c-2.32,5.92-3.83,7.86-7.82,7.86-2.13,0-4.06-.84-4.82-1.48l1.06-2.58c.65.27,1.94.65,3.08.65,2.47,0,3-1.25,4.25-3.99l-6.15-15.18c-.68-1.67-.95-2.09-1.97-2.32l-.76-.15.42-2.13h9.94v2.16l-2.39.3,3.91,11.39h.15l4.18-11.35-2.54-.3.3-2.2h7.97v2.13l-.8.11c-1.33.19-1.59.76-2.31,2.58l-5.69,14.5h0Z"/>
  <path d="M323.3,131.4c6.19,0,8.16,2.92,8.16,6.49,0,3.87-2.43,5.73-4.71,6.53v.11c4.33.57,6.38,3,6.38,6.72,0,5.54-4.33,7.63-10.48,7.63h-11.35v-2.13l1.03-.11c1.37-.23,1.44-.46,1.44-3v-17.2c0-2.2-.23-2.62-1.52-2.81l-.91-.11v-2.13h11.96ZM321.06,143.39c3.3,0,4.86-1.59,4.86-4.74,0-3.53-1.97-4.37-4.25-4.37h-2.13v9.11h1.52ZM321.71,156c3.57,0,5.31-1.21,5.31-4.97s-2.24-4.74-4.86-4.74h-2.62v9.72h2.17,0Z"/>
  <path d="M360.89,158.5c-1.06.49-2.66.84-4.1.84-2.43,0-4.18-.68-5.28-3.19-.72-1.67-1.18-4.37-1.75-6.57-.42-1.63-.91-2.39-2.88-2.39h-2.24v6.45c0,2.43-.04,2.85,1.37,3l.95.11v2.13h-10.52v-2.16l1.02-.11c1.25-.19,1.41-.42,1.41-2.96v-17.2c0-2.2-.23-2.62-1.52-2.81l-.87-.11v-2.13h12.34c6.23,0,8.84,2.54,8.84,7.02,0,4.02-3.07,6.3-6.03,7.02,1.97.38,3.61,1.59,4.21,4.02l1.18,4.63c.53,2.01,1.29,2.24,3.68,2.39l.19,2.01h0ZM344.64,144.34h2.24c2.7,0,4.78-1.44,4.78-5.31,0-3.3-1.6-4.71-4.29-4.71h-2.73v10.02h0Z"/>
  <path d="M381.43,135.92c0-1.48-.26-2.09-1.37-2.24l-1.02-.15v-2.13h8.46v2.13l-1.1.11c-.99.08-1.25.46-1.25,2.2v13.1c0,7.29-3.72,10.4-10.1,10.4-8.16,0-10.74-3.99-10.74-10.78v-12.56c0-1.37-.15-2.16-1.29-2.32l-1.1-.15v-2.13h10.55v2.13l-1.14.11c-1.14.11-1.25.76-1.25,2.24v13.32c0,4.29,1.18,6.83,5.43,6.83,3.95,0,5.92-1.82,5.92-6.72v-13.4h0Z"/>
  <path d="M411.19,151.86l.15-.04v-15.53c0-2.09-.27-2.47-1.52-2.66l-.87-.11v-2.13h8.16v2.13l-1.1.11c-1.18.11-1.29.65-1.29,2.62v22.62h-5.39l-12.11-20.23-.15.04v15.07c0,2.35,0,2.7,1.33,2.88l.99.11v2.13h-8.16v-2.16l.99-.11c1.33-.19,1.44-.42,1.44-2.88v-17.31c0-2.2-.23-2.58-1.52-2.77l-.87-.11v-2.13h7.93l11.99,20.46h0Z"/>
  <path d="M420.46,145.52c0-8.09,4.21-14.61,13.17-14.61,8.28,0,11.77,6.26,11.77,13.89,0,8.46-4.03,14.54-12.68,14.54s-12.26-6.3-12.26-13.82h0ZM439.25,145.14c0-7.9-2.09-11.01-6.03-11.01s-6.6,3.11-6.6,11.05,2.39,10.86,6.38,10.86,6.26-3.04,6.26-10.89h-.01Z"/>
  <path d="M481.01,158.5c-1.06.49-2.66.84-4.1.84-2.43,0-4.18-.68-5.28-3.19-.72-1.67-1.18-4.37-1.74-6.57-.42-1.63-.91-2.39-2.88-2.39h-2.24v6.45c0,2.43-.04,2.85,1.37,3l.95.11v2.13h-10.51v-2.16l1.03-.11c1.25-.19,1.4-.42,1.4-2.96v-17.2c0-2.2-.23-2.62-1.52-2.81l-.87-.11v-2.13h12.34c6.23,0,8.85,2.54,8.85,7.02,0,4.02-3.08,6.3-6.04,7.02,1.97.38,3.61,1.59,4.21,4.02l1.18,4.63c.53,2.01,1.29,2.24,3.68,2.39l.19,2.01h-.02ZM464.76,144.34h2.24c2.69,0,4.78-1.44,4.78-5.31,0-3.3-1.59-4.71-4.29-4.71h-2.73v10.02h0Z"/>
  <path d="M502.91,138.88l-3.26-.11-.76-2.62c-.34-1.29-.99-1.86-2.51-1.86h-4.71v9.11h8.58v3.07h-8.58v9.53h5.31c1.52,0,2.16-.49,2.51-1.78l.83-3.19h3.27l-.46,7.86h-19.7v-2.13l1.03-.11c1.37-.23,1.44-.46,1.44-3v-17.2c0-2.2-.23-2.62-1.52-2.81l-.91-.11v-2.13h19.02l.42,7.48h0Z"/>
  <path d="M515.75,153.61c0,2.58.04,2.88,1.33,3.04l.99.11v2.13h-10.52v-2.16l.99-.11c1.33-.19,1.44-.46,1.44-3v-17.16c0-2.2-.23-2.62-1.52-2.81l-.87-.11v-2.13h10.4v2.13l-1.02.11c-1.14.15-1.21.61-1.21,2.81v17.16h-.01Z"/>
  <path d="M536.97,138.8l-.53-2.54c-.3-1.48-.91-2.13-3.87-2.13-3.53,0-4.74,1.78-4.74,3.53,0,6.45,13.59,2.7,13.59,12.72,0,6.26-5.28,8.96-10.78,8.96-3.8,0-6.98-.84-8.43-1.71l.61-6.49h3.41l.42,2.58c.27,1.56,1.06,2.32,4.37,2.32s5.2-1.48,5.2-4.18c0-6.19-13.55-2.62-13.55-12.45,0-5.24,3.76-8.5,10.02-8.5,2.96,0,6.03.65,7.78,1.56l-.38,6.68-3.11-.34h-.01Z"/>
  <path d="M552,145.52c0-8.09,4.21-14.61,13.17-14.61,8.27,0,11.77,6.26,11.77,13.89,0,8.46-4.02,14.54-12.68,14.54s-12.26-6.3-12.26-13.82h0ZM570.79,145.14c0-7.9-2.09-11.01-6.04-11.01s-6.6,3.11-6.6,11.05,2.39,10.86,6.38,10.86,6.26-3.04,6.26-10.89h0Z"/>
  <path d="M588.75,156h5.28c1.52,0,2.2-.46,2.58-1.78l.8-3.34h3.3l-.46,8.01h-19.7v-2.16l.99-.11c1.33-.23,1.44-.42,1.44-2.96v-17.2c0-2.2-.23-2.62-1.52-2.81l-.87-.11v-2.13h11.2v2.13l-1.63.11c-1.33.08-1.41.65-1.41,2.51v19.85h0Z"/>
  <path d="M612.29,153.61c0,2.58.04,2.88,1.33,3.04l.99.11v2.13h-10.51v-2.16l.99-.11c1.33-.19,1.44-.46,1.44-3v-17.16c0-2.2-.23-2.62-1.52-2.81l-.87-.11v-2.13h10.4v2.13l-1.03.11c-1.14.15-1.21.61-1.21,2.81v17.16h0Z"/>
  <path d="M631.65,154.55h.15l6.23-20.69-2.43-.34v-2.13h8.16v2.13l-.84.11c-1.33.19-1.48.53-2.01,2.24l-7.1,23h-6.3l-7.33-22.17c-.84-2.47-.99-2.85-2.16-3.07l-.72-.11v-2.13h10.89v2.13l-2.69.42,6.15,20.61h0Z"/>
  <path d="M665.67,138.88l-3.27-.11-.76-2.62c-.34-1.29-.99-1.86-2.5-1.86h-4.71v9.11h8.58v3.07h-8.58v9.53h5.31c1.52,0,2.16-.49,2.5-1.78l.84-3.19h3.26l-.46,7.86h-19.7v-2.13l1.02-.11c1.37-.23,1.44-.46,1.44-3v-17.2c0-2.2-.23-2.62-1.52-2.81l-.91-.11v-2.13h19.02l.42,7.48h.02Z"/>
  <path d="M678.5,153.61c0,2.58.04,2.88,1.33,3.04l.99.11v2.13h-10.52v-2.16l.99-.11c1.33-.19,1.44-.46,1.44-3v-17.16c0-2.2-.23-2.62-1.52-2.81l-.87-.11v-2.13h10.4v2.13l-1.02.11c-1.14.15-1.21.61-1.21,2.81v17.16h0Z"/>
  <path d="M709.52,158.5c-1.06.49-2.66.84-4.1.84-2.43,0-4.18-.68-5.28-3.19-.72-1.67-1.18-4.37-1.74-6.57-.42-1.63-.91-2.39-2.88-2.39h-2.24v6.45c0,2.43-.04,2.85,1.37,3l.95.11v2.13h-10.51v-2.16l1.03-.11c1.25-.19,1.4-.42,1.4-2.96v-17.2c0-2.2-.23-2.62-1.52-2.81l-.87-.11v-2.13h12.34c6.23,0,8.85,2.54,8.85,7.02,0,4.02-3.08,6.3-6.04,7.02,1.97.38,3.61,1.59,4.21,4.02l1.18,4.63c.53,2.01,1.29,2.24,3.68,2.39l.19,2.01h-.02ZM693.27,144.34h2.24c2.69,0,4.78-1.44,4.78-5.31,0-3.3-1.59-4.71-4.29-4.71h-2.73v10.02h0Z"/>
  <path d="M727.17,131.4l6.91,22.17c.76,2.51,1.06,2.81,2.24,3.07l.68.11v2.13h-10.93v-2.13l2.7-.42-1.56-5.35h-9.15l-1.71,5.43,2.51.34v2.13h-8.27v-2.13l.84-.15c1.33-.23,1.59-.95,2.2-2.66l7.48-22.55h6.07,0ZM722.92,135.42h-.11l-3.91,12.6h7.59l-3.57-12.6h0Z"/>
  <path d="M12.53,206.23l-.49-2.01c-.23-.76-.87-1.14-2.62-1.14-2.09,0-3.3.68-3.3,2.16,0,4.21,10.74,1.02,10.74,8.69,0,4.14-3.11,6.87-8.69,6.87-3.76,0-6.41-.87-7.29-1.4l.49-5.09h3.15l.42,2.05c.23.91.95,1.52,3.41,1.52,1.86,0,3.34-.61,3.34-2.32,0-4.59-10.63-.8-10.63-8.84,0-4.4,3.72-6.64,8.35-6.64,2.96,0,5.43.76,6.57,1.44l-.23,5.05-3.23-.34h0Z"/>
  <path d="M19.63,210.37c0-6.19,3.42-10.29,9.83-10.29s9.26,4.18,9.26,10.13c0,6.42-3.11,10.59-9.72,10.59s-9.38-4.25-9.38-10.44h.01ZM32.91,210.33c0-5.35-1.29-7.06-3.64-7.06s-3.83,1.63-3.83,7.1,1.37,7.44,3.76,7.44,3.72-1.9,3.72-7.48h-.01Z"/>
  <path d="M60.63,215.61c0,1.94.11,2.35,1.48,2.47l.68.11-.11,1.97-6.45.57-.42-.23-.42-2.51c-1.56,1.63-3.57,2.81-6.11,2.81-3.87,0-5.85-1.97-5.85-6.64v-8.01c0-2.24-.27-2.58-1.63-2.85l-.8-.19.3-2.09,7.29-.68.42.3v12.79c0,2.35.8,3.45,2.69,3.45,1.25,0,2.51-.49,3.34-1.06v-9.83c0-2.24-.42-2.47-1.78-2.73l-.61-.11.3-2.16,7.25-.65.42.23v15.03h.01Z"/>
  <path d="M72.93,215.26c0,2.47,0,2.81,1.33,3.07l.64.08v1.94h-9.87v-1.94l.8-.11c1.37-.23,1.52-.49,1.52-3.04v-9.57c0-1.75-.26-2.16-1.59-2.43l-.8-.15.3-2.13,6.68-.65.42.23.27,2.35c1.59-1.56,3.68-2.85,6.53-2.85,3.42,0,5.73,1.82,5.73,6.49v8.69c0,2.43.11,2.85,1.48,3.04l.91.11v1.94h-9.87v-1.94l.68-.08c1.14-.19,1.21-.65,1.21-2.85v-8.2c0-2.35-.87-3.3-2.85-3.3-1.37,0-2.69.53-3.53,1.06v10.24h.01,0Z"/>
  <path d="M103.49,220.35l-.57-2.35c-1.33,1.71-3.19,2.81-5.77,2.81-4.48,0-7.67-3.04-7.67-9.79,0-7.97,3.8-10.93,8.31-10.93,2.01,0,3.57.72,4.67,1.9v-4.21c0-1.9-.19-2.43-1.52-2.73l-.99-.23.27-1.9,6.83-.84.99.49v23.08c0,1.97.11,2.39,1.52,2.66l.76.11v1.94h-6.83ZM102.46,204.86c-.8-.68-2.09-1.14-3.15-1.14-2.58,0-3.99,1.9-3.99,6.79,0,4.56,1.29,6.45,3.95,6.45,1.18,0,2.43-.46,3.19-1.14v-10.97h0Z"/>
  <path d="M136.41,217.47h5.28c1.52,0,2.2-.46,2.58-1.78l.8-3.34h3.3l-.46,8.01h-19.7v-2.16l.99-.11c1.33-.23,1.44-.42,1.44-2.96v-17.2c0-2.2-.23-2.62-1.52-2.81l-.87-.11v-2.13h11.2v2.13l-1.63.11c-1.33.08-1.41.65-1.41,2.51v19.85h0Z"/>
  <path d="M171.07,200.35l-3.27-.11-.76-2.62c-.34-1.29-.99-1.86-2.5-1.86h-4.71v9.11h8.58v3.07h-8.58v9.53h5.31c1.52,0,2.16-.49,2.5-1.78l.84-3.19h3.26l-.46,7.86h-19.7v-2.13l1.02-.11c1.37-.23,1.44-.46,1.44-3v-17.2c0-2.2-.23-2.62-1.52-2.81l-.91-.11v-2.13h19.02l.42,7.48h.02Z"/>
  <path d="M175.17,206.99c0-8.09,4.21-14.61,13.17-14.61,8.28,0,11.77,6.26,11.77,13.89,0,8.46-4.03,14.54-12.68,14.54s-12.26-6.3-12.26-13.82h0ZM193.96,206.61c0-7.9-2.09-11.01-6.03-11.01s-6.6,3.11-6.6,11.05,2.39,10.86,6.38,10.86,6.26-3.04,6.26-10.89h0Z"/>
  <path d="M223.68,213.33l.15-.04v-15.53c0-2.09-.27-2.47-1.52-2.66l-.87-.11v-2.13h8.16v2.13l-1.1.11c-1.18.11-1.29.65-1.29,2.62v22.62h-5.39l-12.11-20.23-.15.04v15.07c0,2.35,0,2.7,1.33,2.88l.99.11v2.13h-8.16v-2.16l.99-.11c1.33-.19,1.44-.42,1.44-2.88v-17.31c0-2.2-.23-2.58-1.52-2.77l-.87-.11v-2.13h7.93l11.99,20.46h0Z"/>
  <path d="M247.15,192.87l6.91,22.17c.76,2.51,1.06,2.81,2.24,3.07l.68.11v2.13h-10.93v-2.13l2.69-.42-1.56-5.35h-9.15l-1.71,5.43,2.51.34v2.13h-8.27v-2.13l.84-.15c1.33-.23,1.59-.95,2.2-2.66l7.48-22.55h6.07ZM242.9,196.89h-.11l-3.91,12.6h7.59l-3.57-12.6h0Z"/>
  <path d="M283.67,219.97c-1.06.49-2.66.84-4.1.84-2.43,0-4.18-.68-5.28-3.19-.72-1.67-1.18-4.37-1.74-6.57-.42-1.63-.91-2.39-2.88-2.39h-2.24v6.45c0,2.43-.04,2.85,1.37,3l.95.11v2.13h-10.51v-2.16l1.03-.11c1.25-.19,1.4-.42,1.4-2.96v-17.2c0-2.2-.23-2.62-1.52-2.81l-.87-.11v-2.13h12.34c6.23,0,8.85,2.54,8.85,7.02,0,4.02-3.08,6.3-6.04,7.02,1.97.38,3.61,1.59,4.21,4.02l1.18,4.63c.53,2.01,1.29,2.24,3.68,2.39l.19,2.01h-.02ZM267.42,205.81h2.24c2.69,0,4.78-1.44,4.78-5.31,0-3.3-1.59-4.71-4.29-4.71h-2.73v10.02h0Z"/>
  <path d="M297.53,192.87c9.53,0,13.36,5.01,13.36,13.21s-4.33,14.27-15.22,14.27h-9.57v-2.13l1.02-.11c1.29-.19,1.44-.42,1.44-2.81v-17.39c0-2.2-.23-2.62-1.52-2.81l-.91-.11v-2.13h11.4ZM296.09,217.47c6.8,0,8.69-4.93,8.69-11.43,0-7.21-2.35-10.29-7.97-10.29h-2.47v21.71h1.75Z"/>
  <path d="M314.12,206.99c0-8.09,4.21-14.61,13.17-14.61,8.28,0,11.77,6.26,11.77,13.89,0,8.46-4.03,14.54-12.68,14.54s-12.26-6.3-12.26-13.82h0ZM332.91,206.61c0-7.9-2.09-11.01-6.03-11.01s-6.6,3.11-6.6,11.05,2.39,10.86,6.38,10.86,6.26-3.04,6.26-10.89h-.01Z"/>
  <path d="M383.02,194.99l-1.06.11c-1.14.11-1.25.61-1.25,2.66v17.39c0,2.51,0,2.81,1.44,2.96l.95.11v2.13h-10.32v-2.16l.95-.11c1.33-.23,1.44-.46,1.44-2.77v-16.09h-.23l-6.57,21.14h-5.43l-6.61-21.11h-.23v15.94c0,2.28-.04,2.73,1.33,2.92l.99.11v2.13h-8.2v-2.16l1.03-.11c1.25-.23,1.44-.38,1.44-2.88v-17.31c0-2.2-.23-2.58-1.52-2.77l-.91-.11v-2.13h9.95l6.38,21.67h.23l6.53-21.67h9.68v2.13-.02h-.01Z"/>
  <path d="M395.44,215.07c0,2.58.04,2.88,1.33,3.04l.99.11v2.13h-10.51v-2.16l.99-.11c1.33-.19,1.44-.46,1.44-3v-17.16c0-2.2-.23-2.62-1.52-2.81l-.87-.11v-2.13h10.4v2.13l-1.03.11c-1.14.15-1.21.61-1.21,2.81v17.16h0Z"/>
  <path d="M426.46,219.97c-1.06.49-2.66.84-4.1.84-2.43,0-4.18-.68-5.28-3.19-.72-1.67-1.18-4.37-1.75-6.57-.42-1.63-.91-2.39-2.88-2.39h-2.24v6.45c0,2.43-.04,2.85,1.37,3l.95.11v2.13h-10.52v-2.16l1.02-.11c1.25-.19,1.41-.42,1.41-2.96v-17.2c0-2.2-.23-2.62-1.52-2.81l-.87-.11v-2.13h12.34c6.23,0,8.84,2.54,8.84,7.02,0,4.02-3.07,6.3-6.03,7.02,1.97.38,3.61,1.59,4.21,4.02l1.18,4.63c.53,2.01,1.29,2.24,3.68,2.39l.19,2.01h0ZM410.21,205.81h2.24c2.7,0,4.78-1.44,4.78-5.31,0-3.3-1.6-4.71-4.29-4.71h-2.73v10.02h0Z"/>
  <path d="M444.11,192.87l6.91,22.17c.76,2.51,1.06,2.81,2.24,3.07l.68.11v2.13h-10.93v-2.13l2.69-.42-1.56-5.35h-9.15l-1.71,5.43,2.51.34v2.13h-8.27v-2.13l.84-.15c1.33-.23,1.59-.95,2.2-2.66l7.48-22.55h6.07,0ZM439.86,196.89h-.11l-3.91,12.6h7.59l-3.57-12.6h0Z"/>
  <path d="M476.15,213.33l.15-.04v-15.53c0-2.09-.27-2.47-1.52-2.66l-.87-.11v-2.13h8.16v2.13l-1.1.11c-1.18.11-1.29.65-1.29,2.62v22.62h-5.39l-12.11-20.23-.15.04v15.07c0,2.35,0,2.7,1.33,2.88l.99.11v2.13h-8.16v-2.16l.99-.11c1.33-.19,1.44-.42,1.44-2.88v-17.31c0-2.2-.23-2.58-1.52-2.77l-.87-.11v-2.13h7.93l11.99,20.46h0Z"/>
  <path d="M497.22,192.87c9.53,0,13.36,5.01,13.36,13.21s-4.33,14.27-15.22,14.27h-9.57v-2.13l1.03-.11c1.29-.19,1.44-.42,1.44-2.81v-17.39c0-2.2-.23-2.62-1.52-2.81l-.91-.11v-2.13h11.39ZM495.78,217.47c6.79,0,8.69-4.93,8.69-11.43,0-7.21-2.35-10.29-7.97-10.29h-2.47v21.71h1.75Z"/>
  <path d="M528.36,192.87l6.91,22.17c.76,2.51,1.06,2.81,2.24,3.07l.68.11v2.13h-10.93v-2.13l2.69-.42-1.56-5.35h-9.15l-1.71,5.43,2.51.34v2.13h-8.27v-2.13l.84-.15c1.33-.23,1.59-.95,2.2-2.66l7.48-22.55h6.07ZM524.11,196.89h-.11l-3.91,12.6h7.59l-3.57-12.6h0Z"/>
  <path d="M17.8,279.62c-2.01,1.71-4.78,2.66-7.48,2.66-6.91,0-9.79-4.56-9.79-10.44,0-7.02,4.48-10.29,9.45-10.29,4.71,0,7.82,2.62,7.82,9.26,0,.53-.04,1.29-.11,2.05H6.45c.11,3.8,1.94,5.88,5.16,5.88,1.67,0,3.07-.42,4.9-1.41l1.29,2.28h0ZM12.41,269.9c.15-3.76-.87-5.24-2.7-5.24s-3.15,1.48-3.26,5.24h5.96Z"/>
  <path d="M34.85,281.82l-.57-2.35c-1.33,1.71-3.19,2.81-5.77,2.81-4.48,0-7.67-3.04-7.67-9.79,0-7.97,3.8-10.93,8.31-10.93,2.01,0,3.57.72,4.67,1.9v-4.21c0-1.9-.19-2.43-1.52-2.73l-.99-.23.26-1.9,6.83-.84.99.49v23.08c0,1.97.11,2.39,1.52,2.66l.76.11v1.94h-6.83,0ZM33.82,266.33c-.8-.68-2.09-1.14-3.15-1.14-2.58,0-3.98,1.9-3.98,6.8,0,4.56,1.29,6.45,3.95,6.45,1.18,0,2.43-.46,3.19-1.14v-10.97h-.01Z"/>
  <path d="M51.71,276.73c0,2.47.15,2.81,1.48,3.04l.91.11v1.94h-10.52v-1.94l.91-.11c1.37-.23,1.63-.49,1.63-3.04v-9.41c0-1.75-.42-2.24-1.75-2.51l-.84-.19.3-2.16,7.4-.64.46.23v14.69h.02ZM48.44,259.16c-2.01,0-3.3-1.18-3.3-3.23s1.29-3.19,3.3-3.19,3.38,1.1,3.38,3.19-1.29,3.23-3.38,3.23Z"/>
  <path d="M69.7,280.64c-1.25.84-3.64,1.63-5.96,1.63-4.17,0-5.69-2.05-5.69-6.26v-11.08h-2.73l.3-2.58,2.73-.42,2.43-5.73h2.85v5.77h5.2l-.38,2.96h-4.82v10.48c0,2.28.34,3.49,2.2,3.49,1.29,0,2.31-.42,3-.72l.87,2.47h0Z"/>
  <path d="M79.8,276.73c0,2.47.15,2.81,1.48,3.04l.91.11v1.94h-10.52v-1.94l.91-.11c1.37-.23,1.63-.49,1.63-3.04v-9.41c0-1.75-.42-2.24-1.75-2.51l-.84-.19.3-2.16,7.4-.64.46.23v14.69h.02,0ZM76.53,259.16c-2.01,0-3.3-1.18-3.3-3.23s1.29-3.19,3.3-3.19,3.38,1.1,3.38,3.19-1.29,3.23-3.38,3.23Z"/>
  <path d="M92.06,276.73c0,2.47,0,2.81,1.33,3.08l.64.08v1.94h-9.87v-1.94l.8-.11c1.37-.23,1.52-.49,1.52-3.04v-9.57c0-1.75-.26-2.16-1.59-2.43l-.8-.15.3-2.13,6.68-.64.42.23.27,2.35c1.59-1.56,3.68-2.85,6.53-2.85,3.42,0,5.73,1.82,5.73,6.49v8.69c0,2.43.11,2.85,1.48,3.04l.91.11v1.94h-9.87v-1.94l.68-.08c1.14-.19,1.21-.65,1.21-2.85v-8.2c0-2.35-.87-3.3-2.85-3.3-1.37,0-2.69.53-3.53,1.06v10.21h.01,0Z"/>
  <path d="M123.61,264.78c.99.95,1.67,2.43,1.67,4.14,0,4.02-3.42,6.34-7.97,6.34-1.29,0-2.31-.15-2.88-.3l-.8,2.28,7.02.46c4.03.26,6.26,1.78,6.26,5.09,0,4.36-4.06,6.38-10.67,6.38-4.71,0-8.31-1.18-8.31-4.21,0-1.33.87-2.58,2.69-3.53-1.18-.46-1.59-1.29-1.59-2.2,0-.99.53-1.67,1.21-2.58l1.86-2.43c-1.97-.91-3.46-2.54-3.46-5.5,0-4.14,3.04-7.14,8.2-7.14,1.67,0,2.96.3,3.72.57l5.65-.3.3,2.31-2.92.65.02-.03h0ZM118.06,282.09l-5.01-.34c-.49.57-1.02,1.37-1.02,2.2,0,1.48,1.63,2.32,4.97,2.32,2.05,0,4.75-.27,4.75-2.28,0-1.33-.87-1.63-3.68-1.9h-.01ZM117.12,264.4c-1.9,0-3.19,1.21-3.19,4.1s1.06,3.98,3.07,3.98,3.23-1.06,3.23-3.95-1.18-4.14-3.11-4.14h0Z"/>
  <path d="M152.92,278.93h5.28c1.52,0,2.2-.46,2.58-1.78l.8-3.34h3.3l-.46,8.01h-19.7v-2.16l.99-.11c1.33-.23,1.44-.42,1.44-2.96v-17.19c0-2.2-.23-2.62-1.52-2.81l-.87-.11v-2.13h11.2v2.13l-1.63.11c-1.33.08-1.41.64-1.41,2.51v19.85-.02h0Z"/>
  <path d="M186.4,258.85c0-1.48-.26-2.09-1.37-2.24l-1.02-.15v-2.13h8.46v2.13l-1.1.11c-.99.08-1.25.46-1.25,2.2v13.09c0,7.29-3.72,10.4-10.1,10.4-8.16,0-10.74-3.98-10.74-10.78v-12.56c0-1.37-.15-2.16-1.29-2.32l-1.1-.15v-2.13h10.55v2.13l-1.14.11c-1.14.11-1.25.76-1.25,2.24v13.32c0,4.29,1.18,6.83,5.43,6.83,3.95,0,5.92-1.82,5.92-6.72v-13.4.02h0Z"/>
  <path d="M204.55,276.54c0,2.58.04,2.88,1.33,3.04l.99.11v2.13h-10.51v-2.16l.99-.11c1.33-.19,1.44-.46,1.44-3v-17.16c0-2.2-.23-2.62-1.52-2.81l-.87-.11v-2.13h10.4v2.13l-1.03.11c-1.14.15-1.21.61-1.21,2.81v17.16h-.01ZM198.59,252.55l-1.06-1.86,6.98-4.82,2.96,3-.07.49-8.81,3.19Z"/>
  <path d="M225.77,261.74l-.53-2.54c-.3-1.48-.91-2.13-3.87-2.13-3.53,0-4.75,1.78-4.75,3.53,0,6.45,13.59,2.69,13.59,12.72,0,6.26-5.28,8.96-10.78,8.96-3.8,0-6.98-.84-8.43-1.71l.61-6.49h3.42l.42,2.58c.26,1.56,1.06,2.32,4.36,2.32s5.2-1.48,5.2-4.18c0-6.19-13.55-2.62-13.55-12.45,0-5.24,3.76-8.5,10.02-8.5,2.96,0,6.04.64,7.78,1.56l-.38,6.68-3.11-.34h0Z"/>
  <path d="M273.98,256.46l-1.06.11c-1.14.11-1.25.61-1.25,2.66v17.39c0,2.51,0,2.81,1.44,2.96l.95.11v2.13h-10.32v-2.16l.95-.11c1.33-.23,1.44-.46,1.44-2.77v-16.09h-.23l-6.57,21.14h-5.43l-6.6-21.11h-.23v15.94c0,2.28-.04,2.73,1.33,2.92l.99.11v2.13h-8.2v-2.16l1.02-.11c1.25-.23,1.44-.38,1.44-2.88v-17.31c0-2.2-.23-2.58-1.52-2.77l-.91-.11v-2.13h9.94l6.38,21.68h.23l6.53-21.68h9.68v2.13-.02h0Z"/>
  <path d="M293.27,254.34l6.91,22.17c.76,2.51,1.06,2.81,2.24,3.08l.68.11v2.13h-10.93v-2.13l2.69-.42-1.56-5.35h-9.15l-1.71,5.43,2.51.34v2.13h-8.27v-2.13l.84-.15c1.33-.23,1.59-.95,2.2-2.66l7.48-22.55h6.07,0ZM289.02,258.36h-.11l-3.91,12.6h7.59l-3.57-12.6h0Z"/>
  <path d="M316.58,277.38c0,1.71.38,1.94,1.14,2.01l3.19.3v2.13h-14.42v-2.16l3.19-.3c.76-.08,1.14-.27,1.14-1.97v-20.16h-2.58c-1.52,0-2.2.42-2.54,1.71l-.76,2.88h-3.27l.42-7.48h23.23l.42,7.48h-3.27l-.76-2.85c-.34-1.29-.99-1.75-2.5-1.75h-2.62v20.16h-.01Z"/>
  <path d="M327.9,268.46c0-8.08,4.21-14.61,13.17-14.61,8.28,0,11.77,6.26,11.77,13.89,0,8.46-4.03,14.54-12.68,14.54s-12.26-6.3-12.26-13.82h0ZM346.69,268.08c0-7.9-2.09-11.01-6.03-11.01s-6.6,3.11-6.6,11.05,2.39,10.86,6.38,10.86,6.26-3.04,6.26-10.9h-.01Z"/>
  <path d="M370.69,261.74l-.53-2.54c-.3-1.48-.91-2.13-3.87-2.13-3.53,0-4.75,1.78-4.75,3.53,0,6.45,13.59,2.69,13.59,12.72,0,6.26-5.28,8.96-10.78,8.96-3.8,0-6.98-.84-8.43-1.71l.61-6.49h3.42l.42,2.58c.26,1.56,1.06,2.32,4.36,2.32s5.2-1.48,5.2-4.18c0-6.19-13.55-2.62-13.55-12.45,0-5.24,3.76-8.5,10.02-8.5,2.96,0,6.04.64,7.78,1.56l-.38,6.68-3.11-.34h0Z"/>
</svg>