<?xml version="1.0" encoding="UTF-8"?>
<svg id="Camada_1" data-name="Camada 1" xmlns="http://www.w3.org/2000/svg" xmlns:xlink="http://www.w3.org/1999/xlink" viewBox="0 0 1411.32 470.54">
  <g>
    <path d="M1.64,467.22l-.66-12.62,20.26-4.98c0-1.55.06-3.93.17-7.14s.17-7.03.17-11.46.05-9.24.17-14.45c.11-5.2.17-10.35.17-15.45v-62.44c0-10.19-.05-18.77-.17-25.74-.11-6.98-.28-12.4-.5-16.28-.22-3.87-.44-6.25-.66-7.14l-20.59-4.65,1-12.62h72.74c20.81,0,36.7,4.04,47.66,12.12s16.44,19.98,16.44,35.71c0,10.85-2.99,20.54-8.97,29.06s-14.34,15.22-25.08,20.09c-10.74,4.87-22.97,7.31-36.7,7.31h-21.26v-14.95h18.93c13.73,0,24.41-3.43,32.05-10.3,7.64-6.86,11.46-16.39,11.46-28.56s-3.32-20.65-9.96-26.74-16.17-9.14-28.57-9.14h-19.26c-.22.44-.39,1.33-.5,2.66-.11,1.33-.17,3.54-.17,6.64v104.96c0,9.52.05,17.49.17,23.92.11,6.42.33,11.57.67,15.45.33,3.87.61,6.92.83,9.13l19.6,4.98-1,12.62H1.64ZM159.08,470.54c-9.74,0-18.38-1.83-25.91-5.48-7.53-3.65-14.78-9.8-21.76-18.43-6.98-8.64-14.67-20.15-23.08-34.54l-22.59-41.19,24.91-5.65,35.87,52.81c6.2,9.08,11.79,16.33,16.77,21.76,4.98,5.43,9.91,9.47,14.78,12.12,4.87,2.66,10.19,4.54,15.94,5.65l-.33,11.63c-2.21.44-4.59.77-7.14.99s-5.04.33-7.47.33h.01Z"/>
    <path d="M181.67,467.22l-.67-12.29,22.26-4.65c.22-.89.39-2.44.5-4.65s.28-5.76.5-10.63.33-11.62.33-20.26v-21.92c0-9.3-.22-17.72-.67-25.24-.44-7.53-1-13.29-1.66-17.27l-22.26-4.65v-10.96l47.17-12.29,4.98,4.65c-.66,6.86-1.16,13.62-1.49,20.26s-.5,14.39-.5,23.25v41.85c0,10.19.17,18.6.5,25.24s.72,10.85,1.16,12.62l22.25,4.65-.66,12.29h-71.74ZM217.54,284.87c-5.76,0-10.63-1.88-14.61-5.65-3.99-3.76-5.98-8.42-5.98-13.95s1.99-9.91,5.98-13.78c3.99-3.87,8.86-5.81,14.61-5.81s10.52,1.94,14.28,5.81c3.76,3.88,5.65,8.47,5.65,13.78s-1.88,10.19-5.65,13.95c-3.76,3.76-8.52,5.65-14.28,5.65h0Z"/>
    <path d="M347.08,469.88c-14.39,0-26.96-3.1-37.7-9.3s-19.1-14.89-25.08-26.08c-5.98-11.18-8.97-23.97-8.97-38.36s3.27-28.12,9.8-39.19,15.39-19.71,26.57-25.91,23.42-9.3,36.7-9.3,25.69,3.04,35.87,9.14c10.19,6.09,18.16,14.61,23.92,25.58,5.76,10.96,8.64,23.75,8.64,38.36s-3.1,26.63-9.3,38.03c-6.2,11.4-14.56,20.43-25.08,27.07s-22.31,9.96-35.37,9.96h0ZM350.4,454.26c7.53,0,14.06-2.27,19.6-6.81s9.86-10.85,12.95-18.93c3.1-8.08,4.65-17.33,4.65-27.73,0-19.04-3.93-34.49-11.79-46.33-7.86-11.85-18.21-17.77-31.06-17.77-11.96,0-21.53,4.93-28.73,14.78s-10.8,23.08-10.8,39.69c0,12.4,1.94,23.36,5.81,32.88,3.88,9.52,9.25,16.94,16.11,22.26,6.86,5.31,14.61,7.97,23.25,7.97h0Z"/>
    <path d="M617.22,367.91l9.96,6.64c-3.76,9.52-8.97,16.99-15.61,22.42-6.64,5.42-14.28,8.14-22.92,8.14-6.42,0-12.9-1.22-19.43-3.65-6.53-2.44-12.95-5.2-19.26-8.3s-12.29-5.87-17.94-8.3c-5.65-2.44-10.57-3.65-14.78-3.65-10.41,0-18.49,5.65-24.25,16.94l-9.97-6.64c3.76-9.74,8.97-17.27,15.61-22.59,6.64-5.31,14.28-7.97,22.92-7.97,6.42,0,12.9,1.16,19.43,3.49,6.53,2.33,12.95,5.09,19.26,8.3s12.29,5.98,17.94,8.3c5.65,2.33,10.57,3.49,14.78,3.49,5.54,0,10.24-1.44,14.12-4.32,3.87-2.88,7.25-6.98,10.13-12.29h0Z"/>
    <path d="M856.63,270.92l7.31,53.81-14.61,1.66-13.95-37.53c-1.77-.44-3.82-.72-6.14-.83-2.33-.11-4.37-.17-6.14-.17h-20.92c-3.76,0-7.2.11-10.3.33,0,1.77-.05,5.92-.17,12.46-.11,6.53-.17,14.11-.17,22.75v69.75c0,13.95.11,26.07.33,36.37s.33,17.11.33,20.43l28.23,3.99-1,13.29h-84.7l-.66-13.29,27.9-3.99c0-3.32.11-10.13.33-20.43.22-10.3.33-22.42.33-36.37v-92.5c0-6.53-.11-10.69-.33-12.46-2.88-.22-6.2-.33-9.96-.33h-21.92c-1.77,0-3.71.05-5.81.17-2.1.11-4.15.39-6.14.83l-13.62,37.86-14.95-1.99,7.31-53.81c2.44.22,5.04.39,7.81.5s5.54.27,8.3.5c2.77.22,5.48.33,8.14.33h110.77c2.77,0,5.48-.11,8.14-.33,2.66-.22,5.37-.39,8.14-.5s5.48-.28,8.14-.5h-.02Z"/>
    <path d="M941.66,469.88c-14.39,0-26.96-3.1-37.7-9.3s-19.1-14.89-25.08-26.08c-5.98-11.18-8.97-23.97-8.97-38.36s3.27-28.12,9.8-39.19,15.39-19.71,26.57-25.91,23.42-9.3,36.7-9.3,25.69,3.04,35.87,9.14c10.18,6.09,18.16,14.61,23.91,25.58,5.76,10.96,8.64,23.75,8.64,38.36s-3.1,26.63-9.3,38.03-14.56,20.43-25.08,27.07-22.31,9.96-35.37,9.96h.01ZM944.98,454.26c7.53,0,14.06-2.27,19.6-6.81s9.85-10.85,12.95-18.93,4.65-17.33,4.65-27.73c0-19.04-3.93-34.49-11.79-46.33-7.86-11.85-18.21-17.77-31.06-17.77-11.96,0-21.53,4.93-28.73,14.78-7.2,9.85-10.8,23.08-10.8,39.69,0,12.4,1.94,23.36,5.81,32.88,3.88,9.52,9.24,16.94,16.11,22.26,6.86,5.31,14.62,7.97,23.25,7.97h.01,0Z"/>
    <path d="M1035.99,467.22l-1-11.96,20.59-4.98c.22-1.11.44-3.05.66-5.81.22-2.77.39-6.64.5-11.62s.17-11.02.17-18.1l.33-25.91c0-7.31-.28-14.56-.83-21.76-.55-7.2-1.16-12.79-1.83-16.77l-21.26-4.65v-10.96l44.51-12.29,4.65,4.65-1.33,27.9,1,.33c6.64-12.84,13.34-21.54,20.09-26.07,6.76-4.54,13.23-6.81,19.43-6.81,5.09,0,9.36,1.33,12.79,3.99s5.15,6.42,5.15,11.29-1.83,9.08-5.48,11.96-8.25,4.32-13.79,4.32c-3.99,0-7.8-.89-11.46-2.66-3.65-1.77-7.14-4.21-10.46-7.31l5.98,1.99c-3.99,2.66-7.86,6.42-11.62,11.29s-7.31,10.74-10.63,17.6l.33,30.89c.22,5.54.44,11.24.67,17.11.22,5.87.44,11.29.66,16.28.22,4.98.44,8.69.67,11.13l28.9,4.32-.67,12.62h-76.73,0Z"/>
    <path d="M1260.52,446.63c-4.21,7.31-9.96,13.01-17.27,17.11s-14.95,6.14-22.92,6.14c-13.29,0-24.3-4.1-33.05-12.29-8.74-8.19-13.12-20.48-13.12-36.87l.99-79.39h-23.25v-6.98l42.85-38.86h6.31l-.67,38.2-.33,81.71c0,11.52,2.49,20.04,7.47,25.58,4.98,5.54,12.01,8.3,21.09,8.3,5.09,0,9.8-1.05,14.11-3.15,4.32-2.11,8.25-4.71,11.79-7.81l5.98,8.3h.02ZM1188.45,341.33v-16.61h62.11v16.61h-62.11Z"/>
    <path d="M1341.57,469.88c-14.39,0-26.96-3.1-37.7-9.3s-19.1-14.89-25.08-26.08c-5.98-11.18-8.97-23.97-8.97-38.36s3.27-28.12,9.8-39.19,15.39-19.71,26.57-25.91c11.18-6.2,23.42-9.3,36.7-9.3s25.69,3.04,35.87,9.14c10.19,6.09,18.16,14.61,23.92,25.58,5.76,10.96,8.64,23.75,8.64,38.36s-3.1,26.63-9.3,38.03c-6.2,11.4-14.56,20.43-25.08,27.07-10.52,6.64-22.31,9.96-35.37,9.96h0ZM1344.89,454.26c7.53,0,14.06-2.27,19.6-6.81,5.54-4.54,9.85-10.85,12.95-18.93s4.65-17.33,4.65-27.73c0-19.04-3.93-34.49-11.79-46.33-7.86-11.85-18.21-17.77-31.05-17.77-11.96,0-21.54,4.93-28.73,14.78-7.2,9.85-10.8,23.08-10.8,39.69,0,12.4,1.94,23.36,5.81,32.88,3.88,9.52,9.24,16.94,16.11,22.26,6.86,5.31,14.61,7.97,23.25,7.97h0Z"/>
  </g>
  <g>
    <path d="M923.49,198.92v-.9h-5.39v9.21h1.01v-4.05h3.95v-.9h-3.95v-3.36h4.39-.01ZM927.51,207.22v-9.21h-1.01v9.21h1.01ZM936.71,207.22v-.9h-4.39v-8.31h-1.01v9.21h5.4ZM948.54,207.22l-.35-9.36-.2-.02-3.9,6.94-4-6.94-.19.02-.35,9.36h1.02l.11-6.52,3.29,5.58h.14l3.27-5.57.14,6.51h1.02,0ZM961.77,198.92v-.9h-5.39v9.21h1.01v-4.05h3.95v-.9h-3.95v-3.36h4.39-.01ZM970.14,207.22v-.9h-4.39v-3.32h3.95v-.9h-3.95v-3.18h4.39v-.9h-5.39v9.21h5.39ZM978.48,204.73c0-1.23-.54-1.87-2.46-2.74-1.13-.52-1.57-1.03-1.57-1.67,0-.84.59-1.55,1.75-1.55.6,0,1.21.24,1.66.56l.45-.85c-.53-.36-1.27-.63-2.05-.63-1.68,0-2.82,1.18-2.82,2.51,0,1.1.59,1.82,2.19,2.53,1.51.67,1.82,1.15,1.82,1.95s-.55,1.61-1.73,1.61c-.72,0-1.52-.31-2.22-.82l-.49.88c.8.53,1.62.86,2.66.86,1.6,0,2.82-1.15,2.82-2.64h-.01ZM988.25,198.92v-.9h-7.15v.9h3.08v8.31h1.01v-8.31h3.07-.01ZM992.24,207.22v-9.21h-1v9.21h1ZM1003.45,198.01h-1.09l-3.06,7.29-3.08-7.29h-1.13l4.1,9.38h.16l4.1-9.38h0ZM1012.76,207.22l-4.13-9.38h-.16l-4.14,9.38h1.04l1.09-2.55h4.12l1.09,2.55h1.09,0ZM1010.22,203.83h-3.39l1.7-3.96,1.7,3.96h-.01ZM1020.98,207.22v-.9h-4.39v-8.31h-1v9.21h5.39Z"/>
    <path d="M912.59,192.3v-9.21h-1.01v9.21h1.01ZM923.51,192.44v-9.35h-1.01v6.88l-5.91-7.05-.2.05v9.34h1.01v-6.99l5.98,7.16.13-.04h0ZM933.62,183.99v-.9h-7.15v.9h3.08v8.31h1.01v-8.31h3.07-.01ZM941.97,192.3v-.9h-4.39v-3.32h3.95v-.9h-3.95v-3.18h4.39v-.9h-5.39v9.21h5.39ZM951.58,192.3l-2.68-3.85c1.29-.41,2.01-1.38,2.01-2.66,0-1.58-1.17-2.77-3.54-2.77-.77,0-1.45.06-2.12.15v9.12h1.01v-3.63c.3.01.74.02,1.04.02.21,0,.41-.01.62-.02l2.45,3.63h1.22-.01ZM949.83,185.85c0,1.19-.74,1.98-2.46,1.98-.35,0-.82-.02-1.12-.06v-3.75c.33-.07.84-.1,1.27-.1,1.51,0,2.31.84,2.31,1.92h0ZM961.55,192.44v-9.35h-1.01v6.88l-5.91-7.05-.2.05v9.34h1.01v-6.99l5.98,7.16.13-.04h0ZM972.82,192.3l-4.14-9.38h-.16l-4.14,9.38h1.04l1.09-2.55h4.12l1.09,2.55h1.1ZM970.28,188.91h-3.39l1.7-3.96,1.7,3.96h-.01ZM980.9,183.99v-.9h-7.15v.9h3.08v8.31h1.01v-8.31h3.07-.01ZM984.9,192.3v-9.21h-1.01v9.21h1.01ZM997.5,187.7c0-2.77-2.06-4.76-4.55-4.76s-4.64,2-4.64,4.76,2.06,4.75,4.55,4.75,4.64-1.99,4.64-4.75h0ZM996.41,187.7c0,2.17-1.46,3.86-3.49,3.86s-3.51-1.69-3.51-3.86,1.46-3.86,3.51-3.86,3.49,1.68,3.49,3.86h0ZM1008.01,192.44v-9.35h-1.01v6.88l-5.91-7.05-.2.05v9.34h1.01v-6.99l5.98,7.16.13-.04h0ZM1019.28,192.3l-4.13-9.38h-.16l-4.14,9.38h1.04l1.09-2.55h4.12l1.09,2.55h1.09,0ZM1016.74,188.91h-3.39l1.7-3.96,1.7,3.96h-.01ZM1027.5,192.3v-.9h-4.39v-8.31h-1.01v9.21h5.4Z"/>
    <path d="M932.79,172.69c0-2.6-1.78-4.59-5.61-4.59-.92,0-1.66.04-2.73.15v9.05c1.13.1,1.73.15,2.82.15,3.82,0,5.52-2.05,5.52-4.76h0ZM930.51,172.69c0,1.72-.89,2.85-2.9,2.85-.46,0-.63-.01-1.02-.05v-5.43c.33-.04.52-.05.88-.05,1.99,0,3.04,1.01,3.04,2.68h0ZM945.12,172.77c0-2.72-1.83-4.76-4.68-4.76s-4.76,2.05-4.76,4.76,1.82,4.75,4.68,4.75,4.76-2.05,4.76-4.75h0ZM942.83,172.77c0,1.65-.98,2.85-2.44,2.85s-2.44-1.21-2.44-2.85.98-2.85,2.44-2.85,2.44,1.19,2.44,2.85h0ZM956.14,176.67l-.64-1.81c-.69.43-1.55.68-2.3.68-1.72,0-2.79-1.05-2.79-2.76s1.07-2.77,2.79-2.77c.75,0,1.52.24,2.2.62l.65-1.81c-.83-.49-1.81-.8-2.88-.8-3,0-5.04,2.02-5.04,4.76s2.04,4.75,5.04,4.75c1.06,0,2.16-.33,2.97-.86h0ZM965.39,177.37v-1.95h-3.69v-7.27h-2.14v9.21h5.83ZM970.96,177.37v-9.21h-2.14v9.21h2.14ZM980.86,174.66c0-1.18-.52-2.01-2.24-2.74-1.16-.49-1.62-.69-1.62-1.29,0-.38.31-.74,1.09-.74.65,0,1.51.39,2.04.75l.54-1.91c-.54-.36-1.57-.72-2.58-.72-2.15,0-3.24,1.31-3.24,2.65,0,1.11.57,2.05,2.19,2.7,1.41.56,1.65.89,1.65,1.37s-.29.8-1.04.8c-.87,0-1.83-.35-2.58-.89l-.59,1.94c.8.53,2.06.94,3.1.94,2.21,0,3.28-1.4,3.28-2.87h0ZM991.12,174.76c0-1.05-.59-1.78-1.85-2.16,1.04-.43,1.58-1.08,1.58-2.05,0-1.28-1.36-2.47-4.03-2.47-.75,0-1.91.1-2.58.2v9c.9.11,1.95.19,2.75.19,2.77,0,4.12-1.27,4.12-2.7h.01ZM988.65,170.94c0,.67-.51,1.04-1.55,1.04-.39,0-.55-.01-.79-.04v-1.92c.3-.05.58-.09.97-.09.9,0,1.37.45,1.37,1.01h0ZM988.8,174.53c0,.69-.52,1.1-1.6,1.1-.43,0-.59-.01-.89-.04v-2.13c.21-.03.48-.04.8-.04,1.13,0,1.69.4,1.69,1.11h0ZM1003.72,172.77c0-2.72-1.84-4.76-4.68-4.76s-4.76,2.05-4.76,4.76,1.82,4.75,4.68,4.75,4.76-2.05,4.76-4.75h0ZM1001.43,172.77c0,1.65-.98,2.85-2.44,2.85s-2.44-1.21-2.44-2.85.98-2.85,2.44-2.85,2.44,1.19,2.44,2.85h0ZM1014.63,177.37l-4.34-9.29h-.29l-4.34,9.29h2.17l.69-1.67h3.18l.69,1.67h2.24ZM1011.04,174.07h-1.82l.92-2.21.9,2.21h0Z"/>
    <path d="M1087.61,43.64c1.6-2.77,3.18-13.96,3.18-13.96,0,0-8.9,6.96-10.5,9.73-1.6,2.78-2.02,5.54.76,7.14s4.96-.14,6.56-2.91h0ZM1080.44,21.57c1.1-3.01.71-14.3.71-14.3,0,0-7.55,8.4-8.65,11.41s-1.02,5.8,1.99,6.9,4.86-1,5.96-4.01h0ZM1064.53,15.54c1.32-1.67.76-3.9-.63-6.13-1.7-2.72-10.83-9.36-10.83-9.36,0,0,1.97,11.13,3.67,13.84,1.36,2.17,3.07,3.64,5.09,3.28,9.53,14.02,15.26,31.48,15.26,50.48,0,46.06-33.26,83.39-74.28,83.39v3.42c42.71,0,77.33-38.87,77.33-86.82,0-19.59-5.85-37.59-15.6-52.12h0v.02h-.01ZM1066.11,31.6c-2.49-2.02-13.29-5.33-13.29-5.33,0,0,5.48,9.88,7.97,11.89,2.49,2.02,5.15,2.86,7.17.37s.64-4.92-1.85-6.94h0ZM1069.29,90.04c-1.79-2.66-11.16-8.98-11.16-8.98,0,0,2.36,11.05,4.15,13.71s4.09,4.24,6.75,2.45c2.66-1.79,2.05-4.52.26-7.17h0ZM1073.1,58.3c2.23-2.3,1.07-4.84-1.24-7.07-2.3-2.23-12.78-6.47-12.78-6.47,0,0,4.6,10.32,6.91,12.54,2.31,2.23,4.88,3.29,7.11.99h0ZM1072.57,70.13c-2.14-2.38-12.3-7.34-12.3-7.34,0,0,3.87,10.61,6.02,13,2.14,2.38,4.64,3.63,7.02,1.48,2.38-2.14,1.4-4.76-.74-7.14h0ZM1051.82,96.97s.4,11.29,1.71,14.22c1.3,2.93,3.29,4.88,6.22,3.58,2.93-1.3,2.8-4.09,1.5-7.02s-9.43-10.78-9.43-10.78h0ZM1051.5,121.5c-1.09-3.01-8.65-11.41-8.65-11.41,0,0-.39,11.29.71,14.3,1.1,3.01,2.95,5.1,5.95,4.01,3.01-1.1,3.08-3.89,1.99-6.9h0ZM1040.08,131.89c-.67-3.13-6.98-12.5-6.98-12.5,0,0-1.95,11.13-1.29,14.26s2.2,5.46,5.34,4.8c3.13-.67,3.59-3.42,2.93-6.55h0ZM1025.79,139.33c-.22-3.2-5.17-13.35-5.17-13.35,0,0-3.48,10.75-3.26,13.95s1.42,5.72,4.62,5.49c3.2-.22,4.03-2.89,3.81-6.08h0ZM936.29,154.47v-3.42c-41.03,0-74.28-37.34-74.28-83.39,0-19,5.73-36.46,15.26-50.48,2.02.35,3.73-1.11,5.09-3.28,1.7-2.72,3.67-13.84,3.67-13.84,0,0-9.14,6.65-10.83,9.36-1.39,2.22-1.95,4.45-.63,6.13-9.75,14.53-15.6,32.53-15.6,52.12,0,47.95,34.62,86.81,77.33,86.82h0v-.02h-.01ZM921.72,139.92c.22-3.2-3.26-13.95-3.26-13.95,0,0-4.95,10.16-5.17,13.35-.22,3.2.61,5.86,3.81,6.08s4.4-2.3,4.62-5.49h0ZM907.27,133.65c.67-3.13-1.29-14.26-1.29-14.26,0,0-6.31,9.37-6.98,12.5-.67,3.13-.21,5.89,2.93,6.55,3.13.67,4.67-1.66,5.34-4.8h0ZM895.52,124.39c1.1-3.01.71-14.3.71-14.3,0,0-7.55,8.4-8.65,11.41s-1.02,5.8,1.99,6.9,4.86-1,5.95-4.01h0ZM885.56,111.19c1.3-2.93,1.7-14.22,1.7-14.22,0,0-8.12,7.85-9.43,10.78-1.3,2.93-1.43,5.71,1.5,7.02,2.93,1.3,4.92-.65,6.22-3.58h.01ZM871.12,38.54c2.02,2.49,4.68,1.65,7.17-.37s7.97-11.89,7.97-11.89c0,0-10.8,3.31-13.29,5.33s-3.87,4.45-1.85,6.94h0ZM867.22,51.23c-2.31,2.23-3.46,4.77-1.24,7.07,2.23,2.3,4.8,1.24,7.11-.99,2.3-2.23,6.91-12.54,6.91-12.54,0,0-10.47,4.24-12.78,6.47h0ZM869.8,90.04c-1.79,2.66-2.4,5.38.26,7.17s4.96.21,6.75-2.45,4.15-13.71,4.15-13.71c0,0-9.36,6.32-11.15,8.98h-.01ZM865.77,77.27c2.38,2.14,4.88.9,7.02-1.48s6.01-13,6.01-13c0,0-10.15,4.96-12.3,7.34-2.14,2.38-3.12,5-.74,7.14h.01,0ZM866.59,18.68c-1.1-3.01-8.65-11.41-8.65-11.41,0,0-.39,11.29.71,14.3,1.1,3.01,2.94,5.1,5.96,4.01,3.01-1.1,3.08-3.89,1.99-6.9h-.01ZM858.79,39.42c-1.6-2.77-10.5-9.73-10.5-9.73,0,0,1.58,11.19,3.18,13.96,1.6,2.78,3.79,4.52,6.56,2.91,2.77-1.6,2.36-4.36.76-7.14h0ZM855.26,62.67c-2.06-2.45-12.03-7.77-12.03-7.77,0,0,3.5,10.74,5.56,13.2,2.06,2.45,4.51,3.79,6.97,1.73,2.45-2.06,1.57-4.71-.49-7.16h-.01,0ZM857.15,83.36c-2.45-2.06-13.2-5.56-13.2-5.56,0,0,5.31,9.97,7.77,12.03,2.45,2.06,5.1,2.95,7.16.49,2.06-2.45.73-4.91-1.73-6.97h0ZM862.27,104.08c-2.77-1.6-13.96-3.18-13.96-3.18,0,0,6.96,8.9,9.74,10.5s5.54,2.02,7.14-.76-.14-4.96-2.91-6.56h-.01ZM855.06,123.22s9.59,5.98,12.74,6.54c3.16.56,5.89,0,6.45-3.15.56-3.16-1.82-4.61-4.98-5.17s-14.21,1.79-14.21,1.79h0ZM880.56,136.66c-3.16.56-12.74,6.54-12.74,6.54,0,0,11.05,2.34,14.21,1.79,3.16-.56,5.54-2.01,4.98-5.17s-3.29-3.71-6.45-3.16h0ZM886.58,160.42s11.19-1.58,13.96-3.18c2.78-1.6,4.51-3.79,2.91-6.56s-4.36-2.36-7.14-.76c-2.77,1.6-9.74,10.5-9.74,10.5h.01ZM1035.63,150.68c-1.6,2.78.14,4.96,2.91,6.56s13.96,3.18,13.96,3.18c0,0-6.96-8.9-9.74-10.5-2.77-1.6-5.53-2.01-7.14.76h.01ZM1057.06,144.99c3.16.56,14.21-1.79,14.21-1.79,0,0-9.59-5.98-12.74-6.54s-5.89,0-6.45,3.16c-.56,3.16,1.82,4.61,4.98,5.17h0ZM1071.28,129.76c3.15-.56,12.74-6.54,12.74-6.54,0,0-11.05-2.34-14.21-1.79-3.16.56-5.54,2.01-4.98,5.17s3.29,3.71,6.45,3.15h0ZM1090.78,100.89s-11.19,1.58-13.96,3.18-4.51,3.79-2.91,6.56,4.36,2.36,7.14.76c2.77-1.6,9.74-10.5,9.74-10.5h-.01ZM1087.37,89.84c2.45-2.06,7.77-12.03,7.77-12.03,0,0-10.74,3.5-13.2,5.56s-3.79,4.51-1.73,6.97,4.71,1.57,7.16-.49h0ZM1090.3,68.1c2.06-2.45,5.56-13.2,5.56-13.2,0,0-9.97,5.31-12.03,7.77-2.06,2.45-2.95,5.1-.49,7.16s4.91.72,6.97-1.73h-.01Z"/>
    <path d="M954.51,151.91c1.41-2.1,2.38-3.73,2.38-6.56,0-3.45-1.6-5.36-4.77-5.36s-4.67,2.2-4.67,5.87v1.6h2.76v-1.76c0-2.2.47-3.36,1.91-3.36s1.94,1.25,1.94,3.01c0,2.26-.82,3.7-2.13,5.77l-4.58,6.87v2.01h9.66v-2.51h-6.21l3.7-5.58h.01ZM970.24,148.64c0-5.52-1.41-8.66-5.18-8.66s-5.18,3.14-5.18,8.66v2.95c0,5.52,1.41,8.66,5.18,8.66s5.18-3.14,5.18-8.66v-2.95h0ZM962.86,147.26c0-3.04.5-4.89,2.2-4.89s2.2,1.85,2.2,4.89v5.71c0,3.04-.5,4.89-2.2,4.89s-2.2-1.85-2.2-4.89v-5.71h0ZM972.94,145h2.35v14.99h2.92v-19.89h-1.94c-.56,2.13-1,2.98-3.33,3.01v1.88h0ZM986.3,160.25c3.8,0,5.18-3.11,5.18-8.63v-3.07c0-5.46-1.32-8.56-5.08-8.56-3.45,0-4.93,2.79-4.93,6.37s1.41,6.18,4.24,6.18c1.41,0,2.48-.78,2.95-1.85v2.1c0,3.14-.6,5.08-2.26,5.08-1.44,0-2.01-1.35-2.01-3.61v-.88h-2.67v.88c0,3.61,1.44,5.99,4.58,5.99h0ZM988.62,146.35c0,2.48-.66,3.98-2.16,3.98s-2.2-1.51-2.2-3.98.69-4.02,2.2-4.02,2.16,1.54,2.16,4.02h0Z"/>
    <path d="M942.88,107.34c-.35-.15-.82-.26-1.46-.26-1.85,0-2.71,1.02-2.71,2.74v.88h-.97v1.64h.97v6.46h2.32v-6.46h1.41v-1.64h-1.41v-.9c0-.6.24-.92.79-.92.33,0,.57.07.86.18l.2-1.74h0v.02h0ZM944,110.71v8.1h2.34v-8.1h-2.34ZM944,109.72h2.34v-2.25h-2.34v2.25h0ZM953.33,110.74c-.2-.11-.46-.14-.77-.14-.9,0-1.59.4-1.9,1.39v-1.28h-2.34v8.1h2.34v-4.14c0-1.35.57-1.94,1.65-1.94.33,0,.59.04.91.13l.11-2.12h0ZM954.28,116.14c.07,1.81,1.37,2.83,3.35,2.83s3.13-.95,3.13-2.54c0-1.35-.79-2.03-2.27-2.43l-1.15-.31c-.51-.16-.81-.33-.81-.79s.37-.71.92-.71c.82,0,1.19.51,1.19,1.25h1.97c-.02-1.67-1.06-2.89-3.18-2.89-1.81,0-3,1.06-3,2.56s.8,2.12,2.16,2.47l1.25.31c.55.15.81.31.81.73,0,.48-.4.71-1.01.71-.77,0-1.3-.38-1.35-1.19h-2.01,0ZM962.68,116.71c0,1.63.99,2.23,2.18,2.23.77,0,1.39-.18,2.01-.6v-1.63c-.49.24-.81.35-1.17.35-.48,0-.71-.26-.71-.81v-3.9h1.68v-1.64h-1.68v-2.21h-1.41l-.26,1.08c-.18.75-.44,1.13-1.21,1.3l-.35.07v1.41h.91v4.36h.01ZM974.94,118.81v-4.59h3.37v-1.99h-3.37v-2.91h4.26v-2.03h-6.71v11.53h2.45ZM980.74,110.71v8.1h2.34v-8.1h-2.34ZM980.74,109.72h2.34v-2.25h-2.34v2.25h0ZM985.06,107.29v11.53h2.34v-11.53h-2.34ZM996.24,114.22c0-.88.24-1.76,1.15-1.76.82,0,1.01.6,1.01,1.5v4.85h2.34v-5.62c0-1.48-.66-2.65-2.47-2.65-1.12,0-1.85.53-2.29,1.17-.35-.62-1.01-1.17-2.16-1.17-.97,0-1.76.48-2.11,1.15v-.99h-2.34v8.1h2.34v-4.59c0-.88.26-1.76,1.17-1.76.82,0,1.01.6,1.01,1.5v4.85h2.34v-4.59h.01,0Z"/>
    <path d="M904.97,89.91c-.35-.15-.82-.26-1.46-.26-1.85,0-2.71,1.02-2.71,2.74v.88h-.97v1.64h.97v6.46h2.32v-6.46h1.41v-1.64h-1.41v-.9c0-.6.24-.92.79-.92.33,0,.57.07.86.18l.2-1.74h0v.02h0ZM909.1,99.74c-.88,0-1.26-.73-1.26-1.9v-1.01c0-1.17.38-1.9,1.26-1.9s1.26.73,1.26,1.9v1.01c0,1.17-.38,1.9-1.26,1.9h0ZM909.1,101.55c2.23,0,3.59-1.57,3.59-4.06v-.31c0-2.49-1.35-4.06-3.59-4.06s-3.59,1.57-3.59,4.06v.31c0,2.49,1.35,4.06,3.59,4.06h0ZM919.35,93.32c-.2-.11-.46-.14-.77-.14-.9,0-1.59.4-1.9,1.39v-1.28h-2.34v8.1h2.34v-4.14c0-1.35.57-1.94,1.65-1.94.33,0,.59.04.91.13l.11-2.12h0ZM932.53,98.2c0-1.63-.97-2.53-2.32-2.76,1.22-.22,2.01-1.1,2.01-2.47,0-1.87-1.01-3.11-3.66-3.11h-3.77v11.53h3.79c2.71,0,3.95-1.17,3.95-3.18h0ZM928.45,96.46c1.3,0,1.7.57,1.7,1.48s-.4,1.47-1.68,1.47h-1.34v-2.95h1.32ZM927.13,91.81h1.12c1.26,0,1.59.6,1.59,1.43,0,.77-.33,1.36-1.59,1.36h-1.12v-2.78h0ZM937.46,101.55c2.01,0,3.13-1.17,3.27-3.09h-2.08c-.02.82-.4,1.26-1.17,1.26-.9,0-1.36-.64-1.36-1.91h4.67v-.64c0-2.49-1.1-4.06-3.42-4.06-2.14,0-3.49,1.57-3.49,4.06v.31c0,2.49,1.35,4.06,3.59,4.06h-.01ZM936.12,96.52c0-1.03.46-1.58,1.25-1.58s1.23.55,1.23,1.58h-2.48ZM941.99,98.72c.07,1.81,1.37,2.83,3.35,2.83s3.13-.95,3.13-2.54c0-1.35-.79-2.03-2.27-2.43l-1.15-.31c-.51-.16-.81-.33-.81-.79s.37-.71.92-.71c.82,0,1.19.51,1.19,1.24h1.97c-.02-1.67-1.06-2.89-3.18-2.89-1.81,0-3,1.06-3,2.56s.8,2.12,2.16,2.47l1.25.31c.55.15.81.31.81.73,0,.48-.4.71-1.01.71-.77,0-1.3-.38-1.36-1.19h-2,0ZM950.38,99.28c0,1.63.99,2.23,2.18,2.23.77,0,1.39-.18,2.01-.6v-1.63c-.49.24-.81.35-1.17.35-.48,0-.71-.26-.71-.81v-3.9h1.68v-1.64h-1.68v-2.21h-1.41l-.26,1.08c-.18.75-.44,1.13-1.21,1.3l-.35.07v1.41h.91v4.36h.01ZM962.65,95.5v-3.66h1.1c1.21,0,1.83.49,1.83,1.83s-.62,1.83-1.83,1.83h-1.1ZM962.65,97.45h1.3c2.73,0,4.01-1.35,4.01-3.8s-1.28-3.79-4.01-3.79h-3.75v11.53h2.45v-3.93h0ZM972.63,99.74c-.88,0-1.26-.73-1.26-1.9v-1.01c0-1.17.38-1.9,1.26-1.9s1.26.73,1.26,1.9v1.01c0,1.17-.38,1.9-1.26,1.9h0ZM972.63,101.55c2.23,0,3.59-1.57,3.59-4.06v-.31c0-2.49-1.35-4.06-3.59-4.06s-3.59,1.57-3.59,4.06v.31c0,2.49,1.35,4.06,3.59,4.06h0ZM982.88,93.32c-.2-.11-.46-.14-.77-.14-.9,0-1.59.4-1.9,1.39v-1.28h-2.34v8.1h2.34v-4.14c0-1.35.57-1.94,1.65-1.94.33,0,.59.04.91.13l.11-2.12h0ZM984.76,99.28c0,1.63.99,2.23,2.17,2.23.77,0,1.39-.18,2.01-.6v-1.63c-.49.24-.81.35-1.17.35-.48,0-.71-.26-.71-.81v-3.9h1.68v-1.64h-1.68v-2.21h-1.41l-.26,1.08c-.18.75-.44,1.13-1.21,1.3l-.35.07v1.41h.91v4.36h.02ZM994.93,97.8c0,1.04-.31,1.81-1.21,1.81-.84,0-1.06-.6-1.06-1.52v-4.81h-2.32v5.56c0,1.57.73,2.71,2.45,2.71,1.06,0,1.81-.51,2.14-1.15v.99h2.34v-8.1h-2.34v4.52h0ZM1005.53,95.79c0-.4-.09-.79-.26-1.12.33-.09.71-.15,1.02-.15v-1.83c-.71,0-1.43.42-1.83,1.04-.57-.4-1.32-.62-2.18-.62-1.83,0-3.22,1-3.22,2.67v.22c0,.86.38,1.56,1.01,2.01-.71.38-1.08.86-1.08,1.56s.36,1.24.93,1.44c-.84.13-1.37.71-1.37,1.47,0,1.44,1.59,2.02,3.64,2.02,2.31,0,4.11-.88,4.11-2.84,0-1.44-.84-2.28-2.59-2.28h-2.25c-.44,0-.64-.23-.64-.55,0-.15.04-.26.11-.37.4.15.86.2,1.36.2,1.85,0,3.24-1.02,3.24-2.67v-.22h0v.02h0ZM1000.56,102.15c0-.47.29-.76.91-.76h1.89c.53,0,.88.22.88.71,0,.65-.79.94-2.03.94-1.08,0-1.65-.33-1.65-.89h0ZM1001.32,95.8c0-.71.31-1.19.97-1.19s.99.48.99,1.19v.18c0,.71-.31,1.19-.99,1.19s-.97-.48-.97-1.19v-.18h0ZM1012.19,97.8c0,1.04-.31,1.81-1.21,1.81-.84,0-1.06-.6-1.06-1.52v-4.81h-2.32v5.56c0,1.57.73,2.71,2.45,2.71,1.06,0,1.81-.51,2.14-1.15v.99h2.34v-8.1h-2.34v4.52h0ZM1019.81,101.55c2.01,0,3.13-1.17,3.27-3.09h-2.08c-.02.82-.4,1.26-1.17,1.26-.9,0-1.36-.64-1.36-1.91h4.67v-.64c0-2.49-1.1-4.06-3.42-4.06-2.14,0-3.49,1.57-3.49,4.06v.31c0,2.49,1.35,4.06,3.58,4.06h0ZM1018.47,96.52c0-1.03.46-1.58,1.25-1.58s1.23.55,1.23,1.58h-2.48ZM1024.34,98.72c.07,1.81,1.37,2.83,3.35,2.83s3.13-.95,3.13-2.54c0-1.35-.79-2.03-2.27-2.43l-1.16-.31c-.51-.16-.81-.33-.81-.79s.37-.71.91-.71c.82,0,1.19.51,1.19,1.24h1.97c-.02-1.67-1.06-2.89-3.18-2.89-1.81,0-3,1.06-3,2.56s.8,2.12,2.16,2.47l1.25.31c.55.15.81.31.81.73,0,.48-.4.71-1.01.71-.77,0-1.3-.38-1.36-1.19h-1.99.01ZM1035.66,101.55c2.01,0,3.13-1.17,3.27-3.09h-2.08c-.02.82-.4,1.26-1.17,1.26-.9,0-1.36-.64-1.36-1.91h4.67v-.64c0-2.49-1.1-4.06-3.42-4.06-2.14,0-3.49,1.57-3.49,4.06v.31c0,2.49,1.35,4.06,3.58,4.06h0ZM1034.32,96.52c0-1.03.46-1.58,1.25-1.58s1.23.55,1.23,1.58h-2.48Z"/>
    <path d="M900.35,80.87c0,.93-.51,1.54-1.34,1.54-.49,0-.79-.24-.79-.71,0-.51.33-.75.82-.95l1.3-.59v.71h.01ZM902.59,78.71c0-1.99-.99-3.02-3.13-3.02s-3.18,1.22-3.18,2.91v.24h2.08v-.24c0-.7.33-1.12,1.01-1.12s.97.44.97,1.12v.18l-2.33.86c-.93.37-2.03.88-2.03,2.34,0,1.24.82,2.08,2.25,2.08,1.06,0,1.87-.53,2.2-1.24.18.88.88,1.24,1.68,1.24.53,0,.91-.15,1.26-.37v-1.41c-.18.05-.29.07-.44.07-.24,0-.35-.13-.35-.38v-3.28h0v.02h.01ZM907.14,79.4c0-1.01.35-1.79,1.26-1.79.84,0,1.06.6,1.06,1.54v4.81h2.34v-5.56c0-1.59-.77-2.71-2.49-2.71-1.06,0-1.83.51-2.18,1.15v-.99h-2.34v8.1h2.34v-4.56h.01,0ZM915.78,79.53c0-1.3.46-2,1.34-2s1.32.7,1.32,1.7v1.34c0,1.01-.48,1.68-1.32,1.68s-1.34-.68-1.34-1.98v-.75h0ZM918.44,83.96h2.34v-11.53h-2.34v4.43c-.4-.68-1.08-1.17-2.14-1.17-1.85,0-2.83,1.43-2.83,3.93v.57c0,2.51.99,3.93,2.83,3.93,1.06,0,1.74-.49,2.14-1.17v1h0ZM929.37,81.98v-7.58h1.03c1.56,0,2.36.71,2.36,2.95v1.68c0,2.23-.81,2.95-2.36,2.95h-1.03ZM926.9,83.96h3.71c3.2,0,4.65-1.9,4.65-5.43v-.66c0-3.53-1.44-5.43-4.65-5.43h-3.71v11.53h0ZM940.27,82.31c-.88,0-1.26-.73-1.26-1.9v-1.01c0-1.17.38-1.9,1.26-1.9s1.26.73,1.26,1.9v1.01c0,1.17-.38,1.9-1.26,1.9h0ZM940.27,84.12c2.23,0,3.59-1.57,3.59-4.06v-.31c0-2.49-1.35-4.06-3.59-4.06s-3.59,1.57-3.59,4.06v.31c0,2.49,1.35,4.06,3.59,4.06h0ZM945.15,80.06c0,2.49,1.32,4.06,3.53,4.06s3.27-1.48,3.27-3.49v-.2h-2.14v.16c0,1.01-.29,1.7-1.14,1.7s-1.21-.73-1.21-1.89v-1.01c0-1.17.35-1.9,1.21-1.9s1.14.71,1.14,1.72v.15h2.14v-.18c0-2.01-1.13-3.49-3.27-3.49s-3.53,1.57-3.53,4.06v.31h0ZM953.64,72.43v11.53h2.34v-11.53h-2.34ZM957.96,75.85v8.1h2.34v-8.1h-2.34ZM957.96,74.86h2.34v-2.25h-2.34v2.25h0ZM961.85,81.29c.07,1.81,1.37,2.83,3.35,2.83s3.13-.95,3.13-2.54c0-1.35-.79-2.03-2.27-2.43l-1.15-.31c-.51-.16-.81-.33-.81-.79s.37-.71.92-.71c.82,0,1.19.51,1.19,1.25h1.97c-.02-1.67-1.06-2.89-3.18-2.89-1.81,0-3,1.06-3,2.56s.8,2.12,2.16,2.47l1.25.31c.55.15.81.31.81.73,0,.48-.4.71-1.01.71-.77,0-1.3-.38-1.35-1.19h-2.01,0ZM974.96,80.28c0,1.3-.46,1.98-1.34,1.98s-1.32-.68-1.32-1.68v-1.34c0-1.01.46-1.7,1.32-1.7s1.34.7,1.34,2v.75h0ZM972.31,82.95c.38.68,1.08,1.17,2.14,1.17,1.85,0,2.83-1.43,2.83-3.93v-.57c0-2.51-.99-3.93-2.83-3.93-1.06,0-1.76.49-2.14,1.17v-4.43h-2.34v11.53h2.08l.26-1h0ZM982.21,82.31c-.88,0-1.26-.73-1.26-1.9v-1.01c0-1.17.38-1.9,1.26-1.9s1.26.73,1.26,1.9v1.01c0,1.17-.38,1.9-1.26,1.9h0ZM982.21,84.12c2.23,0,3.59-1.57,3.59-4.06v-.31c0-2.49-1.35-4.06-3.59-4.06s-3.59,1.57-3.59,4.06v.31c0,2.49,1.35,4.06,3.59,4.06h0ZM991.34,80.87c0,.93-.51,1.54-1.34,1.54-.49,0-.79-.24-.79-.71,0-.51.33-.75.82-.95l1.3-.59v.71h.01ZM993.59,78.71c0-1.99-.99-3.02-3.13-3.02s-3.18,1.22-3.18,2.91v.24h2.08v-.24c0-.7.33-1.12,1.01-1.12s.97.44.97,1.12v.18l-2.33.86c-.93.37-2.03.88-2.03,2.34,0,1.24.82,2.08,2.25,2.08,1.06,0,1.87-.53,2.2-1.24.18.88.88,1.24,1.68,1.24.53,0,.91-.15,1.26-.37v-1.41c-.18.05-.29.07-.44.07-.24,0-.35-.13-.35-.38v-3.28h0v.02h.01ZM1002.46,72.43l-3.31,11.53h2.29l.73-2.65h3.37l.71,2.65h2.49l-3.31-11.53h-2.97ZM1003.83,75.25h.07l1.1,4.12h-2.3l1.13-4.12h0ZM1015.42,75.85h-1.81l-1.08,4.78h-.07l-1.12-4.78h-2.27l2.09,8.1h2.1l1.12-5.03h.07l1.12,5.03h2.1l2.09-8.1h-2.05l-1.12,4.78h-.07l-1.1-4.78h0ZM1024.84,80.87c0,.93-.51,1.54-1.34,1.54-.49,0-.79-.24-.79-.71,0-.51.33-.75.82-.95l1.3-.59v.71h.01ZM1027.09,78.71c0-1.99-.99-3.02-3.13-3.02s-3.18,1.22-3.18,2.91v.24h2.08v-.24c0-.7.33-1.12,1.01-1.12s.97.44.97,1.12v.18l-2.32.86c-.93.37-2.03.88-2.03,2.34,0,1.24.82,2.08,2.25,2.08,1.06,0,1.87-.53,2.2-1.24.18.88.88,1.24,1.68,1.24.53,0,.91-.15,1.26-.37v-1.41c-.18.05-.29.07-.44.07-.24,0-.35-.13-.35-.38v-3.28h0v.02ZM1034.3,75.89c-.2-.11-.46-.14-.77-.14-.9,0-1.59.4-1.9,1.39v-1.28h-2.34v8.1h2.34v-4.14c0-1.35.57-1.94,1.65-1.94.33,0,.59.04.91.13l.11-2.12h0ZM1037.66,79.53c0-1.3.46-2,1.34-2s1.32.7,1.32,1.7v1.34c0,1.01-.48,1.68-1.32,1.68s-1.34-.68-1.34-1.98v-.75h0ZM1040.32,83.96h2.34v-11.53h-2.34v4.43c-.4-.68-1.08-1.17-2.14-1.17-1.85,0-2.83,1.43-2.83,3.93v.57c0,2.51.99,3.93,2.83,3.93,1.06,0,1.74-.49,2.14-1.17v1h0Z"/>
    <path d="M930.35,66.53l2.07-8.16h.07v8.16h2.3v-11.53h-3.27l-1.72,7.04h-.07l-1.74-7.04h-3.44v11.53h2.18v-8.16h.07l2.05,8.16h1.5ZM936.91,58.43v8.1h2.34v-8.1h-2.34ZM936.91,57.44h2.34v-2.25h-2.34v2.25h0ZM943.28,62.1c0-1.3.46-2,1.34-2s1.32.7,1.32,1.7v1.34c0,1.01-.48,1.68-1.32,1.68s-1.34-.68-1.34-1.98v-.75h0ZM945.94,66.53h2.34v-11.53h-2.34v4.43c-.4-.68-1.08-1.17-2.14-1.17-1.85,0-2.83,1.43-2.83,3.93v.57c0,2.51.99,3.93,2.83,3.93,1.06,0,1.74-.49,2.14-1.17v1h0ZM954.22,63.44c0,.93-.51,1.54-1.34,1.54-.49,0-.79-.24-.79-.71,0-.51.33-.75.82-.95l1.3-.59v.71h.01ZM956.47,61.28c0-1.99-.99-3.02-3.13-3.02s-3.18,1.22-3.18,2.91v.24h2.08v-.24c0-.7.33-1.12,1.01-1.12s.97.44.97,1.12v.18l-2.33.86c-.93.37-2.03.88-2.03,2.34,0,1.24.82,2.08,2.25,2.08,1.06,0,1.87-.53,2.2-1.24.18.88.88,1.24,1.68,1.24.53,0,.91-.15,1.26-.37v-1.41c-.18.05-.29.07-.44.07-.24,0-.35-.13-.35-.38v-3.28h0v.02h.01ZM958.31,63.86c.07,1.81,1.37,2.83,3.35,2.83s3.13-.95,3.13-2.54c0-1.35-.79-2.03-2.27-2.43l-1.15-.31c-.51-.16-.81-.33-.81-.79s.37-.71.92-.71c.82,0,1.19.51,1.19,1.25h1.97c-.02-1.67-1.06-2.89-3.18-2.89-1.81,0-3,1.06-3,2.56s.8,2.12,2.16,2.47l1.25.31c.55.15.81.31.81.73,0,.48-.4.71-1.01.71-.77,0-1.3-.38-1.35-1.19h-2.01,0ZM972.97,66.53v-4.59h3.37v-1.99h-3.37v-2.91h4.26v-2.03h-6.71v11.53h2.45ZM978.77,58.43v8.1h2.34v-8.1h-2.34ZM978.77,57.44h2.34v-2.25h-2.34v2.25h0ZM983.09,55v11.53h2.34v-11.53h-2.34ZM994.27,61.94c0-.88.24-1.76,1.15-1.76.82,0,1.01.6,1.01,1.5v4.85h2.34v-5.62c0-1.48-.66-2.65-2.47-2.65-1.12,0-1.85.53-2.29,1.17-.35-.62-1.01-1.17-2.16-1.17-.97,0-1.76.48-2.11,1.15v-.99h-2.34v8.1h2.34v-4.59c0-.88.26-1.76,1.17-1.76.82,0,1.01.6,1.01,1.5v4.85h2.34v-4.59h.01,0ZM1003.98,66.69c2.01,0,3.13-1.17,3.27-3.09h-2.08c-.02.82-.4,1.26-1.17,1.26-.9,0-1.36-.64-1.36-1.91h4.67v-.64c0-2.49-1.1-4.06-3.42-4.06-2.14,0-3.49,1.57-3.49,4.06v.31c0,2.49,1.35,4.06,3.58,4.06h0ZM1002.65,61.67c0-1.03.46-1.58,1.25-1.58s1.23.55,1.23,1.58h-2.48ZM1008.52,63.86c.07,1.81,1.37,2.83,3.35,2.83s3.13-.95,3.13-2.54c0-1.35-.79-2.03-2.27-2.43l-1.15-.31c-.51-.16-.81-.33-.81-.79s.37-.71.91-.71c.82,0,1.19.51,1.19,1.25h1.97c-.02-1.67-1.06-2.89-3.18-2.89-1.81,0-3,1.06-3,2.56s.81,2.12,2.16,2.47l1.25.31c.55.15.81.31.81.73,0,.48-.4.71-1.01.71-.77,0-1.3-.38-1.35-1.19h-2,0Z"/>
    <path d="M950.77,37.58l-3.31,11.53h2.29l.73-2.65h3.37l.71,2.65h2.49l-3.31-11.53h-2.97ZM952.14,40.39h.07l1.1,4.12h-2.31l1.13-4.12h.01ZM963.74,41h-1.81l-1.08,4.78h-.07l-1.12-4.78h-2.27l2.09,8.1h2.1l1.12-5.03h.07l1.12,5.03h2.1l2.09-8.1h-2.05l-1.12,4.78h-.07l-1.1-4.78h0ZM973.15,46.01c0,.93-.51,1.54-1.34,1.54-.49,0-.79-.24-.79-.71,0-.51.33-.75.82-.95l1.3-.59v.71h.01ZM975.4,43.85c0-1.99-.99-3.02-3.13-3.02s-3.18,1.22-3.18,2.91v.24h2.08v-.24c0-.7.33-1.12,1.01-1.12s.97.44.97,1.12v.18l-2.33.86c-.93.37-2.03.88-2.03,2.34,0,1.24.82,2.08,2.25,2.08,1.06,0,1.87-.53,2.2-1.24.18.88.88,1.24,1.68,1.24.53,0,.91-.15,1.26-.37v-1.41c-.18.05-.29.07-.44.07-.24,0-.35-.13-.35-.38v-3.28h0v.02h.01ZM982.61,41.03c-.2-.11-.46-.14-.77-.14-.9,0-1.59.4-1.9,1.39v-1.28h-2.34v8.1h2.34v-4.14c0-1.35.57-1.94,1.65-1.94.33,0,.59.04.91.13l.11-2.12h0ZM985.97,44.68c0-1.3.46-2,1.34-2s1.32.7,1.32,1.7v1.34c0,1.01-.48,1.68-1.32,1.68s-1.34-.68-1.34-1.98v-.75h0ZM988.63,49.1h2.34v-11.53h-2.34v4.43c-.4-.68-1.08-1.17-2.14-1.17-1.85,0-2.83,1.43-2.83,3.93v.57c0,2.51.99,3.93,2.83,3.93,1.06,0,1.74-.49,2.14-1.17v1h0Z"/>
    <path d="M916.88,31.68v-4.59h3.37v-1.99h-3.37v-2.91h4.26v-2.03h-6.71v11.53h2.45ZM925.64,31.84c2.01,0,3.13-1.17,3.27-3.09h-2.08c-.02.82-.4,1.26-1.17,1.26-.9,0-1.36-.64-1.36-1.91h4.67v-.64c0-2.49-1.1-4.06-3.42-4.06-2.14,0-3.49,1.57-3.49,4.06v.31c0,2.49,1.35,4.06,3.59,4.06h-.01ZM924.3,26.81c0-1.03.46-1.58,1.25-1.58s1.23.55,1.23,1.58h-2.48ZM935.66,23.61c-.2-.11-.46-.14-.77-.14-.9,0-1.59.4-1.9,1.39v-1.28h-2.34v8.1h2.34v-4.14c0-1.35.57-1.94,1.65-1.94.33,0,.59.04.91.13l.11-2.12h0ZM939.32,27.12c0-1.01.35-1.79,1.26-1.79.84,0,1.06.6,1.06,1.54v4.81h2.34v-5.56c0-1.59-.77-2.71-2.49-2.71-1.06,0-1.83.51-2.18,1.15v-.99h-2.34v8.1h2.34v-4.56h.01,0ZM949.89,28.58c0,.93-.51,1.54-1.34,1.54-.49,0-.79-.24-.79-.71,0-.51.33-.75.82-.95l1.3-.59v.71h.01ZM952.14,26.42c0-1.99-.99-3.02-3.13-3.02s-3.18,1.22-3.18,2.91v.24h2.08v-.24c0-.7.33-1.12,1.01-1.12s.97.44.97,1.12v.18l-2.33.86c-.93.37-2.03.88-2.03,2.34,0,1.24.82,2.08,2.25,2.08,1.06,0,1.87-.53,2.2-1.24.18.88.88,1.24,1.68,1.24.53,0,.91-.15,1.26-.37v-1.41c-.18.05-.29.07-.44.07-.24,0-.35-.13-.35-.38v-3.28h0v.02h.01ZM956.68,27.12c0-1.01.35-1.79,1.26-1.79.84,0,1.06.6,1.06,1.54v4.81h2.34v-5.56c0-1.59-.77-2.71-2.49-2.71-1.06,0-1.83.51-2.18,1.15v-.99h-2.34v8.1h2.34v-4.56h.01,0ZM965.32,27.25c0-1.3.46-2,1.34-2s1.32.7,1.32,1.7v1.34c0,1.01-.48,1.68-1.32,1.68s-1.34-.68-1.34-1.98v-.75h0ZM967.98,31.68h2.34v-11.53h-2.34v4.43c-.4-.68-1.08-1.17-2.14-1.17-1.85,0-2.83,1.43-2.83,3.93v.57c0,2.51.99,3.93,2.83,3.93,1.06,0,1.74-.49,2.14-1.17v1h0ZM975.56,30.03c-.88,0-1.26-.73-1.26-1.9v-1.01c0-1.17.38-1.9,1.26-1.9s1.26.73,1.26,1.9v1.01c0,1.17-.38,1.9-1.26,1.9h0ZM975.56,31.84c2.23,0,3.59-1.57,3.59-4.06v-.31c0-2.49-1.35-4.06-3.59-4.06s-3.59,1.57-3.59,4.06v.31c0,2.49,1.35,4.06,3.59,4.06h0ZM984.9,20.15v11.53h6.86v-2.03h-4.39v-9.5h-2.47ZM996.59,30.03c-.88,0-1.26-.73-1.26-1.9v-1.01c0-1.17.39-1.9,1.26-1.9s1.26.73,1.26,1.9v1.01c0,1.17-.39,1.9-1.26,1.9h0ZM996.59,31.84c2.23,0,3.58-1.57,3.58-4.06v-.31c0-2.49-1.35-4.06-3.58-4.06s-3.58,1.57-3.58,4.06v.31c0,2.49,1.35,4.06,3.58,4.06h0ZM1006.83,28c0,1.3-.46,1.98-1.34,1.98s-1.32-.68-1.32-1.68v-1.34c0-1.01.46-1.7,1.32-1.7s1.34.7,1.34,2v.75h0ZM1004.17,30.67c.39.68,1.08,1.17,2.14,1.17,1.85,0,2.83-1.43,2.83-3.93v-.57c0-2.51-.99-3.93-2.83-3.93-1.06,0-1.76.49-2.14,1.17v-1h-2.34v11.07h2.34v-3.97h0ZM1014.1,31.84c2.01,0,3.13-1.17,3.27-3.09h-2.08c-.02.82-.4,1.26-1.17,1.26-.9,0-1.36-.64-1.36-1.91h4.67v-.64c0-2.49-1.1-4.06-3.42-4.06-2.14,0-3.49,1.57-3.49,4.06v.31c0,2.49,1.35,4.06,3.58,4.06h0ZM1012.76,26.81c0-1.03.46-1.58,1.25-1.58s1.23.55,1.23,1.58h-2.48ZM1018.63,29.01c.07,1.81,1.37,2.83,3.35,2.83s3.13-.95,3.13-2.54c0-1.35-.79-2.03-2.27-2.43l-1.16-.31c-.51-.16-.81-.33-.81-.79s.37-.71.91-.71c.82,0,1.19.51,1.19,1.25h1.97c-.02-1.67-1.06-2.89-3.18-2.89-1.81,0-3,1.06-3,2.56s.8,2.12,2.16,2.47l1.25.31c.55.15.81.31.81.73,0,.48-.4.71-1.01.71-.77,0-1.3-.38-1.36-1.19h-1.99.01Z"/>
  </g>
  <g>
    <path d="M1237.94,198.87v-.9h-5.39v9.21h1.01v-4.05h3.95v-.9h-3.95v-3.36h4.39-.01ZM1241.96,207.18v-9.21h-1.01v9.21h1.01ZM1251.15,207.18v-.9h-4.39v-8.31h-1.01v9.21h5.4ZM1262.99,207.18l-.35-9.36-.2-.02-3.9,6.94-4-6.94-.19.02-.35,9.36h1.02l.11-6.52,3.29,5.58h.14l3.27-5.57.14,6.51h1.02,0ZM1276.22,198.87v-.9h-5.39v9.21h1.01v-4.05h3.95v-.9h-3.95v-3.36h4.39-.01ZM1284.59,207.18v-.9h-4.39v-3.32h3.95v-.9h-3.95v-3.18h4.39v-.9h-5.39v9.21h5.39ZM1292.93,204.69c0-1.23-.54-1.87-2.46-2.74-1.13-.52-1.57-1.03-1.57-1.67,0-.84.59-1.55,1.75-1.55.6,0,1.21.24,1.66.56l.45-.85c-.53-.36-1.27-.63-2.05-.63-1.68,0-2.82,1.18-2.82,2.51,0,1.1.59,1.82,2.19,2.53,1.51.67,1.82,1.15,1.82,1.95s-.55,1.61-1.73,1.61c-.72,0-1.52-.31-2.22-.82l-.49.88c.8.53,1.62.86,2.66.86,1.6,0,2.82-1.15,2.82-2.64h-.01ZM1302.7,198.87v-.9h-7.15v.9h3.08v8.31h1.01v-8.31h3.07,0ZM1306.69,207.18v-9.21h-1v9.21h1ZM1317.9,197.97h-1.09l-3.06,7.29-3.08-7.29h-1.13l4.1,9.38h.16l4.1-9.38h0ZM1327.21,207.18l-4.13-9.38h-.16l-4.14,9.38h1.04l1.09-2.55h4.12l1.09,2.55h1.09ZM1324.67,203.79h-3.39l1.7-3.96,1.7,3.96h0ZM1335.43,207.18v-.9h-4.39v-8.31h-1v9.21h5.39Z"/>
    <path d="M1227.03,192.25v-9.21h-1.01v9.21h1.01ZM1237.95,192.39v-9.35h-1.01v6.88l-5.91-7.05-.2.05v9.34h1.01v-6.99l5.98,7.16.13-.04h0ZM1248.06,183.95v-.9h-7.15v.9h3.08v8.31h1.01v-8.31h3.07,0ZM1256.41,192.25v-.9h-4.39v-3.32h3.95v-.9h-3.95v-3.18h4.39v-.9h-5.39v9.21h5.39ZM1266.02,192.25l-2.68-3.85c1.29-.41,2.01-1.38,2.01-2.66,0-1.58-1.17-2.77-3.54-2.77-.77,0-1.45.06-2.12.15v9.12h1.01v-3.63c.3.01.74.02,1.04.02.21,0,.41-.01.62-.02l2.45,3.63h1.22,0ZM1264.28,185.81c0,1.19-.74,1.98-2.46,1.98-.35,0-.82-.02-1.12-.06v-3.75c.33-.07.84-.1,1.27-.1,1.51,0,2.31.84,2.31,1.92h0ZM1276,192.39v-9.35h-1.01v6.88l-5.91-7.05-.2.05v9.34h1.01v-6.99l5.98,7.16.13-.04h0ZM1287.27,192.25l-4.14-9.38h-.16l-4.14,9.38h1.04l1.09-2.55h4.12l1.09,2.55h1.1ZM1284.73,188.86h-3.39l1.7-3.96,1.7,3.96h0ZM1295.35,183.95v-.9h-7.15v.9h3.08v8.31h1.01v-8.31h3.07,0ZM1299.35,192.25v-9.21h-1.01v9.21h1.01ZM1311.95,187.66c0-2.77-2.06-4.76-4.55-4.76s-4.64,2-4.64,4.76,2.06,4.75,4.55,4.75,4.64-1.99,4.64-4.75h0ZM1310.86,187.66c0,2.17-1.46,3.86-3.49,3.86s-3.51-1.69-3.51-3.86,1.46-3.86,3.51-3.86,3.49,1.68,3.49,3.86h0ZM1322.46,192.39v-9.35h-1.01v6.88l-5.91-7.05-.2.05v9.34h1.01v-6.99l5.98,7.16.13-.04h0ZM1333.73,192.25l-4.13-9.38h-.16l-4.14,9.38h1.04l1.09-2.55h4.12l1.09,2.55h1.09ZM1331.19,188.86h-3.39l1.7-3.96,1.7,3.96h0ZM1341.95,192.25v-.9h-4.39v-8.31h-1.01v9.21h5.4Z"/>
    <path d="M1247.24,172.64c0-2.6-1.78-4.59-5.61-4.59-.92,0-1.66.04-2.73.15v9.05c1.13.1,1.73.15,2.82.15,3.82,0,5.52-2.05,5.52-4.76h0ZM1244.96,172.64c0,1.72-.89,2.85-2.9,2.85-.46,0-.63-.01-1.02-.05v-5.43c.33-.04.52-.05.88-.05,1.99,0,3.04,1.01,3.04,2.68h0ZM1259.56,172.73c0-2.72-1.83-4.76-4.68-4.76s-4.76,2.05-4.76,4.76,1.82,4.75,4.68,4.75,4.76-2.05,4.76-4.75h0ZM1257.28,172.73c0,1.65-.98,2.85-2.44,2.85s-2.44-1.21-2.44-2.85.98-2.85,2.44-2.85,2.44,1.19,2.44,2.85h0ZM1270.59,176.63l-.64-1.81c-.69.43-1.55.68-2.3.68-1.72,0-2.79-1.05-2.79-2.76s1.07-2.77,2.79-2.77c.75,0,1.52.24,2.2.62l.65-1.81c-.83-.49-1.81-.8-2.88-.8-3,0-5.04,2.02-5.04,4.76s2.04,4.75,5.04,4.75c1.06,0,2.16-.33,2.97-.86h0ZM1279.84,177.33v-1.95h-3.69v-7.27h-2.14v9.21h5.83ZM1285.41,177.33v-9.21h-2.14v9.21h2.14ZM1295.31,174.62c0-1.18-.52-2.01-2.24-2.74-1.16-.49-1.62-.69-1.62-1.29,0-.38.31-.74,1.09-.74.65,0,1.51.39,2.04.75l.54-1.91c-.54-.36-1.57-.72-2.58-.72-2.15,0-3.24,1.31-3.24,2.65,0,1.11.57,2.05,2.19,2.7,1.41.56,1.65.89,1.65,1.37s-.29.8-1.04.8c-.87,0-1.83-.35-2.58-.89l-.59,1.94c.8.53,2.06.94,3.1.94,2.21,0,3.28-1.4,3.28-2.87h0ZM1305.56,174.72c0-1.05-.59-1.78-1.85-2.16,1.04-.43,1.58-1.08,1.58-2.05,0-1.28-1.36-2.47-4.03-2.47-.75,0-1.91.1-2.58.2v9c.9.11,1.95.19,2.75.19,2.77,0,4.12-1.27,4.12-2.7h.01ZM1303.1,170.9c0,.67-.51,1.04-1.55,1.04-.39,0-.55-.01-.79-.04v-1.92c.3-.05.58-.09.97-.09.9,0,1.37.45,1.37,1.01h0ZM1303.25,174.49c0,.69-.52,1.1-1.6,1.1-.43,0-.59-.01-.89-.04v-2.13c.21-.03.48-.04.8-.04,1.13,0,1.69.4,1.69,1.11h0ZM1318.17,172.73c0-2.72-1.84-4.76-4.68-4.76s-4.76,2.05-4.76,4.76,1.82,4.75,4.68,4.75,4.76-2.05,4.76-4.75h0ZM1315.88,172.73c0,1.65-.98,2.85-2.44,2.85s-2.44-1.21-2.44-2.85.98-2.85,2.44-2.85,2.44,1.19,2.44,2.85h0ZM1329.08,177.33l-4.34-9.29h-.29l-4.34,9.29h2.17l.69-1.67h3.18l.69,1.67h2.24ZM1325.48,174.03h-1.82l.92-2.21.9,2.21h0Z"/>
    <path d="M1402.06,43.6c1.6-2.77,3.18-13.96,3.18-13.96,0,0-8.9,6.96-10.5,9.73-1.6,2.78-2.02,5.54.76,7.14s4.96-.14,6.56-2.91h0ZM1394.88,21.53c1.1-3.01.71-14.3.71-14.3,0,0-7.55,8.4-8.65,11.41s-1.02,5.8,1.99,6.9,4.86-1,5.96-4.01h0ZM1378.98,15.49c1.32-1.67.76-3.9-.63-6.13-1.7-2.72-10.83-9.36-10.83-9.36,0,0,1.97,11.13,3.67,13.84,1.36,2.17,3.07,3.64,5.09,3.28,9.53,14.02,15.26,31.48,15.26,50.48,0,46.06-33.26,83.39-74.28,83.39v3.42c42.71,0,77.33-38.87,77.33-86.82,0-19.59-5.85-37.59-15.6-52.12h0v.02h-.01ZM1380.56,31.56c-2.49-2.02-13.29-5.33-13.29-5.33,0,0,5.48,9.88,7.97,11.89,2.49,2.02,5.15,2.86,7.17.37s.64-4.92-1.85-6.94h0ZM1383.74,89.99c-1.79-2.66-11.16-8.98-11.16-8.98,0,0,2.36,11.05,4.15,13.71s4.09,4.24,6.75,2.45c2.66-1.79,2.05-4.52.26-7.17h0ZM1387.55,58.25c2.23-2.3,1.07-4.84-1.24-7.07-2.3-2.23-12.78-6.47-12.78-6.47,0,0,4.6,10.32,6.91,12.54,2.31,2.23,4.88,3.29,7.11.99h0ZM1387.02,70.09c-2.14-2.38-12.3-7.34-12.3-7.34,0,0,3.87,10.61,6.02,13,2.14,2.38,4.64,3.63,7.02,1.48,2.38-2.14,1.4-4.76-.74-7.14h0ZM1366.27,96.92s.4,11.29,1.71,14.22c1.3,2.93,3.29,4.88,6.22,3.58,2.93-1.3,2.8-4.09,1.5-7.02s-9.43-10.78-9.43-10.78h0ZM1365.95,121.45c-1.09-3.01-8.65-11.41-8.65-11.41,0,0-.39,11.29.71,14.3,1.1,3.01,2.95,5.1,5.95,4.01,3.01-1.1,3.08-3.89,1.99-6.9h0ZM1354.53,131.85c-.67-3.13-6.98-12.5-6.98-12.5,0,0-1.95,11.13-1.29,14.26s2.2,5.46,5.34,4.8c3.13-.67,3.59-3.42,2.93-6.55h0ZM1340.24,139.29c-.22-3.2-5.17-13.35-5.17-13.35,0,0-3.48,10.75-3.26,13.95s1.42,5.72,4.62,5.49c3.2-.22,4.03-2.89,3.81-6.08h0ZM1250.74,154.43v-3.42c-41.03,0-74.28-37.34-74.28-83.39,0-19,5.73-36.46,15.26-50.48,2.02.35,3.73-1.11,5.09-3.28,1.7-2.72,3.67-13.84,3.67-13.84,0,0-9.14,6.65-10.83,9.36-1.39,2.22-1.95,4.45-.63,6.13-9.75,14.53-15.6,32.53-15.6,52.12,0,47.95,34.62,86.81,77.33,86.82h0v-.02h-.01ZM1236.17,139.88c.22-3.2-3.26-13.95-3.26-13.95,0,0-4.95,10.16-5.17,13.35-.22,3.2.61,5.86,3.81,6.08,3.2.22,4.4-2.3,4.62-5.49h0ZM1221.72,133.61c.67-3.13-1.29-14.26-1.29-14.26,0,0-6.31,9.37-6.98,12.5-.67,3.13-.21,5.89,2.93,6.55,3.13.67,4.67-1.66,5.34-4.8h0ZM1209.97,124.35c1.1-3.01.71-14.3.71-14.3,0,0-7.55,8.4-8.65,11.41s-1.02,5.8,1.99,6.9,4.86-1,5.95-4.01h0ZM1200.01,111.14c1.3-2.93,1.7-14.22,1.7-14.22,0,0-8.12,7.85-9.43,10.78-1.3,2.93-1.43,5.71,1.5,7.02,2.93,1.3,4.92-.65,6.22-3.58h.01ZM1185.57,38.49c2.02,2.49,4.68,1.65,7.17-.37s7.97-11.89,7.97-11.89c0,0-10.8,3.31-13.29,5.33s-3.87,4.45-1.85,6.94h0ZM1181.67,51.18c-2.31,2.23-3.46,4.77-1.24,7.07,2.23,2.3,4.8,1.24,7.11-.99,2.3-2.23,6.91-12.54,6.91-12.54,0,0-10.47,4.24-12.78,6.47h0ZM1184.25,89.99c-1.79,2.66-2.4,5.38.26,7.17s4.96.21,6.75-2.45,4.15-13.71,4.15-13.71c0,0-9.36,6.32-11.15,8.98h-.01ZM1180.22,77.23c2.38,2.14,4.88.9,7.02-1.48s6.01-13,6.01-13c0,0-10.15,4.96-12.3,7.34-2.14,2.38-3.12,5-.74,7.14h.01ZM1181.04,18.64c-1.1-3.01-8.65-11.41-8.65-11.41,0,0-.39,11.29.71,14.3,1.1,3.01,2.94,5.1,5.96,4.01,3.01-1.1,3.08-3.89,1.99-6.9h0ZM1173.24,39.37c-1.6-2.77-10.5-9.73-10.5-9.73,0,0,1.58,11.19,3.18,13.96,1.6,2.78,3.79,4.52,6.56,2.91,2.77-1.6,2.36-4.36.76-7.14h0ZM1169.71,62.63c-2.06-2.45-12.03-7.77-12.03-7.77,0,0,3.5,10.74,5.56,13.2,2.06,2.45,4.51,3.79,6.97,1.73,2.45-2.06,1.57-4.71-.49-7.16h-.01ZM1171.6,83.32c-2.45-2.06-13.2-5.56-13.2-5.56,0,0,5.31,9.97,7.77,12.03,2.45,2.06,5.1,2.95,7.16.49,2.06-2.45.73-4.91-1.73-6.97h0ZM1176.72,104.03c-2.77-1.6-13.96-3.18-13.96-3.18,0,0,6.96,8.9,9.74,10.5s5.54,2.02,7.14-.76-.14-4.96-2.91-6.56h-.01ZM1169.51,123.18s9.59,5.98,12.74,6.54c3.16.56,5.89,0,6.45-3.15.56-3.16-1.82-4.61-4.98-5.17s-14.21,1.79-14.21,1.79h0ZM1195.01,136.62c-3.16.56-12.74,6.54-12.74,6.54,0,0,11.05,2.34,14.21,1.79,3.16-.56,5.54-2.01,4.98-5.17s-3.29-3.71-6.45-3.16h0ZM1201.03,160.38s11.19-1.58,13.96-3.18c2.78-1.6,4.51-3.79,2.91-6.56s-4.36-2.36-7.14-.76c-2.77,1.6-9.74,10.5-9.74,10.5h.01ZM1350.08,150.64c-1.6,2.78.14,4.96,2.91,6.56s13.96,3.18,13.96,3.18c0,0-6.96-8.9-9.74-10.5-2.77-1.6-5.53-2.01-7.14.76h.01ZM1371.5,144.94c3.16.56,14.21-1.79,14.21-1.79,0,0-9.59-5.98-12.74-6.54s-5.89,0-6.45,3.16c-.56,3.16,1.82,4.61,4.98,5.17h0ZM1385.73,129.72c3.15-.56,12.74-6.54,12.74-6.54,0,0-11.05-2.34-14.21-1.79-3.16.56-5.54,2.01-4.98,5.17s3.29,3.71,6.45,3.15h0ZM1405.23,100.85s-11.19,1.58-13.96,3.18-4.51,3.79-2.91,6.56,4.36,2.36,7.14.76c2.77-1.6,9.74-10.5,9.74-10.5h-.01ZM1401.82,89.79c2.45-2.06,7.77-12.03,7.77-12.03,0,0-10.74,3.5-13.2,5.56s-3.79,4.51-1.73,6.97,4.71,1.57,7.16-.49h0ZM1404.75,68.06c2.06-2.45,5.56-13.2,5.56-13.2,0,0-9.97,5.31-12.03,7.77-2.06,2.45-2.95,5.1-.49,7.16s4.91.72,6.97-1.73h-.01Z"/>
    <path d="M1268.79,151.85c1.41-2.1,2.38-3.73,2.38-6.56,0-3.45-1.6-5.36-4.77-5.36s-4.67,2.2-4.67,5.87v1.6h2.76v-1.76c0-2.2.47-3.36,1.91-3.36s1.94,1.25,1.94,3.01c0,2.26-.82,3.7-2.13,5.77l-4.58,6.87v2.01h9.66v-2.51h-6.21l3.7-5.58h.01ZM1284.51,148.59c0-5.52-1.41-8.66-5.18-8.66s-5.18,3.14-5.18,8.66v2.95c0,5.52,1.41,8.66,5.18,8.66s5.18-3.14,5.18-8.66v-2.95h0ZM1277.14,147.21c0-3.04.5-4.89,2.2-4.89s2.2,1.85,2.2,4.89v5.71c0,3.04-.5,4.89-2.2,4.89s-2.2-1.85-2.2-4.89v-5.71h0ZM1287.22,144.95h2.35v14.99h2.92v-19.89h-1.94c-.56,2.13-1,2.98-3.33,3.01v1.88h0ZM1300.57,160.2c3.8,0,5.18-3.11,5.18-8.63v-3.07c0-5.46-1.32-8.56-5.08-8.56-3.45,0-4.93,2.79-4.93,6.37s1.41,6.18,4.24,6.18c1.41,0,2.48-.78,2.95-1.85v2.1c0,3.14-.6,5.08-2.26,5.08-1.44,0-2.01-1.35-2.01-3.61v-.88h-2.67v.88c0,3.61,1.44,5.99,4.58,5.99h0ZM1302.9,146.3c0,2.48-.66,3.98-2.16,3.98s-2.2-1.51-2.2-3.98.69-4.02,2.2-4.02,2.16,1.54,2.16,4.02h0Z"/>
    <path d="M1235.34,111.56v-7.58h1.03c1.56,0,2.36.71,2.36,2.95v1.68c0,2.23-.81,2.95-2.36,2.95h-1.03ZM1232.87,113.54h3.71c3.2,0,4.65-1.9,4.65-5.43v-.66c0-3.53-1.44-5.43-4.65-5.43h-3.71v11.53h0ZM1246.25,111.89c-.88,0-1.26-.73-1.26-1.9v-1.01c0-1.17.38-1.9,1.26-1.9s1.26.73,1.26,1.9v1.01c0,1.17-.38,1.9-1.26,1.9h0ZM1246.25,113.7c2.23,0,3.59-1.57,3.59-4.06v-.31c0-2.49-1.35-4.06-3.59-4.06s-3.59,1.57-3.59,4.06v.31c0,2.49,1.35,4.06,3.59,4.06h0ZM1251.13,109.64c0,2.49,1.32,4.06,3.53,4.06s3.27-1.48,3.27-3.49v-.2h-2.14v.16c0,1.01-.29,1.7-1.14,1.7s-1.21-.73-1.21-1.89v-1.01c0-1.17.35-1.9,1.21-1.9s1.14.71,1.14,1.72v.15h2.14v-.18c0-2.01-1.13-3.49-3.27-3.49s-3.53,1.57-3.53,4.06v.31h0ZM1259.3,104.32h1.15c-.02.75-.37.97-1.15,1.01v1.17c1.74-.04,2.52-.75,2.52-2.29v-2.19h-2.52v2.3h0ZM1262.55,110.87c.07,1.81,1.37,2.83,3.35,2.83s3.13-.95,3.13-2.54c0-1.35-.79-2.03-2.27-2.43l-1.15-.31c-.51-.16-.81-.33-.81-.79s.37-.71.92-.71c.82,0,1.19.51,1.19,1.24h1.97c-.02-1.67-1.06-2.89-3.18-2.89-1.81,0-3,1.06-3,2.56s.8,2.12,2.16,2.47l1.25.31c.55.15.81.31.81.73,0,.48-.4.71-1.01.71-.77,0-1.3-.38-1.35-1.19h-2.01,0ZM1283.46,113.54l-3.51-6.46,3.29-5.07h-2.62l-3.4,5.38v-5.38h-2.47v11.53h2.47v-3.35l.86-1.37,2.62,4.72h2.76ZM1284.84,105.43v8.1h2.34v-8.1h-2.34ZM1284.84,104.44h2.34v-2.25h-2.34v2.25h0ZM1291.5,108.98c0-1.01.35-1.79,1.26-1.79.84,0,1.06.6,1.06,1.54v4.81h2.34v-5.56c0-1.59-.77-2.71-2.49-2.71-1.06,0-1.83.51-2.18,1.15v-.99h-2.34v8.1h2.34v-4.56h.01ZM1304.34,107.94c0-.4-.09-.79-.26-1.12.33-.09.71-.15,1.02-.15v-1.83c-.71,0-1.43.42-1.83,1.04-.57-.4-1.32-.62-2.18-.62-1.83,0-3.22,1-3.22,2.67v.22c0,.86.38,1.56,1,2.01-.71.38-1.08.86-1.08,1.56s.36,1.24.93,1.44c-.84.13-1.37.71-1.37,1.47,0,1.44,1.59,2.02,3.64,2.02,2.31,0,4.12-.88,4.12-2.84,0-1.44-.84-2.28-2.6-2.28h-2.25c-.44,0-.64-.23-.64-.55,0-.15.04-.26.11-.37.4.15.86.2,1.36.2,1.85,0,3.24-1.02,3.24-2.67v-.22h0v.02h0ZM1299.36,114.3c0-.47.29-.76.91-.76h1.89c.53,0,.88.22.88.71,0,.65-.79.94-2.03.94-1.08,0-1.65-.33-1.65-.89h0ZM1300.13,107.96c0-.71.31-1.19.97-1.19s.99.48.99,1.19v.18c0,.71-.31,1.19-.99,1.19s-.97-.48-.97-1.19v-.18h0ZM1308.38,109.11c0-1.3.46-2,1.34-2s1.32.7,1.32,1.7v1.34c0,1.01-.48,1.68-1.32,1.68s-1.34-.68-1.34-1.98v-.75h0ZM1311.04,113.54h2.34v-11.53h-2.34v4.43c-.4-.68-1.08-1.17-2.14-1.17-1.85,0-2.83,1.43-2.83,3.93v.57c0,2.51.99,3.93,2.83,3.93,1.06,0,1.74-.49,2.14-1.17v1.01h0ZM1318.62,111.89c-.88,0-1.26-.73-1.26-1.9v-1.01c0-1.17.39-1.9,1.26-1.9s1.27.73,1.27,1.9v1.01c0,1.17-.39,1.9-1.27,1.9h0ZM1318.62,113.7c2.23,0,3.59-1.57,3.59-4.06v-.31c0-2.49-1.35-4.06-3.59-4.06s-3.58,1.57-3.58,4.06v.31c0,2.49,1.35,4.06,3.58,4.06h0ZM1330.72,108.95c0-.88.24-1.76,1.16-1.76.82,0,1.01.6,1.01,1.5v4.85h2.34v-5.62c0-1.48-.66-2.65-2.47-2.65-1.12,0-1.85.53-2.29,1.17-.35-.62-1.01-1.17-2.16-1.17-.97,0-1.76.48-2.11,1.15v-.99h-2.34v8.1h2.34v-4.59c0-.88.26-1.76,1.17-1.76.82,0,1.01.6,1.01,1.5v4.85h2.34v-4.59h0Z"/>
    <path d="M1230.1,79.76v-3.66h1.1c1.21,0,1.83.49,1.83,1.83s-.62,1.83-1.83,1.83h-1.1ZM1230.1,81.72h1.3c2.73,0,4.01-1.35,4.01-3.81s-1.28-3.79-4.01-3.79h-3.75v11.53h2.45v-3.93h0ZM1240.08,84.01c-.88,0-1.26-.73-1.26-1.9v-1.01c0-1.17.38-1.9,1.26-1.9s1.26.73,1.26,1.9v1.01c0,1.17-.38,1.9-1.26,1.9h0ZM1240.08,85.82c2.23,0,3.59-1.57,3.59-4.06v-.31c0-2.49-1.35-4.06-3.59-4.06s-3.59,1.57-3.59,4.06v.31c0,2.49,1.35,4.06,3.59,4.06h0ZM1250.33,77.58c-.2-.11-.46-.14-.77-.14-.9,0-1.59.4-1.9,1.39v-1.28h-2.34v8.1h2.34v-4.14c0-1.35.57-1.94,1.65-1.94.33,0,.59.04.91.13l.11-2.12h0ZM1252.21,83.55c0,1.63.99,2.23,2.18,2.23.77,0,1.39-.18,2.01-.6v-1.63c-.49.24-.81.35-1.17.35-.48,0-.71-.26-.71-.81v-3.9h1.68v-1.64h-1.68v-2.21h-1.41l-.26,1.08c-.18.75-.44,1.13-1.21,1.3l-.35.07v1.41h.91v4.36h0ZM1262.38,82.07c0,1.04-.31,1.81-1.21,1.81-.84,0-1.06-.6-1.06-1.52v-4.81h-2.32v5.56c0,1.57.73,2.71,2.45,2.71,1.06,0,1.81-.51,2.14-1.15v.99h2.34v-8.1h-2.34v4.52h0ZM1272.99,80.06c0-.4-.09-.79-.26-1.12.33-.09.71-.15,1.02-.15v-1.83c-.71,0-1.43.42-1.83,1.04-.57-.4-1.32-.62-2.18-.62-1.83,0-3.22,1-3.22,2.67v.22c0,.86.38,1.56,1.01,2.01-.71.38-1.08.86-1.08,1.56s.37,1.24.93,1.44c-.84.13-1.37.71-1.37,1.47,0,1.44,1.59,2.02,3.64,2.02,2.31,0,4.12-.88,4.12-2.84,0-1.44-.84-2.28-2.6-2.28h-2.25c-.44,0-.64-.23-.64-.55,0-.15.04-.26.11-.37.4.15.86.2,1.35.2,1.85,0,3.24-1.02,3.24-2.67v-.22h0v.02h0ZM1268.01,86.42c0-.47.29-.76.92-.76h1.89c.53,0,.88.22.88.71,0,.65-.79.94-2.03.94-1.08,0-1.65-.33-1.65-.89h-.01ZM1268.78,80.07c0-.71.31-1.19.97-1.19s.99.48.99,1.19v.18c0,.71-.31,1.19-.99,1.19s-.97-.48-.97-1.19v-.18h0ZM1279.64,82.07c0,1.04-.31,1.81-1.21,1.81-.84,0-1.06-.6-1.06-1.52v-4.81h-2.32v5.56c0,1.57.73,2.71,2.45,2.71,1.06,0,1.81-.51,2.14-1.15v.99h2.34v-8.1h-2.34v4.52h0ZM1287.26,85.82c2.01,0,3.13-1.17,3.27-3.09h-2.08c-.02.82-.4,1.26-1.17,1.26-.9,0-1.36-.64-1.36-1.91h4.67v-.64c0-2.49-1.1-4.06-3.42-4.06-2.14,0-3.49,1.57-3.49,4.06v.31c0,2.49,1.35,4.06,3.59,4.06h-.01ZM1285.92,80.79c0-1.03.46-1.58,1.25-1.58s1.23.55,1.23,1.58h-2.48ZM1291.79,82.98c.07,1.81,1.37,2.83,3.35,2.83s3.13-.95,3.13-2.54c0-1.35-.79-2.03-2.27-2.43l-1.15-.31c-.51-.16-.81-.33-.81-.79s.37-.71.92-.71c.82,0,1.19.51,1.19,1.24h1.97c-.02-1.67-1.06-2.89-3.18-2.89-1.81,0-3,1.06-3,2.56s.8,2.12,2.16,2.47l1.25.31c.55.15.81.31.81.73,0,.48-.4.71-1.01.71-.77,0-1.3-.38-1.36-1.19h-2,0ZM1303.11,85.82c2.01,0,3.13-1.17,3.27-3.09h-2.08c-.02.82-.4,1.26-1.17,1.26-.9,0-1.36-.64-1.36-1.91h4.67v-.64c0-2.49-1.1-4.06-3.42-4.06-2.14,0-3.49,1.57-3.49,4.06v.31c0,2.49,1.35,4.06,3.59,4.06h-.01ZM1301.77,80.79c0-1.03.46-1.58,1.25-1.58s1.23.55,1.23,1.58h-2.48ZM1314.64,85.65v-4.59h3.37v-1.99h-3.37v-2.91h4.26v-2.03h-6.71v11.53h2.45ZM1320.44,77.55v8.1h2.34v-8.1h-2.34ZM1320.44,76.56h2.34v-2.25h-2.34v2.25h0ZM1324.76,74.13v11.53h2.34v-11.53h-2.34ZM1335.94,81.06c0-.88.24-1.76,1.15-1.76.82,0,1.01.6,1.01,1.5v4.85h2.34v-5.62c0-1.48-.66-2.65-2.47-2.65-1.12,0-1.85.53-2.29,1.17-.35-.62-1.01-1.17-2.16-1.17-.97,0-1.76.48-2.11,1.15v-.99h-2.34v8.1h2.34v-4.59c0-.88.26-1.76,1.17-1.76.82,0,1.01.6,1.01,1.5v4.85h2.34v-4.59h.01Z"/>
    <path d="M1216.86,56.76c-.35-.15-.82-.26-1.46-.26-1.85,0-2.71,1.02-2.71,2.74v.88h-.97v1.64h.97v6.46h2.32v-6.46h1.41v-1.64h-1.41v-.9c0-.6.24-.92.79-.92.33,0,.57.07.86.18l.2-1.74h0v.02h0ZM1221,66.58c-.88,0-1.26-.73-1.26-1.9v-1.01c0-1.17.38-1.9,1.26-1.9s1.26.73,1.26,1.9v1.01c0,1.17-.38,1.9-1.26,1.9h0ZM1221,68.39c2.23,0,3.59-1.57,3.59-4.06v-.31c0-2.49-1.35-4.06-3.59-4.06s-3.59,1.57-3.59,4.06v.31c0,2.49,1.35,4.06,3.59,4.06h0ZM1231.25,60.16c-.2-.11-.46-.14-.77-.14-.9,0-1.59.4-1.9,1.39v-1.28h-2.34v8.1h2.34v-4.14c0-1.35.57-1.94,1.65-1.94.33,0,.59.04.91.13l.11-2.12h0ZM1244.43,65.04c0-1.63-.97-2.53-2.32-2.76,1.22-.22,2.01-1.1,2.01-2.47,0-1.87-1.01-3.11-3.66-3.11h-3.77v11.53h3.79c2.71,0,3.95-1.17,3.95-3.18h0ZM1240.35,63.3c1.3,0,1.7.57,1.7,1.48s-.4,1.47-1.68,1.47h-1.34v-2.95h1.32ZM1239.03,58.66h1.12c1.26,0,1.59.6,1.59,1.43,0,.77-.33,1.36-1.59,1.36h-1.12v-2.78h0ZM1249.36,68.39c2.01,0,3.13-1.17,3.27-3.09h-2.08c-.02.82-.4,1.26-1.17,1.26-.9,0-1.36-.64-1.36-1.91h4.67v-.64c0-2.49-1.1-4.06-3.42-4.06-2.14,0-3.49,1.57-3.49,4.06v.31c0,2.49,1.35,4.06,3.59,4.06h-.01ZM1248.02,63.36c0-1.03.46-1.58,1.25-1.58s1.23.55,1.23,1.58h-2.48ZM1253.89,65.56c.07,1.81,1.37,2.83,3.35,2.83s3.13-.95,3.13-2.54c0-1.35-.79-2.03-2.27-2.43l-1.15-.31c-.51-.16-.81-.33-.81-.79s.37-.71.92-.71c.82,0,1.19.51,1.19,1.25h1.97c-.02-1.67-1.06-2.89-3.18-2.89-1.81,0-3,1.06-3,2.56s.8,2.12,2.16,2.47l1.25.31c.55.15.81.31.81.73,0,.48-.4.71-1.01.71-.77,0-1.3-.38-1.35-1.19h-2.01,0ZM1262.28,66.12c0,1.63.99,2.23,2.18,2.23.77,0,1.39-.18,2.01-.6v-1.63c-.49.24-.81.35-1.17.35-.48,0-.71-.26-.71-.81v-3.9h1.68v-1.64h-1.68v-2.21h-1.41l-.26,1.08c-.18.75-.44,1.13-1.21,1.3l-.35.07v1.41h.91v4.36h0ZM1275.85,68.43c1.25,0,2.12-.49,2.45-1.37l.2,1.17h1.81v-5.82h-3.82v1.79h1.48v.15c0,1.32-.6,2.05-1.67,2.05-1.32,0-2.01-1.01-2.01-3.06v-1.76c0-2.05.64-3.04,1.87-3.04s1.78.93,1.78,2.67v.13h2.34v-.13c0-2.84-1.28-4.72-4.13-4.72s-4.37,2.16-4.37,5.58v.82c0,3.4,1.44,5.52,4.08,5.52h0v.02h0ZM1287.37,60.16c-.2-.11-.46-.14-.77-.14-.9,0-1.59.4-1.9,1.39v-1.28h-2.34v8.1h2.34v-4.14c0-1.35.57-1.94,1.65-1.94.33,0,.59.04.91.13l.11-2.12h0ZM1291.96,68.39c2.01,0,3.13-1.17,3.27-3.09h-2.08c-.02.82-.4,1.26-1.17,1.26-.9,0-1.36-.64-1.36-1.91h4.67v-.64c0-2.49-1.1-4.06-3.42-4.06-2.14,0-3.49,1.57-3.49,4.06v.31c0,2.49,1.35,4.06,3.59,4.06h-.01ZM1290.62,63.36c0-1.03.46-1.58,1.25-1.58s1.23.55,1.23,1.58h-2.48ZM1300.2,68.39c2.01,0,3.13-1.17,3.27-3.09h-2.08c-.02.82-.4,1.26-1.17,1.26-.9,0-1.35-.64-1.35-1.91h4.67v-.64c0-2.49-1.1-4.06-3.42-4.06-2.14,0-3.49,1.57-3.49,4.06v.31c0,2.49,1.35,4.06,3.59,4.06h-.02ZM1298.86,63.36c0-1.03.46-1.58,1.24-1.58s1.23.55,1.23,1.58h-2.47ZM1307.54,63.67c0-1.01.35-1.79,1.26-1.79.84,0,1.06.6,1.06,1.54v4.81h2.34v-5.56c0-1.59-.77-2.71-2.49-2.71-1.06,0-1.83.51-2.18,1.15v-.99h-2.34v8.1h2.34v-4.56h.01ZM1322.23,61.44l-2.12-4.74h-2.56l3.4,7.39v4.13h2.38v-4.13l3.4-7.39h-2.47l-2.03,4.74h0ZM1330.21,68.39c2.01,0,3.13-1.17,3.27-3.09h-2.08c-.02.82-.4,1.26-1.17,1.26-.9,0-1.36-.64-1.36-1.91h4.67v-.64c0-2.49-1.1-4.06-3.42-4.06-2.14,0-3.49,1.57-3.49,4.06v.31c0,2.49,1.35,4.06,3.58,4.06h0ZM1328.88,63.36c0-1.03.46-1.58,1.25-1.58s1.23.55,1.23,1.58h-2.48ZM1339.11,65.14c0,.93-.51,1.54-1.34,1.54-.49,0-.79-.24-.79-.71,0-.51.33-.75.82-.95l1.3-.59v.71h.01ZM1341.36,62.98c0-1.99-.99-3.02-3.13-3.02s-3.18,1.22-3.18,2.91v.24h2.08v-.24c0-.7.33-1.12,1.01-1.12s.97.44.97,1.12v.18l-2.33.86c-.93.37-2.03.88-2.03,2.34,0,1.24.82,2.08,2.25,2.08,1.06,0,1.87-.53,2.2-1.24.18.88.88,1.24,1.68,1.24.53,0,.91-.15,1.26-.37v-1.41c-.18.05-.29.07-.44.07-.24,0-.35-.13-.35-.38v-3.28h0v.02h.01ZM1348.57,60.16c-.2-.11-.46-.14-.77-.14-.9,0-1.59.4-1.9,1.39v-1.28h-2.34v8.1h2.34v-4.14c0-1.35.57-1.94,1.65-1.94.33,0,.59.04.91.13l.11-2.12h0ZM1349.53,65.56c.07,1.81,1.37,2.83,3.35,2.83s3.13-.95,3.13-2.54c0-1.35-.79-2.03-2.27-2.43l-1.15-.31c-.51-.16-.81-.33-.81-.79s.37-.71.92-.71c.82,0,1.19.51,1.19,1.25h1.97c-.02-1.67-1.06-2.89-3.18-2.89-1.81,0-3,1.06-3,2.56s.81,2.12,2.16,2.47l1.25.31c.55.15.81.31.81.73,0,.48-.4.71-1.01.71-.77,0-1.3-.38-1.36-1.19h-2,0Z"/>
    <path d="M1217.92,44.91v-3.66h1.1c1.21,0,1.83.49,1.83,1.83s-.62,1.83-1.83,1.83h-1.1ZM1217.92,46.87h1.3c2.73,0,4.01-1.35,4.01-3.8s-1.28-3.79-4.01-3.79h-3.75v11.53h2.45v-3.93h0ZM1227.9,50.96c2.01,0,3.13-1.17,3.27-3.09h-2.08c-.02.82-.4,1.26-1.17,1.26-.9,0-1.36-.64-1.36-1.91h4.67v-.64c0-2.49-1.1-4.06-3.42-4.06-2.14,0-3.49,1.57-3.49,4.06v.31c0,2.49,1.35,4.06,3.59,4.06h-.01ZM1226.56,45.93c0-1.03.46-1.58,1.25-1.58s1.23.55,1.23,1.58h-2.48ZM1234.91,46.37c0-1.3.46-2,1.34-2s1.32.7,1.32,1.7v1.34c0,1.01-.48,1.68-1.32,1.68s-1.34-.68-1.34-1.98v-.75h0ZM1237.56,50.8h2.34v-11.53h-2.34v4.43c-.4-.68-1.08-1.17-2.14-1.17-1.85,0-2.83,1.43-2.83,3.93v.57c0,2.51.99,3.93,2.83,3.93,1.06,0,1.74-.49,2.14-1.17v1.01h0ZM1246.9,42.73c-.2-.11-.46-.14-.77-.14-.9,0-1.59.4-1.9,1.39v-1.28h-2.34v8.1h2.34v-4.14c0-1.35.57-1.94,1.65-1.94.33,0,.59.04.91.13l.11-2.12h0ZM1251.49,49.16c-.88,0-1.26-.73-1.26-1.9v-1.01c0-1.17.38-1.9,1.26-1.9s1.26.73,1.26,1.9v1.01c0,1.17-.38,1.9-1.26,1.9h0ZM1251.49,50.96c2.23,0,3.59-1.57,3.59-4.06v-.31c0-2.49-1.35-4.06-3.59-4.06s-3.59,1.57-3.59,4.06v.31c0,2.49,1.35,4.06,3.59,4.06h0ZM1263.28,50.8v-4.59h3.37v-1.99h-3.37v-2.91h4.26v-2.03h-6.71v11.53h2.45ZM1272.04,49.16c-.88,0-1.26-.73-1.26-1.9v-1.01c0-1.17.38-1.9,1.26-1.9s1.26.73,1.26,1.9v1.01c0,1.17-.38,1.9-1.26,1.9h0ZM1272.04,50.96c2.23,0,3.59-1.57,3.59-4.06v-.31c0-2.49-1.35-4.06-3.59-4.06s-3.59,1.57-3.59,4.06v.31c0,2.49,1.35,4.06,3.59,4.06h0ZM1282.29,42.73c-.2-.11-.46-.14-.77-.14-.9,0-1.59.4-1.9,1.39v-1.28h-2.34v8.1h2.34v-4.14c0-1.35.57-1.94,1.65-1.94.33,0,.59.04.91.13l.11-2.12h0ZM1284.17,48.7c0,1.63.99,2.23,2.18,2.23.77,0,1.39-.18,2.01-.6v-1.63c-.49.24-.81.35-1.17.35-.48,0-.71-.26-.71-.81v-3.9h1.68v-1.64h-1.68v-2.21h-1.41l-.26,1.08c-.18.75-.44,1.13-1.21,1.3l-.35.07v1.41h.91v4.36h0ZM1293.07,50.96c2.01,0,3.13-1.17,3.27-3.09h-2.08c-.02.82-.4,1.26-1.17,1.26-.9,0-1.36-.64-1.36-1.91h4.67v-.64c0-2.49-1.1-4.06-3.42-4.06-2.14,0-3.49,1.57-3.49,4.06v.31c0,2.49,1.35,4.06,3.59,4.06h-.01ZM1291.73,45.93c0-1.03.46-1.58,1.25-1.58s1.23.55,1.23,1.58h-2.48ZM1297.6,48.13c.07,1.81,1.37,2.83,3.35,2.83s3.13-.95,3.13-2.54c0-1.35-.79-2.03-2.27-2.43l-1.15-.31c-.51-.16-.81-.33-.81-.79s.37-.71.92-.71c.82,0,1.19.51,1.19,1.24h1.97c-.02-1.67-1.06-2.89-3.18-2.89-1.81,0-3,1.06-3,2.56s.81,2.12,2.16,2.47l1.25.31c.55.15.81.31.81.73,0,.48-.4.71-1.01.71-.77,0-1.3-.38-1.36-1.19h-2,0ZM1312.39,39.27l-3.31,11.53h2.29l.73-2.65h3.37l.71,2.65h2.49l-3.31-11.53h-2.97,0ZM1313.76,42.09h.07l1.1,4.12h-2.3l1.13-4.12h0ZM1325.35,42.7h-1.81l-1.08,4.78h-.07l-1.12-4.78h-2.27l2.09,8.1h2.1l1.12-5.03h.07l1.12,5.03h2.1l2.09-8.1h-2.05l-1.12,4.78h-.07l-1.1-4.78h0ZM1334.77,47.71c0,.93-.51,1.54-1.34,1.54-.49,0-.79-.24-.79-.71,0-.51.33-.75.82-.95l1.3-.59v.71h.01ZM1337.02,45.55c0-1.99-.99-3.02-3.13-3.02s-3.18,1.22-3.18,2.91v.24h2.08v-.24c0-.7.33-1.12,1.01-1.12s.97.44.97,1.12v.18l-2.33.86c-.93.37-2.03.88-2.03,2.34,0,1.24.82,2.08,2.25,2.08,1.06,0,1.87-.53,2.2-1.24.18.88.88,1.24,1.68,1.24.53,0,.91-.15,1.26-.37v-1.41c-.18.05-.29.07-.44.07-.24,0-.35-.13-.35-.38v-3.28h0v.02h.01ZM1344.23,42.73c-.2-.11-.46-.14-.77-.14-.9,0-1.59.4-1.9,1.39v-1.28h-2.34v8.1h2.34v-4.14c0-1.35.57-1.94,1.65-1.94.33,0,.59.04.91.13l.11-2.12h0ZM1347.59,46.37c0-1.3.46-2,1.34-2s1.32.7,1.32,1.7v1.34c0,1.01-.48,1.68-1.32,1.68s-1.34-.68-1.34-1.98v-.75h0ZM1350.25,50.8h2.34v-11.53h-2.34v4.43c-.4-.68-1.08-1.17-2.14-1.17-1.85,0-2.83,1.43-2.83,3.93v.57c0,2.51.99,3.93,2.83,3.93,1.06,0,1.74-.49,2.14-1.17v1.01h0Z"/>
    <line stroke="currentColor" x1="1261.88" y1="93.93" x2="1306.1" y2="93.93"/>
  </g>
</svg>