<?xml version="1.0" encoding="UTF-8"?>
<svg id="Camada_1" data-name="Camada 1" xmlns="http://www.w3.org/2000/svg" xmlns:xlink="http://www.w3.org/1999/xlink" viewBox="0 0 1442.21 1001.93">
  <defs>
    <style>
      .cls-1 {
        fill: none;
      }

      .cls-2 {
        clip-path: url(#clippath);
      }
    </style>
    <clipPath id="clippath">
      <rect class="cls-1" width="465.31" height="309.19"/>
    </clipPath>
  </defs>
  <g>
    <path d="M150.25,462.63c0-55.4,42.97-93.23,98.64-93.23s98.64,37.83,98.64,93.23-42.97,93.23-98.64,93.23-98.64-37.83-98.64-93.23M292.13,462.63c0-25.13-17.02-45.13-43.24-45.13s-43.23,20-43.23,45.13,17.02,45.13,43.23,45.13,43.24-20,43.24-45.13"/>
    <path d="M466.14,552.62l-24.86-56.75h-19.73v56.75h-54.59v-180.25h96.21c42.15,0,64.86,28.11,64.86,61.88,0,31.08-18.11,47.56-32.43,54.59l32.7,63.78h-62.16ZM472.62,433.99c0-9.73-8.64-14.05-17.84-14.05h-33.24v28.37h33.24c9.19,0,17.84-4.32,17.84-14.32"/>
    <path d="M670.42,552.62l-6.49-21.08h-64.86l-6.49,21.08h-61.88l66.48-180.24h68.64l66.48,180.24h-61.88ZM631.5,425.88l-17.84,58.1h35.67l-17.84-58.1h.01Z"/>
    <path d="M0,765.67v-180.24h80.54c56.75,0,98.9,32.43,98.9,89.99s-42.15,90.26-98.64,90.26H0ZM124.05,675.41c0-24.32-14.06-42.43-43.24-42.43h-26.21v85.12h25.95c27.29,0,43.51-20,43.51-42.7"/>
    <path d="M311.04,765.67l-6.49-21.08h-64.86l-6.49,21.08h-61.88l66.47-180.24h68.64l66.48,180.24h-61.88.01ZM272.12,638.93l-17.83,58.1h35.67l-17.84-58.1h0Z"/>
    <path d="M451.53,765.67v-180.24h109.44c37.29,0,53.51,24.86,53.51,45.94,0,22.43-13.24,37.56-30.8,41.34,19.45,2.97,34.32,20.81,34.32,44.05,0,25.13-17.03,48.91-53.24,48.91h-113.23ZM559.09,641.09c0-6.22-5.14-10.27-10.81-10.27h-42.16v21.08h42.16c5.67,0,10.81-4.32,10.81-10.81M562.6,708.92c0-6.49-4.86-11.62-12.7-11.62h-43.78v22.97h43.78c7.84,0,12.7-4.6,12.7-11.35"/>
    <path d="M630.15,675.68c0-55.4,42.97-93.23,98.64-93.23s98.63,37.83,98.63,93.23-42.97,93.23-98.63,93.23-98.64-37.83-98.64-93.23M772.02,675.68c0-25.13-17.03-45.13-43.24-45.13s-43.24,20-43.24,45.13,17.02,45.13,43.24,45.13,43.24-20,43.24-45.13"/>
    <path d="M846.85,691.63v-106.2h55.4v104.31c0,17.3,11.35,31.08,33.78,31.08s33.51-13.78,33.51-31.08v-104.31h55.4v105.93c0,44.86-28.11,77.56-88.91,77.56s-89.18-32.7-89.18-77.29"/>
    <path d="M1109.77,809.45l8.38-17.3c7.03,4.86,14.87,8.11,22.43,8.11,5.67,0,11.35-1.89,11.35-6.49,0-2.97-2.16-4.59-5.67-4.59-2.97,0-5.4,1.35-7.02,3.24l-15.95-9.19,5.67-15.4c-49.18-5.67-84.58-41.61-84.58-92.15,0-55.67,42.7-93.23,99.18-93.23,47.29,0,71.07,27.56,81.88,52.42l-47.02,21.89c-4.59-14.05-18.65-26.21-34.86-26.21-26.21,0-43.78,20-43.78,45.13s17.56,45.13,43.78,45.13c16.21,0,30.27-12.16,34.86-26.21l47.02,21.62c-10,22.97-32.43,50-75.67,52.43l-3.52,8.65c2.7-1.62,5.67-2.43,9.19-2.43,9.73,0,18.38,8.11,18.38,19.73,0,15.4-14.59,24.05-31.89,24.05-14.32,0-26.21-4.32-32.16-9.19"/>
    <path d="M1360,765.67l-6.49-21.08h-64.86l-6.49,21.08h-61.88l66.48-180.24h68.64l66.48,180.24h-61.88ZM1321.09,638.93l-17.84,58.1h35.67l-17.84-58.1h0Z"/>
    <polygon points="0 552.62 0 372.37 136.75 372.37 136.75 419.93 54.6 419.93 54.6 437.77 134.86 437.77 134.86 485.33 54.6 485.33 54.6 552.62 0 552.62"/>
  </g>
  <g class="cls-2">
    <g>
      <path d="M329.21,40.29c1.29-2.22,2.55-11.19,2.55-11.19,0,0-7.13,5.58-8.42,7.8-1.28,2.23-1.62,4.44.61,5.72,2.22,1.28,3.97-.11,5.26-2.33h0ZM323.45,22.59c.88-2.41.57-11.47.57-11.47,0,0-6.06,6.74-6.93,9.15-.88,2.41-.82,4.65,1.59,5.53,2.41.88,3.89-.8,4.77-3.21h0ZM310.7,17.76c1.06-1.34.61-3.13-.51-4.91-1.36-2.18-8.68-7.51-8.68-7.51,0,0,1.58,8.92,2.94,11.1,1.09,1.74,2.46,2.92,4.08,2.63,7.64,11.24,12.24,25.23,12.24,40.47,0,36.92-26.66,66.85-59.55,66.85v2.74c34.24,0,61.99-31.16,61.99-69.59,0-15.7-4.69-30.14-12.5-41.78h-.01ZM311.97,30.63c-2-1.62-10.66-4.27-10.66-4.27,0,0,4.4,7.92,6.39,9.53,2,1.62,4.13,2.29,5.75.29s.51-3.94-1.48-5.56h0ZM314.52,77.48c-1.44-2.13-8.94-7.2-8.94-7.2,0,0,1.89,8.86,3.32,10.99,1.44,2.13,3.28,3.4,5.41,1.96s1.64-3.62.21-5.75h0ZM317.58,52.03c1.78-1.85.85-3.88-.99-5.67-1.85-1.78-10.24-5.18-10.24-5.18,0,0,3.69,8.27,5.54,10.06s3.91,2.64,5.7.79h-.01ZM317.15,61.52c-1.72-1.91-9.86-5.88-9.86-5.88,0,0,3.1,8.51,4.82,10.42,1.72,1.91,3.72,2.91,5.63,1.19,1.91-1.72,1.12-3.82-.59-5.72h0ZM300.52,83.03s.32,9.05,1.37,11.4,2.64,3.92,4.99,2.87c2.35-1.04,2.25-3.28,1.2-5.63s-7.56-8.64-7.56-8.64h0ZM300.26,102.7c-.88-2.41-6.93-9.15-6.93-9.15,0,0-.31,9.05.57,11.47.88,2.41,2.36,4.09,4.77,3.21,2.41-.88,2.47-3.11,1.59-5.53h0ZM291.1,111.03c-.53-2.51-5.59-10.02-5.59-10.02,0,0-1.57,8.92-1.03,11.43s1.77,4.38,4.28,3.84c2.51-.53,2.88-2.74,2.35-5.25h-.01,0ZM279.65,116.99c-.18-2.56-4.15-10.71-4.15-10.71,0,0-2.79,8.62-2.61,11.18.18,2.56,1.14,4.58,3.7,4.4,2.56-.18,3.23-2.31,3.06-4.88h0ZM287.54,126.09c-1.28,2.22.11,3.97,2.33,5.26,2.22,1.28,11.19,2.55,11.19,2.55,0,0-5.58-7.13-7.81-8.42-2.23-1.28-4.44-1.61-5.72.61h.01,0ZM304.71,121.52c2.53.45,11.39-1.43,11.39-1.43,0,0-7.68-4.79-10.21-5.24-2.53-.45-4.72,0-5.17,2.53s1.46,3.7,3.99,4.14h0ZM316.12,109.32c2.53-.45,10.21-5.24,10.21-5.24,0,0-8.86-1.88-11.39-1.43-2.53.45-4.44,1.62-3.99,4.15s2.64,2.97,5.17,2.53h0ZM331.74,86.18s-8.97,1.27-11.19,2.55c-2.22,1.28-3.62,3.03-2.33,5.26,1.28,2.22,3.5,1.89,5.72.61s7.81-8.42,7.81-8.42h-.01,0ZM329.01,77.32c1.97-1.65,6.23-9.64,6.23-9.64,0,0-8.61,2.8-10.58,4.46-1.97,1.65-3.04,3.62-1.39,5.58,1.65,1.97,3.77,1.26,5.74-.4h0ZM331.36,59.89c1.65-1.97,4.46-10.58,4.46-10.58,0,0-7.99,4.26-9.65,6.23-1.65,1.97-2.36,4.09-.39,5.74,1.97,1.65,3.93.58,5.58-1.39h0Z"/>
      <path d="M75.39,129.13v-2.74c-32.89,0-59.55-29.93-59.55-66.85,0-15.23,4.59-29.23,12.24-40.47,1.62.28,2.99-.89,4.08-2.63,1.36-2.18,2.94-11.1,2.94-11.1,0,0-7.32,5.33-8.69,7.51-1.11,1.78-1.56,3.57-.51,4.91-7.81,11.64-12.5,26.08-12.5,41.78,0,38.44,27.75,69.59,61.99,69.59h0ZM63.71,117.46c.18-2.56-2.62-11.18-2.62-11.18,0,0-3.96,8.14-4.14,10.71-.18,2.56.49,4.7,3.05,4.88,2.56.18,3.52-1.84,3.7-4.4h.01ZM52.13,112.44c.54-2.51-1.03-11.43-1.03-11.43,0,0-5.06,7.51-5.59,10.02-.53,2.51-.17,4.72,2.35,5.25,2.51.54,3.75-1.33,4.28-3.84h-.01ZM42.71,105.01c.88-2.41.57-11.47.57-11.47,0,0-6.06,6.73-6.93,9.15-.88,2.42-.82,4.65,1.59,5.53s3.89-.8,4.77-3.21h0ZM34.73,94.43c1.04-2.35,1.37-11.4,1.37-11.4,0,0-6.51,6.3-7.56,8.64-1.05,2.35-1.14,4.58,1.2,5.63,2.35,1.04,3.94-.52,4.99-2.87h0ZM23.15,36.19c1.62,2,3.75,1.32,5.75-.29,2-1.62,6.39-9.53,6.39-9.53,0,0-8.66,2.65-10.66,4.27-2,1.62-3.1,3.56-1.48,5.56h0ZM20.02,46.37c-1.85,1.79-2.78,3.82-.99,5.67,1.78,1.85,3.85.99,5.7-.79s5.54-10.06,5.54-10.06c0,0-8.39,3.4-10.24,5.18h-.01ZM22.09,77.48c-1.44,2.13-1.92,4.31.21,5.75s3.97.17,5.41-1.96,3.32-10.99,3.32-10.99c0,0-7.5,5.07-8.94,7.2h0ZM18.86,67.24c1.91,1.72,3.91.72,5.63-1.19s4.82-10.42,4.82-10.42c0,0-8.14,3.98-9.86,5.88-1.72,1.9-2.5,4-.6,5.72h.01,0ZM19.52,20.27c-.88-2.41-6.93-9.15-6.93-9.15,0,0-.31,9.05.57,11.47.88,2.41,2.36,4.09,4.77,3.21,2.41-.88,2.47-3.11,1.59-5.53h0ZM13.27,36.9c-1.28-2.22-8.42-7.8-8.42-7.8,0,0,1.27,8.97,2.55,11.19s3.03,3.62,5.26,2.33c2.22-1.28,1.89-3.5.61-5.72h0ZM10.44,55.54c-1.65-1.97-9.65-6.23-9.65-6.23,0,0,2.8,8.61,4.46,10.58,1.65,1.97,3.62,3.04,5.58,1.39,1.97-1.65,1.26-3.77-.39-5.74h0ZM11.95,72.13c-1.97-1.65-10.58-4.46-10.58-4.46,0,0,4.26,7.99,6.22,9.64,1.97,1.65,4.09,2.36,5.74.4,1.65-1.97.58-3.93-1.38-5.58h0ZM16.06,88.73c-2.22-1.29-11.19-2.55-11.19-2.55,0,0,5.58,7.13,7.81,8.42,2.22,1.29,4.44,1.62,5.72-.61,1.29-2.23-.11-3.98-2.33-5.26h0,0ZM10.28,104.08s7.68,4.79,10.21,5.24,4.72,0,5.17-2.53-1.46-3.7-3.99-4.15-11.39,1.43-11.39,1.43h0ZM30.72,114.85c-2.53.45-10.21,5.24-10.21,5.24,0,0,8.86,1.88,11.39,1.43s4.44-1.61,3.99-4.14-2.64-2.98-5.17-2.53h0ZM35.55,133.9s8.97-1.27,11.19-2.55,3.62-3.03,2.33-5.26c-1.29-2.22-3.5-1.89-5.72-.61-2.22,1.29-7.81,8.42-7.81,8.42h.01Z"/>
      <path d="M155.33,167.62l1.96-1.64c1.46-1.21,3.2-2.72,3.2-4.63,0-1.79-1.17-3.23-3.64-3.23-2.26,0-3.72,1.39-3.72,3.55,0,.32.05.65.17.99l1.42.07c-.12-.3-.17-.64-.17-.96,0-1.54.84-2.43,2.3-2.43s2.15.84,2.15,2.08c0,1.54-1.28,2.62-2.97,4.06l-3,2.56v.84h7.79v-1.26h-5.5.01ZM170.2,163.6c0-3.51-1.61-5.48-4.37-5.48s-4.39,1.98-4.39,5.48,1.62,5.48,4.39,5.48,4.37-1.98,4.37-5.48h0ZM168.69,163.6c0,2.87-.92,4.31-2.87,4.31s-2.87-1.44-2.87-4.31.92-4.31,2.87-4.31,2.87,1.44,2.87,4.31h0ZM173.33,167.62l1.96-1.64c1.46-1.21,3.2-2.72,3.2-4.63,0-1.79-1.17-3.23-3.64-3.23-2.26,0-3.72,1.39-3.72,3.55,0,.32.05.65.17.99l1.42.07c-.12-.3-.17-.64-.17-.96,0-1.54.84-2.43,2.3-2.43s2.15.84,2.15,2.08c0,1.54-1.28,2.62-2.97,4.06l-3,2.56v.84h7.79v-1.26h-5.5.01ZM183.57,168.88v-10.63h-.95c-.3,1.24-.79,1.58-2.56,1.58h-.75v1.07h2.82v7.98h1.46-.02Z"/>
      <path d="M118.62,152.12v-7.5h3.84v7.5h3.14v-9.67h-6.97v-.11c0-1.24.72-2.05,2.07-2.05,1.05,0,1.68.48,1.92,1.09l2.13-1.24c-.65-1.13-2.05-2-4.31-2-2.92,0-4.92,1.72-4.92,4.16v.15h-1.63v2.18h1.63v7.5h3.11-.01ZM127.33,138.39v13.73h3.16v-13.73h-3.16ZM141.82,144.31c-.41-1.26-1.5-2.13-3.2-2.13-1.44,0-2.9.85-3.34,2v-1.74h-3.16v9.67h3.16v-4.86c0-1.55.76-2.64,1.99-2.64,1.11,0,1.72.76,1.72,2.16v5.34h3.13v-4.86c0-1.55.76-2.64,1.99-2.64,1.11,0,1.74.76,1.74,2.16v5.34h3.13v-6.06c0-2.07-.98-3.88-3.53-3.88-1.81,0-3.18.98-3.64,2.13h.01ZM155.82,144.62v7.5h3.11v-7.5h2.51v-2.18h-2.51v-.33c0-1.2.63-1.77,1.59-1.77,1.07,0,1.55.59,1.74,1.11l1.7-1.37c-.57-1.11-1.81-1.96-3.79-1.96-2.53,0-4.36,1.5-4.36,3.9v.41h-1.63v2.18h1.64ZM169.29,148.8c-.41.87-1.15,1.29-2.22,1.29-1.44,0-2.33-.96-2.36-2.31h7.06v-.78c0-2.6-1.63-4.82-4.9-4.82-3.01,0-5.27,2.2-5.27,5.25s2.2,4.95,5.34,4.95c2.42,0,4.14-.94,4.79-2.83l-2.44-.74h0ZM164.78,146.3c.17-1.07.85-1.94,2.09-1.94s1.96.9,2.01,1.94h-4.1ZM172.01,150.24c.98,1.42,3.18,2.13,5.19,2.13,2.77,0,4.53-1.26,4.53-3.25,0-1.63-1.28-2.46-2.94-2.83l-2.6-.57c-.54-.11-.83-.35-.83-.7,0-.52.63-.76,1.31-.76,1.22,0,2.18.37,2.92,1.16l1.74-1.33c-1-1.2-2.44-1.92-4.66-1.92-2.53,0-4.21,1.33-4.21,3.09s1.29,2.64,3.22,3.03l2.03.39c.66.13,1.11.3,1.11.81,0,.55-.66.79-1.64.79-1.2,0-2.59-.5-3.2-1.44l-1.98,1.4h.01ZM181.86,142.44v2.18h1.81v4.03c0,2.57,1.68,3.72,3.81,3.72,1.94,0,3.23-1.02,3.95-2.09l-1.53-1.83c-.57.94-.92,1.4-1.87,1.4-.81,0-1.31-.54-1.31-1.44v-3.79h3.57v-2.18h-3.57v-2.99l-3.05.61v2.37h-1.81ZM191.89,141.04h3.35v-2.66h-3.35v2.66h0ZM192,142.44v9.67h3.16v-9.67h-3.16ZM202.95,152.12l3.83-9.67h-2.9l-2.46,6.49h-.09l-2.35-6.49h-3.31l3.83,9.67h3.45ZM209.46,145.79c.13-.76.87-1.4,2.07-1.4.85,0,1.35.33,1.35,1.11v.33l-3.1.78c-1.89.48-3.44,1.18-3.44,2.92s1.33,2.72,3.16,2.72c1.64,0,2.9-.7,3.45-1.85.2,1.11,1.24,1.94,2.63,1.94.78,0,1.5-.22,2.24-.67l-.22-1.87c-.26.24-.72.44-1.09.44-.39,0-.67-.22-.67-.68v-3.9c0-2.53-1.63-3.48-4.16-3.48s-4.29,1.2-4.99,2.9l2.77.72h0ZM212.88,148.13c0,1.33-1.13,2.12-2.29,2.12-.7,0-1.16-.39-1.16-1.03,0-.74.61-1.09,1.42-1.33l2.03-.57v.81h0ZM218.6,138.39v13.73h3.16v-13.73h-3.16Z"/>
      <path d="M107.85,124.28h3.35v-2.66h-3.35v2.66h0ZM107.95,125.68v9.67h3.16v-9.67h-3.16ZM115.92,130.49c0-1.55.81-2.64,2.09-2.64,1.18,0,1.81.76,1.81,2.16v5.34h3.16v-6.06c0-2.07-1.07-3.88-3.7-3.88-1.5,0-2.9.85-3.36,2v-1.74h-3.16v9.67h3.16v-4.86h0ZM123.46,125.68v2.18h1.81v4.03c0,2.57,1.68,3.72,3.81,3.72,1.94,0,3.22-1.02,3.94-2.09l-1.53-1.83c-.57.94-.92,1.4-1.87,1.4-.81,0-1.31-.54-1.31-1.44v-3.79h3.57v-2.18h-3.57v-2.99l-3.05.61v2.37h-1.81,0ZM140.66,132.04c-.41.87-1.16,1.29-2.22,1.29-1.44,0-2.33-.96-2.36-2.31h7.06v-.78c0-2.6-1.63-4.82-4.9-4.82-3.01,0-5.27,2.2-5.27,5.25s2.2,4.95,5.34,4.95c2.42,0,4.14-.94,4.79-2.83l-2.44-.74h0ZM136.15,129.53c.17-1.07.85-1.94,2.09-1.94s1.96.9,2.01,1.94h-4.1ZM149.63,127.98c1,0,1.46.63,1.46,1.53,0,.17,0,.37-.04.52l2.57-1.02s.02-.13.02-.17c0-2.03-1.04-3.42-3.01-3.42-1.66,0-2.7,1.2-3.21,2.31v-2.05h-3.13v9.67h3.13v-4.19c0-1.76.74-3.18,2.2-3.18h.01ZM157.42,130.49c0-1.55.81-2.64,2.09-2.64,1.18,0,1.81.76,1.81,2.16v5.34h3.16v-6.06c0-2.07-1.07-3.88-3.7-3.88-1.5,0-2.9.85-3.36,2v-1.74h-3.16v9.67h3.16v-4.86h0ZM168.51,129.03c.13-.76.87-1.4,2.07-1.4.85,0,1.35.33,1.35,1.11v.33l-3.1.78c-1.9.48-3.44,1.18-3.44,2.92s1.33,2.72,3.16,2.72c1.64,0,2.9-.7,3.45-1.85.2,1.11,1.24,1.94,2.63,1.94.79,0,1.5-.22,2.25-.67l-.22-1.87c-.26.24-.72.44-1.09.44-.39,0-.67-.22-.67-.68v-3.9c0-2.53-1.63-3.48-4.16-3.48s-4.29,1.2-4.99,2.9l2.77.72h-.01ZM171.93,131.36c0,1.33-1.13,2.12-2.29,2.12-.7,0-1.16-.39-1.16-1.03,0-.74.61-1.09,1.42-1.33l2.03-.57v.81h0ZM175.88,125.68v2.18h1.81v4.03c0,2.57,1.68,3.72,3.81,3.72,1.94,0,3.23-1.02,3.95-2.09l-1.53-1.83c-.57.94-.92,1.4-1.87,1.4-.81,0-1.31-.54-1.31-1.44v-3.79h3.57v-2.18h-3.57v-2.99l-3.05.61v2.37h-1.81ZM185.92,124.28h3.35v-2.66h-3.35v2.66h0ZM186.03,125.68v9.67h3.16v-9.67h-3.16ZM201.03,130.51c0-2.99-2.31-5.1-5.4-5.1s-5.42,2.11-5.42,5.1,2.33,5.1,5.42,5.1,5.4-2.09,5.4-5.1h0ZM193.43,130.51c0-1.68.81-2.81,2.2-2.81s2.2,1.13,2.2,2.81-.81,2.81-2.2,2.81-2.2-1.13-2.2-2.81h0ZM205.26,130.49c0-1.55.81-2.64,2.09-2.64,1.18,0,1.81.76,1.81,2.16v5.34h3.16v-6.06c0-2.07-1.07-3.88-3.7-3.88-1.5,0-2.9.85-3.36,2v-1.74h-3.16v9.67h3.16v-4.86h0ZM216.35,129.03c.13-.76.87-1.4,2.07-1.4.85,0,1.35.33,1.35,1.11v.33l-3.1.78c-1.89.48-3.44,1.18-3.44,2.92s1.33,2.72,3.16,2.72c1.63,0,2.9-.7,3.45-1.85.2,1.11,1.24,1.94,2.63,1.94.78,0,1.5-.22,2.25-.67l-.22-1.87c-.26.24-.72.44-1.09.44-.39,0-.68-.22-.68-.68v-3.9c0-2.53-1.63-3.48-4.16-3.48s-4.29,1.2-4.99,2.9l2.76.72h0ZM219.77,131.36c0,1.33-1.13,2.12-2.29,2.12-.7,0-1.16-.39-1.16-1.03,0-.74.61-1.09,1.42-1.33l2.03-.57v.81h0ZM225.49,121.62v13.73h3.16v-13.73h-3.16Z"/>
      <path d="M132.51,113.95c0,1.55-1,2.55-2.31,2.55-1.5,0-2.36-1.18-2.36-2.75s.85-2.75,2.36-2.75c1.31,0,2.31,1,2.31,2.55v.39h0ZM132.44,118.59h3.16v-13.73h-3.16v5.84c-.52-1.2-1.59-2.05-3.25-2.05-2.85,0-4.53,2.26-4.53,5.1s1.68,5.1,4.53,5.1c1.66,0,2.73-.85,3.25-2.05v1.79h0ZM147.49,113.75c0-2.99-2.31-5.1-5.4-5.1s-5.42,2.11-5.42,5.1,2.33,5.1,5.42,5.1,5.4-2.09,5.4-5.1h0ZM139.88,113.75c0-1.68.81-2.81,2.2-2.81s2.2,1.13,2.2,2.81-.81,2.81-2.2,2.81-2.2-1.13-2.2-2.81h0ZM155.38,114.71c-.24,1.09-.89,1.77-1.98,1.77-1.26,0-2.2-.94-2.2-2.73s.94-2.73,2.22-2.73c1,0,1.61.59,1.9,1.55l2.68-.79c-.54-1.85-2.16-3.14-4.71-3.14-3.12,0-5.31,2.02-5.31,5.1s2.2,5.1,5.31,5.1c2.7,0,4.36-1.46,4.82-3.44l-2.72-.7h0ZM158.98,104.86v13.73h3.16v-13.73h-3.16ZM163.67,107.51h3.35v-2.66h-3.35v2.66h0ZM163.78,108.91v9.67h3.16v-9.67h-3.16ZM167.75,116.71c.98,1.42,3.18,2.13,5.19,2.13,2.77,0,4.53-1.26,4.53-3.25,0-1.63-1.28-2.46-2.94-2.83l-2.6-.57c-.54-.11-.83-.35-.83-.7,0-.52.63-.76,1.31-.76,1.22,0,2.18.37,2.92,1.16l1.74-1.33c-1-1.2-2.44-1.92-4.66-1.92-2.53,0-4.21,1.33-4.21,3.09s1.29,2.64,3.22,3.03l2.03.39c.66.13,1.11.3,1.11.81,0,.55-.66.79-1.64.79-1.2,0-2.59-.5-3.2-1.44l-1.98,1.4h.01ZM181.54,116.82c.5,1.24,1.74,2.02,3.31,2.02,2.96,0,4.64-2.24,4.64-5.1s-1.68-5.1-4.53-5.1c-1.68,0-2.75.85-3.25,2.05v-5.84h-3.16v13.73h2.33l.65-1.76h.01ZM181.65,113.55c0-1.55.98-2.55,2.31-2.55,1.5,0,2.33,1.18,2.33,2.75s-.83,2.75-2.33,2.75c-1.33,0-2.31-1-2.31-2.55v-.39h0ZM200.83,113.75c0-2.99-2.31-5.1-5.4-5.1s-5.43,2.11-5.43,5.1,2.33,5.1,5.43,5.1,5.4-2.09,5.4-5.1h0ZM193.23,113.75c0-1.68.81-2.81,2.2-2.81s2.2,1.13,2.2,2.81-.81,2.81-2.2,2.81-2.2-1.13-2.2-2.81h0ZM204.28,112.27c.13-.76.87-1.4,2.07-1.4.85,0,1.35.33,1.35,1.11v.33l-3.1.78c-1.89.48-3.44,1.18-3.44,2.92s1.33,2.72,3.16,2.72c1.64,0,2.9-.7,3.45-1.85.2,1.11,1.24,1.94,2.63,1.94.78,0,1.5-.22,2.24-.67l-.22-1.87c-.26.24-.72.44-1.09.44-.39,0-.67-.22-.67-.68v-3.9c0-2.53-1.63-3.48-4.16-3.48s-4.29,1.2-4.99,2.9l2.77.72h0ZM207.7,114.6c0,1.33-1.13,2.12-2.29,2.12-.7,0-1.16-.39-1.16-1.03,0-.74.61-1.09,1.42-1.33l2.03-.57v.81h0Z"/>
      <path d="M124.39,74.45h10.08v8.68h2.34v-19.24h-2.34v8.47h-10.08v-8.47h-2.34v19.24h2.34v-8.68h0ZM146.25,83.45c3.72,0,5.96-2.82,5.96-6.97s-1.96-6.94-5.91-6.94c-3.7,0-5.96,2.84-5.96,6.94s2.01,6.97,5.91,6.97h0ZM146.27,71.28c2.54,0,3.6,1.99,3.6,5.21s-1.08,5.21-3.55,5.21-3.65-1.96-3.65-5.21,1.18-5.21,3.6-5.21h0ZM163.7,83.13h2.26v-9.23c0-3.14-1.68-4.35-4.22-4.35-2.11,0-3.65,1.21-4.27,2.56h-.05v-2.24h-2.14v13.25h2.26v-7.95c0-2.16,1.13-3.75,3.6-3.75.88,0,1.63.25,2.09.88.48.63.48,1.68.48,2.64v8.17h0v.02h-.01ZM169.82,83.13h2.26v-7.22c0-2.56,1.56-3.92,3.92-3.92h.43v-2.36h-.23c-1.94,0-3.6,1.36-4.2,2.74h-.05v-2.49h-2.14v13.25h.01ZM183.88,83.45c3.72,0,5.96-2.82,5.96-6.97s-1.96-6.94-5.91-6.94c-3.7,0-5.96,2.84-5.96,6.94s2.01,6.97,5.91,6.97h0ZM183.9,71.28c2.54,0,3.6,1.99,3.6,5.21s-1.08,5.21-3.55,5.21-3.65-1.96-3.65-5.21,1.18-5.21,3.6-5.21h0ZM201.83,73.19c-.23-2.31-1.86-3.65-4.73-3.65-3.02,0-4.8,1.68-4.8,4.02s1.26,3.29,3.62,3.67l2.04.3c1.81.3,2.09.88,2.09,1.94,0,1.38-1.13,2.24-2.94,2.24-2.34,0-2.92-1.31-3.02-2.34h-2.21c.18,2.84,2.44,4.07,5.18,4.07,3.02,0,5.18-1.43,5.18-4.1,0-2.29-1.01-3.42-3.77-3.85l-2.04-.3c-1.33-.23-1.99-.73-1.99-1.81,0-1.23,1.03-2.14,2.59-2.14s2.51.75,2.64,1.94h2.16,0ZM209.05,81.52c-1.43,0-2.31-.73-2.31-2.09,0-.7.23-1.26.73-1.63.85-.63,2.49-.85,5.36-.98v.3c0,3.27-2.09,4.4-3.77,4.4h-.01ZM207.29,73.49c.08-1.13.8-2.26,2.77-2.26s2.77.93,2.77,3.32v.58c-2.97.1-5.03.35-6.41,1.08-1.36.68-1.99,1.89-1.99,3.34,0,2.36,1.56,3.8,4.2,3.8,1.96,0,3.55-.91,4.25-2.46h.05c.23,1.58.93,2.34,3.04,2.34h.28v-1.84c-.98-.03-1.21-.45-1.21-1.51v-5.41c0-3.55-1.61-4.93-4.9-4.93s-4.95,1.61-5,3.95h2.16-.01Z"/>
      <path d="M124.44,57.98h2.26v-16.52h.08s.35,1.01,1.03,3.02l4.73,13.5h2.21l4.85-13.5c.73-2.04,1.03-3.02,1.03-3.02h.08v16.52h2.39v-19.24h-3.52l-4.95,13.78c-.6,1.68-.85,2.51-.85,2.51h-.05s-.25-.83-.85-2.51l-4.88-13.78h-3.55v19.24s-.01,0,0,0h-.01ZM155.77,50.18h-6.79c.28-2.41,1.43-4.07,3.55-4.07,2.31,0,3.19,1.71,3.24,3.92v.15h0ZM157.91,54.51h-2.19c-.23.78-.8,2.06-3.02,2.06-2.49,0-3.6-1.86-3.75-4.6h9.13v-1.16c0-3.34-1.56-6.41-5.53-6.41s-5.91,3.09-5.91,7.02,1.94,6.89,5.98,6.89c2.84,0,4.8-1.51,5.28-3.8h.01,0ZM169.58,57.98h2.26v-9.23c0-3.14-1.68-4.35-4.22-4.35-2.11,0-3.65,1.21-4.27,2.56h-.05v-2.24h-2.14v13.25h2.26v-7.95c0-2.16,1.13-3.75,3.6-3.75.88,0,1.63.25,2.09.88.48.63.48,1.68.48,2.64v8.17h0v.02h-.01ZM180.71,63.31c1.61,0,2.34-1.01,2.34-2.04,0-1.18-.68-1.91-1.79-1.91-.43,0-.73.13-.91.28h-.05l.65-1.36c2.74-.1,4.78-1.66,5.1-4.63h-2.11c-.08,1.01-.73,2.87-3.24,2.87-2.67,0-3.6-2.14-3.6-5.21s1.26-5.18,3.65-5.18c1.91,0,2.87,1.23,3.02,2.59h2.21c-.23-3.12-2.62-4.33-5.26-4.33-3.72,0-5.93,2.97-5.93,7.02s1.79,6.49,5.1,6.81l-1.18,2.46h1.36c.15-.18.35-.3.68-.3.55,0,.8.38.8.91s-.25.91-.8.91c-.43,0-.68-.23-.75-.55h-1.43c.08.88.6,1.66,2.14,1.66h0ZM192.81,56.37c-1.43,0-2.31-.73-2.31-2.09,0-.7.23-1.26.73-1.63.85-.63,2.49-.85,5.36-.98v.3c0,3.27-2.09,4.4-3.77,4.4h-.01ZM191.05,48.35c.08-1.13.8-2.26,2.77-2.26s2.77.93,2.77,3.32v.58c-2.97.1-5.03.35-6.41,1.08-1.36.68-1.99,1.89-1.99,3.34,0,2.36,1.56,3.8,4.2,3.8,1.96,0,3.55-.91,4.25-2.46h.05c.23,1.58.93,2.34,3.04,2.34h.28v-1.84c-.98-.03-1.21-.45-1.21-1.51v-5.41c0-3.55-1.61-4.93-4.9-4.93s-4.95,1.61-5,3.95h2.16-.01ZM189.51,42.29h1.41c.13-1.06.55-1.61,1.16-1.61.98,0,2.06,1.56,3.72,1.56,1.76,0,2.64-1.63,2.64-3.39h-1.41c-.13,1.06-.55,1.63-1.18,1.63-.88,0-2.04-1.58-3.7-1.58-1.76,0-2.64,1.63-2.64,3.39h0ZM207.62,58.31c3.72,0,5.96-2.82,5.96-6.97s-1.96-6.94-5.91-6.94c-3.7,0-5.96,2.84-5.96,6.94s2.01,6.97,5.91,6.97h0ZM207.64,46.14c2.54,0,3.6,1.99,3.6,5.21s-1.08,5.21-3.55,5.21-3.65-1.96-3.65-5.21,1.18-5.21,3.6-5.21h0Z"/>
      <path d="M96.72,32.83h4.73l6.44-19.24h-3.97l-4,12.5c-.58,1.84-.68,2.84-.68,2.84h-.05s-.1-1.01-.68-2.87l-3.95-12.47h-4.33l6.49,19.24h0ZM116.9,24.74h-5.08c.2-2.06,1.06-3.22,2.69-3.22,1.51,0,2.26,1.13,2.39,3.04v.18h0ZM120.84,28.91h-3.92c-.25.8-.75,1.58-2.34,1.58-1.68,0-2.59-1.06-2.77-3.47h9.15v-1.06c0-3.95-1.91-6.94-6.46-6.94-4.25,0-6.71,2.92-6.71,7.04s2.31,7.12,6.66,7.12c3.65,0,5.98-1.66,6.39-4.27h0ZM123.47,32.83h3.97v-6.66c0-2.59,1.38-3.42,3.82-3.42h.7v-3.62h-.23c-1.81,0-3.7,1.03-4.45,3.07h-.05v-2.84h-3.77v13.48h0ZM142.93,27.1c0,1.94-.98,3.39-2.82,3.39-1.96,0-2.79-1.61-2.79-4.35,0-2.94,1.11-4.35,2.89-4.35,1.66,0,2.72,1.33,2.72,3.7v1.61h0ZM146.88,13.02h-4v8.12h-.05c-.63-1.26-1.96-2.06-3.7-2.06-3.34,0-5.88,2.44-5.88,7.19s2.16,6.92,5.73,6.92c2.11,0,3.32-1.16,4.02-2.34h.05v1.99h3.82V13.02h.01ZM158.44,24.74h-5.08c.2-2.06,1.06-3.22,2.69-3.22,1.51,0,2.26,1.13,2.39,3.04v.18h0ZM162.39,28.91h-3.92c-.25.8-.75,1.58-2.34,1.58-1.68,0-2.59-1.06-2.77-3.47h9.15v-1.06c0-3.95-1.91-6.94-6.46-6.94-4.25,0-6.71,2.92-6.71,7.04s2.31,7.12,6.66,7.12c3.65,0,5.98-1.66,6.39-4.27h0ZM175.48,23.1c-.18-2.36-1.91-4.07-5.43-4.07-3.82,0-5.58,2.09-5.58,4.43s1.43,3.67,3.95,4.02l2.16.3c1.26.18,1.61.58,1.61,1.38,0,.98-.85,1.48-2.14,1.48-1.58,0-2.21-.78-2.26-1.74h-3.67c.18,2.41,1.89,4.3,5.91,4.3,3.42,0,5.86-1.61,5.86-4.6,0-2.44-1.43-3.65-3.9-3.97l-2.29-.3c-1.16-.15-1.56-.6-1.56-1.36,0-.8.65-1.41,1.89-1.41s1.86.68,1.94,1.53h3.52-.01,0ZM192.51,17.14h.05s.2,1.13.73,2.82l1.76,5.58h-5.08l1.79-5.61c.5-1.56.73-2.69.75-2.79h0ZM197.47,32.83h4.33l-6.81-19.24h-4.63l-6.71,19.24h3.95l1.41-4.27h7.07l1.41,4.27h-.02ZM212.68,32.83h4v-8.75c0-3.32-1.33-5-4.58-5-2.31,0-3.65,1.13-4.38,2.49h-.05v-2.21h-3.85v13.48h4v-7.8c0-1.96.93-3.09,2.72-3.09.75,0,1.36.25,1.74.78.35.5.4,1.28.4,2.24v7.87h0ZM225.83,33.18c4.05,0,6.84-2.69,6.84-7.09s-2.69-7.07-6.81-7.07-6.84,2.64-6.84,7.07,2.56,7.09,6.81,7.09h0ZM225.86,21.72c1.96,0,2.67,1.79,2.67,4.38s-.65,4.4-2.67,4.4-2.72-1.79-2.72-4.4.73-4.38,2.72-4.38h0ZM245.57,23.1c-.18-2.36-1.91-4.07-5.43-4.07-3.82,0-5.58,2.09-5.58,4.43s1.43,3.67,3.95,4.02l2.16.3c1.26.18,1.61.58,1.61,1.38,0,.98-.85,1.48-2.14,1.48-1.58,0-2.21-.78-2.26-1.74h-3.67c.18,2.41,1.89,4.3,5.91,4.3,3.42,0,5.86-1.61,5.86-4.6,0-2.44-1.43-3.65-3.9-3.97l-2.29-.3c-1.16-.15-1.56-.6-1.56-1.36,0-.8.65-1.41,1.89-1.41s1.86.68,1.94,1.53h3.52-.01,0Z"/>
      <rect x="105.44" y="95.16" width="125.73" height=".29"/>
    </g>
  </g>
  <g>
    <path d="M8.78,870.17c2.58,0,4.05,1.01,5.25,2.52l-1.11.98c-1.08-1.47-2.43-2.06-4.05-2.06-3.47,0-5.59,2.76-5.59,6.33s2.12,6.36,5.59,6.36c1.63,0,2.98-.61,4.05-2.09l1.11.98c-1.2,1.54-2.67,2.55-5.25,2.55-4.36,0-7.22-3.47-7.22-7.8s2.86-7.77,7.22-7.77h0Z"/>
    <path d="M16.73,877.94c0-4.33,2.8-7.77,7.12-7.77s7.16,3.44,7.16,7.77-2.76,7.8-7.16,7.8-7.12-3.47-7.12-7.8ZM29.29,877.94c0-3.29-1.94-6.33-5.44-6.33s-5.4,3.04-5.4,6.33,1.97,6.36,5.4,6.36,5.44-3.04,5.44-6.36Z"/>
    <path d="M52.79,885.37v-10.38c0-2.09-.89-3.38-2.98-3.38-1.6,0-3.41,1.17-4.24,2.52v11.24h-1.63v-10.38c0-2.09-.86-3.38-2.98-3.38-1.57,0-3.35,1.2-4.24,2.55v11.21h-1.6v-14.83h1.6v2.24c.61-.95,2.64-2.61,4.79-2.61,2.3,0,3.53,1.35,3.9,2.8.83-1.38,2.83-2.8,4.91-2.8,2.73,0,4.05,1.54,4.05,4.51v10.69h-1.6.02Z"/>
    <path d="M65.9,875.14c0-6.33,4.76-10.59,10.93-10.59,4.48,0,7.09,2.43,8.54,5.01l-3.75,1.84c-.86-1.66-2.7-2.98-4.79-2.98-3.75,0-6.45,2.86-6.45,6.73s2.7,6.72,6.45,6.72c2.09,0,3.93-1.32,4.79-2.98l3.75,1.81c-1.44,2.55-4.05,5.04-8.54,5.04-6.17,0-10.93-4.3-10.93-10.59h0Z"/>
    <path d="M102.14,885.37l-1.29-3.47h-8.78l-1.29,3.47h-4.94l7.89-20.48h5.47l7.89,20.48h-4.95ZM96.46,869.25l-3.19,8.81h6.39l-3.19-8.81h-.01Z"/>
    <path d="M113.72,885.37v-16.64h-5.99v-3.84h16.34v3.84h-5.96v16.64h-4.39Z"/>
    <path d="M141.02,885.37l-1.29-3.47h-8.78l-1.29,3.47h-4.94l7.89-20.48h5.47l7.89,20.48h-4.95ZM135.34,869.25l-3.19,8.81h6.39l-3.19-8.81h-.01Z"/>
    <path d="M159.44,885.37l-4.02-7.28h-3.19v7.28h-4.36v-20.48h9.58c4.27,0,6.91,2.79,6.91,6.6,0,3.59-2.3,5.56-4.51,6.08l4.64,7.8h-5.05ZM159.87,871.46c0-1.69-1.32-2.73-3.04-2.73h-4.61v5.53h4.61c1.72,0,3.04-1.04,3.04-2.8h0Z"/>
    <path d="M167.61,885.37v-20.48h4.36v20.48h-4.36Z"/>
    <path d="M190.15,885.37l-9.76-13.36v13.36h-4.36v-20.48h4.48l9.49,12.87v-12.87h4.36v20.48h-4.21Z"/>
    <path d="M212.57,885.37l-1.29-3.47h-8.78l-1.29,3.47h-4.94l7.89-20.48h5.47l7.89,20.48h-4.95ZM206.89,869.25l-3.19,8.81h6.39l-3.19-8.81h-.01Z"/>
    <path d="M245.12,885.37v-14.77l-5.77,14.77h-1.91l-5.77-14.77v14.77h-4.36v-20.48h6.11l4.97,12.8,4.98-12.8h6.14v20.48h-4.39Z"/>
    <path d="M252.58,875.14c0-6.17,4.51-10.59,10.72-10.59s10.69,4.42,10.69,10.59-4.51,10.59-10.69,10.59-10.72-4.42-10.72-10.59ZM269.5,875.14c0-3.84-2.43-6.73-6.2-6.73s-6.23,2.89-6.23,6.73,2.43,6.72,6.23,6.72,6.2-2.92,6.2-6.72Z"/>
    <path d="M291.19,885.37l-9.76-13.36v13.36h-4.36v-20.48h4.48l9.49,12.87v-12.87h4.36v20.48h-4.21,0Z"/>
    <path d="M304.17,885.37v-16.64h-5.99v-3.84h16.34v3.84h-5.96v16.64h-4.39Z"/>
    <path d="M317.32,885.37v-20.48h14.49v3.84h-10.13v4.3h9.92v3.84h-9.92v4.67h10.13v3.84h-14.49Z"/>
    <path d="M335.22,885.37v-20.48h4.36v20.48h-4.36Z"/>
    <path d="M355.21,885.37l-4.02-7.28h-3.19v7.28h-4.36v-20.48h9.58c4.27,0,6.91,2.79,6.91,6.6,0,3.59-2.3,5.56-4.51,6.08l4.64,7.8h-5.05ZM355.64,871.46c0-1.69-1.32-2.73-3.04-2.73h-4.61v5.53h4.61c1.72,0,3.04-1.04,3.04-2.8h0Z"/>
    <path d="M362.4,875.14c0-6.17,4.51-10.59,10.72-10.59s10.69,4.42,10.69,10.59-4.51,10.59-10.69,10.59-10.72-4.42-10.72-10.59ZM379.32,875.14c0-3.84-2.43-6.73-6.2-6.73s-6.23,2.89-6.23,6.73,2.43,6.72,6.23,6.72,6.2-2.92,6.2-6.72Z"/>
    <path d="M401.62,870.17c4.51,0,7,3.59,7,7.86v.43h-12.41c.15,3.22,2.3,5.9,5.8,5.9,1.87,0,3.59-.71,4.85-2.06l.83,1.04c-1.47,1.53-3.35,2.4-5.8,2.4-4.33,0-7.43-3.22-7.43-7.8,0-4.3,3.04-7.77,7.16-7.77ZM396.21,877.2h10.78c-.03-2.52-1.69-5.65-5.41-5.65-3.5,0-5.25,3.07-5.37,5.65h0Z"/>
    <path d="M419.27,875.14c0-6.33,4.76-10.59,10.93-10.59,4.48,0,7.09,2.43,8.54,5.01l-3.75,1.84c-.86-1.66-2.7-2.98-4.79-2.98-3.75,0-6.45,2.86-6.45,6.73s2.7,6.72,6.45,6.72c2.09,0,3.93-1.32,4.79-2.98l3.75,1.81c-1.44,2.55-4.05,5.04-8.54,5.04-6.17,0-10.93-4.3-10.93-10.59h0Z"/>
    <path d="M455.51,885.37l-1.29-3.47h-8.78l-1.29,3.47h-4.94l7.89-20.48h5.47l7.89,20.48h-4.95ZM449.83,869.25l-3.19,8.81h6.39l-3.19-8.81h-.01Z"/>
    <path d="M467.09,885.37v-16.64h-5.99v-3.84h16.34v3.84h-5.96v16.64h-4.39Z"/>
    <path d="M494.39,885.37l-1.29-3.47h-8.78l-1.29,3.47h-4.94l7.89-20.48h5.47l7.89,20.48h-4.95ZM488.71,869.25l-3.19,8.81h6.39l-3.19-8.81h-.01Z"/>
    <path d="M512.81,885.37l-4.02-7.28h-3.19v7.28h-4.36v-20.48h9.58c4.27,0,6.91,2.79,6.91,6.6,0,3.59-2.3,5.56-4.51,6.08l4.64,7.8h-5.05ZM513.24,871.46c0-1.69-1.32-2.73-3.04-2.73h-4.61v5.53h4.61c1.72,0,3.04-1.04,3.04-2.8h0Z"/>
    <path d="M520.98,885.37v-20.48h4.36v20.48h-4.36Z"/>
    <path d="M543.52,885.37l-9.76-13.36v13.36h-4.36v-20.48h4.48l9.49,12.87v-12.87h4.36v20.48h-4.21,0Z"/>
    <path d="M565.94,885.37l-1.29-3.47h-8.78l-1.29,3.47h-4.94l7.89-20.48h5.47l7.89,20.48h-4.95ZM560.26,869.25l-3.19,8.81h6.39l-3.19-8.81h-.01Z"/>
    <path d="M579.7,875.14c0-6.33,4.76-10.59,10.93-10.59,4.48,0,7.09,2.43,8.54,5.01l-3.75,1.84c-.86-1.66-2.7-2.98-4.79-2.98-3.75,0-6.45,2.86-6.45,6.73s2.7,6.72,6.45,6.72c2.09,0,3.93-1.32,4.79-2.98l3.75,1.81c-1.44,2.55-4.05,5.04-8.54,5.04-6.17,0-10.93-4.3-10.93-10.59h0Z"/>
    <path d="M601.78,877.17v-12.28h4.42v12.16c0,2.86,1.66,4.82,4.82,4.82s4.79-1.97,4.79-4.82v-12.16h4.45v12.28c0,5.07-3.01,8.57-9.24,8.57s-9.24-3.5-9.24-8.57Z"/>
    <path d="M638.44,885.37l-9.76-13.36v13.36h-4.36v-20.48h4.48l9.49,12.87v-12.87h4.36v20.48h-4.21,0Z"/>
    <path d="M660.74,885.37v-8.63h-9.67v8.63h-4.36v-20.48h4.36v8.05h9.67v-8.05h4.39v20.48h-4.39Z"/>
    <path d="M683.31,885.37l-1.29-3.47h-8.78l-1.29,3.47h-4.94l7.89-20.48h5.47l7.89,20.48h-4.95ZM677.63,869.25l-3.19,8.81h6.39l-3.19-8.81h-.01Z"/>
    <path d="M698.05,885.37v-20.48h14.49v3.84h-10.13v4.3h9.92v3.84h-9.92v8.51h-4.36Z"/>
    <path d="M715.59,885.37v-20.48h14.49v3.84h-10.13v4.3h9.92v3.84h-9.92v4.67h10.13v3.84h-14.49Z"/>
    <path d="M745.07,885.37l-4.02-7.28h-3.19v7.28h-4.36v-20.48h9.58c4.27,0,6.91,2.79,6.91,6.6,0,3.59-2.3,5.56-4.51,6.08l4.64,7.8h-5.05ZM745.5,871.46c0-1.69-1.32-2.73-3.04-2.73h-4.61v5.53h4.61c1.72,0,3.04-1.04,3.04-2.8h0Z"/>
    <path d="M764.81,885.37l-4.02-7.28h-3.19v7.28h-4.36v-20.48h9.58c4.27,0,6.91,2.79,6.91,6.6,0,3.59-2.3,5.56-4.51,6.08l4.64,7.8h-5.05ZM765.24,871.46c0-1.69-1.32-2.73-3.04-2.73h-4.61v5.53h4.61c1.72,0,3.04-1.04,3.04-2.8h0Z"/>
    <path d="M772.98,885.37v-20.48h14.49v3.84h-10.13v4.3h9.92v3.84h-9.92v4.67h10.13v3.84h-14.49Z"/>
    <path d="M790.89,885.37v-20.48h4.36v20.48h-4.36Z"/>
    <path d="M810.88,885.37l-4.02-7.28h-3.19v7.28h-4.36v-20.48h9.58c4.27,0,6.91,2.79,6.91,6.6,0,3.59-2.3,5.56-4.51,6.08l4.64,7.8h-5.05ZM811.31,871.46c0-1.69-1.32-2.73-3.04-2.73h-4.61v5.53h4.61c1.72,0,3.04-1.04,3.04-2.8h0Z"/>
    <path d="M833.2,885.37l-1.29-3.47h-8.78l-1.29,3.47h-4.94l7.89-20.48h5.47l7.89,20.48h-4.95ZM827.52,869.25l-3.19,8.81h6.39l-3.19-8.81h-.01Z"/>
    <path d="M851.44,878.52c-2.03,0-3.65-1.63-3.65-3.62s1.63-3.65,3.65-3.65,3.65,1.63,3.65,3.65-1.63,3.62-3.65,3.62Z"/>
    <path d="M867.29,885.37v-14.83h1.6v2.55c1.26-1.66,2.95-2.86,5-2.86v1.75c-.28-.06-.49-.06-.8-.06-1.51,0-3.53,1.35-4.21,2.64v10.81h-1.6.01Z"/>
    <path d="M883.32,870.17c4.51,0,7,3.59,7,7.86v.43h-12.41c.15,3.22,2.3,5.9,5.8,5.9,1.87,0,3.59-.71,4.85-2.06l.83,1.04c-1.47,1.53-3.35,2.4-5.8,2.4-4.33,0-7.43-3.22-7.43-7.8,0-4.3,3.04-7.77,7.16-7.77h0ZM877.92,877.2h10.78c-.03-2.52-1.69-5.65-5.41-5.65-3.5,0-5.25,3.07-5.37,5.65Z"/>
    <path d="M903.86,885.37v-1.75c-1.32,1.44-2.98,2.12-5.04,2.12-2.55,0-5.19-1.75-5.19-4.94s2.61-4.91,5.19-4.91c2.06,0,3.75.68,5.04,2.12v-3.01c0-2.21-1.78-3.41-3.99-3.41-1.84,0-3.29.64-4.64,2.18l-.89-1.11c1.54-1.66,3.25-2.49,5.71-2.49,3.01,0,5.4,1.44,5.4,4.76v10.44h-1.6.01ZM903.86,879.2c-1.04-1.35-2.7-2.06-4.48-2.06-2.46,0-4.05,1.57-4.05,3.69s1.6,3.65,4.05,3.65c1.78,0,3.44-.68,4.48-2.03v-3.25Z"/>
    <path d="M910.44,885.37v-20.48h1.6v20.48h-1.6Z"/>
    <path d="M916.58,866.79c0-.68.58-1.23,1.23-1.23s1.23.55,1.23,1.23-.55,1.23-1.23,1.23-1.23-.55-1.23-1.23ZM917.01,885.37v-14.83h1.6v14.83h-1.6Z"/>
    <path d="M922.81,885.37v-1.32l8.78-12.1h-8.78v-1.41h10.84v1.29l-8.88,12.13h9v1.41h-10.96Z"/>
    <path d="M947.41,885.37v-1.75c-1.32,1.44-2.98,2.12-5.04,2.12-2.55,0-5.19-1.75-5.19-4.94s2.61-4.91,5.19-4.91c2.06,0,3.75.68,5.04,2.12v-3.01c0-2.21-1.78-3.41-3.99-3.41-1.84,0-3.29.64-4.64,2.18l-.89-1.11c1.54-1.66,3.25-2.49,5.71-2.49,3.01,0,5.4,1.44,5.4,4.76v10.44h-1.6.01ZM947.41,879.2c-1.04-1.35-2.7-2.06-4.48-2.06-2.46,0-4.05,1.57-4.05,3.69s1.6,3.65,4.05,3.65c1.78,0,3.44-.68,4.48-2.03v-3.25Z"/>
    <path d="M964.48,882.21l1.11.98c-1.11,1.44-2.49,2.43-4.76,2.55l-.52,1.38c.31-.25.74-.37,1.14-.37,1.2,0,2.03.8,2.03,1.94,0,1.54-1.38,2.49-3.1,2.49-1.23,0-2.4-.4-2.98-.89l.49-.98c.77.61,1.63.86,2.46.86,1.07,0,2-.49,2-1.47,0-.64-.4-1.11-1.26-1.11-.46,0-.92.18-1.23.52l-.86-.49.71-1.9c-3.99-.34-6.57-3.65-6.57-7.77,0-4.33,2.86-7.77,7.22-7.77,2.58,0,4.05,1.01,5.25,2.52l-1.11.98c-1.08-1.47-2.43-2.06-4.05-2.06-3.47,0-5.59,2.76-5.59,6.33s2.12,6.36,5.59,6.36c1.63,0,2.98-.61,4.05-2.09h-.02Z"/>
    <path d="M978.58,885.37v-1.75c-1.32,1.44-2.98,2.12-5.04,2.12-2.55,0-5.19-1.75-5.19-4.94s2.61-4.91,5.19-4.91c2.06,0,3.75.68,5.04,2.12v-3.01c0-2.21-1.78-3.41-3.99-3.41-1.84,0-3.29.64-4.64,2.18l-.89-1.11c1.54-1.66,3.25-2.49,5.71-2.49,3.01,0,5.4,1.44,5.4,4.76v10.44h-1.6.01ZM978.58,879.2c-1.04-1.35-2.7-2.06-4.48-2.06-2.46,0-4.05,1.57-4.05,3.69s1.6,3.65,4.05,3.65c1.78,0,3.44-.68,4.48-2.03v-3.25ZM972.84,865.19c-.92,0-1.66.89-1.66,2.98h-1.08c0-2.3,1.01-4.12,2.86-4.12,1.23,0,1.78.92,2.3,1.78.43.71.8,1.35,1.54,1.35.92,0,1.63-.89,1.63-2.95h1.11c0,2.3-.98,4.11-2.83,4.11-1.29,0-1.81-.92-2.34-1.78-.4-.71-.8-1.38-1.54-1.38h0Z"/>
    <path d="M984.29,877.94c0-4.33,2.8-7.77,7.12-7.77s7.16,3.44,7.16,7.77-2.76,7.8-7.16,7.8-7.12-3.47-7.12-7.8ZM996.85,877.94c0-3.29-1.94-6.33-5.44-6.33s-5.4,3.04-5.4,6.33,1.97,6.36,5.4,6.36,5.44-3.04,5.44-6.36Z"/>
    <path d="M1016.94,870.17c4.51,0,7,3.59,7,7.86v.43h-12.41c.15,3.22,2.3,5.9,5.8,5.9,1.87,0,3.59-.71,4.85-2.06l.83,1.04c-1.47,1.53-3.35,2.4-5.8,2.4-4.33,0-7.43-3.22-7.43-7.8,0-4.3,3.04-7.77,7.16-7.77h0ZM1011.53,877.2h10.78c-.03-2.52-1.69-5.65-5.41-5.65-3.5,0-5.25,3.07-5.37,5.65Z"/>
    <path d="M1037.6,891.02h-1.6v-20.48h1.6v2.33c1.04-1.5,2.95-2.7,5.16-2.7,3.96,0,6.63,3.01,6.63,7.77s-2.67,7.8-6.63,7.8c-2.09,0-3.96-1.08-5.16-2.76v8.05h0ZM1042.49,871.61c-2.06,0-4.02,1.23-4.88,2.64v7.34c.86,1.41,2.83,2.7,4.88,2.7,3.32,0,5.19-2.76,5.19-6.36s-1.87-6.33-5.19-6.33h0Z"/>
    <path d="M1053.51,885.37v-14.83h1.6v2.55c1.26-1.66,2.95-2.86,5-2.86v1.75c-.28-.06-.49-.06-.8-.06-1.51,0-3.53,1.35-4.21,2.64v10.81h-1.6.01Z"/>
    <path d="M1062.39,877.94c0-4.33,2.8-7.77,7.12-7.77s7.16,3.44,7.16,7.77-2.76,7.8-7.16,7.8-7.12-3.47-7.12-7.8ZM1074.95,877.94c0-3.29-1.94-6.33-5.44-6.33s-5.4,3.04-5.4,6.33,1.97,6.36,5.4,6.36,5.44-3.04,5.44-6.36Z"/>
    <path d="M1091.72,885.37v-2.36c-1.04,1.54-2.95,2.73-5.16,2.73-3.93,0-6.63-3.01-6.63-7.77s2.7-7.8,6.63-7.8c2.12,0,3.96,1.07,5.16,2.76v-8.05h1.63v20.48h-1.63ZM1091.72,874.31c-.86-1.44-2.8-2.7-4.88-2.7-3.29,0-5.19,2.76-5.19,6.36s1.9,6.33,5.19,6.33c2.09,0,4.02-1.23,4.88-2.64v-7.34h0Z"/>
    <path d="M1108.33,885.37v-2.18c-1.23,1.35-3.19,2.55-5.34,2.55-3.04,0-4.67-1.41-4.67-4.76v-10.44h1.6v10.07c0,2.89,1.44,3.68,3.59,3.68,1.9,0,3.84-1.14,4.82-2.46v-11.3h1.6v14.83h-1.6,0Z"/>
    <path d="M1125.4,882.21l1.11.98c-1.11,1.44-2.49,2.43-4.76,2.55l-.52,1.38c.31-.25.74-.37,1.14-.37,1.2,0,2.03.8,2.03,1.94,0,1.54-1.38,2.49-3.1,2.49-1.23,0-2.4-.4-2.98-.89l.49-.98c.77.61,1.63.86,2.46.86,1.07,0,2-.49,2-1.47,0-.64-.4-1.11-1.26-1.11-.46,0-.92.18-1.23.52l-.86-.49.71-1.9c-3.99-.34-6.57-3.65-6.57-7.77,0-4.33,2.86-7.77,7.22-7.77,2.58,0,4.05,1.01,5.25,2.52l-1.11.98c-1.08-1.47-2.43-2.06-4.05-2.06-3.47,0-5.59,2.76-5.59,6.33s2.12,6.36,5.59,6.36c1.63,0,2.98-.61,4.05-2.09h-.02Z"/>
    <path d="M1139.5,885.37v-1.75c-1.32,1.44-2.98,2.12-5.04,2.12-2.55,0-5.19-1.75-5.19-4.94s2.61-4.91,5.19-4.91c2.06,0,3.75.68,5.04,2.12v-3.01c0-2.21-1.78-3.41-3.99-3.41-1.84,0-3.29.64-4.64,2.18l-.89-1.11c1.54-1.66,3.25-2.49,5.71-2.49,3.01,0,5.4,1.44,5.4,4.76v10.44h-1.6.01ZM1139.5,879.2c-1.04-1.35-2.7-2.06-4.48-2.06-2.46,0-4.05,1.57-4.05,3.69s1.6,3.65,4.05,3.65c1.78,0,3.44-.68,4.48-2.03v-3.25ZM1133.76,865.19c-.92,0-1.66.89-1.66,2.98h-1.08c0-2.3,1.01-4.12,2.86-4.12,1.23,0,1.78.92,2.3,1.78.43.71.8,1.35,1.54,1.35.92,0,1.63-.89,1.63-2.95h1.11c0,2.3-.98,4.11-2.83,4.11-1.29,0-1.81-.92-2.34-1.78-.4-.71-.8-1.38-1.54-1.38h0Z"/>
    <path d="M1145.21,877.94c0-4.33,2.8-7.77,7.12-7.77s7.16,3.44,7.16,7.77-2.76,7.8-7.16,7.8-7.12-3.47-7.12-7.8ZM1157.77,877.94c0-3.29-1.94-6.33-5.44-6.33s-5.4,3.04-5.4,6.33,1.97,6.36,5.4,6.36,5.44-3.04,5.44-6.36Z"/>
    <path d="M1188.94,885.37v-14.77l-5.77,14.77h-1.91l-5.77-14.77v14.77h-4.36v-20.48h6.11l4.97,12.8,4.98-12.8h6.14v20.48h-4.39,0Z"/>
    <path d="M1211.55,885.37l-1.29-3.47h-8.78l-1.29,3.47h-4.94l7.89-20.48h5.47l7.89,20.48h-4.95ZM1205.87,869.25l-3.19,8.81h6.39l-3.19-8.81h-.01ZM1206.11,863.01h-2.73l4.11-4.42h3.59l-4.97,4.42Z"/>
    <path d="M1229.97,885.37l-4.02-7.28h-3.19v7.28h-4.36v-20.48h9.58c4.27,0,6.91,2.79,6.91,6.6,0,3.59-2.3,5.56-4.51,6.08l4.64,7.8h-5.05ZM1230.4,871.46c0-1.69-1.32-2.73-3.04-2.73h-4.61v5.53h4.61c1.72,0,3.04-1.04,3.04-2.8h0Z"/>
    <path d="M1238.14,885.37v-20.48h4.36v20.48h-4.36Z"/>
    <path d="M1245.57,875.14c0-6.17,4.51-10.59,10.72-10.59s10.69,4.42,10.69,10.59-4.51,10.59-10.69,10.59-10.72-4.42-10.72-10.59ZM1262.49,875.14c0-3.84-2.43-6.73-6.2-6.73s-6.23,2.89-6.23,6.73,2.43,6.72,6.23,6.72,6.2-2.92,6.2-6.72Z"/>
    <path d="M1283.68,885.37l-7.89-20.48h4.94l5.68,15.72,5.68-15.72h4.94l-7.89,20.48h-5.47.01Z"/>
    <path d="M1298.94,885.37v-20.48h14.49v3.84h-10.13v4.3h9.92v3.84h-9.92v4.67h10.13v3.84h-14.49Z"/>
    <path d="M1316.67,885.37v-20.48h4.39v16.64h8.66v3.84h-13.05Z"/>
    <path d="M1331.68,875.14c0-6.17,4.51-10.59,10.72-10.59s10.69,4.42,10.69,10.59-4.51,10.59-10.69,10.59-10.72-4.42-10.72-10.59ZM1348.6,875.14c0-3.84-2.43-6.73-6.2-6.73s-6.23,2.89-6.23,6.73,2.43,6.72,6.23,6.72,6.2-2.92,6.2-6.72Z"/>
    <path d="M1354.74,882.48l2.4-3.41c1.44,1.5,3.68,2.79,6.51,2.79,2.43,0,3.56-1.07,3.56-2.27,0-3.56-11.79-1.07-11.79-8.78,0-3.41,2.95-6.23,7.77-6.23,3.25,0,5.96.98,7.98,2.86l-2.43,3.25c-1.66-1.54-3.87-2.24-5.96-2.24-1.84,0-2.89.8-2.89,2.03,0,3.22,11.76,1.04,11.76,8.69,0,3.75-2.7,6.57-8.2,6.57-3.96,0-6.79-1.32-8.72-3.26h0Z"/>
    <path d="M1373.6,875.14c0-6.17,4.51-10.59,10.72-10.59s10.69,4.42,10.69,10.59-4.51,10.59-10.69,10.59-10.72-4.42-10.72-10.59ZM1390.52,875.14c0-3.84-2.43-6.73-6.2-6.73s-6.23,2.89-6.23,6.73,2.43,6.72,6.23,6.72,6.2-2.92,6.2-6.72Z"/>
    <path d="M1409.47,878.52c-2.03,0-3.65-1.63-3.65-3.62s1.63-3.65,3.65-3.65,3.65,1.63,3.65,3.65-1.63,3.62-3.65,3.62Z"/>
    <path d="M13.36,922.22v-2.36c-1.04,1.54-2.95,2.73-5.16,2.73-3.93,0-6.63-3.01-6.63-7.77s2.7-7.8,6.63-7.8c2.12,0,3.96,1.07,5.16,2.76v-8.05h1.63v20.48h-1.63ZM13.36,911.17c-.86-1.44-2.8-2.7-4.88-2.7-3.29,0-5.19,2.76-5.19,6.36s1.9,6.33,5.19,6.33c2.09,0,4.02-1.23,4.88-2.64v-7.34h0Z"/>
    <path d="M19.53,903.64c0-.68.58-1.23,1.23-1.23s1.23.55,1.23,1.23-.55,1.23-1.23,1.23-1.23-.55-1.23-1.23ZM19.96,922.22v-14.83h1.6v14.83h-1.6Z"/>
    <path d="M26.53,922.22v-14.83h1.6v2.55c1.26-1.66,2.95-2.86,5-2.86v1.75c-.28-.06-.49-.06-.8-.06-1.51,0-3.53,1.35-4.21,2.64v10.81h-1.6,0Z"/>
    <path d="M42.56,907.02c4.51,0,7,3.59,7,7.86v.43h-12.41c.15,3.22,2.3,5.9,5.8,5.9,1.87,0,3.59-.71,4.85-2.06l.83,1.04c-1.47,1.53-3.35,2.4-5.8,2.4-4.33,0-7.43-3.22-7.43-7.8,0-4.3,3.04-7.77,7.16-7.77ZM37.16,914.05h10.78c-.03-2.52-1.69-5.65-5.41-5.65-3.5,0-5.25,3.07-5.37,5.65Z"/>
    <path d="M64.18,919.06l1.11.98c-1.11,1.44-2.49,2.43-4.76,2.55l-.52,1.38c.31-.25.74-.37,1.14-.37,1.2,0,2.03.8,2.03,1.94,0,1.54-1.38,2.49-3.1,2.49-1.23,0-2.4-.4-2.98-.89l.49-.98c.77.61,1.63.86,2.46.86,1.08,0,2-.49,2-1.47,0-.64-.4-1.11-1.26-1.11-.46,0-.92.18-1.23.52l-.86-.49.71-1.9c-3.99-.34-6.57-3.65-6.57-7.77,0-4.33,2.86-7.77,7.22-7.77,2.58,0,4.05,1.01,5.25,2.52l-1.11.98c-1.08-1.47-2.43-2.06-4.05-2.06-3.47,0-5.59,2.76-5.59,6.33s2.12,6.36,5.59,6.36c1.63,0,2.98-.61,4.05-2.09h-.02Z"/>
    <path d="M78.28,922.22v-1.75c-1.32,1.44-2.98,2.12-5.03,2.12-2.55,0-5.19-1.75-5.19-4.94s2.61-4.91,5.19-4.91c2.06,0,3.74.68,5.03,2.12v-3.01c0-2.21-1.78-3.41-3.99-3.41-1.84,0-3.29.64-4.64,2.18l-.89-1.11c1.54-1.66,3.25-2.49,5.71-2.49,3.01,0,5.4,1.44,5.4,4.76v10.44h-1.6.01ZM78.28,916.05c-1.04-1.35-2.7-2.06-4.48-2.06-2.46,0-4.05,1.57-4.05,3.69s1.6,3.65,4.05,3.65c1.78,0,3.44-.68,4.48-2.03v-3.25ZM72.54,902.05c-.92,0-1.66.89-1.66,2.98h-1.08c0-2.3,1.01-4.12,2.86-4.12,1.23,0,1.78.92,2.3,1.78.43.71.8,1.35,1.54,1.35.92,0,1.63-.89,1.63-2.95h1.11c0,2.3-.98,4.11-2.83,4.11-1.29,0-1.81-.92-2.34-1.78-.4-.71-.8-1.38-1.54-1.38h.01Z"/>
    <path d="M83.99,914.79c0-4.33,2.8-7.77,7.12-7.77s7.16,3.44,7.16,7.77-2.76,7.8-7.16,7.8-7.12-3.47-7.12-7.8ZM96.55,914.79c0-3.29-1.94-6.33-5.44-6.33s-5.4,3.04-5.4,6.33,1.97,6.36,5.4,6.36,5.44-3.04,5.44-6.36Z"/>
    <path d="M121.27,922.22v-2.36c-1.04,1.54-2.95,2.73-5.16,2.73-3.93,0-6.63-3.01-6.63-7.77s2.7-7.8,6.63-7.8c2.12,0,3.96,1.07,5.16,2.76v-8.05h1.63v20.48h-1.63ZM121.27,911.17c-.86-1.44-2.8-2.7-4.88-2.7-3.29,0-5.19,2.76-5.19,6.36s1.9,6.33,5.19,6.33c2.09,0,4.02-1.23,4.88-2.64v-7.34h0Z"/>
    <path d="M134.17,907.02c4.51,0,7,3.59,7,7.86v.43h-12.41c.15,3.22,2.3,5.9,5.8,5.9,1.87,0,3.59-.71,4.85-2.06l.83,1.04c-1.47,1.53-3.35,2.4-5.8,2.4-4.33,0-7.43-3.22-7.43-7.8,0-4.3,3.04-7.77,7.16-7.77ZM128.77,914.05h10.78c-.03-2.52-1.69-5.65-5.41-5.65-3.5,0-5.25,3.07-5.37,5.65Z"/>
    <path d="M155.36,908.8v13.42h-1.6v-13.42h-2.46v-1.41h2.46v-1.35c0-2.92,1.57-4.61,4.02-4.61.74,0,1.41.12,2,.46l-.49,1.26c-.37-.21-.8-.34-1.35-.34-1.69,0-2.58,1.17-2.58,3.22v1.35h3.01v1.41h-3.01Z"/>
    <path d="M160.52,914.79c0-4.33,2.8-7.77,7.12-7.77s7.16,3.44,7.16,7.77-2.76,7.8-7.16,7.8-7.12-3.47-7.12-7.8ZM173.08,914.79c0-3.29-1.94-6.33-5.44-6.33s-5.4,3.04-5.4,6.33,1.97,6.36,5.4,6.36,5.44-3.04,5.44-6.36Z"/>
    <path d="M179.22,919.36v-10.56h-2.46v-1.41h2.46v-4.05h1.63v4.05h3.01v1.41h-3.01v10.32c0,1.2.49,2.03,1.54,2.03.71,0,1.32-.34,1.66-.71l.61,1.23c-.58.55-1.29.92-2.52.92-1.97,0-2.92-1.2-2.92-3.22h0Z"/>
    <path d="M186.5,914.79c0-4.33,2.8-7.77,7.12-7.77s7.16,3.44,7.16,7.77-2.76,7.8-7.16,7.8-7.12-3.47-7.12-7.8ZM199.06,914.79c0-3.29-1.94-6.33-5.44-6.33s-5.4,3.04-5.4,6.33,1.97,6.36,5.4,6.36,5.44-3.04,5.44-6.36Z"/>
    <path d="M205.85,924.77c1.29,1.54,2.7,2.09,4.91,2.09,2.7,0,5.07-1.35,5.07-4.76v-2.33c-1.04,1.51-2.95,2.76-5.16,2.76-3.93,0-6.63-2.98-6.63-7.74s2.7-7.77,6.63-7.77c2.12,0,3.96,1.07,5.16,2.76v-2.4h1.63v14.68c0,4.55-3.07,6.17-6.69,6.17-2.49,0-4.08-.46-5.84-2.24l.92-1.23h0ZM215.83,911.17c-.86-1.44-2.83-2.7-4.88-2.7-3.29,0-5.19,2.73-5.19,6.33s1.9,6.29,5.19,6.29c2.06,0,4.02-1.26,4.88-2.7v-7.22Z"/>
    <path d="M222.4,922.22v-14.83h1.6v2.55c1.26-1.66,2.95-2.86,5-2.86v1.75c-.28-.06-.49-.06-.8-.06-1.51,0-3.53,1.35-4.21,2.64v10.81h-1.6,0Z"/>
    <path d="M241.57,922.22v-1.75c-1.32,1.44-2.98,2.12-5.03,2.12-2.55,0-5.19-1.75-5.19-4.94s2.61-4.91,5.19-4.91c2.06,0,3.74.68,5.03,2.12v-3.01c0-2.21-1.78-3.41-3.99-3.41-1.84,0-3.29.64-4.64,2.18l-.89-1.11c1.54-1.66,3.25-2.49,5.71-2.49,3.01,0,5.4,1.44,5.4,4.76v10.44h-1.6.01ZM241.57,916.05c-1.04-1.35-2.7-2.06-4.48-2.06-2.46,0-4.05,1.57-4.05,3.69s1.6,3.65,4.05,3.65c1.78,0,3.44-.68,4.48-2.03v-3.25Z"/>
    <path d="M250.26,922.22h-1.6v-13.42h-2.46v-1.41h2.46v-1.35c0-2.92,1.57-4.61,4.02-4.61.74,0,1.41.12,2,.46l-.49,1.26c-.37-.21-.77-.34-1.35-.34-1.69,0-2.58,1.17-2.58,3.22v1.35h3.01v1.41h-3.01v13.42h0ZM255.85,903.64c0-.68.58-1.23,1.23-1.23s1.23.55,1.23,1.23-.55,1.23-1.23,1.23-1.23-.55-1.23-1.23ZM256.28,922.22v-14.83h1.6v14.83h-1.6Z"/>
    <path d="M272.25,922.22v-1.75c-1.32,1.44-2.98,2.12-5.04,2.12-2.55,0-5.19-1.75-5.19-4.94s2.61-4.91,5.19-4.91c2.06,0,3.75.68,5.04,2.12v-3.01c0-2.21-1.78-3.41-3.99-3.41-1.84,0-3.29.64-4.64,2.18l-.89-1.11c1.54-1.66,3.25-2.49,5.71-2.49,3.01,0,5.4,1.44,5.4,4.76v10.44h-1.6.01ZM272.25,916.05c-1.04-1.35-2.7-2.06-4.48-2.06-2.46,0-4.05,1.57-4.05,3.69s1.6,3.65,4.05,3.65c1.78,0,3.44-.68,4.48-2.03v-3.25Z"/>
    <path d="M304.15,922.22v-14.77l-5.77,14.77h-1.91l-5.77-14.77v14.77h-4.36v-20.48h6.11l4.97,12.8,4.98-12.8h6.14v20.48h-4.39,0Z"/>
    <path d="M326.76,922.22l-1.29-3.47h-8.78l-1.29,3.47h-4.94l7.89-20.48h5.47l7.89,20.48h-4.95ZM321.08,906.1l-3.19,8.81h6.39l-3.19-8.81h-.01ZM321.32,899.86h-2.73l4.11-4.42h3.59l-4.97,4.42h0Z"/>
    <path d="M345.18,922.22l-4.02-7.28h-3.19v7.28h-4.36v-20.48h9.58c4.27,0,6.91,2.79,6.91,6.6,0,3.59-2.3,5.56-4.51,6.08l4.64,7.8h-5.05ZM345.61,908.31c0-1.69-1.32-2.73-3.04-2.73h-4.61v5.53h4.61c1.72,0,3.04-1.04,3.04-2.8h0Z"/>
    <path d="M353.35,922.22v-20.48h4.36v20.48h-4.36Z"/>
    <path d="M360.78,911.99c0-6.17,4.51-10.59,10.72-10.59s10.69,4.42,10.69,10.59-4.51,10.59-10.69,10.59-10.72-4.42-10.72-10.59ZM377.7,911.99c0-3.84-2.43-6.73-6.2-6.73s-6.23,2.89-6.23,6.73,2.43,6.72,6.23,6.72,6.2-2.92,6.2-6.72Z"/>
    <path d="M398.89,922.22l-7.89-20.48h4.94l5.68,15.72,5.68-15.72h4.94l-7.89,20.48h-5.47.01Z"/>
    <path d="M414.15,922.22v-20.48h14.49v3.84h-10.13v4.3h9.92v3.84h-9.92v4.67h10.13v3.84h-14.49Z"/>
    <path d="M431.87,922.22v-20.48h4.39v16.64h8.66v3.84h-13.05Z"/>
    <path d="M446.89,911.99c0-6.17,4.51-10.59,10.72-10.59s10.69,4.42,10.69,10.59-4.51,10.59-10.69,10.59-10.72-4.42-10.72-10.59ZM463.81,911.99c0-3.84-2.43-6.73-6.2-6.73s-6.23,2.89-6.23,6.73,2.43,6.72,6.23,6.72,6.2-2.92,6.2-6.72Z"/>
    <path d="M469.95,919.33l2.4-3.41c1.44,1.5,3.68,2.79,6.51,2.79,2.43,0,3.56-1.07,3.56-2.27,0-3.56-11.79-1.07-11.79-8.78,0-3.41,2.95-6.23,7.77-6.23,3.25,0,5.96.98,7.98,2.86l-2.43,3.25c-1.66-1.54-3.87-2.24-5.96-2.24-1.84,0-2.89.8-2.89,2.03,0,3.22,11.76,1.04,11.76,8.69,0,3.75-2.7,6.57-8.2,6.57-3.96,0-6.79-1.32-8.72-3.26h0Z"/>
    <path d="M488.81,911.99c0-6.17,4.51-10.59,10.72-10.59s10.69,4.42,10.69,10.59-4.51,10.59-10.69,10.59-10.72-4.42-10.72-10.59ZM505.73,911.99c0-3.84-2.43-6.73-6.2-6.73s-6.23,2.89-6.23,6.73,2.43,6.72,6.23,6.72,6.2-2.92,6.2-6.72Z"/>
    <path d="M524.68,915.37c-2.03,0-3.65-1.63-3.65-3.62s1.63-3.65,3.65-3.65,3.65,1.63,3.65,3.65-1.63,3.62-3.65,3.62Z"/>
    <path d="M558.18,922.22v-10.38c0-2.09-.89-3.38-2.98-3.38-1.6,0-3.41,1.17-4.24,2.52v11.24h-1.63v-10.38c0-2.09-.86-3.38-2.98-3.38-1.57,0-3.35,1.2-4.24,2.55v11.21h-1.6v-14.83h1.6v2.24c.61-.95,2.64-2.61,4.79-2.61,2.3,0,3.53,1.35,3.9,2.8.83-1.38,2.83-2.8,4.91-2.8,2.73,0,4.05,1.54,4.05,4.51v10.69h-1.6.02Z"/>
    <path d="M563.89,914.79c0-4.33,2.8-7.77,7.12-7.77s7.16,3.44,7.16,7.77-2.76,7.8-7.16,7.8-7.12-3.47-7.12-7.8ZM576.45,914.79c0-3.29-1.94-6.33-5.44-6.33s-5.4,3.04-5.4,6.33,1.97,6.36,5.4,6.36,5.44-3.04,5.44-6.36Z"/>
    <path d="M592.3,922.22v-10.04c0-2.86-1.44-3.72-3.59-3.72-1.9,0-3.87,1.2-4.82,2.55v11.21h-1.6v-14.83h1.6v2.24c1.07-1.29,3.19-2.61,5.34-2.61,3.01,0,4.67,1.47,4.67,4.82v10.38h-1.6Z"/>
    <path d="M599.18,919.36v-10.56h-2.46v-1.41h2.46v-4.05h1.63v4.05h3.01v1.41h-3.01v10.32c0,1.2.49,2.03,1.54,2.03.71,0,1.32-.34,1.66-.71l.61,1.23c-.58.55-1.29.92-2.52.92-1.97,0-2.92-1.2-2.92-3.22h0Z"/>
    <path d="M616.74,922.22v-1.75c-1.32,1.44-2.98,2.12-5.04,2.12-2.55,0-5.19-1.75-5.19-4.94s2.61-4.91,5.19-4.91c2.06,0,3.75.68,5.04,2.12v-3.01c0-2.21-1.78-3.41-3.99-3.41-1.84,0-3.29.64-4.64,2.18l-.89-1.11c1.54-1.66,3.25-2.49,5.71-2.49,3.01,0,5.4,1.44,5.4,4.76v10.44h-1.6,0ZM616.74,916.05c-1.04-1.35-2.7-2.06-4.48-2.06-2.46,0-4.05,1.57-4.05,3.69s1.6,3.65,4.05,3.65c1.78,0,3.44-.68,4.48-2.03v-3.25Z"/>
    <path d="M624.27,924.77c1.29,1.54,2.7,2.09,4.91,2.09,2.7,0,5.07-1.35,5.07-4.76v-2.33c-1.04,1.51-2.95,2.76-5.16,2.76-3.93,0-6.63-2.98-6.63-7.74s2.7-7.77,6.63-7.77c2.12,0,3.96,1.07,5.16,2.76v-2.4h1.63v14.68c0,4.55-3.07,6.17-6.69,6.17-2.49,0-4.08-.46-5.84-2.24l.92-1.23h0ZM634.25,911.17c-.86-1.44-2.83-2.7-4.88-2.7-3.29,0-5.19,2.73-5.19,6.33s1.9,6.29,5.19,6.29c2.06,0,4.02-1.26,4.88-2.7v-7.22Z"/>
    <path d="M647.12,907.02c4.51,0,7,3.59,7,7.86v.43h-12.41c.15,3.22,2.3,5.9,5.8,5.9,1.87,0,3.59-.71,4.85-2.06l.83,1.04c-1.47,1.53-3.35,2.4-5.8,2.4-4.33,0-7.43-3.22-7.43-7.8,0-4.3,3.04-7.77,7.16-7.77ZM641.71,914.05h10.78c-.03-2.52-1.69-5.65-5.41-5.65-3.5,0-5.25,3.07-5.37,5.65h0Z"/>
    <path d="M675.89,922.22v-10.38c0-2.09-.89-3.38-2.98-3.38-1.6,0-3.41,1.17-4.24,2.52v11.24h-1.63v-10.38c0-2.09-.86-3.38-2.98-3.38-1.57,0-3.35,1.2-4.24,2.55v11.21h-1.6v-14.83h1.6v2.24c.61-.95,2.64-2.61,4.79-2.61,2.3,0,3.53,1.35,3.9,2.8.83-1.38,2.83-2.8,4.91-2.8,2.73,0,4.05,1.54,4.05,4.51v10.69h-1.6.02Z"/>
    <path d="M689.89,922.22v-20.48h10.78c3.9,0,5.9,2.49,5.9,5.22,0,2.55-1.6,4.3-3.53,4.7,2.21.34,3.93,2.46,3.93,5.01,0,3.1-2.03,5.56-5.96,5.56h-11.12ZM702.12,907.73c0-1.26-.92-2.15-2.4-2.15h-5.47v4.3h5.47c1.47,0,2.4-.83,2.4-2.15h0ZM702.51,916.05c0-1.29-.92-2.33-2.61-2.33h-5.65v4.67h5.65c1.63,0,2.61-.86,2.61-2.33h0Z"/>
    <path d="M721.83,922.22l-4.02-7.28h-3.19v7.28h-4.36v-20.48h9.58c4.27,0,6.91,2.79,6.91,6.6,0,3.59-2.3,5.56-4.51,6.08l4.64,7.8h-5.05ZM722.26,908.31c0-1.69-1.32-2.73-3.04-2.73h-4.61v5.53h4.61c1.72,0,3.04-1.04,3.04-2.8h0Z"/>
    <path d="M730,914.02v-12.28h4.42v12.16c0,2.86,1.66,4.82,4.82,4.82s4.79-1.97,4.79-4.82v-12.16h4.45v12.28c0,5.07-3.01,8.57-9.24,8.57s-9.24-3.5-9.24-8.57Z"/>
    <path d="M766.67,922.22l-9.76-13.36v13.36h-4.36v-20.48h4.48l9.49,12.87v-12.87h4.36v20.48h-4.21,0Z"/>
    <path d="M773.94,911.99c0-6.17,4.51-10.59,10.72-10.59s10.69,4.42,10.69,10.59-4.51,10.59-10.69,10.59-10.72-4.42-10.72-10.59ZM790.87,911.99c0-3.84-2.43-6.73-6.2-6.73s-6.23,2.89-6.23,6.73,2.43,6.72,6.23,6.72,6.2-2.92,6.2-6.72Z"/>
    <path d="M804.9,919.33l2.4-3.41c1.44,1.5,3.68,2.79,6.51,2.79,2.43,0,3.56-1.07,3.56-2.27,0-3.56-11.79-1.07-11.79-8.78,0-3.41,2.95-6.23,7.77-6.23,3.25,0,5.96.98,7.98,2.86l-2.43,3.25c-1.66-1.54-3.87-2.24-5.96-2.24-1.84,0-2.89.8-2.89,2.03,0,3.22,11.76,1.04,11.76,8.69,0,3.75-2.7,6.57-8.2,6.57-3.96,0-6.79-1.32-8.72-3.26h0Z"/>
    <path d="M838.89,922.22l-1.29-3.47h-8.78l-1.29,3.47h-4.94l7.89-20.48h5.47l7.89,20.48h-4.95ZM833.21,906.1l-3.19,8.81h6.39l-3.19-8.81h-.01Z"/>
    <path d="M857.32,922.22l-4.02-7.28h-3.19v7.28h-4.36v-20.48h9.58c4.27,0,6.91,2.79,6.91,6.6,0,3.59-2.3,5.56-4.51,6.08l4.64,7.8h-5.05ZM857.75,908.31c0-1.69-1.32-2.73-3.04-2.73h-4.61v5.53h4.61c1.72,0,3.04-1.04,3.04-2.8h0Z"/>
    <path d="M879.64,922.22l-1.29-3.47h-8.78l-1.29,3.47h-4.94l7.89-20.48h5.47l7.89,20.48h-4.95ZM873.96,906.1l-3.19,8.81h6.39l-3.19-8.81h-.01Z"/>
    <path d="M886.49,922.22v-20.48h4.36v20.48h-4.36Z"/>
    <path d="M900.65,922.22l-7.89-20.48h4.94l5.68,15.72,5.68-15.72h4.94l-7.89,20.48h-5.47.01Z"/>
    <path d="M930.07,922.22l-1.29-3.47h-8.78l-1.29,3.47h-4.94l7.89-20.48h5.47l7.89,20.48h-4.95ZM924.39,906.1l-3.19,8.81h6.39l-3.19-8.81h-.01Z"/>
    <path d="M948.31,915.37c-2.03,0-3.65-1.63-3.65-3.62s1.63-3.65,3.65-3.65,3.65,1.63,3.65,3.65-1.63,3.62-3.65,3.62Z"/>
    <path d="M970.51,907.02c2.58,0,4.05,1.01,5.25,2.52l-1.11.98c-1.08-1.47-2.43-2.06-4.05-2.06-3.47,0-5.59,2.76-5.59,6.33s2.12,6.36,5.59,6.36c1.63,0,2.98-.61,4.05-2.09l1.11.98c-1.2,1.54-2.67,2.55-5.25,2.55-4.36,0-7.22-3.47-7.22-7.8s2.86-7.77,7.22-7.77h0Z"/>
    <path d="M988.75,922.22v-1.75c-1.32,1.44-2.98,2.12-5.03,2.12-2.55,0-5.19-1.75-5.19-4.94s2.61-4.91,5.19-4.91c2.06,0,3.74.68,5.03,2.12v-3.01c0-2.21-1.78-3.41-3.99-3.41-1.84,0-3.29.64-4.64,2.18l-.89-1.11c1.54-1.66,3.25-2.49,5.71-2.49,3.01,0,5.4,1.44,5.4,4.76v10.44h-1.6.01ZM988.75,916.05c-1.04-1.35-2.7-2.06-4.48-2.06-2.46,0-4.05,1.57-4.05,3.69s1.6,3.65,4.05,3.65c1.78,0,3.44-.68,4.48-2.03v-3.25Z"/>
    <path d="M996.93,927.87h-1.6v-20.48h1.6v2.33c1.04-1.5,2.95-2.7,5.16-2.7,3.96,0,6.63,3.01,6.63,7.77s-2.67,7.8-6.63,7.8c-2.09,0-3.96-1.08-5.16-2.76v8.05h0ZM1001.81,908.46c-2.06,0-4.02,1.23-4.88,2.64v7.34c.86,1.41,2.83,2.7,4.88,2.7,3.32,0,5.19-2.76,5.19-6.36s-1.87-6.33-5.19-6.33h0Z"/>
    <path d="M1013.14,919.36v-10.56h-2.46v-1.41h2.46v-4.05h1.63v4.05h3.01v1.41h-3.01v10.32c0,1.2.49,2.03,1.54,2.03.71,0,1.32-.34,1.66-.71l.61,1.23c-.58.55-1.29.92-2.52.92-1.97,0-2.92-1.2-2.92-3.22h0Z"/>
    <path d="M1030.7,922.22v-1.75c-1.32,1.44-2.98,2.12-5.03,2.12-2.55,0-5.19-1.75-5.19-4.94s2.61-4.91,5.19-4.91c2.06,0,3.74.68,5.03,2.12v-3.01c0-2.21-1.78-3.41-3.99-3.41-1.84,0-3.29.64-4.64,2.18l-.89-1.11c1.54-1.66,3.25-2.49,5.71-2.49,3.01,0,5.4,1.44,5.4,4.76v10.44h-1.6.01ZM1030.7,916.05c-1.04-1.35-2.7-2.06-4.48-2.06-2.46,0-4.05,1.57-4.05,3.69s1.6,3.65,4.05,3.65c1.78,0,3.44-.68,4.48-2.03v-3.25Z"/>
    <path d="M1047.78,919.06l1.11.98c-1.11,1.44-2.49,2.43-4.76,2.55l-.52,1.38c.31-.25.74-.37,1.14-.37,1.2,0,2.03.8,2.03,1.94,0,1.54-1.38,2.49-3.1,2.49-1.23,0-2.4-.4-2.98-.89l.49-.98c.77.61,1.63.86,2.46.86,1.07,0,2-.49,2-1.47,0-.64-.4-1.11-1.26-1.11-.46,0-.92.18-1.23.52l-.86-.49.71-1.9c-3.99-.34-6.57-3.65-6.57-7.77,0-4.33,2.86-7.77,7.22-7.77,2.58,0,4.05,1.01,5.25,2.52l-1.11.98c-1.08-1.47-2.43-2.06-4.05-2.06-3.47,0-5.59,2.76-5.59,6.33s2.12,6.36,5.59,6.36c1.63,0,2.98-.61,4.05-2.09h-.02Z"/>
    <path d="M1061.88,922.22v-1.75c-1.32,1.44-2.98,2.12-5.04,2.12-2.55,0-5.19-1.75-5.19-4.94s2.61-4.91,5.19-4.91c2.06,0,3.75.68,5.04,2.12v-3.01c0-2.21-1.78-3.41-3.99-3.41-1.84,0-3.29.64-4.64,2.18l-.89-1.11c1.54-1.66,3.25-2.49,5.71-2.49,3.01,0,5.4,1.44,5.4,4.76v10.44h-1.6.01ZM1061.88,916.05c-1.04-1.35-2.7-2.06-4.48-2.06-2.46,0-4.05,1.57-4.05,3.69s1.6,3.65,4.05,3.65c1.78,0,3.44-.68,4.48-2.03v-3.25ZM1056.13,902.05c-.92,0-1.66.89-1.66,2.98h-1.08c0-2.3,1.01-4.12,2.86-4.12,1.23,0,1.78.92,2.3,1.78.43.71.8,1.35,1.54,1.35.92,0,1.63-.89,1.63-2.95h1.11c0,2.3-.98,4.11-2.83,4.11-1.29,0-1.81-.92-2.34-1.78-.4-.71-.8-1.38-1.54-1.38h0Z"/>
    <path d="M1067.59,914.79c0-4.33,2.8-7.77,7.12-7.77s7.16,3.44,7.16,7.77-2.76,7.8-7.16,7.8-7.12-3.47-7.12-7.8ZM1080.15,914.79c0-3.29-1.94-6.33-5.44-6.33s-5.4,3.04-5.4,6.33,1.97,6.36,5.4,6.36,5.44-3.04,5.44-6.36Z"/>
    <path d="M1104.87,922.22v-2.36c-1.04,1.54-2.95,2.73-5.16,2.73-3.93,0-6.63-3.01-6.63-7.77s2.7-7.8,6.63-7.8c2.12,0,3.96,1.07,5.16,2.76v-8.05h1.63v20.48h-1.63ZM1104.87,911.17c-.86-1.44-2.8-2.7-4.88-2.7-3.29,0-5.19,2.76-5.19,6.36s1.9,6.33,5.19,6.33c2.09,0,4.02-1.23,4.88-2.64v-7.34h0Z"/>
    <path d="M1117.77,907.02c4.51,0,7,3.59,7,7.86v.43h-12.41c.15,3.22,2.3,5.9,5.8,5.9,1.87,0,3.59-.71,4.85-2.06l.83,1.04c-1.47,1.53-3.35,2.4-5.8,2.4-4.33,0-7.43-3.22-7.43-7.8,0-4.3,3.04-7.77,7.16-7.77h0ZM1112.37,914.05h10.78c-.03-2.52-1.69-5.65-5.41-5.65-3.5,0-5.25,3.07-5.37,5.65Z"/>
    <path d="M1136.5,919.06c.95,1.2,2.7,2.18,4.79,2.18,2.49,0,3.96-1.23,3.96-2.95,0-1.9-2.03-2.46-4.15-3.01-2.49-.61-5.22-1.26-5.22-4.15,0-2.27,1.94-4.12,5.28-4.12,2.55,0,4.24.98,5.31,2.18l-.89,1.14c-.86-1.17-2.46-1.97-4.42-1.97-2.3,0-3.72,1.14-3.72,2.67,0,1.69,1.91,2.15,3.96,2.67,2.55.64,5.4,1.35,5.4,4.51,0,2.4-1.84,4.36-5.56,4.36-2.4,0-4.24-.71-5.71-2.33l.95-1.2.02.02Z"/>
    <path d="M1150.08,914.79c0-4.33,2.8-7.77,7.12-7.77s7.16,3.44,7.16,7.77-2.76,7.8-7.16,7.8-7.12-3.47-7.12-7.8ZM1162.64,914.79c0-3.29-1.94-6.33-5.44-6.33s-5.4,3.04-5.4,6.33,1.97,6.36,5.4,6.36,5.44-3.04,5.44-6.36Z"/>
    <path d="M1186.13,922.22v-10.38c0-2.09-.89-3.38-2.98-3.38-1.6,0-3.41,1.17-4.24,2.52v11.24h-1.63v-10.38c0-2.09-.86-3.38-2.98-3.38-1.57,0-3.35,1.2-4.24,2.55v11.21h-1.6v-14.83h1.6v2.24c.61-.95,2.64-2.61,4.79-2.61,2.3,0,3.53,1.35,3.9,2.8.83-1.38,2.83-2.8,4.91-2.8,2.73,0,4.05,1.54,4.05,4.51v10.69h-1.6.02Z"/>
    <path d="M1218.04,922.22v-14.77l-5.77,14.77h-1.91l-5.77-14.77v14.77h-4.36v-20.48h6.11l4.97,12.8,4.98-12.8h6.14v20.48h-4.39,0Z"/>
    <path d="M1240.64,922.22l-1.29-3.47h-8.78l-1.29,3.47h-4.94l7.89-20.48h5.47l7.89,20.48h-4.95ZM1234.96,906.1l-3.19,8.81h6.39l-3.19-8.81h-.01ZM1235.21,899.86h-2.73l4.11-4.42h3.59l-4.97,4.42Z"/>
    <path d="M1259.07,922.22l-4.02-7.28h-3.19v7.28h-4.36v-20.48h9.58c4.27,0,6.91,2.79,6.91,6.6,0,3.59-2.3,5.56-4.51,6.08l4.64,7.8h-5.05ZM1259.5,908.31c0-1.69-1.32-2.73-3.04-2.73h-4.61v5.53h4.61c1.72,0,3.04-1.04,3.04-2.8h0Z"/>
    <path d="M1267.24,922.22v-20.48h4.36v20.48h-4.36Z"/>
    <path d="M1274.67,911.99c0-6.17,4.51-10.59,10.72-10.59s10.69,4.42,10.69,10.59-4.51,10.59-10.69,10.59-10.72-4.42-10.72-10.59ZM1291.59,911.99c0-3.84-2.43-6.73-6.2-6.73s-6.23,2.89-6.23,6.73,2.43,6.72,6.23,6.72,6.2-2.92,6.2-6.72Z"/>
    <path d="M1312.78,922.22l-7.89-20.48h4.94l5.68,15.72,5.68-15.72h4.94l-7.89,20.48h-5.47.01Z"/>
    <path d="M1328.04,922.22v-20.48h14.49v3.84h-10.13v4.3h9.92v3.84h-9.92v4.67h10.13v3.84h-14.49Z"/>
    <path d="M1345.76,922.22v-20.48h4.39v16.64h8.66v3.84h-13.05Z"/>
    <path d="M1360.78,911.99c0-6.17,4.51-10.59,10.72-10.59s10.69,4.42,10.69,10.59-4.51,10.59-10.69,10.59-10.72-4.42-10.72-10.59ZM1377.7,911.99c0-3.84-2.43-6.73-6.2-6.73s-6.23,2.89-6.23,6.73,2.43,6.72,6.23,6.72,6.2-2.92,6.2-6.72Z"/>
    <path d="M1383.84,919.33l2.4-3.41c1.44,1.5,3.68,2.79,6.51,2.79,2.43,0,3.56-1.07,3.56-2.27,0-3.56-11.79-1.07-11.79-8.78,0-3.41,2.95-6.23,7.77-6.23,3.25,0,5.96.98,7.98,2.86l-2.43,3.25c-1.66-1.54-3.87-2.24-5.96-2.24-1.84,0-2.89.8-2.89,2.03,0,3.22,11.76,1.04,11.76,8.69,0,3.75-2.7,6.57-8.2,6.57-3.96,0-6.79-1.32-8.72-3.26h0Z"/>
    <path d="M1402.69,911.99c0-6.17,4.51-10.59,10.72-10.59s10.69,4.42,10.69,10.59-4.51,10.59-10.69,10.59-10.72-4.42-10.72-10.59ZM1419.61,911.99c0-3.84-2.43-6.73-6.2-6.73s-6.23,2.89-6.23,6.73,2.43,6.72,6.23,6.72,6.2-2.92,6.2-6.72Z"/>
    <path d="M1438.56,915.37c-2.03,0-3.65-1.63-3.65-3.62s1.63-3.65,3.65-3.65,3.65,1.63,3.65,3.65-1.63,3.62-3.65,3.62Z"/>
    <path d="M20.08,959.07v-10.38c0-2.09-.89-3.38-2.98-3.38-1.6,0-3.41,1.17-4.24,2.52v11.24h-1.63v-10.38c0-2.09-.86-3.38-2.98-3.38-1.57,0-3.35,1.2-4.24,2.55v11.21h-1.6v-14.83h1.6v2.24c.61-.95,2.64-2.61,4.79-2.61,2.3,0,3.53,1.35,3.9,2.8.83-1.38,2.83-2.8,4.91-2.8,2.73,0,4.05,1.54,4.05,4.51v10.69h-1.6.02Z"/>
    <path d="M25.79,951.64c0-4.33,2.8-7.77,7.12-7.77s7.16,3.44,7.16,7.77-2.76,7.8-7.16,7.8-7.12-3.47-7.12-7.8ZM38.35,951.64c0-3.29-1.94-6.33-5.44-6.33s-5.4,3.04-5.4,6.33,1.97,6.36,5.4,6.36,5.44-3.04,5.44-6.36Z"/>
    <path d="M54.2,959.07v-10.04c0-2.86-1.44-3.72-3.59-3.72-1.9,0-3.87,1.2-4.82,2.55v11.21h-1.6v-14.83h1.6v2.24c1.07-1.29,3.19-2.61,5.34-2.61,3.01,0,4.67,1.47,4.67,4.82v10.38h-1.6Z"/>
    <path d="M61.08,956.22v-10.56h-2.46v-1.41h2.46v-4.05h1.63v4.05h3.01v1.41h-3.01v10.32c0,1.2.49,2.03,1.54,2.03.71,0,1.32-.34,1.66-.71l.61,1.23c-.58.55-1.29.92-2.52.92-1.97,0-2.92-1.2-2.92-3.22h0Z"/>
    <path d="M78.65,959.07v-1.75c-1.32,1.44-2.98,2.12-5.03,2.12-2.55,0-5.19-1.75-5.19-4.94s2.61-4.91,5.19-4.91c2.06,0,3.74.68,5.03,2.12v-3.01c0-2.21-1.78-3.41-3.99-3.41-1.84,0-3.29.64-4.64,2.18l-.89-1.11c1.54-1.66,3.25-2.49,5.71-2.49,3.01,0,5.4,1.44,5.4,4.76v10.44h-1.6.01ZM78.65,952.9c-1.04-1.35-2.7-2.06-4.48-2.06-2.46,0-4.05,1.57-4.05,3.69s1.6,3.65,4.05,3.65c1.78,0,3.44-.68,4.48-2.03v-3.25Z"/>
    <path d="M86.17,961.62c1.29,1.54,2.7,2.09,4.91,2.09,2.7,0,5.07-1.35,5.07-4.76v-2.33c-1.04,1.51-2.95,2.76-5.16,2.76-3.93,0-6.63-2.98-6.63-7.74s2.7-7.77,6.63-7.77c2.12,0,3.96,1.07,5.16,2.76v-2.4h1.63v14.68c0,4.55-3.07,6.17-6.69,6.17-2.49,0-4.08-.46-5.84-2.24l.92-1.23h0ZM96.15,948.02c-.86-1.44-2.83-2.7-4.88-2.7-3.29,0-5.19,2.73-5.19,6.33s1.9,6.29,5.19,6.29c2.06,0,4.02-1.26,4.88-2.7v-7.22Z"/>
    <path d="M109.02,943.87c4.51,0,7,3.59,7,7.86v.43h-12.41c.15,3.22,2.3,5.9,5.8,5.9,1.87,0,3.59-.71,4.85-2.06l.83,1.04c-1.47,1.53-3.35,2.4-5.8,2.4-4.33,0-7.43-3.22-7.43-7.8,0-4.3,3.04-7.77,7.16-7.77ZM103.62,950.9h10.78c-.03-2.52-1.69-5.65-5.41-5.65-3.5,0-5.25,3.07-5.37,5.65Z"/>
    <path d="M137.79,959.07v-10.38c0-2.09-.89-3.38-2.98-3.38-1.6,0-3.41,1.17-4.24,2.52v11.24h-1.63v-10.38c0-2.09-.86-3.38-2.98-3.38-1.57,0-3.35,1.2-4.24,2.55v11.21h-1.6v-14.83h1.6v2.24c.61-.95,2.64-2.61,4.79-2.61,2.3,0,3.53,1.35,3.9,2.8.83-1.38,2.83-2.8,4.91-2.8,2.73,0,4.05,1.54,4.05,4.51v10.69h-1.6.02Z"/>
    <path d="M163.25,959.07v-2.36c-1.04,1.54-2.95,2.73-5.16,2.73-3.93,0-6.63-3.01-6.63-7.77s2.7-7.8,6.63-7.8c2.12,0,3.96,1.07,5.16,2.76v-8.05h1.63v20.48h-1.63ZM163.25,948.02c-.86-1.44-2.8-2.7-4.88-2.7-3.29,0-5.19,2.76-5.19,6.36s1.9,6.33,5.19,6.33c2.09,0,4.02-1.23,4.88-2.64v-7.34h0Z"/>
    <path d="M176.15,943.87c4.51,0,7,3.59,7,7.86v.43h-12.41c.15,3.22,2.3,5.9,5.8,5.9,1.87,0,3.59-.71,4.85-2.06l.83,1.04c-1.47,1.53-3.35,2.4-5.8,2.4-4.33,0-7.43-3.22-7.43-7.8,0-4.3,3.04-7.77,7.16-7.77ZM170.75,950.9h10.78c-.03-2.52-1.69-5.65-5.41-5.65-3.5,0-5.25,3.07-5.37,5.65Z"/>
    <path d="M194.88,955.91c.95,1.2,2.7,2.18,4.79,2.18,2.49,0,3.96-1.23,3.96-2.95,0-1.9-2.03-2.46-4.15-3.01-2.49-.61-5.22-1.26-5.22-4.15,0-2.27,1.94-4.12,5.28-4.12,2.55,0,4.24.98,5.31,2.18l-.89,1.14c-.86-1.17-2.46-1.97-4.42-1.97-2.3,0-3.72,1.14-3.72,2.67,0,1.69,1.91,2.15,3.96,2.67,2.55.64,5.4,1.35,5.4,4.51,0,2.4-1.84,4.36-5.56,4.36-2.4,0-4.24-.71-5.71-2.33l.95-1.2.02.02Z"/>
    <path d="M208.46,951.64c0-4.33,2.8-7.77,7.12-7.77s7.16,3.44,7.16,7.77-2.76,7.8-7.16,7.8-7.12-3.47-7.12-7.8ZM221.02,951.64c0-3.29-1.94-6.33-5.44-6.33s-5.4,3.04-5.4,6.33,1.97,6.36,5.4,6.36,5.44-3.04,5.44-6.36Z"/>
    <path d="M244.51,959.07v-10.38c0-2.09-.89-3.38-2.98-3.38-1.6,0-3.41,1.17-4.24,2.52v11.24h-1.63v-10.38c0-2.09-.86-3.38-2.98-3.38-1.57,0-3.35,1.2-4.24,2.55v11.21h-1.6v-14.83h1.6v2.24c.61-.95,2.64-2.61,4.79-2.61,2.3,0,3.53,1.35,3.9,2.8.83-1.38,2.83-2.8,4.91-2.8,2.73,0,4.05,1.54,4.05,4.51v10.69h-1.6.02Z"/>
    <path d="M258.58,959.07v-20.48h10.78c3.9,0,5.9,2.49,5.9,5.22,0,2.55-1.6,4.3-3.53,4.7,2.21.34,3.93,2.46,3.93,5.01,0,3.1-2.03,5.56-5.96,5.56h-11.12ZM270.8,944.58c0-1.26-.92-2.15-2.4-2.15h-5.47v4.3h5.47c1.47,0,2.4-.83,2.4-2.15h0ZM271.2,952.9c0-1.29-.92-2.33-2.61-2.33h-5.65v4.67h5.65c1.63,0,2.61-.86,2.61-2.33h0Z"/>
    <path d="M290.52,959.07l-4.02-7.28h-3.19v7.28h-4.36v-20.48h9.58c4.27,0,6.91,2.79,6.91,6.6,0,3.59-2.3,5.56-4.51,6.08l4.64,7.8h-5.05ZM290.95,945.16c0-1.69-1.32-2.73-3.04-2.73h-4.61v5.53h4.61c1.72,0,3.04-1.04,3.04-2.8h0Z"/>
    <path d="M298.68,950.87v-12.28h4.42v12.16c0,2.86,1.66,4.82,4.82,4.82s4.79-1.97,4.79-4.82v-12.16h4.45v12.28c0,5.07-3.01,8.57-9.24,8.57s-9.24-3.5-9.24-8.57Z"/>
    <path d="M335.35,959.07l-9.76-13.36v13.36h-4.36v-20.48h4.48l9.49,12.87v-12.87h4.36v20.48h-4.21,0Z"/>
    <path d="M342.63,948.85c0-6.17,4.51-10.59,10.72-10.59s10.69,4.42,10.69,10.59-4.51,10.59-10.69,10.59-10.72-4.42-10.72-10.59ZM359.55,948.85c0-3.84-2.43-6.73-6.2-6.73s-6.23,2.89-6.23,6.73,2.43,6.72,6.23,6.72,6.2-2.92,6.2-6.72Z"/>
    <path d="M373.58,956.19l2.4-3.41c1.44,1.5,3.68,2.79,6.51,2.79,2.43,0,3.56-1.07,3.56-2.27,0-3.56-11.79-1.07-11.79-8.78,0-3.41,2.95-6.23,7.77-6.23,3.25,0,5.96.98,7.98,2.86l-2.43,3.25c-1.66-1.54-3.87-2.24-5.96-2.24-1.84,0-2.89.8-2.89,2.03,0,3.22,11.76,1.04,11.76,8.69,0,3.75-2.7,6.57-8.2,6.57-3.96,0-6.79-1.32-8.72-3.26h0Z"/>
    <path d="M407.58,959.07l-1.29-3.47h-8.78l-1.29,3.47h-4.94l7.89-20.48h5.47l7.89,20.48h-4.95ZM401.9,942.95l-3.19,8.81h6.39l-3.19-8.81h-.01Z"/>
    <path d="M426,959.07l-4.02-7.28h-3.19v7.28h-4.36v-20.48h9.58c4.27,0,6.91,2.79,6.91,6.6,0,3.59-2.3,5.56-4.51,6.08l4.64,7.8h-5.05ZM426.43,945.16c0-1.69-1.32-2.73-3.04-2.73h-4.61v5.53h4.61c1.72,0,3.04-1.04,3.04-2.8h0Z"/>
    <path d="M448.33,959.07l-1.29-3.47h-8.78l-1.29,3.47h-4.94l7.89-20.48h5.47l7.89,20.48h-4.95ZM442.65,942.95l-3.19,8.81h6.39l-3.19-8.81h-.01Z"/>
    <path d="M455.18,959.07v-20.48h4.36v20.48h-4.36Z"/>
    <path d="M469.33,959.07l-7.89-20.48h4.94l5.68,15.72,5.68-15.72h4.94l-7.89,20.48h-5.47.01Z"/>
    <path d="M498.75,959.07l-1.29-3.47h-8.78l-1.29,3.47h-4.94l7.89-20.48h5.47l7.89,20.48h-4.95ZM493.07,942.95l-3.19,8.81h6.39l-3.19-8.81h-.01Z"/>
    <path d="M516.99,952.23c-2.03,0-3.65-1.63-3.65-3.62s1.63-3.65,3.65-3.65,3.65,1.63,3.65,3.65-1.63,3.62-3.65,3.62Z"/>
    <path d="M550.59,959.07v-10.38c0-2.09-.89-3.38-2.98-3.38-1.6,0-3.41,1.17-4.24,2.52v11.24h-1.63v-10.38c0-2.09-.86-3.38-2.98-3.38-1.57,0-3.35,1.2-4.24,2.55v11.21h-1.6v-14.83h1.6v2.24c.61-.95,2.64-2.61,4.79-2.61,2.3,0,3.53,1.35,3.9,2.8.83-1.38,2.83-2.8,4.91-2.8,2.73,0,4.05,1.54,4.05,4.51v10.69h-1.6.02Z"/>
    <path d="M556.73,940.49c0-.68.58-1.23,1.23-1.23s1.23.55,1.23,1.23-.55,1.23-1.23,1.23-1.23-.55-1.23-1.23ZM557.16,959.07v-14.83h1.6v14.83h-1.6Z"/>
    <path d="M563.4,955.91c.95,1.2,2.7,2.18,4.79,2.18,2.49,0,3.96-1.23,3.96-2.95,0-1.9-2.03-2.46-4.15-3.01-2.49-.61-5.22-1.26-5.22-4.15,0-2.27,1.94-4.12,5.28-4.12,2.55,0,4.24.98,5.31,2.18l-.89,1.14c-.86-1.17-2.46-1.97-4.42-1.97-2.3,0-3.72,1.14-3.72,2.67,0,1.69,1.91,2.15,3.96,2.67,2.55.64,5.4,1.35,5.4,4.51,0,2.4-1.84,4.36-5.56,4.36-2.4,0-4.24-.71-5.71-2.33l.95-1.2.02.02Z"/>
    <path d="M578.14,956.22v-10.56h-2.46v-1.41h2.46v-4.05h1.63v4.05h3.01v1.41h-3.01v10.32c0,1.2.49,2.03,1.54,2.03.71,0,1.32-.34,1.66-.71l.61,1.23c-.58.55-1.29.92-2.52.92-1.97,0-2.92-1.2-2.92-3.22h0Z"/>
    <path d="M596.29,959.07v-2.18c-1.23,1.35-3.19,2.55-5.34,2.55-3.04,0-4.67-1.41-4.67-4.76v-10.44h1.6v10.07c0,2.89,1.44,3.68,3.59,3.68,1.9,0,3.84-1.14,4.82-2.46v-11.3h1.6v14.83h-1.6Z"/>
    <path d="M602.86,959.07v-14.83h1.6v2.55c1.26-1.66,2.95-2.86,5-2.86v1.75c-.28-.06-.49-.06-.8-.06-1.51,0-3.53,1.35-4.21,2.64v10.81h-1.6.01Z"/>
    <path d="M622.02,959.07v-1.75c-1.32,1.44-2.98,2.12-5.04,2.12-2.55,0-5.19-1.75-5.19-4.94s2.61-4.91,5.19-4.91c2.06,0,3.75.68,5.04,2.12v-3.01c0-2.21-1.78-3.41-3.99-3.41-1.84,0-3.29.64-4.64,2.18l-.89-1.11c1.54-1.66,3.25-2.49,5.71-2.49,3.01,0,5.4,1.44,5.4,4.76v10.44h-1.6,0ZM622.02,952.9c-1.04-1.35-2.7-2.06-4.48-2.06-2.46,0-4.05,1.57-4.05,3.69s1.6,3.65,4.05,3.65c1.78,0,3.44-.68,4.48-2.03v-3.25Z"/>
    <path d="M647.48,959.07v-2.36c-1.04,1.54-2.95,2.73-5.16,2.73-3.93,0-6.63-3.01-6.63-7.77s2.7-7.8,6.63-7.8c2.12,0,3.96,1.07,5.16,2.76v-8.05h1.63v20.48h-1.63ZM647.48,948.02c-.86-1.44-2.8-2.7-4.88-2.7-3.29,0-5.19,2.76-5.19,6.36s1.9,6.33,5.19,6.33c2.09,0,4.02-1.23,4.88-2.64v-7.34h0Z"/>
    <path d="M660.38,943.87c4.51,0,7,3.59,7,7.86v.43h-12.41c.15,3.22,2.3,5.9,5.8,5.9,1.87,0,3.59-.71,4.85-2.06l.83,1.04c-1.47,1.53-3.35,2.4-5.8,2.4-4.33,0-7.43-3.22-7.43-7.8,0-4.3,3.04-7.77,7.16-7.77ZM654.97,950.9h10.78c-.03-2.52-1.69-5.65-5.41-5.65-3.5,0-5.25,3.07-5.37,5.65h0Z"/>
    <path d="M679.11,955.91c.95,1.2,2.7,2.18,4.79,2.18,2.49,0,3.96-1.23,3.96-2.95,0-1.9-2.03-2.46-4.15-3.01-2.49-.61-5.22-1.26-5.22-4.15,0-2.27,1.94-4.12,5.28-4.12,2.55,0,4.24.98,5.31,2.18l-.89,1.14c-.86-1.17-2.46-1.97-4.42-1.97-2.3,0-3.72,1.14-3.72,2.67,0,1.69,1.91,2.15,3.96,2.67,2.55.64,5.4,1.35,5.4,4.51,0,2.4-1.84,4.36-5.56,4.36-2.4,0-4.24-.71-5.71-2.33l.95-1.2.02.02Z"/>
    <path d="M692.68,951.64c0-4.33,2.8-7.77,7.12-7.77s7.16,3.44,7.16,7.77-2.76,7.8-7.16,7.8-7.12-3.47-7.12-7.8ZM705.24,951.64c0-3.29-1.94-6.33-5.44-6.33s-5.4,3.04-5.4,6.33,1.97,6.36,5.4,6.36,5.44-3.04,5.44-6.36Z"/>
    <path d="M728.74,959.07v-10.38c0-2.09-.89-3.38-2.98-3.38-1.6,0-3.41,1.17-4.24,2.52v11.24h-1.63v-10.38c0-2.09-.86-3.38-2.98-3.38-1.57,0-3.35,1.2-4.24,2.55v11.21h-1.6v-14.83h1.6v2.24c.61-.95,2.64-2.61,4.79-2.61,2.3,0,3.53,1.35,3.9,2.8.83-1.38,2.83-2.8,4.91-2.8,2.73,0,4.05,1.54,4.05,4.51v10.69h-1.6.02Z"/>
    <path d="M760.65,959.07v-14.77l-5.77,14.77h-1.91l-5.77-14.77v14.77h-4.36v-20.48h6.11l4.97,12.8,4.98-12.8h6.14v20.48h-4.39,0Z"/>
    <path d="M769.09,959.07v-20.48h4.36v20.48h-4.36Z"/>
    <path d="M776.52,948.85c0-6.48,4.91-10.59,10.93-10.59,4.24,0,6.91,2.15,8.45,4.58l-3.59,1.97c-.95-1.44-2.7-2.67-4.85-2.67-3.75,0-6.45,2.86-6.45,6.73s2.7,6.72,6.45,6.72c1.81,0,3.5-.8,4.33-1.57v-2.46h-5.4v-3.81h9.76v7.86c-2.09,2.33-5.01,3.84-8.69,3.84-6.02,0-10.93-4.15-10.93-10.59h-.01Z"/>
    <path d="M799.62,950.87v-12.28h4.42v12.16c0,2.86,1.66,4.82,4.82,4.82s4.79-1.97,4.79-4.82v-12.16h4.45v12.28c0,5.07-3.01,8.57-9.24,8.57s-9.24-3.5-9.24-8.57Z"/>
    <path d="M822.16,959.07v-20.48h14.49v3.84h-10.13v4.3h9.92v3.84h-9.92v4.67h10.13v3.84h-14.49Z"/>
    <path d="M839.88,959.07v-20.48h4.39v16.64h8.66v3.84h-13.05Z"/>
    <path d="M862.79,948.85c0-6.33,4.76-10.59,10.93-10.59,4.48,0,7.09,2.43,8.54,5.01l-3.75,1.84c-.86-1.66-2.7-2.98-4.79-2.98-3.75,0-6.45,2.86-6.45,6.73s2.7,6.72,6.45,6.72c2.09,0,3.93-1.32,4.79-2.98l3.75,1.81c-1.44,2.55-4.05,5.04-8.54,5.04-6.17,0-10.93-4.3-10.93-10.59h0Z"/>
    <path d="M883.88,948.85c0-6.17,4.51-10.59,10.72-10.59s10.69,4.42,10.69,10.59-4.51,10.59-10.69,10.59-10.72-4.42-10.72-10.59ZM900.8,948.85c0-3.84-2.43-6.73-6.2-6.73s-6.23,2.89-6.23,6.73,2.43,6.72,6.23,6.72,6.2-2.92,6.2-6.72Z"/>
    <path d="M908.36,959.07v-20.48h14.49v3.84h-10.13v4.3h9.92v3.84h-9.92v4.67h10.13v3.84h-14.49Z"/>
    <path d="M926.08,959.07v-20.48h4.39v16.64h8.66v3.84h-13.05Z"/>
    <path d="M956.11,959.07v-8.63h-9.67v8.63h-4.36v-20.48h4.36v8.05h9.67v-8.05h4.39v20.48h-4.39Z"/>
    <path d="M963.54,948.85c0-6.17,4.51-10.59,10.72-10.59s10.69,4.42,10.69,10.59-4.51,10.59-10.69,10.59-10.72-4.42-10.72-10.59ZM980.46,948.85c0-3.84-2.43-6.73-6.2-6.73s-6.23,2.89-6.23,6.73,2.43,6.72,6.23,6.72,6.2-2.92,6.2-6.72Z"/>
    <path d="M999.41,952.23c-2.03,0-3.65-1.63-3.65-3.62s1.63-3.65,3.65-3.65,3.65,1.63,3.65,3.65-1.63,3.62-3.65,3.62Z"/>
    <path d="M1021.65,943.87c2.58,0,4.05,1.01,5.25,2.52l-1.11.98c-1.08-1.47-2.43-2.06-4.05-2.06-3.47,0-5.59,2.76-5.59,6.33s2.12,6.36,5.59,6.36c1.63,0,2.98-.61,4.05-2.09l1.11.98c-1.2,1.54-2.67,2.55-5.25,2.55-4.36,0-7.22-3.47-7.22-7.8s2.86-7.77,7.22-7.77h0Z"/>
    <path d="M1029.6,951.64c0-4.33,2.8-7.77,7.12-7.77s7.16,3.44,7.16,7.77-2.76,7.8-7.16,7.8-7.12-3.47-7.12-7.8ZM1042.16,951.64c0-3.29-1.94-6.33-5.44-6.33s-5.4,3.04-5.4,6.33,1.97,6.36,5.4,6.36,5.44-3.04,5.44-6.36Z"/>
    <path d="M1048,959.07v-14.83h1.6v2.55c1.26-1.66,2.95-2.86,5-2.86v1.75c-.28-.06-.49-.06-.8-.06-1.51,0-3.53,1.35-4.21,2.64v10.81h-1.6.01Z"/>
    <path d="M1065.23,959.07v-20.48h10.78c3.9,0,5.9,2.49,5.9,5.22,0,2.55-1.6,4.3-3.53,4.7,2.21.34,3.93,2.46,3.93,5.01,0,3.1-2.03,5.56-5.96,5.56h-11.12ZM1077.45,944.58c0-1.26-.92-2.15-2.4-2.15h-5.47v4.3h5.47c1.47,0,2.4-.83,2.4-2.15h0ZM1077.85,952.9c0-1.29-.92-2.33-2.61-2.33h-5.65v4.67h5.65c1.63,0,2.61-.86,2.61-2.33h0Z"/>
    <path d="M1097.16,959.07l-4.02-7.28h-3.19v7.28h-4.36v-20.48h9.58c4.27,0,6.91,2.79,6.91,6.6,0,3.59-2.3,5.56-4.51,6.08l4.64,7.8h-5.05ZM1097.59,945.16c0-1.69-1.32-2.73-3.04-2.73h-4.61v5.53h4.61c1.72,0,3.04-1.04,3.04-2.8h0Z"/>
    <path d="M1105.33,950.87v-12.28h4.42v12.16c0,2.86,1.66,4.82,4.82,4.82s4.79-1.97,4.79-4.82v-12.16h4.45v12.28c0,5.07-3.01,8.57-9.24,8.57s-9.24-3.5-9.24-8.57Z"/>
    <path d="M1142,959.07l-9.76-13.36v13.36h-4.36v-20.48h4.48l9.49,12.87v-12.87h4.36v20.48h-4.21Z"/>
    <path d="M1149.28,948.85c0-6.17,4.51-10.59,10.72-10.59s10.69,4.42,10.69,10.59-4.51,10.59-10.69,10.59-10.72-4.42-10.72-10.59ZM1166.2,948.85c0-3.84-2.43-6.73-6.2-6.73s-6.23,2.89-6.23,6.73,2.43,6.72,6.23,6.72,6.2-2.92,6.2-6.72Z"/>
    <path d="M1193.22,959.07l-4.02-7.28h-3.19v7.28h-4.36v-20.48h9.58c4.27,0,6.91,2.79,6.91,6.6,0,3.59-2.3,5.56-4.51,6.08l4.64,7.8h-5.05ZM1193.65,945.16c0-1.69-1.32-2.73-3.04-2.73h-4.61v5.53h4.61c1.72,0,3.04-1.04,3.04-2.8h0Z"/>
    <path d="M1201.39,959.07v-20.48h14.49v3.84h-10.13v4.3h9.92v3.84h-9.92v4.67h10.13v3.84h-14.49Z"/>
    <path d="M1219.29,959.07v-20.48h4.36v20.48h-4.36Z"/>
    <path d="M1226.29,956.19l2.4-3.41c1.44,1.5,3.68,2.79,6.51,2.79,2.43,0,3.56-1.07,3.56-2.27,0-3.56-11.79-1.07-11.79-8.78,0-3.41,2.95-6.23,7.77-6.23,3.25,0,5.96.98,7.98,2.86l-2.43,3.25c-1.66-1.54-3.87-2.24-5.96-2.24-1.84,0-2.89.8-2.89,2.03,0,3.22,11.76,1.04,11.76,8.69,0,3.75-2.7,6.57-8.2,6.57-3.96,0-6.79-1.32-8.72-3.26h0Z"/>
    <path d="M1253.04,948.85c0-6.17,4.51-10.59,10.72-10.59s10.69,4.42,10.69,10.59-4.51,10.59-10.69,10.59-10.72-4.42-10.72-10.59ZM1269.96,948.85c0-3.84-2.43-6.73-6.2-6.73s-6.23,2.89-6.23,6.73,2.43,6.72,6.23,6.72,6.2-2.92,6.2-6.72Z"/>
    <path d="M1277.33,959.07v-20.48h4.39v16.64h8.66v3.84h-13.05Z"/>
    <path d="M1293.33,959.07v-20.48h4.36v20.48h-4.36Z"/>
    <path d="M1307.49,959.07l-7.89-20.48h4.94l5.68,15.72,5.68-15.72h4.94l-7.89,20.48h-5.47.01Z"/>
    <path d="M1322.75,959.07v-20.48h14.49v3.84h-10.13v4.3h9.92v3.84h-9.92v4.67h10.13v3.84h-14.49Z"/>
    <path d="M1340.66,959.07v-20.48h4.36v20.48h-4.36Z"/>
    <path d="M1360.65,959.07l-4.02-7.28h-3.19v7.28h-4.36v-20.48h9.58c4.27,0,6.91,2.79,6.91,6.6,0,3.59-2.3,5.56-4.51,6.08l4.64,7.8h-5.05ZM1361.07,945.16c0-1.69-1.32-2.73-3.04-2.73h-4.61v5.53h4.61c1.72,0,3.04-1.04,3.04-2.8h0Z"/>
    <path d="M1382.97,959.07l-1.29-3.47h-8.78l-1.29,3.47h-4.94l7.89-20.48h5.47l7.89,20.48h-4.95ZM1377.29,942.95l-3.19,8.81h6.39l-3.19-8.81h-.01Z"/>
    <path d="M1401.21,952.23c-2.03,0-3.65-1.63-3.65-3.62s1.63-3.65,3.65-3.65,3.65,1.63,3.65,3.65-1.63,3.62-3.65,3.62Z"/>
    <path d="M3.38,998.47c1.29,1.54,2.7,2.09,4.91,2.09,2.7,0,5.07-1.35,5.07-4.76v-2.33c-1.04,1.51-2.95,2.76-5.16,2.76-3.93,0-6.63-2.98-6.63-7.74s2.7-7.77,6.63-7.77c2.12,0,3.96,1.07,5.16,2.76v-2.4h1.63v14.68c0,4.55-3.07,6.17-6.69,6.17-2.49,0-4.08-.46-5.84-2.24l.92-1.23h0ZM13.36,984.87c-.86-1.44-2.83-2.7-4.88-2.7-3.29,0-5.19,2.73-5.19,6.33s1.9,6.29,5.19,6.29c2.06,0,4.02-1.26,4.88-2.7v-7.22h0Z"/>
    <path d="M19.93,995.93v-14.83h1.6v2.55c1.26-1.66,2.95-2.86,5-2.86v1.75c-.28-.06-.49-.06-.8-.06-1.51,0-3.53,1.35-4.21,2.64v10.81h-1.6,0Z"/>
    <path d="M39.09,995.93v-1.75c-1.32,1.44-2.98,2.12-5.03,2.12-2.55,0-5.19-1.75-5.19-4.94s2.61-4.91,5.19-4.91c2.06,0,3.74.68,5.03,2.12v-3.01c0-2.21-1.78-3.41-3.99-3.41-1.84,0-3.29.64-4.64,2.18l-.89-1.11c1.54-1.66,3.25-2.49,5.71-2.49,3.01,0,5.4,1.44,5.4,4.76v10.44h-1.6.01ZM39.09,989.75c-1.04-1.35-2.7-2.06-4.48-2.06-2.46,0-4.05,1.57-4.05,3.69s1.6,3.65,4.05,3.65c1.78,0,3.44-.68,4.48-2.03v-3.25h0Z"/>
    <path d="M47.78,995.93h-1.6v-13.42h-2.46v-1.41h2.46v-1.35c0-2.92,1.57-4.61,4.02-4.61.74,0,1.41.12,2,.46l-.49,1.26c-.37-.21-.77-.34-1.35-.34-1.69,0-2.58,1.17-2.58,3.22v1.35h3.01v1.41h-3.01v13.42h0ZM53.37,977.35c0-.68.58-1.23,1.23-1.23s1.23.55,1.23,1.23-.55,1.23-1.23,1.23-1.23-.55-1.23-1.23ZM53.8,995.93v-14.83h1.6v14.83h-1.6Z"/>
    <path d="M60.01,992.76c.95,1.2,2.7,2.18,4.79,2.18,2.49,0,3.96-1.23,3.96-2.95,0-1.9-2.03-2.46-4.15-3.01-2.49-.61-5.22-1.26-5.22-4.15,0-2.27,1.94-4.12,5.28-4.12,2.55,0,4.24.98,5.31,2.18l-.89,1.14c-.86-1.17-2.46-1.97-4.42-1.97-2.3,0-3.72,1.14-3.72,2.67,0,1.69,1.91,2.15,3.96,2.67,2.55.64,5.4,1.35,5.4,4.51,0,2.4-1.84,4.36-5.56,4.36-2.4,0-4.24-.71-5.71-2.33l.95-1.2.02.02Z"/>
    <path d="M92.1,995.93v-10.38c0-2.09-.89-3.38-2.98-3.38-1.6,0-3.41,1.17-4.24,2.52v11.24h-1.63v-10.38c0-2.09-.86-3.38-2.98-3.38-1.57,0-3.35,1.2-4.24,2.55v11.21h-1.6v-14.83h1.6v2.24c.61-.95,2.64-2.61,4.79-2.61,2.3,0,3.53,1.35,3.9,2.8.83-1.38,2.83-2.8,4.91-2.8,2.73,0,4.05,1.54,4.05,4.51v10.69h-1.6.02Z"/>
    <path d="M97.81,988.49c0-4.33,2.8-7.77,7.12-7.77s7.16,3.44,7.16,7.77-2.76,7.8-7.16,7.8-7.12-3.47-7.12-7.8ZM110.37,988.49c0-3.29-1.94-6.33-5.44-6.33s-5.4,3.04-5.4,6.33,1.97,6.36,5.4,6.36,5.44-3.04,5.44-6.36Z"/>
    <path d="M115.87,992.76c.95,1.2,2.7,2.18,4.79,2.18,2.49,0,3.96-1.23,3.96-2.95,0-1.9-2.03-2.46-4.15-3.01-2.49-.61-5.22-1.26-5.22-4.15,0-2.27,1.94-4.12,5.28-4.12,2.55,0,4.24.98,5.31,2.18l-.89,1.14c-.86-1.17-2.46-1.97-4.42-1.97-2.3,0-3.72,1.14-3.72,2.67,0,1.69,1.91,2.15,3.96,2.67,2.55.64,5.4,1.35,5.4,4.51,0,2.4-1.84,4.36-5.56,4.36-2.4,0-4.24-.71-5.71-2.33l.95-1.2.02.02Z"/>
    <path d="M149.34,995.93l-4.02-7.28h-3.19v7.28h-4.36v-20.48h9.58c4.27,0,6.91,2.79,6.91,6.6,0,3.59-2.3,5.56-4.51,6.08l4.64,7.8h-5.05ZM149.77,982.01c0-1.69-1.32-2.73-3.04-2.73h-4.61v5.53h4.61c1.72,0,3.04-1.04,3.04-2.8Z"/>
    <path d="M157.51,995.93v-20.48h4.36v20.48h-4.36Z"/>
    <path d="M170.65,995.93v-16.64h-5.99v-3.84h16.34v3.84h-5.96v16.64h-4.39Z"/>
    <path d="M197.95,995.93l-1.29-3.47h-8.78l-1.29,3.47h-4.94l7.89-20.48h5.47l7.89,20.48h-4.95ZM192.27,979.8l-3.19,8.81h6.39l-3.19-8.81h-.01Z"/>
    <path d="M211.71,985.7c0-6.33,4.76-10.59,10.93-10.59,4.48,0,7.09,2.43,8.54,5.01l-3.75,1.84c-.86-1.66-2.7-2.98-4.79-2.98-3.75,0-6.45,2.86-6.45,6.73s2.7,6.72,6.45,6.72c2.09,0,3.93-1.32,4.79-2.98l3.75,1.81c-1.44,2.55-4.05,5.04-8.54,5.04-6.17,0-10.93-4.3-10.93-10.59h0Z"/>
    <path d="M245.37,995.93l-4.02-7.28h-3.19v7.28h-4.36v-20.48h9.58c4.27,0,6.91,2.79,6.91,6.6,0,3.59-2.3,5.56-4.51,6.08l4.64,7.8h-5.05ZM245.8,982.01c0-1.69-1.32-2.73-3.04-2.73h-4.61v5.53h4.61c1.72,0,3.04-1.04,3.04-2.8Z"/>
    <path d="M253.54,987.73v-12.28h4.42v12.16c0,2.86,1.66,4.82,4.82,4.82s4.79-1.97,4.79-4.82v-12.16h4.45v12.28c0,5.07-3.01,8.57-9.24,8.57s-9.24-3.5-9.24-8.57h0Z"/>
    <path d="M275.34,995.93v-3.53l9.67-13.11h-9.67v-3.84h15.39v3.5l-9.67,13.14h9.89v3.84h-15.61Z"/>
    <path d="M306.88,995.93v-16.64h-5.99v-3.84h16.34v3.84h-5.96v16.64h-4.39Z"/>
    <path d="M334.18,995.93l-1.29-3.47h-8.78l-1.29,3.47h-4.94l7.89-20.48h5.47l7.89,20.48h-4.95ZM328.5,979.8l-3.19,8.81h6.39l-3.19-8.81h-.01Z"/>
    <path d="M346.77,995.93l-7.89-20.48h4.94l5.68,15.72,5.68-15.72h4.94l-7.89,20.48h-5.47.01Z"/>
    <path d="M376.19,995.93l-1.29-3.47h-8.78l-1.29,3.47h-4.94l7.89-20.48h5.47l7.89,20.48h-4.95ZM370.51,979.8l-3.19,8.81h6.39l-3.19-8.81h-.01Z"/>
    <path d="M394.61,995.93l-4.02-7.28h-3.19v7.28h-4.36v-20.48h9.58c4.27,0,6.91,2.79,6.91,6.6,0,3.59-2.3,5.56-4.51,6.08l4.64,7.8h-5.05ZM395.04,982.01c0-1.69-1.32-2.73-3.04-2.73h-4.61v5.53h4.61c1.72,0,3.04-1.04,3.04-2.8Z"/>
    <path d="M402.78,995.93v-20.48h14.49v3.84h-10.13v4.3h9.92v3.84h-9.92v4.67h10.13v3.84h-14.49Z"/>
    <path d="M419.27,993.04l2.4-3.41c1.44,1.5,3.68,2.79,6.51,2.79,2.43,0,3.56-1.07,3.56-2.27,0-3.56-11.79-1.07-11.79-8.78,0-3.41,2.95-6.23,7.77-6.23,3.25,0,5.96.98,7.98,2.86l-2.43,3.25c-1.66-1.54-3.87-2.24-5.96-2.24-1.84,0-2.89.8-2.89,2.03,0,3.22,11.76,1.04,11.76,8.69,0,3.75-2.7,6.57-8.2,6.57-3.96,0-6.79-1.32-8.72-3.26h0Z"/>
    <path d="M453.85,980.72c4.51,0,7,3.59,7,7.86v.43h-12.41c.15,3.22,2.3,5.9,5.8,5.9,1.87,0,3.59-.71,4.85-2.06l.83,1.04c-1.47,1.53-3.35,2.4-5.8,2.4-4.33,0-7.43-3.22-7.43-7.8,0-4.3,3.04-7.77,7.16-7.77h0ZM448.45,987.76h10.78c-.03-2.52-1.69-5.65-5.41-5.65-3.5,0-5.25,3.07-5.37,5.65h0Z"/>
    <path d="M490.24,995.93v-14.77l-5.77,14.77h-1.91l-5.77-14.77v14.77h-4.36v-20.48h6.11l4.97,12.8,4.98-12.8h6.14v20.48h-4.39,0Z"/>
    <path d="M512.85,995.93l-1.29-3.47h-8.78l-1.29,3.47h-4.94l7.89-20.48h5.47l7.89,20.48h-4.95ZM507.17,979.8l-3.19,8.81h6.39l-3.19-8.81h-.01ZM507.41,973.57h-2.73l4.11-4.42h3.59l-4.97,4.42h0Z"/>
    <path d="M531.27,995.93l-4.02-7.28h-3.19v7.28h-4.36v-20.48h9.58c4.27,0,6.91,2.79,6.91,6.6,0,3.59-2.3,5.56-4.51,6.08l4.64,7.8h-5.05ZM531.7,982.01c0-1.69-1.32-2.73-3.04-2.73h-4.61v5.53h4.61c1.72,0,3.04-1.04,3.04-2.8Z"/>
    <path d="M539.44,995.93v-20.48h4.36v20.48h-4.36Z"/>
    <path d="M546.87,985.7c0-6.17,4.51-10.59,10.72-10.59s10.69,4.42,10.69,10.59-4.51,10.59-10.69,10.59-10.72-4.42-10.72-10.59ZM563.79,985.7c0-3.84-2.43-6.73-6.2-6.73s-6.23,2.89-6.23,6.73,2.43,6.72,6.23,6.72,6.2-2.92,6.2-6.72Z"/>
    <path d="M584.98,995.93l-7.89-20.48h4.94l5.68,15.72,5.68-15.72h4.94l-7.89,20.48h-5.47.01Z"/>
    <path d="M600.24,995.93v-20.48h14.49v3.84h-10.13v4.3h9.92v3.84h-9.92v4.67h10.13v3.84h-14.49Z"/>
    <path d="M617.96,995.93v-20.48h4.39v16.64h8.66v3.84h-13.05Z"/>
    <path d="M632.98,985.7c0-6.17,4.51-10.59,10.72-10.59s10.69,4.42,10.69,10.59-4.51,10.59-10.69,10.59-10.72-4.42-10.72-10.59ZM649.9,985.7c0-3.84-2.43-6.73-6.2-6.73s-6.23,2.89-6.23,6.73,2.43,6.72,6.23,6.72,6.2-2.92,6.2-6.72Z"/>
    <path d="M656.04,993.04l2.4-3.41c1.44,1.5,3.68,2.79,6.51,2.79,2.43,0,3.56-1.07,3.56-2.27,0-3.56-11.79-1.07-11.79-8.78,0-3.41,2.95-6.23,7.77-6.23,3.25,0,5.96.98,7.98,2.86l-2.43,3.25c-1.66-1.54-3.87-2.24-5.96-2.24-1.84,0-2.89.8-2.89,2.03,0,3.22,11.76,1.04,11.76,8.69,0,3.75-2.7,6.57-8.2,6.57-3.96,0-6.79-1.32-8.72-3.26h0Z"/>
    <path d="M674.9,985.7c0-6.17,4.51-10.59,10.72-10.59s10.69,4.42,10.69,10.59-4.51,10.59-10.69,10.59-10.72-4.42-10.72-10.59ZM691.82,985.7c0-3.84-2.43-6.73-6.2-6.73s-6.23,2.89-6.23,6.73,2.43,6.72,6.23,6.72,6.2-2.92,6.2-6.72Z"/>
    <path d="M710.77,989.08c-2.03,0-3.65-1.63-3.65-3.62s1.63-3.65,3.65-3.65,3.65,1.63,3.65,3.65-1.63,3.62-3.65,3.62Z"/>
  </g>
  <g>
    <g>
      <path d="M18.2,281.23v-3.41c-1.85,2.1-5.01,4.01-8.61,4.01-5.06,0-7.71-2.45-7.71-7.71v-17.08h3.76v15.93c0,4.26,2.15,5.51,5.41,5.51,2.95,0,5.76-1.7,7.16-3.66v-17.78h3.76v24.19h-3.77Z"/>
      <path d="M58.68,281.23v-16.43c0-3.05-1.35-5.01-4.46-5.01-2.5,0-5.16,1.8-6.41,3.71v17.73h-3.76v-16.43c0-3.05-1.3-5.01-4.46-5.01-2.45,0-5.06,1.8-6.36,3.76v17.68h-3.76v-24.19h3.76v3.51c1-1.55,4.26-4.11,7.81-4.11s5.81,2,6.51,4.51c1.35-2.2,4.61-4.51,8.11-4.51,4.41,0,6.76,2.45,6.76,7.31v17.48h-3.76.02Z"/>
      <path d="M83.93,281.23v-20.89h-4.01v-3.31h4.01v-1.85c0-5.01,2.81-7.86,7.01-7.86,1.4,0,2.7.25,3.66.85l-.95,2.85c-.55-.35-1.2-.6-2.15-.6-2.45,0-3.81,1.7-3.81,4.76v1.85h4.91v3.31h-4.91v20.89h-3.76ZM96.4,251.08c0-1.4,1.15-2.55,2.51-2.55s2.55,1.15,2.55,2.55-1.15,2.5-2.55,2.5-2.51-1.1-2.51-2.5ZM97.05,281.23v-24.19h3.76v24.19h-3.76Z"/>
      <path d="M108.37,281.23v-33.41h3.76v33.41h-3.76Z"/>
      <path d="M148.84,281.23v-16.43c0-3.05-1.35-5.01-4.46-5.01-2.5,0-5.16,1.8-6.41,3.71v17.73h-3.76v-16.43c0-3.05-1.3-5.01-4.46-5.01-2.45,0-5.06,1.8-6.36,3.76v17.68h-3.76v-24.19h3.76v3.51c1-1.55,4.26-4.11,7.81-4.11s5.81,2,6.51,4.51c1.35-2.2,4.61-4.51,8.11-4.51,4.41,0,6.76,2.45,6.76,7.31v17.48h-3.76.02Z"/>
      <path d="M158.71,269.11c0-7.01,5.01-12.67,11.92-12.67,7.31,0,11.62,5.71,11.62,12.97v.95h-19.58c.3,4.56,3.51,8.36,8.71,8.36,2.75,0,5.56-1.1,7.46-3.05l1.8,2.45c-2.4,2.4-5.66,3.71-9.62,3.71-7.16,0-12.32-5.16-12.32-12.72h.01ZM170.59,259.54c-5.16,0-7.71,4.36-7.91,8.06h15.88c-.05-3.61-2.45-8.06-7.96-8.06h-.01Z"/>
      <path d="M218.77,281.23v-3.61c-1.8,2.45-4.76,4.21-8.16,4.21-6.31,0-10.77-4.81-10.77-12.67s4.41-12.72,10.77-12.72c3.25,0,6.21,1.6,8.16,4.26v-12.87h3.76v33.41h-3.76ZM218.77,274.67v-10.97c-1.35-2.1-4.26-3.91-7.26-3.91-4.86,0-7.76,4.01-7.76,9.37s2.9,9.32,7.76,9.32c3.01,0,5.91-1.7,7.26-3.81Z"/>
      <path d="M228.64,269.11c0-7.01,5.01-12.67,11.92-12.67,7.31,0,11.62,5.71,11.62,12.97v.95h-19.58c.3,4.56,3.51,8.36,8.71,8.36,2.75,0,5.56-1.1,7.46-3.05l1.8,2.45c-2.4,2.4-5.66,3.71-9.62,3.71-7.16,0-12.32-5.16-12.32-12.72h.01ZM240.51,259.54c-5.16,0-7.71,4.36-7.91,8.06h15.88c-.05-3.61-2.45-8.06-7.96-8.06h-.01Z"/>
    </g>
    <g>
      <path d="M30.47,335.28v-24.09l-9.42,24.09h-3.11l-9.41-24.09v24.09H1.42v-33.41h9.97l8.11,20.89,8.11-20.89h10.02v33.41h-7.16,0Z"/>
      <path d="M67.34,335.28l-2.1-5.66h-14.32l-2.1,5.66h-8.06l12.87-33.41h8.91l12.87,33.41h-8.07ZM58.08,308.98l-5.21,14.37h10.42l-5.21-14.37h0ZM58.48,298.82h-4.46l6.71-7.21h5.86l-8.11,7.21Z"/>
      <path d="M97.4,335.28l-6.56-11.87h-5.21v11.87h-7.11v-33.41h15.63c6.96,0,11.27,4.56,11.27,10.77,0,5.86-3.76,9.07-7.36,9.92l7.56,12.72h-8.22ZM98.1,312.59c0-2.76-2.15-4.46-4.96-4.46h-7.51v9.02h7.51c2.8,0,4.96-1.7,4.96-4.56Z"/>
      <path d="M110.73,335.28v-33.41h7.11v33.41h-7.11Z"/>
      <path d="M122.85,318.6c0-10.07,7.36-17.28,17.48-17.28s17.43,7.21,17.43,17.28-7.36,17.28-17.43,17.28-17.48-7.21-17.48-17.28ZM150.44,318.6c0-6.26-3.96-10.97-10.12-10.97s-10.17,4.71-10.17,10.97,3.96,10.97,10.17,10.97,10.12-4.76,10.12-10.97Z"/>
      <path d="M185.01,335.28l-12.87-33.41h8.06l9.27,25.64,9.27-25.64h8.07l-12.87,33.41h-8.93Z"/>
      <path d="M209.91,335.28v-33.41h23.64v6.26h-16.53v7.01h16.18v6.26h-16.18v7.61h16.53v6.26h-23.64Z"/>
      <path d="M238.81,335.28v-33.41h7.16v27.15h14.12v6.26h-21.29.01Z"/>
      <path d="M261.95,318.6c0-10.07,7.36-17.28,17.48-17.28s17.43,7.21,17.43,17.28-7.36,17.28-17.43,17.28-17.48-7.21-17.48-17.28ZM289.55,318.6c0-6.26-3.96-10.97-10.12-10.97s-10.17,4.71-10.17,10.97,3.96,10.97,10.17,10.97,10.12-4.76,10.12-10.97Z"/>
      <path d="M299.57,330.57l3.91-5.56c2.35,2.45,6.01,4.56,10.62,4.56,3.96,0,5.81-1.75,5.81-3.71,0-5.81-19.23-1.75-19.23-14.32,0-5.56,4.81-10.17,12.67-10.17,5.31,0,9.72,1.6,13.02,4.66l-3.96,5.31c-2.71-2.5-6.31-3.66-9.72-3.66-3,0-4.71,1.3-4.71,3.31,0,5.26,19.18,1.7,19.18,14.17,0,6.11-4.41,10.72-13.37,10.72-6.46,0-11.07-2.15-14.23-5.31h.01Z"/>
      <path d="M330.33,318.6c0-10.07,7.36-17.28,17.48-17.28s17.43,7.21,17.43,17.28-7.36,17.28-17.43,17.28-17.48-7.21-17.48-17.28ZM357.93,318.6c0-6.26-3.96-10.97-10.12-10.97s-10.17,4.71-10.17,10.97,3.96,10.97,10.17,10.97,10.12-4.76,10.12-10.97Z"/>
    </g>
  </g>
</svg>