<?xml version="1.0" encoding="UTF-8"?>
<svg id="Camada_1" data-name="Camada 1" xmlns="http://www.w3.org/2000/svg" viewBox="0 0 736.95 265.04">
  <path d="M.31,30.49l-.12-1.67,2.41-.62c.03-.1.05-.32.08-.66s.05-.79.08-1.34c.02-.56.04-1.21.04-1.96l.04-2.96c0-.8-.03-1.55-.08-2.23-.05-.69-.14-1.33-.27-1.93l-2.49-.55v-1.59l6.26-1.67.89.62-.16,3.11.12.04c.75-1.45,1.52-2.44,2.29-2.96.78-.52,1.55-.78,2.33-.78.67,0,1.25.18,1.73.54s.72.92.72,1.67-.26,1.34-.78,1.75-1.14.62-1.87.62c-.57,0-1.1-.1-1.58-.31s-.98-.56-1.5-1.05l.97.12c-.41.31-.82.71-1.21,1.19s-.74,1.04-1.05,1.69l.04,3.23c.03.86.05,1.65.08,2.39.03.74.05,1.37.08,1.91.02.53.05.9.08,1.11l3.38.54-.12,1.75H.28s.03,0,.03,0Z"/>
  <path d="M23.65,30.8c-1.61,0-3.05-.36-4.34-1.09-1.28-.73-2.29-1.73-3.01-3.01-.73-1.28-1.09-2.75-1.09-4.41,0-1.82.4-3.4,1.2-4.76.8-1.36,1.86-2.42,3.15-3.19,1.3-.77,2.68-1.14,4.16-1.11,2.25.02,3.98.74,5.17,2.14,1.19,1.4,1.79,3.23,1.79,5.48v.85h-11.51v-1.94h8.09l-.54.82v-1.17c0-1.3-.29-2.32-.87-3.07s-1.39-1.13-2.43-1.13c-.67,0-1.29.19-1.85.58s-1.01.97-1.34,1.75c-.34.78-.5,1.75-.5,2.92v.7c0,1.92.5,3.44,1.5,4.57s2.33,1.69,3.99,1.69c.88,0,1.68-.16,2.39-.49s1.42-.88,2.12-1.65l1.13,1.01c-.73,1.5-1.72,2.63-3,3.38s-2.67,1.13-4.2,1.13c0,0-.01,0,0,0Z"/>
  <path d="M40.91,27.65c.44,0,.86-.08,1.26-.25.4-.17.77-.45,1.11-.84v-3.89l-3.19.7c-.62.13-1.07.35-1.34.66s-.41.73-.41,1.24c0,.62.25,1.17.76,1.65s1.11.72,1.81.72h0ZM39.24,30.8c-1.17,0-2.17-.25-3.01-.74s-1.49-1.09-1.92-1.79c-.44-.7-.66-1.37-.66-2.02,0-.91.29-1.67.86-2.27.57-.61,1.48-1.11,2.72-1.5l6.07-1.87v-1.59c0-.57-.18-1.1-.54-1.59s-.84-.89-1.44-1.2-1.24-.47-1.94-.47c-.49,0-.83.11-1.03.33-.19.22-.32.66-.37,1.3l-.16,2.1c-1.17.26-2.13.23-2.9-.1-.76-.33-1.15-.86-1.15-1.61,0-.47.23-.95.7-1.44s1.06-.96,1.77-1.4,1.46-.82,2.24-1.13,1.49-.5,2.14-.58c2.21,0,3.95.52,5.23,1.55,1.28,1.04,1.94,2.42,1.96,4.16l-.12,5.72c0,.68.02,1.23.06,1.65.04.43.11.77.21,1.03l2.53.47v1.48l-2.29.97c-.44.18-.85.32-1.23.41s-.72.14-1.03.14c-.93,0-1.58-.49-1.94-1.48l-.58-1.71.74.15c-.8.96-1.62,1.71-2.45,2.24-.83.53-1.65.8-2.45.8h-.02Z"/>
  <path d="M51.65,30.49l-.12-1.71,2.53-.58c.05-.23.09-.69.12-1.36s.05-1.5.08-2.47.04-1.99.04-3.05v-4.9c0-.91,0-1.84-.02-2.78,0-.95-.03-1.85-.04-2.7,0-.86-.03-1.62-.06-2.28-.02-.66-.05-1.17-.08-1.54l-2.88-.39-.08-1.52,6.84-1.79.97.62c-.03,1.09-.06,2.16-.1,3.21s-.06,2.22-.08,3.52c0,1.3-.02,2.88-.02,4.75l-.04,5.91c0,1.71.02,3.21.06,4.49s.08,2.04.14,2.27l2.53.58-.08,1.71h-9.72.01Z"/>
  <path d="M67.75,9.68c-.91,0-1.63-.28-2.18-.84-.54-.56-.82-1.22-.82-2s.27-1.41.82-1.98c.54-.57,1.27-.86,2.18-.86s1.62.29,2.14.86.78,1.23.78,1.98-.26,1.44-.78,2-1.23.84-2.14.84h0ZM62.81,30.49l-.12-1.71,2.61-.58c.03-.1.05-.32.08-.66s.05-.79.08-1.34c.03-.56.04-1.21.04-1.96l.04-2.96c0-.8-.03-1.55-.08-2.23-.05-.69-.14-1.33-.27-1.92l-2.61-.55v-1.59l6.69-1.67.89.66c-.08.8-.14,1.61-.18,2.43-.04.82-.06,1.76-.06,2.82v4.9c0,.96.02,1.83.06,2.61.04.77.1,1.27.18,1.48l2.61.58-.12,1.71h-9.84s0-.02,0-.02Z"/>
  <path d="M79.8,29.79l-.15-1.44h4.82c.44,0,.88-.02,1.32-.06s.87-.07,1.28-.1l1.05-3.38h2.29l-.74,5.76c-.65-.05-1.33-.08-2.04-.08h-9.08c-.54,0-1.1,0-1.67.02-.57.01-1.13.04-1.67.1v-1.63l9.76-14.74-.04,1.4h-4.43c-.6,0-1.13.01-1.59.04-.47.03-.89.06-1.28.12l-.54,3.19h-2.22l-.08-5.48c.67.03,1.36.04,2.06.04h9.14c.54,0,1.1,0,1.67-.02.57-.01,1.14-.03,1.71-.06v1.63l-9.57,14.7h0Z"/>
  <path d="M100.1,27.65c.44,0,.86-.08,1.26-.25s.77-.45,1.11-.84v-3.89l-3.19.7c-.62.13-1.07.35-1.34.66s-.41.73-.41,1.24c0,.62.25,1.17.76,1.65s1.11.72,1.81.72h0ZM98.43,30.8c-1.17,0-2.17-.25-3.01-.74s-1.49-1.09-1.93-1.79-.66-1.37-.66-2.02c0-.91.29-1.67.86-2.27.57-.61,1.48-1.11,2.72-1.5l6.07-1.87v-1.59c0-.57-.18-1.1-.55-1.59-.36-.49-.84-.89-1.44-1.2s-1.24-.47-1.94-.47c-.49,0-.84.11-1.03.33s-.32.66-.37,1.3l-.16,2.1c-1.17.26-2.13.23-2.9-.1-.76-.33-1.15-.86-1.15-1.61,0-.47.23-.95.7-1.44s1.06-.96,1.77-1.4,1.46-.82,2.24-1.13,1.49-.5,2.14-.58c2.2,0,3.95.52,5.23,1.55,1.28,1.04,1.94,2.42,1.96,4.16l-.12,5.72c0,.68.02,1.23.06,1.65.04.43.11.77.21,1.03l2.53.47v1.48l-2.29.97c-.44.18-.85.32-1.23.41s-.72.14-1.03.14c-.93,0-1.58-.49-1.94-1.48l-.58-1.71.74.15c-.8.96-1.62,1.71-2.45,2.24-.83.53-1.65.8-2.45.8h0Z"/>
  <path d="M119.28,39.16c-.65,0-1.3-.09-1.94-.27-.65-.18-1.24-.43-1.79-.74l.82-1.63c.44.26.91.48,1.42.66s1.02.27,1.54.27c.57,0,1.02-.14,1.34-.41s.49-.62.49-1.03c0-.52-.27-.92-.8-1.2-.53-.29-1.25-.38-2.16-.27l-.66-.74,2.25-3.77h2.18l-2.49,3.27.19-1.09c1.3,0,2.37.29,3.23.86s1.28,1.36,1.28,2.37c0,1.06-.47,1.95-1.42,2.66s-2.11,1.07-3.48,1.07h0ZM120.02,30.8c-1.58,0-3.01-.35-4.3-1.05-1.28-.7-2.31-1.69-3.07-2.96s-1.15-2.74-1.15-4.4.4-3.18,1.21-4.57c.8-1.39,1.91-2.5,3.32-3.34s3.03-1.26,4.84-1.26c1.14,0,2.15.15,3.03.45s1.57.71,2.06,1.23.74,1.09.74,1.71c0,.57-.18,1.01-.54,1.32s-.82.47-1.36.47c-.47,0-.88-.09-1.23-.27s-.76-.48-1.22-.89l-2.57-2.33,1.79.43c-.85-.18-1.68-.07-2.49.33-.8.4-1.46,1.07-1.98,2-.52.93-.78,2.13-.78,3.58,0,2.02.5,3.55,1.5,4.59s2.24,1.55,3.71,1.55c.8,0,1.56-.16,2.27-.49.71-.32,1.41-.89,2.08-1.69l1.2,1.05c-.73,1.5-1.72,2.64-2.98,3.4s-2.62,1.15-4.1,1.15h.02Z"/>
  <path d="M142.3,5.52l1.52.89c-.39,1.27-.95,2.28-1.69,3.03s-1.6,1.13-2.59,1.13c-.65,0-1.32-.16-2.02-.49-.7-.32-1.37-.65-2.02-.99s-1.24-.5-1.79-.5-.95.16-1.3.49c-.35.32-.71.78-1.07,1.38l-1.52-.89c.39-1.3.96-2.31,1.71-3.05s1.61-1.11,2.57-1.11c.65,0,1.32.17,2.02.51.7.34,1.38.67,2.04.99.66.33,1.25.49,1.77.49s.96-.16,1.32-.49c.36-.32.71-.78,1.05-1.38h0ZM136.54,27.65c.44,0,.86-.08,1.26-.25s.77-.45,1.11-.84v-3.89l-3.19.7c-.62.13-1.07.35-1.34.66s-.41.73-.41,1.24c0,.62.25,1.17.76,1.65s1.11.72,1.81.72h0ZM134.87,30.8c-1.17,0-2.17-.25-3.01-.74s-1.49-1.09-1.93-1.79-.66-1.37-.66-2.02c0-.91.29-1.67.86-2.27.57-.61,1.48-1.11,2.72-1.5l6.07-1.87v-1.59c0-.57-.18-1.1-.54-1.59s-.84-.89-1.44-1.2-1.24-.47-1.94-.47c-.49,0-.84.11-1.03.33s-.32.66-.37,1.3l-.16,2.1c-1.17.26-2.13.23-2.9-.1-.76-.33-1.15-.86-1.15-1.61,0-.47.23-.95.7-1.44s1.06-.96,1.77-1.4,1.46-.82,2.24-1.13,1.49-.5,2.14-.58c2.2,0,3.95.52,5.23,1.55,1.28,1.04,1.94,2.42,1.96,4.16l-.12,5.72c0,.68.02,1.23.06,1.65.04.43.11.77.21,1.03l2.53.47v1.48l-2.29.97c-.44.18-.85.32-1.23.41s-.72.14-1.03.14c-.93,0-1.58-.49-1.94-1.48l-.58-1.71.74.15c-.8.96-1.62,1.71-2.45,2.24-.83.53-1.65.8-2.45.8h-.01Z"/>
  <path d="M157.23,28.55c.73,0,1.35-.23,1.87-.68.52-.45.92-1.11,1.2-1.96.29-.85.43-1.85.43-2.99,0-2.23-.39-4.05-1.17-5.44-.78-1.4-1.82-2.1-3.11-2.1-1.12,0-2,.53-2.66,1.59-.66,1.06-.99,2.48-.99,4.24,0,1.4.19,2.66.58,3.77.39,1.12.91,1.99,1.57,2.63s1.42.95,2.28.95h0ZM156.84,30.8c-1.76,0-3.31-.37-4.65-1.11-1.33-.74-2.38-1.76-3.13-3.07s-1.13-2.81-1.13-4.49c0-1.84.42-3.43,1.26-4.76.84-1.34,1.96-2.36,3.34-3.07,1.39-.71,2.87-1.07,4.45-1.07,1.69,0,3.17.36,4.45,1.09s2.28,1.74,2.99,3.03c.71,1.3,1.07,2.79,1.07,4.47s-.39,3.21-1.17,4.57-1.82,2.44-3.13,3.23-2.77,1.19-4.38,1.19h.03Z"/>
  <path d="M183.99,7.66h7.74l8.13,17.66h-1.01l7.54-17.66h7.54l.12,1.79-2.45.55c-.02.26-.02.82,0,1.67.03.86.05,1.97.08,3.34l.23,6.92c.05,1.14.1,2.15.14,3.01.04.87.08,1.57.12,2.1s.07.89.1,1.07l2.45.58-.12,1.79h-9.84l-.12-1.79,2.45-.58c.03-.13.05-.42.06-.87s.02-1.1.02-1.94,0-1.89-.04-3.13l-.12-13.38h1.52l-9.3,21.82h-2.06l-10.11-21.82h1.91l.04,13.3c0,2.05,0,3.51.04,4.39s.05,1.43.08,1.63l2.68.58-.12,1.79h-8.24l-.12-1.79,2.68-.58c.03-.18.05-.54.08-1.07s.05-1.19.08-1.96c.03-.78.04-1.62.04-2.53l.12-7.47c.02-1.45.03-2.57.02-3.37,0-.79-.02-1.35-.02-1.69l-2.45-.58.12-1.79h0Z"/>
  <path d="M228.4,5.83l-2.1-.7,3.31-5.13,4.01.89-5.21,4.94h0,0ZM222.02,23.68v-2.45c.49.03,1.1.06,1.81.1s1.63.06,2.74.06,2-.02,2.74-.06,1.34-.07,1.81-.1v2.41c-.62,0-1.3-.01-2.04-.04-.74-.03-1.57-.04-2.51-.04s-1.76.01-2.49.04c-.73.02-1.41.05-2.06.08h0ZM216.11,30.49l-.12-1.79,1.98-.58,7.93-19.48,2.92-1.67,8.83,21.16,1.98.58-.12,1.79h-9.57l-.12-1.79,2.45-.58-2.18-5.29-.43-1.28-4.01-9.61,1.05.04-3.5,9.49-.39,1.17-1.91,5.48,2.45.58-.12,1.79h-7.15.03,0Z"/>
  <path d="M260.8,30.92c-1.35,0-2.55-.23-3.62-.68-1.06-.45-2.03-1.17-2.9-2.16s-1.71-2.27-2.51-3.85l-2.33-4.78,3.85-.89,4.47,6.38c.62.85,1.21,1.56,1.75,2.12s1.1.99,1.67,1.3,1.18.54,1.83.7l-.04,1.67c-.36.08-.73.13-1.09.15-.36.03-.73.04-1.09.04h0ZM241.08,30.49l-.12-1.79,2.45-.62c0-.16,0-.45.02-.87,0-.43.02-.93.04-1.5,0-.57.03-1.16.04-1.77s.02-1.19.02-1.73v-6.22c0-1.12,0-2.1-.04-2.96s-.06-1.54-.1-2.06-.08-.83-.14-.93l-2.45-.58.12-1.79h9.61c2.8,0,4.89.47,6.26,1.42,1.37.95,2.06,2.4,2.06,4.37,0,1.27-.38,2.41-1.13,3.4-.75,1-1.79,1.78-3.11,2.35s-2.84.86-4.55.86h-2.37v-2.06h1.79c1.35,0,2.44-.4,3.27-1.21.83-.8,1.24-1.88,1.24-3.23,0-1.27-.35-2.24-1.05-2.9s-1.71-.99-3.03-.99h-1.71c-.03.08-.05.27-.06.56,0,.3-.02.69-.02,1.19v10.77c0,.8,0,1.61.02,2.41,0,.8.04,1.52.08,2.14.04.62.07,1.06.1,1.32l2.22.62-.12,1.79h-9.34Z"/>
  <path d="M264.37,30.49l-.12-1.79,2.45-.59c.05-.13.09-.45.12-.97s.05-1.2.08-2.06c.03-.85.04-1.82.04-2.88v-6.22c0-1.12-.01-2.1-.04-2.96-.02-.86-.05-1.55-.08-2.08-.02-.53-.06-.84-.12-.91l-2.45-.59.12-1.79h9.76l.12,1.79-2.45.59c-.05.1-.1.41-.14.93s-.06,1.21-.08,2.06c-.01.85-.02,1.84-.02,2.96v6.22c0,1.06,0,2.02.02,2.88.01.86.04,1.54.08,2.06.04.52.08.84.14.97l2.45.59-.12,1.79s-9.76,0-9.76,0Z"/>
  <path d="M289.81,28.19c1.27,0,2.35-.33,3.23-.99s1.55-1.62,2-2.88.68-2.77.68-4.53c0-2.05-.28-3.83-.83-5.35-.56-1.52-1.33-2.7-2.31-3.54-.99-.84-2.15-1.26-3.5-1.26-1.89,0-3.39.77-4.49,2.31s-1.65,3.66-1.65,6.36c0,1.94.3,3.66.89,5.13.6,1.48,1.41,2.64,2.43,3.48s2.21,1.26,3.56,1.26h-.01ZM289.49,30.84c-2.33,0-4.41-.49-6.22-1.48-1.81-.98-3.24-2.35-4.28-4.08-1.04-1.74-1.55-3.73-1.55-5.99s.52-4.36,1.55-6.16c1.04-1.8,2.47-3.22,4.3-4.26s3.91-1.56,6.24-1.56,4.28.49,6.01,1.46c1.72.97,3.08,2.32,4.08,4.05,1,1.72,1.5,3.73,1.5,6.01,0,1.92-.35,3.62-1.05,5.11s-1.61,2.75-2.74,3.77-2.37,1.8-3.73,2.33-2.73.8-4.1.8h-.01,0Z"/>
  <polygon points="321.07 30.61 312.24 10.04 310.26 9.41 310.38 7.66 319.91 7.66 320.02 9.45 317.61 10.04 324.15 25.75 322.78 25.75 328.77 10.04 326.05 9.45 326.17 7.66 333.91 7.66 334.02 9.41 332.04 10.04 323.02 30.61 321.07 30.61 321.07 30.61"/>
  <path d="M348.84,22.63l-.39-2.61c-.18-.02-.45-.05-.82-.08-.36-.03-.79-.04-1.28-.04h-2.29c-.41,0-.82.01-1.22.04-.4.02-.74.05-1.03.08v-2.53c.29.03.63.04,1.03.06.4.01.81.02,1.22.02h2.29c.49,0,.92,0,1.28-.02.36-.01.63-.02.82-.02l.39-2.64h2.02v7.74s-2.02,0-2.02,0ZM353.62,30.72c-.7-.08-1.5-.14-2.41-.18s-1.72-.06-2.45-.06h-13.38l-.12-1.79,2.45-.58c.05-.13.1-.45.14-.97.04-.52.07-1.2.1-2.04.02-.84.04-1.81.04-2.9v-6.22c0-1.12-.01-2.1-.04-2.96s-.06-1.54-.1-2.06-.08-.83-.14-.93l-2.45-.58.12-1.79h12.17c.47,0,1.02,0,1.65-.02.64-.01,1.27-.04,1.9-.08.64-.04,1.2-.07,1.69-.1l.93,5.56-2.1.27-1.4-3.34c-.31-.05-.6-.09-.86-.12s-.54-.04-.85-.04h-3.38c-.49,0-.95,0-1.38.02-.43.01-.8.04-1.11.1,0,.15,0,.45-.02.89-.01.44-.03.98-.04,1.63s-.02,1.36-.02,2.14v8.91c0,.75,0,1.43.02,2.04.01.61.03,1.13.04,1.55.01.43.02.75.02.95.44.05.89.09,1.36.12.47.02,1.05.04,1.75.04h2.61c.65,0,1.14,0,1.48-.02.34-.01.59-.03.76-.06.17-.02.35-.05.53-.08l2.14-3.81,2.06.39-1.71,6.11h0Z"/>
  <path d="M375.13,30.72c-.6-.05-1.23-.09-1.91-.12-.67-.02-1.32-.05-1.92-.08-.61-.03-1.12-.04-1.54-.04h-11.98l-.12-1.79,2.45-.58c.05-.13.09-.47.12-1.01s.05-1.24.06-2.1c.01-.85.02-1.79.02-2.8v-6.22c0-1.06,0-2.02-.02-2.86-.01-.84-.03-1.54-.06-2.08-.02-.54-.06-.87-.12-.97l-2.45-.62.12-1.79h10.54l.12,1.87-3.23.54c-.02.08-.06.37-.1.88-.04.5-.07,1.19-.1,2.04-.03.86-.04,1.85-.04,2.99v6.22c0,1.45.01,2.65.04,3.6s.05,1.58.08,1.89c.41.08.85.13,1.3.15.45.03,1.01.04,1.65.04h1.83c.6,0,1.12-.03,1.55-.08.44-.05.82-.1,1.13-.16l2.14-4.12,2.22.58-1.79,6.61h.01Z"/>
  <path d="M390.92,28.19c1.27,0,2.35-.33,3.23-.99s1.55-1.62,2-2.88.68-2.77.68-4.53c0-2.05-.28-3.83-.84-5.35s-1.33-2.7-2.31-3.54c-.99-.84-2.15-1.26-3.5-1.26-1.89,0-3.39.77-4.49,2.31s-1.65,3.66-1.65,6.36c0,1.94.3,3.66.89,5.13.6,1.48,1.41,2.64,2.43,3.48s2.21,1.26,3.56,1.26h0ZM390.61,30.84c-2.33,0-4.41-.49-6.22-1.48-1.82-.98-3.24-2.35-4.28-4.08-1.04-1.74-1.56-3.73-1.56-5.99s.52-4.36,1.56-6.16c1.04-1.8,2.47-3.22,4.3-4.26s3.91-1.56,6.24-1.56,4.28.49,6.01,1.46,3.09,2.32,4.08,4.05c1,1.72,1.5,3.73,1.5,6.01,0,1.92-.35,3.62-1.05,5.11s-1.61,2.75-2.74,3.77-2.37,1.8-3.73,2.33-2.73.8-4.1.8h-.01,0Z"/>
  <path d="M412.89,30.84c-1.12,0-2.31-.15-3.58-.45-1.27-.3-2.35-.69-3.23-1.18l-.19-5.52,2.22-.16,1.28,3.81c.57.39,1.22.68,1.94.87.73.19,1.43.29,2.1.29,1.22,0,2.16-.27,2.82-.8.66-.53.99-1.25.99-2.16s-.27-1.65-.82-2.21c-.54-.57-1.24-1.06-2.1-1.48-.86-.41-1.76-.82-2.72-1.21s-1.87-.85-2.72-1.4c-.86-.54-1.56-1.23-2.1-2.06s-.82-1.88-.82-3.15c0-1.35.38-2.53,1.15-3.56.76-1.02,1.84-1.82,3.21-2.39s2.97-.86,4.78-.86c.62,0,1.27.04,1.94.12.68.08,1.32.19,1.94.35.62.15,1.17.34,1.63.54l.39,5.41-2.22.15-1.2-3.61c-.83-.47-1.79-.7-2.88-.7-1.17,0-2.11.29-2.82.85-.71.57-1.07,1.35-1.07,2.34,0,.88.27,1.61.82,2.2.54.58,1.25,1.09,2.12,1.52s1.79.84,2.76,1.24,1.89.87,2.76,1.4,1.57,1.2,2.12,2,.82,1.82.82,3.03c0,1.3-.39,2.45-1.17,3.48-.78,1.02-1.87,1.83-3.27,2.41s-3.03.87-4.9.87h0l.02.02h0Z"/>
  <path d="M437.47,28.19c1.27,0,2.35-.33,3.23-.99s1.55-1.62,2-2.88.68-2.77.68-4.53c0-2.05-.28-3.83-.84-5.35s-1.33-2.7-2.31-3.54c-.99-.84-2.15-1.26-3.5-1.26-1.89,0-3.39.77-4.49,2.31s-1.65,3.66-1.65,6.36c0,1.94.3,3.66.89,5.13.6,1.48,1.41,2.64,2.43,3.48s2.21,1.26,3.56,1.26h0ZM437.16,30.84c-2.33,0-4.41-.49-6.22-1.48-1.82-.98-3.24-2.35-4.28-4.08-1.04-1.74-1.56-3.73-1.56-5.99s.52-4.36,1.56-6.16c1.04-1.8,2.47-3.22,4.3-4.26s3.91-1.56,6.24-1.56,4.28.49,6.01,1.46c1.72.97,3.09,2.32,4.08,4.05,1,1.72,1.5,3.73,1.5,6.01,0,1.92-.35,3.62-1.05,5.11s-1.61,2.75-2.74,3.77-2.37,1.8-3.73,2.33-2.73.8-4.1.8h-.01,0Z"/>
  <path d="M10.04,83.87c.52,0,1.06-.14,1.63-.41s1.1-.74,1.59-1.42v-8.51c-.41-.62-.91-1.06-1.48-1.32s-1.14-.39-1.71-.39c-1.32,0-2.4.53-3.25,1.59-.84,1.06-1.26,2.52-1.26,4.36,0,1.97.44,3.48,1.32,4.53s1.93,1.57,3.15,1.57h0ZM14.24,87.37l-.89-.54.04-2.49-.12-.04c-.7,1.09-1.46,1.85-2.27,2.29-.82.44-1.65.66-2.51.66-1.4,0-2.68-.35-3.85-1.05-1.17-.7-2.09-1.67-2.78-2.9s-1.03-2.66-1.03-4.3c0-1.45.26-2.75.78-3.91.52-1.15,1.22-2.13,2.12-2.94.89-.8,1.89-1.42,2.98-1.85s2.19-.64,3.31-.64c.57,0,1.15.06,1.75.18s1.09.29,1.48.52c0-.47,0-1.03-.02-1.69,0-.66-.03-1.33-.04-2,0-.68-.02-1.28-.04-1.83s-.03-.95-.06-1.21l-2.96-.47-.08-1.55,6.88-1.79.93.62c-.08,1.61-.14,3.12-.2,4.53-.05,1.41-.08,2.9-.08,4.45l-.04,8.98c0,1.32.04,2.4.12,3.25.08.84.14,1.5.2,1.96l2.53.58v1.55l-6.14,1.6h0v.03h-.01Z"/>
  <path d="M26.52,66.1c-.91,0-1.63-.28-2.18-.84s-.82-1.22-.82-2,.27-1.41.82-1.98c.54-.57,1.27-.86,2.18-.86s1.62.29,2.14.86c.52.57.78,1.23.78,1.98s-.26,1.45-.78,2c-.52.56-1.23.84-2.14.84h0ZM21.59,86.91l-.12-1.71,2.61-.58c.02-.1.05-.32.08-.66s.05-.78.08-1.34.04-1.21.04-1.96l.04-2.96c0-.8-.02-1.55-.08-2.24-.05-.69-.14-1.33-.27-1.92l-2.61-.55v-1.59l6.69-1.67.89.66c-.08.8-.14,1.61-.17,2.43-.04.82-.06,1.76-.06,2.82v4.9c0,.96.02,1.83.06,2.61s.1,1.27.17,1.48l2.61.58-.12,1.71h-9.84Z"/>
  <path d="M32.94,86.91l-.12-1.67,2.41-.62c.03-.1.05-.32.08-.66s.05-.78.08-1.34c.02-.56.04-1.21.04-1.96l.04-2.96c0-.8-.03-1.55-.08-2.24s-.14-1.33-.27-1.92l-2.49-.55v-1.59l6.26-1.67.89.62-.15,3.11.12.04c.75-1.45,1.52-2.44,2.29-2.96.78-.52,1.55-.78,2.33-.78.67,0,1.25.18,1.73.54s.72.92.72,1.67-.26,1.34-.78,1.75-1.14.62-1.87.62c-.57,0-1.1-.1-1.58-.31-.48-.21-.98-.56-1.5-1.05l.97.12c-.41.31-.82.71-1.2,1.19-.39.48-.74,1.04-1.05,1.69l.04,3.23c.03.86.05,1.65.08,2.39.03.74.05,1.37.08,1.9s.05.9.08,1.11l3.38.54-.12,1.75h-10.42,0Z"/>
  <path d="M56.28,87.22c-1.61,0-3.05-.36-4.34-1.09-1.28-.72-2.29-1.73-3.01-3.01-.73-1.28-1.09-2.75-1.09-4.41,0-1.82.4-3.4,1.2-4.76s1.86-2.42,3.15-3.19c1.3-.77,2.68-1.13,4.16-1.11,2.25.02,3.98.74,5.17,2.14s1.79,3.23,1.79,5.48v.85h-11.51v-1.94h8.09l-.54.82v-1.17c0-1.3-.29-2.32-.87-3.07s-1.39-1.13-2.43-1.13c-.67,0-1.29.19-1.85.58-.56.39-1.01.97-1.34,1.75-.34.78-.5,1.75-.5,2.92v.7c0,1.92.5,3.44,1.5,4.57s2.33,1.69,3.99,1.69c.88,0,1.68-.16,2.39-.49.71-.33,1.42-.88,2.12-1.65l1.13,1.01c-.73,1.5-1.72,2.63-2.99,3.38s-2.67,1.13-4.2,1.13h-.02Z"/>
  <path d="M73.74,95.58c-.65,0-1.3-.09-1.94-.27-.65-.18-1.24-.43-1.79-.74l.82-1.63c.44.26.91.48,1.42.66s1.02.27,1.54.27c.57,0,1.02-.14,1.34-.41.33-.27.49-.62.49-1.03,0-.52-.27-.92-.8-1.2-.53-.29-1.25-.38-2.16-.27l-.66-.74,2.25-3.77h2.18l-2.49,3.27.2-1.09c1.3,0,2.37.29,3.23.86s1.28,1.36,1.28,2.37c0,1.06-.47,1.95-1.42,2.66s-2.11,1.07-3.48,1.07h-.01,0ZM74.48,87.22c-1.58,0-3.01-.35-4.3-1.05-1.28-.7-2.31-1.69-3.07-2.96s-1.15-2.74-1.15-4.4.4-3.18,1.2-4.57c.8-1.39,1.91-2.5,3.33-3.34,1.41-.84,3.03-1.26,4.84-1.26,1.14,0,2.15.15,3.03.45.88.3,1.57.71,2.06,1.23.49.52.74,1.09.74,1.71,0,.57-.18,1.01-.54,1.32s-.82.47-1.36.47c-.47,0-.87-.09-1.22-.27s-.76-.48-1.22-.89l-2.57-2.33,1.79.43c-.86-.18-1.69-.07-2.49.33s-1.47,1.07-1.98,2c-.52.93-.78,2.13-.78,3.58,0,2.02.5,3.55,1.5,4.59s2.24,1.55,3.72,1.55c.8,0,1.56-.16,2.27-.49.71-.32,1.41-.89,2.08-1.69l1.2,1.05c-.73,1.5-1.72,2.64-2.98,3.4s-2.63,1.15-4.1,1.15h0Z"/>
  <path d="M96.76,61.94l1.52.89c-.39,1.27-.95,2.28-1.69,3.03s-1.6,1.13-2.59,1.13c-.65,0-1.32-.16-2.02-.49-.7-.32-1.37-.65-2.02-.99s-1.24-.5-1.79-.5-.95.16-1.3.49c-.35.32-.71.78-1.07,1.38l-1.52-.89c.39-1.3.96-2.31,1.71-3.05s1.61-1.11,2.57-1.11c.65,0,1.32.17,2.02.51s1.38.67,2.04.99c.66.33,1.25.49,1.77.49s.96-.16,1.32-.49c.36-.32.71-.78,1.05-1.38h0ZM91,84.07c.44,0,.86-.08,1.26-.25s.77-.45,1.11-.84v-3.89l-3.19.7c-.62.13-1.07.35-1.34.66s-.41.73-.41,1.24c0,.62.25,1.17.76,1.65.5.48,1.11.72,1.81.72h0ZM89.33,87.22c-1.17,0-2.17-.25-3.01-.74s-1.48-1.09-1.92-1.79-.66-1.37-.66-2.02c0-.91.29-1.67.85-2.27.57-.61,1.48-1.11,2.72-1.5l6.07-1.87v-1.59c0-.57-.18-1.1-.54-1.59s-.84-.89-1.44-1.2-1.24-.47-1.94-.47c-.49,0-.84.11-1.03.33s-.32.66-.37,1.3l-.16,2.1c-1.17.26-2.13.23-2.9-.1-.76-.33-1.15-.86-1.15-1.61,0-.47.23-.95.7-1.44s1.06-.96,1.77-1.4,1.46-.82,2.24-1.13,1.49-.5,2.14-.58c2.2,0,3.95.52,5.23,1.55,1.28,1.04,1.94,2.42,1.96,4.16l-.12,5.72c0,.68.02,1.23.06,1.65.04.43.11.77.21,1.03l2.53.47v1.48l-2.29.97c-.44.18-.85.32-1.22.41-.38.09-.72.14-1.03.14-.93,0-1.58-.49-1.94-1.48l-.58-1.71.74.15c-.8.96-1.62,1.71-2.45,2.24-.83.53-1.65.8-2.45.8h-.02,0Z"/>
  <path d="M111.69,84.96c.73,0,1.35-.23,1.87-.68.52-.45.92-1.11,1.21-1.96s.43-1.85.43-2.99c0-2.23-.39-4.05-1.17-5.44-.78-1.4-1.81-2.1-3.11-2.1-1.11,0-2,.53-2.66,1.59s-.99,2.48-.99,4.24c0,1.4.2,2.66.58,3.77.39,1.12.91,1.99,1.57,2.62.66.64,1.42.95,2.27.95h0ZM111.3,87.22c-1.76,0-3.31-.37-4.65-1.11s-2.38-1.76-3.13-3.07-1.13-2.81-1.13-4.49c0-1.84.42-3.43,1.26-4.76.84-1.34,1.96-2.36,3.35-3.07s2.87-1.07,4.45-1.07c1.68,0,3.17.36,4.45,1.09s2.28,1.74,2.99,3.03,1.07,2.79,1.07,4.47-.39,3.21-1.17,4.57-1.82,2.44-3.13,3.23-2.77,1.19-4.38,1.19h.02Z"/>
  <path d="M139.58,83.87c.52,0,1.06-.14,1.63-.41s1.1-.74,1.59-1.42v-8.51c-.41-.62-.91-1.06-1.48-1.32s-1.14-.39-1.71-.39c-1.32,0-2.4.53-3.25,1.59-.84,1.06-1.26,2.52-1.26,4.36,0,1.97.44,3.48,1.32,4.53s1.93,1.57,3.15,1.57c0,0,0,0,0,0ZM143.78,87.37l-.89-.54.04-2.49-.12-.04c-.7,1.09-1.46,1.85-2.27,2.29-.82.44-1.65.66-2.51.66-1.4,0-2.68-.35-3.85-1.05-1.17-.7-2.09-1.67-2.78-2.9s-1.03-2.66-1.03-4.3c0-1.45.26-2.75.78-3.91.52-1.15,1.22-2.13,2.12-2.94.89-.8,1.89-1.42,2.98-1.85s2.19-.64,3.31-.64c.57,0,1.15.06,1.75.18s1.09.29,1.48.52c0-.47,0-1.03-.02-1.69,0-.66-.03-1.33-.04-2,0-.68-.03-1.28-.04-1.83,0-.54-.03-.95-.06-1.21l-2.96-.47-.08-1.55,6.88-1.79.93.62c-.08,1.61-.14,3.12-.19,4.53-.05,1.41-.08,2.9-.08,4.45l-.04,8.98c0,1.32.04,2.4.12,3.25.08.84.14,1.5.19,1.96l2.53.58v1.55l-6.14,1.6h0v.03h0Z"/>
  <path d="M160.3,87.22c-1.61,0-3.05-.36-4.34-1.09-1.28-.72-2.29-1.73-3.01-3.01-.73-1.28-1.09-2.75-1.09-4.41,0-1.82.4-3.4,1.21-4.76.8-1.36,1.85-2.42,3.15-3.19s2.68-1.13,4.16-1.11c2.26.02,3.98.74,5.17,2.14s1.79,3.23,1.79,5.48v.85h-11.51v-1.94h8.09l-.54.82v-1.17c0-1.3-.29-2.32-.88-3.07-.58-.75-1.39-1.13-2.43-1.13-.67,0-1.29.19-1.85.58-.56.39-1,.97-1.34,1.75s-.51,1.75-.51,2.92v.7c0,1.92.5,3.44,1.5,4.57s2.33,1.69,3.99,1.69c.88,0,1.68-.16,2.39-.49.71-.33,1.42-.88,2.12-1.65l1.13,1.01c-.73,1.5-1.72,2.63-2.99,3.38s-2.67,1.13-4.2,1.13h-.01Z"/>
  <path d="M186.98,84.69c.91,0,1.69-.21,2.35-.64s1.19-1.08,1.57-1.94c.39-.87.58-1.95.58-3.25.03-1.3-.16-2.38-.56-3.25s-.93-1.52-1.57-1.96c-.65-.44-1.37-.66-2.18-.66-.65,0-1.25.15-1.81.45-.56.3-1.06.73-1.5,1.3v9.02c.41.29.89.51,1.44.68s1.1.25,1.67.25h0ZM176.95,95.46l-.12-1.67,2.41-.62c0-.13,0-.4.04-.8.02-.4.04-.91.06-1.54s.03-1.35.06-2.18.04-1.75.04-2.76l.08-8.28c0-.78-.02-1.5-.08-2.18-.05-.67-.14-1.31-.27-1.9l-2.49-.55v-1.59l6.38-1.67.93.66-.27,2.26.12.04c.65-.93,1.43-1.67,2.33-2.22.91-.54,1.88-.82,2.92-.82,1.3,0,2.49.33,3.58.99s1.96,1.6,2.63,2.82c.66,1.22.99,2.67.99,4.36s-.39,3.27-1.17,4.69c-.78,1.41-1.87,2.55-3.29,3.4-1.41.85-3.05,1.28-4.92,1.28-.49,0-1-.04-1.53-.14-.53-.09-1.03-.23-1.5-.41v2.61c0,.91.02,1.74.06,2.49s.07,1.23.1,1.44l3.19.58-.12,1.71h-10.16Z"/>
  <path d="M198.65,86.91l-.12-1.67,2.41-.62c.03-.1.05-.32.08-.66s.05-.78.08-1.34.04-1.21.04-1.96l.04-2.96c0-.8-.03-1.55-.08-2.24s-.14-1.33-.27-1.92l-2.49-.55v-1.59l6.26-1.67.89.62-.15,3.11.12.04c.75-1.45,1.52-2.44,2.29-2.96.78-.52,1.55-.78,2.33-.78.67,0,1.25.18,1.73.54s.72.92.72,1.67-.26,1.34-.78,1.75-1.14.62-1.87.62c-.57,0-1.1-.1-1.57-.31-.48-.21-.98-.56-1.5-1.05l.97.12c-.41.31-.82.71-1.2,1.19-.39.48-.74,1.04-1.05,1.69l.04,3.23c.03.86.05,1.65.08,2.39s.05,1.37.08,1.9.05.9.08,1.11l3.38.54-.12,1.75h-10.42,0Z"/>
  <path d="M222.8,84.96c.73,0,1.35-.23,1.87-.68.52-.45.92-1.11,1.21-1.96.29-.85.43-1.85.43-2.99,0-2.23-.39-4.05-1.17-5.44-.78-1.4-1.81-2.1-3.11-2.1-1.11,0-2,.53-2.66,1.59s-.99,2.48-.99,4.24c0,1.4.19,2.66.58,3.77.39,1.12.91,1.99,1.57,2.62.66.64,1.42.95,2.27.95h0ZM222.41,87.22c-1.76,0-3.31-.37-4.65-1.11s-2.38-1.76-3.13-3.07-1.13-2.81-1.13-4.49c0-1.84.42-3.43,1.26-4.76.84-1.34,1.96-2.36,3.35-3.07s2.87-1.07,4.45-1.07c1.68,0,3.17.36,4.45,1.09s2.28,1.74,2.99,3.03c.71,1.3,1.07,2.79,1.07,4.47s-.39,3.21-1.17,4.57-1.82,2.44-3.13,3.23-2.77,1.19-4.37,1.19h0Z"/>
  <path d="M243.1,83.87c.52,0,1.06-.14,1.63-.41s1.1-.74,1.59-1.42v-8.51c-.41-.62-.91-1.06-1.48-1.32s-1.14-.39-1.71-.39c-1.32,0-2.4.53-3.25,1.59-.84,1.06-1.26,2.52-1.26,4.36,0,1.97.44,3.48,1.32,4.53s1.93,1.57,3.15,1.57c0,0,0,0,0,0ZM247.3,87.37l-.89-.54.04-2.49-.12-.04c-.7,1.09-1.46,1.85-2.27,2.29-.82.44-1.65.66-2.51.66-1.4,0-2.68-.35-3.85-1.05-1.17-.7-2.09-1.67-2.78-2.9s-1.03-2.66-1.03-4.3c0-1.45.26-2.75.78-3.91.52-1.15,1.22-2.13,2.12-2.94.89-.8,1.89-1.42,2.98-1.85s2.19-.64,3.31-.64c.57,0,1.15.06,1.75.18s1.09.29,1.48.52c0-.47,0-1.03-.02-1.69,0-.66-.03-1.33-.04-2,0-.68-.02-1.28-.04-1.83,0-.54-.03-.95-.06-1.21l-2.96-.47-.08-1.55,6.88-1.79.93.62c-.08,1.61-.14,3.12-.19,4.53-.05,1.41-.08,2.9-.08,4.45l-.04,8.98c0,1.32.04,2.4.12,3.25.08.84.14,1.5.19,1.96l2.53.58v1.55l-6.14,1.6h0v.03h0Z"/>
  <path d="M272.93,83.64l2.53.58v1.55l-6.15,1.59-.89-.54.04-2.61-.12-.04c-.75,1.14-1.55,1.94-2.39,2.39-.84.45-1.72.68-2.63.68-1.82,0-3.31-.57-4.47-1.71-1.17-1.14-1.75-2.85-1.75-5.13v-3.31c0-.52-.02-1.08-.06-1.69s-.08-1.24-.14-1.88l-2.64-.55v-1.59l6.53-1.67.93.66c-.05.78-.1,1.69-.14,2.72-.04,1.04-.06,2.1-.06,3.19l-.04,3.62c0,1.43.33,2.45.97,3.07.65.62,1.49.93,2.53.93.57,0,1.16-.15,1.77-.45.61-.3,1.13-.81,1.57-1.54v-4.16c0-.54,0-1.06-.02-1.55s-.04-.97-.08-1.42c-.04-.45-.08-.87-.14-1.26l-2.84-.55v-1.59l6.65-1.67.89.62c-.03.57-.05,1.14-.06,1.71s-.03,1.18-.04,1.83-.02,1.37-.02,2.18v3c0,.88.02,1.72.06,2.53.04.8.1,1.49.17,2.06h.04Z"/>
  <path d="M285.22,95.58c-.65,0-1.3-.09-1.94-.27-.65-.18-1.24-.43-1.79-.74l.82-1.63c.44.26.91.48,1.42.66.5.18,1.02.27,1.53.27.57,0,1.02-.14,1.34-.41s.49-.62.49-1.03c0-.52-.27-.92-.8-1.2-.53-.29-1.25-.38-2.16-.27l-.66-.74,2.25-3.77h2.18l-2.49,3.27.19-1.09c1.3,0,2.37.29,3.23.86.85.57,1.28,1.36,1.28,2.37,0,1.06-.47,1.95-1.42,2.66s-2.11,1.07-3.48,1.07h.01ZM285.96,87.22c-1.58,0-3.01-.35-4.3-1.05-1.28-.7-2.31-1.69-3.07-2.96s-1.15-2.74-1.15-4.4.4-3.18,1.2-4.57,1.91-2.5,3.33-3.34c1.41-.84,3.03-1.26,4.84-1.26,1.14,0,2.15.15,3.03.45.88.3,1.57.71,2.06,1.23.49.52.74,1.09.74,1.71,0,.57-.18,1.01-.55,1.32-.36.31-.82.47-1.36.47-.47,0-.87-.09-1.22-.27s-.76-.48-1.22-.89l-2.57-2.33,1.79.43c-.85-.18-1.68-.07-2.49.33-.8.4-1.47,1.07-1.98,2-.52.93-.78,2.13-.78,3.58,0,2.02.5,3.55,1.5,4.59s2.24,1.55,3.71,1.55c.8,0,1.56-.16,2.27-.49.71-.32,1.41-.89,2.08-1.69l1.21,1.05c-.73,1.5-1.72,2.64-2.98,3.4s-2.62,1.15-4.1,1.15h.01Z"/>
  <path d="M308.24,61.94l1.52.89c-.39,1.27-.95,2.28-1.69,3.03s-1.6,1.13-2.59,1.13c-.65,0-1.32-.16-2.02-.49-.7-.32-1.38-.65-2.02-.99-.65-.34-1.24-.5-1.79-.5s-.95.16-1.3.49c-.35.32-.71.78-1.07,1.38l-1.52-.89c.39-1.3.96-2.31,1.71-3.05s1.61-1.11,2.57-1.11c.65,0,1.32.17,2.02.51s1.38.67,2.04.99c.66.33,1.25.49,1.77.49s.96-.16,1.32-.49c.36-.32.71-.78,1.05-1.38h0ZM302.48,84.07c.44,0,.86-.08,1.26-.25s.77-.45,1.11-.84v-3.89l-3.19.7c-.62.13-1.07.35-1.34.66s-.41.73-.41,1.24c0,.62.25,1.17.76,1.65.5.48,1.11.72,1.81.72h0ZM300.81,87.22c-1.17,0-2.17-.25-3.01-.74s-1.48-1.09-1.92-1.79-.66-1.37-.66-2.02c0-.91.29-1.67.85-2.27.57-.61,1.48-1.11,2.72-1.5l6.07-1.87v-1.59c0-.57-.18-1.1-.54-1.59s-.84-.89-1.44-1.2-1.24-.47-1.94-.47c-.49,0-.84.11-1.03.33s-.32.66-.37,1.3l-.15,2.1c-1.17.26-2.13.23-2.9-.1-.76-.33-1.15-.86-1.15-1.61,0-.47.23-.95.7-1.44s1.06-.96,1.77-1.4,1.46-.82,2.24-1.13,1.49-.5,2.14-.58c2.2,0,3.95.52,5.23,1.55,1.28,1.04,1.94,2.42,1.96,4.16l-.12,5.72c0,.68.02,1.23.06,1.65.04.43.11.77.21,1.03l2.53.47v1.48l-2.29.97c-.44.18-.85.32-1.22.41s-.72.14-1.03.14c-.93,0-1.58-.49-1.94-1.48l-.58-1.71.74.15c-.8.96-1.62,1.71-2.45,2.24s-1.65.8-2.45.8h-.03,0Z"/>
  <path d="M323.17,84.96c.73,0,1.35-.23,1.87-.68s.92-1.11,1.21-1.96c.29-.85.43-1.85.43-2.99,0-2.23-.39-4.05-1.17-5.44-.78-1.4-1.82-2.1-3.11-2.1-1.12,0-2,.53-2.66,1.59s-.99,2.48-.99,4.24c0,1.4.2,2.66.58,3.77.39,1.12.91,1.99,1.57,2.62.66.64,1.42.95,2.27.95h0ZM322.78,87.22c-1.76,0-3.31-.37-4.65-1.11s-2.38-1.76-3.13-3.07-1.13-2.81-1.13-4.49c0-1.84.42-3.43,1.26-4.76.84-1.34,1.96-2.36,3.35-3.07s2.87-1.07,4.45-1.07c1.68,0,3.17.36,4.45,1.09s2.28,1.74,2.99,3.03,1.07,2.79,1.07,4.47-.39,3.21-1.17,4.57-1.82,2.44-3.13,3.23-2.77,1.19-4.38,1.19h.02Z"/>
  <path d="M356.07,76.6v-2.76c.57.08,1.28.13,2.14.16.85.02,1.93.04,3.23.04s2.37-.01,3.21-.04,1.55-.08,2.12-.16v2.76c-.54-.05-1.23-.09-2.06-.12s-1.92-.04-3.27-.04-2.48.01-3.31.04c-.83.02-1.52.06-2.06.12h0ZM349.58,86.91l-.12-1.79,2.45-.58c.05-.13.09-.45.12-.97.03-.52.05-1.2.08-2.06.02-.85.04-1.81.04-2.88v-6.22c0-1.11-.01-2.1-.04-2.96s-.05-1.55-.08-2.08-.06-.84-.12-.91l-2.45-.58.12-1.79h9.72l.12,1.79-2.41.58c-.05.1-.1.41-.14.93s-.06,1.21-.08,2.06c-.01.85-.02,1.84-.02,2.96v6.22c0,1.06,0,2.02.02,2.88.01.86.04,1.54.08,2.06.04.52.08.84.14.97l2.41.58-.12,1.79s-9.72,0-9.72,0ZM363.54,86.91l-.12-1.79,2.41-.58c.05-.13.1-.45.14-.97.04-.52.06-1.2.08-2.06.01-.85.02-1.81.02-2.88v-6.22c0-1.11,0-2.1-.02-2.96-.01-.86-.04-1.54-.08-2.06-.04-.52-.08-.83-.14-.93l-2.41-.58.12-1.79h9.76l.12,1.79-2.41.58c-.05.1-.1.43-.14.99s-.07,1.26-.1,2.12-.04,1.8-.04,2.84v6.22c0,.99.01,1.9.04,2.76.02.86.06,1.56.1,2.12s.08.9.14,1.03l2.41.58-.12,1.79s-9.76,0-9.76,0Z"/>
  <path d="M389.83,79.05l-.39-2.61c-.18-.02-.45-.05-.82-.08-.36-.03-.79-.04-1.28-.04h-2.29c-.41,0-.82.01-1.22.04-.4.02-.74.05-1.03.08v-2.53c.29.03.63.04,1.03.06.4.01.81.02,1.22.02h2.29c.49,0,.92,0,1.28-.02.36-.01.63-.02.82-.02l.39-2.64h2.02v7.74h-2.02ZM394.61,87.14c-.7-.08-1.5-.14-2.41-.18s-1.72-.06-2.45-.06h-13.38l-.12-1.79,2.45-.58c.05-.13.1-.45.14-.97.04-.52.07-1.2.1-2.04.02-.84.04-1.81.04-2.9v-6.22c0-1.11-.01-2.1-.04-2.96s-.06-1.54-.1-2.06-.08-.83-.14-.93l-2.45-.58.12-1.79h12.17c.47,0,1.02,0,1.65-.02.64-.01,1.27-.04,1.9-.08.64-.04,1.2-.07,1.69-.1l.93,5.56-2.1.27-1.4-3.35c-.31-.05-.6-.09-.86-.12s-.54-.04-.85-.04h-3.38c-.49,0-.95,0-1.38.02-.43.01-.8.04-1.11.1,0,.15,0,.45-.02.89-.01.44-.03.98-.04,1.63-.01.65-.02,1.36-.02,2.14v8.91c0,.75,0,1.43.02,2.04.01.61.03,1.13.04,1.55s.02.75.02.95c.44.05.89.09,1.36.12.47.02,1.05.04,1.75.04h2.61c.65,0,1.14,0,1.48-.02.34-.01.59-.03.76-.06.17-.02.34-.05.52-.08l2.14-3.81,2.06.39-1.71,6.11h0v.02h.01Z"/>
  <path d="M417.09,80.18v-6.77c0-1.35,0-2.52-.02-3.52-.01-1-.04-1.8-.08-2.39-.04-.6-.08-.95-.14-1.05l-2.68-.59.12-1.79h8.01l.12,1.79-2.45.59c-.02.1-.06.45-.1,1.05-.04.6-.07,1.39-.1,2.39s-.04,2.17-.04,3.52v7.97c0,1.09,0,2.09.02,2.99.01.91.02,1.81.02,2.72h-2.22l-15.17-18.43h1.63v8.56c0,1.45.01,2.7.04,3.73.03,1.04.06,1.85.1,2.45s.08.97.14,1.13l2.68.59-.12,1.79h-8.09l-.12-1.79,2.45-.59c.05-.15.09-.54.12-1.17.03-.62.05-1.46.08-2.51s.04-2.26.04-3.64v-5.64c0-.91-.01-1.72-.04-2.45-.02-.73-.06-1.33-.1-1.81s-.07-.77-.1-.87l-2.45-.59.12-1.79h5.87l13.77,16.1h-1.32v.02h.01Z"/>
  <path d="M445.33,87.33c-1.35,0-2.56-.23-3.62-.68s-2.03-1.17-2.9-2.16-1.71-2.27-2.51-3.85l-2.33-4.78,3.85-.89,4.47,6.38c.62.85,1.21,1.56,1.75,2.12s1.1.99,1.67,1.3,1.18.54,1.83.7l-.04,1.67c-.36.08-.73.13-1.09.15-.36.03-.73.04-1.09.04h.01,0ZM425.61,86.91l-.12-1.79,2.45-.62c0-.16,0-.45.02-.87.01-.43.02-.93.04-1.5.01-.57.03-1.16.04-1.77.01-.61.02-1.19.02-1.73v-6.22c0-1.11-.01-2.1-.04-2.96s-.06-1.54-.1-2.06-.08-.83-.14-.93l-2.45-.58.12-1.79h9.61c2.8,0,4.89.47,6.26,1.42,1.38.95,2.06,2.4,2.06,4.37,0,1.27-.38,2.41-1.13,3.4-.75,1-1.79,1.78-3.11,2.35s-2.84.86-4.55.86h-2.37v-2.06h1.79c1.35,0,2.44-.4,3.27-1.21s1.24-1.88,1.24-3.23c0-1.27-.35-2.24-1.05-2.9s-1.71-.99-3.03-.99h-1.71c-.03.08-.05.27-.06.56-.01.3-.02.69-.02,1.19v10.77c0,.8,0,1.61.02,2.41.01.8.04,1.52.08,2.14.04.62.07,1.06.1,1.32l2.22.62-.12,1.79h-9.34Z"/>
  <path d="M448.9,86.91l-.12-1.79,2.45-.58c.05-.13.09-.45.12-.97.03-.52.05-1.2.08-2.06.03-.85.04-1.81.04-2.88v-6.22c0-1.11-.01-2.1-.04-2.96-.02-.86-.05-1.55-.08-2.08-.02-.53-.06-.84-.12-.91l-2.45-.58.12-1.79h9.76l.12,1.79-2.45.58c-.05.1-.1.41-.14.93s-.07,1.21-.08,2.06-.02,1.84-.02,2.96v6.22c0,1.06,0,2.02.02,2.88.01.86.04,1.54.08,2.06.04.52.08.84.14.97l2.45.58-.12,1.79s-9.76,0-9.76,0Z"/>
  <path d="M474.34,84.61c1.27,0,2.34-.33,3.21-.99s1.54-1.61,2-2.86c.47-1.24.7-2.76.7-4.55,0-2.05-.28-3.83-.84-5.35s-1.33-2.7-2.31-3.54c-.99-.84-2.15-1.26-3.5-1.26-1.89,0-3.39.77-4.49,2.31s-1.65,3.66-1.65,6.36c0,1.94.3,3.66.9,5.13.6,1.48,1.41,2.64,2.43,3.48,1.03.84,2.21,1.26,3.56,1.26h-.01ZM483.75,92.47c-1.17,0-2.23-.1-3.19-.31s-1.84-.52-2.63-.93-1.57-.91-2.35-1.48c-.47-.36-.92-.71-1.36-1.03s-.86-.62-1.26-.89c-.4-.27-.8-.52-1.21-.74-.4-.22-.8-.4-1.19-.53h5.25c.96,0,1.99.13,3.09.39s2.13.69,3.09,1.28c.78.41,1.48.73,2.12.93.64.21,1.32.31,2.04.31.36,0,.76-.03,1.19-.08s.86-.14,1.3-.27l.51,1.9c-.68.41-1.48.76-2.41,1.03s-1.93.41-2.99.41h0ZM474.02,87.18c-2.33,0-4.41-.49-6.22-1.46s-3.24-2.32-4.28-4.04-1.55-3.71-1.55-5.97.52-4.36,1.55-6.16c1.04-1.8,2.47-3.22,4.3-4.26s3.91-1.56,6.24-1.56,4.28.49,6.01,1.46c1.72.97,3.08,2.32,4.08,4.05,1,1.72,1.5,3.73,1.5,6.01,0,1.87-.34,3.54-1.01,5.02-.67,1.48-1.55,2.72-2.63,3.73s-2.27,1.78-3.58,2.31-2.61.8-3.91.8l-.51.08h.01Z"/>
  <path d="M488.88,64.08h9.68l.12,1.79-2.45.62c-.02.21-.05.56-.08,1.07-.02.51-.04,1.15-.06,1.94-.01.79-.02,1.76-.02,2.9v4.63c0,1.55.23,2.85.68,3.87s1.11,1.79,1.96,2.29c.86.5,1.88.76,3.07.76s2.15-.25,2.96-.74c.8-.49,1.41-1.26,1.83-2.31.41-1.05.62-2.37.62-3.95v-3.85c0-1.3-.01-2.42-.04-3.38-.02-.96-.06-1.72-.1-2.28s-.08-.88-.14-.95l-2.72-.62.12-1.79h8.32l.12,1.79-2.45.62c-.03.08-.05.4-.08.95-.03.56-.05,1.32-.08,2.28s-.04,2.09-.04,3.38v4.36c0,2.1-.37,3.88-1.11,5.33-.74,1.45-1.78,2.56-3.13,3.33s-2.93,1.15-4.75,1.15c-3.11,0-5.51-.83-7.19-2.49s-2.53-4.02-2.53-7.08v-5.29c0-1.17-.01-2.19-.04-3.05-.03-.87-.05-1.54-.08-2.02-.03-.48-.05-.76-.08-.84l-2.45-.62.12-1.79h.02Z"/>
  <path d="M529.05,79.05l-.39-2.61c-.18-.02-.45-.05-.82-.08-.36-.03-.79-.04-1.28-.04h-2.29c-.41,0-.82.01-1.23.04-.4.02-.75.05-1.03.08v-2.53c.29.03.63.04,1.03.06.4.01.81.02,1.23.02h2.29c.49,0,.92,0,1.28-.02.36-.01.64-.02.82-.02l.39-2.64h2.02v7.74h-2.02ZM533.84,87.14c-.7-.08-1.5-.14-2.41-.18s-1.72-.06-2.45-.06h-13.38l-.12-1.79,2.45-.58c.05-.13.1-.45.14-.97.04-.52.07-1.2.1-2.04.03-.84.04-1.81.04-2.9v-6.22c0-1.11-.01-2.1-.04-2.96-.03-.86-.06-1.54-.1-2.06s-.08-.83-.14-.93l-2.45-.58.12-1.79h12.17c.47,0,1.02,0,1.65-.02.64-.01,1.27-.04,1.91-.08.63-.04,1.2-.07,1.69-.1l.93,5.56-2.1.27-1.4-3.35c-.31-.05-.6-.09-.85-.12-.26-.03-.55-.04-.86-.04h-3.38c-.49,0-.95,0-1.38.02-.43.01-.8.04-1.11.1,0,.15,0,.45-.02.89-.01.44-.02.98-.04,1.63-.01.65-.02,1.36-.02,2.14v8.91c0,.75,0,1.43.02,2.04.01.61.02,1.13.04,1.55s.02.75.02.95c.44.05.89.09,1.36.12.47.02,1.05.04,1.75.04h2.61c.65,0,1.14,0,1.48-.02.34-.01.59-.03.76-.06.17-.02.34-.05.52-.08l2.14-3.81,2.06.39-1.71,6.11h0v.02Z"/>
  <path d="M558.69,79.44l-.43-2.76c-.26-.05-.56-.09-.91-.12s-.75-.04-1.19-.04h-2.53c-.41,0-.8.01-1.17.04-.36.02-.7.05-1.01.08v-2.53c.29.03.62.05.99.08.38.03.77.04,1.19.04h2.53c.52,0,.96-.01,1.32-.04s.62-.05.78-.08l.43-2.6h2.1v7.93h-2.1ZM545.7,86.91l-.12-1.79,2.29-.58c.03-.1.05-.41.08-.91.03-.51.05-1.19.08-2.04s.04-1.82.04-2.88l.04-6.53c0-1.06-.01-2.01-.04-2.84-.02-.83-.05-1.49-.08-1.98-.03-.49-.05-.78-.08-.86l-2.45-.62.12-1.79h11.82c.49,0,1.06,0,1.69-.02.64-.01,1.28-.04,1.92-.08.65-.04,1.19-.07,1.63-.1l1.01,5.56-2.14.27-1.44-3.35c-.26-.05-.53-.09-.8-.12-.27-.03-.55-.04-.84-.04h-3.38c-.41,0-.84.01-1.28.04-.44.02-.8.06-1.09.12,0,.1,0,.27-.02.49-.01.22-.02.51-.02.87v3.5l.04,8.71c0,.75.01,1.46.04,2.12.03.66.05,1.21.08,1.65.02.44.05.71.08.82l3.15.51-.12,1.87h-10.23.02Z"/>
  <path d="M565.92,86.91l-.12-1.79,2.45-.58c.05-.13.09-.45.12-.97.02-.52.05-1.2.08-2.06.02-.85.04-1.81.04-2.88v-6.22c0-1.11-.01-2.1-.04-2.96-.03-.86-.05-1.55-.08-2.08s-.06-.84-.12-.91l-2.45-.58.12-1.79h9.76l.12,1.79-2.45.58c-.05.1-.1.41-.14.93-.04.52-.06,1.21-.08,2.06-.01.85-.02,1.84-.02,2.96v6.22c0,1.06,0,2.02.02,2.88.01.86.04,1.54.08,2.06.04.52.08.84.14.97l2.45.58-.12,1.79s-9.76,0-9.76,0Z"/>
  <path d="M583.11,80.1v-2.45c.49.03,1.1.06,1.81.1s1.63.06,2.74.06,2-.02,2.74-.06,1.34-.07,1.81-.1v2.41c-.62,0-1.3-.01-2.04-.04-.74-.02-1.57-.04-2.51-.04s-1.76.01-2.49.04c-.73.02-1.41.05-2.06.08h0ZM577.2,86.91l-.12-1.79,1.98-.58,7.93-19.48,2.92-1.67,8.83,21.16,1.98.58-.12,1.79h-9.57l-.12-1.79,2.45-.58-2.18-5.29-.43-1.28-4.01-9.61,1.05.04-3.5,9.49-.39,1.17-1.91,5.48,2.45.58-.12,1.79h-7.16.04Z"/>
  <path d="M619.43,87.14c-.6-.05-1.23-.09-1.9-.12-.67-.02-1.32-.05-1.92-.08-.61-.03-1.12-.04-1.54-.04h-11.98l-.12-1.79,2.45-.58c.05-.13.09-.47.12-1.01.02-.54.04-1.24.06-2.1.01-.85.02-1.79.02-2.8v-6.22c0-1.06,0-2.02-.02-2.86-.01-.84-.03-1.54-.06-2.08-.03-.54-.06-.87-.12-.97l-2.45-.62.12-1.79h10.54l.12,1.87-3.23.54c-.03.08-.06.37-.1.88-.04.5-.07,1.19-.1,2.04-.02.86-.04,1.85-.04,2.99v6.22c0,1.45.01,2.65.04,3.6.03.95.05,1.57.08,1.89.41.08.85.13,1.3.15.45.03,1.01.04,1.65.04h1.83c.6,0,1.11-.03,1.56-.08.44-.05.82-.1,1.13-.16l2.14-4.12,2.22.58-1.79,6.61h-.01Z"/>
  <path d="M629.35,76.6v-2.76c.57.08,1.28.13,2.14.16.85.02,1.93.04,3.23.04s2.37-.01,3.21-.04,1.55-.08,2.12-.16v2.76c-.54-.05-1.23-.09-2.06-.12s-1.92-.04-3.27-.04-2.48.01-3.31.04c-.83.02-1.52.06-2.06.12h0ZM622.86,86.91l-.12-1.79,2.45-.58c.05-.13.09-.45.12-.97.03-.52.05-1.2.08-2.06.03-.85.04-1.81.04-2.88v-6.22c0-1.11-.01-2.1-.04-2.96-.02-.86-.05-1.55-.08-2.08-.02-.53-.06-.84-.12-.91l-2.45-.58.12-1.79h9.72l.12,1.79-2.41.58c-.05.1-.1.41-.14.93-.04.52-.06,1.21-.08,2.06-.01.85-.02,1.84-.02,2.96v6.22c0,1.06,0,2.02.02,2.88.01.86.04,1.54.08,2.06.04.52.08.84.14.97l2.41.58-.12,1.79s-9.72,0-9.72,0ZM636.82,86.91l-.12-1.79,2.41-.58c.05-.13.1-.45.14-.97.04-.52.06-1.2.08-2.06.01-.85.02-1.81.02-2.88v-6.22c0-1.11,0-2.1-.02-2.96-.01-.86-.04-1.54-.08-2.06-.04-.52-.08-.83-.14-.93l-2.41-.58.12-1.79h9.76l.12,1.79-2.41.58c-.05.1-.1.43-.14.99-.04.56-.07,1.26-.1,2.12-.02.86-.04,1.8-.04,2.84v6.22c0,.99.01,1.9.04,2.76.03.86.06,1.56.1,2.12s.08.9.14,1.03l2.41.58-.12,1.79s-9.76,0-9.76,0Z"/>
  <path d="M662.25,84.61c1.27,0,2.35-.33,3.23-.99s1.55-1.62,2-2.88.68-2.77.68-4.53c0-2.05-.28-3.83-.84-5.35s-1.33-2.7-2.31-3.54c-.99-.84-2.15-1.26-3.5-1.26-1.89,0-3.39.77-4.49,2.31s-1.65,3.66-1.65,6.36c0,1.94.3,3.66.9,5.13.6,1.48,1.41,2.64,2.43,3.48,1.03.84,2.21,1.26,3.56,1.26h0ZM661.94,87.26c-2.33,0-4.41-.49-6.22-1.48-1.81-.98-3.24-2.35-4.28-4.08-1.04-1.74-1.55-3.73-1.55-5.99s.52-4.36,1.55-6.16c1.04-1.8,2.47-3.22,4.3-4.26s3.91-1.56,6.24-1.56,4.28.49,6.01,1.46c1.72.97,3.08,2.32,4.08,4.05,1,1.72,1.5,3.73,1.5,6.01,0,1.92-.35,3.62-1.05,5.11s-1.61,2.75-2.74,3.77-2.37,1.8-3.73,2.33-2.73.8-4.1.8h-.01Z"/>
  <path d="M10.04,140.29c.52,0,1.06-.14,1.63-.41s1.1-.74,1.59-1.42v-8.51c-.41-.62-.91-1.06-1.48-1.32-.57-.26-1.14-.39-1.71-.39-1.32,0-2.4.53-3.25,1.59-.84,1.06-1.26,2.52-1.26,4.36,0,1.97.44,3.48,1.32,4.53s1.93,1.57,3.15,1.57h0ZM14.24,143.79l-.89-.54.04-2.49-.12-.04c-.7,1.09-1.46,1.85-2.27,2.29-.82.44-1.65.66-2.51.66-1.4,0-2.68-.35-3.85-1.05-1.17-.7-2.09-1.67-2.78-2.9s-1.03-2.66-1.03-4.3c0-1.45.26-2.75.78-3.91.52-1.15,1.22-2.13,2.12-2.94.89-.8,1.89-1.42,2.98-1.85s2.19-.64,3.31-.64c.57,0,1.15.06,1.75.18s1.09.29,1.48.52c0-.47,0-1.03-.02-1.69,0-.66-.03-1.33-.04-2,0-.68-.02-1.28-.04-1.83s-.03-.95-.06-1.21l-2.96-.47-.08-1.55,6.88-1.79.93.62c-.08,1.61-.14,3.12-.2,4.53-.05,1.41-.08,2.9-.08,4.45l-.04,8.98c0,1.32.04,2.4.12,3.25.08.84.14,1.5.2,1.96l2.53.58v1.55l-6.14,1.6h0v.03h-.01Z"/>
  <path d="M26.52,122.51c-.91,0-1.63-.28-2.18-.84s-.82-1.22-.82-2,.27-1.41.82-1.98c.54-.57,1.27-.86,2.18-.86s1.62.29,2.14.86c.52.57.78,1.23.78,1.98s-.26,1.45-.78,2c-.52.56-1.23.84-2.14.84h0ZM21.59,143.32l-.12-1.71,2.61-.58c.02-.1.05-.32.08-.66s.05-.78.08-1.34.04-1.21.04-1.96l.04-2.96c0-.8-.02-1.55-.08-2.24-.05-.69-.14-1.33-.27-1.92l-2.61-.55v-1.59l6.69-1.67.89.66c-.08.8-.14,1.61-.17,2.43-.04.82-.06,1.76-.06,2.82v4.9c0,.96.02,1.83.06,2.61s.1,1.27.17,1.48l2.61.58-.12,1.71h-9.84Z"/>
  <path d="M32.94,143.32l-.12-1.67,2.41-.62c.03-.1.05-.32.08-.66s.05-.78.08-1.34c.02-.56.04-1.21.04-1.96l.04-2.96c0-.8-.03-1.55-.08-2.24s-.14-1.33-.27-1.92l-2.49-.55v-1.59l6.26-1.67.89.62-.15,3.11.12.04c.75-1.45,1.52-2.44,2.29-2.96.78-.52,1.55-.78,2.33-.78.67,0,1.25.18,1.73.54s.72.92.72,1.67-.26,1.34-.78,1.75c-.52.42-1.14.62-1.87.62-.57,0-1.1-.1-1.58-.31-.48-.21-.98-.56-1.5-1.05l.97.12c-.41.31-.82.71-1.2,1.19-.39.48-.74,1.04-1.05,1.69l.04,3.23c.03.86.05,1.65.08,2.39.03.74.05,1.37.08,1.9s.05.9.08,1.11l3.38.54-.12,1.75h-10.42,0Z"/>
  <path d="M56.28,143.63c-1.61,0-3.05-.36-4.34-1.09-1.28-.73-2.29-1.73-3.01-3.01-.73-1.28-1.09-2.75-1.09-4.41,0-1.82.4-3.4,1.2-4.76s1.86-2.42,3.15-3.19c1.3-.77,2.68-1.13,4.16-1.11,2.25.02,3.98.74,5.17,2.14,1.19,1.4,1.79,3.23,1.79,5.48v.85h-11.51v-1.94h8.09l-.54.82v-1.17c0-1.3-.29-2.32-.87-3.07s-1.39-1.13-2.43-1.13c-.67,0-1.29.19-1.85.58-.56.39-1.01.97-1.34,1.75-.34.78-.5,1.75-.5,2.92v.7c0,1.92.5,3.44,1.5,4.57s2.33,1.69,3.99,1.69c.88,0,1.68-.16,2.39-.49s1.42-.88,2.12-1.65l1.13,1.01c-.73,1.5-1.72,2.63-2.99,3.38s-2.67,1.13-4.2,1.13h-.02Z"/>
  <path d="M73.74,151.99c-.65,0-1.3-.09-1.94-.27-.65-.18-1.24-.43-1.79-.74l.82-1.63c.44.26.91.48,1.42.66s1.02.27,1.54.27c.57,0,1.02-.14,1.34-.41.33-.27.49-.62.49-1.03,0-.52-.27-.92-.8-1.2-.53-.29-1.25-.38-2.16-.27l-.66-.74,2.25-3.77h2.18l-2.49,3.27.2-1.09c1.3,0,2.37.29,3.23.86s1.28,1.36,1.28,2.37c0,1.06-.47,1.95-1.42,2.66s-2.11,1.07-3.48,1.07h-.01,0ZM74.48,143.63c-1.58,0-3.01-.35-4.3-1.05-1.28-.7-2.31-1.69-3.07-2.96s-1.15-2.74-1.15-4.4.4-3.18,1.2-4.57c.8-1.39,1.91-2.5,3.33-3.34,1.41-.84,3.03-1.26,4.84-1.26,1.14,0,2.15.15,3.03.45.88.3,1.57.71,2.06,1.23s.74,1.09.74,1.71c0,.57-.18,1.01-.54,1.32-.36.31-.82.47-1.36.47-.47,0-.87-.09-1.22-.27s-.76-.48-1.22-.89l-2.57-2.33,1.79.43c-.86-.18-1.69-.07-2.49.33s-1.47,1.07-1.98,2c-.52.93-.78,2.13-.78,3.58,0,2.02.5,3.55,1.5,4.59s2.24,1.55,3.72,1.55c.8,0,1.56-.16,2.27-.49.71-.32,1.41-.89,2.08-1.69l1.2,1.05c-.73,1.5-1.72,2.64-2.98,3.4-1.26.77-2.63,1.15-4.1,1.15h0Z"/>
  <path d="M96.76,118.35l1.52.89c-.39,1.27-.95,2.28-1.69,3.03s-1.6,1.13-2.59,1.13c-.65,0-1.32-.16-2.02-.49-.7-.32-1.37-.65-2.02-.99s-1.24-.5-1.79-.5-.95.16-1.3.49c-.35.32-.71.78-1.07,1.38l-1.52-.89c.39-1.3.96-2.31,1.71-3.05s1.61-1.11,2.57-1.11c.65,0,1.32.17,2.02.51.7.34,1.38.67,2.04.99.66.33,1.25.49,1.77.49s.96-.16,1.32-.49c.36-.32.71-.78,1.05-1.38h0ZM91,140.48c.44,0,.86-.08,1.26-.25s.77-.45,1.11-.84v-3.89l-3.19.7c-.62.13-1.07.35-1.34.66s-.41.73-.41,1.24c0,.62.25,1.17.76,1.65.5.48,1.11.72,1.81.72h0ZM89.33,143.63c-1.17,0-2.17-.25-3.01-.74s-1.48-1.09-1.92-1.79-.66-1.37-.66-2.02c0-.91.29-1.67.85-2.27.57-.61,1.48-1.11,2.72-1.5l6.07-1.87v-1.59c0-.57-.18-1.1-.54-1.59-.36-.49-.84-.89-1.44-1.2s-1.24-.47-1.94-.47c-.49,0-.84.11-1.03.33s-.32.66-.37,1.3l-.16,2.1c-1.17.26-2.13.23-2.9-.1-.76-.33-1.15-.86-1.15-1.61,0-.47.23-.95.7-1.44s1.06-.96,1.77-1.4,1.46-.82,2.24-1.13,1.49-.5,2.14-.58c2.2,0,3.95.52,5.23,1.55,1.28,1.04,1.94,2.42,1.96,4.16l-.12,5.72c0,.68.02,1.23.06,1.65.04.43.11.77.21,1.03l2.53.47v1.48l-2.29.97c-.44.18-.85.32-1.22.41-.38.09-.72.14-1.03.14-.93,0-1.58-.49-1.94-1.48l-.58-1.71.74.15c-.8.96-1.62,1.71-2.45,2.24-.83.53-1.65.8-2.45.8h-.02,0Z"/>
  <path d="M111.69,141.38c.73,0,1.35-.23,1.87-.68.52-.45.92-1.11,1.21-1.96s.43-1.85.43-2.99c0-2.23-.39-4.05-1.17-5.44-.78-1.4-1.81-2.1-3.11-2.1-1.11,0-2,.53-2.66,1.59s-.99,2.48-.99,4.24c0,1.4.2,2.66.58,3.77.39,1.12.91,1.99,1.57,2.62.66.64,1.42.95,2.27.95h0ZM111.3,143.63c-1.76,0-3.31-.37-4.65-1.11s-2.38-1.76-3.13-3.07-1.13-2.81-1.13-4.49c0-1.84.42-3.43,1.26-4.76.84-1.34,1.96-2.36,3.35-3.07s2.87-1.07,4.45-1.07c1.68,0,3.17.36,4.45,1.09s2.28,1.74,2.99,3.03,1.07,2.79,1.07,4.47-.39,3.21-1.17,4.57-1.82,2.44-3.13,3.23-2.77,1.19-4.38,1.19h.02Z"/>
  <path d="M139.58,140.29c.52,0,1.06-.14,1.63-.41s1.1-.74,1.59-1.42v-8.51c-.41-.62-.91-1.06-1.48-1.32s-1.14-.39-1.71-.39c-1.32,0-2.4.53-3.25,1.59-.84,1.06-1.26,2.52-1.26,4.36,0,1.97.44,3.48,1.32,4.53s1.93,1.57,3.15,1.57h0ZM143.78,143.79l-.89-.54.04-2.49-.12-.04c-.7,1.09-1.46,1.85-2.27,2.29-.82.44-1.65.66-2.51.66-1.4,0-2.68-.35-3.85-1.05-1.17-.7-2.09-1.67-2.78-2.9s-1.03-2.66-1.03-4.3c0-1.45.26-2.75.78-3.91.52-1.15,1.22-2.13,2.12-2.94.89-.8,1.89-1.42,2.98-1.85s2.19-.64,3.31-.64c.57,0,1.15.06,1.75.18s1.09.29,1.48.52c0-.47,0-1.03-.02-1.69,0-.66-.03-1.33-.04-2,0-.68-.03-1.28-.04-1.83,0-.54-.03-.95-.06-1.21l-2.96-.47-.08-1.55,6.88-1.79.93.62c-.08,1.61-.14,3.12-.19,4.53s-.08,2.9-.08,4.45l-.04,8.98c0,1.32.04,2.4.12,3.25.08.84.14,1.5.19,1.96l2.53.58v1.55l-6.14,1.6h0v.03h0Z"/>
  <path d="M160.3,143.63c-1.61,0-3.05-.36-4.34-1.09-1.28-.73-2.29-1.73-3.01-3.01-.73-1.28-1.09-2.75-1.09-4.41,0-1.82.4-3.4,1.21-4.76.8-1.36,1.85-2.42,3.15-3.19s2.68-1.13,4.16-1.11c2.26.02,3.98.74,5.17,2.14,1.19,1.4,1.79,3.23,1.79,5.48v.85h-11.51v-1.94h8.09l-.54.82v-1.17c0-1.3-.29-2.32-.88-3.07-.58-.75-1.39-1.13-2.43-1.13-.67,0-1.29.19-1.85.58-.56.39-1,.97-1.34,1.75s-.51,1.75-.51,2.92v.7c0,1.92.5,3.44,1.5,4.57s2.33,1.69,3.99,1.69c.88,0,1.68-.16,2.39-.49s1.42-.88,2.12-1.65l1.13,1.01c-.73,1.5-1.72,2.63-2.99,3.38s-2.67,1.13-4.2,1.13h-.01Z"/>
  <path d="M176.72,128.74v-1.63l2.8-.74,2.53.08h6.03v2.29h-11.36ZM187.22,143.32h-10.03l-.12-1.67,2.41-.62c.02-.34.04-.69.06-1.05,0-.36.02-.79.02-1.28v-4.47l-.04-5.52v-3.85c0-1.68.31-3.18.91-4.49.61-1.31,1.45-2.33,2.51-3.07s2.27-1.11,3.62-1.11c1.24,0,2.27.25,3.07.76.8.5,1.21,1.16,1.21,1.96,0,.49-.15.87-.45,1.13-.3.26-.72.39-1.26.39-.7,0-1.4-.31-2.1-.93l-2.06-1.94,1.4.23c-.78,0-1.39.47-1.85,1.42-.45.95-.68,2.33-.68,4.14v3.07l.08,2.29.04,5.37c0,1.24.03,2.51.08,3.79s.09,2.34.12,3.17l3.19.62-.12,1.67h-.01Z"/>
  <path d="M199.15,141.38c.73,0,1.35-.23,1.87-.68.52-.45.92-1.11,1.21-1.96.29-.85.43-1.85.43-2.99,0-2.23-.39-4.05-1.17-5.44-.78-1.4-1.81-2.1-3.11-2.1-1.11,0-2,.53-2.66,1.59s-.99,2.48-.99,4.24c0,1.4.19,2.66.58,3.77.39,1.12.91,1.99,1.57,2.62.66.64,1.42.95,2.27.95h0ZM198.77,143.63c-1.76,0-3.31-.37-4.65-1.11s-2.38-1.76-3.13-3.07-1.13-2.81-1.13-4.49c0-1.84.42-3.43,1.26-4.76.84-1.34,1.96-2.36,3.35-3.07s2.87-1.07,4.45-1.07c1.68,0,3.17.36,4.45,1.09s2.28,1.74,2.99,3.03c.71,1.3,1.07,2.79,1.07,4.47s-.39,3.21-1.17,4.57-1.82,2.44-3.13,3.23-2.77,1.19-4.37,1.19h0Z"/>
  <path d="M214.32,126.4h7.62v2.29h-7.62v-2.29h0ZM222.99,140.33c-.39,1.04-1.08,1.86-2.06,2.45-.99.6-2.05.89-3.19.89-1.74,0-3.16-.51-4.26-1.52-1.1-1.01-1.65-2.54-1.65-4.59l.12-8.87h-2.72v-1.13l6.07-4.98h1.13l-.08,5.13-.08,9.33c0,1.17.27,2.01.82,2.53.54.52,1.31.78,2.29.78.49,0,.98-.1,1.46-.29.48-.19.9-.46,1.26-.8l.89,1.05h0v.02h0Z"/>
  <path d="M233.15,141.38c.73,0,1.35-.23,1.87-.68.52-.45.92-1.11,1.2-1.96.29-.85.43-1.85.43-2.99,0-2.23-.39-4.05-1.17-5.44-.78-1.4-1.82-2.1-3.11-2.1-1.12,0-2,.53-2.66,1.59s-.99,2.48-.99,4.24c0,1.4.19,2.66.58,3.77.39,1.12.91,1.99,1.57,2.62.66.64,1.42.95,2.28.95h0ZM232.76,143.63c-1.76,0-3.31-.37-4.65-1.11-1.33-.74-2.38-1.76-3.13-3.07s-1.13-2.81-1.13-4.49c0-1.84.42-3.43,1.26-4.76.84-1.34,1.96-2.36,3.34-3.07,1.39-.71,2.87-1.07,4.45-1.07,1.69,0,3.17.36,4.45,1.09s2.28,1.74,3,3.03c.71,1.3,1.07,2.79,1.07,4.47s-.39,3.21-1.17,4.57-1.82,2.44-3.13,3.23-2.77,1.19-4.38,1.19h.02Z"/>
  <path d="M262,129.36l-5.09-.47-1.4-1.71,6.49-.74v2.92h0ZM252.51,136.63c.88,0,1.58-.36,2.1-1.09s.78-1.71.78-2.96c0-1.37-.29-2.48-.86-3.31s-1.32-1.24-2.25-1.24c-.86,0-1.56.39-2.1,1.17s-.82,1.8-.82,3.07.29,2.35.87,3.15,1.34,1.21,2.27,1.21h.01ZM252.24,138.65c-1.5,0-2.83-.26-3.97-.78s-2.03-1.24-2.66-2.16-.95-1.98-.95-3.17c0-1.27.34-2.39,1.01-3.36.68-.97,1.59-1.74,2.74-2.31s2.46-.86,3.91-.86,2.7.29,3.83.86c1.13.57,2.02,1.34,2.66,2.29.65.96.97,2.05.97,3.27s-.32,2.26-.97,3.21c-.65.95-1.54,1.69-2.68,2.22-1.14.53-2.44.8-3.89.8h0ZM252.01,152.19c-2.62,0-4.67-.38-6.16-1.15-1.49-.76-2.24-1.8-2.24-3.09,0-.88.41-1.69,1.24-2.43s2.04-1.39,3.62-1.96l1.63.23c-.7.47-1.24,1-1.63,1.59-.39.6-.58,1.23-.58,1.91,0,.91.38,1.62,1.15,2.14.76.52,1.86.78,3.29.78,1.5,0,2.74-.32,3.71-.97s1.46-1.47,1.46-2.45c0-.73-.27-1.27-.8-1.63s-1.43-.6-2.7-.7l-4.63-.39-.43-.19c-1.19,0-2.15-.25-2.86-.74s-1.07-1.14-1.07-1.94.39-1.52,1.17-2.22,1.84-1.27,3.19-1.71l.58.7c-.36.23-.64.47-.82.7s-.27.47-.27.7c0,.31.11.56.33.76s.55.32.99.37l5.64.54c1.92.18,3.35.68,4.3,1.48.95.8,1.42,1.88,1.42,3.23,0,1.19-.41,2.28-1.24,3.27s-1.96,1.76-3.4,2.33-3.07.86-4.88.86h0v-.02h0Z"/>
  <path d="M263.52,143.32l-.12-1.67,2.41-.62c.03-.1.05-.32.08-.66s.05-.78.08-1.34c.02-.56.04-1.21.04-1.96l.04-2.96c0-.8-.03-1.55-.08-2.24s-.14-1.33-.27-1.92l-2.49-.55v-1.59l6.26-1.67.89.62-.16,3.11.12.04c.75-1.45,1.52-2.44,2.29-2.96.78-.52,1.55-.78,2.33-.78.67,0,1.25.18,1.73.54s.72.92.72,1.67-.26,1.34-.78,1.75c-.52.42-1.14.62-1.87.62-.57,0-1.1-.1-1.58-.31-.48-.21-.98-.56-1.5-1.05l.97.12c-.41.31-.82.71-1.21,1.19-.39.48-.74,1.04-1.05,1.69l.04,3.23c.03.86.05,1.65.08,2.39s.05,1.37.08,1.9c.02.53.05.9.08,1.11l3.38.54-.12,1.75h-10.42.03,0Z"/>
  <path d="M286.15,140.48c.44,0,.86-.08,1.26-.25s.77-.45,1.11-.84v-3.89l-3.19.7c-.62.13-1.07.35-1.34.66s-.41.73-.41,1.24c0,.62.25,1.17.76,1.65.5.48,1.11.72,1.81.72h0ZM284.48,143.63c-1.17,0-2.17-.25-3.01-.74s-1.49-1.09-1.93-1.79-.66-1.37-.66-2.02c0-.91.29-1.67.86-2.27.57-.61,1.48-1.11,2.72-1.5l6.07-1.87v-1.59c0-.57-.18-1.1-.55-1.59s-.84-.89-1.44-1.2-1.24-.47-1.94-.47c-.49,0-.84.11-1.03.33s-.32.66-.37,1.3l-.16,2.1c-1.17.26-2.13.23-2.9-.1-.76-.33-1.15-.86-1.15-1.61,0-.47.23-.95.7-1.44s1.06-.96,1.77-1.4,1.46-.82,2.24-1.13,1.49-.5,2.14-.58c2.2,0,3.95.52,5.23,1.55,1.28,1.04,1.94,2.42,1.96,4.16l-.12,5.72c0,.68.02,1.23.06,1.65.04.43.11.77.21,1.03l2.53.47v1.48l-2.29.97c-.44.18-.85.32-1.22.41-.38.09-.72.14-1.03.14-.93,0-1.58-.49-1.94-1.48l-.58-1.71.74.15c-.8.96-1.62,1.71-2.45,2.24s-1.65.8-2.45.8h-.01,0Z"/>
  <path d="M308.24,143.32l-.12-1.71,2.61-.58c.05-.21.09-.52.12-.93.02-.41.04-.89.06-1.42.01-.53.02-1.07.02-1.61l.04-3.93c.03-1.01,0-1.85-.08-2.53-.08-.67-.16-1.31-.23-1.9h-13.96v-1.63l2.84-.74,2.57.08h10.11c.54,0,1.1-.01,1.67-.04.57-.02,1.13-.06,1.67-.12-.05.96-.09,1.87-.12,2.72-.02.85-.04,1.87-.04,3.03v4.94c0,.57,0,1.14.02,1.71.01.57.04,1.07.08,1.5.04.43.07.72.1.87l2.61.58-.12,1.71h-9.85,0ZM297.12,143.32l-.12-1.67,2.41-.62c.03-.1.04-.37.06-.8.01-.43.03-1.04.04-1.83.01-.79.02-1.77.02-2.94v-10.15c0-1.82.41-3.41,1.24-4.78s2-2.44,3.52-3.21c1.52-.76,3.3-1.15,5.35-1.15s3.58.35,4.76,1.05c1.18.7,1.77,1.54,1.77,2.53,0,.62-.19,1.1-.56,1.42-.38.33-.84.49-1.38.49-.49,0-.93-.09-1.32-.27s-.83-.5-1.32-.97l-3.58-3.19,2.25,1.01c-1.19-.21-2.27-.1-3.23.33-.96.43-1.72,1.14-2.27,2.12-.56.99-.84,2.26-.84,3.81v10.07c0,1.3.01,2.37.04,3.23s.06,1.54.1,2.04c.04.51.06.9.06,1.19l2.61.62-.12,1.67h-9.49Z"/>
  <path d="M327.68,140.48c.44,0,.86-.08,1.26-.25s.77-.45,1.11-.84v-3.89l-3.19.7c-.62.13-1.07.35-1.34.66s-.41.73-.41,1.24c0,.62.25,1.17.76,1.65s1.11.72,1.81.72h0ZM326.01,143.63c-1.17,0-2.17-.25-3.01-.74s-1.49-1.09-1.92-1.79c-.44-.7-.66-1.37-.66-2.02,0-.91.29-1.67.86-2.27.57-.61,1.48-1.11,2.72-1.5l6.07-1.87v-1.59c0-.57-.18-1.1-.54-1.59s-.84-.89-1.44-1.2-1.24-.47-1.94-.47c-.49,0-.84.11-1.03.33s-.32.66-.37,1.3l-.16,2.1c-1.17.26-2.13.23-2.9-.1-.76-.33-1.15-.86-1.15-1.61,0-.47.23-.95.7-1.44s1.06-.96,1.77-1.4,1.46-.82,2.24-1.13,1.49-.5,2.14-.58c2.2,0,3.95.52,5.23,1.55,1.28,1.04,1.94,2.42,1.96,4.16l-.12,5.72c0,.68.02,1.23.06,1.65.04.43.11.77.21,1.03l2.53.47v1.48l-2.29.97c-.44.18-.85.32-1.22.41-.38.09-.72.14-1.03.14-.93,0-1.58-.49-1.94-1.48l-.58-1.71.74.15c-.8.96-1.62,1.71-2.45,2.24s-1.65.8-2.45.8h-.03,0Z"/>
  <path d="M361.56,136.44c0,1.09.01,2.04.04,2.86.02.82.05,1.36.08,1.61.29.08.68.15,1.19.21s.95.1,1.34.1c1.55,0,2.75-.35,3.6-1.05.84-.7,1.26-1.7,1.26-2.99,0-1.5-.45-2.61-1.36-3.33-.91-.71-2.28-1.07-4.12-1.07h-1.38c-.35,0-.71.03-1.07.08v-2.37c.39.03.75.04,1.09.06.34,0,.71.02,1.13.02,1.48,0,2.61-.36,3.38-1.07.78-.71,1.17-1.73,1.17-3.05,0-1.22-.37-2.18-1.11-2.88s-1.86-1.05-3.36-1.05h-1.79c-.03.21-.04.77-.06,1.67-.01.91-.02,1.96-.02,3.15v9.1h-.01ZM356.7,140.95c.08-.18.14-.82.2-1.92.05-1.1.08-2.43.08-3.99v-6.22c0-1.66-.03-3.04-.08-4.14s-.12-1.72-.2-1.85l-2.45-.55.12-1.79h10.46c2.67,0,4.67.46,6.01,1.38s2,2.29,2,4.1c0,1.43-.6,2.62-1.79,3.6-1.19.97-2.75,1.52-4.67,1.65v-.31c2.44.1,4.32.65,5.64,1.65s1.98,2.36,1.98,4.1c0,2.07-.88,3.7-2.64,4.88s-4.21,1.77-7.35,1.77h-9.65l-.12-1.79,2.45-.58h.01Z"/>
  <path d="M397.06,143.75c-1.35,0-2.55-.23-3.62-.68-1.06-.45-2.03-1.17-2.9-2.16s-1.71-2.27-2.51-3.85l-2.33-4.78,3.85-.89,4.47,6.38c.62.85,1.21,1.56,1.75,2.12s1.1.99,1.67,1.3,1.18.54,1.83.7l-.04,1.67c-.36.08-.73.13-1.09.15-.36.03-.73.04-1.09.04h.01,0ZM377.35,143.32l-.12-1.79,2.45-.62c0-.16,0-.45.02-.87.01-.43.02-.93.04-1.5.01-.57.03-1.16.04-1.77s.02-1.19.02-1.73v-6.22c0-1.12-.01-2.1-.04-2.96s-.06-1.54-.1-2.06-.08-.83-.14-.93l-2.45-.58.12-1.79h9.61c2.8,0,4.89.47,6.26,1.42s2.06,2.4,2.06,4.37c0,1.27-.38,2.41-1.13,3.4-.75,1-1.79,1.78-3.11,2.35s-2.84.86-4.55.86h-2.37v-2.06h1.79c1.35,0,2.44-.4,3.27-1.21s1.24-1.88,1.24-3.23c0-1.27-.35-2.24-1.05-2.9s-1.71-.99-3.03-.99h-1.71c-.03.08-.05.27-.06.56-.01.3-.02.69-.02,1.19v10.77c0,.8,0,1.61.02,2.41.01.8.04,1.52.08,2.14.04.62.07,1.06.1,1.32l2.22.62-.12,1.79h-9.34Z"/>
  <path d="M399.75,120.49h9.68l.12,1.79-2.45.62c-.02.21-.05.56-.08,1.07s-.05,1.15-.06,1.94-.02,1.76-.02,2.9v4.63c0,1.55.23,2.85.68,3.87s1.11,1.79,1.96,2.29c.86.5,1.88.76,3.07.76s2.15-.25,2.96-.74c.8-.49,1.41-1.26,1.83-2.31.41-1.05.62-2.37.62-3.95v-3.85c0-1.3-.01-2.42-.04-3.38-.02-.96-.06-1.72-.1-2.28s-.08-.88-.14-.95l-2.72-.62.12-1.79h8.32l.12,1.79-2.45.62c-.03.08-.05.4-.08.95-.03.56-.05,1.32-.08,2.28s-.04,2.09-.04,3.38v4.36c0,2.1-.37,3.88-1.11,5.33s-1.78,2.56-3.13,3.33-2.93,1.15-4.74,1.15c-3.11,0-5.51-.83-7.19-2.49-1.69-1.66-2.53-4.02-2.53-7.08v-5.29c0-1.17-.01-2.19-.04-3.05-.03-.87-.05-1.54-.08-2.02s-.05-.76-.08-.84l-2.45-.62.12-1.79h.01Z"/>
  <path d="M444.9,136.59v-6.77c0-1.35,0-2.52-.02-3.52-.01-1-.04-1.8-.08-2.39-.04-.6-.08-.95-.14-1.05l-2.68-.59.12-1.79h8.01l.12,1.79-2.45.59c-.03.1-.06.45-.1,1.05-.04.6-.07,1.39-.1,2.39s-.04,2.17-.04,3.52v7.97c0,1.09,0,2.09.02,2.99.01.91.02,1.81.02,2.72h-2.22l-15.17-18.43h1.63v8.56c0,1.45.01,2.7.04,3.73.03,1.04.06,1.85.1,2.45s.08.97.14,1.13l2.68.59-.12,1.79h-8.09l-.12-1.79,2.45-.59c.05-.15.09-.54.12-1.17.03-.62.05-1.46.08-2.51.03-1.05.04-2.26.04-3.64v-5.64c0-.91-.01-1.72-.04-2.45-.03-.73-.06-1.33-.1-1.81s-.07-.77-.1-.87l-2.45-.59.12-1.79h5.87l13.77,16.1h-1.32v.02h.01Z"/>
  <path d="M465.82,141.03c1.27,0,2.35-.33,3.23-.99s1.55-1.62,2-2.88.68-2.77.68-4.53c0-2.05-.28-3.83-.84-5.35s-1.33-2.7-2.31-3.54c-.99-.84-2.15-1.26-3.5-1.26-1.89,0-3.39.77-4.49,2.31s-1.65,3.66-1.65,6.36c0,1.94.3,3.66.89,5.13.6,1.48,1.41,2.64,2.43,3.48s2.21,1.26,3.56,1.26h0ZM465.51,143.67c-2.33,0-4.41-.49-6.22-1.48-1.82-.98-3.24-2.35-4.28-4.08-1.04-1.74-1.55-3.73-1.55-5.99s.52-4.36,1.55-6.16c1.04-1.8,2.47-3.22,4.3-4.26s3.91-1.56,6.24-1.56,4.28.49,6.01,1.46c1.72.97,3.08,2.32,4.08,4.05,1,1.72,1.5,3.73,1.5,6.01,0,1.92-.35,3.62-1.05,5.11s-1.61,2.75-2.74,3.77-2.37,1.8-3.73,2.33-2.73.8-4.1.8h-.01,0Z"/>
  <path d="M507.9,143.75c-1.35,0-2.55-.23-3.62-.68-1.06-.45-2.03-1.17-2.9-2.16s-1.71-2.27-2.51-3.85l-2.33-4.78,3.85-.89,4.47,6.38c.62.85,1.21,1.56,1.75,2.12s1.1.99,1.67,1.3,1.18.54,1.83.7l-.04,1.67c-.36.08-.73.13-1.09.15-.36.03-.73.04-1.09.04h.01,0ZM488.18,143.32l-.12-1.79,2.45-.62c0-.16,0-.45.02-.87.01-.43.02-.93.04-1.5.01-.57.03-1.16.04-1.77s.02-1.19.02-1.73v-6.22c0-1.12-.01-2.1-.04-2.96s-.06-1.54-.1-2.06-.08-.83-.14-.93l-2.45-.58.12-1.79h9.61c2.8,0,4.89.47,6.26,1.42,1.38.95,2.06,2.4,2.06,4.37,0,1.27-.38,2.41-1.13,3.4-.75,1-1.79,1.78-3.11,2.35s-2.84.86-4.55.86h-2.37v-2.06h1.79c1.35,0,2.44-.4,3.27-1.21s1.24-1.88,1.24-3.23c0-1.27-.35-2.24-1.05-2.9s-1.71-.99-3.03-.99h-1.71c-.03.08-.05.27-.06.56-.01.3-.02.69-.02,1.19v10.77c0,.8,0,1.61.02,2.41.01.8.04,1.52.08,2.14.04.62.07,1.06.1,1.32l2.22.62-.12,1.79h-9.34Z"/>
  <path d="M524.89,135.47l-.39-2.61c-.18-.02-.45-.05-.82-.08-.36-.03-.79-.04-1.28-.04h-2.29c-.41,0-.82,0-1.22.04-.4.03-.75.05-1.03.08v-2.53c.29.03.63.04,1.03.06.4,0,.81.02,1.22.02h2.29c.49,0,.92,0,1.28-.02.36,0,.64-.02.82-.02l.39-2.64h2.02v7.74h-2.02ZM529.68,143.55c-.7-.08-1.5-.14-2.41-.18s-1.72-.06-2.45-.06h-13.38l-.12-1.79,2.45-.58c.05-.13.1-.45.14-.97.04-.52.07-1.2.1-2.04.03-.84.04-1.81.04-2.9v-6.22c0-1.12-.01-2.1-.04-2.96-.02-.86-.06-1.54-.1-2.06s-.08-.83-.14-.93l-2.45-.58.12-1.79h12.17c.47,0,1.02,0,1.65-.02.64-.01,1.27-.04,1.91-.08.64-.04,1.2-.07,1.69-.1l.93,5.56-2.1.27-1.4-3.35c-.31-.05-.6-.09-.85-.12-.26-.03-.54-.04-.86-.04h-3.38c-.49,0-.95,0-1.38.02-.43.01-.8.04-1.11.1,0,.15,0,.45-.02.89-.01.44-.02.98-.04,1.63s-.02,1.36-.02,2.14v8.91c0,.75,0,1.43.02,2.04s.03,1.13.04,1.55c.01.43.02.75.02.95.44.05.89.09,1.36.12.47.02,1.05.04,1.75.04h2.61c.65,0,1.14,0,1.48-.02.34,0,.59-.03.76-.06.17-.02.34-.05.52-.08l2.14-3.81,2.06.39-1.71,6.11h0v.02Z"/>
  <path d="M533.76,143.32l-.12-1.79,2.45-.58c.05-.13.09-.45.12-.97.03-.52.05-1.2.08-2.06.02-.85.04-1.81.04-2.88v-6.22c0-1.12-.01-2.1-.04-2.96-.03-.86-.05-1.55-.08-2.08s-.06-.84-.12-.91l-2.45-.58.12-1.79h9.76l.12,1.79-2.45.58c-.05.1-.1.41-.14.93-.04.52-.06,1.21-.08,2.06-.01.85-.02,1.84-.02,2.96v6.22c0,1.06,0,2.02.02,2.88.01.86.04,1.54.08,2.06.04.52.08.84.14.97l2.45.58-.12,1.79h-9.76Z"/>
  <path d="M553.98,143.67c-1.12,0-2.31-.15-3.58-.45s-2.35-.69-3.23-1.18l-.19-5.52,2.22-.16,1.28,3.81c.57.39,1.22.68,1.94.87.73.19,1.43.29,2.1.29,1.22,0,2.16-.27,2.82-.8.66-.53.99-1.25.99-2.16s-.27-1.65-.82-2.22c-.54-.57-1.24-1.06-2.1-1.48s-1.76-.82-2.72-1.21c-.96-.39-1.87-.85-2.72-1.4-.86-.54-1.56-1.23-2.1-2.06s-.82-1.88-.82-3.15c0-1.35.38-2.53,1.15-3.56.76-1.02,1.84-1.82,3.21-2.39s2.97-.86,4.78-.86c.62,0,1.27.04,1.94.12s1.32.19,1.94.35c.62.15,1.17.34,1.63.54l.39,5.41-2.22.15-1.2-3.62c-.83-.47-1.79-.7-2.88-.7-1.17,0-2.11.29-2.82.85-.71.57-1.07,1.35-1.07,2.33,0,.88.27,1.61.82,2.2.54.58,1.25,1.09,2.12,1.52s1.79.84,2.76,1.24c.97.4,1.89.87,2.76,1.4s1.58,1.2,2.12,2,.82,1.82.82,3.03c0,1.3-.39,2.46-1.17,3.48-.78,1.02-1.87,1.83-3.27,2.41s-3.03.87-4.9.87h0l.02.05h0Z"/>
  <path d="M586.14,141.03c1.27,0,2.35-.33,3.23-.99s1.55-1.62,2-2.88.68-2.77.68-4.53c0-2.05-.28-3.83-.84-5.35s-1.33-2.7-2.31-3.54c-.99-.84-2.15-1.26-3.5-1.26-1.89,0-3.39.77-4.49,2.31s-1.65,3.66-1.65,6.36c0,1.94.3,3.66.89,5.13.6,1.48,1.41,2.64,2.43,3.48s2.21,1.26,3.56,1.26h0ZM585.83,143.67c-2.33,0-4.41-.49-6.22-1.48-1.82-.98-3.24-2.35-4.28-4.08-1.04-1.74-1.55-3.73-1.55-5.99s.52-4.36,1.55-6.16c1.04-1.8,2.47-3.22,4.3-4.26s3.91-1.56,6.24-1.56,4.28.49,6.01,1.46c1.72.97,3.08,2.32,4.08,4.05,1,1.72,1.5,3.73,1.5,6.01,0,1.92-.35,3.62-1.05,5.11s-1.61,2.75-2.74,3.77-2.37,1.8-3.73,2.33-2.73.8-4.1.8h-.01Z"/>
  <path d="M618.19,143.55c-.6-.05-1.23-.09-1.9-.12-.67-.02-1.32-.05-1.92-.08-.61-.03-1.12-.04-1.54-.04h-11.98l-.12-1.79,2.45-.58c.05-.13.09-.47.12-1.01.02-.54.04-1.24.06-2.1.01-.85.02-1.79.02-2.8v-6.22c0-1.06,0-2.02-.02-2.86-.01-.84-.03-1.54-.06-2.08-.03-.54-.06-.87-.12-.97l-2.45-.62.12-1.79h10.54l.12,1.87-3.23.54c-.03.08-.06.37-.1.88-.04.5-.07,1.19-.1,2.04-.02.86-.04,1.85-.04,2.99v6.22c0,1.45.01,2.65.04,3.6.03.95.05,1.57.08,1.89.41.08.85.13,1.3.15.45.03,1.01.04,1.65.04h1.83c.6,0,1.11-.03,1.56-.08.44-.05.82-.1,1.13-.16l2.14-4.12,2.22.58-1.79,6.61h-.01Z"/>
  <path d="M621.61,143.32l-.12-1.79,2.45-.58c.05-.13.09-.45.12-.97.03-.52.05-1.2.08-2.06.03-.85.04-1.81.04-2.88v-6.22c0-1.12-.01-2.1-.04-2.96-.02-.86-.05-1.55-.08-2.08-.02-.53-.06-.84-.12-.91l-2.45-.58.12-1.79h9.76l.12,1.79-2.45.58c-.05.1-.1.41-.14.93-.04.52-.06,1.21-.08,2.06-.01.85-.02,1.84-.02,2.96v6.22c0,1.06,0,2.02.02,2.88.01.86.04,1.54.08,2.06.04.52.08.84.14.97l2.45.58-.12,1.79h-9.76Z"/>
  <polygon points="643.54 143.44 634.72 122.87 632.73 122.24 632.85 120.49 642.38 120.49 642.5 122.28 640.08 122.87 646.62 138.58 645.26 138.58 651.24 122.87 648.52 122.28 648.64 120.49 656.38 120.49 656.49 122.24 654.51 122.87 645.49 143.44 643.54 143.44 643.54 143.44"/>
  <path d="M671.31,135.47l-.39-2.61c-.18-.02-.45-.05-.82-.08-.36-.03-.79-.04-1.28-.04h-2.29c-.41,0-.82,0-1.22.04-.4.03-.74.05-1.03.08v-2.53c.29.03.63.04,1.03.06.4,0,.81.02,1.22.02h2.29c.49,0,.92,0,1.28-.02.36,0,.64-.02.82-.02l.39-2.64h2.02v7.74h-2.02ZM676.1,143.55c-.7-.08-1.5-.14-2.41-.18s-1.73-.06-2.45-.06h-13.38l-.12-1.79,2.45-.58c.05-.13.1-.45.14-.97.04-.52.07-1.2.1-2.04.03-.84.04-1.81.04-2.9v-6.22c0-1.12-.01-2.1-.04-2.96-.02-.86-.06-1.54-.1-2.06s-.08-.83-.14-.93l-2.45-.58.12-1.79h12.17c.47,0,1.02,0,1.65-.02.64-.01,1.27-.04,1.91-.08.64-.04,1.2-.07,1.69-.1l.93,5.56-2.1.27-1.4-3.35c-.31-.05-.6-.09-.86-.12s-.54-.04-.86-.04h-3.38c-.49,0-.95,0-1.38.02-.43.01-.8.04-1.11.1,0,.15,0,.45-.02.89-.01.44-.03.98-.04,1.63s-.02,1.36-.02,2.14v8.91c0,.75,0,1.43.02,2.04s.03,1.13.04,1.55c.01.43.02.75.02.95.44.05.89.09,1.36.12.47.02,1.05.04,1.75.04h2.61c.65,0,1.14,0,1.48-.02.34,0,.59-.03.76-.06.17-.02.34-.05.53-.08l2.14-3.81,2.06.39-1.71,6.11h0v.02Z"/>
  <path d="M680.18,143.32l-.12-1.79,2.45-.58c.05-.13.09-.45.12-.97.03-.52.05-1.2.08-2.06.03-.85.04-1.81.04-2.88v-6.22c0-1.12-.01-2.1-.04-2.96-.03-.86-.05-1.55-.08-2.08-.02-.53-.06-.84-.12-.91l-2.45-.58.12-1.79h9.76l.12,1.79-2.45.58c-.05.1-.1.41-.14.93-.04.52-.06,1.21-.08,2.06-.01.85-.02,1.84-.02,2.96v6.22c0,1.06,0,2.02.02,2.88.01.86.04,1.54.08,2.06.04.52.08.84.14.97l2.45.58-.12,1.79h-9.76Z"/>
  <path d="M712.92,143.75c-1.35,0-2.55-.23-3.62-.68-1.06-.45-2.03-1.17-2.9-2.16s-1.7-2.27-2.51-3.85l-2.33-4.78,3.85-.89,4.47,6.38c.62.85,1.2,1.56,1.75,2.12.54.56,1.1.99,1.67,1.3s1.18.54,1.83.7l-.04,1.67c-.36.08-.73.13-1.09.15-.36.03-.72.04-1.09.04h.01ZM693.21,143.32l-.12-1.79,2.45-.62c0-.16,0-.45.02-.87.01-.43.03-.93.04-1.5,0-.57.02-1.16.04-1.77.01-.61.02-1.19.02-1.73v-6.22c0-1.12-.01-2.1-.04-2.96-.02-.86-.06-1.54-.09-2.06-.04-.52-.09-.83-.14-.93l-2.45-.58.11-1.79h9.61c2.8,0,4.89.47,6.26,1.42s2.06,2.4,2.06,4.37c0,1.27-.37,2.41-1.13,3.4-.75,1-1.79,1.78-3.11,2.35s-2.84.86-4.55.86h-2.37v-2.06h1.79c1.35,0,2.43-.4,3.26-1.21.83-.8,1.24-1.88,1.24-3.23,0-1.27-.35-2.24-1.05-2.9s-1.71-.99-3.03-.99h-1.71c-.02.08-.05.27-.06.56-.01.3-.02.69-.02,1.19v10.77c0,.8,0,1.61.02,2.41.01.8.04,1.52.08,2.14.04.62.07,1.06.1,1.32l2.22.62-.12,1.79h-9.33,0Z"/>
  <path d="M719.34,136.52v-2.45c.49.03,1.09.06,1.81.1.71.04,1.62.06,2.74.06s2-.02,2.74-.06,1.34-.07,1.81-.1v2.41c-.62,0-1.31,0-2.04-.04-.74-.03-1.57-.04-2.51-.04s-1.76,0-2.49.04c-.72.03-1.41.05-2.06.08h0ZM713.43,143.32l-.12-1.79,1.98-.58,7.93-19.48,2.92-1.67,8.83,21.16,1.98.58-.11,1.79h-9.57l-.12-1.79,2.45-.58-2.18-5.29-.43-1.28-4.01-9.61,1.05.04-3.5,9.49-.39,1.17-1.9,5.48,2.45.58-.12,1.79h-7.15.01Z"/>
  <path d="M10.04,196.7c.52,0,1.06-.14,1.63-.41s1.1-.74,1.59-1.42v-8.51c-.41-.62-.91-1.06-1.48-1.32-.57-.26-1.14-.39-1.71-.39-1.32,0-2.4.53-3.25,1.59-.84,1.06-1.26,2.52-1.26,4.36,0,1.97.44,3.48,1.32,4.53s1.93,1.57,3.15,1.57h0ZM14.24,200.2l-.89-.54.04-2.49-.12-.04c-.7,1.09-1.46,1.85-2.27,2.29-.82.44-1.65.66-2.51.66-1.4,0-2.68-.35-3.85-1.05-1.17-.7-2.09-1.67-2.78-2.9s-1.03-2.66-1.03-4.3c0-1.45.26-2.75.78-3.91s1.22-2.13,2.12-2.94c.89-.8,1.89-1.42,2.98-1.85s2.19-.64,3.31-.64c.57,0,1.15.06,1.75.18s1.09.29,1.48.52c0-.47,0-1.03-.02-1.69,0-.66-.03-1.33-.04-2,0-.68-.02-1.28-.04-1.83,0-.54-.03-.95-.06-1.21l-2.96-.47-.08-1.55,6.88-1.79.93.62c-.08,1.61-.14,3.12-.2,4.53-.05,1.41-.08,2.9-.08,4.45l-.04,8.98c0,1.32.04,2.4.12,3.25.08.84.14,1.5.2,1.96l2.53.58v1.55l-6.14,1.6h0v.03h-.01Z"/>
  <path d="M26.52,178.93c-.91,0-1.63-.28-2.18-.84s-.82-1.22-.82-2,.27-1.41.82-1.98c.54-.57,1.27-.86,2.18-.86s1.62.29,2.14.86c.52.57.78,1.23.78,1.98s-.26,1.44-.78,2-1.23.84-2.14.84h0ZM21.59,199.74l-.12-1.71,2.61-.58c.02-.1.05-.32.08-.66s.05-.79.08-1.34c.03-.56.04-1.21.04-1.96l.04-2.96c0-.8-.02-1.55-.08-2.23-.05-.69-.14-1.33-.27-1.92l-2.61-.55v-1.59l6.69-1.67.89.66c-.08.8-.14,1.61-.17,2.43-.04.82-.06,1.76-.06,2.82v4.9c0,.96.02,1.83.06,2.61.04.77.1,1.27.17,1.48l2.61.58-.12,1.71h-9.84v-.02h0Z"/>
  <path d="M32.94,199.74l-.12-1.67,2.41-.62c.03-.1.05-.32.08-.66s.05-.79.08-1.34c.02-.56.04-1.21.04-1.96l.04-2.96c0-.8-.03-1.55-.08-2.23-.05-.69-.14-1.33-.27-1.93l-2.49-.55v-1.59l6.26-1.67.89.62-.15,3.11.12.04c.75-1.45,1.52-2.44,2.29-2.96.78-.52,1.55-.78,2.33-.78.67,0,1.25.18,1.73.54s.72.92.72,1.67-.26,1.34-.78,1.75-1.14.62-1.87.62c-.57,0-1.1-.1-1.58-.31-.48-.21-.98-.56-1.5-1.05l.97.12c-.41.31-.82.71-1.2,1.19-.39.48-.74,1.04-1.05,1.69l.04,3.23c.03.86.05,1.65.08,2.39.03.74.05,1.37.08,1.9s.05.9.08,1.11l3.38.54-.12,1.75h-10.42,0Z"/>
  <path d="M56.28,200.05c-1.61,0-3.05-.36-4.34-1.09-1.28-.73-2.29-1.73-3.01-3.01-.73-1.28-1.09-2.75-1.09-4.41,0-1.82.4-3.4,1.2-4.76s1.86-2.42,3.15-3.19c1.3-.77,2.68-1.14,4.16-1.11,2.25.02,3.98.74,5.17,2.14,1.19,1.4,1.79,3.23,1.79,5.48v.85h-11.51v-1.94h8.09l-.54.82v-1.17c0-1.3-.29-2.32-.87-3.07s-1.39-1.13-2.43-1.13c-.67,0-1.29.19-1.85.58-.56.39-1.01.97-1.34,1.75-.34.78-.5,1.75-.5,2.92v.7c0,1.92.5,3.44,1.5,4.57s2.33,1.69,3.99,1.69c.88,0,1.68-.16,2.39-.49s1.42-.88,2.12-1.65l1.13,1.01c-.73,1.5-1.72,2.63-2.99,3.38s-2.67,1.13-4.2,1.13h-.02Z"/>
  <path d="M73.74,208.41c-.65,0-1.3-.09-1.94-.27-.65-.18-1.24-.43-1.79-.74l.82-1.63c.44.26.91.48,1.42.66s1.02.27,1.54.27c.57,0,1.02-.14,1.34-.41.33-.27.49-.62.49-1.03,0-.52-.27-.92-.8-1.2-.53-.29-1.25-.38-2.16-.27l-.66-.74,2.25-3.77h2.18l-2.49,3.27.2-1.09c1.3,0,2.37.29,3.23.86s1.28,1.36,1.28,2.37c0,1.06-.47,1.95-1.42,2.66s-2.11,1.07-3.48,1.07h-.01,0ZM74.48,200.05c-1.58,0-3.01-.35-4.3-1.05-1.28-.7-2.31-1.69-3.07-2.96s-1.15-2.74-1.15-4.4.4-3.18,1.2-4.57c.8-1.39,1.91-2.5,3.33-3.34,1.41-.84,3.03-1.26,4.84-1.26,1.14,0,2.15.15,3.03.45s1.57.71,2.06,1.23c.49.52.74,1.09.74,1.71,0,.57-.18,1.01-.54,1.32-.36.31-.82.47-1.36.47-.47,0-.87-.09-1.22-.27s-.76-.48-1.22-.89l-2.57-2.33,1.79.43c-.86-.18-1.69-.07-2.49.33s-1.47,1.07-1.98,2c-.52.93-.78,2.13-.78,3.58,0,2.02.5,3.55,1.5,4.59s2.24,1.55,3.72,1.55c.8,0,1.56-.16,2.27-.49.71-.32,1.41-.89,2.08-1.69l1.2,1.05c-.73,1.5-1.72,2.64-2.98,3.4s-2.63,1.15-4.1,1.15h0Z"/>
  <path d="M96.76,174.77l1.52.89c-.39,1.27-.95,2.28-1.69,3.03s-1.6,1.13-2.59,1.13c-.65,0-1.32-.16-2.02-.49-.7-.32-1.37-.65-2.02-.99s-1.24-.5-1.79-.5-.95.16-1.3.49c-.35.32-.71.78-1.07,1.38l-1.52-.89c.39-1.3.96-2.31,1.71-3.05s1.61-1.11,2.57-1.11c.65,0,1.32.17,2.02.51s1.38.67,2.04.99c.66.33,1.25.49,1.77.49s.96-.16,1.32-.49c.36-.32.71-.78,1.05-1.38h0ZM91,196.9c.44,0,.86-.08,1.26-.25s.77-.45,1.11-.84v-3.89l-3.19.7c-.62.13-1.07.35-1.34.66s-.41.73-.41,1.24c0,.62.25,1.17.76,1.65.5.48,1.11.72,1.81.72h0ZM89.33,200.05c-1.17,0-2.17-.25-3.01-.74s-1.48-1.09-1.92-1.79-.66-1.37-.66-2.02c0-.91.29-1.67.85-2.27.57-.61,1.48-1.11,2.72-1.5l6.07-1.87v-1.59c0-.57-.18-1.1-.54-1.59-.36-.49-.84-.89-1.44-1.2s-1.24-.47-1.94-.47c-.49,0-.84.11-1.03.33s-.32.66-.37,1.3l-.16,2.1c-1.17.26-2.13.23-2.9-.1-.76-.33-1.15-.86-1.15-1.61,0-.47.23-.95.7-1.44s1.06-.96,1.77-1.4,1.46-.82,2.24-1.13,1.49-.5,2.14-.58c2.2,0,3.95.52,5.23,1.55,1.28,1.04,1.94,2.42,1.96,4.16l-.12,5.72c0,.68.02,1.23.06,1.65.04.43.11.77.21,1.03l2.53.47v1.48l-2.29.97c-.44.18-.85.32-1.22.41-.38.09-.72.14-1.03.14-.93,0-1.58-.49-1.94-1.48l-.58-1.71.74.15c-.8.96-1.62,1.71-2.45,2.24-.83.53-1.65.8-2.45.8h-.02,0Z"/>
  <path d="M111.69,197.79c.73,0,1.35-.23,1.87-.68.52-.45.92-1.11,1.21-1.96s.43-1.85.43-2.99c0-2.23-.39-4.05-1.17-5.44-.78-1.4-1.81-2.1-3.11-2.1-1.11,0-2,.53-2.66,1.59s-.99,2.48-.99,4.24c0,1.4.2,2.66.58,3.77.39,1.12.91,1.99,1.57,2.63s1.42.95,2.27.95h0ZM111.3,200.05c-1.76,0-3.31-.37-4.65-1.11s-2.38-1.76-3.13-3.07-1.13-2.81-1.13-4.49c0-1.84.42-3.43,1.26-4.76.84-1.34,1.96-2.36,3.35-3.07s2.87-1.07,4.45-1.07c1.68,0,3.17.36,4.45,1.09s2.28,1.74,2.99,3.03c.71,1.3,1.07,2.79,1.07,4.47s-.39,3.21-1.17,4.57-1.82,2.44-3.13,3.23-2.77,1.19-4.38,1.19h.02Z"/>
  <path d="M139.58,196.7c.52,0,1.06-.14,1.63-.41s1.1-.74,1.59-1.42v-8.51c-.41-.62-.91-1.06-1.48-1.32s-1.14-.39-1.71-.39c-1.32,0-2.4.53-3.25,1.59-.84,1.06-1.26,2.52-1.26,4.36,0,1.97.44,3.48,1.32,4.53s1.93,1.57,3.15,1.57h0ZM143.78,200.2l-.89-.54.04-2.49-.12-.04c-.7,1.09-1.46,1.85-2.27,2.29-.82.44-1.65.66-2.51.66-1.4,0-2.68-.35-3.85-1.05-1.17-.7-2.09-1.67-2.78-2.9s-1.03-2.66-1.03-4.3c0-1.45.26-2.75.78-3.91s1.22-2.13,2.12-2.94c.89-.8,1.89-1.42,2.98-1.85s2.19-.64,3.31-.64c.57,0,1.15.06,1.75.18s1.09.29,1.48.52c0-.47,0-1.03-.02-1.69,0-.66-.03-1.33-.04-2,0-.68-.03-1.28-.04-1.83,0-.54-.03-.95-.06-1.21l-2.96-.47-.08-1.55,6.88-1.79.93.62c-.08,1.61-.14,3.12-.19,4.53s-.08,2.9-.08,4.45l-.04,8.98c0,1.32.04,2.4.12,3.25.08.84.14,1.5.19,1.96l2.53.58v1.55l-6.14,1.6h0v.03h0Z"/>
  <path d="M160.3,200.05c-1.61,0-3.05-.36-4.34-1.09-1.28-.73-2.29-1.73-3.01-3.01-.73-1.28-1.09-2.75-1.09-4.41,0-1.82.4-3.4,1.21-4.76.8-1.36,1.85-2.42,3.15-3.19s2.68-1.14,4.16-1.11c2.26.02,3.98.74,5.17,2.14s1.79,3.23,1.79,5.48v.85h-11.51v-1.94h8.09l-.54.82v-1.17c0-1.3-.29-2.32-.88-3.07-.58-.75-1.39-1.13-2.43-1.13-.67,0-1.29.19-1.85.58-.56.39-1,.97-1.34,1.75s-.51,1.75-.51,2.92v.7c0,1.92.5,3.44,1.5,4.57s2.33,1.69,3.99,1.69c.88,0,1.68-.16,2.39-.49s1.42-.88,2.12-1.65l1.13,1.01c-.73,1.5-1.72,2.63-2.99,3.38s-2.67,1.13-4.2,1.13h-.01Z"/>
  <path d="M183.71,200.05c-1.04,0-2.07-.12-3.11-.35-1.04-.23-1.9-.54-2.61-.93l-.19-4.43h2.29l.82,2.8c.93.6,1.96.89,3.07.89.83,0,1.48-.18,1.94-.54.47-.36.7-.84.7-1.44s-.23-1.15-.7-1.59-1.41-.93-2.84-1.48c-1.89-.73-3.21-1.49-3.97-2.29-.75-.8-1.13-1.82-1.13-3.03,0-1.01.31-1.9.93-2.68s1.48-1.39,2.59-1.83c1.1-.44,2.38-.66,3.83-.66.8,0,1.62.07,2.45.21s1.52.34,2.06.6l.43,4.36h-2.29l-.89-2.72c-.26-.15-.57-.28-.93-.37s-.73-.14-1.09-.14c-.83,0-1.49.19-1.98.56-.49.37-.74.86-.74,1.46,0,.65.29,1.19.87,1.63s1.63.99,3.13,1.63c1.71.73,2.92,1.48,3.64,2.26.71.78,1.07,1.74,1.07,2.88,0,1.55-.69,2.81-2.06,3.77s-3.14,1.44-5.29,1.44h0Z"/>
  <path d="M202.77,197.79c.73,0,1.35-.23,1.87-.68.52-.45.92-1.11,1.2-1.96.29-.85.43-1.85.43-2.99,0-2.23-.39-4.05-1.17-5.44-.78-1.4-1.82-2.1-3.11-2.1-1.11,0-2,.53-2.66,1.59s-.99,2.48-.99,4.24c0,1.4.19,2.66.58,3.77.39,1.12.91,1.99,1.57,2.63s1.42.95,2.27.95h.01ZM202.38,200.05c-1.76,0-3.31-.37-4.65-1.11s-2.38-1.76-3.13-3.07-1.13-2.81-1.13-4.49c0-1.84.42-3.43,1.26-4.76.84-1.34,1.96-2.36,3.35-3.07s2.87-1.07,4.45-1.07c1.69,0,3.17.36,4.45,1.09s2.28,1.74,2.99,3.03c.71,1.3,1.07,2.79,1.07,4.47s-.39,3.21-1.17,4.57-1.82,2.44-3.13,3.23-2.77,1.19-4.38,1.19h.02Z"/>
  <path d="M235.87,199.74l-.12-1.67,2.1-.62c.05-.21.09-.5.12-.89.02-.39.04-.84.06-1.36,0-.52.02-1.05.02-1.59l-.04-3.62c0-1.04-.16-1.87-.49-2.49-.32-.62-.75-1.08-1.26-1.36-.52-.29-1.08-.43-1.67-.43-.7,0-1.37.16-2,.49-.64.32-1.19.82-1.65,1.49l-.97-1.55c.91-1.19,1.88-2.1,2.92-2.72s2.15-.93,3.35-.93,2.29.29,3.21.85c.92.57,1.63,1.37,2.14,2.39.5,1.02.76,2.24.76,3.64l.04,4.12c0,.88.02,1.7.06,2.47.04.76.1,1.26.18,1.5l2.41.62-.12,1.67h-9.05ZM213.35,199.74l-.12-1.67,2.41-.62c.02-.1.05-.32.08-.66.02-.34.05-.79.08-1.34.03-.56.04-1.21.04-1.96l.04-2.96c0-.52,0-1.02-.04-1.49-.03-.48-.06-.95-.12-1.4-.05-.45-.12-.87-.2-1.26l-2.49-.55v-1.59l6.38-1.67.93.66-.23,2.18.12.04c.83-1.04,1.69-1.79,2.57-2.26s1.8-.7,2.76-.7,1.91.25,2.78.76c.87.5,1.57,1.27,2.12,2.29.54,1.02.82,2.32.82,3.91l.08,4.05c0,.88,0,1.7.04,2.47.02.76.08,1.26.16,1.5l2.22.62-.12,1.67h-8.79l-.12-1.67,2.06-.62c.05-.21.09-.5.12-.89.02-.39.04-.84.06-1.36,0-.52.02-1.05.02-1.59l-.04-3.85c0-.99-.15-1.78-.45-2.37-.3-.6-.69-1.02-1.18-1.28s-1.04-.39-1.63-.39c-.65,0-1.28.16-1.89.49-.61.32-1.13.8-1.57,1.42v5.75c0,.96.02,1.83.06,2.61.04.77.1,1.27.18,1.48l2.22.62-.12,1.67h-9.22l-.02-.04h0Z"/>
  <path d="M279.73,199.97c-.6-.05-1.23-.09-1.91-.12-.67-.02-1.32-.05-1.92-.08-.61-.03-1.12-.04-1.54-.04h-11.98l-.12-1.79,2.45-.58c.05-.13.09-.47.12-1.01s.04-1.24.06-2.1c.01-.85.02-1.79.02-2.8v-6.22c0-1.06,0-2.02-.02-2.86-.01-.84-.03-1.54-.06-2.08-.03-.54-.06-.87-.12-.97l-2.45-.62.12-1.79h10.54l.12,1.87-3.23.54c-.03.08-.06.37-.1.88-.04.5-.07,1.19-.1,2.04-.03.86-.04,1.85-.04,2.99v6.22c0,1.45.01,2.65.04,3.6s.05,1.58.08,1.89c.41.08.85.13,1.3.15.45.03,1,.04,1.65.04h1.83c.6,0,1.11-.03,1.55-.08s.82-.1,1.13-.16l2.14-4.12,2.22.58-1.79,6.61h.01Z"/>
  <path d="M296.57,191.88l-.39-2.61c-.18-.02-.45-.05-.82-.08-.36-.03-.79-.04-1.28-.04h-2.29c-.41,0-.82,0-1.22.04-.4.02-.75.05-1.03.08v-2.53c.28.03.63.04,1.03.06.4,0,.81.02,1.22.02h2.29c.49,0,.92,0,1.28-.02.36,0,.63-.02.82-.02l.39-2.64h2.02v7.74h-2.02ZM301.36,199.97c-.7-.08-1.5-.14-2.41-.18s-1.72-.06-2.45-.06h-13.38l-.12-1.79,2.45-.58c.05-.13.1-.45.14-.97s.07-1.2.1-2.04.04-1.81.04-2.9v-6.22c0-1.12-.01-2.1-.04-2.96-.02-.86-.06-1.54-.1-2.06s-.08-.83-.14-.93l-2.45-.58.12-1.79h12.17c.47,0,1.02,0,1.65-.02.64,0,1.27-.04,1.9-.08.64-.04,1.2-.07,1.69-.1l.93,5.56-2.1.27-1.4-3.34c-.31-.05-.6-.09-.86-.12s-.54-.04-.85-.04h-3.38c-.49,0-.95,0-1.38.02-.43,0-.8.04-1.11.1,0,.15,0,.45-.02.89-.01.44-.02.98-.04,1.63-.01.65-.02,1.36-.02,2.14v8.91c0,.75,0,1.43.02,2.04.01.61.03,1.13.04,1.55.01.43.02.75.02.95.44.05.89.09,1.36.12.47.02,1.05.04,1.75.04h2.61c.65,0,1.14,0,1.48-.02.34,0,.59-.03.76-.06.17-.02.35-.05.53-.08l2.14-3.81,2.06.39-1.71,6.11h0Z"/>
  <path d="M317.81,197.44c1.27,0,2.35-.33,3.23-.99s1.55-1.62,2-2.88.68-2.77.68-4.53c0-2.05-.28-3.83-.83-5.35-.56-1.52-1.33-2.7-2.31-3.54-.99-.84-2.15-1.26-3.5-1.26-1.89,0-3.39.77-4.49,2.31s-1.65,3.66-1.65,6.36c0,1.94.3,3.66.89,5.13.6,1.48,1.41,2.64,2.43,3.48,1.03.84,2.21,1.26,3.56,1.26h-.01ZM317.49,200.09c-2.33,0-4.41-.49-6.22-1.48-1.81-.98-3.24-2.35-4.28-4.08-1.04-1.74-1.55-3.73-1.55-5.99s.52-4.36,1.55-6.16c1.04-1.8,2.47-3.22,4.3-4.26s3.91-1.56,6.24-1.56,4.28.49,6.01,1.46c1.72.97,3.08,2.32,4.08,4.05,1,1.72,1.5,3.73,1.5,6.01,0,1.92-.35,3.62-1.05,5.11s-1.61,2.75-2.74,3.77-2.37,1.8-3.73,2.33-2.73.8-4.1.8h-.01,0Z"/>
  <path d="M350.82,193.01v-6.77c0-1.35,0-2.52-.02-3.52-.01-1-.04-1.8-.08-2.39-.04-.6-.08-.95-.14-1.05l-2.68-.59.12-1.79h8.01l.12,1.79-2.45.59c-.03.1-.06.45-.1,1.05s-.07,1.39-.1,2.39-.04,2.17-.04,3.52v7.97c0,1.09,0,2.09.02,2.99.01.91.02,1.81.02,2.72h-2.22l-15.17-18.43h1.63v8.56c0,1.45.01,2.7.04,3.73.02,1.04.06,1.85.1,2.45s.08.97.14,1.13l2.68.59-.12,1.79h-8.09l-.12-1.79,2.45-.59c.05-.15.09-.54.12-1.17s.05-1.46.08-2.51c.02-1.05.04-2.26.04-3.64v-5.64c0-.91-.01-1.72-.04-2.45s-.06-1.33-.1-1.81-.07-.77-.1-.87l-2.45-.59.12-1.79h5.87l13.77,16.1h-1.32v.02h.01Z"/>
  <path d="M363.31,192.93v-2.45c.49.03,1.1.06,1.81.1s1.63.06,2.74.06,2-.02,2.74-.06,1.34-.07,1.81-.1v2.41c-.62,0-1.3,0-2.04-.04s-1.57-.04-2.51-.04-1.76,0-2.49.04-1.41.05-2.06.08h0ZM357.4,199.74l-.12-1.79,1.98-.58,7.93-19.48,2.92-1.67,8.83,21.16,1.98.58-.12,1.79h-9.57l-.12-1.79,2.45-.58-2.18-5.29-.43-1.28-4.01-9.61,1.05.04-3.5,9.49-.39,1.17-1.9,5.48,2.45.58-.12,1.79h-7.16.03,0Z"/>
  <path d="M402.08,200.16c-1.35,0-2.55-.23-3.62-.68-1.06-.45-2.03-1.17-2.9-2.16s-1.7-2.27-2.51-3.85l-2.33-4.78,3.85-.89,4.47,6.38c.62.85,1.2,1.56,1.75,2.12.54.56,1.1.99,1.67,1.3s1.18.54,1.83.7l-.04,1.67c-.36.08-.73.13-1.09.15-.36.03-.73.04-1.09.04h.01,0ZM382.36,199.74l-.12-1.79,2.45-.62c0-.16,0-.45.02-.87.01-.43.03-.93.04-1.5s.02-1.16.04-1.77c.01-.61.02-1.19.02-1.73v-6.22c0-1.12-.01-2.1-.04-2.96-.02-.86-.06-1.54-.1-2.06s-.08-.83-.14-.93l-2.45-.58.12-1.79h9.61c2.8,0,4.89.47,6.26,1.42s2.06,2.4,2.06,4.37c0,1.27-.38,2.41-1.13,3.4-.75,1-1.79,1.78-3.11,2.35s-2.84.86-4.55.86h-2.37v-2.06h1.79c1.35,0,2.44-.4,3.27-1.21.83-.8,1.24-1.88,1.24-3.23,0-1.27-.35-2.24-1.05-2.9s-1.71-.99-3.03-.99h-1.71c-.02.08-.04.27-.06.56-.01.3-.02.69-.02,1.19v10.77c0,.8,0,1.61.02,2.41.01.8.04,1.52.08,2.14.04.62.07,1.06.1,1.32l2.22.62-.12,1.79h-9.34Z"/>
  <path d="M412.97,179.32c0,.21,0,.55-.02,1.01-.01.47-.03,1.1-.04,1.88-.01.79-.02,1.8-.02,3.01v6.22c0,.7,0,1.41.02,2.14.01.72.04,1.39.08,1.98.04.6.07,1.08.1,1.44.67.11,1.32.19,1.92.25.61.06,1.19.1,1.73.1,2.36,0,4.15-.67,5.39-2,1.23-1.33,1.85-3.38,1.85-6.12,0-1.79-.21-3.32-.62-4.59s-1-2.32-1.75-3.15-1.64-1.44-2.66-1.83-2.13-.58-3.33-.58c-.41,0-.84.02-1.28.06s-.89.1-1.36.17h-.01ZM405.66,176.91h10.31c4.2,0,7.47.98,9.8,2.94s3.5,4.69,3.5,8.19c0,2.28-.55,4.3-1.65,6.07-1.1,1.76-2.62,3.14-4.57,4.14-1.94,1-4.16,1.5-6.65,1.5h-10.73l-.12-1.79,2.45-.59c.08-.21.14-.87.19-1.98.05-1.12.08-2.43.08-3.93v-6.22c0-1.61-.03-2.96-.08-4.06s-.12-1.73-.19-1.88l-2.45-.59.12-1.79h0Z"/>
  <path d="M445.36,197.44c1.27,0,2.35-.33,3.23-.99s1.55-1.62,2-2.88.68-2.77.68-4.53c0-2.05-.28-3.83-.83-5.35-.56-1.52-1.33-2.7-2.31-3.54-.99-.84-2.15-1.26-3.5-1.26-1.89,0-3.39.77-4.49,2.31s-1.65,3.66-1.65,6.36c0,1.94.3,3.66.89,5.13.6,1.48,1.41,2.64,2.43,3.48,1.03.84,2.21,1.26,3.56,1.26h-.01ZM445.05,200.09c-2.33,0-4.41-.49-6.22-1.48-1.81-.98-3.24-2.35-4.28-4.08-1.04-1.74-1.55-3.73-1.55-5.99s.52-4.36,1.55-6.16c1.04-1.8,2.47-3.22,4.3-4.26s3.91-1.56,6.24-1.56,4.28.49,6.01,1.46c1.72.97,3.08,2.32,4.08,4.05,1,1.72,1.5,3.73,1.5,6.01,0,1.92-.35,3.62-1.05,5.11s-1.61,2.75-2.74,3.77-2.37,1.8-3.73,2.33-2.73.8-4.1.8h-.01,0Z"/>
  <path d="M467.92,176.91h7.74l8.13,17.66h-1.01l7.54-17.66h7.54l.12,1.79-2.45.55c-.02.26-.02.82,0,1.67.03.86.05,1.97.08,3.35l.23,6.92c.05,1.14.1,2.15.14,3.01.04.87.08,1.57.12,2.1s.07.89.1,1.07l2.45.58-.12,1.79h-9.84l-.12-1.79,2.45-.58c.02-.13.04-.42.06-.87.01-.45.02-1.1.02-1.94s-.01-1.89-.04-3.13l-.12-13.38h1.52l-9.3,21.82h-2.06l-10.11-21.82h1.91l.04,13.3c0,2.05.01,3.51.04,4.39.02.88.05,1.43.08,1.63l2.68.58-.12,1.79h-8.24l-.12-1.79,2.68-.58c.03-.18.05-.54.08-1.07s.05-1.19.08-1.96c.03-.78.04-1.62.04-2.53l.12-7.47c.03-1.45.03-2.57.02-3.37-.01-.79-.02-1.35-.02-1.69l-2.45-.58.12-1.79h-.01Z"/>
  <path d="M501.64,199.74l-.12-1.79,2.45-.59c.05-.13.09-.45.12-.97.02-.52.05-1.2.08-2.06.03-.85.04-1.82.04-2.88v-6.22c0-1.12-.01-2.1-.04-2.96-.02-.86-.05-1.55-.08-2.08s-.06-.84-.12-.91l-2.45-.59.12-1.79h9.76l.12,1.79-2.45.59c-.05.1-.1.41-.14.93-.04.52-.07,1.21-.08,2.06s-.02,1.84-.02,2.96v6.22c0,1.06,0,2.02.02,2.88.01.86.04,1.54.08,2.06.04.52.08.84.14.97l2.45.59-.12,1.79h-9.76Z"/>
  <path d="M534.38,200.16c-1.35,0-2.55-.23-3.62-.68-1.06-.45-2.03-1.17-2.9-2.16s-1.71-2.27-2.51-3.85l-2.33-4.78,3.85-.89,4.47,6.38c.62.85,1.21,1.56,1.75,2.12s1.1.99,1.67,1.3,1.18.54,1.83.7l-.04,1.67c-.36.08-.73.13-1.09.15-.36.03-.73.04-1.09.04h.01ZM514.67,199.74l-.12-1.79,2.45-.62c0-.16,0-.45.02-.87.01-.43.02-.93.04-1.5.01-.57.03-1.16.04-1.77.01-.61.02-1.19.02-1.73v-6.22c0-1.12-.01-2.1-.04-2.96-.03-.86-.06-1.54-.1-2.06s-.08-.83-.14-.93l-2.45-.58.12-1.79h9.61c2.8,0,4.89.47,6.26,1.42s2.06,2.4,2.06,4.37c0,1.27-.38,2.41-1.13,3.4-.75,1-1.79,1.78-3.11,2.35s-2.84.86-4.55.86h-2.37v-2.06h1.79c1.35,0,2.44-.4,3.27-1.21.83-.8,1.24-1.88,1.24-3.23,0-1.27-.35-2.24-1.05-2.9s-1.71-.99-3.03-.99h-1.71c-.03.08-.05.27-.06.56-.01.3-.02.69-.02,1.19v10.77c0,.8,0,1.61.02,2.41.01.8.04,1.52.08,2.14.04.62.07,1.06.1,1.32l2.22.62-.12,1.79h-9.34,0Z"/>
  <path d="M540.8,192.93v-2.45c.49.03,1.1.06,1.81.1s1.63.06,2.74.06,2-.02,2.74-.06,1.34-.07,1.81-.1v2.41c-.62,0-1.3,0-2.04-.04s-1.57-.04-2.51-.04-1.76,0-2.49.04-1.41.05-2.06.08h0ZM534.89,199.74l-.12-1.79,1.98-.58,7.93-19.48,2.92-1.67,8.83,21.16,1.98.58-.12,1.79h-9.57l-.12-1.79,2.45-.58-2.18-5.29-.43-1.28-4.01-9.61,1.05.04-3.5,9.49-.39,1.17-1.91,5.48,2.45.58-.12,1.79h-7.16.04Z"/>
  <path d="M578.09,193.01v-6.77c0-1.35,0-2.52-.02-3.52-.01-1-.04-1.8-.08-2.39-.04-.6-.08-.95-.14-1.05l-2.68-.59.12-1.79h8.01l.12,1.79-2.45.59c-.03.1-.06.45-.1,1.05s-.07,1.39-.1,2.39c-.02,1-.04,2.17-.04,3.52v7.97c0,1.09,0,2.09.02,2.99.01.91.02,1.81.02,2.72h-2.22l-15.17-18.43h1.63v8.56c0,1.45.01,2.7.04,3.73.02,1.04.06,1.85.1,2.45s.08.97.14,1.13l2.68.59-.12,1.79h-8.09l-.12-1.79,2.45-.59c.05-.15.09-.54.12-1.17.02-.62.05-1.46.08-2.51.02-1.05.04-2.26.04-3.64v-5.64c0-.91-.01-1.72-.04-2.45-.03-.73-.06-1.33-.1-1.81s-.07-.77-.1-.87l-2.45-.59.12-1.79h5.87l13.77,16.1h-1.32v.02h0Z"/>
  <path d="M593.77,179.32c0,.21,0,.55-.02,1.01-.01.47-.03,1.1-.04,1.88-.01.79-.02,1.8-.02,3.01v6.22c0,.7,0,1.41.02,2.14.01.72.04,1.39.08,1.98.04.6.07,1.08.1,1.44.67.11,1.32.19,1.92.25.61.06,1.19.1,1.73.1,2.36,0,4.15-.67,5.39-2,1.23-1.33,1.85-3.38,1.85-6.12,0-1.79-.21-3.32-.62-4.59s-1-2.32-1.75-3.15-1.64-1.44-2.66-1.83c-1.02-.39-2.13-.58-3.33-.58-.41,0-.84.02-1.28.06s-.89.1-1.36.17h0ZM586.45,176.91h10.31c4.2,0,7.47.98,9.8,2.94s3.5,4.69,3.5,8.19c0,2.28-.55,4.3-1.65,6.07-1.1,1.76-2.62,3.14-4.57,4.14-1.94,1-4.16,1.5-6.65,1.5h-10.73l-.12-1.79,2.45-.59c.08-.21.14-.87.2-1.98.05-1.12.08-2.43.08-3.93v-6.22c0-1.61-.03-2.96-.08-4.06s-.12-1.73-.2-1.88l-2.45-.59.12-1.79h0Z"/>
  <path d="M617.61,192.93v-2.45c.49.03,1.1.06,1.81.1s1.63.06,2.74.06,2-.02,2.74-.06,1.34-.07,1.81-.1v2.41c-.62,0-1.3,0-2.04-.04s-1.58-.04-2.51-.04-1.76,0-2.49.04-1.41.05-2.06.08h0ZM611.69,199.74l-.12-1.79,1.98-.58,7.93-19.48,2.92-1.67,8.83,21.16,1.98.58-.12,1.79h-9.57l-.12-1.79,2.45-.58-2.18-5.29-.43-1.28-4.01-9.61,1.05.04-3.5,9.49-.39,1.17-1.91,5.48,2.45.58-.12,1.79h-7.16.04Z"/>
  <path d="M22.83,256.15l-.12-1.67,2.1-.62c.05-.21.09-.5.12-.89s.04-.84.06-1.36c.01-.52.02-1.05.02-1.59l-.04-3.62c0-1.04-.16-1.87-.49-2.49s-.75-1.08-1.26-1.36c-.52-.29-1.08-.43-1.67-.43-.7,0-1.37.16-2,.49-.64.32-1.19.82-1.65,1.5l-.97-1.55c.91-1.19,1.88-2.1,2.92-2.72s2.15-.93,3.34-.93,2.29.29,3.21.85c.92.57,1.63,1.37,2.14,2.39s.76,2.24.76,3.64l.04,4.12c0,.88.02,1.7.06,2.47.04.76.1,1.26.17,1.5l2.41.62-.12,1.67h-9.02v-.02h-.01ZM.31,256.15l-.12-1.67,2.41-.62c.03-.1.05-.32.08-.66s.05-.78.08-1.34c.02-.56.04-1.21.04-1.96l.04-2.96c0-.52,0-1.02-.04-1.5-.02-.48-.06-.95-.12-1.4-.05-.45-.12-.87-.19-1.26l-2.49-.55v-1.59l6.38-1.67.93.66-.23,2.18.12.04c.83-1.04,1.68-1.79,2.57-2.25.88-.47,1.8-.7,2.76-.7s1.91.25,2.78.76c.87.51,1.58,1.27,2.12,2.29.54,1.02.82,2.33.82,3.91l.08,4.05c0,.88,0,1.7.04,2.47.03.76.08,1.26.16,1.5l2.22.62-.12,1.67h-8.79l-.12-1.67,2.06-.62c.05-.21.09-.5.12-.89s.04-.84.06-1.36c0-.52.02-1.05.02-1.59l-.04-3.85c0-.99-.15-1.78-.45-2.37-.3-.6-.69-1.02-1.19-1.28-.49-.26-1.04-.39-1.63-.39-.65,0-1.28.16-1.89.49-.61.32-1.13.8-1.57,1.42v5.75c0,.96.02,1.83.06,2.61s.1,1.27.17,1.48l2.22.62-.12,1.67H.32v-.04h0Z"/>
  <path d="M43.25,254.21c.73,0,1.35-.23,1.87-.68s.92-1.11,1.21-1.96.43-1.85.43-2.99c0-2.23-.39-4.05-1.17-5.44-.78-1.4-1.81-2.1-3.11-2.1-1.11,0-2,.53-2.66,1.59s-.99,2.48-.99,4.24c0,1.4.2,2.66.58,3.77.39,1.12.91,1.99,1.57,2.62.66.64,1.42.95,2.27.95h0ZM42.86,256.46c-1.76,0-3.31-.37-4.65-1.11s-2.38-1.76-3.13-3.07-1.13-2.81-1.13-4.49c0-1.84.42-3.43,1.26-4.76.84-1.34,1.96-2.36,3.35-3.07s2.87-1.07,4.45-1.07c1.68,0,3.17.36,4.45,1.09s2.28,1.74,3,3.03,1.07,2.79,1.07,4.47-.39,3.21-1.17,4.57-1.82,2.44-3.13,3.23c-1.31.79-2.77,1.19-4.38,1.19h.01Z"/>
  <path d="M53.79,256.15l-.12-1.67,2.41-.62c.02-.1.05-.32.08-.64.03-.33.05-.77.08-1.32.03-.56.04-1.23.04-2l.04-2.96c0-.83-.02-1.58-.08-2.25-.05-.67-.14-1.31-.27-1.9l-2.49-.55v-1.59l6.38-1.67.93.66-.23,2.18.12.04c.83-.99,1.72-1.72,2.66-2.22.95-.49,1.95-.74,3.01-.74s2.03.27,2.9.8,1.56,1.32,2.08,2.35c.52,1.04.78,2.31.78,3.81v4.05c0,.88.01,1.7.04,2.47.02.76.08,1.26.16,1.5l2.41.62-.12,1.67h-9.18l-.12-1.67,2.26-.62c.05-.21.09-.5.12-.89s.04-.84.06-1.36c.01-.52.02-1.05.02-1.59v-3.58c0-1.01-.16-1.84-.49-2.47-.32-.63-.75-1.1-1.26-1.4-.52-.3-1.09-.45-1.71-.45-.73,0-1.39.16-2,.49-.61.32-1.15.8-1.61,1.42v5.75c0,.99.02,1.86.06,2.62.04.77.1,1.25.18,1.46l2.41.62-.12,1.67h-9.41l-.02-.02h0Z"/>
  <path d="M80.77,239.24h7.62v2.29h-7.62v-2.29h0ZM89.45,253.16c-.39,1.04-1.08,1.86-2.06,2.45-.99.6-2.05.89-3.19.89-1.74,0-3.16-.51-4.26-1.52s-1.65-2.54-1.65-4.59l.12-8.87h-2.72v-1.13l6.07-4.98h1.13l-.08,5.13-.08,9.33c0,1.17.27,2.01.82,2.53s1.31.78,2.29.78c.49,0,.98-.1,1.46-.29.48-.19.9-.46,1.26-.8l.89,1.05h0v.02h0Z"/>
  <path d="M98.08,253.31c.44,0,.86-.08,1.26-.25s.77-.45,1.11-.84v-3.89l-3.19.7c-.62.13-1.07.35-1.34.66s-.41.73-.41,1.24c0,.62.25,1.17.76,1.65s1.11.72,1.81.72h0ZM96.41,256.46c-1.17,0-2.17-.25-3.01-.74s-1.49-1.09-1.92-1.79c-.44-.7-.66-1.37-.66-2.02,0-.91.29-1.67.86-2.27.57-.61,1.48-1.11,2.72-1.5l6.07-1.87v-1.59c0-.57-.18-1.1-.54-1.59-.36-.49-.84-.89-1.44-1.2s-1.24-.47-1.94-.47c-.49,0-.84.11-1.03.33s-.32.66-.37,1.3l-.16,2.1c-1.17.26-2.13.23-2.9-.1-.76-.33-1.15-.86-1.15-1.61,0-.47.23-.95.7-1.44s1.06-.96,1.77-1.4,1.46-.82,2.24-1.13,1.49-.5,2.14-.58c2.2,0,3.95.52,5.23,1.55,1.28,1.04,1.94,2.42,1.96,4.16l-.12,5.72c0,.68.02,1.23.06,1.65.04.43.11.77.21,1.03l2.53.47v1.48l-2.29.97c-.44.18-.85.32-1.22.41-.38.09-.72.14-1.03.14-.93,0-1.58-.49-1.94-1.48l-.58-1.71.74.15c-.8.96-1.62,1.71-2.45,2.24-.83.53-1.65.8-2.45.8h-.03,0Z"/>
  <path d="M127.25,242.19l-5.09-.47-1.4-1.71,6.49-.74v2.92h0ZM117.76,249.46c.88,0,1.58-.36,2.1-1.09s.78-1.71.78-2.96c0-1.37-.29-2.48-.86-3.31s-1.32-1.24-2.25-1.24c-.86,0-1.56.39-2.1,1.17s-.82,1.8-.82,3.07.29,2.35.87,3.15c.58.8,1.34,1.21,2.27,1.21h.01ZM117.49,251.49c-1.5,0-2.83-.26-3.97-.78s-2.03-1.24-2.66-2.16c-.64-.92-.95-1.98-.95-3.17,0-1.27.34-2.39,1.01-3.36.68-.97,1.59-1.74,2.74-2.31s2.46-.86,3.91-.86,2.7.29,3.83.86,2.02,1.34,2.66,2.29c.65.96.97,2.05.97,3.27s-.32,2.26-.97,3.21-1.54,1.69-2.68,2.22-2.44.8-3.89.8h0ZM117.25,265.02c-2.62,0-4.67-.38-6.16-1.15s-2.24-1.8-2.24-3.09c0-.88.41-1.69,1.24-2.43s2.04-1.39,3.62-1.96l1.63.23c-.7.47-1.24,1-1.63,1.59-.39.6-.58,1.23-.58,1.91,0,.91.38,1.62,1.15,2.14.76.52,1.86.78,3.29.78,1.5,0,2.74-.33,3.72-.97.97-.65,1.46-1.47,1.46-2.45,0-.72-.27-1.27-.8-1.63s-1.43-.6-2.7-.7l-4.63-.39-.43-.19c-1.19,0-2.15-.25-2.86-.74s-1.07-1.14-1.07-1.94.39-1.52,1.17-2.22,1.84-1.27,3.19-1.71l.58.7c-.36.23-.64.47-.82.7s-.27.47-.27.7c0,.31.11.56.33.76s.55.32.99.37l5.64.54c1.92.18,3.35.68,4.3,1.48.95.8,1.42,1.88,1.42,3.23,0,1.19-.41,2.28-1.24,3.27s-1.96,1.76-3.4,2.33-3.06.86-4.88.86h0l-.02-.02h0Z"/>
  <path d="M137.55,256.46c-1.61,0-3.05-.36-4.34-1.09-1.28-.73-2.29-1.73-3.01-3.01-.73-1.28-1.09-2.75-1.09-4.41,0-1.82.4-3.4,1.21-4.76.8-1.36,1.85-2.42,3.15-3.19s2.68-1.13,4.16-1.11c2.26.02,3.98.74,5.17,2.14s1.79,3.23,1.79,5.48v.85h-11.51v-1.94h8.09l-.54.82v-1.17c0-1.3-.29-2.32-.88-3.07-.58-.75-1.39-1.13-2.43-1.13-.68,0-1.29.19-1.85.58-.56.39-1,.97-1.34,1.75s-.51,1.75-.51,2.92v.7c0,1.92.5,3.44,1.5,4.57s2.33,1.69,3.99,1.69c.88,0,1.68-.16,2.39-.49s1.42-.88,2.12-1.65l1.13,1.01c-.73,1.5-1.72,2.63-2.99,3.38-1.27.75-2.67,1.13-4.2,1.13h-.01Z"/>
  <path d="M169.25,256.15l-.12-1.67,2.1-.62c.05-.21.09-.5.12-.89s.05-.84.06-1.36.02-1.05.02-1.59l-.04-3.62c0-1.04-.16-1.87-.49-2.49s-.75-1.08-1.26-1.36c-.52-.29-1.08-.43-1.67-.43-.7,0-1.37.16-2,.49-.64.32-1.19.82-1.65,1.5l-.97-1.55c.91-1.19,1.88-2.1,2.92-2.72s2.15-.93,3.35-.93,2.29.29,3.21.85c.92.57,1.63,1.37,2.14,2.39s.76,2.24.76,3.64l.04,4.12c0,.88.02,1.7.06,2.47.04.76.1,1.26.17,1.5l2.41.62-.12,1.67h-9.02l-.02-.02h0ZM146.73,256.15l-.12-1.67,2.41-.62c.03-.1.05-.32.08-.66s.05-.78.08-1.34.04-1.21.04-1.96l.04-2.96c0-.52,0-1.02-.04-1.5-.02-.48-.06-.95-.12-1.4-.05-.45-.12-.87-.19-1.26l-2.49-.55v-1.59l6.38-1.67.93.66-.23,2.18.12.04c.83-1.04,1.68-1.79,2.57-2.25.88-.47,1.8-.7,2.76-.7s1.91.25,2.78.76,1.57,1.27,2.12,2.29c.54,1.02.82,2.33.82,3.91l.08,4.05c0,.88,0,1.7.04,2.47.03.76.08,1.26.16,1.5l2.22.62-.12,1.67h-8.79l-.12-1.67,2.06-.62c.05-.21.09-.5.12-.89s.04-.84.06-1.36c0-.52.02-1.05.02-1.59l-.04-3.85c0-.99-.15-1.78-.45-2.37s-.69-1.02-1.19-1.28c-.49-.26-1.04-.39-1.63-.39-.65,0-1.28.16-1.89.49-.61.32-1.13.8-1.57,1.42v5.75c0,.96.02,1.83.06,2.61s.1,1.27.17,1.48l2.22.62-.12,1.67h-9.22v-.04h-.01Z"/>
  <path d="M213.12,256.39c-.6-.05-1.23-.09-1.9-.12-.67-.02-1.32-.05-1.92-.08-.61-.03-1.12-.04-1.54-.04h-11.98l-.12-1.79,2.45-.58c.05-.13.09-.47.12-1.01.02-.54.04-1.24.06-2.1,0-.85.02-1.79.02-2.8v-6.22c0-1.06,0-2.02-.02-2.86,0-.84-.03-1.54-.06-2.08-.03-.54-.06-.87-.12-.97l-2.45-.62.12-1.79h10.54l.12,1.87-3.23.54c-.03.08-.06.37-.1.88-.04.5-.07,1.19-.1,2.04-.02.86-.04,1.85-.04,2.99v6.22c0,1.45,0,2.65.04,3.6.03.95.05,1.57.08,1.89.41.08.85.13,1.3.15.45.03,1.01.04,1.65.04h1.83c.6,0,1.12-.03,1.56-.08s.82-.1,1.13-.16l2.14-4.12,2.22.58-1.79,6.61h-.01Z"/>
  <path d="M215.95,233.32h9.68l.12,1.79-2.45.62c-.03.21-.05.56-.08,1.07s-.04,1.15-.06,1.94c0,.79-.02,1.76-.02,2.9v4.63c0,1.55.23,2.85.68,3.87.45,1.02,1.11,1.79,1.96,2.29s1.88.76,3.07.76,2.15-.25,2.96-.74c.8-.49,1.41-1.26,1.83-2.31.41-1.05.62-2.37.62-3.95v-3.85c0-1.3,0-2.42-.04-3.38s-.06-1.72-.1-2.28-.08-.88-.14-.95l-2.72-.62.12-1.79h8.32l.12,1.79-2.45.62c-.02.08-.05.4-.08.95-.02.56-.05,1.32-.08,2.28-.02.96-.04,2.09-.04,3.38v4.36c0,2.1-.37,3.88-1.11,5.33s-1.78,2.56-3.13,3.33c-1.35.77-2.93,1.15-4.74,1.15-3.11,0-5.51-.83-7.19-2.49-1.69-1.66-2.53-4.02-2.53-7.08v-5.29c0-1.17,0-2.19-.04-3.05-.02-.87-.05-1.54-.08-2.02-.02-.48-.05-.76-.08-.84l-2.45-.62.12-1.79h0Z"/>
  <path d="M248.62,231.5l-2.1-.7,3.31-5.13,4.01.89-5.21,4.94h0,0ZM242.71,256.15l-.12-1.79,2.45-.58c.05-.13.09-.45.12-.97.02-.52.05-1.2.08-2.06.02-.85.04-1.81.04-2.88v-6.22c0-1.11,0-2.1-.04-2.96s-.05-1.55-.08-2.08-.06-.84-.12-.91l-2.45-.58.12-1.79h9.76l.12,1.79-2.45.58c-.05.1-.1.41-.14.93s-.06,1.21-.08,2.06c0,.85-.02,1.84-.02,2.96v6.22c0,1.06,0,2.02.02,2.88,0,.86.04,1.54.08,2.06.04.52.08.84.14.97l2.45.58-.12,1.79h-9.76Z"/>
  <path d="M262.93,256.5c-1.12,0-2.31-.15-3.58-.45s-2.35-.69-3.23-1.18l-.19-5.52,2.22-.16,1.28,3.81c.57.39,1.22.68,1.94.87.73.19,1.43.29,2.1.29,1.22,0,2.16-.27,2.82-.8s.99-1.25.99-2.16-.27-1.65-.82-2.22c-.54-.57-1.24-1.06-2.1-1.48-.86-.41-1.76-.82-2.72-1.21s-1.87-.85-2.72-1.4c-.86-.54-1.56-1.23-2.1-2.06s-.82-1.88-.82-3.15c0-1.35.38-2.53,1.15-3.56.76-1.02,1.84-1.82,3.21-2.39s2.97-.86,4.78-.86c.62,0,1.27.04,1.94.12.68.08,1.32.19,1.94.35.62.15,1.17.34,1.63.54l.39,5.41-2.22.15-1.2-3.62c-.83-.47-1.79-.7-2.88-.7-1.17,0-2.11.29-2.82.85-.71.57-1.07,1.35-1.07,2.33,0,.88.27,1.61.82,2.2.54.58,1.25,1.09,2.12,1.52s1.79.84,2.76,1.24,1.89.87,2.76,1.4,1.57,1.2,2.12,2,.82,1.82.82,3.03c0,1.3-.39,2.46-1.17,3.48-.78,1.02-1.87,1.83-3.27,2.41-1.4.58-3.03.87-4.9.87h0l.02.05h0Z"/>
  <path d="M282.88,233.32h7.74l8.13,17.66h-1.01l7.54-17.66h7.54l.12,1.79-2.45.55c-.03.26-.03.82,0,1.67.02.86.05,1.97.08,3.34l.23,6.92c.05,1.14.1,2.15.14,3.01.04.87.08,1.57.12,2.1s.07.89.1,1.07l2.45.58-.12,1.79h-9.84l-.12-1.79,2.45-.58c.03-.13.04-.42.06-.87.01-.45.02-1.1.02-1.94s-.01-1.89-.04-3.13l-.12-13.38h1.52l-9.29,21.82h-2.06l-10.11-21.82h1.91l.04,13.3c0,2.05.01,3.51.04,4.39.02.88.05,1.43.08,1.63l2.68.58-.12,1.79h-8.24l-.12-1.79,2.68-.58c.03-.18.05-.54.08-1.07s.05-1.19.08-1.96c.03-.78.04-1.62.04-2.53l.12-7.47c.03-1.45.03-2.57.02-3.36s-.02-1.35-.02-1.69l-2.45-.58.12-1.79h-.02Z"/>
  <path d="M320.92,249.35v-2.45c.49.03,1.1.06,1.81.1s1.63.06,2.74.06,2-.02,2.74-.06,1.34-.07,1.81-.1v2.41c-.62,0-1.3,0-2.04-.04-.74-.02-1.57-.04-2.51-.04s-1.76,0-2.49.04c-.73.02-1.41.05-2.06.08h0ZM315.01,256.15l-.12-1.79,1.98-.58,7.93-19.48,2.92-1.67,8.83,21.16,1.98.58-.12,1.79h-9.57l-.12-1.79,2.45-.58-2.18-5.29-.43-1.28-4.01-9.61,1.05.04-3.5,9.49-.39,1.17-1.9,5.48,2.45.58-.12,1.79h-7.16.03,0Z"/>
  <path d="M358.21,233.13l.89,6.69-2.18.2-1.55-4.43c-.29-.05-.56-.08-.84-.1-.27,0-.55-.02-.84-.02h-2.24c-.35,0-.63.03-.84.08,0,.18,0,.66-.02,1.44-.01.78-.02,1.71-.04,2.78-.01,1.08-.02,2.17-.02,3.29v4.12c0,1.5.01,2.85.04,4.05.02,1.19.05,2.05.08,2.57l3.34.51-.12,1.87h-11.39l-.12-1.87,3.35-.51c.03-.52.05-1.37.08-2.57.03-1.19.04-2.54.04-4.05v-4.12c0-1.11,0-2.21-.02-3.29-.01-1.08-.02-2-.02-2.78s-.01-1.26-.04-1.44c-.21-.05-.48-.08-.82-.08h-2.29c-.29,0-.57,0-.86.02-.29,0-.57.04-.86.1l-1.52,4.51-2.18-.23.82-6.73c.29.03.64.04,1.05.06s.86.03,1.34.06.94.05,1.38.06.83.02,1.17.02h10.27c.34,0,.73,0,1.19-.02.45,0,.91-.03,1.38-.06.47-.02.91-.04,1.32-.06s.76-.03,1.05-.06h.02,0Z"/>
  <path d="M373.19,253.86c1.27,0,2.35-.33,3.23-.99s1.55-1.62,2-2.88.68-2.77.68-4.53c0-2.05-.28-3.83-.83-5.35-.56-1.52-1.33-2.7-2.31-3.54-.99-.84-2.15-1.26-3.5-1.26-1.89,0-3.39.77-4.49,2.31s-1.65,3.66-1.65,6.36c0,1.94.3,3.66.89,5.13.6,1.48,1.41,2.64,2.43,3.48,1.03.84,2.21,1.26,3.56,1.26h-.01ZM372.87,256.5c-2.33,0-4.41-.49-6.22-1.48-1.81-.98-3.24-2.35-4.28-4.08-1.04-1.74-1.55-3.73-1.55-5.99s.52-4.36,1.55-6.16,2.47-3.22,4.3-4.26,3.91-1.56,6.24-1.56,4.28.49,6.01,1.46c1.72.97,3.08,2.32,4.08,4.05,1,1.72,1.5,3.73,1.5,6.01,0,1.92-.35,3.62-1.05,5.11s-1.61,2.75-2.74,3.77-2.37,1.8-3.73,2.33-2.73.8-4.1.8h-.01,0Z"/>
  <path d="M395.16,256.5c-1.12,0-2.31-.15-3.58-.45s-2.35-.69-3.23-1.18l-.2-5.52,2.22-.16,1.28,3.81c.57.39,1.22.68,1.94.87.73.19,1.43.29,2.1.29,1.22,0,2.16-.27,2.82-.8s.99-1.25.99-2.16-.27-1.65-.82-2.22c-.54-.57-1.24-1.06-2.1-1.48-.85-.41-1.76-.82-2.72-1.21s-1.87-.85-2.72-1.4-1.55-1.23-2.1-2.06c-.54-.83-.82-1.88-.82-3.15,0-1.35.38-2.53,1.15-3.56.76-1.02,1.83-1.82,3.21-2.39s2.97-.86,4.78-.86c.62,0,1.27.04,1.94.12s1.32.19,1.94.35c.62.15,1.17.34,1.63.54l.39,5.41-2.22.15-1.21-3.62c-.83-.47-1.79-.7-2.88-.7-1.17,0-2.11.29-2.82.85-.71.57-1.07,1.35-1.07,2.33,0,.88.27,1.61.82,2.2.54.58,1.25,1.09,2.12,1.52s1.79.84,2.76,1.24c.97.4,1.89.87,2.76,1.4s1.57,1.2,2.12,2c.54.8.82,1.82.82,3.03,0,1.3-.39,2.46-1.17,3.48-.78,1.02-1.87,1.83-3.27,2.41-1.4.58-3.03.87-4.9.87h0l.04.05h0Z"/>
</svg>